<?xml version="1.0" encoding="utf-8"?>
<!-- Generator: Adobe Illustrator 22.1.0, SVG Export Plug-In . SVG Version: 6.00 Build 0)  -->
<svg version="1.1" id="Layer_1" xmlns="http://www.w3.org/2000/svg" xmlns:xlink="http://www.w3.org/1999/xlink" x="0px" y="0px"
	 viewBox="0 0 1920 1080" style="enable-background:new 0 0 1920 1080;" xml:space="preserve">
<style type="text/css">
	.st0{fill:#FF7300;}
	.st1{fill:#F4912D;}
	.st2{fill:#512500;}
	.st3{fill:none;}
	.st4{fill:#FFFFFF;}
	.st5{font-family:'Futura-Medium';}
	.st6{font-size:50px;}
</style>
<title>senarie1_2</title>
<g id="Layer_1_1_">
	<polygon class="st0" points="1289,1072 1368,1072 1368,1097 1368,1115 1368,1160 1404,1160 1404,1203 1403,1203 1403,1249
		1439,1249 1439,1292 1360,1292 1360,1270 1360,1249 1360,1203 1325,1203 1325,1176 1325,1160 1325,1115 1289,1115 	"/>
	<rect y="0" class="st1" width="1920" height="1080"/>
	<circle class="st0" cx="145" cy="150" r="50"/>
	<circle class="st0" cx="1214" cy="333" r="50"/>
	<circle class="st0" cx="1733" cy="918" r="50"/>
	<circle class="st0" cx="226" cy="691" r="50"/>
	<circle class="st0" cx="913" cy="576" r="50"/>
	<circle class="st0" cx="542" cy="333" r="50"/>
	<circle class="st0" cx="1197" cy="841" r="50"/>
	<circle class="st0" cx="1570" cy="490" r="50"/>
	<circle class="st0" cx="828" cy="150" r="50"/>
	<circle class="st0" cx="592" cy="968" r="50"/>
	<circle class="st0" cx="1620" cy="174" r="50"/>
	<polygon class="st0" points="442,81 363,81 363,106 363,124 363,169 327,169 327,212 328,212 328,258 292,258 292,301 371,301
		371,279 371,258 371,212 406,212 406,185 406,169 406,124 442,124 	"/>
	<polygon class="st0" points="988,758 909,758 909,783 909,801 909,846 873,846 873,889 874,889 874,935 838,935 838,978 917,978
		917,956 917,935 917,889 952,889 952,862 952,846 952,801 988,801 	"/>
	<polygon class="st0" points="301,907 222,907 222,932 222,950 222,995 186,995 186,1038 187,1038 187,1084 151,1084 151,1127
		230,1127 230,1105 230,1084 230,1038 265,1038 265,1011 265,995 265,950 301,950 	"/>
	<polygon class="st0" points="1392,791 1471,791 1471,816 1471,834 1471,879 1507,879 1507,922 1506,922 1506,968 1542,968
		1542,1011 1463,1011 1463,989 1463,968 1463,922 1428,922 1428,895 1428,879 1428,834 1392,834 	"/>
	<polygon class="st0" points="1289,-70 1368,-70 1368,-45 1368,-27 1368,18 1404,18 1404,61 1403,61 1403,107 1439,107 1439,150
		1360,150 1360,128 1360,107 1360,61 1325,61 1325,34 1325,18 1325,-27 1289,-27 	"/>
	<polygon class="st0" points="1708,370 1787,370 1787,395 1787,413 1787,458 1823,458 1823,501 1822,501 1822,547 1858,547
		1858,590 1779,590 1779,568 1779,547 1779,501 1744,501 1744,474 1744,458 1744,413 1708,413 	"/>
	<polygon class="st0" points="1063,173 984,173 984,198 984,216 984,261 948,261 948,304 949,304 949,350 913,350 913,393 992,393
		992,371 992,350 992,304 1027,304 1027,277 1027,261 1027,216 1063,216 	"/>
	<polygon class="st0" points="1414,411 1335,411 1335,436 1335,454 1335,499 1299,499 1299,542 1300,542 1300,588 1264,588
		1264,631 1343,631 1343,609 1343,588 1343,542 1378,542 1378,515 1378,499 1378,454 1414,454 	"/>
	<polygon class="st0" points="492,521 571,521 571,546 571,564 571,609 607,609 607,652 606,652 606,698 642,698 642,741 563,741
		563,719 563,698 563,652 528,652 528,625 528,609 528,564 492,564 	"/>
	<polygon class="st0" points="-39,273 40,273 40,298 40,316 40,361 76,361 76,404 75,404 75,450 111,450 111,493 32,493 32,471
		32,450 32,404 -3,404 -3,377 -3,361 -3,316 -39,316 	"/>
	<path class="st0" d="M1781.9,177L1781.9,177c8.7-6.9,21.2-5.4,28.1,3.2l43.5,54.8c6.9,8.7,5.4,21.2-3.2,28.1l0,0
		c-8.7,6.9-21.2,5.4-28.1-3.2l-43.5-54.8C1771.8,196.4,1773.2,183.8,1781.9,177z"/>
	<path class="st0" d="M1662.5,15l43.5-54.8c6.9-8.7,19.4-10.1,28.1-3.2l0,0c8.7,6.9,10.1,19.4,3.2,28.1l-43.5,54.8
		c-6.9,8.7-19.4,10.1-28.1,3.2l0,0C1657.1,36.2,1655.7,23.6,1662.5,15z"/>
	<path class="st0" d="M1561.5,705.9l43.5-54.8c6.9-8.7,19.4-10.1,28.1-3.2l0,0c8.7,6.9,10.1,19.4,3.2,28.1l-43.5,54.8
		c-6.9,8.7-19.4,10.1-28.1,3.2l0,0C1556.1,727.2,1554.7,714.6,1561.5,705.9z"/>
	<path class="st0" d="M1228.6,1071.9l43.5-54.8c6.9-8.7,19.4-10.1,28.1-3.2l0,0c8.7,6.9,10.1,19.4,3.2,28.1l-43.5,54.8
		c-6.9,8.7-19.4,10.1-28.1,3.2l0,0C1223.2,1093.2,1221.7,1080.6,1228.6,1071.9z"/>
	<path class="st0" d="M720.6,408l43.5-54.8c6.9-8.7,19.4-10.1,28.1-3.2l0,0c8.7,6.9,10.1,19.4,3.2,28.1l-43.5,54.8
		c-6.9,8.7-19.4,10.1-28.1,3.2l0,0C715.2,429.2,713.7,416.6,720.6,408z"/>
	<path class="st0" d="M24.6,916l43.5-54.8c6.9-8.7,19.4-10.1,28.1-3.2l0,0c8.7,6.9,10.1,19.4,3.2,28.1l-43.5,54.8
		c-6.9,8.7-19.4,10.1-28.1,3.2l0,0C19.2,937.2,17.7,924.6,24.6,916z"/>
	<path class="st0" d="M371.6,856l43.5-54.8c6.9-8.7,19.4-10.1,28.1-3.2l0,0c8.7,6.9,10.1,19.4,3.2,28.1l-43.5,54.8
		c-6.9,8.7-19.4,10.1-28.1,3.2l0,0C366.2,877.2,364.7,864.6,371.6,856z"/>
	<path class="st0" d="M571.6,96l43.5-54.8c6.9-8.7,19.4-10.1,28.1-3.2l0,0c8.7,6.9,10.1,19.4,3.2,28.1l-43.5,54.8
		c-6.9,8.7-19.4,10.1-28.1,3.2l0,0C566.2,117.2,564.7,104.6,571.6,96z"/>
	<path class="st0" d="M1054.6,646l43.5-54.8c6.9-8.7,19.4-10.1,28.1-3.2l0,0c8.7,6.9,10.1,19.4,3.2,28.1l-43.5,54.8
		c-6.9,8.7-19.4,10.1-28.1,3.2l0,0C1049.2,667.2,1047.7,654.6,1054.6,646z"/>
	<path class="st0" d="M1432.8,258L1432.8,258c8.7-6.9,21.2-5.4,28.1,3.2l43.5,54.8c6.9,8.7,5.4,21.2-3.2,28.1l0,0
		c-8.7,6.9-21.2,5.4-28.1-3.2l-43.5-54.8C1422.7,277.4,1424.2,264.8,1432.8,258z"/>
	<path class="st0" d="M1108.9-1.4L1108.9-1.4c8.6-6.8,21.2-5.4,28,3.2l43.4,54.6c6.8,8.6,5.4,21.2-3.2,28l0,0
		c-8.6,6.8-21.2,5.4-28-3.2l-43.4-54.6C1098.8,18,1100.3,5.5,1108.9-1.4z"/>
	<path class="st0" d="M1885.8,762L1885.8,762c8.7-6.9,21.2-5.4,28.1,3.2l43.5,54.8c6.9,8.7,5.4,21.2-3.2,28.1l0,0
		c-8.7,6.9-21.2,5.4-28.1-3.2l-43.5-54.8C1875.7,781.4,1877.2,768.9,1885.8,762z"/>
	<path class="st0" d="M681.8,797.9L681.8,797.9c8.7-6.9,21.2-5.4,28.1,3.2l43.5,54.8c6.9,8.7,5.4,21.2-3.2,28.1l0,0
		c-8.7,6.9-21.2,5.4-28.1-3.2L678.6,826C671.7,817.4,673.2,804.8,681.8,797.9z"/>
	<path class="st0" d="M250.8,446.9L250.8,446.9c8.7-6.9,21.2-5.4,28.1,3.2l43.5,54.8c6.9,8.7,5.4,21.2-3.2,28.1l0,0
		c-8.7,6.9-21.2,5.4-28.1-3.2L247.6,475C240.7,466.4,242.2,453.8,250.8,446.9z"/>
	<path class="st2" d="M340,166h1116c6.6,0,12,5.4,12,12v631c0,6.6-5.4,12-12,12H340c-6.6,0-12-5.4-12-12V178
		C328,171.4,333.4,166,340,166z"/>
	<path class="st0" d="M430,263h1116c6.6,0,12,5.4,12,12v631c0,6.6-5.4,12-12,12H430c-6.6,0-12-5.4-12-12V275
		C418,268.4,423.4,263,430,263z"/>
</g>
<rect x="436.8" y="283.4" class="st3" width="1101.1" height="608.6"/>
<text transform="matrix(1 0 0 1 436.8174 324.6238)"><tspan x="0" y="0" class="st4 st5 st6">Stærkt! </tspan><tspan x="0" y="120" class="st4 st5 st6">Du har helt styr på hvordan den skal klares. </tspan><tspan x="0" y="240" class="st4 st5 st6">Det er altid en god idé at tage fat i en der kan </tspan><tspan x="0" y="300" class="st4 st5 st6">hjælpe med sagen, så spredningen kan blive </tspan><tspan x="0" y="360" class="st4 st5 st6">stoppet og personen det er gået ud over kan få </tspan><tspan x="0" y="420" class="st4 st5 st6">hjælp. </tspan></text>
</svg>
