<svg id="Layer_1" data-name="Layer 1" xmlns="http://www.w3.org/2000/svg" width="386" height="40" viewBox="0 0 386 40"><defs><style>.cls-1{fill:#89cce5;}.cls-2{font-size:10px;fill:#fff;font-family:Futura-Medium, Futura;}.cls-3{letter-spacing:0.01em;}.cls-4{letter-spacing:0.01em;}.cls-5{letter-spacing:0em;}.cls-6{letter-spacing:-0.01em;}.cls-7{letter-spacing:-0.01em;}.cls-8{letter-spacing:0em;}.cls-9{letter-spacing:-0.02em;}.cls-10{letter-spacing:-0.01em;}</style></defs><title>mulighed_3.3</title><path class="cls-1" d="M386,36s-7.5-1.12-11.61-6.11a16,16,0,0,0,4.13-10.71A16.21,16.21,0,0,0,362.32,3H43.2a16.14,16.14,0,1,0,0,32.27H362.32A16.12,16.12,0,0,0,369,33.8,55.9,55.9,0,0,0,386,36Z"/><text class="cls-2" transform="translate(46.5 23.22) scale(0.93 1)">Du siger d<tspan class="cls-3" x="46.68" y="0">e</tspan><tspan x="52.3" y="0">t til dine </tspan><tspan class="cls-4" x="91.51" y="0">f</tspan><tspan class="cls-5" x="94.6" y="0">o</tspan><tspan class="cls-6" x="100.61" y="0">r</tspan><tspan class="cls-5" x="104.29" y="0">æld</tspan><tspan class="cls-7" x="121.38" y="0">r</tspan><tspan class="cls-8" x="125.05" y="0">e når du </tspan><tspan class="cls-9" x="166.51" y="0">k</tspan><tspan x="171.29" y="0">ommer hjem som </tspan><tspan class="cls-3" x="251.04" y="0">t</tspan><tspan x="253.87" y="0">ager sagen vide</tspan><tspan class="cls-10" x="327.39" y="0">r</tspan><tspan x="331.06" y="0">e</tspan></text></svg>