<svg id="Layer_1" data-name="Layer 1" xmlns="http://www.w3.org/2000/svg" width="227" height="49" viewBox="0 0 227 49"><defs><style>.cls-1{fill:#89cce5;}.cls-2{font-size:10px;fill:#f9f9f9;font-family:Futura-Medium, Futura;}.cls-3{letter-spacing:-0.02em;}.cls-4{letter-spacing:0em;}.cls-5{letter-spacing:0.01em;}.cls-6{letter-spacing:0em;}.cls-7{letter-spacing:0.01em;}.cls-8{letter-spacing:0.02em;}.cls-9{letter-spacing:-0.02em;}</style></defs><title>mulighed_3.1</title><path class="cls-1" d="M216,37.93a18.88,18.88,0,0,1-10.48-7.07,14.28,14.28,0,0,0,2.77-8.36C208.29,14,200.49,7,191,7H21.35C11.81,7,4,14,4,22.5S11.81,38,21.35,38H191a18.62,18.62,0,0,0,9.59-2.61A38.91,38.91,0,0,0,216,37.93Z"/><text class="cls-2" transform="translate(17.51 27.1) scale(0.93 1)">Du siger ik<tspan class="cls-3" x="48.16" y="0">k</tspan><tspan class="cls-4" x="52.98" y="0">e nog</tspan><tspan class="cls-5" x="79.08" y="0">e</tspan><tspan class="cls-6" x="84.7" y="0">t til nogen, du er </tspan><tspan class="cls-7" x="162.88" y="0">f</tspan><tspan x="165.97" y="0">or </tspan><tspan class="cls-8" x="178.8" y="0">f</tspan><tspan x="181.93" y="0">l</tspan><tspan class="cls-9" x="184.42" y="0">o</tspan><tspan class="cls-4" x="190.23" y="0">v</tspan></text></svg>