<svg id="Layer_1" data-name="Layer 1" xmlns="http://www.w3.org/2000/svg" width="382" height="44" viewBox="0 0 382 44"><defs><style>.cls-1{fill:#89cce5;}.cls-2{font-size:10px;fill:#fff;font-family:Futura-Medium, Futura;}.cls-3{letter-spacing:0.01em;}.cls-4{letter-spacing:0.02em;}.cls-5{letter-spacing:0.01em;}</style></defs><title>mulighed_3.2</title><path class="cls-1" d="M375,39.5s-8-1-12.89-5.24a13.43,13.43,0,0,0,3.77-9.16V22.9c0-8.2-7.92-14.9-17.6-14.9H27.6C17.92,8,10,14.7,10,22.9v2.2C10,33.3,17.92,40,27.6,40H348.28a19.77,19.77,0,0,0,9-2.12A76.2,76.2,0,0,0,375,39.5Z"/><text class="cls-2" transform="translate(23.84 27.84) scale(0.93 1)">Du <tspan class="cls-3" x="15.8" y="0">t</tspan><tspan x="18.62" y="0">ager </tspan><tspan class="cls-4" x="42.96" y="0">f</tspan><tspan x="46.08" y="0">at i dem som har sendt dit billede </tspan><tspan class="cls-4" x="200.18" y="0">r</tspan><tspan x="204.07" y="0">undt og beder dem sl</tspan><tspan class="cls-5" x="300.85" y="0">e</tspan><tspan x="306.47" y="0">t</tspan><tspan class="cls-3" x="309.21" y="0">t</tspan><tspan x="312.03" y="0">e billed</tspan><tspan class="cls-5" x="345.64" y="0">e</tspan><tspan x="351.26" y="0">t</tspan></text></svg>