<svg id="Layer_1" data-name="Layer 1" xmlns="http://www.w3.org/2000/svg" width="272" height="118" viewBox="0 0 272 118"><defs><style>.cls-1{fill:#e5e5ea;}.cls-2{font-size:9.0049px;fill:#2f3335;font-family:Futura-Medium, Futura;}.cls-3{letter-spacing:0.0088em;}.cls-4{letter-spacing:0.0122em;}.cls-5{letter-spacing:-0.017em;}.cls-6{letter-spacing:0.0151em;}.cls-7{letter-spacing:0.0001em;}.cls-8{letter-spacing:-0.019em;}.cls-9{letter-spacing:0.0439em;}.cls-10{letter-spacing:-0.0171em;}</style></defs><title>scenarie_3</title><path class="cls-1" d="M247,8H31A15.0441,15.0441,0,0,0,16,23V90a14.8416,14.8416,0,0,0,1.3226,6.1118c-3.955,6.9-11.8075,8.4143-11.8075,8.4143a43.0734,43.0734,0,0,0,16.4015-2.63A14.8887,14.8887,0,0,0,31,105H247a15.0441,15.0441,0,0,0,15-15V23A15.0441,15.0441,0,0,0,247,8Z"/><text class="cls-2" transform="translate(34.019 30.9297) scale(1.04 1)">Din <tspan class="cls-3" x="16.4972" y="0">t</tspan><tspan x="19.0386" y="0">ele</tspan><tspan class="cls-4" x="31.2445" y="0">f</tspan><tspan x="34.0277" y="0">on er bl</tspan><tspan class="cls-5" x="65.9271" y="0">ev</tspan><tspan class="cls-3" x="75.1258" y="0">e</tspan><tspan x="80.1866" y="0">t </tspan><tspan class="cls-3" x="85.4277" y="0">t</tspan><tspan x="87.9692" y="0">ag</tspan><tspan class="cls-3" x="98.759" y="0">e</tspan><tspan x="103.8198" y="0">t til </tspan><tspan class="cls-6" x="118.7869" y="0">f</tspan><tspan class="cls-7" x="121.5964" y="0">es</tspan><tspan class="cls-3" x="130.2321" y="0">t</tspan><tspan x="132.7735" y="0">en, </tspan><tspan x="0" y="10.8057">h</tspan><tspan class="cls-8" x="4.9378" y="10.8057">v</tspan><tspan x="9.2907" y="10.8057">or billeder af dine b</tspan><tspan class="cls-9" x="91.0778" y="10.8057">r</tspan><tspan x="94.8414" y="10.8057">ys</tspan><tspan class="cls-3" x="103.3888" y="10.8057">t</tspan><tspan x="105.9303" y="10.8057">er ligger på. </tspan><tspan x="0" y="32.418">Og nu bli</tspan><tspan class="cls-10" x="38.7237" y="32.418">v</tspan><tspan class="cls-7" x="43.0939" y="32.418">er billed</tspan><tspan class="cls-3" x="76.7305" y="32.418">e</tspan><tspan x="81.7914" y="32.418">t sendt </tspan><tspan class="cls-6" x="111.2461" y="32.418">r</tspan><tspan x="114.7505" y="32.418">undt til alle </tspan><tspan class="cls-10" x="162.6067" y="32.418">v</tspan><tspan class="cls-7" x="166.9768" y="32.418">ed </tspan><tspan class="cls-6" x="180.1372" y="32.418">f</tspan><tspan x="182.9467" y="32.418">es</tspan><tspan class="cls-3" x="191.582" y="32.418">t</tspan><tspan class="cls-7" x="194.1234" y="32.418">en. </tspan><tspan x="0" y="54.0293">H</tspan><tspan class="cls-5" x="6.6041" y="54.0293">v</tspan><tspan x="10.9748" y="54.0293">ad gør du ?</tspan></text></svg>