<?xml version="1.0" encoding="utf-8"?>
<!-- Generator: Adobe Illustrator 22.1.0, SVG Export Plug-In . SVG Version: 6.00 Build 0)  -->
<svg version="1.1" id="Layer_1" xmlns="http://www.w3.org/2000/svg" xmlns:xlink="http://www.w3.org/1999/xlink" x="0px" y="0px"
	 viewBox="0 0 1920 1080" style="enable-background:new 0 0 1920 1080;" xml:space="preserve">
<style type="text/css">
	.st0{fill:#152230;}
	.st1{fill:#264159;}
	.st2{fill:#091014;}
	.st3{fill:none;}
	.st4{fill:#FFFFFF;}
	.st5{font-family:'Futura-Medium';}
	.st6{font-size:50px;}
</style>
<title>senarie2</title>
<g id="Layer_2_1_">
	<rect x="-15" y="59" class="st0" width="1920" height="1080"/>
	<circle class="st1" cx="130" cy="209" r="50"/>
	<circle class="st1" cx="1199" cy="392" r="50"/>
	<circle class="st1" cx="1718" cy="977" r="50"/>
	<circle class="st1" cx="211" cy="750" r="50"/>
	<circle class="st1" cx="898" cy="635" r="50"/>
	<circle class="st1" cx="527" cy="392" r="50"/>
	<circle class="st1" cx="1182" cy="900" r="50"/>
	<circle class="st1" cx="1555" cy="549" r="50"/>
	<circle class="st1" cx="813" cy="209" r="50"/>
	<circle class="st1" cx="577" cy="1027" r="50"/>
	<circle class="st1" cx="1605" cy="233" r="50"/>
	<polygon class="st1" points="427,140 348,140 348,165 348,183 348,228 312,228 312,271 313,271 313,317 277,317 277,360 356,360
		356,338 356,317 356,271 391,271 391,244 391,228 391,183 427,183 	"/>
	<polygon class="st1" points="973,817 894,817 894,842 894,860 894,905 858,905 858,948 859,948 859,994 823,994 823,1037 902,1037
		902,1015 902,994 902,948 937,948 937,921 937,905 937,860 973,860 	"/>
	<polygon class="st1" points="286,966 207,966 207,991 207,1009 207,1054 171,1054 171,1097 172,1097 172,1143 136,1143 136,1186
		215,1186 215,1164 215,1143 215,1097 250,1097 250,1070 250,1054 250,1009 286,1009 	"/>
	<polygon class="st1" points="1377,850 1456,850 1456,875 1456,893 1456,938 1492,938 1492,981 1491,981 1491,1027 1527,1027
		1527,1070 1448,1070 1448,1048 1448,1027 1448,981 1413,981 1413,954 1413,938 1413,893 1377,893 	"/>
	<polygon class="st1" points="1274,-11 1353,-11 1353,14 1353,32 1353,77 1389,77 1389,120 1388,120 1388,166 1424,166 1424,209
		1345,209 1345,187 1345,166 1345,120 1310,120 1310,93 1310,77 1310,32 1274,32 	"/>
	<polygon class="st1" points="1693,429 1772,429 1772,454 1772,472 1772,517 1808,517 1808,560 1807,560 1807,606 1843,606
		1843,649 1764,649 1764,627 1764,606 1764,560 1729,560 1729,533 1729,517 1729,472 1693,472 	"/>
	<polygon class="st1" points="1048,232 969,232 969,257 969,275 969,320 933,320 933,363 934,363 934,409 898,409 898,452 977,452
		977,430 977,409 977,363 1012,363 1012,336 1012,320 1012,275 1048,275 	"/>
	<polygon class="st1" points="1399,470 1320,470 1320,495 1320,513 1320,558 1284,558 1284,601 1285,601 1285,647 1249,647
		1249,690 1328,690 1328,668 1328,647 1328,601 1363,601 1363,574 1363,558 1363,513 1399,513 	"/>
	<polygon class="st1" points="477,580 556,580 556,605 556,623 556,668 592,668 592,711 591,711 591,757 627,757 627,800 548,800
		548,778 548,757 548,711 513,711 513,684 513,668 513,623 477,623 	"/>
	<polygon class="st1" points="-54,332 25,332 25,357 25,375 25,420 61,420 61,463 60,463 60,509 96,509 96,552 17,552 17,530
		17,509 17,463 -18,463 -18,436 -18,420 -18,375 -54,375 	"/>
	<path class="st1" d="M1766.9,236L1766.9,236c8.7-6.9,21.2-5.4,28.1,3.2l43.5,54.8c6.9,8.7,5.4,21.2-3.2,28.1l0,0
		c-8.7,6.9-21.2,5.4-28.1-3.2l-43.5-54.8C1756.8,255.4,1758.2,242.8,1766.9,236z"/>
	<path class="st1" d="M1650.8,102.1L1650.8,102.1c-8.7-6.9-10.1-19.4-3.2-28.1l43.5-54.8c6.9-8.7,19.4-10.1,28.1-3.2l0,0
		c8.7,6.9,10.1,19.4,3.2,28.1l-43.5,54.8C1672,107.6,1659.4,109,1650.8,102.1z"/>
	<path class="st1" d="M1549.8,793.1L1549.8,793.1c-8.7-6.9-10.1-19.4-3.2-28.1l43.5-54.8c6.9-8.7,19.4-10.1,28.1-3.2l0,0
		c8.7,6.9,10.1,19.4,3.2,28.1l-43.5,54.8C1571,798.5,1558.4,800,1549.8,793.1z"/>
	<path class="st1" d="M1216.8,1159.1L1216.8,1159.1c-8.7-6.9-10.1-19.4-3.2-28.1l43.5-54.8c6.9-8.7,19.4-10.1,28.1-3.2l0,0
		c8.7,6.9,10.1,19.4,3.2,28.1l-43.5,54.8C1238,1164.5,1225.4,1166,1216.8,1159.1z"/>
	<path class="st1" d="M708.8,495.1L708.8,495.1c-8.7-6.9-10.1-19.4-3.2-28.1l43.5-54.8c6.9-8.7,19.4-10.1,28.1-3.2l0,0
		c8.7,6.9,10.1,19.4,3.2,28.1l-43.5,54.8C730,500.5,717.4,502,708.8,495.1z"/>
	<path class="st1" d="M12.8,1003.1L12.8,1003.1c-8.7-6.9-10.1-19.4-3.2-28.1l43.5-54.8c6.9-8.7,19.4-10.1,28.1-3.2l0,0
		c8.7,6.9,10.1,19.4,3.2,28.1l-43.5,54.8C34,1008.5,21.4,1009.9,12.8,1003.1z"/>
	<path class="st1" d="M359.8,943.1L359.8,943.1c-8.7-6.9-10.1-19.4-3.2-28.1l43.5-54.8c6.9-8.7,19.4-10.1,28.1-3.2l0,0
		c8.7,6.9,10.1,19.4,3.2,28.1l-43.5,54.8C381,948.5,368.4,949.9,359.8,943.1z"/>
	<path class="st1" d="M559.8,183.1L559.8,183.1c-8.7-6.9-10.1-19.4-3.2-28.1l43.5-54.8c6.9-8.7,19.4-10.1,28.1-3.2l0,0
		c8.7,6.9,10.1,19.4,3.2,28.1l-43.5,54.8C581,188.5,568.5,190,559.8,183.1z"/>
	<path class="st1" d="M1042.8,733.1L1042.8,733.1c-8.7-6.9-10.1-19.4-3.2-28.1l43.5-54.8c6.9-8.7,19.4-10.1,28.1-3.2l0,0
		c8.7,6.9,10.1,19.4,3.2,28.1l-43.5,54.8C1064,738.5,1051.4,740,1042.8,733.1z"/>
	<path class="st1" d="M1417.8,317L1417.8,317c8.7-6.9,21.2-5.4,28.1,3.2l43.5,54.8c6.9,8.7,5.4,21.2-3.2,28.1l0,0
		c-8.7,6.9-21.2,5.4-28.1-3.2l-43.5-54.8C1407.7,336.4,1409.2,323.8,1417.8,317z"/>
	<path class="st1" d="M1097.8,55.9L1097.8,55.9c8.7-6.9,21.2-5.4,28.1,3.2l43.5,54.8c6.9,8.7,5.4,21.2-3.2,28.1l0,0
		c-8.7,6.9-21.2,5.4-28.1-3.2L1094.6,84C1087.7,75.4,1089.2,62.8,1097.8,55.9z"/>
	<path class="st1" d="M1870.8,821L1870.8,821c8.7-6.9,21.2-5.4,28.1,3.2l43.5,54.8c6.9,8.7,5.4,21.2-3.2,28.1l0,0
		c-8.7,6.9-21.2,5.4-28.1-3.2l-43.5-54.8C1860.7,840.4,1862.2,827.8,1870.8,821z"/>
	<path class="st1" d="M666.8,857L666.8,857c8.7-6.9,21.2-5.4,28.1,3.2l43.5,54.8c6.9,8.7,5.4,21.2-3.2,28.1l0,0
		c-8.7,6.9-21.2,5.4-28.1-3.2L663.6,885C656.7,876.4,658.2,863.8,666.8,857z"/>
	<path class="st1" d="M235.8,505.9L235.8,505.9c8.7-6.9,21.2-5.4,28.1,3.2l43.5,54.8c6.9,8.7,5.4,21.2-3.2,28.1l0,0
		c-8.7,6.9-21.2,5.4-28.1-3.2L232.6,534C225.7,525.4,227.2,512.8,235.8,505.9z"/>
	<path class="st2" d="M325,225h1116c6.6,0,12,5.4,12,12v631c0,6.6-5.4,12-12,12H325c-6.6,0-12-5.4-12-12V237
		C313,230.4,318.4,225,325,225z"/>
	<rect y="0" class="st0" width="1920" height="1080"/>
	<circle class="st1" cx="145" cy="150" r="50"/>
	<circle class="st1" cx="1214" cy="333" r="50"/>
	<circle class="st1" cx="1733" cy="918" r="50"/>
	<circle class="st1" cx="226" cy="691" r="50"/>
	<circle class="st1" cx="913" cy="576" r="50"/>
	<circle class="st1" cx="542" cy="333" r="50"/>
	<circle class="st1" cx="1197" cy="841" r="50"/>
	<circle class="st1" cx="1570" cy="490" r="50"/>
	<circle class="st1" cx="828" cy="150" r="50"/>
	<circle class="st1" cx="592" cy="968" r="50"/>
	<circle class="st1" cx="1620" cy="174" r="50"/>
	<polygon class="st1" points="442,81 363,81 363,106 363,124 363,169 327,169 327,212 328,212 328,258 292,258 292,301 371,301
		371,279 371,258 371,212 406,212 406,185 406,169 406,124 442,124 	"/>
	<polygon class="st1" points="988,758 909,758 909,783 909,801 909,846 873,846 873,889 874,889 874,935 838,935 838,978 917,978
		917,956 917,935 917,889 952,889 952,862 952,846 952,801 988,801 	"/>
	<polygon class="st1" points="301,907 222,907 222,932 222,950 222,995 186,995 186,1038 187,1038 187,1084 151,1084 151,1127
		230,1127 230,1105 230,1084 230,1038 265,1038 265,1011 265,995 265,950 301,950 	"/>
	<polygon class="st1" points="1392,791 1471,791 1471,816 1471,834 1471,879 1507,879 1507,922 1506,922 1506,968 1542,968
		1542,1011 1463,1011 1463,989 1463,968 1463,922 1428,922 1428,895 1428,879 1428,834 1392,834 	"/>
	<polygon class="st1" points="1289,-70 1368,-70 1368,-45 1368,-27 1368,18 1404,18 1404,61 1403,61 1403,107 1439,107 1439,150
		1360,150 1360,128 1360,107 1360,61 1325,61 1325,34 1325,18 1325,-27 1289,-27 	"/>
	<polygon class="st1" points="1708,370 1787,370 1787,395 1787,413 1787,458 1823,458 1823,501 1822,501 1822,547 1858,547
		1858,590 1779,590 1779,568 1779,547 1779,501 1744,501 1744,474 1744,458 1744,413 1708,413 	"/>
	<polygon class="st1" points="1063,173 984,173 984,198 984,216 984,261 948,261 948,304 949,304 949,350 913,350 913,393 992,393
		992,371 992,350 992,304 1027,304 1027,277 1027,261 1027,216 1063,216 	"/>
	<polygon class="st1" points="1414,411 1335,411 1335,436 1335,454 1335,499 1299,499 1299,542 1300,542 1300,588 1264,588
		1264,631 1343,631 1343,609 1343,588 1343,542 1378,542 1378,515 1378,499 1378,454 1414,454 	"/>
	<polygon class="st1" points="492,521 571,521 571,546 571,564 571,609 607,609 607,652 606,652 606,698 642,698 642,741 563,741
		563,719 563,698 563,652 528,652 528,625 528,609 528,564 492,564 	"/>
	<polygon class="st1" points="-39,273 40,273 40,298 40,316 40,361 76,361 76,404 75,404 75,450 111,450 111,493 32,493 32,471
		32,450 32,404 -3,404 -3,377 -3,361 -3,316 -39,316 	"/>
	<path class="st1" d="M1781.9,177L1781.9,177c8.7-6.9,21.2-5.4,28.1,3.2l43.5,54.8c6.9,8.7,5.4,21.2-3.2,28.1l0,0
		c-8.7,6.9-21.2,5.4-28.1-3.2l-43.5-54.8C1771.8,196.4,1773.2,183.8,1781.9,177z"/>
	<path class="st1" d="M1665.8,43.1L1665.8,43.1c-8.7-6.9-10.1-19.4-3.2-28.1l43.5-54.8c6.9-8.7,19.4-10.1,28.1-3.2l0,0
		c8.7,6.9,10.1,19.4,3.2,28.1l-43.5,54.8C1687,48.6,1674.4,50,1665.8,43.1z"/>
	<path class="st1" d="M1564.8,734.1L1564.8,734.1c-8.7-6.9-10.1-19.4-3.2-28.1l43.5-54.8c6.9-8.7,19.4-10.1,28.1-3.2l0,0
		c8.7,6.9,10.1,19.4,3.2,28.1l-43.5,54.8C1586,739.5,1573.4,741,1564.8,734.1z"/>
	<path class="st1" d="M1231.8,1100.1L1231.8,1100.1c-8.7-6.9-10.1-19.4-3.2-28.1l43.5-54.8c6.9-8.7,19.4-10.1,28.1-3.2l0,0
		c8.7,6.9,10.1,19.4,3.2,28.1l-43.5,54.8C1253,1105.5,1240.4,1107,1231.8,1100.1z"/>
	<path class="st1" d="M723.8,436.1L723.8,436.1c-8.7-6.9-10.1-19.4-3.2-28.1l43.5-54.8c6.9-8.7,19.4-10.1,28.1-3.2l0,0
		c8.7,6.9,10.1,19.4,3.2,28.1l-43.5,54.8C745,441.5,732.4,443,723.8,436.1z"/>
	<path class="st1" d="M27.8,944.1L27.8,944.1c-8.7-6.9-10.1-19.4-3.2-28.1l43.5-54.8c6.9-8.7,19.4-10.1,28.1-3.2l0,0
		c8.7,6.9,10.1,19.4,3.2,28.1l-43.5,54.8C49,949.5,36.5,950.9,27.8,944.1z"/>
	<path class="st1" d="M374.8,884.1L374.8,884.1c-8.7-6.9-10.1-19.4-3.2-28.1l43.5-54.8c6.9-8.7,19.4-10.1,28.1-3.2l0,0
		c8.7,6.9,10.1,19.4,3.2,28.1l-43.5,54.8C396,889.5,383.4,891,374.8,884.1z"/>
	<path class="st1" d="M574.8,124.1L574.8,124.1c-8.7-6.9-10.1-19.4-3.2-28.1l43.5-54.8c6.9-8.7,19.4-10.1,28.1-3.2l0,0
		c8.7,6.9,10.1,19.4,3.2,28.1l-43.5,54.8C596,129.5,583.5,131,574.8,124.1z"/>
	<path class="st1" d="M1057.8,674.1L1057.8,674.1c-8.7-6.9-10.1-19.4-3.2-28.1l43.5-54.8c6.9-8.7,19.4-10.1,28.1-3.2l0,0
		c8.7,6.9,10.1,19.4,3.2,28.1l-43.5,54.8C1079,679.5,1066.4,681,1057.8,674.1z"/>
	<path class="st1" d="M1432.8,258L1432.8,258c8.7-6.9,21.2-5.4,28.1,3.2l43.5,54.8c6.9,8.7,5.4,21.2-3.2,28.1l0,0
		c-8.7,6.9-21.2,5.4-28.1-3.2l-43.5-54.8C1422.7,277.4,1424.2,264.8,1432.8,258z"/>
	<path class="st1" d="M1112.8-3.1L1112.8-3.1c8.7-6.9,21.2-5.4,28.1,3.2l43.5,54.8c6.9,8.7,5.4,21.2-3.2,28.1l0,0
		c-8.7,6.9-21.2,5.4-28.1-3.2L1109.6,25C1102.7,16.4,1104.2,3.8,1112.8-3.1z"/>
	<path class="st1" d="M1885.8,762L1885.8,762c8.7-6.9,21.2-5.4,28.1,3.2l43.5,54.8c6.9,8.7,5.4,21.2-3.2,28.1l0,0
		c-8.7,6.9-21.2,5.4-28.1-3.2l-43.5-54.8C1875.7,781.4,1877.2,768.9,1885.8,762z"/>
	<path class="st1" d="M681.8,797.9L681.8,797.9c8.7-6.9,21.2-5.4,28.1,3.2l43.5,54.8c6.9,8.7,5.4,21.2-3.2,28.1l0,0
		c-8.7,6.9-21.2,5.4-28.1-3.2L678.6,826C671.7,817.4,673.2,804.8,681.8,797.9z"/>
	<path class="st1" d="M250.8,446.9L250.8,446.9c8.7-6.9,21.2-5.4,28.1,3.2l43.5,54.8c6.9,8.7,5.4,21.2-3.2,28.1l0,0
		c-8.7,6.9-21.2,5.4-28.1-3.2L247.6,475C240.7,466.4,242.2,453.8,250.8,446.9z"/>
	<path class="st2" d="M340,166h1116c6.6,0,12,5.4,12,12v631c0,6.6-5.4,12-12,12H340c-6.6,0-12-5.4-12-12V178
		C328,171.4,333.4,166,340,166z"/>
	<path class="st1" d="M430,263h1116c6.6,0,12,5.4,12,12v631c0,6.6-5.4,12-12,12H430c-6.6,0-12-5.4-12-12V275
		C418,268.4,423.4,263,430,263z"/>
	<polygon class="st1" points="286,-213 207,-213 207,-188 207,-170 207,-125 171,-125 171,-82 172,-82 172,-36 136,-36 136,7 215,7
		215,-15 215,-36 215,-82 250,-82 250,-109 250,-125 250,-170 286,-170 	"/>
</g>
<rect x="444.7" y="287.9" class="st3" width="1089.7" height="594.8"/>
<text transform="matrix(1 0 0 1 444.7432 329.1692)"><tspan x="0" y="0" class="st4 st5 st6">Rigtig dårlig idé. </tspan><tspan x="0" y="120" class="st4 st5 st6">Uanset om det er med vilje eller ej, så er det </tspan><tspan x="0" y="180" class="st4 st5 st6">ulovligt at sende “pinlige” billeder til andre. </tspan><tspan x="0" y="300" class="st4 st5 st6">Det går ind under blufærdighedskrænkelse og </tspan><tspan x="0" y="360" class="st4 st5 st6">straffes med fængsel og bøde. </tspan></text>
</svg>
