<svg id="Layer_1" data-name="Layer 1" xmlns="http://www.w3.org/2000/svg" width="383" height="56" viewBox="0 0 383 56"><defs><style>.cls-1{fill:#89cce5;}.cls-2{font-size:10px;fill:#f9f5f2;font-family:Futura-Medium, Futura;}.cls-3{letter-spacing:0.01em;}.cls-4{letter-spacing:-0.01em;}.cls-5{letter-spacing:-0.02em;}.cls-6{letter-spacing:-0.02em;}.cls-7{letter-spacing:0em;}</style></defs><title>mulighed_1.2</title><path class="cls-1" d="M375,46.62a10.43,10.43,0,0,1-7.53-7.08,10.13,10.13,0,0,0,.55-3.31V28.77c0-5.92-5.1-10.77-11.33-10.77H107.33C101.1,18,96,22.85,96,28.77v7.46C96,42.15,101.1,47,107.33,47H356.69a11.6,11.6,0,0,0,7.36-2.61A24.71,24.71,0,0,0,375,46.62Z"/><text class="cls-2" transform="translate(109.5 36.41) scale(0.93 1)">Du sender billed<tspan class="cls-3" x="74.22" y="0">e</tspan><tspan x="79.84" y="0">t vide</tspan><tspan class="cls-4" x="104.7" y="0">r</tspan><tspan x="108.37" y="0">e til nogle af dine </tspan><tspan class="cls-5" x="191.02" y="0">v</tspan><tspan x="195.87" y="0">enner/</tspan><tspan class="cls-6" x="226.83" y="0">v</tspan><tspan class="cls-7" x="231.68" y="0">eninder</tspan></text></svg>