<svg id="Layer_1" data-name="Layer 1" xmlns="http://www.w3.org/2000/svg" width="277" height="45" viewBox="0 0 277 45"><defs><style>.cls-1{fill:#89cce5;}.cls-2{font-size:10px;fill:#f9f8f7;font-family:Futura-Medium, Futura;}.cls-3{letter-spacing:0.01em;}.cls-4{letter-spacing:0em;}.cls-5{letter-spacing:0.01em;}</style></defs><title>mulighed_1.1</title><path class="cls-1" d="M269,35.59a11,11,0,0,1-7.53-6.94,12.49,12.49,0,0,0,.81-4.43V18.78C262.28,12.3,257.37,7,251.36,7H64.92C58.91,7,54,12.3,54,18.78v5.44C54,30.7,58.91,36,64.92,36H251.36a10.38,10.38,0,0,0,6.84-2.62A24.14,24.14,0,0,0,269,35.59Z"/><text class="cls-2" transform="translate(70.94 25.72) scale(0.93 1)">Du sl<tspan class="cls-3" x="22.34" y="0">e</tspan><tspan class="cls-4" x="27.96" y="0">t</tspan><tspan class="cls-3" x="30.7" y="0">t</tspan><tspan x="33.52" y="0">er billed</tspan><tspan class="cls-5" x="70.87" y="0">e</tspan><tspan x="76.49" y="0">t og lader som ingenting</tspan></text></svg>