<svg id="Layer_1" data-name="Layer 1" xmlns="http://www.w3.org/2000/svg" width="312" height="46" viewBox="0 0 312 46"><defs><style>.cls-1{fill:#89cce5;}.cls-2{font-size:10px;fill:#f9f6f4;font-family:Futura-Medium, Futura;}.cls-3{letter-spacing:0.01em;}.cls-4{letter-spacing:0.02em;}.cls-5{letter-spacing:0.01em;}.cls-6{letter-spacing:-0.01em;}.cls-7{letter-spacing:-0.01em;}.cls-8{letter-spacing:-0.02em;}</style></defs><title>mulighed_1.3</title><path class="cls-1" d="M309,39.88a9.93,9.93,0,0,1-6.82-5.77,10.89,10.89,0,0,0,1.07-4.68V25.57c0-6.36-5.54-11.57-12.32-11.57H73.32C66.54,14,61,19.21,61,25.57v3.86C61,35.79,66.54,41,73.32,41H290.93a12.66,12.66,0,0,0,8.23-3A23.24,23.24,0,0,0,309,39.88Z"/><text class="cls-2" transform="translate(75.35 30.57) scale(0.93 1)">Du <tspan class="cls-3" x="15.8" y="0">t</tspan><tspan x="18.62" y="0">ager </tspan><tspan class="cls-4" x="42.96" y="0">f</tspan><tspan x="46.08" y="0">at i dine </tspan><tspan class="cls-5" x="86.06" y="0">f</tspan><tspan x="89.15" y="0">o</tspan><tspan class="cls-6" x="95.16" y="0">r</tspan><tspan x="98.83" y="0">æld</tspan><tspan class="cls-7" x="115.93" y="0">r</tspan><tspan x="119.6" y="0">e eller en anden </tspan><tspan class="cls-8" x="196.77" y="0">v</tspan><tspan x="201.6" y="0">oksen</tspan></text></svg>