<svg xmlns="http://www.w3.org/2000/svg" width="385" height="840" viewBox="0 0 385 840"><defs><style>.cls-1{fill:#ce8757;}.cls-2{fill:#ffac6e;}.cls-3{fill:#703101;}.cls-4{fill:#93521d;}.cls-5{fill:#c96102;}</style></defs><title>noegenpige</title><g id="noegenpige"><polygon class="cls-1" points="139.61 666.79 140.43 666.31 139.61 665.84 139.61 599.39 70.65 599.39 70.65 626.62 70.2 626.37 70.45 666.75 70.71 707.13 105.57 686.72 136.99 668.32 139.61 668.32 139.61 666.79"/><rect class="cls-2" x="62.59" y="578.95" width="50.87" height="50.87" transform="translate(105.17 -6.14) rotate(9.89)"/><rect class="cls-2" x="68.77" y="462.96" width="45.16" height="133.58" transform="translate(29.83 -4.29) rotate(3.21)"/><rect class="cls-2" x="87.31" y="462.48" width="46.11" height="163.53" transform="translate(-85.9 24.76) rotate(-9.23)"/><rect class="cls-2" x="97.3" y="616.98" width="47.54" height="37.56" transform="translate(82.65 -10.28) rotate(7.38)"/><polygon class="cls-2" points="157 670.93 131.27 661.8 105.53 652.66 125.87 636.2 146.2 619.73 151.6 645.33 157 670.93"/><rect class="cls-1" x="93.97" y="548.05" width="3.33" height="143.57" transform="translate(34.88 -4.38) rotate(3.21)"/><rect class="cls-1" x="87.31" y="461.53" width="1.9" height="46.59"/><circle class="cls-3" cx="206.04" cy="338.51" r="41.7"/><rect class="cls-4" x="179.58" y="265.42" width="156.93" height="267.23" rx="37.62"/><ellipse class="cls-4" cx="240.56" cy="464.95" rx="80.71" ry="85.19"/><circle class="cls-3" cx="303.78" cy="491.85" r="63.22"/><path class="cls-3" d="M364.18,493.75h0c-1.25-1.37-3.49-1.95-6-1.56a364.6,364.6,0,0,0-119.48,40.57c-4.24,2.35-7.1,6.39-6,8.24q4.76,7.95,9.36,16.77a441.86,441.86,0,0,1,26.36,62.65,3.33,3.33,0,0,1,.18.93l4.65,115.89c.1,2.41,2.21,5.72,4.65,7.45A229.33,229.33,0,0,1,310,771.83c2,2.08,3.85,1.33,4.1-1.73q5.42-66.37,10.84-132.74a5.87,5.87,0,0,1,.13-.84C335.84,593.29,349,547,365,497.92A4.09,4.09,0,0,0,364.18,493.75Z"/><path class="cls-4" d="M313.07,472.27h0c-1.25-1.45-3.49-2.06-6-1.64a351.26,351.26,0,0,0-119.48,42.9c-4.23,2.49-7.1,6.76-6,8.71q4.77,8.41,9.37,17.74a484.94,484.94,0,0,1,26.36,66.26,3.74,3.74,0,0,1,.17,1l4.65,122.57c.1,2.55,2.21,6.05,4.65,7.87a233.88,233.88,0,0,1,32.11,28.71c2,2.21,3.84,1.41,4.1-1.83l10.83-140.39a6.6,6.6,0,0,1,.14-.89c10.74-45.72,23.85-94.68,39.85-146.58A4.53,4.53,0,0,0,313.07,472.27Z"/><circle class="cls-4" cx="272.84" cy="490.51" r="63.67"/><path class="cls-3" d="M318.58,686.7l-.83-.45-82.64,46.66-53.9,30.43c-8.58,4.84-4.38,16,6,15.91l121-1.07c5.74,0,10.37-3.93,10.37-8.71Z"/><path class="cls-4" d="M261.18,702l-.82-.45-82.64,46.65-53.9,30.43c-8.58,4.85-4.38,16,6,15.92l121-1.07c5.74,0,10.36-3.94,10.36-8.71Z"/><path class="cls-3" d="M197.37,443.27l20.43,1.66.28-3.52c9.7-9.51,18.72-40.45,21.74-77.68s-.87-69.23-8.9-80.18l.29-3.52-20.43-1.66Z"/><path class="cls-4" d="M189.3,437.88l20.42,1.67L210,436c9.7-9.51,18.71-40.45,21.74-77.68s-.87-69.23-8.9-80.19l.29-3.51L202.71,273Z"/><path class="cls-4" d="M123.05,432.27a12.52,12.52,0,0,1,.93,21.67l-19.84,12.61L84.31,479.17a12.52,12.52,0,0,1-19.23-10l-1-23.49-1-23.48a12.52,12.52,0,0,1,18.3-11.64l20.84,10.87Z"/><path class="cls-4" d="M77.49,436.37,80,454.49l2.78-.38c9.19,6.76,34.92,9.07,64.43,5S200.87,446,207.91,437l2.78-.38-2.48-18.13Z"/><polygon class="cls-4" points="240.11 123.93 234.63 196.19 229.15 268.46 201.45 230.02 173.75 191.58 206.93 157.76 240.11 123.93"/><path class="cls-5" d="M355,280.86l1.7-.91-1.7-1V121.69H353.8c-6.11-32.39-36.2-57-72.42-57s-66.3,24.6-72.41,57h-1.16V284.28h.26L206,361.65l75.32-40.85,67.33-36.52H355Z"/><path class="cls-4" d="M246.53,152.07a41.42,41.42,0,0,0,0,76.4Z"/></g></svg>
