<svg xmlns="http://www.w3.org/2000/svg" width="300" height="475" viewBox="0 0 300 475"><defs><style>.cls-1{fill:#5b2806;}.cls-2{fill:#e5a16e;}.cls-3{fill:#cc6723;}</style></defs><title>oppefraboelle</title><g id="boelleovenfra"><ellipse class="cls-1" cx="158" cy="238" rx="87.5" ry="225"/><ellipse class="cls-2" cx="149.5" cy="242.86" rx="87" ry="128.73"/><ellipse class="cls-2" cx="236.5" cy="257.27" rx="22" ry="50.92"/><polygon class="cls-3" points="168.88 400.82 116.1 305.2 63.31 209.57 114.38 244.81 165.45 280.06 167.17 340.44 168.88 400.82"/><polygon class="cls-3" points="222.47 285.15 116.37 248.73 10.28 212.3 72.72 205.25 135.17 198.19 178.82 241.67 222.47 285.15"/><polygon class="cls-3" points="2.67 201.67 105.19 156.77 207.7 111.88 168.03 158.74 128.36 205.6 65.51 203.64 2.67 201.67"/><polygon class="cls-3" points="116.71 60 163.21 158.59 209.72 257.17 161.03 218.96 112.33 180.74 114.52 120.37 116.71 60"/><polygon class="cls-3" points="103.51 309.03 77.59 203.69 51.67 98.36 91.81 144.85 131.96 191.35 117.73 250.19 103.51 309.03"/><polygon class="cls-3" points="97.22 280.2 90.89 172.13 84.55 64.07 115.61 116.59 146.66 169.11 121.94 224.66 97.22 280.2"/><polygon class="cls-3" points="91.81 273.91 128.35 171.53 164.9 69.14 173.04 129.04 181.19 188.93 136.5 231.42 91.81 273.91"/><polygon class="cls-3" points="145.09 406.44 80.83 317.54 16.57 228.63 71.64 257.78 126.72 286.93 135.9 346.69 145.09 406.44"/><polygon class="cls-3" points="197.88 380.65 145.1 285.02 92.31 189.4 143.38 224.64 194.45 259.88 196.17 320.26 197.88 380.65"/><polygon class="cls-3" points="136.88 337.42 84.1 241.79 31.31 146.17 82.38 181.41 133.45 216.65 135.17 277.04 136.88 337.42"/><polygon class="cls-3" points="203.93 410.27 112.46 347.07 20.99 283.88 83.04 293.69 145.08 303.5 174.51 356.89 203.93 410.27"/><polygon class="cls-3" points="96.74 398.23 75.35 291.96 53.96 185.69 92.08 233.73 130.2 281.77 113.47 340 96.74 398.23"/><polygon class="cls-3" points="223.47 334.61 237.09 270.61 215.53 266.38 201.91 330.38 223.47 334.61"/><polygon class="cls-3" points="213.45 229.36 205.69 166.39 225.55 164.13 233.31 227.09 213.45 229.36"/></g></svg>
