<svg xmlns="http://www.w3.org/2000/svg" width="300" height="385" viewBox="0 0 300 385"><defs><style>.cls-1{fill:#915d4a;}.cls-2{fill:#e5c2aa;}.cls-3{fill:#351907;}</style></defs><title>oppefrapige</title><g id="pigeovenfra"><circle class="cls-1" cx="78" cy="151" r="32"/><circle class="cls-1" cx="81" cy="241" r="32"/><ellipse class="cls-1" cx="139.5" cy="189.5" rx="69.5" ry="183.5"/><ellipse class="cls-2" cx="157.5" cy="189.5" rx="91.5" ry="101.5"/><path class="cls-2" d="M114.43,232.11A8.5,8.5,0,0,1,102,240.35L69.07,223.13,36.13,205.92A8.5,8.5,0,0,1,35.8,191l29.24-17,30.94-18a8.5,8.5,0,0,1,12.74,6.66l2.94,35.65Z"/><rect class="cls-3" x="88" y="208" width="18" height="48"/><rect class="cls-3" x="85" y="122" width="18" height="46"/><polygon class="cls-3" points="171.2 107.28 173.22 182.61 175.25 257.95 145.72 221.05 116.19 184.15 143.69 145.71 171.2 107.28"/><ellipse class="cls-3" cx="181.5" cy="104.5" rx="35.5" ry="30.5"/><ellipse class="cls-3" cx="181.5" cy="271.5" rx="35.5" ry="30.5"/><ellipse class="cls-3" cx="231.5" cy="134.5" rx="25.5" ry="38.5" transform="translate(-35.36 112.82) rotate(-25.51)"/><ellipse class="cls-3" cx="231.7" cy="245.2" rx="35.5" ry="24.82" transform="translate(-100.81 302.19) rotate(-56.35)"/><ellipse class="cls-3" cx="253.7" cy="189.2" rx="24.82" ry="35.5"/><ellipse class="cls-3" cx="199.5" cy="183" rx="56.5" ry="78"/></g></svg>
