<svg xmlns="http://www.w3.org/2000/svg" width="1920" height="1080" viewBox="0 0 1920 1080"><defs><style>.cls-1{fill:#152230;}.cls-2{fill:#264159;}.cls-3{fill:#091014;}.cls-4{fill:#fff;}</style></defs><title>senarie3</title><g id="Layer_2" data-name="Layer 2"><rect class="cls-1" width="1920" height="1080"/><circle class="cls-2" cx="145" cy="150" r="50"/><circle class="cls-2" cx="1214" cy="333" r="50"/><circle class="cls-2" cx="1733" cy="918" r="50"/><circle class="cls-2" cx="226" cy="691" r="50"/><circle class="cls-2" cx="913" cy="576" r="50"/><circle class="cls-2" cx="542" cy="333" r="50"/><circle class="cls-2" cx="1197" cy="841" r="50"/><circle class="cls-2" cx="1570" cy="490" r="50"/><circle class="cls-2" cx="828" cy="150" r="50"/><circle class="cls-2" cx="592" cy="968" r="50"/><circle class="cls-2" cx="1620" cy="174" r="50"/><polygon class="cls-2" points="442 81 363 81 363 106 363 124 363 169 327 169 327 212 328 212 328 258 292 258 292 301 371 301 371 279 371 258 371 212 406 212 406 185 406 169 406 124 442 124 442 81"/><polygon class="cls-2" points="988 758 909 758 909 783 909 801 909 846 873 846 873 889 874 889 874 935 838 935 838 978 917 978 917 956 917 935 917 889 952 889 952 862 952 846 952 801 988 801 988 758"/><polygon class="cls-2" points="301 907 222 907 222 932 222 950 222 995 186 995 186 1038 187 1038 187 1084 151 1084 151 1127 230 1127 230 1105 230 1084 230 1038 265 1038 265 1011 265 995 265 950 301 950 301 907"/><polygon class="cls-2" points="1392 791 1471 791 1471 816 1471 834 1471 879 1507 879 1507 922 1506 922 1506 968 1542 968 1542 1011 1463 1011 1463 989 1463 968 1463 922 1428 922 1428 895 1428 879 1428 834 1392 834 1392 791"/><polygon class="cls-2" points="1289 -70 1368 -70 1368 -45 1368 -27 1368 18 1404 18 1404 61 1403 61 1403 107 1439 107 1439 150 1360 150 1360 128 1360 107 1360 61 1325 61 1325 34 1325 18 1325 -27 1289 -27 1289 -70"/><polygon class="cls-2" points="1708 370 1787 370 1787 395 1787 413 1787 458 1823 458 1823 501 1822 501 1822 547 1858 547 1858 590 1779 590 1779 568 1779 547 1779 501 1744 501 1744 474 1744 458 1744 413 1708 413 1708 370"/><polygon class="cls-2" points="1063 173 984 173 984 198 984 216 984 261 948 261 948 304 949 304 949 350 913 350 913 393 992 393 992 371 992 350 992 304 1027 304 1027 277 1027 261 1027 216 1063 216 1063 173"/><polygon class="cls-2" points="1414 411 1335 411 1335 436 1335 454 1335 499 1299 499 1299 542 1300 542 1300 588 1264 588 1264 631 1343 631 1343 609 1343 588 1343 542 1378 542 1378 515 1378 499 1378 454 1414 454 1414 411"/><polygon class="cls-2" points="492 521 571 521 571 546 571 564 571 609 607 609 607 652 606 652 606 698 642 698 642 741 563 741 563 719 563 698 563 652 528 652 528 625 528 609 528 564 492 564 492 521"/><polygon class="cls-2" points="-39 273 40 273 40 298 40 316 40 361 76 361 76 404 75 404 75 450 111 450 111 493 32 493 32 471 32 450 32 404 -3 404 -3 377 -3 361 -3 316 -39 316 -39 273"/><rect class="cls-2" x="1796" y="165" width="40" height="110" rx="20" transform="translate(256.53 1176.19) rotate(-38.42)"/><rect class="cls-2" x="1680" y="-55" width="40" height="110" rx="20" transform="translate(3031.87 1056.47) rotate(-141.58)"/><rect class="cls-2" x="1579" y="636" width="40" height="110" rx="20" transform="translate(2422.32 2226.07) rotate(-141.58)"/><rect class="cls-2" x="1246" y="1002" width="40" height="110" rx="20" transform="translate(1600.98 2671.87) rotate(-141.58)"/><rect class="cls-2" x="738" y="338" width="40" height="110" rx="20" transform="translate(1107.63 1171.96) rotate(-141.58)"/><rect class="cls-2" x="42" y="846" width="40" height="110" rx="20" transform="translate(-449.35 1645.42) rotate(-141.58)"/><rect class="cls-2" x="389" y="786" width="40" height="110" rx="20" transform="translate(206.79 1754.06) rotate(-141.58)"/><rect class="cls-2" x="589" y="26" width="40" height="110" rx="20" transform="matrix(-0.78, -0.62, 0.62, -0.78, 1035.79, 522.92)"/><rect class="cls-2" x="1072" y="576" width="40" height="110" rx="20" transform="translate(1555.4 1803.98) rotate(-141.58)"/><rect class="cls-2" x="1447" y="246" width="40" height="110" rx="20" transform="translate(130.62 976.85) rotate(-38.42)"/><rect class="cls-2" x="1127" y="-15" width="40" height="110" rx="20" transform="translate(223.52 721.47) rotate(-38.42)"/><rect class="cls-2" x="1900" y="750" width="40" height="110" rx="20" transform="translate(-84.5 1367.51) rotate(-38.42)"/><rect class="cls-2" x="696" y="786" width="40" height="110" rx="20" transform="translate(-367.59 627.07) rotate(-38.42)"/><rect class="cls-2" x="265" y="435" width="40" height="110" rx="20" transform="translate(-242.79 283.22) rotate(-38.42)"/><rect class="cls-3" x="328" y="166" width="1140" height="655" rx="12"/><rect class="cls-2" x="418" y="263" width="1140" height="655" rx="12"/><polygon class="cls-2" points="286 -213 207 -213 207 -188 207 -170 207 -125 171 -125 171 -82 172 -82 172 -36 136 -36 136 7 215 7 215 -15 215 -36 215 -82 250 -82 250 -109 250 -125 250 -170 286 -170 286 -213"/></g><g id="Layer_3" data-name="Layer 3"><path class="cls-4" d="M469.06,300.27l-5.26,3.12a9.09,9.09,0,0,0-2.81-3.34,6.52,6.52,0,0,0-3.59-.89,6.62,6.62,0,0,0-4.48,1.53,4.74,4.74,0,0,0-1.79,3.78q0,3.15,4.68,5.07l4.29,1.75a18.39,18.39,0,0,1,7.65,5.16,11.7,11.7,0,0,1,2.42,7.48,13.13,13.13,0,0,1-3.95,9.79,13.56,13.56,0,0,1-9.88,3.9,13.2,13.2,0,0,1-9.24-3.31,15.26,15.26,0,0,1-4.48-9.33l6.57-1.44q.44,3.78,1.55,5.23a7.42,7.42,0,0,0,10.89.75,7,7,0,0,0,2-5.15,7.24,7.24,0,0,0-.35-2.29,5.72,5.72,0,0,0-1.08-1.92,8.52,8.52,0,0,0-1.91-1.65,19.27,19.27,0,0,0-2.78-1.46l-4.15-1.72q-8.82-3.74-8.82-10.91a10.34,10.34,0,0,1,3.7-8.1,13.38,13.38,0,0,1,9.21-3.29Q464.89,293,469.06,300.27Z"/><path class="cls-4" d="M501.48,324.76H482.06a8.21,8.21,0,0,0,2.17,5.32,6.61,6.61,0,0,0,4.92,1.95,6.43,6.43,0,0,0,3.87-1.12,15.74,15.74,0,0,0,3.42-4.12l5.29,2.95a20.65,20.65,0,0,1-2.59,3.58,13.83,13.83,0,0,1-2.92,2.45,11.5,11.5,0,0,1-3.37,1.4,16.16,16.16,0,0,1-3.92.45,12.75,12.75,0,0,1-9.74-3.9q-3.68-3.92-3.68-10.41a15,15,0,0,1,3.57-10.4,13.57,13.57,0,0,1,19-.12q3.45,3.79,3.45,10.5Zm-6.43-5.12q-1.31-5-6.31-5a6.55,6.55,0,0,0-2.15.35,6,6,0,0,0-1.82,1,6.42,6.42,0,0,0-1.41,1.57,7.57,7.57,0,0,0-.89,2.09Z"/><path class="cls-4" d="M514.59,289.83v47h-6.26v-47Z"/><path class="cls-4" d="M526.39,309.73l7,15.23,7-15.23h7l-14.08,29-14-29Z"/><path class="cls-4" d="M549.3,323.09a13.48,13.48,0,0,1,4.2-10,14.82,14.82,0,0,1,20.54,0,14.5,14.5,0,0,1,0,20.4,14.35,14.35,0,0,1-10.38,4.09,13.77,13.77,0,0,1-10.21-4.17A14,14,0,0,1,549.3,323.09Zm6.4.11a9.12,9.12,0,0,0,2.17,6.43,8.43,8.43,0,0,0,11.75,0,10.21,10.21,0,0,0,0-12.64,7.69,7.69,0,0,0-5.88-2.39,7.58,7.58,0,0,0-5.81,2.39A8.7,8.7,0,0,0,555.7,323.2Z"/><path class="cls-4" d="M584.84,309.73h6.26v2.51a13.14,13.14,0,0,1,3.09-2.56,7.43,7.43,0,0,1,3.43-.7,8.31,8.31,0,0,1,7.26,4,9.42,9.42,0,0,1,8-4q9.15,0,9.15,11.11v16.75h-6.29V321.78q0-3.88-.94-5.51a3.44,3.44,0,0,0-3.2-1.64,4.07,4.07,0,0,0-3.77,1.95c-.79,1.3-1.19,3.38-1.19,6.26v14h-6.29v-15q0-7.25-4.17-7.24a4.2,4.2,0,0,0-3.86,2c-.8,1.31-1.21,3.39-1.21,6.23v14h-6.26Z"/><path class="cls-4" d="M667.5,289.83h6.29v47H667.5V334a11.7,11.7,0,0,1-8.38,3.62,11.92,11.92,0,0,1-9.24-4.06,15.13,15.13,0,0,1-3.64-10.36,14.61,14.61,0,0,1,3.64-10.13,11.71,11.71,0,0,1,17.62-.19ZM652.64,323.2a9.45,9.45,0,0,0,2.09,6.35,6.85,6.85,0,0,0,5.4,2.48,7.17,7.17,0,0,0,5.62-2.4,10.31,10.31,0,0,0,0-12.58,7.11,7.11,0,0,0-5.57-2.42,6.94,6.94,0,0,0-5.4,2.45A9,9,0,0,0,652.64,323.2Z"/><path class="cls-4" d="M706.38,324.76H687a8.21,8.21,0,0,0,2.17,5.32,6.61,6.61,0,0,0,4.92,1.95,6.43,6.43,0,0,0,3.87-1.12,15.74,15.74,0,0,0,3.43-4.12l5.28,2.95a20.65,20.65,0,0,1-2.59,3.58,13.58,13.58,0,0,1-2.92,2.45,11.56,11.56,0,0,1-3.36,1.4,16.3,16.3,0,0,1-3.93.45,12.76,12.76,0,0,1-9.74-3.9q-3.68-3.92-3.67-10.41t3.56-10.4a13.57,13.57,0,0,1,19-.12q3.45,3.79,3.45,10.5ZM700,319.64q-1.31-5-6.31-5a6.59,6.59,0,0,0-2.15.35,6.11,6.11,0,0,0-1.82,1,6.42,6.42,0,0,0-1.41,1.57,7.89,7.89,0,0,0-.89,2.09Z"/><path class="cls-4" d="M720.19,315.58v21.26h-6.27V315.58h-2.67v-5.85h2.67V299.8h6.27v9.93h4.87v5.85Z"/><path class="cls-4" d="M753.17,289.83V318.5l8.82-8.77h8.41l-11.78,11.39,12.64,15.72h-8.13l-9-11.44-1,1v10.44h-6.26v-47Z"/><path class="cls-4" d="M794.3,309.73h6.29v27.11H794.3V334a12,12,0,0,1-17.61-.44A15.09,15.09,0,0,1,773,323.2,14.62,14.62,0,0,1,776.69,313a11.77,11.77,0,0,1,9.13-4.06,11.5,11.5,0,0,1,8.48,3.9ZM779.44,323.2a9.45,9.45,0,0,0,2.09,6.35,6.85,6.85,0,0,0,5.4,2.48,7.17,7.17,0,0,0,5.62-2.4,10.31,10.31,0,0,0,0-12.58,7.1,7.1,0,0,0-5.57-2.42,6.94,6.94,0,0,0-5.4,2.45A9.06,9.06,0,0,0,779.44,323.2Z"/><path class="cls-4" d="M808.5,309.73h6.29v2.51a10.28,10.28,0,0,1,7.4-3.26,9.35,9.35,0,0,1,7.38,3q2.28,2.54,2.28,8.26v16.62h-6.29V321.7q0-4-1.11-5.54t-4-1.56a4.84,4.84,0,0,0-4.42,2.06c-.86,1.36-1.28,3.72-1.28,7.1v13.08H808.5Z"/><path class="cls-4" d="M860.71,309.73l7,15.23,7-15.23h7l-14.08,29-14-29Z"/><path class="cls-4" d="M885,298.46a3.88,3.88,0,0,1,1.19-2.84,4.06,4.06,0,0,1,5.76,0,3.86,3.86,0,0,1,1.2,2.87,3.92,3.92,0,0,1-1.2,2.89,3.84,3.84,0,0,1-2.86,1.2,4.08,4.08,0,0,1-4.09-4.12Zm7.21,11.27v27.11H886V309.73Z"/><path class="cls-4" d="M900.18,309.73h6.26v2.42a11.92,11.92,0,0,1,3.06-2.47,7,7,0,0,1,3.23-.7,10.1,10.1,0,0,1,5.18,1.62L915,316.33a6,6,0,0,0-3.48-1.28q-5.12,0-5.12,7.74v14h-6.26Z"/><path class="cls-4" d="M928.62,289.83V318.5l8.82-8.77h8.41l-11.77,11.39,12.63,15.72h-8.13l-9-11.44-1,1v10.44h-6.26v-47Z"/><path class="cls-4" d="M974.52,324.76H955.09a8.26,8.26,0,0,0,2.17,5.32,6.61,6.61,0,0,0,4.93,1.95,6.39,6.39,0,0,0,3.86-1.12,15.54,15.54,0,0,0,3.43-4.12l5.29,2.95a21.19,21.19,0,0,1-2.59,3.58,14.08,14.08,0,0,1-2.92,2.45,11.61,11.61,0,0,1-3.37,1.4,16.3,16.3,0,0,1-3.93.45,12.76,12.76,0,0,1-9.74-3.9q-3.68-3.92-3.67-10.41a15,15,0,0,1,3.56-10.4,13.57,13.57,0,0,1,19-.12q3.45,3.79,3.45,10.5Zm-6.43-5.12c-.88-3.34-3-5-6.32-5a6.49,6.49,0,0,0-2.14.35,6,6,0,0,0-1.83,1,6.59,6.59,0,0,0-1.4,1.57,7.28,7.28,0,0,0-.89,2.09Z"/><path class="cls-4" d="M1005.44,315.58v21.26h-6.29V315.58h-2.23v-5.85h2.23V299.27q0-5.13,1.78-7.24c1.63-2,4-2.95,7.12-2.95a12.46,12.46,0,0,1,4.21,1v6.41l-.64-.34a8,8,0,0,0-3.34-1,2.27,2.27,0,0,0-2.26,1.2,11.54,11.54,0,0,0-.58,4.51v8.93h6.82v5.85Z"/><path class="cls-4" d="M1023.05,289.83v47h-6.26v-47Z"/><path class="cls-4" d="M1029.71,323.09a13.48,13.48,0,0,1,4.2-10,14.82,14.82,0,0,1,20.54,0,14.52,14.52,0,0,1,0,20.4,14.35,14.35,0,0,1-10.38,4.09,13.77,13.77,0,0,1-10.21-4.17A14,14,0,0,1,1029.71,323.09Zm6.4.11a9.12,9.12,0,0,0,2.17,6.43,8.42,8.42,0,0,0,11.74,0,10.18,10.18,0,0,0,0-12.64,8.34,8.34,0,0,0-11.69,0A8.74,8.74,0,0,0,1036.11,323.2Z"/><path class="cls-4" d="M1067.47,309.73l7,15.23,7-15.23h7l-14.09,29-14-29Z"/><path class="cls-4" d="M1099.2,315.58v21.26h-6.26V315.58h-2.67v-5.85h2.67V299.8h6.26v9.93h4.87v5.85Z"/><path class="cls-4" d="M1145.9,309.73h6.29v27.11h-6.29V334a12,12,0,0,1-17.61-.44,15.14,15.14,0,0,1-3.65-10.36,14.66,14.66,0,0,1,3.65-10.16,11.77,11.77,0,0,1,9.13-4.06,11.5,11.5,0,0,1,8.48,3.9ZM1131,323.2a9.45,9.45,0,0,0,2.09,6.35,6.85,6.85,0,0,0,5.4,2.48,7.17,7.17,0,0,0,5.62-2.4,10.31,10.31,0,0,0,0-12.58,7.1,7.1,0,0,0-5.57-2.42,6.91,6.91,0,0,0-5.39,2.45A9,9,0,0,0,1131,323.2Z"/><path class="cls-4" d="M1166.56,315.58v21.26h-6.27V315.58h-2.67v-5.85h2.67V299.8h6.27v9.93h4.87v5.85Z"/><path class="cls-4" d="M1209,314.35l-5.18,2.76c-.82-1.67-1.83-2.51-3-2.51a2.09,2.09,0,0,0-1.48.57,1.9,1.9,0,0,0-.61,1.46q0,1.56,3.62,3.09,5,2.14,6.7,4a6.72,6.72,0,0,1,1.73,4.87,8.55,8.55,0,0,1-2.89,6.57,9.86,9.86,0,0,1-6.79,2.5q-6.82,0-9.66-6.65l5.34-2.48a11.45,11.45,0,0,0,1.7,2.48,3.9,3.9,0,0,0,2.73,1.06q3.16,0,3.17-2.9c0-1.11-.82-2.15-2.45-3.12-.63-.31-1.26-.62-1.89-.91l-1.92-.92a11.71,11.71,0,0,1-3.84-2.67,6.58,6.58,0,0,1-1.42-4.37,7.72,7.72,0,0,1,2.42-5.85,8.48,8.48,0,0,1,6-2.31Q1206.49,309,1209,314.35Z"/><path class="cls-4" d="M1215.46,298.46a4.08,4.08,0,0,1,4.06-4,4,4,0,0,1,2.9,1.2,3.89,3.89,0,0,1,1.19,2.87,4,4,0,0,1-1.19,2.89,3.86,3.86,0,0,1-2.87,1.2,4.08,4.08,0,0,1-4.09-4.12Zm7.21,11.27v27.11h-6.27V309.73Z"/><path class="cls-4" d="M1256.82,336.2c0,1.28,0,2.41-.13,3.38a22.46,22.46,0,0,1-.35,2.58,11.51,11.51,0,0,1-2.61,5.26q-3.68,4.23-10.11,4.23a13.47,13.47,0,0,1-8.93-2.93,11.93,11.93,0,0,1-4.18-8.32h6.29a7,7,0,0,0,1.2,3.09,6.73,6.73,0,0,0,5.68,2.54q6.87,0,6.87-8.44v-3.78a11.68,11.68,0,0,1-8.6,3.81,11.56,11.56,0,0,1-9.07-4,14.82,14.82,0,0,1-3.56-10.16,15.61,15.61,0,0,1,3.31-10.07A11.51,11.51,0,0,1,1242,309a10.92,10.92,0,0,1,8.51,3.81v-3.06h6.27Zm-6-12.86a9.14,9.14,0,0,0-2.11-6.32,7,7,0,0,0-5.48-2.42,6.74,6.74,0,0,0-5.63,2.65,10.92,10.92,0,0,0,0,12.19,6.78,6.78,0,0,0,5.63,2.59,6.88,6.88,0,0,0,5.67-2.62A9.33,9.33,0,0,0,1250.8,323.34Z"/><path class="cls-4" d="M1289.41,324.76H1270a8.26,8.26,0,0,0,2.17,5.32,6.61,6.61,0,0,0,4.93,1.95,6.45,6.45,0,0,0,3.87-1.12,15.74,15.74,0,0,0,3.42-4.12l5.29,2.95a21.19,21.19,0,0,1-2.59,3.58,13.83,13.83,0,0,1-2.92,2.45,11.61,11.61,0,0,1-3.37,1.4,16.3,16.3,0,0,1-3.93.45,12.76,12.76,0,0,1-9.74-3.9q-3.67-3.92-3.67-10.41a15,15,0,0,1,3.56-10.4,13.57,13.57,0,0,1,19-.12q3.45,3.79,3.45,10.5Zm-6.43-5.12q-1.31-5-6.32-5a6.49,6.49,0,0,0-2.14.35,6,6,0,0,0-1.83,1,6.59,6.59,0,0,0-1.4,1.57,7.28,7.28,0,0,0-.89,2.09Z"/><path class="cls-4" d="M1333.83,289.83h6.29v47h-6.29V334a11.7,11.7,0,0,1-8.38,3.62,11.92,11.92,0,0,1-9.24-4.06,15.14,15.14,0,0,1-3.65-10.36,14.62,14.62,0,0,1,3.65-10.13,11.71,11.71,0,0,1,17.62-.19ZM1319,323.2a9.45,9.45,0,0,0,2.09,6.35,6.85,6.85,0,0,0,5.4,2.48,7.17,7.17,0,0,0,5.62-2.4,10.28,10.28,0,0,0,0-12.58,7.09,7.09,0,0,0-5.56-2.42,6.91,6.91,0,0,0-5.4,2.45A9,9,0,0,0,1319,323.2Z"/><path class="cls-4" d="M1372.71,324.76h-19.43a8.26,8.26,0,0,0,2.17,5.32,6.61,6.61,0,0,0,4.93,1.95,6.43,6.43,0,0,0,3.87-1.12,15.74,15.74,0,0,0,3.42-4.12l5.29,2.95a21.19,21.19,0,0,1-2.59,3.58,13.83,13.83,0,0,1-2.92,2.45,11.5,11.5,0,0,1-3.37,1.4,16.22,16.22,0,0,1-3.92.45,12.77,12.77,0,0,1-9.75-3.9q-3.67-3.92-3.67-10.41a15,15,0,0,1,3.56-10.4,13.57,13.57,0,0,1,19-.12q3.45,3.79,3.46,10.5Zm-6.43-5.12q-1.3-5-6.32-5a6.53,6.53,0,0,0-2.14.35,6,6,0,0,0-1.83,1,6.59,6.59,0,0,0-1.4,1.57,7.28,7.28,0,0,0-.89,2.09Z"/><path class="cls-4" d="M1386.51,315.58v21.26h-6.26V315.58h-2.67v-5.85h2.67V299.8h6.26v9.93h4.87v5.85Z"/><path class="cls-4" d="M1419.69,315.58v21.26h-6.27V315.58h-2.67v-5.85h2.67V299.8h6.27v9.93h4.87v5.85Z"/><path class="cls-4" d="M1427.87,298.46a4.1,4.1,0,0,1,4.06-4,3.94,3.94,0,0,1,2.9,1.2,3.85,3.85,0,0,1,1.19,2.87,3.91,3.91,0,0,1-1.19,2.89,3.86,3.86,0,0,1-2.87,1.2,4.1,4.1,0,0,1-4.09-4.12Zm7.21,11.27v27.11h-6.26V309.73Z"/><path class="cls-4" d="M1449.27,289.83v47H1443v-47Z"/><path class="cls-4" d="M443.56,378.13h6.29v2.51a10.28,10.28,0,0,1,7.41-3.26,9.33,9.33,0,0,1,7.37,3q2.28,2.53,2.28,8.26v16.62h-6.29V390.1q0-4-1.11-5.54c-.72-1-2-1.56-3.95-1.56a4.85,4.85,0,0,0-4.43,2.06c-.85,1.36-1.28,3.72-1.28,7.1v13.08h-6.29Z"/><path class="cls-4" d="M473.54,391.49a13.48,13.48,0,0,1,4.2-10,14.82,14.82,0,0,1,20.54,0,14.5,14.5,0,0,1,0,20.4A14.35,14.35,0,0,1,487.87,406a13.77,13.77,0,0,1-10.21-4.17A14,14,0,0,1,473.54,391.49Zm6.4.11a9.12,9.12,0,0,0,2.17,6.43,8.43,8.43,0,0,0,11.75,0,10.21,10.21,0,0,0,0-12.64A7.69,7.69,0,0,0,488,383a7.58,7.58,0,0,0-5.81,2.39A8.7,8.7,0,0,0,479.94,391.6Z"/><path class="cls-4" d="M535.3,404.6c0,1.28,0,2.41-.13,3.38a25.13,25.13,0,0,1-.34,2.58,11.53,11.53,0,0,1-2.62,5.26q-3.68,4.23-10.1,4.23a13.5,13.5,0,0,1-8.94-2.93A11.92,11.92,0,0,1,509,408.8h6.29a7.15,7.15,0,0,0,1.19,3.09,6.74,6.74,0,0,0,5.68,2.54q6.89,0,6.88-8.44v-3.78a11.72,11.72,0,0,1-8.6,3.81,11.57,11.57,0,0,1-9.08-4,14.87,14.87,0,0,1-3.56-10.16,15.61,15.61,0,0,1,3.31-10.07,11.52,11.52,0,0,1,9.41-4.4,11,11,0,0,1,8.52,3.81v-3.06h6.26Zm-6-12.86a9.15,9.15,0,0,0-2.12-6.32,7,7,0,0,0-5.48-2.42,6.71,6.71,0,0,0-5.62,2.65,10.87,10.87,0,0,0,0,12.19,6.75,6.75,0,0,0,5.62,2.59,6.91,6.91,0,0,0,5.68-2.62A9.33,9.33,0,0,0,529.29,391.74Z"/><path class="cls-4" d="M567.89,393.16H548.46a8.26,8.26,0,0,0,2.17,5.32,6.65,6.65,0,0,0,4.93,1.95,6.43,6.43,0,0,0,3.87-1.12,15.74,15.74,0,0,0,3.42-4.12l5.29,2.95a20.79,20.79,0,0,1-2.59,3.58,13.83,13.83,0,0,1-2.92,2.45,11.5,11.5,0,0,1-3.37,1.4,16.16,16.16,0,0,1-3.92.45,12.75,12.75,0,0,1-9.74-3.9q-3.68-3.92-3.68-10.41a15,15,0,0,1,3.57-10.41,13.58,13.58,0,0,1,19-.11c2.3,2.53,3.45,6,3.45,10.5ZM561.46,388q-1.31-5-6.32-5a6.53,6.53,0,0,0-2.14.35,6.09,6.09,0,0,0-1.82,1,6.42,6.42,0,0,0-1.41,1.57,7.28,7.28,0,0,0-.89,2.09Z"/><path class="cls-4" d="M574.74,378.13H581v2.51a10.26,10.26,0,0,1,7.4-3.26,9.36,9.36,0,0,1,7.38,3q2.28,2.53,2.28,8.26v16.62H591.8V390.1q0-4-1.11-5.54t-4-1.56a4.83,4.83,0,0,0-4.42,2.06c-.86,1.36-1.28,3.72-1.28,7.1v13.08h-6.29Z"/><path class="cls-4" d="M609.86,397.2l5.57,2.17-7.93,15.89-4.23-1.75Z"/><path class="cls-4" d="M656.93,382.75l-5.18,2.76c-.82-1.67-1.83-2.51-3-2.51a2.09,2.09,0,0,0-1.47.57,1.91,1.91,0,0,0-.61,1.47c0,1,1.2,2.06,3.62,3.08q5,2.14,6.7,4a6.76,6.76,0,0,1,1.73,4.87,8.59,8.59,0,0,1-2.89,6.57A9.87,9.87,0,0,1,649,406q-6.81,0-9.65-6.65l5.34-2.48a11.45,11.45,0,0,0,1.7,2.48,3.9,3.9,0,0,0,2.73,1.06q3.17,0,3.17-2.9c0-1.11-.82-2.15-2.45-3.12-.63-.31-1.26-.62-1.89-.91l-1.92-.92a11.88,11.88,0,0,1-3.85-2.67,6.63,6.63,0,0,1-1.41-4.37,7.72,7.72,0,0,1,2.42-5.85,8.48,8.48,0,0,1,6-2.31Q654.4,377.38,656.93,382.75Z"/><path class="cls-4" d="M684.29,378.13h6.29v27.11h-6.29V402.4a12,12,0,0,1-17.62-.44A15.14,15.14,0,0,1,663,391.6a14.66,14.66,0,0,1,3.65-10.16,11.77,11.77,0,0,1,9.13-4.06,11.54,11.54,0,0,1,8.49,3.9ZM669.42,391.6a9.45,9.45,0,0,0,2.09,6.35,6.85,6.85,0,0,0,5.4,2.48,7.17,7.17,0,0,0,5.62-2.4,10.31,10.31,0,0,0,0-12.58A7.1,7.1,0,0,0,677,383a6.91,6.91,0,0,0-5.39,2.45A9,9,0,0,0,669.42,391.6Zm2.15-23.79a5.68,5.68,0,0,1,1.78-4.21A6.05,6.05,0,1,1,677.63,374a5.9,5.9,0,0,1-4.31-1.78A6,6,0,0,1,671.57,367.81Zm3.31.05a2.69,2.69,0,0,0,.79,2,2.81,2.81,0,0,0,3.93,0,2.76,2.76,0,0,0-2-4.72,2.58,2.58,0,0,0-1.08.23,2.86,2.86,0,0,0-.88.6,2.71,2.71,0,0,0-.58.87A2.67,2.67,0,0,0,674.88,367.86Z"/><path class="cls-4" d="M740.76,393.16H721.33a8.26,8.26,0,0,0,2.17,5.32,6.61,6.61,0,0,0,4.93,1.95,6.39,6.39,0,0,0,3.86-1.12,15.54,15.54,0,0,0,3.43-4.12l5.29,2.95a20.79,20.79,0,0,1-2.59,3.58,13.83,13.83,0,0,1-2.92,2.45,11.61,11.61,0,0,1-3.37,1.4,16.3,16.3,0,0,1-3.93.45,12.76,12.76,0,0,1-9.74-3.9q-3.68-3.92-3.67-10.41a15.06,15.06,0,0,1,3.56-10.41,12.32,12.32,0,0,1,9.52-3.92,12.17,12.17,0,0,1,9.46,3.81c2.3,2.53,3.45,6,3.45,10.5ZM734.33,388q-1.3-5-6.32-5a6.49,6.49,0,0,0-2.14.35,6.26,6.26,0,0,0-1.83,1,6.59,6.59,0,0,0-1.4,1.57,7.28,7.28,0,0,0-.89,2.09Z"/><path class="cls-4" d="M747.6,378.13h6.27v2.42a11.76,11.76,0,0,1,3.06-2.47,6.89,6.89,0,0,1,3.22-.7,10.08,10.08,0,0,1,5.18,1.62l-2.87,5.73a6,6,0,0,0-3.47-1.28q-5.13,0-5.12,7.74v14.05H747.6Z"/><path class="cls-4" d="M806.5,358.23h6.29v47H806.5V402.4a11.7,11.7,0,0,1-8.38,3.62,11.92,11.92,0,0,1-9.24-4.06,15.14,15.14,0,0,1-3.65-10.36,14.62,14.62,0,0,1,3.65-10.13,11.71,11.71,0,0,1,17.62-.19ZM791.63,391.6a9.45,9.45,0,0,0,2.09,6.35,6.85,6.85,0,0,0,5.4,2.48,7.17,7.17,0,0,0,5.62-2.4,10.31,10.31,0,0,0,0-12.58,7.1,7.1,0,0,0-5.57-2.42,6.91,6.91,0,0,0-5.39,2.45A9,9,0,0,0,791.63,391.6Z"/><path class="cls-4" d="M845.38,393.16H826a8.26,8.26,0,0,0,2.17,5.32,6.61,6.61,0,0,0,4.93,1.95,6.45,6.45,0,0,0,3.87-1.12,15.74,15.74,0,0,0,3.42-4.12l5.29,2.95a20.79,20.79,0,0,1-2.59,3.58,13.83,13.83,0,0,1-2.92,2.45,11.61,11.61,0,0,1-3.37,1.4,16.3,16.3,0,0,1-3.93.45,12.76,12.76,0,0,1-9.74-3.9q-3.68-3.92-3.67-10.41A15.06,15.06,0,0,1,823,381.3a12.32,12.32,0,0,1,9.52-3.92,12.17,12.17,0,0,1,9.46,3.81c2.3,2.53,3.45,6,3.45,10.5ZM839,388q-1.31-5-6.32-5a6.49,6.49,0,0,0-2.14.35,6.26,6.26,0,0,0-1.83,1,6.59,6.59,0,0,0-1.4,1.57,7.28,7.28,0,0,0-.89,2.09Z"/><path class="cls-4" d="M859.18,384v21.26h-6.26V384h-2.67v-5.85h2.67V368.2h6.26v9.93h4.87V384Z"/><path class="cls-4" d="M905.88,378.13h6.29v27.11h-6.29V402.4a12,12,0,0,1-17.61-.44,15.09,15.09,0,0,1-3.65-10.36,14.62,14.62,0,0,1,3.65-10.16,11.77,11.77,0,0,1,9.13-4.06,11.5,11.5,0,0,1,8.48,3.9ZM891,391.6a9.45,9.45,0,0,0,2.09,6.35,6.85,6.85,0,0,0,5.4,2.48,7.17,7.17,0,0,0,5.62-2.4,10.31,10.31,0,0,0,0-12.58,7.1,7.1,0,0,0-5.57-2.42,6.91,6.91,0,0,0-5.39,2.45A9,9,0,0,0,891,391.6Z"/><path class="cls-4" d="M926.34,358.23v47h-6.26v-47Z"/><path class="cls-4" d="M940.73,384v21.26h-6.26V384h-2.68v-5.85h2.68V368.2h6.26v9.93h4.87V384Z"/><path class="cls-4" d="M948.91,366.86a4.1,4.1,0,0,1,4.07-4,3.93,3.93,0,0,1,2.89,1.2,3.86,3.86,0,0,1,1.2,2.87,3.92,3.92,0,0,1-1.2,2.89A3.86,3.86,0,0,1,953,371a4.1,4.1,0,0,1-4.09-4.12Zm7.21,11.27v27.11h-6.26V378.13Z"/><path class="cls-4" d="M984,358.23h6.29v47H984V402.4a11.7,11.7,0,0,1-8.38,3.62,11.92,11.92,0,0,1-9.24-4.06,15.14,15.14,0,0,1-3.65-10.36,14.62,14.62,0,0,1,3.65-10.13,11.71,11.71,0,0,1,17.62-.19ZM969.17,391.6a9.45,9.45,0,0,0,2.09,6.35,6.85,6.85,0,0,0,5.4,2.48,7.17,7.17,0,0,0,5.62-2.4,10.28,10.28,0,0,0,0-12.58,7.09,7.09,0,0,0-5.56-2.42,6.91,6.91,0,0,0-5.4,2.45A9,9,0,0,0,969.17,391.6Z"/><path class="cls-4" d="M1040.51,393.16h-19.43a8.26,8.26,0,0,0,2.17,5.32,6.61,6.61,0,0,0,4.93,1.95,6.43,6.43,0,0,0,3.87-1.12,15.74,15.74,0,0,0,3.42-4.12l5.29,2.95a20.79,20.79,0,0,1-2.59,3.58,13.83,13.83,0,0,1-2.92,2.45,11.61,11.61,0,0,1-3.37,1.4,16.22,16.22,0,0,1-3.92.45,12.77,12.77,0,0,1-9.75-3.9q-3.68-3.92-3.67-10.41a15.06,15.06,0,0,1,3.56-10.41,12.32,12.32,0,0,1,9.52-3.92,12.17,12.17,0,0,1,9.46,3.81c2.3,2.53,3.46,6,3.46,10.5Zm-6.43-5.12q-1.3-5-6.32-5a6.53,6.53,0,0,0-2.14.35,6.26,6.26,0,0,0-1.83,1,6.59,6.59,0,0,0-1.4,1.57,7.28,7.28,0,0,0-.89,2.09Z"/><path class="cls-4" d="M1047.35,378.13h6.29v2.51a10.28,10.28,0,0,1,7.41-3.26,9.33,9.33,0,0,1,7.37,3q2.28,2.53,2.28,8.26v16.62h-6.28V390.1c0-2.67-.38-4.52-1.12-5.54s-2-1.56-4-1.56a4.85,4.85,0,0,0-4.43,2.06c-.85,1.36-1.28,3.72-1.28,7.1v13.08h-6.29Z"/><path class="cls-4" d="M1122.42,404.6c0,1.28,0,2.41-.13,3.38a22.46,22.46,0,0,1-.35,2.58,11.42,11.42,0,0,1-2.61,5.26q-3.67,4.23-10.11,4.23a13.49,13.49,0,0,1-8.93-2.93,11.92,11.92,0,0,1-4.17-8.32h6.29a7.15,7.15,0,0,0,1.19,3.09,6.73,6.73,0,0,0,5.68,2.54q6.87,0,6.88-8.44v-3.78a11.72,11.72,0,0,1-8.61,3.81,11.56,11.56,0,0,1-9.07-4,14.87,14.87,0,0,1-3.56-10.16,15.61,15.61,0,0,1,3.31-10.07,11.52,11.52,0,0,1,9.41-4.4,11,11,0,0,1,8.52,3.81v-3.06h6.26Zm-6-12.86a9.15,9.15,0,0,0-2.12-6.32,7,7,0,0,0-5.48-2.42,6.74,6.74,0,0,0-5.63,2.65,10.92,10.92,0,0,0,0,12.19,6.78,6.78,0,0,0,5.63,2.59,6.91,6.91,0,0,0,5.68-2.62A9.38,9.38,0,0,0,1116.41,391.74Z"/><path class="cls-4" d="M1129,391.49a13.48,13.48,0,0,1,4.2-10,14.82,14.82,0,0,1,20.54,0,14.51,14.51,0,0,1,0,20.4,14.37,14.37,0,0,1-10.38,4.09,13.79,13.79,0,0,1-10.22-4.17A14,14,0,0,1,1129,391.49Zm6.4.11a9.16,9.16,0,0,0,2.17,6.43,8.43,8.43,0,0,0,11.75,0,10.18,10.18,0,0,0,0-12.64,7.66,7.66,0,0,0-5.87-2.39,7.58,7.58,0,0,0-5.82,2.39A8.7,8.7,0,0,0,1135.44,391.6Z"/><path class="cls-4" d="M1184.57,358.23h6.29v47h-6.29V402.4a11.7,11.7,0,0,1-8.38,3.62A11.92,11.92,0,0,1,1167,402a15.14,15.14,0,0,1-3.65-10.36,14.62,14.62,0,0,1,3.65-10.13,11.71,11.71,0,0,1,17.62-.19ZM1169.7,391.6a9.45,9.45,0,0,0,2.09,6.35,6.85,6.85,0,0,0,5.4,2.48,7.17,7.17,0,0,0,5.62-2.4,10.28,10.28,0,0,0,0-12.58,7.09,7.09,0,0,0-5.56-2.42,6.91,6.91,0,0,0-5.4,2.45A9,9,0,0,0,1169.7,391.6Z"/><path class="cls-4" d="M1215.4,366.86a4.1,4.1,0,0,1,4.07-4,3.93,3.93,0,0,1,2.89,1.2,3.86,3.86,0,0,1,1.2,2.87,3.92,3.92,0,0,1-1.2,2.89,3.84,3.84,0,0,1-2.86,1.2,4.1,4.1,0,0,1-4.1-4.12Zm7.21,11.27v27.11h-6.26V378.13Z"/><path class="cls-4" d="M1250.53,358.23h6.29v47h-6.29V402.4a11.7,11.7,0,0,1-8.38,3.62,11.92,11.92,0,0,1-9.24-4.06,15.14,15.14,0,0,1-3.65-10.36,14.62,14.62,0,0,1,3.65-10.13,11.71,11.71,0,0,1,17.62-.19Zm-14.86,33.37a9.45,9.45,0,0,0,2.08,6.35,6.85,6.85,0,0,0,5.4,2.48,7.17,7.17,0,0,0,5.62-2.4,10.28,10.28,0,0,0,0-12.58,7.09,7.09,0,0,0-5.56-2.42,6.93,6.93,0,0,0-5.4,2.45A9,9,0,0,0,1235.67,391.6Z"/><path class="cls-4" d="M1289.41,393.16H1270a8.26,8.26,0,0,0,2.17,5.32,6.63,6.63,0,0,0,4.93,1.95,6.43,6.43,0,0,0,3.87-1.12,15.74,15.74,0,0,0,3.42-4.12l5.29,2.95a20.79,20.79,0,0,1-2.59,3.58,13.83,13.83,0,0,1-2.92,2.45,11.5,11.5,0,0,1-3.37,1.4,16.22,16.22,0,0,1-3.92.45,12.73,12.73,0,0,1-9.74-3.9q-3.67-3.92-3.68-10.41A15.06,15.06,0,0,1,1267,381.3a13.6,13.6,0,0,1,19-.11c2.3,2.53,3.45,6,3.45,10.5ZM1283,388q-1.31-5-6.32-5a6.53,6.53,0,0,0-2.14.35,6.09,6.09,0,0,0-1.82,1,6.42,6.42,0,0,0-1.41,1.57,7.28,7.28,0,0,0-.89,2.09Z"/><path class="cls-4" d="M1297.23,402.12a3.87,3.87,0,0,1,7.74,0,3.87,3.87,0,1,1-7.74,0Z"/><path class="cls-4" d="M444.76,542v-43h9A32.9,32.9,0,0,1,464,500.35a19,19,0,0,1,7.32,4.26q6.65,6.06,6.65,15.94t-6.93,16a20.13,20.13,0,0,1-7.29,4.25,33.1,33.1,0,0,1-10.1,1.2Zm6.49-6.09h2.92a24.44,24.44,0,0,0,7.26-.92,14.76,14.76,0,0,0,10-14.48,14.93,14.93,0,0,0-4.73-11.46q-4.26-3.93-12.55-3.93h-2.92Z"/><path class="cls-4" d="M509.64,530H490.21a8.26,8.26,0,0,0,2.17,5.32,6.61,6.61,0,0,0,4.93,2,6.36,6.36,0,0,0,3.87-1.12A15.74,15.74,0,0,0,504.6,532l5.29,3a20.79,20.79,0,0,1-2.59,3.58,13.83,13.83,0,0,1-2.92,2.45,11.92,11.92,0,0,1-3.37,1.41,16.77,16.77,0,0,1-3.93.44,12.76,12.76,0,0,1-9.74-3.9q-3.68-3.92-3.67-10.41a15,15,0,0,1,3.56-10.4,13.57,13.57,0,0,1,19-.12q3.45,3.79,3.46,10.5Zm-6.43-5.12q-1.31-5-6.32-5a6.53,6.53,0,0,0-2.14.35,6.26,6.26,0,0,0-1.83,1,6.59,6.59,0,0,0-1.4,1.57,7.28,7.28,0,0,0-.89,2.09Z"/><path class="cls-4" d="M523.44,520.78V542h-6.26V520.78h-2.67v-5.85h2.67V505h6.26v9.93h4.87v5.85Z"/><path class="cls-4" d="M574.85,530H555.42a8.26,8.26,0,0,0,2.17,5.32,6.61,6.61,0,0,0,4.93,2,6.36,6.36,0,0,0,3.87-1.12,15.74,15.74,0,0,0,3.42-4.12l5.29,3a20.79,20.79,0,0,1-2.59,3.58,13.83,13.83,0,0,1-2.92,2.45,11.92,11.92,0,0,1-3.37,1.41,16.77,16.77,0,0,1-3.93.44,12.76,12.76,0,0,1-9.74-3.9q-3.67-3.92-3.67-10.41a15,15,0,0,1,3.56-10.4,13.57,13.57,0,0,1,19-.12q3.45,3.79,3.46,10.5Zm-6.43-5.12q-1.3-5-6.32-5a6.49,6.49,0,0,0-2.14.35,6.26,6.26,0,0,0-1.83,1,6.59,6.59,0,0,0-1.4,1.57,7.28,7.28,0,0,0-.89,2.09Z"/><path class="cls-4" d="M581.69,514.93H588v2.42a11.92,11.92,0,0,1,3.06-2.47,6.93,6.93,0,0,1,3.23-.7,10.15,10.15,0,0,1,5.17,1.61l-2.86,5.74a6,6,0,0,0-3.48-1.28q-5.13,0-5.12,7.74v14h-6.27Z"/><path class="cls-4" d="M619.66,503.66a3.88,3.88,0,0,1,1.19-2.84,4.06,4.06,0,0,1,5.76,0,3.86,3.86,0,0,1,1.2,2.87,3.92,3.92,0,0,1-1.2,2.89,3.84,3.84,0,0,1-2.86,1.2,4.08,4.08,0,0,1-4.09-4.12Zm7.21,11.27V542H620.6V514.93Z"/><path class="cls-4" d="M641.06,495V523.7l8.82-8.77h8.41l-11.78,11.39L659.15,542H651l-9-11.44-1,1V542H634.8V495Z"/><path class="cls-4" d="M669.45,495V523.7l8.82-8.77h8.41L674.9,526.32,687.54,542h-8.13l-9-11.44-1,1V542h-6.26V495Z"/><path class="cls-4" d="M715.34,530H695.92a8.21,8.21,0,0,0,2.17,5.32,6.61,6.61,0,0,0,4.92,2,6.36,6.36,0,0,0,3.87-1.12A15.74,15.74,0,0,0,710.3,532l5.29,3a20.27,20.27,0,0,1-2.59,3.58,13.83,13.83,0,0,1-2.92,2.45,11.8,11.8,0,0,1-3.37,1.41,16.68,16.68,0,0,1-3.92.44,12.76,12.76,0,0,1-9.74-3.9q-3.67-3.92-3.67-10.41t3.56-10.4a13.57,13.57,0,0,1,19-.12q3.45,3.79,3.45,10.5Zm-6.43-5.12q-1.3-5-6.31-5a6.55,6.55,0,0,0-2.15.35,6.21,6.21,0,0,0-1.82,1,6.42,6.42,0,0,0-1.41,1.57,7.57,7.57,0,0,0-.89,2.09Z"/><path class="cls-4" d="M746,495v47h-6.26V495Z"/><path class="cls-4" d="M752.69,528.29a13.46,13.46,0,0,1,4.21-10,14.82,14.82,0,0,1,20.54,0,14.52,14.52,0,0,1,0,20.4A14.35,14.35,0,0,1,767,542.82a13.79,13.79,0,0,1-10.22-4.17A14.08,14.08,0,0,1,752.69,528.29Zm6.4.11a9.12,9.12,0,0,0,2.18,6.43,8.42,8.42,0,0,0,11.74,0,10.18,10.18,0,0,0,0-12.64,8.34,8.34,0,0,0-11.69,0A8.75,8.75,0,0,0,759.09,528.4Z"/><path class="cls-4" d="M790.46,514.93l7,15.23,7-15.23h7l-14.08,29-14-29Z"/><path class="cls-4" d="M822.5,495v47h-6.27V495Z"/><path class="cls-4" d="M829.48,503.66a4.1,4.1,0,0,1,4.06-4,3.94,3.94,0,0,1,2.9,1.2,3.85,3.85,0,0,1,1.19,2.87,3.91,3.91,0,0,1-1.19,2.89,3.86,3.86,0,0,1-2.87,1.2,4.1,4.1,0,0,1-4.09-4.12Zm7.21,11.27V542h-6.26V514.93Z"/><path class="cls-4" d="M870.84,541.4c0,1.28,0,2.41-.13,3.38a24.76,24.76,0,0,1-.34,2.58,11.53,11.53,0,0,1-2.62,5.26q-3.68,4.23-10.1,4.23a13.54,13.54,0,0,1-8.94-2.92,12,12,0,0,1-4.17-8.33h6.29a7.15,7.15,0,0,0,1.19,3.09,6.74,6.74,0,0,0,5.68,2.54q6.88,0,6.88-8.44V539a11.72,11.72,0,0,1-8.6,3.81,11.57,11.57,0,0,1-9.08-4,14.87,14.87,0,0,1-3.56-10.16,15.61,15.61,0,0,1,3.31-10.07,11.52,11.52,0,0,1,9.41-4.4,11,11,0,0,1,8.52,3.81v-3.06h6.26Zm-6-12.86a9.15,9.15,0,0,0-2.12-6.32,7,7,0,0,0-5.48-2.42,6.71,6.71,0,0,0-5.62,2.65,10.87,10.87,0,0,0,0,12.19,6.75,6.75,0,0,0,5.62,2.59,6.91,6.91,0,0,0,5.68-2.62A9.33,9.33,0,0,0,864.83,528.54Z"/><path class="cls-4" d="M885.2,520.78V542h-6.26V520.78h-2.67v-5.85h2.67V505h6.26v9.93h4.87v5.85Z"/><path class="cls-4" d="M931.9,514.93h6.29V542H931.9V539.2a12,12,0,0,1-17.61-.44,15.09,15.09,0,0,1-3.65-10.36,14.62,14.62,0,0,1,3.65-10.16,11.75,11.75,0,0,1,9.12-4.06,11.51,11.51,0,0,1,8.49,3.9ZM917,528.4a9.45,9.45,0,0,0,2.09,6.35,6.85,6.85,0,0,0,5.4,2.48,7.17,7.17,0,0,0,5.62-2.4,10.31,10.31,0,0,0,0-12.58,7.1,7.1,0,0,0-5.57-2.42,6.94,6.94,0,0,0-5.4,2.45A9,9,0,0,0,917,528.4Z"/><path class="cls-4" d="M952.55,520.78V542h-6.26V520.78h-2.67v-5.85h2.67V505h6.26v9.93h4.87v5.85Z"/><path class="cls-4" d="M999.26,495h6.29v47h-6.29V539.2a11.7,11.7,0,0,1-8.38,3.62,11.92,11.92,0,0,1-9.24-4.06A15.14,15.14,0,0,1,978,528.4a14.62,14.62,0,0,1,3.65-10.13,11.71,11.71,0,0,1,17.62-.19ZM984.39,528.4a9.45,9.45,0,0,0,2.09,6.35,6.85,6.85,0,0,0,5.4,2.48,7.17,7.17,0,0,0,5.62-2.4,10.28,10.28,0,0,0,0-12.58,7.09,7.09,0,0,0-5.56-2.42,6.91,6.91,0,0,0-5.4,2.45A9,9,0,0,0,984.39,528.4Z"/><path class="cls-4" d="M1038.14,530h-19.43a8.26,8.26,0,0,0,2.17,5.32,6.61,6.61,0,0,0,4.93,2,6.36,6.36,0,0,0,3.87-1.12,15.74,15.74,0,0,0,3.42-4.12l5.29,3a20.79,20.79,0,0,1-2.59,3.58,13.83,13.83,0,0,1-2.92,2.45,11.92,11.92,0,0,1-3.37,1.41,16.77,16.77,0,0,1-3.93.44,12.76,12.76,0,0,1-9.74-3.9q-3.68-3.92-3.67-10.41a15,15,0,0,1,3.56-10.4,13.57,13.57,0,0,1,19-.12q3.45,3.79,3.46,10.5Zm-6.43-5.12q-1.31-5-6.32-5a6.53,6.53,0,0,0-2.14.35,6.26,6.26,0,0,0-1.83,1,6.59,6.59,0,0,0-1.4,1.57,7.28,7.28,0,0,0-.89,2.09Z"/><path class="cls-4" d="M1051.25,495v47H1045V495Z"/><path class="cls-4" d="M1083.87,530h-19.43a8.26,8.26,0,0,0,2.17,5.32,6.61,6.61,0,0,0,4.93,2,6.35,6.35,0,0,0,3.86-1.12,15.54,15.54,0,0,0,3.43-4.12l5.29,3a20.79,20.79,0,0,1-2.59,3.58,14.08,14.08,0,0,1-2.92,2.45,11.92,11.92,0,0,1-3.37,1.41,16.83,16.83,0,0,1-3.93.44,12.76,12.76,0,0,1-9.74-3.9q-3.67-3.92-3.67-10.41a15,15,0,0,1,3.56-10.4,13.57,13.57,0,0,1,19-.12q3.45,3.79,3.45,10.5Zm-6.43-5.12c-.88-3.34-3-5-6.32-5a6.49,6.49,0,0,0-2.14.35,6.26,6.26,0,0,0-1.83,1,6.59,6.59,0,0,0-1.4,1.57,7.28,7.28,0,0,0-.89,2.09Z"/><path class="cls-4" d="M1114.57,495v23.05a11.53,11.53,0,0,1,8.51-3.9,11.7,11.7,0,0,1,9.13,4.09,14.62,14.62,0,0,1,3.65,10.13,14.93,14.93,0,0,1-3.68,10.36,11.83,11.83,0,0,1-9.21,4.06,11.69,11.69,0,0,1-8.4-3.62V542h-6.27V495Zm14.89,33.65a9.34,9.34,0,0,0-2.12-6.34,6.78,6.78,0,0,0-5.37-2.51,7.2,7.2,0,0,0-5.62,2.42,10.29,10.29,0,0,0,0,12.55,7,7,0,0,0,5.56,2.43,6.87,6.87,0,0,0,5.4-2.43A8.87,8.87,0,0,0,1129.46,528.68Z"/><path class="cls-4" d="M1141.53,503.66a4.1,4.1,0,0,1,4.07-4,3.93,3.93,0,0,1,2.89,1.2,3.86,3.86,0,0,1,1.2,2.87,3.92,3.92,0,0,1-1.2,2.89,3.84,3.84,0,0,1-2.86,1.2,4.1,4.1,0,0,1-4.1-4.12Zm7.21,11.27V542h-6.26V514.93Z"/><path class="cls-4" d="M1162.94,495v47h-6.27V495Z"/><path class="cls-4" d="M1177.13,495v47h-6.26V495Z"/><path class="cls-4" d="M1209.75,530h-19.43a8.26,8.26,0,0,0,2.17,5.32,6.65,6.65,0,0,0,4.93,2,6.36,6.36,0,0,0,3.87-1.12,15.74,15.74,0,0,0,3.42-4.12l5.29,3a20.79,20.79,0,0,1-2.59,3.58,13.83,13.83,0,0,1-2.92,2.45,11.8,11.8,0,0,1-3.37,1.41,16.68,16.68,0,0,1-3.92.44,12.75,12.75,0,0,1-9.74-3.9q-3.68-3.92-3.68-10.41a15,15,0,0,1,3.57-10.4,13.57,13.57,0,0,1,19-.12q3.45,3.79,3.45,10.5Zm-6.43-5.12q-1.3-5-6.32-5a6.53,6.53,0,0,0-2.14.35,6.09,6.09,0,0,0-1.82,1,6.42,6.42,0,0,0-1.41,1.57,7.57,7.57,0,0,0-.89,2.09Z"/><path class="cls-4" d="M1236.58,495h6.29v47h-6.29V539.2a11.7,11.7,0,0,1-8.38,3.62,11.92,11.92,0,0,1-9.24-4.06,15.13,15.13,0,0,1-3.64-10.36,14.61,14.61,0,0,1,3.64-10.13,11.71,11.71,0,0,1,17.62-.19Zm-14.86,33.37a9.45,9.45,0,0,0,2.09,6.35,6.82,6.82,0,0,0,5.4,2.48,7.19,7.19,0,0,0,5.62-2.4,10.31,10.31,0,0,0,0-12.58,7.11,7.11,0,0,0-5.57-2.42,6.94,6.94,0,0,0-5.4,2.45A9,9,0,0,0,1221.72,528.4Z"/><path class="cls-4" d="M1275.46,530H1256a8.21,8.21,0,0,0,2.17,5.32,6.61,6.61,0,0,0,4.92,2,6.36,6.36,0,0,0,3.87-1.12,15.74,15.74,0,0,0,3.42-4.12l5.29,3a20.27,20.27,0,0,1-2.59,3.58,13.83,13.83,0,0,1-2.92,2.45,11.8,11.8,0,0,1-3.37,1.41,16.68,16.68,0,0,1-3.92.44,12.76,12.76,0,0,1-9.74-3.9q-3.68-3.92-3.67-10.41t3.56-10.4a13.57,13.57,0,0,1,19-.12q3.45,3.79,3.45,10.5Zm-6.43-5.12q-1.3-5-6.31-5a6.55,6.55,0,0,0-2.15.35,6.21,6.21,0,0,0-1.82,1,6.42,6.42,0,0,0-1.41,1.57,7.57,7.57,0,0,0-.89,2.09Z"/><path class="cls-4" d="M1282.31,514.93h6.26v2.42a11.92,11.92,0,0,1,3.06-2.47,7,7,0,0,1,3.23-.7,10.18,10.18,0,0,1,5.18,1.61l-2.87,5.74a6,6,0,0,0-3.48-1.28q-5.12,0-5.12,7.74v14h-6.26Z"/><path class="cls-4" d="M1321.22,514.93h6.26v2.51a13.14,13.14,0,0,1,3.09-2.56,7.41,7.41,0,0,1,3.42-.7,8.33,8.33,0,0,1,7.27,4,9.4,9.4,0,0,1,8-4q9.16,0,9.16,11.11V542h-6.29V527q0-3.88-.94-5.51a3.45,3.45,0,0,0-3.21-1.64,4.09,4.09,0,0,0-3.77,1.95q-1.18,2-1.18,6.26v14h-6.29v-15q0-7.25-4.18-7.24a4.18,4.18,0,0,0-3.85,2q-1.21,2-1.21,6.23v14h-6.26Z"/><path class="cls-4" d="M1391,530h-19.42a8.21,8.21,0,0,0,2.17,5.32,6.61,6.61,0,0,0,4.92,2,6.36,6.36,0,0,0,3.87-1.12A15.93,15.93,0,0,0,1386,532l5.28,3a20.27,20.27,0,0,1-2.59,3.58,13.58,13.58,0,0,1-2.92,2.45,11.86,11.86,0,0,1-3.36,1.41,16.83,16.83,0,0,1-3.93.44,12.76,12.76,0,0,1-9.74-3.9Q1365,535,1365,528.51t3.56-10.4a13.57,13.57,0,0,1,19-.12q3.45,3.79,3.45,10.5Zm-6.43-5.12q-1.3-5-6.31-5a6.55,6.55,0,0,0-2.15.35,6.21,6.21,0,0,0-1.82,1,6.42,6.42,0,0,0-1.41,1.57,7.57,7.57,0,0,0-.89,2.09Z"/><path class="cls-4" d="M1417.82,495h6.29v47h-6.29V539.2a11.68,11.68,0,0,1-8.37,3.62,11.91,11.91,0,0,1-9.24-4.06,15.09,15.09,0,0,1-3.65-10.36,14.58,14.58,0,0,1,3.65-10.13,11.7,11.7,0,0,1,17.61-.19ZM1403,528.4a9.45,9.45,0,0,0,2.09,6.35,6.85,6.85,0,0,0,5.4,2.48,7.17,7.17,0,0,0,5.62-2.4,10.31,10.31,0,0,0,0-12.58,7.1,7.1,0,0,0-5.57-2.42,6.94,6.94,0,0,0-5.4,2.45A9,9,0,0,0,1403,528.4Z"/><path class="cls-4" d="M463.55,583.33h6.29v27.11h-6.29V607.6a12,12,0,0,1-17.62-.44,15.14,15.14,0,0,1-3.65-10.36,14.66,14.66,0,0,1,3.65-10.16,11.77,11.77,0,0,1,9.13-4.06,11.54,11.54,0,0,1,8.49,3.9ZM448.68,596.8a9.45,9.45,0,0,0,2.09,6.35,6.85,6.85,0,0,0,5.4,2.48,7.17,7.17,0,0,0,5.62-2.4,10.28,10.28,0,0,0,0-12.58,7.09,7.09,0,0,0-5.56-2.42,6.93,6.93,0,0,0-5.4,2.45A9,9,0,0,0,448.68,596.8Z"/><path class="cls-4" d="M477.74,583.33H484v2.51a10.28,10.28,0,0,1,7.4-3.26,9.33,9.33,0,0,1,7.38,3c1.52,1.69,2.28,4.44,2.28,8.27v16.61H494.8V595.3q0-4-1.11-5.54c-.73-1-2-1.56-3.95-1.56a4.84,4.84,0,0,0-4.43,2.06c-.85,1.36-1.28,3.72-1.28,7.1v13.08h-6.29Z"/><path class="cls-4" d="M529,563.43h6.29v47H529V607.6a11.7,11.7,0,0,1-8.38,3.62,11.92,11.92,0,0,1-9.24-4.06,15.13,15.13,0,0,1-3.64-10.36,14.61,14.61,0,0,1,3.64-10.13,11.66,11.66,0,0,1,9.1-4.09,11.54,11.54,0,0,1,8.52,3.9ZM514.12,596.8a9.4,9.4,0,0,0,2.09,6.35,6.82,6.82,0,0,0,5.4,2.48,7.19,7.19,0,0,0,5.62-2.4,10.31,10.31,0,0,0,0-12.58,7.11,7.11,0,0,0-5.57-2.42,6.94,6.94,0,0,0-5.4,2.45A9,9,0,0,0,514.12,596.8Z"/><path class="cls-4" d="M543.17,583.33h6.27v2.42a11.92,11.92,0,0,1,3.06-2.47,6.93,6.93,0,0,1,3.23-.7,10.07,10.07,0,0,1,5.17,1.62L558,589.93a6,6,0,0,0-3.48-1.28q-5.13,0-5.12,7.74v14.05h-6.27Z"/><path class="cls-4" d="M588.79,598.36H569.37a8.21,8.21,0,0,0,2.17,5.32,6.61,6.61,0,0,0,4.92,2,6.43,6.43,0,0,0,3.87-1.12,15.74,15.74,0,0,0,3.42-4.12l5.29,3a20.27,20.27,0,0,1-2.59,3.58,13.83,13.83,0,0,1-2.92,2.45,11.8,11.8,0,0,1-3.37,1.41,16.68,16.68,0,0,1-3.92.44,12.75,12.75,0,0,1-9.74-3.9q-3.68-3.92-3.68-10.41a15,15,0,0,1,3.57-10.4,13.57,13.57,0,0,1,19-.12q3.45,3.79,3.45,10.5Zm-6.43-5.12q-1.3-5-6.32-5a6.53,6.53,0,0,0-2.14.35,5.87,5.87,0,0,0-1.82,1,6.42,6.42,0,0,0-1.41,1.57,7.57,7.57,0,0,0-.89,2.09Z"/><path class="cls-4" d="M596.61,607.32a3.87,3.87,0,0,1,7.74,0,3.76,3.76,0,0,1-1.14,2.76,3.94,3.94,0,0,1-5.48,0A3.75,3.75,0,0,1,596.61,607.32Z"/><path class="cls-4" d="M629.87,588.76a21.08,21.08,0,0,1,6.65-15.59,21.92,21.92,0,0,1,15.92-6.51A22.47,22.47,0,0,1,674.79,589a21.17,21.17,0,0,1-6.62,15.73,22.72,22.72,0,0,1-31,.72Q629.87,599.09,629.87,588.76Zm6.54.08a15.54,15.54,0,0,0,4.79,11.72,15.86,15.86,0,0,0,22.4-.08,16.69,16.69,0,0,0,.06-23.05,15.14,15.14,0,0,0-11.3-4.67A15.3,15.3,0,0,0,641,577.43,15.51,15.51,0,0,0,636.41,588.84Z"/><path class="cls-4" d="M708,609.8c0,1.28,0,2.41-.13,3.38a25.13,25.13,0,0,1-.34,2.58,11.53,11.53,0,0,1-2.62,5.26q-3.68,4.23-10.1,4.23a13.54,13.54,0,0,1-8.94-2.92,12,12,0,0,1-4.17-8.33H688a7.15,7.15,0,0,0,1.19,3.09,6.73,6.73,0,0,0,5.68,2.53q6.88,0,6.88-8.43v-3.78a11.72,11.72,0,0,1-8.6,3.81,11.57,11.57,0,0,1-9.08-4,14.87,14.87,0,0,1-3.56-10.16A15.61,15.61,0,0,1,683.78,587a11.52,11.52,0,0,1,9.41-4.4,11,11,0,0,1,8.52,3.81v-3.06H708Zm-6-12.86a9.15,9.15,0,0,0-2.12-6.32,7,7,0,0,0-5.48-2.42,6.71,6.71,0,0,0-5.62,2.65,10.87,10.87,0,0,0,0,12.19,6.75,6.75,0,0,0,5.62,2.59A6.91,6.91,0,0,0,700,603,9.33,9.33,0,0,0,702,596.94Z"/><path class="cls-4" d="M753.45,563.43h6.29v47h-6.29V607.6a11.7,11.7,0,0,1-8.38,3.62,11.92,11.92,0,0,1-9.24-4.06,15.14,15.14,0,0,1-3.65-10.36,14.62,14.62,0,0,1,3.65-10.13,11.71,11.71,0,0,1,17.62-.19ZM738.58,596.8a9.45,9.45,0,0,0,2.09,6.35,6.85,6.85,0,0,0,5.4,2.48,7.17,7.17,0,0,0,5.62-2.4,10.28,10.28,0,0,0,0-12.58,7.09,7.09,0,0,0-5.56-2.42,6.91,6.91,0,0,0-5.4,2.45A9,9,0,0,0,738.58,596.8Z"/><path class="cls-4" d="M773.9,583.33v15.56q0,6.74,5.32,6.74t5.31-6.74V583.33h6.27V599a17.37,17.37,0,0,1-.81,5.62,9.43,9.43,0,0,1-2.7,3.81,13.15,13.15,0,0,1-16.12,0,9.67,9.67,0,0,1-2.75-3.81,15.46,15.46,0,0,1-.78-5.62v-15.7Z"/><path class="cls-4" d="M816.29,563.43h6.26v22.16a10.78,10.78,0,0,1,7.38-3,9.53,9.53,0,0,1,7.35,3c1.55,1.73,2.33,4.48,2.33,8.27v16.61h-6.26v-16a7.67,7.67,0,0,0-1.15-4.72,4.47,4.47,0,0,0-3.72-1.46q-3.29,0-4.62,2c-.87,1.38-1.31,3.73-1.31,7.07v13.11h-6.26Z"/><path class="cls-4" d="M867.53,583.33h6.29v27.11h-6.29V607.6a12,12,0,0,1-17.62-.44,15.13,15.13,0,0,1-3.64-10.36,14.66,14.66,0,0,1,3.64-10.16,11.79,11.79,0,0,1,9.13-4.06,11.51,11.51,0,0,1,8.49,3.9ZM852.67,596.8a9.45,9.45,0,0,0,2.08,6.35,6.85,6.85,0,0,0,5.41,2.48,7.19,7.19,0,0,0,5.62-2.4,10.31,10.31,0,0,0,0-12.58,7.11,7.11,0,0,0-5.57-2.42,6.94,6.94,0,0,0-5.4,2.45A9,9,0,0,0,852.67,596.8Z"/><path class="cls-4" d="M881.72,583.33H888v2.42a11.92,11.92,0,0,1,3.06-2.47,6.93,6.93,0,0,1,3.23-.7,10.07,10.07,0,0,1,5.17,1.62l-2.86,5.73a6,6,0,0,0-3.48-1.28q-5.13,0-5.12,7.74v14.05h-6.27Z"/><path class="cls-4" d="M920.63,583.33h6.27v2.42a11.92,11.92,0,0,1,3.06-2.47,6.93,6.93,0,0,1,3.23-.7,10.07,10.07,0,0,1,5.17,1.62l-2.86,5.73a6,6,0,0,0-3.48-1.28q-5.13,0-5.12,7.74v14.05h-6.27Z"/><path class="cls-4" d="M966.25,598.36H946.82a8.26,8.26,0,0,0,2.17,5.32,6.65,6.65,0,0,0,4.93,2,6.43,6.43,0,0,0,3.87-1.12,15.74,15.74,0,0,0,3.42-4.12l5.29,3a20.79,20.79,0,0,1-2.59,3.58,13.83,13.83,0,0,1-2.92,2.45,11.8,11.8,0,0,1-3.37,1.41,16.68,16.68,0,0,1-3.92.44,12.75,12.75,0,0,1-9.74-3.9q-3.68-3.92-3.68-10.41a15,15,0,0,1,3.57-10.4,13.57,13.57,0,0,1,19-.12q3.45,3.79,3.45,10.5Zm-6.43-5.12q-1.3-5-6.32-5a6.53,6.53,0,0,0-2.14.35,5.87,5.87,0,0,0-1.82,1,6.42,6.42,0,0,0-1.41,1.57,7.57,7.57,0,0,0-.89,2.09Z"/><path class="cls-4" d="M980.05,589.18v21.26h-6.26V589.18h-2.67v-5.85h2.67V573.4h6.26v9.93h4.87v5.85Z"/><path class="cls-4" d="M1013.23,589.18v21.26H1007V589.18h-2.67v-5.85H1007V573.4h6.26v9.93h4.87v5.85Z"/><path class="cls-4" d="M1021.41,572.06a4.08,4.08,0,1,1,7,2.92,3.84,3.84,0,0,1-2.87,1.2,4.1,4.1,0,0,1-4.09-4.12Zm7.21,11.27v27.11h-6.26V583.33Z"/><path class="cls-4" d="M1042.82,563.43v47h-6.27v-47Z"/><path class="cls-4" d="M1088.32,583.33h6.29v27.11h-6.29V607.6a12,12,0,0,1-17.62-.44,15.13,15.13,0,0,1-3.64-10.36,14.66,14.66,0,0,1,3.64-10.16,11.79,11.79,0,0,1,9.13-4.06,11.51,11.51,0,0,1,8.49,3.9Zm-14.86,13.47a9.45,9.45,0,0,0,2.09,6.35,6.82,6.82,0,0,0,5.4,2.48,7.19,7.19,0,0,0,5.62-2.4,10.31,10.31,0,0,0,0-12.58,7.11,7.11,0,0,0-5.57-2.42,6.94,6.94,0,0,0-5.4,2.45A9,9,0,0,0,1073.46,596.8Z"/><path class="cls-4" d="M1109,589.18v21.26h-6.26V589.18H1100v-5.85h2.67V573.4H1109v9.93h4.87v5.85Z"/><path class="cls-4" d="M1142.18,589.18v21.26h-6.29V589.18h-2.23v-5.85h2.23V572.87q0-5.13,1.78-7.24c1.63-2,4-3,7.12-3a12.27,12.27,0,0,1,4.21,1v6.4l-.65-.34a7.91,7.91,0,0,0-3.34-1,2.26,2.26,0,0,0-2.25,1.2,11.54,11.54,0,0,0-.58,4.51v8.93H1149v5.85Z"/><path class="cls-4" d="M1173.46,583.33h6.29v27.11h-6.29V607.6a12,12,0,0,1-17.62-.44,15.13,15.13,0,0,1-3.64-10.36,14.66,14.66,0,0,1,3.64-10.16,11.77,11.77,0,0,1,9.13-4.06,11.54,11.54,0,0,1,8.49,3.9ZM1158.6,596.8a9.45,9.45,0,0,0,2.08,6.35,6.85,6.85,0,0,0,5.4,2.48,7.2,7.2,0,0,0,5.63-2.4,10.31,10.31,0,0,0,0-12.58,7.11,7.11,0,0,0-5.57-2.42,6.94,6.94,0,0,0-5.4,2.45A9,9,0,0,0,1158.6,596.8Zm2.14-23.79a5.7,5.7,0,0,1,1.78-4.21,6.06,6.06,0,0,1,8.55,8.58,5.78,5.78,0,0,1-4.26,1.78,5.92,5.92,0,0,1-4.32-1.78A6,6,0,0,1,1160.74,573Zm3.31,0a2.73,2.73,0,0,0,.79,2,2.81,2.81,0,0,0,3.93,0,2.76,2.76,0,0,0-3-4.49,3.12,3.12,0,0,0-.88.6,2.71,2.71,0,0,0-.58.87A2.67,2.67,0,0,0,1164.05,573.06Z"/><path class="cls-4" d="M1205.24,563.43h6.27v22.16a10.74,10.74,0,0,1,7.37-3,9.53,9.53,0,0,1,7.35,3c1.56,1.73,2.34,4.48,2.34,8.27v16.61h-6.27v-16a7.67,7.67,0,0,0-1.15-4.72,4.47,4.47,0,0,0-3.72-1.46q-3.29,0-4.62,2c-.87,1.38-1.3,3.73-1.3,7.07v13.11h-6.27Z"/><path class="cls-4" d="M1235.55,572.06a4.08,4.08,0,1,1,7,2.92,3.84,3.84,0,0,1-2.87,1.2,4.1,4.1,0,0,1-4.09-4.12Zm7.21,11.27v41.86h-6.26V583.33Z"/><path class="cls-4" d="M1293,598.28h-19.54a8.55,8.55,0,0,0,2.28,5.34,6.54,6.54,0,0,0,4.9,2q4.29,0,7.1-5.43l5.4,3a19,19,0,0,1-1.92,3,11.55,11.55,0,0,1-2.23,2.15,14.37,14.37,0,0,1-8.66,2.92,13.63,13.63,0,0,1-9.82-4.34q-3.4,4.33-10,4.34a12.38,12.38,0,0,1-8-2.51,8,8,0,0,1-3.09-6.54,8.4,8.4,0,0,1,2.95-6.68,11.55,11.55,0,0,1,7.77-2.56,15.62,15.62,0,0,1,7.07,1.84q0-3.67-1.53-5.12c-1-1-2.79-1.48-5.23-1.48a27.21,27.21,0,0,0-7.24,1v-5.81a48,48,0,0,1,7.85-.84q6.62,0,9.52,3.81a13.69,13.69,0,0,1,19,0c2.37,2.55,3.56,5.91,3.56,10.11Zm-37.55,3.81a3.13,3.13,0,0,0,1.56,2.65,7.16,7.16,0,0,0,4,1,7.49,7.49,0,0,0,4.15-1.08,3.26,3.26,0,0,0,1.67-2.76,3,3,0,0,0-1.73-2.5,7.73,7.73,0,0,0-4.14-1.06,6.7,6.7,0,0,0-3.87,1.08A3.15,3.15,0,0,0,1255.48,602.09Zm31-8.88q-1.14-5-6.1-5t-6.45,5Z"/><path class="cls-4" d="M1306,563.43v47h-6.26v-47Z"/><path class="cls-4" d="M1320.22,625.19H1314V583.33h6.26v2.95a11.62,11.62,0,0,1,8.4-3.7,11.77,11.77,0,0,1,9.22,4.12,14.88,14.88,0,0,1,3.67,10.33,14.62,14.62,0,0,1-3.65,10.15,11.87,11.87,0,0,1-17.64.23Zm14.89-28.14a9.36,9.36,0,0,0-2.12-6.34,6.85,6.85,0,0,0-5.4-2.48,7.16,7.16,0,0,0-5.59,2.39,9.09,9.09,0,0,0-2.14,6.29,9.29,9.29,0,0,0,2.14,6.3,7,7,0,0,0,5.57,2.42,6.79,6.79,0,0,0,5.37-2.45A9,9,0,0,0,1335.11,597.05Z"/><path class="cls-4" d="M1352,602.4l5.57,2.17-7.93,15.89-4.23-1.75Z"/><path class="cls-4" d="M1403.3,563.43h6.29v47h-6.29V607.6a11.7,11.7,0,0,1-8.38,3.62,11.92,11.92,0,0,1-9.24-4.06A15.14,15.14,0,0,1,1382,596.8a14.62,14.62,0,0,1,3.65-10.13,11.71,11.71,0,0,1,17.62-.19Zm-14.87,33.37a9.45,9.45,0,0,0,2.09,6.35,6.85,6.85,0,0,0,5.4,2.48,7.17,7.17,0,0,0,5.62-2.4,10.28,10.28,0,0,0,0-12.58,7.09,7.09,0,0,0-5.56-2.42,6.93,6.93,0,0,0-5.4,2.45A9,9,0,0,0,1388.43,596.8Z"/><path class="cls-4" d="M1423.75,583.33v15.56q0,6.74,5.32,6.74t5.31-6.74V583.33h6.27V599a17.37,17.37,0,0,1-.81,5.62,9.43,9.43,0,0,1-2.7,3.81,13.13,13.13,0,0,1-16.11,0,9.6,9.6,0,0,1-2.76-3.81,15.46,15.46,0,0,1-.78-5.62v-15.7Z"/><path class="cls-4" d="M443.56,631.83h6.27V654a10.74,10.74,0,0,1,7.37-3,9.53,9.53,0,0,1,7.35,3c1.56,1.72,2.34,4.48,2.34,8.26v16.62h-6.27v-16a7.67,7.67,0,0,0-1.15-4.72,4.47,4.47,0,0,0-3.72-1.46q-3.28,0-4.62,2c-.87,1.38-1.3,3.73-1.3,7.07v13.11h-6.27Z"/><path class="cls-4" d="M494.8,651.73h6.29v27.11H494.8V676a12,12,0,0,1-17.61-.44,15.09,15.09,0,0,1-3.65-10.36A14.62,14.62,0,0,1,477.19,655a11.77,11.77,0,0,1,9.12-4.06,11.51,11.51,0,0,1,8.49,3.9ZM479.94,665.2a9.45,9.45,0,0,0,2.09,6.35,6.85,6.85,0,0,0,5.4,2.48,7.17,7.17,0,0,0,5.62-2.4,10.31,10.31,0,0,0,0-12.58,7.1,7.1,0,0,0-5.57-2.42,6.94,6.94,0,0,0-5.4,2.45A9,9,0,0,0,479.94,665.2Z"/><path class="cls-4" d="M509,651.73h6.26v2.42a11.92,11.92,0,0,1,3.06-2.47,7,7,0,0,1,3.23-.7,10.1,10.1,0,0,1,5.18,1.62l-2.87,5.73a6,6,0,0,0-3.48-1.28q-5.11,0-5.12,7.74v14.05H509Z"/><path class="cls-4" d="M547,640.46a4.1,4.1,0,0,1,4.06-4,3.94,3.94,0,0,1,2.9,1.2,3.85,3.85,0,0,1,1.19,2.87,3.91,3.91,0,0,1-1.19,2.89,3.86,3.86,0,0,1-2.87,1.2,4.1,4.1,0,0,1-4.09-4.12Zm7.21,11.27v27.11h-6.26V651.73Z"/><path class="cls-4" d="M568.36,631.83V660.5l8.83-8.77h8.4l-11.77,11.39,12.63,15.72h-8.12l-9-11.44-1,1v10.44H562.1v-47Z"/><path class="cls-4" d="M596.75,631.83V660.5l8.82-8.77H614l-11.77,11.39,12.63,15.72h-8.13l-9-11.44-1,1v10.44h-6.26v-47Z"/><path class="cls-4" d="M642.65,666.76H623.22a8.26,8.26,0,0,0,2.17,5.32,6.61,6.61,0,0,0,4.93,1.95,6.43,6.43,0,0,0,3.87-1.12,15.74,15.74,0,0,0,3.42-4.12l5.29,3a21.19,21.19,0,0,1-2.59,3.58,13.83,13.83,0,0,1-2.92,2.45,11.61,11.61,0,0,1-3.37,1.4,16.3,16.3,0,0,1-3.93.45,12.76,12.76,0,0,1-9.74-3.9q-3.68-3.91-3.67-10.41a15,15,0,0,1,3.56-10.4,13.57,13.57,0,0,1,19-.12q3.45,3.8,3.45,10.5Zm-6.43-5.12q-1.31-5-6.32-5a6.49,6.49,0,0,0-2.14.35,6,6,0,0,0-1.83,1,6.59,6.59,0,0,0-1.4,1.57,7.28,7.28,0,0,0-.89,2.09Z"/><path class="cls-4" d="M693.3,678.2c0,1.28,0,2.41-.12,3.38a24.92,24.92,0,0,1-.35,2.58,11.53,11.53,0,0,1-2.62,5.26q-3.68,4.23-10.1,4.23a13.5,13.5,0,0,1-8.94-2.93A11.92,11.92,0,0,1,667,682.4h6.29a7,7,0,0,0,1.2,3.09,6.72,6.72,0,0,0,5.67,2.54q6.89,0,6.88-8.44v-3.78a11.7,11.7,0,0,1-8.6,3.81,11.54,11.54,0,0,1-9.07-4,14.83,14.83,0,0,1-3.57-10.16,15.61,15.61,0,0,1,3.32-10.07,11.49,11.49,0,0,1,9.4-4.4,10.94,10.94,0,0,1,8.52,3.81v-3.06h6.26Zm-6-12.86a9.15,9.15,0,0,0-2.12-6.32,7,7,0,0,0-5.48-2.42,6.73,6.73,0,0,0-5.62,2.65,10.87,10.87,0,0,0,0,12.19,6.76,6.76,0,0,0,5.62,2.59,6.9,6.9,0,0,0,5.68-2.62A9.33,9.33,0,0,0,687.29,665.34Z"/><path class="cls-4" d="M700.26,640.46a4.1,4.1,0,0,1,4.06-4,4,4,0,0,1,2.9,1.2,3.89,3.89,0,0,1,1.19,2.87,4,4,0,0,1-1.19,2.89,3.86,3.86,0,0,1-2.87,1.2,4.1,4.1,0,0,1-4.09-4.12Zm7.21,11.27v41.86H701.2V651.73Z"/><path class="cls-4" d="M714.12,665.09a13.48,13.48,0,0,1,4.2-10,14.82,14.82,0,0,1,20.54,0,14.5,14.5,0,0,1,0,20.4,14.35,14.35,0,0,1-10.38,4.09,13.77,13.77,0,0,1-10.21-4.17A14,14,0,0,1,714.12,665.09Zm6.4.11a9.12,9.12,0,0,0,2.17,6.43,8.43,8.43,0,0,0,11.75,0,10.21,10.21,0,0,0,0-12.64,7.69,7.69,0,0,0-5.88-2.39,7.58,7.58,0,0,0-5.81,2.39A8.7,8.7,0,0,0,720.52,665.2Z"/><path class="cls-4" d="M749.66,651.73h6.26v2.42a11.92,11.92,0,0,1,3.06-2.47,7,7,0,0,1,3.23-.7,10.1,10.1,0,0,1,5.18,1.62l-2.87,5.73a6,6,0,0,0-3.48-1.28q-5.12,0-5.12,7.74v14.05h-6.26Z"/><path class="cls-4" d="M779.5,657.58v21.26h-6.27V657.58h-2.67v-5.85h2.67V641.8h6.27v9.93h4.87v5.85Z"/><path class="cls-4" d="M806.22,651.73h6.29v2.51a10.26,10.26,0,0,1,7.4-3.26,9.36,9.36,0,0,1,7.38,3q2.28,2.53,2.28,8.26v16.62h-6.29V663.7q0-4-1.12-5.54c-.72-1-2-1.56-3.95-1.56a4.83,4.83,0,0,0-4.42,2.06c-.86,1.36-1.28,3.72-1.28,7.1v13.08h-6.29Z"/><path class="cls-4" d="M836.19,665.09a13.48,13.48,0,0,1,4.2-10,14.82,14.82,0,0,1,20.54,0,14.5,14.5,0,0,1,0,20.4,14.35,14.35,0,0,1-10.38,4.09,13.77,13.77,0,0,1-10.21-4.17A14,14,0,0,1,836.19,665.09Zm6.4.11a9.12,9.12,0,0,0,2.17,6.43,8.43,8.43,0,0,0,11.75,0,10.18,10.18,0,0,0,0-12.64,7.69,7.69,0,0,0-5.88-2.39,7.58,7.58,0,0,0-5.81,2.39A8.7,8.7,0,0,0,842.59,665.2Z"/><path class="cls-4" d="M898,678.2c0,1.28,0,2.41-.13,3.38a25.13,25.13,0,0,1-.34,2.58,11.53,11.53,0,0,1-2.62,5.26q-3.68,4.23-10.1,4.23a13.5,13.5,0,0,1-8.94-2.93,11.92,11.92,0,0,1-4.17-8.32h6.29a7.15,7.15,0,0,0,1.19,3.09,6.74,6.74,0,0,0,5.68,2.54q6.88,0,6.88-8.44v-3.78a11.72,11.72,0,0,1-8.6,3.81,11.57,11.57,0,0,1-9.08-4,14.87,14.87,0,0,1-3.56-10.16,15.61,15.61,0,0,1,3.31-10.07,11.52,11.52,0,0,1,9.41-4.4,11,11,0,0,1,8.52,3.81v-3.06H898Zm-6-12.86a9.15,9.15,0,0,0-2.12-6.32,7,7,0,0,0-5.48-2.42,6.71,6.71,0,0,0-5.62,2.65,10.87,10.87,0,0,0,0,12.19,6.76,6.76,0,0,0,5.62,2.59,6.91,6.91,0,0,0,5.68-2.62A9.33,9.33,0,0,0,891.94,665.34Z"/><path class="cls-4" d="M930.54,666.76H911.12a8.21,8.21,0,0,0,2.17,5.32,6.61,6.61,0,0,0,4.92,1.95,6.43,6.43,0,0,0,3.87-1.12,15.74,15.74,0,0,0,3.42-4.12l5.29,3a20.65,20.65,0,0,1-2.59,3.58,13.83,13.83,0,0,1-2.92,2.45,11.5,11.5,0,0,1-3.37,1.4,16.16,16.16,0,0,1-3.92.45,12.75,12.75,0,0,1-9.74-3.9q-3.68-3.91-3.68-10.41a15,15,0,0,1,3.57-10.4,13.57,13.57,0,0,1,19-.12q3.45,3.8,3.45,10.5Zm-6.43-5.12q-1.3-5-6.32-5a6.53,6.53,0,0,0-2.14.35,6,6,0,0,0-1.82,1,6.42,6.42,0,0,0-1.41,1.57,7.57,7.57,0,0,0-.89,2.09Z"/><path class="cls-4" d="M944.35,657.58v21.26h-6.27V657.58h-2.67v-5.85h2.67V641.8h6.27v9.93h4.87v5.85Z"/><path class="cls-4" d="M977.55,657.58v21.26h-6.29V657.58H969v-5.85h2.23V641.27q0-5.13,1.78-7.24,2.44-3,7.13-2.95a12.47,12.47,0,0,1,4.2,1v6.41l-.64-.34a8,8,0,0,0-3.34-1,2.28,2.28,0,0,0-2.26,1.2,11.74,11.74,0,0,0-.58,4.51v8.93h6.82v5.85Z"/><path class="cls-4" d="M987.4,665.09a13.46,13.46,0,0,1,4.21-10,14.81,14.81,0,0,1,20.53,0,14.51,14.51,0,0,1,0,20.4,14.35,14.35,0,0,1-10.38,4.09,13.79,13.79,0,0,1-10.22-4.17A14.08,14.08,0,0,1,987.4,665.09Zm6.4.11a9.16,9.16,0,0,0,2.17,6.43,8.43,8.43,0,0,0,11.75,0,10.18,10.18,0,0,0,0-12.64A8.34,8.34,0,0,0,996,659,8.75,8.75,0,0,0,993.8,665.2Z"/><path class="cls-4" d="M1022.94,651.73h6.27v2.42a11.92,11.92,0,0,1,3.06-2.47,6.93,6.93,0,0,1,3.23-.7,10.07,10.07,0,0,1,5.17,1.62l-2.86,5.73a6,6,0,0,0-3.48-1.28q-5.13,0-5.12,7.74v14.05h-6.27Z"/><path class="cls-4" d="M1051.39,631.83V660.5l8.82-8.77h8.41l-11.78,11.39,12.64,15.72h-8.13l-9-11.44-1,1v10.44h-6.26v-47Z"/><path class="cls-4" d="M1097.28,666.76h-19.42a8.21,8.21,0,0,0,2.17,5.32A6.61,6.61,0,0,0,1085,674a6.43,6.43,0,0,0,3.87-1.12,15.74,15.74,0,0,0,3.43-4.12l5.28,3a21.16,21.16,0,0,1-2.58,3.58,13.88,13.88,0,0,1-2.93,2.45,11.56,11.56,0,0,1-3.36,1.4,16.3,16.3,0,0,1-3.93.45,12.76,12.76,0,0,1-9.74-3.9q-3.67-3.91-3.67-10.41t3.56-10.4a13.57,13.57,0,0,1,19-.12q3.45,3.8,3.45,10.5Zm-6.43-5.12q-1.3-5-6.31-5a6.59,6.59,0,0,0-2.15.35,6.11,6.11,0,0,0-1.82,1,6.19,6.19,0,0,0-1.4,1.57,7.59,7.59,0,0,0-.9,2.09Z"/><path class="cls-4" d="M1104.13,651.73h6.26v2.42a11.92,11.92,0,0,1,3.06-2.47,7,7,0,0,1,3.23-.7,10.1,10.1,0,0,1,5.18,1.62l-2.87,5.73a6,6,0,0,0-3.48-1.28q-5.12,0-5.12,7.74v14.05h-6.26Z"/><path class="cls-4" d="M1134,657.58v21.26h-6.27V657.58H1125v-5.85h2.67V641.8H1134v9.93h4.87v5.85Z"/><path class="cls-4" d="M1144.07,675.72a3.87,3.87,0,0,1,7.74,0,3.87,3.87,0,1,1-7.74,0Z"/></g></svg>