<svg xmlns="http://www.w3.org/2000/svg" width="1920" height="1080" viewBox="0 0 1920 1080"><defs><style>.cls-1{fill:#152230;}.cls-2{fill:#89cce5;}.cls-3{fill:#358da8;}.cls-4{fill:#003a44;}.cls-5{fill:#fff;}</style></defs><title>senarie3_1</title><g id="Layer_1" data-name="Layer 1"><path class="cls-1" d="M1203.52,92.65a137.84,137.84,0,0,1-23.75,2L705.19,93.23C633.51,93,574,34.56,572.47-37.1l6.84-.14c1.42,68,57.9,123.44,125.9,123.64l474.58,1.39c70.48.2,129.75-56.92,132.12-127.35l6.83.23a137.89,137.89,0,0,1-42.36,94.92A138.1,138.1,0,0,1,1203.52,92.65Z"/></g><g id="Layer_3" data-name="Layer 3"><rect class="cls-2" width="1920" height="1080"/><circle class="cls-3" cx="145" cy="150" r="50"/><circle class="cls-3" cx="1214" cy="333" r="50"/><circle class="cls-3" cx="1733" cy="918" r="50"/><circle class="cls-3" cx="226" cy="691" r="50"/><circle class="cls-3" cx="913" cy="576" r="50"/><circle class="cls-3" cx="542" cy="333" r="50"/><circle class="cls-3" cx="1197" cy="841" r="50"/><circle class="cls-3" cx="1570" cy="490" r="50"/><circle class="cls-3" cx="828" cy="150" r="50"/><circle class="cls-3" cx="592" cy="968" r="50"/><circle class="cls-3" cx="1620" cy="174" r="50"/><polygon class="cls-3" points="442 81 363 81 363 106 363 124 363 169 327 169 327 212 328 212 328 258 292 258 292 301 371 301 371 279 371 258 371 212 406 212 406 185 406 169 406 124 442 124 442 81"/><polygon class="cls-3" points="988 758 909 758 909 783 909 801 909 846 873 846 873 889 874 889 874 935 838 935 838 978 917 978 917 956 917 935 917 889 952 889 952 862 952 846 952 801 988 801 988 758"/><polygon class="cls-3" points="301 907 222 907 222 932 222 950 222 995 186 995 186 1038 187 1038 187 1084 151 1084 151 1127 230 1127 230 1105 230 1084 230 1038 265 1038 265 1011 265 995 265 950 301 950 301 907"/><polygon class="cls-3" points="1392 791 1471 791 1471 816 1471 834 1471 879 1507 879 1507 922 1506 922 1506 968 1542 968 1542 1011 1463 1011 1463 989 1463 968 1463 922 1428 922 1428 895 1428 879 1428 834 1392 834 1392 791"/><polygon class="cls-3" points="1289 -70 1368 -70 1368 -45 1368 -27 1368 18 1404 18 1404 61 1403 61 1403 107 1439 107 1439 150 1360 150 1360 128 1360 107 1360 61 1325 61 1325 34 1325 18 1325 -27 1289 -27 1289 -70"/><polygon class="cls-3" points="1708 370 1787 370 1787 395 1787 413 1787 458 1823 458 1823 501 1822 501 1822 547 1858 547 1858 590 1779 590 1779 568 1779 547 1779 501 1744 501 1744 474 1744 458 1744 413 1708 413 1708 370"/><polygon class="cls-3" points="1063 173 984 173 984 198 984 216 984 261 948 261 948 304 949 304 949 350 913 350 913 393 992 393 992 371 992 350 992 304 1027 304 1027 277 1027 261 1027 216 1063 216 1063 173"/><polygon class="cls-3" points="1414 411 1335 411 1335 436 1335 454 1335 499 1299 499 1299 542 1300 542 1300 588 1264 588 1264 631 1343 631 1343 609 1343 588 1343 542 1378 542 1378 515 1378 499 1378 454 1414 454 1414 411"/><polygon class="cls-3" points="492 521 571 521 571 546 571 564 571 609 607 609 607 652 606 652 606 698 642 698 642 741 563 741 563 719 563 698 563 652 528 652 528 625 528 609 528 564 492 564 492 521"/><polygon class="cls-3" points="-39 273 40 273 40 298 40 316 40 361 76 361 76 404 75 404 75 450 111 450 111 493 32 493 32 471 32 450 32 404 -3 404 -3 377 -3 361 -3 316 -39 316 -39 273"/><rect class="cls-3" x="1796" y="165" width="40" height="110" rx="20" transform="translate(256.53 1176.19) rotate(-38.42)"/><rect class="cls-3" x="1645" y="-20" width="110" height="40" rx="20" transform="translate(643.53 1331.87) rotate(-51.58)"/><rect class="cls-3" x="1544" y="671" width="110" height="40" rx="20" transform="translate(63.93 1514.32) rotate(-51.58)"/><rect class="cls-3" x="1211" y="1037" width="110" height="40" rx="20" transform="translate(-348.87 1391.98) rotate(-51.58)"/><rect class="cls-3" x="703" y="373" width="110" height="40" rx="20" transform="translate(-20.96 742.63) rotate(-51.58)"/><rect class="cls-3" x="7" y="881" width="110" height="40" rx="20" transform="translate(-682.42 389.65) rotate(-51.58)"/><rect class="cls-3" x="354" y="821" width="110" height="40" rx="20" transform="translate(-504.06 638.79) rotate(-51.58)"/><rect class="cls-3" x="554" y="61" width="110" height="40" rx="20" transform="translate(167.08 507.79) rotate(-51.58)"/><rect class="cls-3" x="1037" y="611" width="110" height="40" rx="20" transform="translate(-80.98 1094.4) rotate(-51.58)"/><rect class="cls-3" x="1447" y="246" width="40" height="110" rx="20" transform="translate(130.62 976.85) rotate(-38.42)"/><rect class="cls-3" x="1127" y="-15" width="40" height="110" rx="20" transform="translate(223.52 721.47) rotate(-38.42)"/><rect class="cls-3" x="1900" y="750" width="40" height="110" rx="20" transform="translate(-84.5 1367.51) rotate(-38.42)"/><rect class="cls-3" x="696" y="786" width="40" height="110" rx="20" transform="translate(-367.59 627.07) rotate(-38.42)"/><rect class="cls-3" x="265" y="435" width="40" height="110" rx="20" transform="translate(-242.8 283.22) rotate(-38.42)"/><rect class="cls-4" x="328" y="166" width="1140" height="655" rx="12"/><rect class="cls-3" x="418" y="263" width="1140" height="655" rx="12"/><path class="cls-5" d="M448.31,332.72V293.51h8.23a29.9,29.9,0,0,1,9.34,1.17,17.52,17.52,0,0,1,6.68,3.89q6.06,5.54,6.06,14.55a18.56,18.56,0,0,1-6.32,14.62,18.3,18.3,0,0,1-6.65,3.88,30.2,30.2,0,0,1-9.22,1.1Zm5.91-5.56h2.67a22.2,22.2,0,0,0,6.63-.84,13.47,13.47,0,0,0,9.14-13.2,13.64,13.64,0,0,0-4.32-10.47q-3.88-3.57-11.45-3.58h-2.67Z"/><path class="cls-5" d="M507.49,321.7H489.77a7.49,7.49,0,0,0,2,4.85,6.06,6.06,0,0,0,4.5,1.77,5.85,5.85,0,0,0,3.53-1,14.61,14.61,0,0,0,3.12-3.76l4.82,2.69a19.13,19.13,0,0,1-2.36,3.27,12.76,12.76,0,0,1-2.66,2.23,10.85,10.85,0,0,1-3.08,1.28,15,15,0,0,1-3.58.41,11.62,11.62,0,0,1-8.88-3.56,13.29,13.29,0,0,1-3.36-9.49,13.74,13.74,0,0,1,3.25-9.5,12.39,12.39,0,0,1,17.32-.1q3.15,3.45,3.15,9.57ZM501.63,317q-1.2-4.57-5.76-4.57a6,6,0,0,0-2,.31,5.51,5.51,0,0,0-1.66.92,5.72,5.72,0,0,0-1.29,1.43,6.87,6.87,0,0,0-.81,1.91Z"/><path class="cls-5" d="M520.09,313.32v19.4h-5.71v-19.4h-2.44V308h2.44v-9.07h5.71V308h4.44v5.33Z"/><path class="cls-5" d="M567,321.7H549.26a7.49,7.49,0,0,0,2,4.85,6.06,6.06,0,0,0,4.5,1.77,5.85,5.85,0,0,0,3.53-1,14.61,14.61,0,0,0,3.12-3.76l4.82,2.69a19.13,19.13,0,0,1-2.36,3.27,12.76,12.76,0,0,1-2.66,2.23,10.85,10.85,0,0,1-3.08,1.28,15,15,0,0,1-3.58.41,11.62,11.62,0,0,1-8.88-3.56,13.29,13.29,0,0,1-3.36-9.49,13.74,13.74,0,0,1,3.25-9.5,11.21,11.21,0,0,1,8.69-3.58,11.09,11.09,0,0,1,8.63,3.48q3.15,3.45,3.15,9.57ZM561.12,317q-1.2-4.57-5.76-4.57a6,6,0,0,0-2,.31,5.73,5.73,0,0,0-2.94,2.35,6.6,6.6,0,0,0-.82,1.91Z"/><path class="cls-5" d="M573.23,308h5.71v2.21a10.68,10.68,0,0,1,2.8-2.26,6.31,6.31,0,0,1,2.94-.64,9.22,9.22,0,0,1,4.72,1.47L586.79,314a5.49,5.49,0,0,0-3.17-1.16q-4.68,0-4.68,7.05v12.83h-5.71Z"/><path class="cls-5" d="M627,308h5.74v24.73H627v-2.59a11,11,0,0,1-16.08-.41,13.81,13.81,0,0,1-3.32-9.44,13.39,13.39,0,0,1,3.32-9.27,10.74,10.74,0,0,1,8.33-3.71,10.54,10.54,0,0,1,7.75,3.56ZM613.4,320.28a8.57,8.57,0,0,0,1.9,5.78,6.24,6.24,0,0,0,4.93,2.26,6.56,6.56,0,0,0,5.13-2.18,9.42,9.42,0,0,0,0-11.48,6.48,6.48,0,0,0-5.08-2.2,6.32,6.32,0,0,0-4.93,2.23A8.26,8.26,0,0,0,613.4,320.28Z"/><path class="cls-5" d="M645.62,289.83v42.89h-5.71V289.83Z"/><path class="cls-5" d="M658.75,313.32v19.4H653v-19.4H650.6V308H653v-9.07h5.72V308h4.44v5.33Z"/><path class="cls-5" d="M666.21,297.7a3.72,3.72,0,0,1,3.71-3.68,3.63,3.63,0,0,1,2.64,1.09,3.52,3.52,0,0,1,1.09,2.62,3.59,3.59,0,0,1-1.09,2.64,3.5,3.5,0,0,1-2.62,1.09,3.59,3.59,0,0,1-2.64-1.09A3.67,3.67,0,0,1,666.21,297.7ZM672.79,308v24.73h-5.72V308Z"/><path class="cls-5" d="M698.25,289.83H704v42.89h-5.74v-2.59a10.64,10.64,0,0,1-7.64,3.3,10.91,10.91,0,0,1-8.43-3.71,13.76,13.76,0,0,1-3.32-9.44,13.34,13.34,0,0,1,3.32-9.25,10.68,10.68,0,0,1,16.07-.17ZM684.7,320.28a8.57,8.57,0,0,0,1.9,5.78,6.22,6.22,0,0,0,4.93,2.26,6.52,6.52,0,0,0,5.12-2.18,9.39,9.39,0,0,0,0-11.48,6.45,6.45,0,0,0-5.07-2.2,6.31,6.31,0,0,0-4.93,2.23A8.26,8.26,0,0,0,684.7,320.28Z"/><path class="cls-5" d="M749.77,321.7H732.05a7.49,7.49,0,0,0,2,4.85,6.06,6.06,0,0,0,4.49,1.77,5.81,5.81,0,0,0,3.53-1,14.41,14.41,0,0,0,3.13-3.76l4.82,2.69a19.68,19.68,0,0,1-2.36,3.27,12.56,12.56,0,0,1-2.67,2.23A10.79,10.79,0,0,1,741.9,333a15,15,0,0,1-3.58.41,11.66,11.66,0,0,1-8.89-3.56,13.33,13.33,0,0,1-3.35-9.49,13.74,13.74,0,0,1,3.25-9.5,12.39,12.39,0,0,1,17.32-.1q3.15,3.45,3.15,9.57ZM743.91,317q-1.2-4.57-5.77-4.57a6,6,0,0,0-1.95.31,5.56,5.56,0,0,0-1.67.92,5.88,5.88,0,0,0-1.28,1.43,6.87,6.87,0,0,0-.81,1.91Z"/><path class="cls-5" d="M756,308h5.74v2.28a9.34,9.34,0,0,1,6.75-3,8.54,8.54,0,0,1,6.73,2.72q2.09,2.31,2.08,7.54v15.16h-5.74V318.9c0-2.43-.34-4.12-1-5s-1.87-1.42-3.61-1.42a4.43,4.43,0,0,0-4,1.88q-1.15,1.85-1.16,6.47v11.94H756Z"/><path class="cls-5" d="M824.5,332.13q0,1.75-.12,3.09a19.13,19.13,0,0,1-.32,2.35,10.46,10.46,0,0,1-2.38,4.8,11.59,11.59,0,0,1-9.22,3.85,12.28,12.28,0,0,1-8.15-2.66A10.91,10.91,0,0,1,800.5,336h5.74a6.52,6.52,0,0,0,1.09,2.82,6.14,6.14,0,0,0,5.18,2.31q6.27,0,6.27-7.7V330a10.66,10.66,0,0,1-7.84,3.48,10.54,10.54,0,0,1-8.28-3.66,13.53,13.53,0,0,1-3.25-9.27,14.31,14.31,0,0,1,3-9.19,10.52,10.52,0,0,1,8.58-4,10,10,0,0,1,7.77,3.48V308h5.72ZM819,320.4a8.31,8.31,0,0,0-1.93-5.76,6.38,6.38,0,0,0-5-2.21,6.14,6.14,0,0,0-5.13,2.41,8.78,8.78,0,0,0-1.7,5.59A8.67,8.67,0,0,0,807,326a6.15,6.15,0,0,0,5.13,2.36,6.28,6.28,0,0,0,5.18-2.38A8.51,8.51,0,0,0,819,320.4Z"/><path class="cls-5" d="M830.54,320.17a12.29,12.29,0,0,1,3.83-9.11,13.53,13.53,0,0,1,18.74,0,13.26,13.26,0,0,1,0,18.62,13.15,13.15,0,0,1-9.47,3.73,12.56,12.56,0,0,1-9.32-3.81A12.78,12.78,0,0,1,830.54,320.17Zm5.84.11a8.33,8.33,0,0,0,2,5.86,7.71,7.71,0,0,0,10.71,0,9.27,9.27,0,0,0,0-11.53,7.61,7.61,0,0,0-10.66,0A8,8,0,0,0,836.38,320.28Z"/><path class="cls-5" d="M881.19,289.83h5.74v42.89h-5.74v-2.59a10.66,10.66,0,0,1-7.64,3.3,10.91,10.91,0,0,1-8.43-3.71,13.77,13.77,0,0,1-3.33-9.44,13.35,13.35,0,0,1,3.33-9.25,10.68,10.68,0,0,1,16.07-.17Zm-13.56,30.45a8.57,8.57,0,0,0,1.91,5.78,6.21,6.21,0,0,0,4.92,2.26,6.53,6.53,0,0,0,5.13-2.18,9.39,9.39,0,0,0,0-11.48,6.45,6.45,0,0,0-5.07-2.2,6.31,6.31,0,0,0-4.93,2.23A8.27,8.27,0,0,0,867.63,320.28Z"/><path class="cls-5" d="M909.33,297.7a3.55,3.55,0,0,1,1.09-2.59,3.71,3.71,0,0,1,5.25,0,3.53,3.53,0,0,1,1.1,2.62,3.6,3.6,0,0,1-1.1,2.64,3.5,3.5,0,0,1-2.61,1.09,3.72,3.72,0,0,1-3.73-3.76ZM915.9,308v24.73h-5.71V308Z"/><path class="cls-5" d="M941.37,289.83h5.74v42.89h-5.74v-2.59a10.66,10.66,0,0,1-7.64,3.3,10.88,10.88,0,0,1-8.43-3.71,13.77,13.77,0,0,1-3.33-9.44A13.35,13.35,0,0,1,925.3,311a10.68,10.68,0,0,1,16.07-.17Zm-13.56,30.45a8.62,8.62,0,0,0,1.9,5.78,6.24,6.24,0,0,0,4.93,2.26,6.53,6.53,0,0,0,5.13-2.18,9.42,9.42,0,0,0,0-11.48,6.47,6.47,0,0,0-5.08-2.2,6.3,6.3,0,0,0-4.92,2.23A8.22,8.22,0,0,0,927.81,320.28Z"/><path class="cls-5" d="M976.84,321.7H959.12a7.49,7.49,0,0,0,2,4.85,6,6,0,0,0,4.49,1.77,5.83,5.83,0,0,0,3.53-1,14.22,14.22,0,0,0,3.12-3.76l4.83,2.69a19.68,19.68,0,0,1-2.36,3.27,12.56,12.56,0,0,1-2.67,2.23A10.79,10.79,0,0,1,969,333a15,15,0,0,1-3.58.41,11.66,11.66,0,0,1-8.89-3.56,13.33,13.33,0,0,1-3.35-9.49,13.69,13.69,0,0,1,3.25-9.5,12.39,12.39,0,0,1,17.32-.1q3.15,3.45,3.15,9.57ZM971,317q-1.19-4.57-5.76-4.57a6,6,0,0,0-2,.31,5.56,5.56,0,0,0-1.67.92,5.68,5.68,0,0,0-1.28,1.43,6.59,6.59,0,0,0-.81,1.91Z"/><path class="cls-5" d="M1017.36,308h5.74v24.73h-5.74v-2.59a11,11,0,0,1-16.07-.41,13.77,13.77,0,0,1-3.33-9.44,13.35,13.35,0,0,1,3.33-9.27,10.73,10.73,0,0,1,8.33-3.71,10.5,10.5,0,0,1,7.74,3.56Zm-13.56,12.29a8.57,8.57,0,0,0,1.91,5.78,6.21,6.21,0,0,0,4.92,2.26,6.53,6.53,0,0,0,5.13-2.18,9.39,9.39,0,0,0,0-11.48,6.45,6.45,0,0,0-5.07-2.2,6.31,6.31,0,0,0-4.93,2.23A8.27,8.27,0,0,0,1003.8,320.28Z"/><path class="cls-5" d="M1036.2,313.32v19.4h-5.71v-19.4h-2.44V308h2.44v-9.07h5.71V308h4.45v5.33Z"/><path class="cls-5" d="M1066.49,313.32v19.4h-5.73v-19.4h-2V308h2v-9.55c0-3.11.54-5.32,1.62-6.6a8,8,0,0,1,6.5-2.69,11,11,0,0,1,3.83.89v5.84l-.58-.31a7.24,7.24,0,0,0-3.05-.94,2.07,2.07,0,0,0-2,1.09,10.4,10.4,0,0,0-.54,4.12V308h6.22v5.33Z"/><path class="cls-5" d="M1095,308h5.74v24.73H1095v-2.59a11,11,0,0,1-16.07-.41,13.77,13.77,0,0,1-3.33-9.44A13.35,13.35,0,0,1,1079,311a10.73,10.73,0,0,1,8.33-3.71,10.5,10.5,0,0,1,7.74,3.56Zm-13.56,12.29a8.57,8.57,0,0,0,1.91,5.78,6.21,6.21,0,0,0,4.92,2.26,6.53,6.53,0,0,0,5.13-2.18,9.39,9.39,0,0,0,0-11.48,6.45,6.45,0,0,0-5.07-2.2,6.31,6.31,0,0,0-4.93,2.23A8.27,8.27,0,0,0,1081.47,320.28Zm2-21.71a5.22,5.22,0,0,1,1.62-3.84,5.52,5.52,0,0,1,7.8,7.82,5.23,5.23,0,0,1-3.89,1.63,5.32,5.32,0,0,1-3.93-1.63A5.44,5.44,0,0,1,1083.43,298.57Zm3,.05a2.45,2.45,0,0,0,.72,1.81,2.42,2.42,0,0,0,1.79.73,2.49,2.49,0,0,0,2.52-2.52,2.48,2.48,0,0,0-2.52-2.51,2.54,2.54,0,0,0-1,.2,2.78,2.78,0,0,0-.8.55,2.6,2.6,0,0,0-.53.8A2.36,2.36,0,0,0,1086.45,298.62Z"/><path class="cls-5" d="M1129.74,289.83v21a10.56,10.56,0,0,1,7.77-3.56,10.68,10.68,0,0,1,8.33,3.73,13.35,13.35,0,0,1,3.33,9.25,13.59,13.59,0,0,1-3.36,9.44,11,11,0,0,1-16.07.41v2.59H1124V289.83Zm13.59,30.7a8.58,8.58,0,0,0-1.93-5.79,6.2,6.2,0,0,0-4.9-2.28,6.57,6.57,0,0,0-5.13,2.2,8.2,8.2,0,0,0-2,5.69,8.36,8.36,0,0,0,1.93,5.77,6.42,6.42,0,0,0,5.08,2.2,6.32,6.32,0,0,0,4.93-2.2A8.13,8.13,0,0,0,1143.33,320.53Z"/><path class="cls-5" d="M1154.35,297.7a3.55,3.55,0,0,1,1.09-2.59,3.71,3.71,0,0,1,5.25,0,3.53,3.53,0,0,1,1.1,2.62,3.6,3.6,0,0,1-1.1,2.64,3.5,3.5,0,0,1-2.61,1.09,3.72,3.72,0,0,1-3.73-3.76Zm6.57,10.29v24.73h-5.71V308Z"/><path class="cls-5" d="M1173.87,289.83v42.89h-5.71V289.83Z"/><path class="cls-5" d="M1186.82,289.83v42.89h-5.71V289.83Z"/><path class="cls-5" d="M1216.58,321.7h-17.72a7.49,7.49,0,0,0,2,4.85,6,6,0,0,0,4.49,1.77,5.83,5.83,0,0,0,3.53-1,14.61,14.61,0,0,0,3.12-3.76l4.83,2.69a20.28,20.28,0,0,1-2.36,3.27,12.56,12.56,0,0,1-2.67,2.23,10.79,10.79,0,0,1-3.07,1.28,15,15,0,0,1-3.58.41,11.64,11.64,0,0,1-8.89-3.56,13.33,13.33,0,0,1-3.35-9.49,13.69,13.69,0,0,1,3.25-9.5,12.39,12.39,0,0,1,17.32-.1q3.13,3.45,3.14,9.57Zm-5.87-4.67q-1.18-4.57-5.76-4.57a6,6,0,0,0-2,.31,5.73,5.73,0,0,0-2.94,2.35,6.33,6.33,0,0,0-.81,1.91Z"/><path class="cls-5" d="M1241.05,289.83h5.74v42.89h-5.74v-2.59a10.64,10.64,0,0,1-7.64,3.3,10.91,10.91,0,0,1-8.43-3.71,13.76,13.76,0,0,1-3.32-9.44A13.34,13.34,0,0,1,1225,311a10.68,10.68,0,0,1,16.07-.17Zm-13.55,30.45a8.57,8.57,0,0,0,1.9,5.78,6.23,6.23,0,0,0,4.93,2.26,6.56,6.56,0,0,0,5.13-2.18,9.42,9.42,0,0,0,0-11.48,6.48,6.48,0,0,0-5.08-2.2,6.31,6.31,0,0,0-4.93,2.23A8.26,8.26,0,0,0,1227.5,320.28Z"/><path class="cls-5" d="M1276.53,321.7H1258.8a7.59,7.59,0,0,0,2,4.85,6.06,6.06,0,0,0,4.5,1.77,5.83,5.83,0,0,0,3.53-1,14.61,14.61,0,0,0,3.12-3.76l4.82,2.69a19.13,19.13,0,0,1-2.36,3.27,12.76,12.76,0,0,1-2.66,2.23,10.85,10.85,0,0,1-3.08,1.28,15,15,0,0,1-3.58.41,11.62,11.62,0,0,1-8.88-3.56,13.29,13.29,0,0,1-3.35-9.49,13.69,13.69,0,0,1,3.25-9.5,12.38,12.38,0,0,1,17.31-.1q3.15,3.45,3.15,9.57Zm-5.87-4.67q-1.2-4.57-5.76-4.57a6,6,0,0,0-2,.31,5.73,5.73,0,0,0-2.94,2.35,6.6,6.6,0,0,0-.82,1.91Z"/><path class="cls-5" d="M1282.77,308h5.71v2.21a10.68,10.68,0,0,1,2.8-2.26,6.31,6.31,0,0,1,2.94-.64,9.28,9.28,0,0,1,4.73,1.47l-2.62,5.23a5.49,5.49,0,0,0-3.17-1.16q-4.68,0-4.68,7.05v12.83h-5.71Z"/><path class="cls-5" d="M1303,308h5.74v2.28a9.35,9.35,0,0,1,6.75-3,8.54,8.54,0,0,1,6.73,2.72q2.08,2.31,2.08,7.54v15.16h-5.74V318.9c0-2.43-.34-4.12-1-5s-1.87-1.42-3.61-1.42a4.43,4.43,0,0,0-4,1.88q-1.15,1.85-1.16,6.47v11.94H1303Z"/><path class="cls-5" d="M1354,321.7h-17.72a7.49,7.49,0,0,0,2,4.85,6.06,6.06,0,0,0,4.49,1.77,5.81,5.81,0,0,0,3.53-1,14.41,14.41,0,0,0,3.13-3.76l4.82,2.69a19.13,19.13,0,0,1-2.36,3.27,12.56,12.56,0,0,1-2.67,2.23,10.67,10.67,0,0,1-3.07,1.28,15,15,0,0,1-3.58.41,11.62,11.62,0,0,1-8.88-3.56,13.29,13.29,0,0,1-3.36-9.49,13.74,13.74,0,0,1,3.25-9.5,12.39,12.39,0,0,1,17.32-.1q3.15,3.45,3.15,9.57Zm-5.86-4.67q-1.2-4.57-5.77-4.57a6,6,0,0,0-2,.31,5.39,5.39,0,0,0-1.66.92,5.72,5.72,0,0,0-1.29,1.43,6.87,6.87,0,0,0-.81,1.91Z"/><path class="cls-5" d="M1390.71,312.2l-4.73,2.51q-1.11-2.28-2.76-2.28a1.89,1.89,0,0,0-1.35.52,1.75,1.75,0,0,0-.56,1.33q0,1.43,3.3,2.82,4.55,2,6.12,3.61a6.17,6.17,0,0,1,1.58,4.44,7.77,7.77,0,0,1-2.64,6,9,9,0,0,1-6.2,2.29q-6.23,0-8.81-6.07l4.88-2.26a10.43,10.43,0,0,0,1.54,2.26,3.57,3.57,0,0,0,2.49,1c1.93,0,2.9-.87,2.9-2.64,0-1-.75-2-2.24-2.84-.57-.29-1.15-.57-1.72-.84l-1.76-.84a10.72,10.72,0,0,1-3.5-2.43,6,6,0,0,1-1.29-4,7,7,0,0,1,2.2-5.33,7.75,7.75,0,0,1,5.49-2.11C1386.81,307.3,1389.17,308.94,1390.71,312.2Z"/><path class="cls-5" d="M1403.15,289.83v42.89h-5.71V289.83Z"/><path class="cls-5" d="M1432.91,321.7h-17.73a7.59,7.59,0,0,0,2,4.85,6.06,6.06,0,0,0,4.5,1.77,5.83,5.83,0,0,0,3.53-1,14.61,14.61,0,0,0,3.12-3.76l4.82,2.69a19.13,19.13,0,0,1-2.36,3.27,12.51,12.51,0,0,1-2.66,2.23A10.79,10.79,0,0,1,1425,333a15.09,15.09,0,0,1-3.58.41,11.63,11.63,0,0,1-8.89-3.56,13.29,13.29,0,0,1-3.35-9.49,13.69,13.69,0,0,1,3.25-9.5,12.38,12.38,0,0,1,17.31-.1q3.15,3.45,3.15,9.57ZM1427,317c-.79-3-2.72-4.57-5.76-4.57a6,6,0,0,0-2,.31,5.73,5.73,0,0,0-2.94,2.35,6.6,6.6,0,0,0-.82,1.91Z"/><path class="cls-5" d="M1445.5,313.32v19.4h-5.71v-19.4h-2.44V308h2.44v-9.07h5.71V308h4.44v5.33Z"/><path class="cls-5" d="M1459.72,313.32v19.4H1454v-19.4h-2.44V308H1454v-9.07h5.71V308h4.44v5.33Z"/><path class="cls-5" d="M1491,321.7H1473.3a7.59,7.59,0,0,0,2,4.85,6.06,6.06,0,0,0,4.5,1.77,5.83,5.83,0,0,0,3.53-1,14.61,14.61,0,0,0,3.12-3.76l4.82,2.69a19.13,19.13,0,0,1-2.36,3.27,12.76,12.76,0,0,1-2.66,2.23,10.85,10.85,0,0,1-3.08,1.28,15,15,0,0,1-3.58.41,11.62,11.62,0,0,1-8.88-3.56,13.29,13.29,0,0,1-3.35-9.49,13.69,13.69,0,0,1,3.25-9.5,12.38,12.38,0,0,1,17.31-.1q3.15,3.45,3.15,9.57Zm-5.87-4.67q-1.2-4.57-5.76-4.57a6,6,0,0,0-2,.31,5.73,5.73,0,0,0-2.94,2.35,6.6,6.6,0,0,0-.82,1.91Z"/><path class="cls-5" d="M1503.62,313.32v19.4h-5.71v-19.4h-2.44V308h2.44v-9.07h5.71V308h4.44v5.33Z"/><path class="cls-5" d="M447.22,370.39h5.71v2.28a11.73,11.73,0,0,1,2.82-2.33,6.74,6.74,0,0,1,3.12-.64,7.59,7.59,0,0,1,6.63,3.66,8.57,8.57,0,0,1,7.29-3.66q8.34,0,8.35,10.13v15.29H475.4V381.38a10.71,10.71,0,0,0-.86-5,3.15,3.15,0,0,0-2.92-1.49,3.72,3.72,0,0,0-3.44,1.77c-.72,1.19-1.08,3.09-1.08,5.72v12.77h-5.74V381.46q0-6.6-3.81-6.6a3.83,3.83,0,0,0-3.52,1.8,11.32,11.32,0,0,0-1.1,5.69v12.77h-5.71Z"/><path class="cls-5" d="M510.87,384.1H493.15a7.49,7.49,0,0,0,2,4.85,6,6,0,0,0,4.49,1.77,5.83,5.83,0,0,0,3.53-1,14.41,14.41,0,0,0,3.13-3.76l4.82,2.69a19.68,19.68,0,0,1-2.36,3.27,12.56,12.56,0,0,1-2.67,2.23,10.79,10.79,0,0,1-3.07,1.28,15,15,0,0,1-3.58.41,11.66,11.66,0,0,1-8.89-3.56,13.33,13.33,0,0,1-3.35-9.49,13.69,13.69,0,0,1,3.25-9.5,12.39,12.39,0,0,1,17.32-.1q3.15,3.45,3.15,9.57ZM505,379.43q-1.2-4.57-5.77-4.57a6,6,0,0,0-1.95.31,5.56,5.56,0,0,0-1.67.92,5.86,5.86,0,0,0-1.28,1.43,6.87,6.87,0,0,0-.81,1.91Z"/><path class="cls-5" d="M535.35,352.23h5.74v42.89h-5.74v-2.59a10.66,10.66,0,0,1-7.64,3.3,10.88,10.88,0,0,1-8.43-3.71,13.77,13.77,0,0,1-3.33-9.44,13.35,13.35,0,0,1,3.33-9.25,10.68,10.68,0,0,1,16.07-.17Zm-13.56,30.45a8.57,8.57,0,0,0,1.9,5.78,6.24,6.24,0,0,0,4.93,2.26,6.55,6.55,0,0,0,5.13-2.18,9.42,9.42,0,0,0,0-11.48,6.48,6.48,0,0,0-5.08-2.2,6.32,6.32,0,0,0-4.93,2.23A8.26,8.26,0,0,0,521.79,382.68Z"/><path class="cls-5" d="M582.57,352.23h5.74v42.89h-5.74v-2.59a10.64,10.64,0,0,1-7.64,3.3,10.91,10.91,0,0,1-8.43-3.71,13.76,13.76,0,0,1-3.32-9.44,13.34,13.34,0,0,1,3.32-9.25,10.64,10.64,0,0,1,8.3-3.73,10.53,10.53,0,0,1,7.77,3.56ZM569,382.68a8.57,8.57,0,0,0,1.9,5.78,6.23,6.23,0,0,0,4.93,2.26,6.52,6.52,0,0,0,5.12-2.18,9.39,9.39,0,0,0,0-11.48,6.45,6.45,0,0,0-5.07-2.2,6.31,6.31,0,0,0-4.93,2.23A8.26,8.26,0,0,0,569,382.68Z"/><path class="cls-5" d="M618,384.1H600.32a7.49,7.49,0,0,0,2,4.85,6.06,6.06,0,0,0,4.5,1.77,5.83,5.83,0,0,0,3.53-1,14.61,14.61,0,0,0,3.12-3.76l4.82,2.69a19.13,19.13,0,0,1-2.36,3.27,12.76,12.76,0,0,1-2.66,2.23,10.85,10.85,0,0,1-3.08,1.28,15,15,0,0,1-3.58.41,11.62,11.62,0,0,1-8.88-3.56,13.29,13.29,0,0,1-3.35-9.49,13.69,13.69,0,0,1,3.25-9.5,12.38,12.38,0,0,1,17.31-.1q3.15,3.45,3.15,9.57Zm-5.86-4.67q-1.2-4.57-5.76-4.57a6,6,0,0,0-2,.31,5.51,5.51,0,0,0-1.66.92,5.66,5.66,0,0,0-1.28,1.43,6.6,6.6,0,0,0-.82,1.91Z"/><path class="cls-5" d="M630.64,375.72v19.4h-5.71v-19.4h-2.44v-5.33h2.44v-9.07h5.71v9.07h4.44v5.33Z"/><path class="cls-5" d="M669.38,374.6l-4.72,2.52c-.74-1.53-1.66-2.29-2.77-2.29a1.88,1.88,0,0,0-1.34.52,1.75,1.75,0,0,0-.56,1.33q0,1.43,3.3,2.82,4.55,2,6.12,3.61a6.16,6.16,0,0,1,1.57,4.44,7.77,7.77,0,0,1-2.64,6,9,9,0,0,1-6.19,2.29q-6.23,0-8.81-6.07l4.87-2.26a10.73,10.73,0,0,0,1.55,2.26,3.57,3.57,0,0,0,2.49,1c1.93,0,2.89-.87,2.89-2.64,0-1-.74-2-2.23-2.84-.58-.29-1.15-.57-1.73-.84l-1.75-.84a10.61,10.61,0,0,1-3.5-2.43,6,6,0,0,1-1.3-4,7.05,7.05,0,0,1,2.21-5.33,7.75,7.75,0,0,1,5.49-2.11C665.49,369.7,667.84,371.34,669.38,374.6Z"/><path class="cls-5" d="M694.34,370.39h5.74v24.73h-5.74v-2.59a11,11,0,0,1-16.07-.41,13.76,13.76,0,0,1-3.32-9.44,13.34,13.34,0,0,1,3.32-9.27,10.73,10.73,0,0,1,8.33-3.71,10.5,10.5,0,0,1,7.74,3.56Zm-13.55,12.29a8.57,8.57,0,0,0,1.9,5.78,6.22,6.22,0,0,0,4.93,2.26,6.52,6.52,0,0,0,5.12-2.18,9.39,9.39,0,0,0,0-11.48,6.45,6.45,0,0,0-5.07-2.2,6.31,6.31,0,0,0-4.93,2.23A8.26,8.26,0,0,0,680.79,382.68Z"/><path class="cls-5" d="M707.29,370.39H713v2.28a11.91,11.91,0,0,1,2.81-2.33,6.76,6.76,0,0,1,3.13-.64,7.57,7.57,0,0,1,6.62,3.66,8.59,8.59,0,0,1,7.29-3.66q8.35,0,8.35,10.13v15.29h-5.73V381.38a10.56,10.56,0,0,0-.87-5,3.13,3.13,0,0,0-2.92-1.49,3.73,3.73,0,0,0-3.44,1.77c-.72,1.19-1.08,3.09-1.08,5.72v12.77h-5.73V381.46q0-6.6-3.81-6.6a3.83,3.83,0,0,0-3.52,1.8c-.74,1.2-1.1,3.1-1.1,5.69v12.77h-5.72Z"/><path class="cls-5" d="M748.43,370.39h5.71v2.28a11.73,11.73,0,0,1,2.82-2.33,6.74,6.74,0,0,1,3.12-.64,7.59,7.59,0,0,1,6.63,3.66A8.56,8.56,0,0,1,774,369.7q8.35,0,8.36,10.13v15.29h-5.74V381.38a10.71,10.71,0,0,0-.86-5,3.15,3.15,0,0,0-2.92-1.49,3.72,3.72,0,0,0-3.44,1.77c-.72,1.19-1.08,3.09-1.08,5.72v12.77h-5.74V381.46q0-6.6-3.81-6.6a3.83,3.83,0,0,0-3.52,1.8,11.32,11.32,0,0,0-1.1,5.69v12.77h-5.71Z"/><path class="cls-5" d="M812.08,384.1H794.36a7.49,7.49,0,0,0,2,4.85,6,6,0,0,0,4.49,1.77,5.83,5.83,0,0,0,3.53-1,14.22,14.22,0,0,0,3.12-3.76l4.83,2.69a19.68,19.68,0,0,1-2.36,3.27,12.56,12.56,0,0,1-2.67,2.23,10.79,10.79,0,0,1-3.07,1.28,15,15,0,0,1-3.58.41,11.66,11.66,0,0,1-8.89-3.56,13.33,13.33,0,0,1-3.35-9.49,13.69,13.69,0,0,1,3.25-9.5,12.39,12.39,0,0,1,17.32-.1q3.15,3.45,3.15,9.57Zm-5.87-4.67q-1.19-4.57-5.76-4.57a6,6,0,0,0-2,.31,5.56,5.56,0,0,0-1.67.92,5.86,5.86,0,0,0-1.28,1.43,6.59,6.59,0,0,0-.81,1.91Z"/><path class="cls-5" d="M848.74,374.6,844,377.12c-.74-1.53-1.67-2.29-2.77-2.29a1.88,1.88,0,0,0-1.34.52,1.75,1.75,0,0,0-.56,1.33q0,1.43,3.3,2.82,4.54,2,6.12,3.61a6.16,6.16,0,0,1,1.57,4.44,7.77,7.77,0,0,1-2.64,6,9,9,0,0,1-6.19,2.29q-6.22,0-8.81-6.07l4.87-2.26a10.73,10.73,0,0,0,1.55,2.26,3.55,3.55,0,0,0,2.49,1c1.93,0,2.89-.87,2.89-2.64,0-1-.74-2-2.23-2.84-.58-.29-1.15-.57-1.73-.84l-1.75-.84a10.61,10.61,0,0,1-3.5-2.43,6,6,0,0,1-1.3-4,7.05,7.05,0,0,1,2.21-5.33,7.75,7.75,0,0,1,5.49-2.11C844.85,369.7,847.2,371.34,848.74,374.6Z"/><path class="cls-5" d="M873.7,370.39h5.74v24.73H873.7v-2.59a11,11,0,0,1-16.07-.41,13.77,13.77,0,0,1-3.33-9.44,13.35,13.35,0,0,1,3.33-9.27A10.73,10.73,0,0,1,866,369.7a10.5,10.5,0,0,1,7.74,3.56Zm-13.56,12.29a8.57,8.57,0,0,0,1.91,5.78,6.21,6.21,0,0,0,4.92,2.26,6.53,6.53,0,0,0,5.13-2.18,9.39,9.39,0,0,0,0-11.48,6.45,6.45,0,0,0-5.07-2.2,6.31,6.31,0,0,0-4.93,2.23A8.27,8.27,0,0,0,860.14,382.68Zm2-21.71a5.22,5.22,0,0,1,1.62-3.84,5.52,5.52,0,0,1,7.8,7.82,5.23,5.23,0,0,1-3.89,1.63A5.32,5.32,0,0,1,863.7,365,5.44,5.44,0,0,1,862.1,361Zm3,0a2.45,2.45,0,0,0,.72,1.81,2.42,2.42,0,0,0,1.79.73,2.49,2.49,0,0,0,2.52-2.52,2.48,2.48,0,0,0-2.52-2.51,2.54,2.54,0,0,0-1,.2,2.78,2.78,0,0,0-.8.55,2.6,2.6,0,0,0-.53.8A2.36,2.36,0,0,0,865.12,361Z"/><path class="cls-5" d="M920.93,352.23h5.74v42.89h-5.74v-2.59a10.66,10.66,0,0,1-7.64,3.3,10.88,10.88,0,0,1-8.43-3.71,13.77,13.77,0,0,1-3.33-9.44,13.35,13.35,0,0,1,3.33-9.25,10.68,10.68,0,0,1,16.07-.17Zm-13.56,30.45a8.57,8.57,0,0,0,1.91,5.78,6.21,6.21,0,0,0,4.92,2.26,6.53,6.53,0,0,0,5.13-2.18,9.39,9.39,0,0,0,0-11.48,6.47,6.47,0,0,0-5.08-2.2,6.3,6.3,0,0,0-4.92,2.23A8.22,8.22,0,0,0,907.37,382.68Z"/><path class="cls-5" d="M956.4,384.1H938.68a7.49,7.49,0,0,0,2,4.85,6,6,0,0,0,4.49,1.77,5.83,5.83,0,0,0,3.53-1A14.22,14.22,0,0,0,951.8,386l4.83,2.69a19.68,19.68,0,0,1-2.36,3.27,12.56,12.56,0,0,1-2.67,2.23,10.79,10.79,0,0,1-3.07,1.28,15,15,0,0,1-3.58.41,11.66,11.66,0,0,1-8.89-3.56,13.33,13.33,0,0,1-3.35-9.49,13.69,13.69,0,0,1,3.25-9.5,12.39,12.39,0,0,1,17.32-.1q3.15,3.45,3.15,9.57Zm-5.86-4.67q-1.2-4.57-5.77-4.57a6,6,0,0,0-1.95.31,5.56,5.56,0,0,0-1.67.92,5.86,5.86,0,0,0-1.28,1.43,6.87,6.87,0,0,0-.81,1.91Z"/><path class="cls-5" d="M977.83,360.1a3.55,3.55,0,0,1,1.09-2.59,3.72,3.72,0,0,1,5.26,0,3.52,3.52,0,0,1,1.09,2.62,3.59,3.59,0,0,1-1.09,2.64,3.52,3.52,0,0,1-2.62,1.09,3.72,3.72,0,0,1-3.73-3.76Zm6.58,10.29v24.73h-5.72V370.39Z"/><path class="cls-5" d="M997.36,352.23v26.15l8-8h7.67l-10.74,10.38,11.53,14.35h-7.41l-8.18-10.44-.91.92v9.52h-5.72V352.23Z"/><path class="cls-5" d="M1023.25,352.23v26.15l8-8H1039l-10.74,10.38,11.53,14.35h-7.42l-8.17-10.44-.92.92v9.52h-5.71V352.23Z"/><path class="cls-5" d="M1065.12,384.1H1047.4a7.49,7.49,0,0,0,2,4.85,6.06,6.06,0,0,0,4.5,1.77,5.8,5.8,0,0,0,3.52-1,14.41,14.41,0,0,0,3.13-3.76l4.82,2.69a19.13,19.13,0,0,1-2.36,3.27,12.56,12.56,0,0,1-2.67,2.23,10.67,10.67,0,0,1-3.07,1.28,15,15,0,0,1-3.58.41,11.62,11.62,0,0,1-8.88-3.56,13.29,13.29,0,0,1-3.36-9.49,13.74,13.74,0,0,1,3.25-9.5,12.39,12.39,0,0,1,17.32-.1q3.15,3.45,3.15,9.57Zm-5.86-4.67q-1.2-4.57-5.77-4.57a6,6,0,0,0-2,.31,5.51,5.51,0,0,0-1.66.92,5.89,5.89,0,0,0-1.29,1.43,6.87,6.87,0,0,0-.81,1.91Z"/><path class="cls-5" d="M1101.79,374.6l-4.73,2.52c-.74-1.53-1.66-2.29-2.76-2.29a1.89,1.89,0,0,0-1.35.52,1.75,1.75,0,0,0-.56,1.33q0,1.43,3.3,2.82,4.55,2,6.12,3.61a6.17,6.17,0,0,1,1.58,4.44,7.77,7.77,0,0,1-2.64,6,9,9,0,0,1-6.2,2.29q-6.22,0-8.81-6.07l4.88-2.26a10.43,10.43,0,0,0,1.54,2.26,3.57,3.57,0,0,0,2.49,1c1.93,0,2.9-.87,2.9-2.64,0-1-.75-2-2.24-2.84-.57-.29-1.15-.57-1.72-.84l-1.76-.84a10.72,10.72,0,0,1-3.5-2.43,6,6,0,0,1-1.29-4,7,7,0,0,1,2.2-5.33,7.75,7.75,0,0,1,5.49-2.11C1097.89,369.7,1100.25,371.34,1101.79,374.6Z"/><path class="cls-5" d="M1114.23,408.57h-5.71V370.39h5.71v2.69a10.58,10.58,0,0,1,7.67-3.38,10.7,10.7,0,0,1,8.4,3.76,13.55,13.55,0,0,1,3.35,9.42,13.39,13.39,0,0,1-3.32,9.27,10.84,10.84,0,0,1-16.1.2Zm13.58-25.67a8.52,8.52,0,0,0-1.93-5.78,6.21,6.21,0,0,0-4.92-2.26,6.53,6.53,0,0,0-5.11,2.18,8.3,8.3,0,0,0-1.95,5.74,8.48,8.48,0,0,0,1.95,5.74,6.42,6.42,0,0,0,5.08,2.2,6.18,6.18,0,0,0,4.9-2.23A8.12,8.12,0,0,0,1127.81,382.9Z"/><path class="cls-5" d="M1139.7,370.39h5.71v2.21a10.83,10.83,0,0,1,2.79-2.26,6.32,6.32,0,0,1,3-.64,9.24,9.24,0,0,1,4.72,1.47l-2.62,5.23a5.49,5.49,0,0,0-3.17-1.16q-4.66,0-4.67,7.05v12.83h-5.71Z"/><path class="cls-5" d="M1181.31,384.1h-17.72a7.49,7.49,0,0,0,2,4.85,6,6,0,0,0,4.49,1.77,5.83,5.83,0,0,0,3.53-1,14.22,14.22,0,0,0,3.12-3.76l4.83,2.69a19.68,19.68,0,0,1-2.36,3.27,12.56,12.56,0,0,1-2.67,2.23,10.79,10.79,0,0,1-3.07,1.28,15,15,0,0,1-3.58.41,11.66,11.66,0,0,1-8.89-3.56,13.33,13.33,0,0,1-3.35-9.49,13.69,13.69,0,0,1,3.25-9.5,12.39,12.39,0,0,1,17.32-.1q3.15,3.45,3.15,9.57Zm-5.86-4.67q-1.2-4.57-5.77-4.57a6,6,0,0,0-2,.31,5.56,5.56,0,0,0-1.67.92,5.86,5.86,0,0,0-1.28,1.43,6.87,6.87,0,0,0-.81,1.91Z"/><path class="cls-5" d="M1205.79,352.23h5.74v42.89h-5.74v-2.59a10.66,10.66,0,0,1-7.65,3.3,10.91,10.91,0,0,1-8.43-3.71,13.81,13.81,0,0,1-3.32-9.44,13.39,13.39,0,0,1,3.32-9.25,10.69,10.69,0,0,1,16.08-.17Zm-13.56,30.45a8.57,8.57,0,0,0,1.9,5.78,6.24,6.24,0,0,0,4.93,2.26,6.56,6.56,0,0,0,5.13-2.18,9.42,9.42,0,0,0,0-11.48,6.48,6.48,0,0,0-5.08-2.2,6.32,6.32,0,0,0-4.93,2.23A8.26,8.26,0,0,0,1192.23,382.68Z"/><path class="cls-5" d="M1241.26,384.1h-17.72a7.49,7.49,0,0,0,2,4.85,6,6,0,0,0,4.49,1.77,5.83,5.83,0,0,0,3.53-1,14.61,14.61,0,0,0,3.12-3.76l4.83,2.69a19.71,19.71,0,0,1-2.37,3.27,12.27,12.27,0,0,1-2.66,2.23,10.79,10.79,0,0,1-3.07,1.28,15,15,0,0,1-3.58.41,11.64,11.64,0,0,1-8.89-3.56,13.33,13.33,0,0,1-3.35-9.49,13.69,13.69,0,0,1,3.25-9.5,12.38,12.38,0,0,1,17.31-.1q3.15,3.45,3.15,9.57Zm-5.87-4.67q-1.19-4.57-5.76-4.57a6,6,0,0,0-2,.31,5.51,5.51,0,0,0-1.66.92,5.66,5.66,0,0,0-1.28,1.43,6.33,6.33,0,0,0-.81,1.91Z"/><path class="cls-5" d="M1261.88,374.6l-4.73,2.52c-.74-1.53-1.66-2.29-2.77-2.29a1.88,1.88,0,0,0-1.34.52,1.75,1.75,0,0,0-.56,1.33q0,1.43,3.3,2.82,4.54,2,6.12,3.61a6.16,6.16,0,0,1,1.57,4.44,7.77,7.77,0,0,1-2.64,6,9,9,0,0,1-6.19,2.29q-6.23,0-8.81-6.07l4.87-2.26a10.73,10.73,0,0,0,1.55,2.26,3.57,3.57,0,0,0,2.49,1c1.93,0,2.89-.87,2.89-2.64,0-1-.74-2-2.23-2.84-.57-.29-1.15-.57-1.73-.84l-1.75-.84a10.61,10.61,0,0,1-3.5-2.43,6,6,0,0,1-1.3-4,7.05,7.05,0,0,1,2.21-5.33,7.75,7.75,0,0,1,5.49-2.11C1258,369.7,1260.33,371.34,1261.88,374.6Z"/><path class="cls-5" d="M1272.13,387.78l5.08,2-7.24,14.5-3.85-1.6Z"/><path class="cls-5" d="M447.22,432.79h5.71v2.28a11.73,11.73,0,0,1,2.82-2.33,6.74,6.74,0,0,1,3.12-.64,7.59,7.59,0,0,1,6.63,3.66,8.57,8.57,0,0,1,7.29-3.66q8.34,0,8.35,10.13v15.29H475.4V443.78a10.71,10.71,0,0,0-.86-5,3.15,3.15,0,0,0-2.92-1.49,3.72,3.72,0,0,0-3.44,1.77c-.72,1.19-1.08,3.09-1.08,5.72v12.77h-5.74V443.86q0-6.6-3.81-6.6a3.83,3.83,0,0,0-3.52,1.8,11.32,11.32,0,0,0-1.1,5.69v12.77h-5.71Z"/><path class="cls-5" d="M510.87,446.5H493.15a7.49,7.49,0,0,0,2,4.85,6,6,0,0,0,4.49,1.77,5.83,5.83,0,0,0,3.53-1,14.41,14.41,0,0,0,3.13-3.76L511.1,451a19.68,19.68,0,0,1-2.36,3.27,12.56,12.56,0,0,1-2.67,2.23,10.79,10.79,0,0,1-3.07,1.28,15,15,0,0,1-3.58.41,11.66,11.66,0,0,1-8.89-3.56,13.33,13.33,0,0,1-3.35-9.49,13.69,13.69,0,0,1,3.25-9.5,12.39,12.39,0,0,1,17.32-.1q3.15,3.45,3.15,9.57ZM505,441.83q-1.2-4.57-5.77-4.57a6,6,0,0,0-1.95.31,5.79,5.79,0,0,0-1.67.92,5.68,5.68,0,0,0-1.28,1.43,7,7,0,0,0-.81,1.91Z"/><path class="cls-5" d="M517.12,432.79h5.74v2.28a9.34,9.34,0,0,1,6.75-3,8.54,8.54,0,0,1,6.73,2.72q2.08,2.31,2.08,7.54v15.16h-5.74V443.71q0-3.66-1-5.06c-.66-.94-1.87-1.42-3.61-1.42a4.43,4.43,0,0,0-4,1.88c-.77,1.24-1.16,3.39-1.16,6.47v11.94h-5.74Z"/><path class="cls-5" d="M579.91,414.63h5.74v42.89h-5.74v-2.59a10.66,10.66,0,0,1-7.64,3.3,10.88,10.88,0,0,1-8.43-3.71,13.77,13.77,0,0,1-3.33-9.44,13.35,13.35,0,0,1,3.33-9.25,10.68,10.68,0,0,1,16.07-.17Zm-13.56,30.45a8.61,8.61,0,0,0,1.9,5.79,6.27,6.27,0,0,0,4.93,2.25,6.55,6.55,0,0,0,5.13-2.18,9.42,9.42,0,0,0,0-11.48,6.48,6.48,0,0,0-5.08-2.2,6.32,6.32,0,0,0-4.93,2.23A8.26,8.26,0,0,0,566.35,445.08Z"/><path class="cls-5" d="M598.57,432.79V447c0,4.1,1.62,6.14,4.85,6.14s4.85-2,4.85-6.14V432.79H614v14.32a16,16,0,0,1-.73,5.13,8.67,8.67,0,0,1-2.47,3.47,12,12,0,0,1-14.7,0,8.79,8.79,0,0,1-2.51-3.47,14,14,0,0,1-.71-5.13V432.79Z"/><path class="cls-5" d="M643,414.63v26.16l8-8h7.67l-10.74,10.38,11.53,14.35H652l-8.17-10.44L643,448v9.52h-5.71V414.63Z"/><path class="cls-5" d="M680.48,432.79h5.74v24.73h-5.74v-2.59a11,11,0,0,1-16.07-.41,13.77,13.77,0,0,1-3.33-9.44,13.35,13.35,0,0,1,3.33-9.27,10.73,10.73,0,0,1,8.33-3.71,10.52,10.52,0,0,1,7.74,3.56Zm-13.56,12.29a8.62,8.62,0,0,0,1.91,5.79,6.23,6.23,0,0,0,4.92,2.25,6.53,6.53,0,0,0,5.13-2.18,9.39,9.39,0,0,0,0-11.48,6.47,6.47,0,0,0-5.08-2.2,6.3,6.3,0,0,0-4.92,2.23A8.22,8.22,0,0,0,666.92,445.08Z"/><path class="cls-5" d="M693.43,432.79h5.74v2.28a9.37,9.37,0,0,1,6.75-3,8.54,8.54,0,0,1,6.73,2.72q2.08,2.31,2.08,7.54v15.16H709V443.71c0-2.44-.33-4.13-1-5.06s-1.86-1.42-3.61-1.42a4.4,4.4,0,0,0-4,1.88c-.78,1.24-1.17,3.39-1.17,6.47v11.94h-5.74Z"/><path class="cls-5" d="M737.13,422.5a3.55,3.55,0,0,1,1.09-2.59,3.71,3.71,0,0,1,5.25,0,3.53,3.53,0,0,1,1.1,2.62,3.6,3.6,0,0,1-1.1,2.64,3.5,3.5,0,0,1-2.61,1.09,3.72,3.72,0,0,1-3.73-3.76Zm6.57,10.29v24.73H738V432.79Z"/><path class="cls-5" d="M756.65,414.63v26.16l8.05-8h7.67l-10.74,10.38,11.53,14.35h-7.42l-8.17-10.44-.92.92v9.52h-5.71V414.63Z"/><path class="cls-5" d="M782.55,414.63v26.16l8.05-8h7.67l-10.74,10.38,11.52,14.35h-7.41l-8.18-10.44-.91.92v9.52h-5.71V414.63Z"/><path class="cls-5" d="M824.42,446.5H806.7a7.49,7.49,0,0,0,2,4.85,6,6,0,0,0,4.49,1.77,5.83,5.83,0,0,0,3.53-1,14.22,14.22,0,0,0,3.12-3.76l4.83,2.69a19.68,19.68,0,0,1-2.36,3.27,12.56,12.56,0,0,1-2.67,2.23,10.79,10.79,0,0,1-3.07,1.28,15,15,0,0,1-3.58.41,11.66,11.66,0,0,1-8.89-3.56,13.33,13.33,0,0,1-3.35-9.49,13.69,13.69,0,0,1,3.25-9.5,12.39,12.39,0,0,1,17.32-.1q3.15,3.45,3.15,9.57Zm-5.87-4.67q-1.18-4.57-5.76-4.57a6,6,0,0,0-1.95.31,5.79,5.79,0,0,0-1.67.92,5.68,5.68,0,0,0-1.28,1.43,6.71,6.71,0,0,0-.81,1.91Z"/><path class="cls-5" d="M864.94,432.79h5.74v24.73h-5.74v-2.59a11,11,0,0,1-16.07-.41,13.77,13.77,0,0,1-3.33-9.44,13.35,13.35,0,0,1,3.33-9.27,10.73,10.73,0,0,1,8.33-3.71,10.5,10.5,0,0,1,7.74,3.56Zm-13.56,12.29a8.62,8.62,0,0,0,1.91,5.79,6.23,6.23,0,0,0,4.92,2.25,6.53,6.53,0,0,0,5.13-2.18,9.39,9.39,0,0,0,0-11.48,6.45,6.45,0,0,0-5.07-2.2,6.31,6.31,0,0,0-4.93,2.23A8.27,8.27,0,0,0,851.38,445.08Z"/><path class="cls-5" d="M883.61,414.63v42.89h-5.72V414.63Z"/><path class="cls-5" d="M896.73,438.12v19.4H891v-19.4h-2.44v-5.33H891v-9.07h5.71v9.07h4.45v5.33Z"/><path class="cls-5" d="M904.2,422.5a3.55,3.55,0,0,1,1.09-2.59,3.71,3.71,0,0,1,5.25,0,3.53,3.53,0,0,1,1.1,2.62,3.6,3.6,0,0,1-1.1,2.64,3.5,3.5,0,0,1-2.61,1.09,3.72,3.72,0,0,1-3.73-3.76Zm6.57,10.29v24.73h-5.71V432.79Z"/><path class="cls-5" d="M936.24,414.63H942v42.89h-5.74v-2.59a10.66,10.66,0,0,1-7.64,3.3,10.88,10.88,0,0,1-8.43-3.71,13.77,13.77,0,0,1-3.33-9.44,13.35,13.35,0,0,1,3.33-9.25,10.64,10.64,0,0,1,8.3-3.73,10.53,10.53,0,0,1,7.77,3.56Zm-13.56,30.45a8.62,8.62,0,0,0,1.91,5.79,6.23,6.23,0,0,0,4.92,2.25,6.53,6.53,0,0,0,5.13-2.18,9.39,9.39,0,0,0,0-11.48,6.47,6.47,0,0,0-5.08-2.2,6.3,6.3,0,0,0-4.92,2.23A8.22,8.22,0,0,0,922.68,445.08Z"/><path class="cls-5" d="M968.31,432.79l6.4,13.89,6.37-13.89h6.42l-12.84,26.43-12.75-26.43Z"/><path class="cls-5" d="M1029.35,446.42h-17.83a7.86,7.86,0,0,0,2.09,4.88,5.94,5.94,0,0,0,4.46,1.82q3.91,0,6.48-4.95l4.92,2.75a16.44,16.44,0,0,1-1.75,2.71,10.4,10.4,0,0,1-2,2,13,13,0,0,1-7.9,2.66,12.43,12.43,0,0,1-9-4q-3.09,4-9.11,4a11.3,11.3,0,0,1-7.34-2.28,7.31,7.31,0,0,1-2.82-6,7.64,7.64,0,0,1,2.69-6.09,10.47,10.47,0,0,1,7.09-2.34,14.29,14.29,0,0,1,6.45,1.68c0-2.24-.47-3.79-1.4-4.67s-2.54-1.35-4.77-1.35a24.48,24.48,0,0,0-6.61.94v-5.31a45.11,45.11,0,0,1,7.16-.76q6,0,8.69,3.48a12.48,12.48,0,0,1,17.29,0,12.94,12.94,0,0,1,3.25,9.22ZM995.1,449.9a2.82,2.82,0,0,0,1.42,2.41,6.46,6.46,0,0,0,3.6,1,6.83,6.83,0,0,0,3.79-1,3,3,0,0,0,1.52-2.52,2.71,2.71,0,0,0-1.57-2.28,7.17,7.17,0,0,0-3.79-1,6.11,6.11,0,0,0-3.53,1A2.87,2.87,0,0,0,995.1,449.9Zm28.26-8.1c-.7-3-2.55-4.54-5.57-4.54s-5,1.51-5.89,4.54Z"/><path class="cls-5" d="M1035.49,432.79h5.72V435a10.66,10.66,0,0,1,2.79-2.26,6.31,6.31,0,0,1,2.94-.64,9.28,9.28,0,0,1,4.73,1.47l-2.62,5.23a5.49,5.49,0,0,0-3.17-1.16c-3.12,0-4.67,2.35-4.67,7.06v12.82h-5.72Z"/><path class="cls-5" d="M1077.11,446.5h-17.73a7.55,7.55,0,0,0,2,4.85,6,6,0,0,0,4.49,1.77,5.83,5.83,0,0,0,3.53-1,14.61,14.61,0,0,0,3.12-3.76l4.83,2.69a19.71,19.71,0,0,1-2.37,3.27,12.27,12.27,0,0,1-2.66,2.23,10.79,10.79,0,0,1-3.07,1.28,15,15,0,0,1-3.58.41,11.64,11.64,0,0,1-8.89-3.56,13.33,13.33,0,0,1-3.35-9.49,13.69,13.69,0,0,1,3.25-9.5,12.38,12.38,0,0,1,17.31-.1q3.15,3.45,3.15,9.57Zm-5.87-4.67q-1.18-4.57-5.76-4.57a6,6,0,0,0-2,.31,5.74,5.74,0,0,0-1.66.92,5.49,5.49,0,0,0-1.28,1.43,6.44,6.44,0,0,0-.81,1.91Z"/><path class="cls-5" d="M1113.77,437l-4.72,2.52c-.75-1.53-1.67-2.29-2.77-2.29a1.88,1.88,0,0,0-1.34.52,1.72,1.72,0,0,0-.56,1.33q0,1.43,3.3,2.82,4.54,2,6.12,3.61a6.16,6.16,0,0,1,1.57,4.44,7.77,7.77,0,0,1-2.64,6,9,9,0,0,1-6.19,2.29q-6.22,0-8.82-6.07l4.88-2.26a10.36,10.36,0,0,0,1.55,2.26,3.53,3.53,0,0,0,2.49,1c1.93,0,2.89-.87,2.89-2.64,0-1-.74-2-2.23-2.84-.58-.29-1.15-.57-1.73-.84l-1.75-.84a10.78,10.78,0,0,1-3.51-2.43,6,6,0,0,1-1.29-4,7.05,7.05,0,0,1,2.21-5.33,7.72,7.72,0,0,1,5.48-2.11C1109.88,432.1,1112.23,433.74,1113.77,437Z"/><path class="cls-5" d="M1119.64,422.5a3.55,3.55,0,0,1,1.09-2.59,3.71,3.71,0,0,1,5.25,0,3.53,3.53,0,0,1,1.1,2.62,3.6,3.6,0,0,1-1.1,2.64,3.5,3.5,0,0,1-2.61,1.09,3.72,3.72,0,0,1-3.73-3.76Zm6.57,10.29v24.73h-5.71V432.79Z"/><path class="cls-5" d="M1139.16,414.63v26.16l8-8h7.67l-10.74,10.38,11.53,14.35h-7.42l-8.17-10.44-.92.92v9.52h-5.71V414.63Z"/><path class="cls-5" d="M1165.06,414.63v26.16l8-8h7.67L1170,443.17l11.52,14.35h-7.41L1166,447.08l-.91.92v9.52h-5.71V414.63Z"/><path class="cls-5" d="M1206.93,446.5h-17.72a7.49,7.49,0,0,0,2,4.85,6,6,0,0,0,4.49,1.77,5.83,5.83,0,0,0,3.53-1,14.41,14.41,0,0,0,3.12-3.76l4.83,2.69a19.68,19.68,0,0,1-2.36,3.27,12.56,12.56,0,0,1-2.67,2.23,10.79,10.79,0,0,1-3.07,1.28,15,15,0,0,1-3.58.41,11.66,11.66,0,0,1-8.89-3.56,13.33,13.33,0,0,1-3.35-9.49,13.69,13.69,0,0,1,3.25-9.5,12.39,12.39,0,0,1,17.32-.1q3.15,3.45,3.15,9.57Zm-5.87-4.67q-1.18-4.57-5.76-4.57a6,6,0,0,0-2,.31,5.79,5.79,0,0,0-1.67.92,5.68,5.68,0,0,0-1.28,1.43,6.44,6.44,0,0,0-.81,1.91Z"/><path class="cls-5" d="M1213.18,432.79h5.71V435a10.83,10.83,0,0,1,2.79-2.26,6.32,6.32,0,0,1,3-.64,9.24,9.24,0,0,1,4.72,1.47l-2.62,5.23a5.49,5.49,0,0,0-3.17-1.16q-4.66,0-4.67,7.06v12.82h-5.71Z"/><path class="cls-5" d="M1254.38,471h-5.71V432.79h5.71v2.69a10.84,10.84,0,0,1,16.08.38,13.6,13.6,0,0,1,3.35,9.42,13.35,13.35,0,0,1-3.33,9.27,10.84,10.84,0,0,1-16.1.2ZM1268,445.3a8.52,8.52,0,0,0-1.93-5.78,6.23,6.23,0,0,0-4.93-2.26,6.5,6.5,0,0,0-5.1,2.18,8.31,8.31,0,0,0-2,5.74,8.48,8.48,0,0,0,2,5.74,6.42,6.42,0,0,0,5.08,2.2,6.19,6.19,0,0,0,4.9-2.23A8.12,8.12,0,0,0,1268,445.3Z"/><path class="cls-5" d="M1298.08,432.79h5.74v24.73h-5.74v-2.59a11,11,0,0,1-16.07-.41,13.77,13.77,0,0,1-3.33-9.44,13.35,13.35,0,0,1,3.33-9.27,10.73,10.73,0,0,1,8.33-3.71,10.5,10.5,0,0,1,7.74,3.56Zm-13.56,12.29a8.62,8.62,0,0,0,1.91,5.79,6.23,6.23,0,0,0,4.92,2.25,6.53,6.53,0,0,0,5.13-2.18,9.39,9.39,0,0,0,0-11.48,6.45,6.45,0,0,0-5.08-2.2,6.3,6.3,0,0,0-4.92,2.23A8.22,8.22,0,0,0,1284.52,445.08Zm2-21.71a5.22,5.22,0,0,1,1.62-3.84,5.52,5.52,0,0,1,7.8,7.82A5.23,5.23,0,0,1,1292,429a5.32,5.32,0,0,1-3.93-1.63A5.44,5.44,0,0,1,1286.48,423.37Zm3,.05a2.45,2.45,0,0,0,.72,1.81,2.53,2.53,0,1,0,1.79-4.3,2.54,2.54,0,0,0-1,.2,2.78,2.78,0,0,0-.8.55,2.6,2.6,0,0,0-.53.8A2.36,2.36,0,0,0,1289.5,423.42Z"/><path class="cls-5" d="M1345.31,432.79h5.74v24.73h-5.74v-2.59a11,11,0,0,1-16.07-.41,13.77,13.77,0,0,1-3.33-9.44,13.35,13.35,0,0,1,3.33-9.27,10.71,10.71,0,0,1,8.32-3.71,10.54,10.54,0,0,1,7.75,3.56Zm-13.56,12.29a8.61,8.61,0,0,0,1.9,5.79,6.27,6.27,0,0,0,4.93,2.25,6.53,6.53,0,0,0,5.13-2.18,9.42,9.42,0,0,0,0-11.48,6.47,6.47,0,0,0-5.08-2.2,6.3,6.3,0,0,0-4.92,2.23A8.22,8.22,0,0,0,1331.75,445.08Z"/><path class="cls-5" d="M1364.15,438.12v19.4h-5.71v-19.4H1356v-5.33h2.44v-9.07h5.71v9.07h4.44v5.33Z"/><path class="cls-5" d="M452.93,477v21a10.53,10.53,0,0,1,7.77-3.56,10.73,10.73,0,0,1,8.33,3.73,13.34,13.34,0,0,1,3.32,9.25,13.56,13.56,0,0,1-3.35,9.44,10.81,10.81,0,0,1-8.4,3.71,10.69,10.69,0,0,1-7.67-3.3v2.59h-5.71V477Zm13.58,30.7a8.53,8.53,0,0,0-1.93-5.79,6.17,6.17,0,0,0-4.9-2.28,6.56,6.56,0,0,0-5.13,2.21,8.2,8.2,0,0,0-1.95,5.68,8.32,8.32,0,0,0,1.93,5.77,6.43,6.43,0,0,0,5.08,2.21,6.29,6.29,0,0,0,4.92-2.21A8.13,8.13,0,0,0,466.51,507.73Z"/><path class="cls-5" d="M477.53,484.9a3.72,3.72,0,0,1,3.71-3.68,3.63,3.63,0,0,1,2.64,1.09,3.53,3.53,0,0,1,1.09,2.62,3.59,3.59,0,0,1-1.09,2.64,3.5,3.5,0,0,1-2.61,1.09,3.6,3.6,0,0,1-2.65-1.09A3.67,3.67,0,0,1,477.53,484.9Zm6.58,10.29v24.73H478.4V495.19Z"/><path class="cls-5" d="M497.06,477v42.89h-5.71V477Z"/><path class="cls-5" d="M510,477v42.89h-5.72V477Z"/><path class="cls-5" d="M539.77,508.9H522a7.59,7.59,0,0,0,2,4.85,6.07,6.07,0,0,0,4.5,1.78,5.83,5.83,0,0,0,3.53-1,14.61,14.61,0,0,0,3.12-3.76l4.82,2.69a19.13,19.13,0,0,1-2.36,3.27,12.51,12.51,0,0,1-2.66,2.23,10.73,10.73,0,0,1-3.08,1.28,15,15,0,0,1-3.58.41,11.62,11.62,0,0,1-8.88-3.56,13.29,13.29,0,0,1-3.35-9.49,13.69,13.69,0,0,1,3.25-9.5A11.21,11.21,0,0,1,528,494.5a11.09,11.09,0,0,1,8.63,3.48q3.15,3.45,3.15,9.57Zm-5.87-4.67q-1.2-4.58-5.76-4.57a6,6,0,0,0-2,.31,5.74,5.74,0,0,0-1.66.92,5.66,5.66,0,0,0-1.28,1.43,6.72,6.72,0,0,0-.82,1.91Z"/><path class="cls-5" d="M564.24,477H570v42.89h-5.74v-2.59a10.66,10.66,0,0,1-7.64,3.3,10.88,10.88,0,0,1-8.43-3.71,13.77,13.77,0,0,1-3.33-9.44,13.35,13.35,0,0,1,3.33-9.25,10.64,10.64,0,0,1,8.3-3.73,10.53,10.53,0,0,1,7.77,3.56Zm-13.56,30.45a8.62,8.62,0,0,0,1.91,5.79,6.24,6.24,0,0,0,4.92,2.26,6.54,6.54,0,0,0,5.13-2.19,9.37,9.37,0,0,0,0-11.47,6.43,6.43,0,0,0-5.08-2.21,6.3,6.3,0,0,0-4.92,2.23A8.22,8.22,0,0,0,550.68,507.48Z"/><path class="cls-5" d="M599.71,508.9H582a7.49,7.49,0,0,0,2,4.85,6.07,6.07,0,0,0,4.49,1.78,5.81,5.81,0,0,0,3.53-1,14.41,14.41,0,0,0,3.13-3.76l4.82,2.69a19.13,19.13,0,0,1-2.36,3.27,12.56,12.56,0,0,1-2.67,2.23,10.67,10.67,0,0,1-3.07,1.28,15,15,0,0,1-3.58.41,11.62,11.62,0,0,1-8.88-3.56,13.29,13.29,0,0,1-3.36-9.49,13.74,13.74,0,0,1,3.25-9.5A11.24,11.24,0,0,1,588,494.5a11.1,11.1,0,0,1,8.63,3.48q3.15,3.45,3.15,9.57Zm-5.86-4.67q-1.2-4.58-5.77-4.57a6,6,0,0,0-2,.31,5.61,5.61,0,0,0-1.66.92,5.89,5.89,0,0,0-1.29,1.43,7,7,0,0,0-.81,1.91Z"/><path class="cls-5" d="M612.31,500.52v19.4h-5.72v-19.4h-2.43v-5.33h2.43v-9.07h5.72v9.07h4.44v5.33Z"/><path class="cls-5" d="M635.82,484.9a3.55,3.55,0,0,1,1.09-2.59,3.72,3.72,0,1,1,5.26,5.26,3.52,3.52,0,0,1-2.62,1.09,3.72,3.72,0,0,1-3.73-3.76Zm6.57,10.29v24.73h-5.71V495.19Z"/><path class="cls-5" d="M655.34,477v26.16l8-8h7.67l-10.74,10.38,11.53,14.35h-7.42l-8.17-10.44-.92.92v9.52h-5.71V477Z"/><path class="cls-5" d="M681.24,477v26.16l8-8H697l-10.74,10.38,11.53,14.35h-7.42l-8.17-10.44-.92.92v9.52h-5.71V477Z"/><path class="cls-5" d="M723.11,508.9H705.39a7.49,7.49,0,0,0,2,4.85,6.07,6.07,0,0,0,4.49,1.78,5.81,5.81,0,0,0,3.53-1,14.41,14.41,0,0,0,3.13-3.76l4.82,2.69a19.68,19.68,0,0,1-2.36,3.27,12.56,12.56,0,0,1-2.67,2.23,10.79,10.79,0,0,1-3.07,1.28,15,15,0,0,1-3.58.41,11.66,11.66,0,0,1-8.89-3.56,13.33,13.33,0,0,1-3.35-9.49,13.69,13.69,0,0,1,3.25-9.5,11.24,11.24,0,0,1,8.69-3.58A11.1,11.1,0,0,1,720,498q3.15,3.45,3.15,9.57Zm-5.86-4.67q-1.2-4.58-5.77-4.57a6,6,0,0,0-2,.31,5.79,5.79,0,0,0-1.67.92,6.07,6.07,0,0,0-1.28,1.43,7,7,0,0,0-.81,1.91Z"/><path class="cls-5" d="M767.93,508.9H750.2a7.59,7.59,0,0,0,2,4.85,6.07,6.07,0,0,0,4.5,1.78,5.83,5.83,0,0,0,3.53-1,14.61,14.61,0,0,0,3.12-3.76l4.82,2.69a19.13,19.13,0,0,1-2.36,3.27,12.51,12.51,0,0,1-2.66,2.23,10.73,10.73,0,0,1-3.08,1.28,15,15,0,0,1-3.58.41,11.62,11.62,0,0,1-8.88-3.56,13.29,13.29,0,0,1-3.35-9.49,13.69,13.69,0,0,1,3.25-9.5,11.21,11.21,0,0,1,8.68-3.58A11.09,11.09,0,0,1,764.8,498q3.15,3.45,3.15,9.57Zm-5.87-4.67q-1.2-4.58-5.76-4.57a6,6,0,0,0-2,.31,5.74,5.74,0,0,0-1.66.92,5.66,5.66,0,0,0-1.28,1.43,6.72,6.72,0,0,0-.82,1.91Z"/><path class="cls-5" d="M774.17,495.19h5.71v2.21a10.84,10.84,0,0,1,2.8-2.26,6.31,6.31,0,0,1,2.94-.64,9.28,9.28,0,0,1,4.73,1.47l-2.62,5.24a5.44,5.44,0,0,0-3.17-1.17q-4.68,0-4.68,7.06v12.82h-5.71Z"/><path class="cls-5" d="M824,499.4l-4.72,2.52c-.75-1.53-1.67-2.29-2.77-2.29a1.9,1.9,0,0,0-1.35.52,1.75,1.75,0,0,0-.56,1.33c0,.95,1.11,1.89,3.31,2.82,3,1.31,5.06,2.51,6.11,3.61a6.17,6.17,0,0,1,1.58,4.44,7.77,7.77,0,0,1-2.64,6,9,9,0,0,1-6.2,2.29q-6.21,0-8.81-6.07l4.88-2.26a10,10,0,0,0,1.55,2.26,3.53,3.53,0,0,0,2.48,1c1.93,0,2.9-.89,2.9-2.65,0-1-.75-2-2.24-2.84-.57-.29-1.15-.57-1.72-.84l-1.75-.83a10.94,10.94,0,0,1-3.51-2.44,6,6,0,0,1-1.29-4,7,7,0,0,1,2.21-5.33A7.71,7.71,0,0,1,817,494.5Q821.73,494.5,824,499.4Z"/><path class="cls-5" d="M853.29,508.9H835.57a7.49,7.49,0,0,0,2,4.85,6,6,0,0,0,4.49,1.78,5.83,5.83,0,0,0,3.53-1,14.41,14.41,0,0,0,3.12-3.76l4.83,2.69a19.68,19.68,0,0,1-2.36,3.27,12.56,12.56,0,0,1-2.67,2.23,10.79,10.79,0,0,1-3.07,1.28,15,15,0,0,1-3.58.41,11.66,11.66,0,0,1-8.89-3.56,13.33,13.33,0,0,1-3.35-9.49,13.69,13.69,0,0,1,3.25-9.5,12.39,12.39,0,0,1,17.32-.1q3.14,3.45,3.14,9.57Zm-5.87-4.67q-1.18-4.58-5.76-4.57a5.91,5.91,0,0,0-1.95.31,5.79,5.79,0,0,0-1.67.92,5.86,5.86,0,0,0-1.28,1.43,6.44,6.44,0,0,0-.81,1.91Z"/><path class="cls-5" d="M859.54,495.19h5.73v2.28a9.37,9.37,0,0,1,6.76-3,8.54,8.54,0,0,1,6.73,2.72c1.38,1.54,2.08,4,2.08,7.54v15.16H875.1V506.11q0-3.66-1-5.06c-.66-.95-1.86-1.42-3.6-1.42a4.42,4.42,0,0,0-4,1.88c-.78,1.24-1.17,3.39-1.17,6.47v11.94h-5.73Z"/><path class="cls-5" d="M906.28,477H912v42.89h-5.74v-2.59a10.66,10.66,0,0,1-7.64,3.3,10.88,10.88,0,0,1-8.43-3.71,13.77,13.77,0,0,1-3.33-9.44,13.35,13.35,0,0,1,3.33-9.25,10.68,10.68,0,0,1,16.07-.17Zm-13.56,30.45a8.66,8.66,0,0,0,1.9,5.79,6.28,6.28,0,0,0,4.93,2.26,6.54,6.54,0,0,0,5.13-2.19,9.41,9.41,0,0,0,0-11.47,6.44,6.44,0,0,0-5.08-2.21,6.3,6.3,0,0,0-4.92,2.23A8.22,8.22,0,0,0,892.72,507.48Z"/><path class="cls-5" d="M925.12,500.52v19.4h-5.71v-19.4H917v-5.33h2.44v-9.07h5.71v9.07h4.44v5.33Z"/><path class="cls-5" d="M952.57,495.19,959,509.08l6.38-13.89h6.42l-12.85,26.43-12.74-26.43Z"/><path class="cls-5" d="M974.76,484.9a3.55,3.55,0,0,1,1.09-2.59,3.6,3.6,0,0,1,2.61-1.09,3.64,3.64,0,0,1,2.65,1.09,3.57,3.57,0,0,1,1.09,2.62,3.63,3.63,0,0,1-1.09,2.64,3.53,3.53,0,0,1-2.62,1.09,3.72,3.72,0,0,1-3.73-3.76Zm6.57,10.29v24.73h-5.71V495.19Z"/><path class="cls-5" d="M1006.8,477h5.74v42.89h-5.74v-2.59a10.66,10.66,0,0,1-7.64,3.3,10.88,10.88,0,0,1-8.43-3.71,13.77,13.77,0,0,1-3.33-9.44,13.35,13.35,0,0,1,3.33-9.25,10.64,10.64,0,0,1,8.3-3.73,10.53,10.53,0,0,1,7.77,3.56Zm-13.56,30.45a8.62,8.62,0,0,0,1.91,5.79,6.24,6.24,0,0,0,4.92,2.26,6.54,6.54,0,0,0,5.13-2.19,9.37,9.37,0,0,0,0-11.47,6.43,6.43,0,0,0-5.08-2.21,6.3,6.3,0,0,0-4.92,2.23A8.22,8.22,0,0,0,993.24,507.48Z"/><path class="cls-5" d="M1042.27,508.9h-17.72a7.49,7.49,0,0,0,2,4.85,6.07,6.07,0,0,0,4.49,1.78,5.81,5.81,0,0,0,3.53-1,14.41,14.41,0,0,0,3.13-3.76l4.82,2.69a19.68,19.68,0,0,1-2.36,3.27,12.56,12.56,0,0,1-2.67,2.23,10.79,10.79,0,0,1-3.07,1.28,15,15,0,0,1-3.58.41,11.66,11.66,0,0,1-8.89-3.56,13.33,13.33,0,0,1-3.35-9.49,13.74,13.74,0,0,1,3.25-9.5,11.24,11.24,0,0,1,8.69-3.58,11.1,11.1,0,0,1,8.63,3.48q3.15,3.45,3.15,9.57Zm-5.86-4.67q-1.2-4.58-5.77-4.57a6,6,0,0,0-2,.31,5.79,5.79,0,0,0-1.67.92,6.07,6.07,0,0,0-1.28,1.43,7,7,0,0,0-.81,1.91Z"/><path class="cls-5" d="M1048.52,495.19h5.71v2.21a10.83,10.83,0,0,1,2.79-2.26,6.32,6.32,0,0,1,3-.64,9.22,9.22,0,0,1,4.72,1.47l-2.61,5.24a5.49,5.49,0,0,0-3.18-1.17q-4.67,0-4.67,7.06v12.82h-5.71Z"/><path class="cls-5" d="M1090.13,508.9h-17.72a7.49,7.49,0,0,0,2,4.85,6.07,6.07,0,0,0,4.49,1.78,5.81,5.81,0,0,0,3.53-1,14.41,14.41,0,0,0,3.13-3.76l4.82,2.69a19.13,19.13,0,0,1-2.36,3.27,12.56,12.56,0,0,1-2.67,2.23,10.67,10.67,0,0,1-3.07,1.28,15,15,0,0,1-3.58.41,11.66,11.66,0,0,1-8.89-3.56,13.33,13.33,0,0,1-3.35-9.49,13.74,13.74,0,0,1,3.25-9.5,11.24,11.24,0,0,1,8.69-3.58A11.1,11.1,0,0,1,1087,498q3.15,3.45,3.15,9.57Zm-5.86-4.67q-1.2-4.58-5.77-4.57a6,6,0,0,0-2,.31,5.61,5.61,0,0,0-1.66.92,5.89,5.89,0,0,0-1.29,1.43,7,7,0,0,0-.81,1.91Z"/><path class="cls-5" d="M1118.14,495.19v14.19c0,4.1,1.61,6.15,4.85,6.15s4.85-2,4.85-6.15V495.19h5.71v14.32a15.69,15.69,0,0,1-.74,5.13,8.65,8.65,0,0,1-2.46,3.48,12,12,0,0,1-14.7,0,8.89,8.89,0,0,1-2.51-3.48,14,14,0,0,1-.71-5.13V495.19Z"/><path class="cls-5" d="M1159,477h5.74v42.89H1159v-2.59a10.66,10.66,0,0,1-7.64,3.3,10.88,10.88,0,0,1-8.43-3.71,13.77,13.77,0,0,1-3.33-9.44,13.35,13.35,0,0,1,3.33-9.25,10.64,10.64,0,0,1,8.3-3.73,10.53,10.53,0,0,1,7.77,3.56Zm-13.56,30.45a8.62,8.62,0,0,0,1.91,5.79,6.24,6.24,0,0,0,4.92,2.26,6.54,6.54,0,0,0,5.13-2.19,9.37,9.37,0,0,0,0-11.47,6.43,6.43,0,0,0-5.08-2.21,6.3,6.3,0,0,0-4.92,2.23A8.22,8.22,0,0,0,1145.43,507.48Z"/><path class="cls-5" d="M1187.12,484.9a3.74,3.74,0,0,1,3.71-3.68,3.62,3.62,0,0,1,2.64,1.09,3.53,3.53,0,0,1,1.09,2.62,3.59,3.59,0,0,1-1.09,2.64,3.5,3.5,0,0,1-2.61,1.09,3.58,3.58,0,0,1-2.64-1.09A3.64,3.64,0,0,1,1187.12,484.9Zm6.58,10.29v24.73H1188V495.19Z"/><path class="cls-5" d="M1220.06,495.19l6.4,13.89,6.37-13.89h6.42l-12.85,26.43-12.74-26.43Z"/><path class="cls-5" d="M1264.74,508.9H1247a7.49,7.49,0,0,0,2,4.85,6.07,6.07,0,0,0,4.5,1.78,5.85,5.85,0,0,0,3.53-1,14.61,14.61,0,0,0,3.12-3.76l4.82,2.69a19.13,19.13,0,0,1-2.36,3.27,12.76,12.76,0,0,1-2.66,2.23,10.85,10.85,0,0,1-3.08,1.28,15,15,0,0,1-3.58.41,11.62,11.62,0,0,1-8.88-3.56,13.29,13.29,0,0,1-3.36-9.49,13.74,13.74,0,0,1,3.25-9.5,11.24,11.24,0,0,1,8.69-3.58,11.1,11.1,0,0,1,8.63,3.48q3.15,3.45,3.15,9.57Zm-5.86-4.67q-1.2-4.58-5.76-4.57a6,6,0,0,0-2,.31,5.74,5.74,0,0,0-1.66.92,5.89,5.89,0,0,0-1.29,1.43,7,7,0,0,0-.81,1.91Z"/><path class="cls-5" d="M1271,495.19h5.74v2.28a9.37,9.37,0,0,1,6.75-3,8.54,8.54,0,0,1,6.73,2.72q2.08,2.31,2.08,7.54v15.16h-5.74V506.11c0-2.44-.33-4.13-1-5.06s-1.86-1.42-3.61-1.42a4.4,4.4,0,0,0-4,1.88c-.78,1.24-1.17,3.39-1.17,6.47v11.94H1271Z"/><path class="cls-5" d="M1299.5,495.19h5.74v2.28a9.37,9.37,0,0,1,6.76-3,8.52,8.52,0,0,1,6.72,2.72q2.08,2.31,2.09,7.54v15.16h-5.74V506.11q0-3.66-1-5.06c-.66-.95-1.86-1.42-3.6-1.42a4.42,4.42,0,0,0-4,1.88c-.78,1.24-1.17,3.39-1.17,6.47v11.94h-5.74Z"/><path class="cls-5" d="M1350.54,508.9h-17.72a7.49,7.49,0,0,0,2,4.85,6,6,0,0,0,4.49,1.78,5.83,5.83,0,0,0,3.53-1,14.41,14.41,0,0,0,3.12-3.76l4.83,2.69a19.68,19.68,0,0,1-2.36,3.27,12.56,12.56,0,0,1-2.67,2.23,10.79,10.79,0,0,1-3.07,1.28,15,15,0,0,1-3.58.41,11.66,11.66,0,0,1-8.89-3.56,13.33,13.33,0,0,1-3.35-9.49,13.69,13.69,0,0,1,3.25-9.5,12.39,12.39,0,0,1,17.32-.1q3.13,3.45,3.14,9.57Zm-5.87-4.67q-1.18-4.58-5.76-4.57a5.91,5.91,0,0,0-2,.31,5.79,5.79,0,0,0-1.67.92,5.86,5.86,0,0,0-1.28,1.43,6.44,6.44,0,0,0-.81,1.91Z"/><path class="cls-5" d="M1362.5,477v26.16l8-8h7.66l-10.74,10.38L1379,519.92h-7.41l-8.18-10.44-.91.92v9.52h-5.71V477Z"/><path class="cls-5" d="M1382.68,495.19h5.72v2.21a10.83,10.83,0,0,1,2.79-2.26,6.31,6.31,0,0,1,2.94-.64,9.25,9.25,0,0,1,4.73,1.47l-2.62,5.24a5.44,5.44,0,0,0-3.17-1.17c-3.12,0-4.67,2.35-4.67,7.06v12.82h-5.72Z"/><path class="cls-5" d="M1424.3,508.9h-17.72a7.49,7.49,0,0,0,2,4.85,6,6,0,0,0,4.49,1.78,5.83,5.83,0,0,0,3.53-1,14.41,14.41,0,0,0,3.12-3.76l4.83,2.69a19.68,19.68,0,0,1-2.36,3.27,12.56,12.56,0,0,1-2.67,2.23,10.79,10.79,0,0,1-3.07,1.28,15,15,0,0,1-3.58.41,11.66,11.66,0,0,1-8.89-3.56,13.33,13.33,0,0,1-3.35-9.49,13.69,13.69,0,0,1,3.25-9.5,12.39,12.39,0,0,1,17.32-.1q3.13,3.45,3.14,9.57Zm-5.87-4.67q-1.18-4.58-5.76-4.57a6,6,0,0,0-2,.31,5.87,5.87,0,0,0-1.66.92,5.66,5.66,0,0,0-1.28,1.43,6.44,6.44,0,0,0-.81,1.91Z"/><path class="cls-5" d="M1448.78,477h5.73v42.89h-5.73v-2.59a10.68,10.68,0,0,1-7.65,3.3,10.91,10.91,0,0,1-8.43-3.71,13.81,13.81,0,0,1-3.32-9.44,13.39,13.39,0,0,1,3.32-9.25,10.69,10.69,0,0,1,16.08-.17Zm-13.56,30.45a8.61,8.61,0,0,0,1.9,5.79,6.26,6.26,0,0,0,4.93,2.26,6.57,6.57,0,0,0,5.13-2.19,9.41,9.41,0,0,0,0-11.47,6.46,6.46,0,0,0-5.08-2.21,6.31,6.31,0,0,0-4.93,2.23A8.26,8.26,0,0,0,1435.22,507.48Z"/><path class="cls-5" d="M1458.12,504.86h11.32v5h-11.32Z"/><path class="cls-5" d="M461.59,561.8l-4.72,2.52c-.75-1.53-1.67-2.29-2.77-2.29a1.89,1.89,0,0,0-1.35.52,1.75,1.75,0,0,0-.56,1.33q0,1.43,3.3,2.82,4.54,2,6.12,3.61a6.17,6.17,0,0,1,1.58,4.44,7.78,7.78,0,0,1-2.64,6,9,9,0,0,1-6.2,2.29q-6.23,0-8.81-6.07l4.88-2.26A10.71,10.71,0,0,0,452,577a3.57,3.57,0,0,0,2.49,1c1.93,0,2.9-.88,2.9-2.64,0-1-.75-2-2.24-2.84-.57-.29-1.15-.57-1.72-.84l-1.76-.84a10.83,10.83,0,0,1-3.5-2.43,6,6,0,0,1-1.29-4A7,7,0,0,1,449,559a7.75,7.75,0,0,1,5.49-2.11C457.69,556.9,460.05,558.54,461.59,561.8Z"/><path class="cls-5" d="M490.84,571.3H473.12a7.49,7.49,0,0,0,2,4.85,6,6,0,0,0,4.49,1.77,5.83,5.83,0,0,0,3.53-1,14.61,14.61,0,0,0,3.12-3.76l4.83,2.69a20.28,20.28,0,0,1-2.36,3.27,12.56,12.56,0,0,1-2.67,2.23,10.79,10.79,0,0,1-3.07,1.28,15,15,0,0,1-3.58.41,11.64,11.64,0,0,1-8.89-3.56,13.33,13.33,0,0,1-3.35-9.49,13.69,13.69,0,0,1,3.25-9.5,12.38,12.38,0,0,1,17.31-.1q3.15,3.45,3.15,9.57ZM485,566.63q-1.19-4.57-5.76-4.57a6,6,0,0,0-2,.31,5.51,5.51,0,0,0-1.66.92,5.66,5.66,0,0,0-1.28,1.43,6.44,6.44,0,0,0-.81,1.91Z"/><path class="cls-5" d="M497.08,557.59h5.74v2.28a9.37,9.37,0,0,1,6.76-3,8.52,8.52,0,0,1,6.72,2.72q2.09,2.31,2.09,7.54v15.16h-5.74V568.5c0-2.43-.34-4.12-1-5S509.77,562,508,562a4.42,4.42,0,0,0-4,1.88q-1.17,1.85-1.17,6.47v11.94h-5.74Z"/><path class="cls-5" d="M526.49,579.47a3.36,3.36,0,0,1,1-2.46,3.52,3.52,0,1,1,5,5,3.35,3.35,0,0,1-2.48,1,3.47,3.47,0,0,1-3.53-3.56Z"/><path class="cls-5" d="M450.29,667.91l10.84,27.17,11-27.17h6.48L461,710.06l-17.19-42.15Z"/><path class="cls-5" d="M482,672.1a3.55,3.55,0,0,1,1.09-2.59,3.6,3.6,0,0,1,2.61-1.09,3.64,3.64,0,0,1,2.65,1.09,3.56,3.56,0,0,1,1.09,2.62,3.63,3.63,0,0,1-1.09,2.64,3.53,3.53,0,0,1-2.62,1.09A3.72,3.72,0,0,1,482,672.1Zm6.57,10.29v24.73h-5.71V682.39Z"/><path class="cls-5" d="M501.55,664.23v42.89h-5.71V664.23Z"/><path class="cls-5" d="M543.07,664.23h5.73v42.89h-5.73v-2.59a10.66,10.66,0,0,1-7.65,3.3,10.91,10.91,0,0,1-8.43-3.71,13.81,13.81,0,0,1-3.32-9.44,13.39,13.39,0,0,1,3.32-9.25,10.69,10.69,0,0,1,16.08-.17Zm-13.56,30.45a8.57,8.57,0,0,0,1.9,5.78,6.24,6.24,0,0,0,4.93,2.26,6.56,6.56,0,0,0,5.13-2.18,9.42,9.42,0,0,0,0-11.48,6.48,6.48,0,0,0-5.08-2.2,6.31,6.31,0,0,0-4.93,2.23A8.26,8.26,0,0,0,529.51,694.68Z"/><path class="cls-5" d="M561.73,682.39v14.19c0,4.1,1.61,6.14,4.85,6.14s4.85-2,4.85-6.14V682.39h5.71v14.32a15.69,15.69,0,0,1-.74,5.13,8.55,8.55,0,0,1-2.46,3.47,12,12,0,0,1-14.7,0,8.79,8.79,0,0,1-2.51-3.47,14,14,0,0,1-.71-5.13V682.39Z"/><path class="cls-5" d="M603.47,682.39l6.4,13.89,6.37-13.89h6.43l-12.85,26.43-12.75-26.43Z"/><path class="cls-5" d="M664.51,696H646.69a7.85,7.85,0,0,0,2.08,4.88,6,6,0,0,0,4.47,1.82q3.9,0,6.47-5l4.93,2.75a16.69,16.69,0,0,1-1.76,2.71,10.4,10.4,0,0,1-2,2,13.09,13.09,0,0,1-7.89,2.66,12.44,12.44,0,0,1-9-4q-3.09,4-9.11,4a11.32,11.32,0,0,1-7.34-2.28,7.32,7.32,0,0,1-2.82-6,7.64,7.64,0,0,1,2.69-6.09,10.51,10.51,0,0,1,7.09-2.34,14.29,14.29,0,0,1,6.45,1.68c0-2.24-.47-3.79-1.4-4.67s-2.54-1.35-4.77-1.35a24.41,24.41,0,0,0-6.6.94v-5.31a44.88,44.88,0,0,1,7.16-.76q6,0,8.68,3.48a12.48,12.48,0,0,1,17.29,0,12.94,12.94,0,0,1,3.25,9.22Zm-34.25,3.48a2.84,2.84,0,0,0,1.42,2.41,6.47,6.47,0,0,0,3.61,1,6.82,6.82,0,0,0,3.78-1,3,3,0,0,0,1.52-2.52,2.71,2.71,0,0,0-1.57-2.28,7.14,7.14,0,0,0-3.79-1,6.08,6.08,0,0,0-3.52,1A2.86,2.86,0,0,0,630.26,699.5Zm28.26-8.1q-1-4.54-5.56-4.54t-5.89,4.54Z"/><path class="cls-5" d="M670.65,682.39h5.72v2.21a10.83,10.83,0,0,1,2.79-2.26,6.32,6.32,0,0,1,3-.64,9.24,9.24,0,0,1,4.72,1.47l-2.62,5.23a5.49,5.49,0,0,0-3.17-1.16c-3.12,0-4.67,2.35-4.67,7v12.83h-5.72Z"/><path class="cls-5" d="M712.27,696.1H694.55a7.49,7.49,0,0,0,2,4.85,6,6,0,0,0,4.49,1.77,5.83,5.83,0,0,0,3.53-1,14.41,14.41,0,0,0,3.12-3.76l4.83,2.69a19.68,19.68,0,0,1-2.36,3.27,12.56,12.56,0,0,1-2.67,2.23,10.79,10.79,0,0,1-3.07,1.28,15,15,0,0,1-3.58.41,11.66,11.66,0,0,1-8.89-3.56,13.33,13.33,0,0,1-3.35-9.49,13.69,13.69,0,0,1,3.25-9.5,12.39,12.39,0,0,1,17.32-.1q3.15,3.45,3.14,9.57Zm-5.87-4.67q-1.18-4.57-5.76-4.57a5.91,5.91,0,0,0-1.95.31,5.56,5.56,0,0,0-1.67.92,5.86,5.86,0,0,0-1.28,1.43,6.33,6.33,0,0,0-.81,1.91Z"/><path class="cls-5" d="M740.28,720.57h-5.72V682.39h5.72v2.69a10.56,10.56,0,0,1,7.66-3.38,10.71,10.71,0,0,1,8.41,3.76,13.6,13.6,0,0,1,3.35,9.42,13.35,13.35,0,0,1-3.33,9.27,10.83,10.83,0,0,1-16.09.2Zm13.58-25.67a8.52,8.52,0,0,0-1.93-5.78,6.23,6.23,0,0,0-4.93-2.26,6.51,6.51,0,0,0-5.1,2.18,8.3,8.3,0,0,0-1.95,5.74,8.48,8.48,0,0,0,1.95,5.74,6.42,6.42,0,0,0,5.08,2.2,6.19,6.19,0,0,0,4.9-2.23A8.12,8.12,0,0,0,753.86,694.9Z"/><path class="cls-5" d="M784,682.39h5.74v24.73H784v-2.59a11,11,0,0,1-16.07-.41,13.77,13.77,0,0,1-3.33-9.44,13.35,13.35,0,0,1,3.33-9.27,10.73,10.73,0,0,1,8.33-3.71,10.5,10.5,0,0,1,7.74,3.56Zm-13.56,12.29a8.57,8.57,0,0,0,1.91,5.78,6.21,6.21,0,0,0,4.92,2.26,6.53,6.53,0,0,0,5.13-2.18,9.39,9.39,0,0,0,0-11.48,6.45,6.45,0,0,0-5.08-2.2,6.3,6.3,0,0,0-4.92,2.23A8.27,8.27,0,0,0,770.41,694.68Zm2-21.71a5.22,5.22,0,0,1,1.62-3.84,5.52,5.52,0,0,1,7.8,7.82,5.23,5.23,0,0,1-3.89,1.63A5.32,5.32,0,0,1,774,677,5.44,5.44,0,0,1,772.37,673Zm3,0a2.45,2.45,0,0,0,.72,1.81,2.42,2.42,0,0,0,1.79.73,2.49,2.49,0,0,0,2.52-2.52,2.48,2.48,0,0,0-2.52-2.51,2.54,2.54,0,0,0-1,.2,2.78,2.78,0,0,0-.8.55,2.6,2.6,0,0,0-.53.8A2.36,2.36,0,0,0,775.39,673Z"/><path class="cls-5" d="M831.2,664.23h5.74v42.89H831.2v-2.59a10.66,10.66,0,0,1-7.64,3.3,10.88,10.88,0,0,1-8.43-3.71,13.77,13.77,0,0,1-3.33-9.44,13.35,13.35,0,0,1,3.33-9.25,10.68,10.68,0,0,1,16.07-.17Zm-13.56,30.45a8.62,8.62,0,0,0,1.9,5.78,6.24,6.24,0,0,0,4.93,2.26,6.53,6.53,0,0,0,5.13-2.18,9.42,9.42,0,0,0,0-11.48,6.47,6.47,0,0,0-5.08-2.2,6.3,6.3,0,0,0-4.92,2.23A8.22,8.22,0,0,0,817.64,694.68Z"/><path class="cls-5" d="M866.67,696.1H849a7.49,7.49,0,0,0,2,4.85,6,6,0,0,0,4.49,1.77,5.83,5.83,0,0,0,3.53-1,14.22,14.22,0,0,0,3.12-3.76l4.83,2.69a19.68,19.68,0,0,1-2.36,3.27,12.56,12.56,0,0,1-2.67,2.23,10.79,10.79,0,0,1-3.07,1.28,15,15,0,0,1-3.58.41,11.66,11.66,0,0,1-8.89-3.56,13.33,13.33,0,0,1-3.35-9.49,13.69,13.69,0,0,1,3.25-9.5,12.39,12.39,0,0,1,17.32-.1q3.15,3.45,3.15,9.57Zm-5.87-4.67q-1.18-4.57-5.76-4.57a6,6,0,0,0-1.95.31,5.56,5.56,0,0,0-1.67.92,5.86,5.86,0,0,0-1.28,1.43,6.59,6.59,0,0,0-.81,1.91Z"/><path class="cls-5" d="M872.92,682.39h5.73v2.28a9.37,9.37,0,0,1,6.76-3,8.54,8.54,0,0,1,6.73,2.72c1.38,1.54,2.08,4.05,2.08,7.54v15.16h-5.74V693.3c0-2.43-.34-4.12-1-5s-1.86-1.42-3.6-1.42a4.42,4.42,0,0,0-4,1.88c-.78,1.24-1.17,3.39-1.17,6.47v11.94h-5.73Z"/><path class="cls-5" d="M931.85,686.6l-4.73,2.52c-.74-1.53-1.66-2.29-2.76-2.29a1.89,1.89,0,0,0-1.35.52,1.75,1.75,0,0,0-.56,1.33q0,1.43,3.3,2.82,4.54,2,6.12,3.61a6.17,6.17,0,0,1,1.58,4.44,7.77,7.77,0,0,1-2.64,6,9,9,0,0,1-6.2,2.29q-6.23,0-8.81-6.07l4.88-2.26a10.43,10.43,0,0,0,1.54,2.26,3.57,3.57,0,0,0,2.49,1c1.93,0,2.9-.87,2.9-2.64,0-1-.75-2-2.24-2.84-.57-.29-1.15-.57-1.72-.84l-1.76-.84a10.83,10.83,0,0,1-3.5-2.43,6,6,0,0,1-1.29-4,7,7,0,0,1,2.2-5.33,7.75,7.75,0,0,1,5.49-2.11C928,681.7,930.31,683.34,931.85,686.6Z"/><path class="cls-5" d="M937.71,672.1a3.72,3.72,0,0,1,3.71-3.68,3.63,3.63,0,0,1,2.64,1.09,3.52,3.52,0,0,1,1.09,2.62,3.59,3.59,0,0,1-1.09,2.64,3.5,3.5,0,0,1-2.61,1.09,3.6,3.6,0,0,1-2.65-1.09A3.67,3.67,0,0,1,937.71,672.1Zm6.58,10.29v24.73h-5.71V682.39Z"/><path class="cls-5" d="M957.24,664.23v26.15l8-8H973l-10.75,10.38,11.53,14.35h-7.41l-8.18-10.44-.91.92v9.52h-5.71V664.23Z"/><path class="cls-5" d="M977.42,682.39h5.72v2.21a10.83,10.83,0,0,1,2.79-2.26,6.32,6.32,0,0,1,3-.64,9.24,9.24,0,0,1,4.72,1.47L991,688.4a5.49,5.49,0,0,0-3.17-1.16c-3.12,0-4.67,2.35-4.67,7v12.83h-5.72Z"/><path class="cls-5" d="M1019,696.1h-17.72a7.49,7.49,0,0,0,2,4.85,6,6,0,0,0,4.49,1.77,5.83,5.83,0,0,0,3.53-1,14.41,14.41,0,0,0,3.12-3.76l4.83,2.69a19.68,19.68,0,0,1-2.36,3.27,12.56,12.56,0,0,1-2.67,2.23,10.79,10.79,0,0,1-3.07,1.28,15,15,0,0,1-3.58.41,11.66,11.66,0,0,1-8.89-3.56,13.33,13.33,0,0,1-3.35-9.49,13.69,13.69,0,0,1,3.25-9.5,12.39,12.39,0,0,1,17.32-.1q3.14,3.45,3.14,9.57Zm-5.87-4.67q-1.18-4.57-5.76-4.57a5.91,5.91,0,0,0-1.95.31,5.56,5.56,0,0,0-1.67.92,5.86,5.86,0,0,0-1.28,1.43,6.33,6.33,0,0,0-.81,1.91Z"/><path class="cls-5" d="M1055.7,686.6l-4.72,2.52c-.74-1.53-1.67-2.29-2.77-2.29a1.88,1.88,0,0,0-1.34.52,1.75,1.75,0,0,0-.56,1.33q0,1.43,3.3,2.82,4.55,2,6.12,3.61a6.16,6.16,0,0,1,1.57,4.44,7.77,7.77,0,0,1-2.64,6,9,9,0,0,1-6.19,2.29q-6.23,0-8.81-6.07l4.87-2.26a10.36,10.36,0,0,0,1.55,2.26,3.53,3.53,0,0,0,2.49,1c1.93,0,2.89-.87,2.89-2.64,0-1-.74-2-2.23-2.84-.58-.29-1.15-.57-1.73-.84l-1.75-.84a10.61,10.61,0,0,1-3.5-2.43,6,6,0,0,1-1.3-4,7.05,7.05,0,0,1,2.21-5.33,7.74,7.74,0,0,1,5.48-2.11C1051.81,681.7,1054.16,683.34,1055.7,686.6Z"/><path class="cls-5" d="M1061.57,672.1a3.55,3.55,0,0,1,1.09-2.59,3.72,3.72,0,0,1,5.26,0,3.56,3.56,0,0,1,1.09,2.62,3.63,3.63,0,0,1-1.09,2.64,3.52,3.52,0,0,1-2.62,1.09,3.72,3.72,0,0,1-3.73-3.76Zm6.57,10.29v24.73h-5.71V682.39Z"/><path class="cls-5" d="M1093.61,664.23h5.74v42.89h-5.74v-2.59a10.66,10.66,0,0,1-7.64,3.3,10.88,10.88,0,0,1-8.43-3.71,13.77,13.77,0,0,1-3.33-9.44,13.35,13.35,0,0,1,3.33-9.25,10.64,10.64,0,0,1,8.3-3.73,10.53,10.53,0,0,1,7.77,3.56Zm-13.56,30.45a8.57,8.57,0,0,0,1.91,5.78,6.21,6.21,0,0,0,4.92,2.26,6.53,6.53,0,0,0,5.13-2.18,9.38,9.38,0,0,0,0-11.48,6.45,6.45,0,0,0-5.08-2.2,6.3,6.3,0,0,0-4.92,2.23A8.22,8.22,0,0,0,1080.05,694.68Z"/><path class="cls-5" d="M1129.08,696.1h-17.72a7.49,7.49,0,0,0,2,4.85,6.06,6.06,0,0,0,4.49,1.77,5.81,5.81,0,0,0,3.53-1,14.41,14.41,0,0,0,3.13-3.76l4.82,2.69a19.13,19.13,0,0,1-2.36,3.27,12.56,12.56,0,0,1-2.67,2.23,10.79,10.79,0,0,1-3.07,1.28,15,15,0,0,1-3.58.41,11.66,11.66,0,0,1-8.89-3.56,13.33,13.33,0,0,1-3.35-9.49,13.74,13.74,0,0,1,3.25-9.5,12.39,12.39,0,0,1,17.32-.1q3.15,3.45,3.15,9.57Zm-5.86-4.67q-1.2-4.57-5.77-4.57a6,6,0,0,0-2,.31,5.56,5.56,0,0,0-1.67.92,6.07,6.07,0,0,0-1.28,1.43,6.87,6.87,0,0,0-.81,1.91Z"/><path class="cls-5" d="M1173.9,696.1h-17.73a7.59,7.59,0,0,0,2,4.85,6.06,6.06,0,0,0,4.5,1.77,5.83,5.83,0,0,0,3.53-1,14.61,14.61,0,0,0,3.12-3.76l4.82,2.69a19.13,19.13,0,0,1-2.36,3.27,12.51,12.51,0,0,1-2.66,2.23,10.79,10.79,0,0,1-3.07,1.28,15.09,15.09,0,0,1-3.58.41,11.63,11.63,0,0,1-8.89-3.56,13.29,13.29,0,0,1-3.35-9.49,13.69,13.69,0,0,1,3.25-9.5,12.38,12.38,0,0,1,17.31-.1q3.15,3.45,3.15,9.57Zm-5.87-4.67c-.79-3-2.72-4.57-5.76-4.57a6,6,0,0,0-2,.31,5.51,5.51,0,0,0-1.66.92,5.66,5.66,0,0,0-1.28,1.43,6.6,6.6,0,0,0-.82,1.91Z"/><path class="cls-5" d="M1180.14,682.39h5.72v2.21a10.83,10.83,0,0,1,2.79-2.26,6.31,6.31,0,0,1,2.94-.64,9.28,9.28,0,0,1,4.73,1.47l-2.62,5.23a5.49,5.49,0,0,0-3.17-1.16c-3.12,0-4.67,2.35-4.67,7v12.83h-5.72Z"/><path class="cls-5" d="M1233.87,664.23h5.74v42.89h-5.74v-2.59a10.66,10.66,0,0,1-7.64,3.3,10.88,10.88,0,0,1-8.43-3.71,13.77,13.77,0,0,1-3.33-9.44,13.35,13.35,0,0,1,3.33-9.25,10.68,10.68,0,0,1,16.07-.17Zm-13.56,30.45a8.62,8.62,0,0,0,1.9,5.78,6.24,6.24,0,0,0,4.93,2.26,6.53,6.53,0,0,0,5.13-2.18,9.42,9.42,0,0,0,0-11.48,6.47,6.47,0,0,0-5.08-2.2,6.3,6.3,0,0,0-4.92,2.23A8.22,8.22,0,0,0,1220.31,694.68Z"/><path class="cls-5" d="M1269.34,696.1h-17.72a7.49,7.49,0,0,0,2,4.85,6,6,0,0,0,4.49,1.77,5.83,5.83,0,0,0,3.53-1,14.22,14.22,0,0,0,3.12-3.76l4.83,2.69a19.68,19.68,0,0,1-2.36,3.27,12.56,12.56,0,0,1-2.67,2.23,10.79,10.79,0,0,1-3.07,1.28,15,15,0,0,1-3.58.41,11.66,11.66,0,0,1-8.89-3.56,13.33,13.33,0,0,1-3.35-9.49,13.69,13.69,0,0,1,3.25-9.5,12.39,12.39,0,0,1,17.32-.1q3.15,3.45,3.15,9.57Zm-5.87-4.67q-1.18-4.57-5.76-4.57a6,6,0,0,0-2,.31,5.56,5.56,0,0,0-1.67.92,5.86,5.86,0,0,0-1.28,1.43,6.59,6.59,0,0,0-.81,1.91Z"/><path class="cls-5" d="M1281.93,687.72v19.4h-5.71v-19.4h-2.44v-5.33h2.44v-9.07h5.71v9.07h4.45v5.33Z"/><path class="cls-5" d="M1328.83,696.1h-17.72a7.49,7.49,0,0,0,2,4.85,6,6,0,0,0,4.49,1.77,5.83,5.83,0,0,0,3.53-1,14.22,14.22,0,0,0,3.12-3.76l4.83,2.69a19.68,19.68,0,0,1-2.36,3.27,12.56,12.56,0,0,1-2.67,2.23,10.79,10.79,0,0,1-3.07,1.28,15,15,0,0,1-3.58.41,11.66,11.66,0,0,1-8.89-3.56,13.33,13.33,0,0,1-3.35-9.49,13.69,13.69,0,0,1,3.25-9.5,12.39,12.39,0,0,1,17.32-.1q3.15,3.45,3.15,9.57Zm-5.87-4.67q-1.18-4.57-5.76-4.57a6,6,0,0,0-2,.31,5.56,5.56,0,0,0-1.67.92,5.86,5.86,0,0,0-1.28,1.43,6.59,6.59,0,0,0-.81,1.91Z"/><path class="cls-5" d="M1335.08,682.39h5.73v2.28a9.37,9.37,0,0,1,6.76-3,8.54,8.54,0,0,1,6.73,2.72c1.38,1.54,2.08,4.05,2.08,7.54v15.16h-5.74V693.3c0-2.43-.34-4.12-1-5s-1.86-1.42-3.6-1.42a4.42,4.42,0,0,0-4,1.88c-.78,1.24-1.17,3.39-1.17,6.47v11.94h-5.73Z"/><path class="cls-5" d="M1403.55,706.53c0,1.17,0,2.2-.11,3.09a21.29,21.29,0,0,1-.32,2.35,10.46,10.46,0,0,1-2.38,4.8,11.59,11.59,0,0,1-9.22,3.85,12.28,12.28,0,0,1-8.15-2.66,10.91,10.91,0,0,1-3.81-7.59h5.74a6.47,6.47,0,0,0,1.09,2.82,6.14,6.14,0,0,0,5.18,2.31q6.27,0,6.27-7.7v-3.45a10.66,10.66,0,0,1-7.84,3.48,10.54,10.54,0,0,1-8.28-3.66,13.53,13.53,0,0,1-3.25-9.27,14.31,14.31,0,0,1,3-9.19,10.52,10.52,0,0,1,8.58-4,10,10,0,0,1,7.77,3.48v-2.79h5.71Zm-5.48-11.73a8.31,8.31,0,0,0-1.93-5.76,6.38,6.38,0,0,0-5-2.21,6.14,6.14,0,0,0-5.13,2.41,8.78,8.78,0,0,0-1.7,5.59,8.67,8.67,0,0,0,1.7,5.53,6.15,6.15,0,0,0,5.13,2.36,6.28,6.28,0,0,0,5.18-2.38A8.51,8.51,0,0,0,1398.07,694.8Z"/><path class="cls-5" d="M1409.6,694.57a12.29,12.29,0,0,1,3.83-9.11,13.53,13.53,0,0,1,18.74,0,13.24,13.24,0,0,1,0,18.62,13.11,13.11,0,0,1-9.47,3.73,12.55,12.55,0,0,1-9.31-3.81A12.78,12.78,0,0,1,1409.6,694.57Zm5.84.11a8.33,8.33,0,0,0,2,5.86,7.71,7.71,0,0,0,10.71,0,9.27,9.27,0,0,0,0-11.53,7.61,7.61,0,0,0-10.66,0A7.94,7.94,0,0,0,1415.44,694.68Z"/><path class="cls-5" d="M1460.25,664.23H1466v42.89h-5.74v-2.59a10.66,10.66,0,0,1-7.64,3.3,10.88,10.88,0,0,1-8.43-3.71,13.77,13.77,0,0,1-3.33-9.44,13.35,13.35,0,0,1,3.33-9.25,10.64,10.64,0,0,1,8.3-3.73,10.53,10.53,0,0,1,7.77,3.56Zm-13.56,30.45a8.57,8.57,0,0,0,1.91,5.78,6.21,6.21,0,0,0,4.92,2.26,6.53,6.53,0,0,0,5.13-2.18,9.38,9.38,0,0,0,0-11.48,6.45,6.45,0,0,0-5.08-2.2,6.3,6.3,0,0,0-4.92,2.23A8.22,8.22,0,0,0,1446.69,694.68Z"/><path class="cls-5" d="M446.35,734.5a3.74,3.74,0,0,1,3.71-3.68,3.63,3.63,0,0,1,2.64,1.09,3.52,3.52,0,0,1,1.09,2.62,3.59,3.59,0,0,1-1.09,2.64,3.5,3.5,0,0,1-2.61,1.09,3.56,3.56,0,0,1-2.64-1.09A3.64,3.64,0,0,1,446.35,734.5Zm6.58,10.29v24.73h-5.71V744.79Z"/><path class="cls-5" d="M478.4,726.63h5.73v42.89H478.4v-2.59a10.66,10.66,0,0,1-7.65,3.3,10.91,10.91,0,0,1-8.43-3.71,13.81,13.81,0,0,1-3.32-9.44,13.39,13.39,0,0,1,3.32-9.25,10.69,10.69,0,0,1,16.08-.17Zm-13.56,30.45a8.61,8.61,0,0,0,1.9,5.79,6.27,6.27,0,0,0,4.93,2.25,6.56,6.56,0,0,0,5.13-2.18,9.42,9.42,0,0,0,0-11.48,6.48,6.48,0,0,0-5.08-2.2,6.31,6.31,0,0,0-4.93,2.23A8.26,8.26,0,0,0,464.84,757.08Z"/><path class="cls-5" d="M513.87,758.5H496.14a7.59,7.59,0,0,0,2,4.85,6.06,6.06,0,0,0,4.5,1.77,5.83,5.83,0,0,0,3.53-1,14.61,14.61,0,0,0,3.12-3.76L514.1,763a19.71,19.71,0,0,1-2.37,3.27,12.27,12.27,0,0,1-2.66,2.23,10.79,10.79,0,0,1-3.07,1.28,15,15,0,0,1-3.58.41,11.64,11.64,0,0,1-8.89-3.56,13.29,13.29,0,0,1-3.35-9.49,13.69,13.69,0,0,1,3.25-9.5,12.38,12.38,0,0,1,17.31-.1q3.15,3.45,3.15,9.57ZM508,753.83q-1.19-4.58-5.76-4.57a6,6,0,0,0-2,.31,5.74,5.74,0,0,0-1.66.92,5.49,5.49,0,0,0-1.28,1.43,6.44,6.44,0,0,0-.81,1.91Z"/><path class="cls-5" d="M554.39,744.79h5.74v24.73h-5.74v-2.59a11,11,0,0,1-16.07-.41,13.77,13.77,0,0,1-3.33-9.44,13.35,13.35,0,0,1,3.33-9.27,10.73,10.73,0,0,1,8.33-3.71,10.52,10.52,0,0,1,7.74,3.56Zm-13.56,12.29a8.62,8.62,0,0,0,1.91,5.79,6.23,6.23,0,0,0,4.92,2.25,6.53,6.53,0,0,0,5.13-2.18,9.39,9.39,0,0,0,0-11.48,6.47,6.47,0,0,0-5.08-2.2,6.3,6.3,0,0,0-4.92,2.23A8.22,8.22,0,0,0,540.83,757.08Z"/><path class="cls-5" d="M573.23,750.12v19.4h-5.71v-19.4h-2.44v-5.33h2.44v-9.07h5.71v9.07h4.44v5.33Z"/><path class="cls-5" d="M603.5,750.12v19.4h-5.72v-19.4h-2.43v-5.33h2.43v-9.07h5.72v9.07h4.44v5.33Z"/><path class="cls-5" d="M630.51,744.79h5.74v24.73h-5.74v-2.59a11,11,0,0,1-16.07-.41,13.77,13.77,0,0,1-3.33-9.44,13.35,13.35,0,0,1,3.33-9.27,10.73,10.73,0,0,1,8.33-3.71,10.5,10.5,0,0,1,7.74,3.56ZM617,757.08a8.62,8.62,0,0,0,1.91,5.79,6.23,6.23,0,0,0,4.92,2.25,6.53,6.53,0,0,0,5.13-2.18,9.39,9.39,0,0,0,0-11.48,6.45,6.45,0,0,0-5.08-2.2,6.3,6.3,0,0,0-4.92,2.23A8.22,8.22,0,0,0,617,757.08Z"/><path class="cls-5" d="M667.38,768.93q0,1.76-.12,3.09a21.47,21.47,0,0,1-.31,2.35,10.48,10.48,0,0,1-2.39,4.8,11.58,11.58,0,0,1-9.22,3.86,12.3,12.3,0,0,1-8.15-2.67,10.91,10.91,0,0,1-3.81-7.59h5.74a6.6,6.6,0,0,0,1.09,2.82,6.15,6.15,0,0,0,5.18,2.31q6.29,0,6.28-7.7v-3.45a10.68,10.68,0,0,1-7.85,3.48,10.54,10.54,0,0,1-8.28-3.66,13.58,13.58,0,0,1-3.25-9.27,14.31,14.31,0,0,1,3-9.19,10.52,10.52,0,0,1,8.59-4,10,10,0,0,1,7.77,3.48v-2.79h5.71Zm-5.49-11.73a8.31,8.31,0,0,0-1.93-5.76,6.38,6.38,0,0,0-5-2.21,6.19,6.19,0,0,0-5.13,2.41,8.78,8.78,0,0,0-1.7,5.59,8.67,8.67,0,0,0,1.7,5.53,6.15,6.15,0,0,0,5.13,2.36,6.26,6.26,0,0,0,5.18-2.38A8.49,8.49,0,0,0,661.89,757.2Z"/><path class="cls-5" d="M697.11,758.5H679.39a7.49,7.49,0,0,0,2,4.85,6.06,6.06,0,0,0,4.49,1.77,5.81,5.81,0,0,0,3.53-1,14.41,14.41,0,0,0,3.13-3.76l4.82,2.69a19.68,19.68,0,0,1-2.36,3.27,12.56,12.56,0,0,1-2.67,2.23,10.79,10.79,0,0,1-3.07,1.28,15,15,0,0,1-3.58.41,11.66,11.66,0,0,1-8.89-3.56,13.33,13.33,0,0,1-3.35-9.49,13.69,13.69,0,0,1,3.25-9.5,12.39,12.39,0,0,1,17.32-.1q3.15,3.45,3.15,9.57Zm-5.86-4.67q-1.2-4.58-5.77-4.57a6,6,0,0,0-2,.31,5.79,5.79,0,0,0-1.67.92,5.88,5.88,0,0,0-1.28,1.43,7,7,0,0,0-.81,1.91Z"/><path class="cls-5" d="M725.32,750.12v19.4h-5.74v-19.4h-2v-5.33h2v-9.55q0-4.66,1.63-6.6a7.94,7.94,0,0,1,6.5-2.69,11,11,0,0,1,3.83.89v5.84l-.58-.31a7.28,7.28,0,0,0-3.05-.94,2.08,2.08,0,0,0-2.06,1.09,10.68,10.68,0,0,0-.53,4.12v8.15h6.22v5.33Z"/><path class="cls-5" d="M753.86,744.79h5.74v24.73h-5.74v-2.59a11,11,0,0,1-16.07-.41,13.77,13.77,0,0,1-3.33-9.44,13.35,13.35,0,0,1,3.33-9.27,10.71,10.71,0,0,1,8.33-3.71,10.53,10.53,0,0,1,7.74,3.56ZM740.3,757.08a8.62,8.62,0,0,0,1.91,5.79,6.23,6.23,0,0,0,4.92,2.25,6.53,6.53,0,0,0,5.13-2.18,9.42,9.42,0,0,0,0-11.48,6.47,6.47,0,0,0-5.08-2.2,6.3,6.3,0,0,0-4.92,2.23A8.22,8.22,0,0,0,740.3,757.08Z"/><path class="cls-5" d="M772.7,750.12v19.4H767v-19.4h-2.44v-5.33H767v-9.07h5.71v9.07h4.44v5.33Z"/><path class="cls-5" d="M796.21,734.5a3.72,3.72,0,0,1,3.71-3.68,3.63,3.63,0,0,1,2.64,1.09,3.52,3.52,0,0,1,1.09,2.62,3.59,3.59,0,0,1-1.09,2.64,3.5,3.5,0,0,1-2.62,1.09,3.59,3.59,0,0,1-2.64-1.09A3.67,3.67,0,0,1,796.21,734.5Zm6.58,10.29v24.73h-5.72V744.79Z"/><path class="cls-5" d="M848.59,758.5H830.87a7.49,7.49,0,0,0,2,4.85,6.06,6.06,0,0,0,4.49,1.77,5.81,5.81,0,0,0,3.53-1,14.41,14.41,0,0,0,3.13-3.76l4.82,2.69a19.13,19.13,0,0,1-2.36,3.27,12.56,12.56,0,0,1-2.67,2.23,10.79,10.79,0,0,1-3.07,1.28,15,15,0,0,1-3.58.41,11.66,11.66,0,0,1-8.89-3.56,13.33,13.33,0,0,1-3.35-9.49,13.74,13.74,0,0,1,3.25-9.5,12.39,12.39,0,0,1,17.32-.1q3.15,3.45,3.15,9.57Zm-5.86-4.67q-1.2-4.58-5.77-4.57a6,6,0,0,0-2,.31,5.79,5.79,0,0,0-1.67.92,5.88,5.88,0,0,0-1.28,1.43,7,7,0,0,0-.81,1.91Z"/><path class="cls-5" d="M854.84,744.79h5.74v2.28a9.35,9.35,0,0,1,6.75-3,8.54,8.54,0,0,1,6.73,2.72q2.09,2.31,2.08,7.54v15.16H870.4V755.71q0-3.66-1-5.06c-.66-.94-1.87-1.42-3.61-1.42a4.43,4.43,0,0,0-4,1.88c-.77,1.24-1.16,3.39-1.16,6.47v11.94h-5.74Z"/><path class="cls-5" d="M902.47,744.79l6.4,13.89,6.37-13.89h6.43l-12.85,26.43-12.75-26.43Z"/><path class="cls-5" d="M923.37,757a12.31,12.31,0,0,1,3.83-9.11,13.53,13.53,0,0,1,18.74,0,13.24,13.24,0,0,1,0,18.62,13.13,13.13,0,0,1-9.47,3.73,12.59,12.59,0,0,1-9.32-3.81A12.81,12.81,0,0,1,923.37,757Zm5.84.11a8.33,8.33,0,0,0,2,5.86,7.71,7.71,0,0,0,10.71,0,9.27,9.27,0,0,0,0-11.53,7,7,0,0,0-5.36-2.18,6.88,6.88,0,0,0-5.3,2.18A7.92,7.92,0,0,0,929.21,757.08Z"/><path class="cls-5" d="M961.5,726.63v26.16l8-8h7.67l-10.74,10.38L978,769.52h-7.42l-8.17-10.44-.92.92v9.52h-5.71V726.63Z"/><path class="cls-5" d="M996.06,749l-4.72,2.52c-.75-1.53-1.67-2.29-2.77-2.29a1.92,1.92,0,0,0-1.35.52,1.74,1.74,0,0,0-.55,1.33q0,1.42,3.3,2.82,4.54,2,6.12,3.61a6.16,6.16,0,0,1,1.57,4.44,7.77,7.77,0,0,1-2.64,6,9,9,0,0,1-6.2,2.29q-6.21,0-8.81-6.07l4.88-2.26a10.36,10.36,0,0,0,1.55,2.26,3.53,3.53,0,0,0,2.49,1c1.93,0,2.89-.87,2.89-2.64,0-1-.74-2-2.23-2.84l-1.73-.84-1.75-.84a10.78,10.78,0,0,1-3.51-2.43,6,6,0,0,1-1.29-4,7,7,0,0,1,2.21-5.33A7.71,7.71,0,0,1,989,744.1C992.17,744.1,994.52,745.74,996.06,749Z"/><path class="cls-5" d="M1025.31,758.5h-17.72a7.49,7.49,0,0,0,2,4.85,6,6,0,0,0,4.49,1.77,5.83,5.83,0,0,0,3.53-1,14.22,14.22,0,0,0,3.12-3.76l4.83,2.69a19.68,19.68,0,0,1-2.36,3.27,12.56,12.56,0,0,1-2.67,2.23,10.79,10.79,0,0,1-3.07,1.28,15,15,0,0,1-3.58.41,11.66,11.66,0,0,1-8.89-3.56,13.33,13.33,0,0,1-3.35-9.49,13.69,13.69,0,0,1,3.25-9.5,12.39,12.39,0,0,1,17.32-.1q3.15,3.45,3.15,9.57Zm-5.86-4.67q-1.2-4.58-5.77-4.57a6,6,0,0,0-1.95.31,5.79,5.79,0,0,0-1.67.92,5.68,5.68,0,0,0-1.28,1.43,7,7,0,0,0-.81,1.91Z"/><path class="cls-5" d="M1031.56,744.79h5.73v2.28a9.37,9.37,0,0,1,6.76-3,8.54,8.54,0,0,1,6.73,2.72q2.09,2.31,2.08,7.54v15.16h-5.74V755.71q0-3.66-1-5.06c-.66-.94-1.87-1.42-3.61-1.42a4.42,4.42,0,0,0-4,1.88c-.78,1.24-1.17,3.39-1.17,6.47v11.94h-5.73Z"/><path class="cls-5" d="M1090.49,749l-4.72,2.52c-.75-1.53-1.67-2.29-2.77-2.29a1.89,1.89,0,0,0-1.35.52,1.75,1.75,0,0,0-.56,1.33q0,1.42,3.3,2.82,4.54,2,6.12,3.61a6.17,6.17,0,0,1,1.58,4.44,7.77,7.77,0,0,1-2.64,6,9,9,0,0,1-6.2,2.29q-6.23,0-8.81-6.07l4.88-2.26a10,10,0,0,0,1.55,2.26,3.53,3.53,0,0,0,2.48,1c1.93,0,2.9-.87,2.9-2.64,0-1-.75-2-2.24-2.84-.57-.29-1.15-.57-1.72-.84l-1.75-.84a10.78,10.78,0,0,1-3.51-2.43,6,6,0,0,1-1.29-4,7,7,0,0,1,2.21-5.33,7.71,7.71,0,0,1,5.48-2.11C1086.59,744.1,1089,745.74,1090.49,749Z"/><path class="cls-5" d="M1096.05,757a12.31,12.31,0,0,1,3.83-9.11,13.53,13.53,0,0,1,18.74,0,13.26,13.26,0,0,1,0,18.62,13.15,13.15,0,0,1-9.48,3.73,12.55,12.55,0,0,1-9.31-3.81A12.78,12.78,0,0,1,1096.05,757Zm5.84.11a8.33,8.33,0,0,0,2,5.86,7.71,7.71,0,0,0,10.71,0,9.27,9.27,0,0,0,0-11.53,7.61,7.61,0,0,0-10.66,0A8,8,0,0,0,1101.89,757.08Z"/><path class="cls-5" d="M1128.47,744.79h5.72v2.28a11.91,11.91,0,0,1,2.81-2.33,6.76,6.76,0,0,1,3.13-.64,7.57,7.57,0,0,1,6.62,3.66,8.59,8.59,0,0,1,7.29-3.66q8.36,0,8.35,10.13v15.29h-5.73V755.78a10.56,10.56,0,0,0-.87-5,3.13,3.13,0,0,0-2.92-1.49,3.73,3.73,0,0,0-3.44,1.77c-.72,1.19-1.08,3.09-1.08,5.72v12.77h-5.73V755.86q0-6.6-3.81-6.6a3.83,3.83,0,0,0-3.52,1.8c-.74,1.2-1.1,3.1-1.1,5.69v12.77h-5.72Z"/><path class="cls-5" d="M1191.37,726.63v26.16l8-8h7.67l-10.74,10.38,11.53,14.35h-7.41l-8.18-10.44-.91.92v9.52h-5.72V726.63Z"/><path class="cls-5" d="M1228.89,744.79h5.74v24.73h-5.74v-2.59a11,11,0,0,1-16.07-.41,13.77,13.77,0,0,1-3.33-9.44,13.35,13.35,0,0,1,3.33-9.27,10.73,10.73,0,0,1,8.33-3.71,10.5,10.5,0,0,1,7.74,3.56Zm-13.56,12.29a8.62,8.62,0,0,0,1.91,5.79,6.23,6.23,0,0,0,4.92,2.25,6.53,6.53,0,0,0,5.13-2.18,9.38,9.38,0,0,0,0-11.48,6.45,6.45,0,0,0-5.08-2.2,6.3,6.3,0,0,0-4.92,2.23A8.27,8.27,0,0,0,1215.33,757.08Z"/><path class="cls-5" d="M1241.84,744.79h5.74v2.28a9.37,9.37,0,0,1,6.75-3,8.54,8.54,0,0,1,6.73,2.72q2.09,2.31,2.08,7.54v15.16h-5.73V755.71q0-3.66-1-5.06c-.66-.94-1.86-1.42-3.6-1.42a4.41,4.41,0,0,0-4,1.88c-.78,1.24-1.17,3.39-1.17,6.47v11.94h-5.74Z"/><path class="cls-5" d="M1310.32,768.93c0,1.17,0,2.2-.11,3.09s-.19,1.67-.32,2.35a10.48,10.48,0,0,1-2.39,4.8,11.56,11.56,0,0,1-9.21,3.86,12.31,12.31,0,0,1-8.16-2.67,10.9,10.9,0,0,1-3.8-7.59h5.73a6.47,6.47,0,0,0,1.1,2.82,6.13,6.13,0,0,0,5.18,2.31q6.27,0,6.27-7.7v-3.45a10.68,10.68,0,0,1-7.85,3.48,10.54,10.54,0,0,1-8.28-3.66,13.58,13.58,0,0,1-3.25-9.27,14.26,14.26,0,0,1,3-9.19,10.49,10.49,0,0,1,8.58-4,10,10,0,0,1,7.77,3.48v-2.79h5.71Zm-5.48-11.73a8.36,8.36,0,0,0-1.93-5.76,6.4,6.4,0,0,0-5-2.21,6.16,6.16,0,0,0-5.12,2.41,8.73,8.73,0,0,0-1.71,5.59,8.61,8.61,0,0,0,1.71,5.53,6.12,6.12,0,0,0,5.12,2.36,6.26,6.26,0,0,0,5.18-2.38A8.49,8.49,0,0,0,1304.84,757.2Z"/><path class="cls-5" d="M1335.76,744.79h5.74v24.73h-5.74v-2.59a11,11,0,0,1-16.07-.41,13.77,13.77,0,0,1-3.33-9.44,13.35,13.35,0,0,1,3.33-9.27,10.73,10.73,0,0,1,8.33-3.71,10.5,10.5,0,0,1,7.74,3.56Zm-13.56,12.29a8.62,8.62,0,0,0,1.91,5.79,6.23,6.23,0,0,0,4.92,2.25,6.53,6.53,0,0,0,5.13-2.18,9.38,9.38,0,0,0,0-11.48,6.45,6.45,0,0,0-5.08-2.2,6.3,6.3,0,0,0-4.92,2.23A8.22,8.22,0,0,0,1322.2,757.08Zm2-21.71a5.22,5.22,0,0,1,1.62-3.84,5.52,5.52,0,0,1,7.8,7.82,5.23,5.23,0,0,1-3.89,1.63,5.32,5.32,0,0,1-3.93-1.63A5.44,5.44,0,0,1,1324.16,735.37Zm3,0a2.45,2.45,0,0,0,.72,1.81,2.53,2.53,0,1,0,1.79-4.3,2.54,2.54,0,0,0-1,.2,2.78,2.78,0,0,0-.8.55,2.43,2.43,0,0,0-.53.8A2.36,2.36,0,0,0,1327.18,735.42Z"/><path class="cls-5" d="M1383,726.63h5.74v42.89H1383v-2.59a10.66,10.66,0,0,1-7.64,3.3,10.88,10.88,0,0,1-8.43-3.71,13.77,13.77,0,0,1-3.33-9.44,13.35,13.35,0,0,1,3.33-9.25,10.68,10.68,0,0,1,16.07-.17Zm-13.56,30.45a8.61,8.61,0,0,0,1.9,5.79,6.27,6.27,0,0,0,4.93,2.25,6.55,6.55,0,0,0,5.13-2.18,9.42,9.42,0,0,0,0-11.48,6.48,6.48,0,0,0-5.08-2.2,6.34,6.34,0,0,0-4.93,2.23A8.26,8.26,0,0,0,1369.43,757.08Z"/><path class="cls-5" d="M1403.73,764.92l-11.12-20.13h6.63L1406.8,759l7.06-14.22h6.45L1400.61,783h-6.53Z"/><path class="cls-5" d="M1429.91,726.63v21a10.56,10.56,0,0,1,7.77-3.56,10.73,10.73,0,0,1,8.33,3.73,13.34,13.34,0,0,1,3.32,9.25,13.58,13.58,0,0,1-3.35,9.44,10.81,10.81,0,0,1-8.4,3.71,10.69,10.69,0,0,1-7.67-3.3v2.59h-5.71V726.63Zm13.58,30.7a8.53,8.53,0,0,0-1.93-5.79,6.17,6.17,0,0,0-4.9-2.28,6.56,6.56,0,0,0-5.12,2.2,8.2,8.2,0,0,0-2,5.69,8.32,8.32,0,0,0,1.93,5.77,6.42,6.42,0,0,0,5.08,2.2,6.28,6.28,0,0,0,4.92-2.2A8.13,8.13,0,0,0,1443.49,757.33Z"/><path class="cls-5" d="M1477.9,758.5h-17.72a7.49,7.49,0,0,0,2,4.85,6,6,0,0,0,4.49,1.77,5.83,5.83,0,0,0,3.53-1,14.61,14.61,0,0,0,3.12-3.76l4.83,2.69a20.28,20.28,0,0,1-2.36,3.27,12.56,12.56,0,0,1-2.67,2.23,10.79,10.79,0,0,1-3.07,1.28,15,15,0,0,1-3.58.41,11.64,11.64,0,0,1-8.89-3.56,13.33,13.33,0,0,1-3.35-9.49,13.69,13.69,0,0,1,3.25-9.5,12.39,12.39,0,0,1,17.32-.1q3.13,3.45,3.14,9.57Zm-5.87-4.67q-1.18-4.58-5.76-4.57a6,6,0,0,0-2,.31,5.87,5.87,0,0,0-1.66.92,5.49,5.49,0,0,0-1.28,1.43,6.44,6.44,0,0,0-.81,1.91Z"/><path class="cls-5" d="M1484.14,744.79h5.72V747a10.83,10.83,0,0,1,2.79-2.26,6.32,6.32,0,0,1,2.95-.64,9.24,9.24,0,0,1,4.72,1.47l-2.62,5.23a5.49,5.49,0,0,0-3.17-1.16q-4.66,0-4.67,7.06v12.82h-5.72Z"/><path class="cls-5" d="M1525.76,758.5H1508a7.49,7.49,0,0,0,2,4.85,6,6,0,0,0,4.49,1.77,5.83,5.83,0,0,0,3.53-1,14.22,14.22,0,0,0,3.12-3.76L1526,763a19.68,19.68,0,0,1-2.36,3.27,12.56,12.56,0,0,1-2.67,2.23,10.79,10.79,0,0,1-3.07,1.28,15,15,0,0,1-3.58.41,11.66,11.66,0,0,1-8.89-3.56,13.33,13.33,0,0,1-3.35-9.49,13.69,13.69,0,0,1,3.25-9.5,12.39,12.39,0,0,1,17.32-.1q3.15,3.45,3.15,9.57Zm-5.87-4.67q-1.19-4.58-5.76-4.57a6,6,0,0,0-2,.31,5.79,5.79,0,0,0-1.67.92,5.68,5.68,0,0,0-1.28,1.43,6.71,6.71,0,0,0-.81,1.91Z"/><path class="cls-5" d="M446.35,796.9a3.74,3.74,0,0,1,3.71-3.68,3.63,3.63,0,0,1,2.64,1.09,3.53,3.53,0,0,1,1.09,2.62,3.59,3.59,0,0,1-1.09,2.64,3.5,3.5,0,0,1-2.61,1.09,3.56,3.56,0,0,1-2.64-1.09A3.64,3.64,0,0,1,446.35,796.9Zm6.58,10.29v24.73h-5.71V807.19Z"/><path class="cls-5" d="M490.58,811.4l-4.72,2.52c-.74-1.53-1.67-2.29-2.77-2.29a1.88,1.88,0,0,0-1.34.52,1.75,1.75,0,0,0-.56,1.33q0,1.42,3.3,2.82,4.54,2,6.12,3.61a6.16,6.16,0,0,1,1.57,4.44,7.77,7.77,0,0,1-2.64,6,9,9,0,0,1-6.19,2.29q-6.23,0-8.81-6.07l4.87-2.26a10.73,10.73,0,0,0,1.55,2.26,3.56,3.56,0,0,0,2.49,1c1.93,0,2.89-.89,2.89-2.65,0-1-.74-2-2.23-2.84-.58-.29-1.15-.57-1.73-.84l-1.75-.83a10.76,10.76,0,0,1-3.5-2.44,6,6,0,0,1-1.3-4,7.05,7.05,0,0,1,2.21-5.33,7.75,7.75,0,0,1,5.49-2.11Q488.27,806.5,490.58,811.4Z"/><path class="cls-5" d="M515.54,807.19h5.74v24.73h-5.74v-2.59a11,11,0,0,1-16.07-.41,13.77,13.77,0,0,1-3.33-9.44,13.35,13.35,0,0,1,3.33-9.27,10.73,10.73,0,0,1,8.33-3.71,10.5,10.5,0,0,1,7.74,3.56ZM502,819.48a8.62,8.62,0,0,0,1.91,5.79,6.24,6.24,0,0,0,4.92,2.26,6.54,6.54,0,0,0,5.13-2.19,9.37,9.37,0,0,0,0-11.47,6.42,6.42,0,0,0-5.07-2.21,6.31,6.31,0,0,0-4.93,2.23A8.27,8.27,0,0,0,502,819.48Z"/><path class="cls-5" d="M552.41,831.33c0,1.17,0,2.2-.11,3.09s-.19,1.67-.32,2.35a10.48,10.48,0,0,1-2.39,4.8,11.56,11.56,0,0,1-9.21,3.86,12.31,12.31,0,0,1-8.16-2.67,10.86,10.86,0,0,1-3.8-7.59h5.73a6.47,6.47,0,0,0,1.1,2.82,6.13,6.13,0,0,0,5.18,2.31q6.27,0,6.27-7.7v-3.45a10.68,10.68,0,0,1-7.85,3.48,10.54,10.54,0,0,1-8.28-3.66,13.57,13.57,0,0,1-3.25-9.26,14.27,14.27,0,0,1,3-9.2,10.49,10.49,0,0,1,8.58-4A10,10,0,0,1,546.7,810v-2.79h5.71Zm-5.48-11.73a8.36,8.36,0,0,0-1.93-5.76,6.4,6.4,0,0,0-5-2.21,6.13,6.13,0,0,0-5.12,2.41,8.73,8.73,0,0,0-1.71,5.59,8.63,8.63,0,0,0,1.71,5.53,6.13,6.13,0,0,0,5.12,2.37,6.27,6.27,0,0,0,5.18-2.39A8.51,8.51,0,0,0,546.93,819.6Z"/><path class="cls-5" d="M582.14,820.9H564.42a7.49,7.49,0,0,0,2,4.85,6.07,6.07,0,0,0,4.49,1.78,5.81,5.81,0,0,0,3.53-1,14.41,14.41,0,0,0,3.13-3.76l4.82,2.69a19.13,19.13,0,0,1-2.36,3.27,12.56,12.56,0,0,1-2.67,2.23,10.67,10.67,0,0,1-3.07,1.28,15,15,0,0,1-3.58.41,11.66,11.66,0,0,1-8.89-3.56,13.33,13.33,0,0,1-3.35-9.49,13.74,13.74,0,0,1,3.25-9.5,11.24,11.24,0,0,1,8.69-3.58A11.1,11.1,0,0,1,579,810q3.15,3.45,3.15,9.57Zm-5.86-4.67q-1.2-4.58-5.77-4.57a6,6,0,0,0-2,.31,5.61,5.61,0,0,0-1.66.92,5.89,5.89,0,0,0-1.29,1.43,7,7,0,0,0-.81,1.91Z"/><path class="cls-5" d="M588.39,807.19h5.74v2.28a9.35,9.35,0,0,1,6.75-3,8.54,8.54,0,0,1,6.73,2.72q2.08,2.31,2.08,7.54v15.16H604V818.11q0-3.66-1-5.06c-.66-.95-1.86-1.42-3.61-1.42a4.43,4.43,0,0,0-4,1.88c-.77,1.24-1.16,3.39-1.16,6.47v11.94h-5.74Z"/><path class="cls-5" d="M620.43,824.58l5.08,2-7.24,14.5-3.86-1.6Z"/><path class="cls-5" d="M648.13,796.9a3.72,3.72,0,0,1,3.71-3.68,3.63,3.63,0,0,1,2.64,1.09,3.53,3.53,0,0,1,1.09,2.62,3.59,3.59,0,0,1-1.09,2.64,3.5,3.5,0,0,1-2.61,1.09,3.6,3.6,0,0,1-2.65-1.09A3.67,3.67,0,0,1,648.13,796.9Zm6.58,10.29v24.73H649V807.19Z"/><path class="cls-5" d="M676.32,811.4l-4.73,2.52c-.74-1.53-1.66-2.29-2.76-2.29a1.89,1.89,0,0,0-1.35.52,1.75,1.75,0,0,0-.56,1.33q0,1.42,3.3,2.82,4.54,2,6.12,3.61a6.17,6.17,0,0,1,1.58,4.44,7.77,7.77,0,0,1-2.64,6,9,9,0,0,1-6.2,2.29q-6.23,0-8.81-6.07l4.87-2.26a10.73,10.73,0,0,0,1.55,2.26,3.58,3.58,0,0,0,2.49,1c1.93,0,2.9-.89,2.9-2.65,0-1-.75-2-2.24-2.84-.57-.29-1.15-.57-1.72-.84l-1.76-.83a10.87,10.87,0,0,1-3.5-2.44,6,6,0,0,1-1.3-4,7.05,7.05,0,0,1,2.21-5.33,7.75,7.75,0,0,1,5.49-2.11C672.42,806.5,674.78,808.13,676.32,811.4Z"/><path class="cls-5" d="M721.66,820.82H703.84a7.91,7.91,0,0,0,2.08,4.88,6,6,0,0,0,4.47,1.83q3.92,0,6.48-5l4.92,2.75A16.44,16.44,0,0,1,720,828a10.69,10.69,0,0,1-2,2,13,13,0,0,1-7.9,2.66,12.42,12.42,0,0,1-9-4q-3.1,4-9.12,4a11.27,11.27,0,0,1-7.33-2.28,7.31,7.31,0,0,1-2.82-6,7.61,7.61,0,0,1,2.69-6.09,10.46,10.46,0,0,1,7.08-2.34,14.29,14.29,0,0,1,6.45,1.68c0-2.24-.46-3.79-1.39-4.67s-2.54-1.35-4.78-1.35a24.41,24.41,0,0,0-6.6.94v-5.31a45,45,0,0,1,7.16-.76q6,0,8.68,3.48a11.42,11.42,0,0,1,8.64-3.48,11.26,11.26,0,0,1,8.65,3.48,12.94,12.94,0,0,1,3.25,9.22Zm-34.25,3.48a2.85,2.85,0,0,0,1.42,2.41,6.47,6.47,0,0,0,3.61,1,6.77,6.77,0,0,0,3.78-1,3,3,0,0,0,1.53-2.52,2.73,2.73,0,0,0-1.58-2.28,7.13,7.13,0,0,0-3.78-1,6.09,6.09,0,0,0-3.53,1A2.86,2.86,0,0,0,687.41,824.3Zm28.26-8.1c-.69-3-2.55-4.54-5.56-4.54a5.63,5.63,0,0,0-5.89,4.54Z"/><path class="cls-5" d="M727.81,807.19h5.71v2.21a10.83,10.83,0,0,1,2.79-2.26,6.35,6.35,0,0,1,3-.64A9.22,9.22,0,0,1,744,808l-2.61,5.24a5.46,5.46,0,0,0-3.18-1.17q-4.66,0-4.67,7.06v12.82h-5.71Z"/><path class="cls-5" d="M763.3,789H769v20.21a9.86,9.86,0,0,1,6.73-2.74,8.7,8.7,0,0,1,6.7,2.72c1.42,1.57,2.13,4.09,2.13,7.54v15.16h-5.71V817.29a7,7,0,0,0-1-4.3,4.08,4.08,0,0,0-3.39-1.33c-2,0-3.41.61-4.22,1.85S769,816.91,769,820v12H763.3Z"/><path class="cls-5" d="M794.89,807.19l6.4,13.89,6.37-13.89h6.43l-12.85,26.43-12.75-26.43Z"/><path class="cls-5" d="M817.08,796.9a3.72,3.72,0,0,1,3.71-3.68,3.63,3.63,0,0,1,2.64,1.09,3.53,3.53,0,0,1,1.09,2.62,3.59,3.59,0,0,1-1.09,2.64,3.5,3.5,0,0,1-2.62,1.09,3.59,3.59,0,0,1-2.64-1.09A3.67,3.67,0,0,1,817.08,796.9Zm6.58,10.29v24.73H818V807.19Z"/><path class="cls-5" d="M845.27,811.4l-4.73,2.52c-.74-1.53-1.66-2.29-2.76-2.29a1.89,1.89,0,0,0-1.35.52,1.75,1.75,0,0,0-.56,1.33q0,1.42,3.3,2.82,4.55,2,6.12,3.61a6.17,6.17,0,0,1,1.58,4.44,7.74,7.74,0,0,1-2.65,6,9,9,0,0,1-6.19,2.29q-6.22,0-8.81-6.07l4.87-2.26a10.73,10.73,0,0,0,1.55,2.26,3.58,3.58,0,0,0,2.49,1c1.93,0,2.9-.89,2.9-2.65,0-1-.75-2-2.24-2.84-.57-.29-1.15-.57-1.73-.84l-1.75-.83a10.87,10.87,0,0,1-3.5-2.44,6,6,0,0,1-1.3-4,7.05,7.05,0,0,1,2.21-5.33,7.75,7.75,0,0,1,5.49-2.11C841.37,806.5,843.73,808.13,845.27,811.4Z"/><path class="cls-5" d="M882.41,811.4l-4.72,2.52c-.75-1.53-1.67-2.29-2.77-2.29a1.88,1.88,0,0,0-1.34.52,1.72,1.72,0,0,0-.56,1.33q0,1.42,3.3,2.82,4.54,2,6.12,3.61a6.16,6.16,0,0,1,1.57,4.44,7.77,7.77,0,0,1-2.64,6,9,9,0,0,1-6.19,2.29q-6.23,0-8.81-6.07l4.87-2.26a10.36,10.36,0,0,0,1.55,2.26,3.54,3.54,0,0,0,2.49,1c1.93,0,2.89-.89,2.89-2.65,0-1-.74-2-2.23-2.84-.58-.29-1.15-.57-1.73-.84l-1.75-.83a10.76,10.76,0,0,1-3.5-2.44,6,6,0,0,1-1.3-4,7.05,7.05,0,0,1,2.21-5.33,7.72,7.72,0,0,1,5.48-2.11Q880.11,806.5,882.41,811.4Z"/><path class="cls-5" d="M907.37,807.19h5.74v24.73h-5.74v-2.59a11,11,0,0,1-16.07-.41,13.77,13.77,0,0,1-3.33-9.44,13.35,13.35,0,0,1,3.33-9.27,10.73,10.73,0,0,1,8.33-3.71,10.52,10.52,0,0,1,7.74,3.56Zm-13.56,12.29a8.62,8.62,0,0,0,1.91,5.79,6.24,6.24,0,0,0,4.92,2.26,6.54,6.54,0,0,0,5.13-2.19,9.37,9.37,0,0,0,0-11.47,6.43,6.43,0,0,0-5.08-2.21,6.3,6.3,0,0,0-4.92,2.23A8.22,8.22,0,0,0,893.81,819.48Z"/><path class="cls-5" d="M944.24,831.33q0,1.75-.12,3.09a21.47,21.47,0,0,1-.31,2.35,10.58,10.58,0,0,1-2.39,4.8,11.58,11.58,0,0,1-9.22,3.86,12.3,12.3,0,0,1-8.15-2.67,10.91,10.91,0,0,1-3.81-7.59H926a6.6,6.6,0,0,0,1.09,2.82,6.15,6.15,0,0,0,5.18,2.31q6.27,0,6.28-7.7v-3.45a10.68,10.68,0,0,1-7.85,3.48A10.54,10.54,0,0,1,922.4,829a13.57,13.57,0,0,1-3.25-9.26,14.32,14.32,0,0,1,3-9.2,10.52,10.52,0,0,1,8.59-4,10,10,0,0,1,7.77,3.48v-2.79h5.71Zm-5.49-11.73a8.31,8.31,0,0,0-1.93-5.76,6.38,6.38,0,0,0-5-2.21,6.16,6.16,0,0,0-5.13,2.41,8.78,8.78,0,0,0-1.7,5.59,8.69,8.69,0,0,0,1.7,5.53,6.16,6.16,0,0,0,5.13,2.37,6.27,6.27,0,0,0,5.18-2.39A8.51,8.51,0,0,0,938.75,819.6Z"/><path class="cls-5" d="M974,820.9H956.25a7.49,7.49,0,0,0,2,4.85,6,6,0,0,0,4.49,1.78,5.83,5.83,0,0,0,3.53-1,14.41,14.41,0,0,0,3.13-3.76l4.82,2.69a19.68,19.68,0,0,1-2.36,3.27,12.56,12.56,0,0,1-2.67,2.23,10.79,10.79,0,0,1-3.07,1.28,15,15,0,0,1-3.58.41,11.66,11.66,0,0,1-8.89-3.56,13.33,13.33,0,0,1-3.35-9.49,13.69,13.69,0,0,1,3.25-9.5,12.39,12.39,0,0,1,17.32-.1q3.15,3.45,3.15,9.57Zm-5.86-4.67q-1.2-4.58-5.77-4.57a6,6,0,0,0-2,.31,5.79,5.79,0,0,0-1.67.92,5.86,5.86,0,0,0-1.28,1.43,7,7,0,0,0-.81,1.91Z"/><path class="cls-5" d="M980.22,807.19H986v2.28a9.34,9.34,0,0,1,6.75-3,8.54,8.54,0,0,1,6.73,2.72q2.09,2.31,2.08,7.54v15.16h-5.74V818.11q0-3.66-1-5.06c-.66-.95-1.87-1.42-3.61-1.42a4.42,4.42,0,0,0-4,1.88c-.78,1.24-1.16,3.39-1.16,6.47v11.94h-5.74Z"/><path class="cls-5" d="M1039.15,811.4l-4.72,2.52c-.75-1.53-1.67-2.29-2.77-2.29a1.89,1.89,0,0,0-1.35.52,1.75,1.75,0,0,0-.56,1.33q0,1.42,3.3,2.82,4.54,2,6.12,3.61a6.17,6.17,0,0,1,1.58,4.44,7.77,7.77,0,0,1-2.64,6,9,9,0,0,1-6.2,2.29q-6.23,0-8.81-6.07l4.88-2.26a10,10,0,0,0,1.55,2.26,3.53,3.53,0,0,0,2.48,1c1.93,0,2.9-.89,2.9-2.65,0-1-.75-2-2.24-2.84-.57-.29-1.15-.57-1.72-.84l-1.75-.83a10.94,10.94,0,0,1-3.51-2.44,6,6,0,0,1-1.29-4,7,7,0,0,1,2.21-5.33,7.71,7.71,0,0,1,5.48-2.11C1035.25,806.5,1037.61,808.13,1039.15,811.4Z"/><path class="cls-5" d="M1051.59,789v26.16l8.05-8h7.67l-10.74,10.38,11.52,14.35h-7.41l-8.18-10.44-.91.92v9.52h-5.71V789Z"/><path class="cls-5" d="M1089.12,807.19h5.74v24.73h-5.74v-2.59a11,11,0,0,1-16.08-.41,13.81,13.81,0,0,1-3.32-9.44,13.39,13.39,0,0,1,3.32-9.27,10.74,10.74,0,0,1,8.33-3.71,10.54,10.54,0,0,1,7.75,3.56Zm-13.56,12.29a8.61,8.61,0,0,0,1.9,5.79,6.28,6.28,0,0,0,4.93,2.26,6.57,6.57,0,0,0,5.13-2.19,9.41,9.41,0,0,0,0-11.47,6.46,6.46,0,0,0-5.08-2.21,6.32,6.32,0,0,0-4.93,2.23A8.26,8.26,0,0,0,1075.56,819.48Z"/><path class="cls-5" d="M1107.78,789v42.89h-5.71V789Z"/><path class="cls-5" d="M1134.13,807.19l6.4,13.89,6.38-13.89h6.42l-12.85,26.43-12.74-26.43Z"/><path class="cls-5" d="M1156.33,796.9a3.55,3.55,0,0,1,1.09-2.59,3.71,3.71,0,0,1,5.25,0,3.54,3.54,0,0,1,1.1,2.62,3.6,3.6,0,0,1-1.1,2.64,3.5,3.5,0,0,1-2.61,1.09,3.72,3.72,0,0,1-3.73-3.76Zm6.57,10.29v24.73h-5.71V807.19Z"/><path class="cls-5" d="M1188.37,789h5.74v42.89h-5.74v-2.59a10.66,10.66,0,0,1-7.64,3.3,10.88,10.88,0,0,1-8.43-3.71,13.77,13.77,0,0,1-3.33-9.44,13.35,13.35,0,0,1,3.33-9.25,10.68,10.68,0,0,1,16.07-.17Zm-13.56,30.45a8.66,8.66,0,0,0,1.9,5.79,6.28,6.28,0,0,0,4.93,2.26,6.54,6.54,0,0,0,5.13-2.19,9.41,9.41,0,0,0,0-11.47,6.44,6.44,0,0,0-5.08-2.21,6.3,6.3,0,0,0-4.92,2.23A8.22,8.22,0,0,0,1174.81,819.48Z"/><path class="cls-5" d="M1223.84,820.9h-17.72a7.49,7.49,0,0,0,2,4.85,6,6,0,0,0,4.49,1.78,5.83,5.83,0,0,0,3.53-1,14.22,14.22,0,0,0,3.12-3.76l4.83,2.69a19.68,19.68,0,0,1-2.36,3.27,12.56,12.56,0,0,1-2.67,2.23,10.79,10.79,0,0,1-3.07,1.28,15,15,0,0,1-3.58.41,11.66,11.66,0,0,1-8.89-3.56,13.33,13.33,0,0,1-3.35-9.49,13.69,13.69,0,0,1,3.25-9.5,12.39,12.39,0,0,1,17.32-.1q3.15,3.45,3.15,9.57Zm-5.87-4.67q-1.18-4.58-5.76-4.57a6,6,0,0,0-2,.31,5.79,5.79,0,0,0-1.67.92,5.86,5.86,0,0,0-1.28,1.43,6.71,6.71,0,0,0-.81,1.91Z"/><path class="cls-5" d="M1230.09,807.19h5.71v2.21a10.83,10.83,0,0,1,2.79-2.26,6.32,6.32,0,0,1,3-.64,9.24,9.24,0,0,1,4.72,1.47l-2.62,5.24a5.44,5.44,0,0,0-3.17-1.17q-4.67,0-4.67,7.06v12.82h-5.71Z"/><path class="cls-5" d="M1271.7,820.9H1254a7.49,7.49,0,0,0,2,4.85,6,6,0,0,0,4.49,1.78,5.81,5.81,0,0,0,3.53-1,14.41,14.41,0,0,0,3.13-3.76l4.82,2.69a19.68,19.68,0,0,1-2.36,3.27,12.56,12.56,0,0,1-2.67,2.23,10.79,10.79,0,0,1-3.07,1.28,15,15,0,0,1-3.58.41,11.66,11.66,0,0,1-8.89-3.56,13.33,13.33,0,0,1-3.35-9.49,13.69,13.69,0,0,1,3.25-9.5,11.24,11.24,0,0,1,8.69-3.58,11.12,11.12,0,0,1,8.63,3.48q3.15,3.45,3.15,9.57Zm-5.86-4.67q-1.2-4.58-5.77-4.57a6,6,0,0,0-2,.31,5.79,5.79,0,0,0-1.67.92,6.07,6.07,0,0,0-1.28,1.43,7,7,0,0,0-.81,1.91Z"/><path class="cls-5" d="M1299.88,812.52v19.4h-5.71v-19.4h-2.44v-5.33h2.44v-9.07h5.71v9.07h4.45v5.33Z"/><path class="cls-5" d="M1307.35,796.9a3.55,3.55,0,0,1,1.09-2.59,3.72,3.72,0,1,1,5.26,5.26,3.52,3.52,0,0,1-2.62,1.09,3.72,3.72,0,0,1-3.73-3.76Zm6.58,10.29v24.73h-5.72V807.19Z"/><path class="cls-5" d="M1326.88,789v42.89h-5.72V789Z"/><path class="cls-5" d="M1355.87,845.38h-5.71V807.19h5.71v2.69a10.83,10.83,0,0,1,16.07.38,13.55,13.55,0,0,1,3.35,9.42A13.34,13.34,0,0,1,1372,829a10.84,10.84,0,0,1-16.1.2Zm13.59-25.67a8.56,8.56,0,0,0-1.93-5.79,6.24,6.24,0,0,0-4.93-2.26,6.5,6.5,0,0,0-5.1,2.18,8.24,8.24,0,0,0-2,5.74,8.44,8.44,0,0,0,2,5.74,6.41,6.41,0,0,0,5.07,2.21,6.19,6.19,0,0,0,4.9-2.24A8.11,8.11,0,0,0,1369.46,819.71Z"/><path class="cls-5" d="M1380.17,819.38a12.3,12.3,0,0,1,3.83-9.12,13.52,13.52,0,0,1,18.74,0,13.24,13.24,0,0,1,0,18.61,13.15,13.15,0,0,1-9.47,3.73,12.56,12.56,0,0,1-9.32-3.81A12.79,12.79,0,0,1,1380.17,819.38Zm5.84.1a8.33,8.33,0,0,0,2,5.86,7.69,7.69,0,0,0,10.72,0,9.31,9.31,0,0,0,0-11.53,7.62,7.62,0,0,0-10.67,0A8,8,0,0,0,1386,819.48Z"/><path class="cls-5" d="M1418.31,789v42.89h-5.72V789Z"/><path class="cls-5" d="M1424.68,796.9a3.55,3.55,0,0,1,1.09-2.59,3.72,3.72,0,1,1,5.26,5.26,3.52,3.52,0,0,1-2.62,1.09,3.72,3.72,0,0,1-3.73-3.76Zm6.58,10.29v24.73h-5.72V807.19Z"/><path class="cls-5" d="M1444.38,812.52v19.4h-5.71v-19.4h-2.44v-5.33h2.44v-9.07h5.71v9.07h4.45v5.33Z"/><path class="cls-5" d="M1451.85,796.9a3.55,3.55,0,0,1,1.09-2.59,3.6,3.6,0,0,1,2.61-1.09,3.64,3.64,0,0,1,2.65,1.09,3.57,3.57,0,0,1,1.09,2.62,3.63,3.63,0,0,1-1.09,2.64,3.53,3.53,0,0,1-2.62,1.09,3.72,3.72,0,0,1-3.73-3.76Zm6.57,10.29v24.73h-5.71V807.19Z"/><path class="cls-5" d="M1488.18,820.9h-17.72a7.49,7.49,0,0,0,2,4.85,6.07,6.07,0,0,0,4.49,1.78,5.81,5.81,0,0,0,3.53-1,14.41,14.41,0,0,0,3.13-3.76l4.82,2.69a19.13,19.13,0,0,1-2.36,3.27,12.56,12.56,0,0,1-2.67,2.23,10.79,10.79,0,0,1-3.07,1.28,15,15,0,0,1-3.58.41,11.66,11.66,0,0,1-8.89-3.56,13.33,13.33,0,0,1-3.35-9.49,13.74,13.74,0,0,1,3.25-9.5,11.24,11.24,0,0,1,8.69-3.58,11.1,11.1,0,0,1,8.63,3.48q3.15,3.45,3.15,9.57Zm-5.86-4.67q-1.2-4.58-5.77-4.57a6,6,0,0,0-2,.31,5.79,5.79,0,0,0-1.67.92,6.07,6.07,0,0,0-1.28,1.43,7,7,0,0,0-.81,1.91Z"/><path class="cls-5" d="M1500.78,812.52v19.4h-5.72v-19.4h-2.44v-5.33h2.44v-9.07h5.72v9.07h4.44v5.33Z"/><path class="cls-5" d="M1510,829.07a3.38,3.38,0,0,1,1-2.46,3.53,3.53,0,1,1,5,5,3.52,3.52,0,0,1-6-2.54Z"/></g></svg>