<svg xmlns="http://www.w3.org/2000/svg" width="1920" height="1080" viewBox="0 0 1920 1080"><defs><style>.cls-1{fill:#152230;}.cls-2{fill:#89cce5;}.cls-3{fill:#358da8;}.cls-4{fill:#003a44;}.cls-5{fill:#fff;}</style></defs><title>senarie2_1</title><g id="Layer_1" data-name="Layer 1"><path class="cls-1" d="M1203.52,92.65a137.84,137.84,0,0,1-23.75,2L705.19,93.23C633.51,93,574,34.56,572.47-37.1l6.84-.14c1.42,68,57.9,123.44,125.9,123.64l474.58,1.39c70.48.2,129.75-56.92,132.12-127.35l6.83.23a137.89,137.89,0,0,1-42.36,94.92A138.1,138.1,0,0,1,1203.52,92.65Z"/></g><g id="Layer_3" data-name="Layer 3"><rect class="cls-2" width="1920" height="1080"/><circle class="cls-3" cx="145" cy="150" r="50"/><circle class="cls-3" cx="1214" cy="333" r="50"/><circle class="cls-3" cx="1733" cy="918" r="50"/><circle class="cls-3" cx="226" cy="691" r="50"/><circle class="cls-3" cx="913" cy="576" r="50"/><circle class="cls-3" cx="542" cy="333" r="50"/><circle class="cls-3" cx="1197" cy="841" r="50"/><circle class="cls-3" cx="1570" cy="490" r="50"/><circle class="cls-3" cx="828" cy="150" r="50"/><circle class="cls-3" cx="592" cy="968" r="50"/><circle class="cls-3" cx="1620" cy="174" r="50"/><polygon class="cls-3" points="442 81 363 81 363 106 363 124 363 169 327 169 327 212 328 212 328 258 292 258 292 301 371 301 371 279 371 258 371 212 406 212 406 185 406 169 406 124 442 124 442 81"/><polygon class="cls-3" points="988 758 909 758 909 783 909 801 909 846 873 846 873 889 874 889 874 935 838 935 838 978 917 978 917 956 917 935 917 889 952 889 952 862 952 846 952 801 988 801 988 758"/><polygon class="cls-3" points="301 907 222 907 222 932 222 950 222 995 186 995 186 1038 187 1038 187 1084 151 1084 151 1127 230 1127 230 1105 230 1084 230 1038 265 1038 265 1011 265 995 265 950 301 950 301 907"/><polygon class="cls-3" points="1392 791 1471 791 1471 816 1471 834 1471 879 1507 879 1507 922 1506 922 1506 968 1542 968 1542 1011 1463 1011 1463 989 1463 968 1463 922 1428 922 1428 895 1428 879 1428 834 1392 834 1392 791"/><polygon class="cls-3" points="1289 -70 1368 -70 1368 -45 1368 -27 1368 18 1404 18 1404 61 1403 61 1403 107 1439 107 1439 150 1360 150 1360 128 1360 107 1360 61 1325 61 1325 34 1325 18 1325 -27 1289 -27 1289 -70"/><polygon class="cls-3" points="1708 370 1787 370 1787 395 1787 413 1787 458 1823 458 1823 501 1822 501 1822 547 1858 547 1858 590 1779 590 1779 568 1779 547 1779 501 1744 501 1744 474 1744 458 1744 413 1708 413 1708 370"/><polygon class="cls-3" points="1063 173 984 173 984 198 984 216 984 261 948 261 948 304 949 304 949 350 913 350 913 393 992 393 992 371 992 350 992 304 1027 304 1027 277 1027 261 1027 216 1063 216 1063 173"/><polygon class="cls-3" points="1414 411 1335 411 1335 436 1335 454 1335 499 1299 499 1299 542 1300 542 1300 588 1264 588 1264 631 1343 631 1343 609 1343 588 1343 542 1378 542 1378 515 1378 499 1378 454 1414 454 1414 411"/><polygon class="cls-3" points="492 521 571 521 571 546 571 564 571 609 607 609 607 652 606 652 606 698 642 698 642 741 563 741 563 719 563 698 563 652 528 652 528 625 528 609 528 564 492 564 492 521"/><polygon class="cls-3" points="-39 273 40 273 40 298 40 316 40 361 76 361 76 404 75 404 75 450 111 450 111 493 32 493 32 471 32 450 32 404 -3 404 -3 377 -3 361 -3 316 -39 316 -39 273"/><rect class="cls-3" x="1796" y="165" width="40" height="110" rx="20" transform="translate(256.53 1176.19) rotate(-38.42)"/><rect class="cls-3" x="1645" y="-20" width="110" height="40" rx="20" transform="translate(643.53 1331.87) rotate(-51.58)"/><rect class="cls-3" x="1544" y="671" width="110" height="40" rx="20" transform="translate(63.93 1514.32) rotate(-51.58)"/><rect class="cls-3" x="1211" y="1037" width="110" height="40" rx="20" transform="translate(-348.87 1391.98) rotate(-51.58)"/><rect class="cls-3" x="703" y="373" width="110" height="40" rx="20" transform="translate(-20.96 742.63) rotate(-51.58)"/><rect class="cls-3" x="7" y="881" width="110" height="40" rx="20" transform="translate(-682.42 389.65) rotate(-51.58)"/><rect class="cls-3" x="354" y="821" width="110" height="40" rx="20" transform="translate(-504.06 638.79) rotate(-51.58)"/><rect class="cls-3" x="554" y="61" width="110" height="40" rx="20" transform="translate(167.08 507.79) rotate(-51.58)"/><rect class="cls-3" x="1037" y="611" width="110" height="40" rx="20" transform="translate(-80.98 1094.4) rotate(-51.58)"/><rect class="cls-3" x="1447" y="246" width="40" height="110" rx="20" transform="translate(130.62 976.85) rotate(-38.42)"/><rect class="cls-3" x="1127" y="-15" width="40" height="110" rx="20" transform="translate(223.52 721.47) rotate(-38.42)"/><rect class="cls-3" x="696" y="786" width="40" height="110" rx="20" transform="translate(-367.59 627.07) rotate(-38.42)"/><rect class="cls-3" x="265" y="435" width="40" height="110" rx="20" transform="translate(-242.8 283.22) rotate(-38.42)"/><rect class="cls-4" x="328" y="166" width="1140" height="655" rx="12"/><rect class="cls-3" x="418" y="263" width="1140" height="655" rx="12"/><path class="cls-5" d="M447.31,330.72V291.51h8.23a29.9,29.9,0,0,1,9.34,1.17,17.52,17.52,0,0,1,6.68,3.89q6.06,5.54,6.06,14.55a18.56,18.56,0,0,1-6.32,14.62,18.3,18.3,0,0,1-6.65,3.88,30.2,30.2,0,0,1-9.22,1.1Zm5.91-5.56h2.67a22.2,22.2,0,0,0,6.63-.84,13.47,13.47,0,0,0,9.14-13.2,13.64,13.64,0,0,0-4.32-10.47q-3.88-3.57-11.45-3.58h-2.67Z"/><path class="cls-5" d="M489.69,306v14.19c0,4.1,1.61,6.14,4.85,6.14s4.84-2,4.84-6.14V306h5.72v14.32a16,16,0,0,1-.74,5.13,8.55,8.55,0,0,1-2.46,3.47,12,12,0,0,1-14.7,0,8.72,8.72,0,0,1-2.52-3.47,14.23,14.23,0,0,1-.71-5.13V306Z"/><path class="cls-5" d="M528.36,287.83h5.71V308a9.82,9.82,0,0,1,6.73-2.74,8.7,8.7,0,0,1,6.7,2.72c1.42,1.57,2.13,4.09,2.13,7.54v15.16h-5.71V316.09a7,7,0,0,0-1-4.3,4.08,4.08,0,0,0-3.39-1.33c-2,0-3.41.61-4.22,1.85s-1.19,3.4-1.19,6.45v12h-5.71Z"/><path class="cls-5" d="M575.1,306h5.74v24.73H575.1v-2.59a11,11,0,0,1-16.07-.41,13.77,13.77,0,0,1-3.33-9.44A13.35,13.35,0,0,1,559,309a10.73,10.73,0,0,1,8.33-3.71,10.53,10.53,0,0,1,7.74,3.56Zm-13.56,12.29a8.57,8.57,0,0,0,1.91,5.78,6.21,6.21,0,0,0,4.92,2.26,6.53,6.53,0,0,0,5.13-2.18,9.39,9.39,0,0,0,0-11.48,6.47,6.47,0,0,0-5.08-2.2,6.3,6.3,0,0,0-4.92,2.23A8.22,8.22,0,0,0,561.54,318.28Z"/><path class="cls-5" d="M588.05,306h5.71v2.21a10.83,10.83,0,0,1,2.79-2.26,6.35,6.35,0,0,1,3-.64,9.22,9.22,0,0,1,4.72,1.47L601.61,312a5.52,5.52,0,0,0-3.18-1.16q-4.66,0-4.67,7.05v12.83h-5.71Z"/><path class="cls-5" d="M629.26,306v14.19c0,4.1,1.61,6.14,4.85,6.14s4.85-2,4.85-6.14V306h5.71v14.32a16,16,0,0,1-.74,5.13,8.55,8.55,0,0,1-2.46,3.47,12,12,0,0,1-14.7,0,8.69,8.69,0,0,1-2.51-3.47,14,14,0,0,1-.72-5.13V306Z"/><path class="cls-5" d="M655,306l6.4,13.89L667.72,306h6.43L661.3,332.42,648.55,306Z"/><path class="cls-5" d="M677.14,295.7a3.74,3.74,0,0,1,3.71-3.68,3.63,3.63,0,0,1,2.64,1.09,3.52,3.52,0,0,1,1.09,2.62,3.59,3.59,0,0,1-1.09,2.64,3.5,3.5,0,0,1-2.61,1.09,3.56,3.56,0,0,1-2.64-1.09A3.64,3.64,0,0,1,677.14,295.7ZM683.72,306v24.73H678V306Z"/><path class="cls-5" d="M709.19,287.83h5.74v42.89h-5.74v-2.59a10.66,10.66,0,0,1-7.65,3.3,10.87,10.87,0,0,1-8.42-3.71,13.77,13.77,0,0,1-3.33-9.44,13.35,13.35,0,0,1,3.33-9.25,10.68,10.68,0,0,1,16.07-.17Zm-13.56,30.45a8.57,8.57,0,0,0,1.9,5.78,6.24,6.24,0,0,0,4.93,2.26,6.55,6.55,0,0,0,5.13-2.18,9.42,9.42,0,0,0,0-11.48,6.48,6.48,0,0,0-5.08-2.2,6.32,6.32,0,0,0-4.93,2.23A8.26,8.26,0,0,0,695.63,318.28Z"/><path class="cls-5" d="M744.66,319.7H726.94a7.49,7.49,0,0,0,2,4.85,6,6,0,0,0,4.49,1.77,5.83,5.83,0,0,0,3.53-1,14.61,14.61,0,0,0,3.12-3.76l4.83,2.69a20.28,20.28,0,0,1-2.36,3.27,12.56,12.56,0,0,1-2.67,2.23,10.79,10.79,0,0,1-3.07,1.28,15,15,0,0,1-3.58.41,11.64,11.64,0,0,1-8.89-3.56,13.33,13.33,0,0,1-3.35-9.49,13.69,13.69,0,0,1,3.25-9.5,12.39,12.39,0,0,1,17.32-.1q3.13,3.45,3.14,9.57ZM738.79,315q-1.18-4.57-5.76-4.57a6,6,0,0,0-2,.31,5.73,5.73,0,0,0-2.94,2.35,6.33,6.33,0,0,0-.81,1.91Z"/><path class="cls-5" d="M750.9,306h5.74v2.28a9.37,9.37,0,0,1,6.76-3,8.52,8.52,0,0,1,6.72,2.72q2.08,2.31,2.09,7.54v15.16h-5.74V316.9c0-2.43-.34-4.12-1-5s-1.86-1.42-3.6-1.42a4.42,4.42,0,0,0-4,1.88q-1.17,1.85-1.17,6.47v11.94H750.9Z"/><path class="cls-5" d="M797.65,287.83h5.74v42.89h-5.74v-2.59a10.66,10.66,0,0,1-7.64,3.3,10.88,10.88,0,0,1-8.43-3.71,13.77,13.77,0,0,1-3.33-9.44,13.35,13.35,0,0,1,3.33-9.25,10.68,10.68,0,0,1,16.07-.17Zm-13.56,30.45a8.57,8.57,0,0,0,1.9,5.78,6.24,6.24,0,0,0,4.93,2.26,6.53,6.53,0,0,0,5.13-2.18,9.42,9.42,0,0,0,0-11.48,6.47,6.47,0,0,0-5.08-2.2,6.34,6.34,0,0,0-4.93,2.23A8.26,8.26,0,0,0,784.09,318.28Z"/><path class="cls-5" d="M833.12,319.7H815.4a7.49,7.49,0,0,0,2,4.85,6,6,0,0,0,4.49,1.77,5.83,5.83,0,0,0,3.53-1,14.41,14.41,0,0,0,3.12-3.76l4.83,2.69a19.68,19.68,0,0,1-2.36,3.27,12.56,12.56,0,0,1-2.67,2.23,10.79,10.79,0,0,1-3.07,1.28,15,15,0,0,1-3.58.41,11.66,11.66,0,0,1-8.89-3.56,13.33,13.33,0,0,1-3.35-9.49,13.69,13.69,0,0,1,3.25-9.5,12.39,12.39,0,0,1,17.32-.1q3.13,3.45,3.14,9.57ZM827.25,315q-1.18-4.57-5.76-4.57a5.91,5.91,0,0,0-2,.31,5.56,5.56,0,0,0-1.67.92,5.68,5.68,0,0,0-1.28,1.43,6.33,6.33,0,0,0-.81,1.91Z"/><path class="cls-5" d="M873.64,287.83h5.74v42.89h-5.74v-2.59a10.66,10.66,0,0,1-7.64,3.3,10.88,10.88,0,0,1-8.43-3.71,13.77,13.77,0,0,1-3.33-9.44,13.35,13.35,0,0,1,3.33-9.25,10.68,10.68,0,0,1,16.07-.17Zm-13.56,30.45a8.57,8.57,0,0,0,1.91,5.78,6.21,6.21,0,0,0,4.92,2.26,6.53,6.53,0,0,0,5.13-2.18,9.39,9.39,0,0,0,0-11.48,6.45,6.45,0,0,0-5.08-2.2,6.3,6.3,0,0,0-4.92,2.23A8.27,8.27,0,0,0,860.08,318.28Z"/><path class="cls-5" d="M909.11,319.7H891.39a7.49,7.49,0,0,0,2,4.85,6.06,6.06,0,0,0,4.5,1.77,5.8,5.8,0,0,0,3.52-1,14.41,14.41,0,0,0,3.13-3.76l4.82,2.69a19.13,19.13,0,0,1-2.36,3.27,12.56,12.56,0,0,1-2.67,2.23,10.67,10.67,0,0,1-3.07,1.28,15,15,0,0,1-3.58.41,11.62,11.62,0,0,1-8.88-3.56,13.29,13.29,0,0,1-3.36-9.49,13.74,13.74,0,0,1,3.25-9.5,12.39,12.39,0,0,1,17.32-.1q3.15,3.45,3.15,9.57ZM903.25,315q-1.2-4.57-5.77-4.57a6,6,0,0,0-2,.31,5.51,5.51,0,0,0-1.66.92,5.72,5.72,0,0,0-1.29,1.43,6.87,6.87,0,0,0-.81,1.91Z"/><path class="cls-5" d="M921.07,287.83v42.89h-5.71V287.83Z"/><path class="cls-5" d="M934.2,311.32v19.4h-5.71v-19.4h-2.44V306h2.44v-9.07h5.71V306h4.44v5.33Z"/><path class="cls-5" d="M958.57,306h5.74v2.28a9.37,9.37,0,0,1,6.76-3,8.52,8.52,0,0,1,6.72,2.72q2.09,2.31,2.09,7.54v15.16h-5.74V316.9c0-2.43-.34-4.12-1-5s-1.86-1.42-3.6-1.42a4.42,4.42,0,0,0-4,1.88q-1.17,1.85-1.17,6.47v11.94h-5.74Z"/><path class="cls-5" d="M1006.87,307.71l3.91-3.86,2.59,2.75-3.81,3.73a13.19,13.19,0,0,1,2.77,8.1,12.42,12.42,0,0,1-3.84,9.24,12.59,12.59,0,0,1-9.29,3.76,13.43,13.43,0,0,1-8.18-2.59l-3.75,3.63-2.62-2.64,3.73-3.71a13.59,13.59,0,0,1-2.46-7.82,12.44,12.44,0,0,1,3.83-9.22,12.91,12.91,0,0,1,9.37-3.78A13.81,13.81,0,0,1,1006.87,307.71Zm-4.14,3.91a7.86,7.86,0,0,0-3.58-.78,7.1,7.1,0,0,0-5.38,2.08,7.63,7.63,0,0,0-2,5.53,8.31,8.31,0,0,0,.79,3.68Zm2.74,2.59L995.11,325a8.19,8.19,0,0,0,4,1,7.2,7.2,0,0,0,5.34-2.06,7.57,7.57,0,0,0,2-5.48A9.32,9.32,0,0,0,1005.47,314.21Z"/><path class="cls-5" d="M1042.26,330.13c0,1.17,0,2.2-.11,3.09a21.29,21.29,0,0,1-.32,2.35,10.48,10.48,0,0,1-2.39,4.8,11.55,11.55,0,0,1-9.21,3.85,12.28,12.28,0,0,1-8.15-2.66,10.91,10.91,0,0,1-3.81-7.59H1024a6.52,6.52,0,0,0,1.09,2.82,6.13,6.13,0,0,0,5.18,2.31q6.27,0,6.27-7.7V328a10.67,10.67,0,0,1-7.85,3.48,10.51,10.51,0,0,1-8.27-3.66,13.53,13.53,0,0,1-3.25-9.27,14.26,14.26,0,0,1,3-9.19,10.49,10.49,0,0,1,8.58-4,10,10,0,0,1,7.77,3.48V306h5.71Zm-5.48-11.73a8.36,8.36,0,0,0-1.93-5.76,6.4,6.4,0,0,0-5-2.21,6.14,6.14,0,0,0-5.13,2.41,8.73,8.73,0,0,0-1.7,5.59,8.61,8.61,0,0,0,1.7,5.53,6.13,6.13,0,0,0,5.13,2.36,6.28,6.28,0,0,0,5.18-2.38A8.56,8.56,0,0,0,1036.78,318.4Z"/><path class="cls-5" d="M1072,319.7h-17.72a7.49,7.49,0,0,0,2,4.85,6.06,6.06,0,0,0,4.5,1.77,5.85,5.85,0,0,0,3.53-1,14.61,14.61,0,0,0,3.12-3.76l4.82,2.69a19.13,19.13,0,0,1-2.36,3.27,12.76,12.76,0,0,1-2.66,2.23,10.85,10.85,0,0,1-3.08,1.28,15,15,0,0,1-3.58.41,11.62,11.62,0,0,1-8.88-3.56,13.29,13.29,0,0,1-3.36-9.49,13.74,13.74,0,0,1,3.25-9.5,12.39,12.39,0,0,1,17.32-.1q3.15,3.45,3.15,9.57Zm-5.86-4.67q-1.2-4.57-5.76-4.57a6,6,0,0,0-2,.31,5.51,5.51,0,0,0-1.66.92,5.72,5.72,0,0,0-1.29,1.43,6.87,6.87,0,0,0-.81,1.91Z"/><path class="cls-5" d="M1078.24,306H1084v2.28a9.37,9.37,0,0,1,6.75-3,8.54,8.54,0,0,1,6.73,2.72q2.08,2.31,2.08,7.54v15.16h-5.74V316.9c0-2.43-.33-4.12-1-5s-1.86-1.42-3.61-1.42a4.4,4.4,0,0,0-4,1.88q-1.17,1.85-1.17,6.47v11.94h-5.74Z"/><path class="cls-5" d="M1112.47,287.83v21a10.53,10.53,0,0,1,7.77-3.56,10.66,10.66,0,0,1,8.32,3.73,13.35,13.35,0,0,1,3.33,9.25,13.63,13.63,0,0,1-3.35,9.44,10.82,10.82,0,0,1-8.41,3.71,10.67,10.67,0,0,1-7.66-3.3v2.59h-5.72V287.83Zm13.58,30.7a8.53,8.53,0,0,0-1.93-5.79,6.19,6.19,0,0,0-4.9-2.28,6.57,6.57,0,0,0-5.13,2.2,9.43,9.43,0,0,0,0,11.46,6.4,6.4,0,0,0,5.07,2.2,6.3,6.3,0,0,0,4.93-2.2A8.13,8.13,0,0,0,1126.05,318.53Z"/><path class="cls-5" d="M1137.07,295.7a3.55,3.55,0,0,1,1.09-2.59,3.72,3.72,0,0,1,5.26,0,3.52,3.52,0,0,1,1.09,2.62,3.59,3.59,0,0,1-1.09,2.64,3.52,3.52,0,0,1-2.62,1.09,3.72,3.72,0,0,1-3.73-3.76Zm6.58,10.29v24.73h-5.72V306Z"/><path class="cls-5" d="M1156.6,287.83v42.89h-5.72V287.83Z"/><path class="cls-5" d="M1169.54,287.83v42.89h-5.71V287.83Z"/><path class="cls-5" d="M1199.3,319.7h-17.72a7.49,7.49,0,0,0,2,4.85,6.06,6.06,0,0,0,4.49,1.77,5.81,5.81,0,0,0,3.53-1,14.41,14.41,0,0,0,3.13-3.76l4.82,2.69a19.13,19.13,0,0,1-2.36,3.27,12.56,12.56,0,0,1-2.67,2.23,10.67,10.67,0,0,1-3.07,1.28,15,15,0,0,1-3.58.41,11.66,11.66,0,0,1-8.89-3.56,13.33,13.33,0,0,1-3.35-9.49,13.74,13.74,0,0,1,3.25-9.5,12.39,12.39,0,0,1,17.32-.1q3.15,3.45,3.15,9.57Zm-5.86-4.67q-1.2-4.57-5.77-4.57a6,6,0,0,0-2,.31,5.39,5.39,0,0,0-1.66.92,5.72,5.72,0,0,0-1.29,1.43A6.87,6.87,0,0,0,1182,315Z"/><path class="cls-5" d="M1223.78,287.83h5.74v42.89h-5.74v-2.59a10.66,10.66,0,0,1-7.64,3.3,10.88,10.88,0,0,1-8.43-3.71,13.77,13.77,0,0,1-3.33-9.44,13.35,13.35,0,0,1,3.33-9.25,10.68,10.68,0,0,1,16.07-.17Zm-13.56,30.45a8.62,8.62,0,0,0,1.9,5.78,6.24,6.24,0,0,0,4.93,2.26,6.53,6.53,0,0,0,5.13-2.18,9.42,9.42,0,0,0,0-11.48,6.47,6.47,0,0,0-5.08-2.2,6.3,6.3,0,0,0-4.92,2.23A8.22,8.22,0,0,0,1210.22,318.28Z"/><path class="cls-5" d="M1259.25,319.7h-17.72a7.49,7.49,0,0,0,2,4.85,6,6,0,0,0,4.49,1.77,5.83,5.83,0,0,0,3.53-1,14.22,14.22,0,0,0,3.12-3.76l4.83,2.69a19.68,19.68,0,0,1-2.36,3.27,12.56,12.56,0,0,1-2.67,2.23,10.79,10.79,0,0,1-3.07,1.28,15,15,0,0,1-3.58.41,11.66,11.66,0,0,1-8.89-3.56,13.33,13.33,0,0,1-3.35-9.49,13.69,13.69,0,0,1,3.25-9.5,12.39,12.39,0,0,1,17.32-.1q3.15,3.45,3.15,9.57Zm-5.87-4.67q-1.19-4.57-5.76-4.57a6,6,0,0,0-1.95.31,5.56,5.56,0,0,0-1.67.92,5.68,5.68,0,0,0-1.28,1.43,6.59,6.59,0,0,0-.81,1.91Z"/><path class="cls-5" d="M1265.5,306h5.71v2.21a10.83,10.83,0,0,1,2.79-2.26,6.32,6.32,0,0,1,3-.64,9.24,9.24,0,0,1,4.72,1.47l-2.62,5.23a5.49,5.49,0,0,0-3.17-1.16q-4.67,0-4.67,7.05v12.83h-5.71Z"/><path class="cls-5" d="M464.45,368.39h5.74v24.73h-5.74v-2.59a11,11,0,0,1-16.07-.41,13.77,13.77,0,0,1-3.33-9.44,13.35,13.35,0,0,1,3.33-9.27,10.71,10.71,0,0,1,8.32-3.71,10.54,10.54,0,0,1,7.75,3.56Zm-13.56,12.29a8.57,8.57,0,0,0,1.9,5.78,6.24,6.24,0,0,0,4.93,2.26,6.56,6.56,0,0,0,5.13-2.18,9.42,9.42,0,0,0,0-11.48,6.48,6.48,0,0,0-5.08-2.2,6.32,6.32,0,0,0-4.93,2.23A8.26,8.26,0,0,0,450.89,380.68Z"/><path class="cls-5" d="M483.31,373.72v19.4h-5.74v-19.4h-2v-5.33h2v-9.55c0-3.11.55-5.31,1.63-6.6a8,8,0,0,1,6.5-2.69,11,11,0,0,1,3.83.89v5.84L489,356a7.28,7.28,0,0,0-3.05-.94,2.07,2.07,0,0,0-2,1.09,10.43,10.43,0,0,0-.54,4.12v8.15h6.22v5.33Z"/><path class="cls-5" d="M531.4,382.1H513.68a7.49,7.49,0,0,0,2,4.85,6.06,6.06,0,0,0,4.49,1.77,5.81,5.81,0,0,0,3.53-1,14.41,14.41,0,0,0,3.13-3.76l4.82,2.69a19.13,19.13,0,0,1-2.36,3.27,12.56,12.56,0,0,1-2.67,2.23,10.67,10.67,0,0,1-3.07,1.28,15,15,0,0,1-3.58.41,11.66,11.66,0,0,1-8.89-3.56,13.33,13.33,0,0,1-3.35-9.49,13.74,13.74,0,0,1,3.25-9.5,12.39,12.39,0,0,1,17.32-.1q3.15,3.45,3.15,9.57Zm-5.86-4.67q-1.2-4.57-5.77-4.57a6,6,0,0,0-1.95.31,5.39,5.39,0,0,0-1.66.92,5.89,5.89,0,0,0-1.29,1.43,6.87,6.87,0,0,0-.81,1.91Z"/><path class="cls-5" d="M537.65,368.39h5.74v2.28a9.35,9.35,0,0,1,6.75-3,8.54,8.54,0,0,1,6.73,2.72Q559,372.73,559,378v15.16h-5.74V379.3c0-2.43-.34-4.12-1-5.05s-1.87-1.42-3.61-1.42a4.43,4.43,0,0,0-4,1.88c-.77,1.24-1.16,3.39-1.16,6.47v11.94h-5.74Z"/><path class="cls-5" d="M587.92,350.23v26.15l8.05-8h7.67L592.9,378.77l11.53,14.35H597l-8.17-10.44-.92.92v9.52h-5.71V350.23Z"/><path class="cls-5" d="M613.82,350.23v42.89h-5.71V350.23Z"/><path class="cls-5" d="M639.29,368.39H645v24.73h-5.74v-2.59a11,11,0,0,1-16.08-.41,13.81,13.81,0,0,1-3.32-9.44,13.39,13.39,0,0,1,3.32-9.27,10.74,10.74,0,0,1,8.33-3.71,10.54,10.54,0,0,1,7.75,3.56Zm-13.56,12.29a8.57,8.57,0,0,0,1.9,5.78,6.24,6.24,0,0,0,4.93,2.26,6.56,6.56,0,0,0,5.13-2.18,9.42,9.42,0,0,0,0-11.48,6.48,6.48,0,0,0-5.08-2.2,6.32,6.32,0,0,0-4.93,2.23A8.26,8.26,0,0,0,625.73,380.68Z"/><path class="cls-5" d="M666.61,372.6l-4.73,2.52c-.74-1.53-1.66-2.29-2.76-2.29a1.89,1.89,0,0,0-1.35.52,1.75,1.75,0,0,0-.56,1.33q0,1.43,3.3,2.82,4.54,2,6.12,3.61a6.17,6.17,0,0,1,1.58,4.44,7.77,7.77,0,0,1-2.64,6,9,9,0,0,1-6.2,2.29q-6.23,0-8.81-6.07l4.88-2.26a10.43,10.43,0,0,0,1.54,2.26,3.57,3.57,0,0,0,2.49,1c1.93,0,2.9-.87,2.9-2.64,0-1-.75-2-2.24-2.84-.57-.29-1.15-.57-1.72-.84l-1.76-.84a10.83,10.83,0,0,1-3.5-2.43,6,6,0,0,1-1.29-4,7,7,0,0,1,2.2-5.33,7.75,7.75,0,0,1,5.49-2.11C662.71,367.7,665.07,369.34,666.61,372.6Z"/><path class="cls-5" d="M687.71,372.6,683,375.12c-.74-1.53-1.66-2.29-2.76-2.29a1.89,1.89,0,0,0-1.35.52,1.75,1.75,0,0,0-.56,1.33q0,1.43,3.3,2.82,4.54,2,6.12,3.61a6.17,6.17,0,0,1,1.58,4.44,7.77,7.77,0,0,1-2.64,6,9,9,0,0,1-6.2,2.29q-6.22,0-8.81-6.07l4.88-2.26a10.43,10.43,0,0,0,1.54,2.26,3.57,3.57,0,0,0,2.49,1c1.93,0,2.9-.87,2.9-2.64,0-1-.75-2-2.24-2.84-.57-.29-1.15-.57-1.72-.84l-1.76-.84a10.72,10.72,0,0,1-3.5-2.43,6,6,0,0,1-1.29-4,7,7,0,0,1,2.2-5.33,7.75,7.75,0,0,1,5.49-2.11C683.81,367.7,686.17,369.34,687.71,372.6Z"/><path class="cls-5" d="M717,382.1H699.23a7.59,7.59,0,0,0,2,4.85,6.06,6.06,0,0,0,4.5,1.77,5.83,5.83,0,0,0,3.53-1,14.61,14.61,0,0,0,3.12-3.76l4.83,2.69a19.71,19.71,0,0,1-2.37,3.27,12.27,12.27,0,0,1-2.66,2.23,10.79,10.79,0,0,1-3.07,1.28,15,15,0,0,1-3.58.41,11.64,11.64,0,0,1-8.89-3.56,13.29,13.29,0,0,1-3.35-9.49,13.69,13.69,0,0,1,3.25-9.5,12.38,12.38,0,0,1,17.31-.1q3.15,3.45,3.15,9.57Zm-5.87-4.67q-1.19-4.57-5.76-4.57a6,6,0,0,0-2,.31,5.51,5.51,0,0,0-1.66.92,5.66,5.66,0,0,0-1.28,1.43,6.33,6.33,0,0,0-.81,1.91Z"/><path class="cls-5" d="M728.92,350.23v26.15l8-8h7.67l-10.74,10.38,11.53,14.35H738l-8.18-10.44-.91.92v9.52H723.2V350.23Z"/><path class="cls-5" d="M766.44,368.39h5.74v24.73h-5.74v-2.59a11,11,0,0,1-16.07-.41,13.77,13.77,0,0,1-3.33-9.44,13.35,13.35,0,0,1,3.33-9.27,10.73,10.73,0,0,1,8.33-3.71,10.5,10.5,0,0,1,7.74,3.56Zm-13.56,12.29a8.57,8.57,0,0,0,1.91,5.78,6.21,6.21,0,0,0,4.92,2.26,6.53,6.53,0,0,0,5.13-2.18,9.39,9.39,0,0,0,0-11.48,6.45,6.45,0,0,0-5.07-2.2,6.31,6.31,0,0,0-4.93,2.23A8.27,8.27,0,0,0,752.88,380.68Z"/><path class="cls-5" d="M779.39,368.39h5.72v2.28a11.91,11.91,0,0,1,2.81-2.33,6.76,6.76,0,0,1,3.13-.64,7.57,7.57,0,0,1,6.62,3.66A8.59,8.59,0,0,1,805,367.7q8.35,0,8.35,10.13v15.29h-5.73V379.38a10.56,10.56,0,0,0-.87-5,3.13,3.13,0,0,0-2.92-1.49,3.73,3.73,0,0,0-3.44,1.77c-.72,1.19-1.08,3.09-1.08,5.72v12.77h-5.73V379.46q0-6.6-3.81-6.6a3.83,3.83,0,0,0-3.52,1.8c-.74,1.2-1.1,3.1-1.1,5.69v12.77h-5.72Z"/><path class="cls-5" d="M820.53,368.39h5.71v2.28a11.73,11.73,0,0,1,2.82-2.33,6.74,6.74,0,0,1,3.12-.64,7.59,7.59,0,0,1,6.63,3.66,8.56,8.56,0,0,1,7.28-3.66q8.35,0,8.36,10.13v15.29h-5.74V379.38a10.71,10.71,0,0,0-.86-5,3.15,3.15,0,0,0-2.92-1.49,3.72,3.72,0,0,0-3.44,1.77c-.72,1.19-1.08,3.09-1.08,5.72v12.77h-5.74V379.46q0-6.6-3.81-6.6a3.83,3.83,0,0,0-3.52,1.8,11.32,11.32,0,0,0-1.1,5.69v12.77h-5.71Z"/><path class="cls-5" d="M884.18,382.1H866.46a7.49,7.49,0,0,0,2,4.85,6,6,0,0,0,4.49,1.77,5.83,5.83,0,0,0,3.53-1,14.22,14.22,0,0,0,3.12-3.76l4.83,2.69a19.68,19.68,0,0,1-2.36,3.27,12.56,12.56,0,0,1-2.67,2.23,10.79,10.79,0,0,1-3.07,1.28,15,15,0,0,1-3.58.41,11.66,11.66,0,0,1-8.89-3.56,13.33,13.33,0,0,1-3.35-9.49,13.69,13.69,0,0,1,3.25-9.5,12.39,12.39,0,0,1,17.32-.1q3.15,3.45,3.15,9.57Zm-5.87-4.67q-1.18-4.57-5.76-4.57a6,6,0,0,0-1.95.31,5.56,5.56,0,0,0-1.67.92,5.86,5.86,0,0,0-1.28,1.43,6.33,6.33,0,0,0-.81,1.91Z"/><path class="cls-5" d="M890.43,368.39h5.71v2.21a10.83,10.83,0,0,1,2.79-2.26,6.32,6.32,0,0,1,3-.64,9.24,9.24,0,0,1,4.72,1.47L904,374.4a5.49,5.49,0,0,0-3.17-1.16q-4.66,0-4.67,7.05v12.83h-5.71Z"/><path class="cls-5" d="M927.75,368.39h5.74v24.73h-5.74v-2.59a11,11,0,0,1-16.07-.41,13.77,13.77,0,0,1-3.33-9.44,13.35,13.35,0,0,1,3.33-9.27A10.73,10.73,0,0,1,920,367.7a10.53,10.53,0,0,1,7.74,3.56Zm-13.56,12.29a8.57,8.57,0,0,0,1.91,5.78,6.21,6.21,0,0,0,4.92,2.26,6.53,6.53,0,0,0,5.13-2.18,9.39,9.39,0,0,0,0-11.48,6.47,6.47,0,0,0-5.08-2.2,6.3,6.3,0,0,0-4.92,2.23A8.22,8.22,0,0,0,914.19,380.68Z"/><path class="cls-5" d="M946.59,373.72v19.4h-5.71v-19.4h-2.44v-5.33h2.44v-9.07h5.71v9.07H951v5.33Z"/><path class="cls-5" d="M969.8,380.57a12.29,12.29,0,0,1,3.83-9.11,13.53,13.53,0,0,1,18.74,0,13.24,13.24,0,0,1,0,18.62,13.13,13.13,0,0,1-9.47,3.73,12.59,12.59,0,0,1-9.32-3.81A12.81,12.81,0,0,1,969.8,380.57Zm5.84.11a8.33,8.33,0,0,0,2,5.86,7.71,7.71,0,0,0,10.71,0,9.27,9.27,0,0,0,0-11.53,7,7,0,0,0-5.36-2.18,6.88,6.88,0,0,0-5.3,2.18A7.94,7.94,0,0,0,975.64,380.68Z"/><path class="cls-5" d="M1026.14,392.53q0,1.75-.12,3.09a21.47,21.47,0,0,1-.31,2.35,10.58,10.58,0,0,1-2.39,4.8,11.57,11.57,0,0,1-9.22,3.85A12.3,12.3,0,0,1,1006,404a10.91,10.91,0,0,1-3.81-7.59h5.74a6.6,6.6,0,0,0,1.09,2.82,6.15,6.15,0,0,0,5.18,2.31q6.27,0,6.28-7.7v-3.45a10.68,10.68,0,0,1-7.85,3.48,10.54,10.54,0,0,1-8.28-3.66,13.58,13.58,0,0,1-3.25-9.27,14.31,14.31,0,0,1,3-9.19,10.52,10.52,0,0,1,8.59-4,10,10,0,0,1,7.77,3.48v-2.79h5.71Zm-5.49-11.73a8.31,8.31,0,0,0-1.93-5.76,6.38,6.38,0,0,0-5-2.21,6.16,6.16,0,0,0-5.13,2.41,8.78,8.78,0,0,0-1.7,5.59,8.67,8.67,0,0,0,1.7,5.53,6.15,6.15,0,0,0,5.13,2.36,6.26,6.26,0,0,0,5.18-2.38A8.51,8.51,0,0,0,1020.65,380.8Z"/><path class="cls-5" d="M1067.63,350.23h5.74v42.89h-5.74v-2.59a10.66,10.66,0,0,1-7.65,3.3,10.91,10.91,0,0,1-8.43-3.71,13.81,13.81,0,0,1-3.32-9.44,13.39,13.39,0,0,1,3.32-9.25,10.69,10.69,0,0,1,16.08-.17Zm-13.56,30.45a8.57,8.57,0,0,0,1.9,5.78,6.24,6.24,0,0,0,4.93,2.26,6.56,6.56,0,0,0,5.13-2.18,9.42,9.42,0,0,0,0-11.48,6.48,6.48,0,0,0-5.08-2.2,6.32,6.32,0,0,0-4.93,2.23A8.26,8.26,0,0,0,1054.07,380.68Z"/><path class="cls-5" d="M1103.1,382.1h-17.72a7.49,7.49,0,0,0,2,4.85,6,6,0,0,0,4.49,1.77,5.83,5.83,0,0,0,3.53-1,14.61,14.61,0,0,0,3.12-3.76l4.83,2.69a19.71,19.71,0,0,1-2.37,3.27,12.27,12.27,0,0,1-2.66,2.23,10.79,10.79,0,0,1-3.07,1.28,15,15,0,0,1-3.58.41,11.64,11.64,0,0,1-8.89-3.56,13.33,13.33,0,0,1-3.35-9.49,13.69,13.69,0,0,1,3.25-9.5,12.38,12.38,0,0,1,17.31-.1q3.15,3.45,3.15,9.57Zm-5.87-4.67q-1.18-4.57-5.76-4.57a6,6,0,0,0-2,.31,5.51,5.51,0,0,0-1.66.92,5.66,5.66,0,0,0-1.28,1.43,6.33,6.33,0,0,0-.81,1.91Z"/><path class="cls-5" d="M1115.69,373.72v19.4H1110v-19.4h-2.44v-5.33H1110v-9.07h5.71v9.07h4.44v5.33Z"/><path class="cls-5" d="M1162.59,382.1h-17.72a7.49,7.49,0,0,0,2,4.85,6,6,0,0,0,4.49,1.77,5.83,5.83,0,0,0,3.53-1A14.61,14.61,0,0,0,1158,384l4.83,2.69a20.28,20.28,0,0,1-2.36,3.27,12.56,12.56,0,0,1-2.67,2.23,10.79,10.79,0,0,1-3.07,1.28,15,15,0,0,1-3.58.41,11.64,11.64,0,0,1-8.89-3.56,13.33,13.33,0,0,1-3.35-9.49,13.69,13.69,0,0,1,3.25-9.5,12.38,12.38,0,0,1,17.31-.1q3.15,3.45,3.15,9.57Zm-5.87-4.67q-1.18-4.57-5.76-4.57a6,6,0,0,0-2,.31,5.51,5.51,0,0,0-1.66.92,5.66,5.66,0,0,0-1.28,1.43,6.33,6.33,0,0,0-.81,1.91Z"/><path class="cls-5" d="M1168.83,368.39h5.72v2.21a10.83,10.83,0,0,1,2.79-2.26,6.32,6.32,0,0,1,3-.64,9.24,9.24,0,0,1,4.72,1.47l-2.62,5.23a5.49,5.49,0,0,0-3.17-1.16c-3.12,0-4.67,2.35-4.67,7.05v12.83h-5.72Z"/><path class="cls-5" d="M1210,368.39v14.19c0,4.1,1.62,6.14,4.85,6.14s4.85-2,4.85-6.14V368.39h5.72v14.32a16,16,0,0,1-.74,5.13,8.65,8.65,0,0,1-2.46,3.47,12,12,0,0,1-14.71,0,8.79,8.79,0,0,1-2.51-3.47,14.23,14.23,0,0,1-.71-5.13V368.39Z"/><path class="cls-5" d="M1238.38,350.23v42.89h-5.71V350.23Z"/><path class="cls-5" d="M1244.45,380.57a12.29,12.29,0,0,1,3.83-9.11,13.53,13.53,0,0,1,18.74,0,13.24,13.24,0,0,1,0,18.62,13.13,13.13,0,0,1-9.47,3.73,12.55,12.55,0,0,1-9.31-3.81A12.78,12.78,0,0,1,1244.45,380.57Zm5.84.11a8.33,8.33,0,0,0,2,5.86,7.71,7.71,0,0,0,10.71,0,9.27,9.27,0,0,0,0-11.53,7,7,0,0,0-5.36-2.18,6.88,6.88,0,0,0-5.3,2.18A7.94,7.94,0,0,0,1250.29,380.68Z"/><path class="cls-5" d="M1278.9,368.39l6.4,13.89,6.37-13.89h6.43l-12.85,26.43-12.75-26.43Z"/><path class="cls-5" d="M1308.13,350.23v42.89h-5.72V350.23Z"/><path class="cls-5" d="M1314.5,358.1a3.55,3.55,0,0,1,1.09-2.59,3.72,3.72,0,0,1,5.26,0,3.52,3.52,0,0,1,1.09,2.62,3.59,3.59,0,0,1-1.09,2.64,3.52,3.52,0,0,1-2.62,1.09,3.72,3.72,0,0,1-3.73-3.76Zm6.58,10.29v24.73h-5.72V368.39Z"/><path class="cls-5" d="M1352.23,392.53c0,1.17,0,2.2-.11,3.09s-.19,1.67-.32,2.35a10.48,10.48,0,0,1-2.39,4.8,11.55,11.55,0,0,1-9.21,3.85A12.31,12.31,0,0,1,1332,404a10.9,10.9,0,0,1-3.8-7.59H1334a6.47,6.47,0,0,0,1.1,2.82,6.13,6.13,0,0,0,5.18,2.31q6.27,0,6.27-7.7v-3.45a10.68,10.68,0,0,1-7.85,3.48,10.54,10.54,0,0,1-8.28-3.66,13.58,13.58,0,0,1-3.25-9.27,14.26,14.26,0,0,1,3-9.19,10.49,10.49,0,0,1,8.58-4,10,10,0,0,1,7.77,3.48v-2.79h5.71Zm-5.48-11.73a8.36,8.36,0,0,0-1.93-5.76,6.4,6.4,0,0,0-5-2.21,6.13,6.13,0,0,0-5.12,2.41,8.73,8.73,0,0,0-1.71,5.59,8.61,8.61,0,0,0,1.71,5.53,6.12,6.12,0,0,0,5.12,2.36,6.26,6.26,0,0,0,5.18-2.38A8.51,8.51,0,0,0,1346.75,380.8Z"/><path class="cls-5" d="M1365.33,373.72v19.4h-5.71v-19.4h-2.44v-5.33h2.44v-9.07h5.71v9.07h4.45v5.33Z"/><path class="cls-5" d="M1374.55,390.27a3.47,3.47,0,1,1,1,2.54A3.45,3.45,0,0,1,1374.55,390.27Z"/><path class="cls-5" d="M453.22,478.71v39.21h-5.91V478.71Z"/><path class="cls-5" d="M479.78,475h5.74v42.89h-5.74v-2.59a10.66,10.66,0,0,1-7.64,3.3,10.89,10.89,0,0,1-8.43-3.71,13.77,13.77,0,0,1-3.33-9.44,13.35,13.35,0,0,1,3.33-9.25,10.64,10.64,0,0,1,8.3-3.73,10.53,10.53,0,0,1,7.77,3.56Zm-13.56,30.45a8.62,8.62,0,0,0,1.91,5.79,6.24,6.24,0,0,0,4.92,2.26,6.54,6.54,0,0,0,5.13-2.19,9.37,9.37,0,0,0,0-11.47,6.42,6.42,0,0,0-5.07-2.21,6.31,6.31,0,0,0-4.93,2.23A8.27,8.27,0,0,0,466.22,505.48Z"/><path class="cls-5" d="M515.25,506.9H497.53a7.49,7.49,0,0,0,2,4.85,6.07,6.07,0,0,0,4.5,1.78,5.85,5.85,0,0,0,3.53-1,14.61,14.61,0,0,0,3.12-3.76l4.82,2.69a19.13,19.13,0,0,1-2.36,3.27,12.76,12.76,0,0,1-2.66,2.23,10.85,10.85,0,0,1-3.08,1.28,15,15,0,0,1-3.58.41,11.62,11.62,0,0,1-8.88-3.56,13.29,13.29,0,0,1-3.36-9.49,13.74,13.74,0,0,1,3.25-9.5,11.24,11.24,0,0,1,8.69-3.58,11.1,11.1,0,0,1,8.63,3.48q3.15,3.45,3.15,9.57Zm-5.86-4.67q-1.2-4.58-5.77-4.57a6,6,0,0,0-1.95.31,5.74,5.74,0,0,0-1.66.92,5.89,5.89,0,0,0-1.29,1.43,7,7,0,0,0-.81,1.91Z"/><path class="cls-5" d="M544,506.9H526.3a7.49,7.49,0,0,0,2,4.85,6.07,6.07,0,0,0,4.49,1.78,5.81,5.81,0,0,0,3.53-1,14.41,14.41,0,0,0,3.13-3.76l4.82,2.69a19.68,19.68,0,0,1-2.36,3.27,12.56,12.56,0,0,1-2.67,2.23,10.79,10.79,0,0,1-3.07,1.28,15,15,0,0,1-3.58.41,11.66,11.66,0,0,1-8.89-3.56,13.33,13.33,0,0,1-3.35-9.49,13.74,13.74,0,0,1,3.25-9.5,11.24,11.24,0,0,1,8.69-3.58A11.1,11.1,0,0,1,540.9,496q3.15,3.45,3.15,9.57Zm-5.86-4.67q-1.2-4.58-5.77-4.57a6,6,0,0,0-1.95.31,5.79,5.79,0,0,0-1.67.92,6.07,6.07,0,0,0-1.28,1.43,7,7,0,0,0-.81,1.91Z"/><path class="cls-5" d="M550.27,493.19H556v2.28a9.34,9.34,0,0,1,6.75-3,8.54,8.54,0,0,1,6.73,2.72q2.09,2.31,2.08,7.54v15.16h-5.74V504.11q0-3.66-1-5.06c-.66-.95-1.87-1.42-3.61-1.42a4.43,4.43,0,0,0-4,1.88c-.77,1.24-1.16,3.39-1.16,6.47v11.94h-5.74Z"/><path class="cls-5" d="M593.66,505.38a12.3,12.3,0,0,1,3.83-9.12,13.52,13.52,0,0,1,18.74,0,13.24,13.24,0,0,1,0,18.61,13.15,13.15,0,0,1-9.47,3.73,12.56,12.56,0,0,1-9.32-3.81A12.79,12.79,0,0,1,593.66,505.38Zm5.84.1a8.33,8.33,0,0,0,2,5.86,7.69,7.69,0,0,0,10.72,0,9.31,9.31,0,0,0,0-11.53,7.62,7.62,0,0,0-10.67,0A8,8,0,0,0,599.5,505.48Z"/><path class="cls-5" d="M626.08,493.19h5.72v2.28a11.73,11.73,0,0,1,2.82-2.33,6.72,6.72,0,0,1,3.12-.64,7.59,7.59,0,0,1,6.63,3.66,8.56,8.56,0,0,1,7.28-3.66q8.36,0,8.36,10.13v15.29h-5.74V504.18a10.56,10.56,0,0,0-.87-5,3.13,3.13,0,0,0-2.92-1.49,3.73,3.73,0,0,0-3.44,1.77c-.72,1.19-1.08,3.09-1.08,5.72v12.77h-5.73V504.26q0-6.6-3.81-6.6a3.83,3.83,0,0,0-3.52,1.8,11.32,11.32,0,0,0-1.1,5.69v12.77h-5.72Z"/><path class="cls-5" d="M701.49,493.19h5.74v24.73h-5.74v-2.59a11,11,0,0,1-16.07-.41,13.76,13.76,0,0,1-3.32-9.44,13.34,13.34,0,0,1,3.32-9.27,10.74,10.74,0,0,1,8.33-3.71,10.5,10.5,0,0,1,7.74,3.56Zm-13.55,12.29a8.61,8.61,0,0,0,1.9,5.79,6.26,6.26,0,0,0,4.93,2.26,6.53,6.53,0,0,0,5.12-2.19,9.37,9.37,0,0,0,0-11.47,6.42,6.42,0,0,0-5.07-2.21,6.31,6.31,0,0,0-4.93,2.23A8.26,8.26,0,0,0,687.94,505.48Z"/><path class="cls-5" d="M720.33,498.52v19.4h-5.71v-19.4h-2.44v-5.33h2.44v-9.07h5.71v9.07h4.45v5.33Z"/><path class="cls-5" d="M750.62,498.52v19.4h-5.73v-19.4h-2v-5.33h2v-9.55q0-4.67,1.62-6.6a8,8,0,0,1,6.5-2.69,11,11,0,0,1,3.84.89v5.84l-.59-.31a7.09,7.09,0,0,0-3-.94,2.07,2.07,0,0,0-2.05,1.09,10.43,10.43,0,0,0-.54,4.12v8.15h6.23v5.33Z"/><path class="cls-5" d="M779.16,493.19h5.74v24.73h-5.74v-2.59a11,11,0,0,1-16.07-.41,13.76,13.76,0,0,1-3.32-9.44,13.34,13.34,0,0,1,3.32-9.27,10.73,10.73,0,0,1,8.33-3.71,10.5,10.5,0,0,1,7.74,3.56Zm-13.55,12.29a8.61,8.61,0,0,0,1.9,5.79,6.26,6.26,0,0,0,4.93,2.26,6.53,6.53,0,0,0,5.12-2.19,9.37,9.37,0,0,0,0-11.47,6.42,6.42,0,0,0-5.07-2.21,6.31,6.31,0,0,0-4.93,2.23A8.26,8.26,0,0,0,765.61,505.48Zm1.95-21.71a5.19,5.19,0,0,1,1.63-3.84,5.49,5.49,0,0,1,7.79,0,5.5,5.5,0,0,1,0,7.82,5.23,5.23,0,0,1-3.88,1.63,5.34,5.34,0,0,1-3.94-1.63A5.44,5.44,0,0,1,767.56,483.77Zm3,.05a2.42,2.42,0,0,0,.73,1.81,2.39,2.39,0,0,0,1.79.73,2.48,2.48,0,0,0,2.51-2.52,2.52,2.52,0,0,0-3.5-2.31,2.53,2.53,0,0,0-.8.55,2.46,2.46,0,0,0-.54.8A2.54,2.54,0,0,0,770.58,483.82Z"/><path class="cls-5" d="M826.39,493.19h5.74v24.73h-5.74v-2.59a11,11,0,0,1-16.07-.41,13.77,13.77,0,0,1-3.33-9.44,13.35,13.35,0,0,1,3.33-9.27,10.73,10.73,0,0,1,8.33-3.71,10.52,10.52,0,0,1,7.74,3.56Zm-13.56,12.29a8.62,8.62,0,0,0,1.91,5.79,6.24,6.24,0,0,0,4.92,2.26,6.54,6.54,0,0,0,5.13-2.19,9.37,9.37,0,0,0,0-11.47,6.44,6.44,0,0,0-5.08-2.21,6.3,6.3,0,0,0-4.92,2.23A8.22,8.22,0,0,0,812.83,505.48Z"/><path class="cls-5" d="M845.05,475v42.89h-5.71V475Z"/><path class="cls-5" d="M858,475v42.89h-5.71V475Z"/><path class="cls-5" d="M887.76,506.9H870a7.49,7.49,0,0,0,2,4.85,6,6,0,0,0,4.49,1.78,5.83,5.83,0,0,0,3.53-1,14.22,14.22,0,0,0,3.12-3.76l4.83,2.69a19.68,19.68,0,0,1-2.36,3.27,12.56,12.56,0,0,1-2.67,2.23,10.79,10.79,0,0,1-3.07,1.28,15,15,0,0,1-3.58.41,11.66,11.66,0,0,1-8.89-3.56,13.33,13.33,0,0,1-3.35-9.49,13.69,13.69,0,0,1,3.25-9.5,12.39,12.39,0,0,1,17.32-.1q3.15,3.45,3.15,9.57Zm-5.87-4.67q-1.18-4.58-5.76-4.57a6,6,0,0,0-2,.31,5.79,5.79,0,0,0-1.67.92,5.86,5.86,0,0,0-1.28,1.43,6.71,6.71,0,0,0-.81,1.91Z"/><path class="cls-5" d="M915.94,498.52v19.4h-5.71v-19.4h-2.44v-5.33h2.44v-9.07h5.71v9.07h4.45v5.33Z"/><path class="cls-5" d="M923.41,482.9a3.55,3.55,0,0,1,1.09-2.59,3.72,3.72,0,1,1,5.26,5.26,3.53,3.53,0,0,1-2.62,1.09,3.72,3.72,0,0,1-3.73-3.76ZM930,493.19v24.73h-5.71V493.19Z"/><path class="cls-5" d="M942.93,475v42.89h-5.71V475Z"/><path class="cls-5" d="M984.45,493.19h5.74v24.73h-5.74v-2.59a11,11,0,0,1-16.07-.41,13.77,13.77,0,0,1-3.33-9.44,13.35,13.35,0,0,1,3.33-9.27,10.71,10.71,0,0,1,8.32-3.71,10.54,10.54,0,0,1,7.75,3.56Zm-13.56,12.29a8.61,8.61,0,0,0,1.9,5.79,6.28,6.28,0,0,0,4.93,2.26,6.57,6.57,0,0,0,5.13-2.19,9.41,9.41,0,0,0,0-11.47,6.46,6.46,0,0,0-5.08-2.21,6.32,6.32,0,0,0-4.93,2.23A8.26,8.26,0,0,0,970.89,505.48Z"/><path class="cls-5" d="M1003.29,498.52v19.4h-5.72v-19.4h-2.43v-5.33h2.43v-9.07h5.72v9.07h4.44v5.33Z"/><path class="cls-5" d="M1042,497.4l-4.72,2.52c-.74-1.53-1.67-2.29-2.77-2.29a1.88,1.88,0,0,0-1.34.52,1.75,1.75,0,0,0-.56,1.33q0,1.42,3.3,2.82,4.55,2,6.12,3.61a6.16,6.16,0,0,1,1.57,4.44,7.77,7.77,0,0,1-2.64,6,9,9,0,0,1-6.19,2.29q-6.22,0-8.81-6.07l4.87-2.26a10.36,10.36,0,0,0,1.55,2.26,3.54,3.54,0,0,0,2.49,1c1.93,0,2.89-.89,2.89-2.65,0-1-.74-2-2.23-2.84-.58-.29-1.15-.57-1.73-.84l-1.75-.83a10.76,10.76,0,0,1-3.5-2.44,6,6,0,0,1-1.3-4,7.05,7.05,0,0,1,2.21-5.33,7.74,7.74,0,0,1,5.48-2.11Q1039.73,492.5,1042,497.4Z"/><path class="cls-5" d="M1054.47,475v42.89h-5.71V475Z"/><path class="cls-5" d="M1084.23,506.9h-17.72a7.49,7.49,0,0,0,2,4.85,6.07,6.07,0,0,0,4.49,1.78,5.81,5.81,0,0,0,3.53-1,14.41,14.41,0,0,0,3.13-3.76l4.82,2.69a19.13,19.13,0,0,1-2.36,3.27,12.56,12.56,0,0,1-2.67,2.23,10.67,10.67,0,0,1-3.07,1.28,15,15,0,0,1-3.58.41,11.66,11.66,0,0,1-8.89-3.56,13.33,13.33,0,0,1-3.35-9.49,13.74,13.74,0,0,1,3.25-9.5,11.24,11.24,0,0,1,8.69-3.58,11.1,11.1,0,0,1,8.63,3.48q3.15,3.45,3.15,9.57Zm-5.86-4.67q-1.2-4.58-5.77-4.57a6,6,0,0,0-1.95.31,5.61,5.61,0,0,0-1.66.92,5.89,5.89,0,0,0-1.29,1.43,7,7,0,0,0-.81,1.91Z"/><path class="cls-5" d="M1096.83,498.52v19.4h-5.72v-19.4h-2.43v-5.33h2.43v-9.07h5.72v9.07h4.44v5.33Z"/><path class="cls-5" d="M1111,498.52v19.4h-5.71v-19.4h-2.44v-5.33h2.44v-9.07H1111v9.07h4.45v5.33Z"/><path class="cls-5" d="M1142.35,506.9h-17.72a7.49,7.49,0,0,0,2,4.85,6.07,6.07,0,0,0,4.49,1.78,5.81,5.81,0,0,0,3.53-1,14.41,14.41,0,0,0,3.13-3.76l4.82,2.69a19.68,19.68,0,0,1-2.36,3.27,12.56,12.56,0,0,1-2.67,2.23,10.79,10.79,0,0,1-3.07,1.28,15,15,0,0,1-3.58.41,11.66,11.66,0,0,1-8.89-3.56,13.33,13.33,0,0,1-3.35-9.49,13.74,13.74,0,0,1,3.25-9.5,11.24,11.24,0,0,1,8.69-3.58,11.1,11.1,0,0,1,8.63,3.48q3.15,3.45,3.15,9.57Zm-5.86-4.67q-1.2-4.58-5.77-4.57a6,6,0,0,0-2,.31,5.79,5.79,0,0,0-1.67.92,6.07,6.07,0,0,0-1.28,1.43,7,7,0,0,0-.81,1.91Z"/><path class="cls-5" d="M1170.36,475v21a10.53,10.53,0,0,1,7.77-3.56,10.73,10.73,0,0,1,8.33,3.73,13.39,13.39,0,0,1,3.32,9.25,13.61,13.61,0,0,1-3.35,9.44,10.81,10.81,0,0,1-8.4,3.71,10.69,10.69,0,0,1-7.67-3.3v2.59h-5.72V475Zm13.58,30.7a8.53,8.53,0,0,0-1.93-5.79,6.17,6.17,0,0,0-4.9-2.28,6.55,6.55,0,0,0-5.13,2.21,8.2,8.2,0,0,0-2,5.68,8.32,8.32,0,0,0,1.93,5.77,6.42,6.42,0,0,0,5.08,2.21,6.29,6.29,0,0,0,4.92-2.21A8.13,8.13,0,0,0,1183.94,505.73Z"/><path class="cls-5" d="M1195,482.9a3.72,3.72,0,0,1,3.71-3.68,3.63,3.63,0,0,1,2.64,1.09,3.53,3.53,0,0,1,1.09,2.62,3.59,3.59,0,0,1-1.09,2.64,3.5,3.5,0,0,1-2.62,1.09,3.59,3.59,0,0,1-2.64-1.09A3.67,3.67,0,0,1,1195,482.9Zm6.58,10.29v24.73h-5.72V493.19Z"/><path class="cls-5" d="M1214.49,475v42.89h-5.72V475Z"/><path class="cls-5" d="M1227.44,475v42.89h-5.72V475Z"/><path class="cls-5" d="M1257.19,506.9h-17.72a7.49,7.49,0,0,0,2,4.85,6.07,6.07,0,0,0,4.5,1.78,5.8,5.8,0,0,0,3.52-1,14.41,14.41,0,0,0,3.13-3.76l4.82,2.69a19.13,19.13,0,0,1-2.36,3.27,12.56,12.56,0,0,1-2.67,2.23,10.67,10.67,0,0,1-3.07,1.28,15,15,0,0,1-3.58.41,11.62,11.62,0,0,1-8.88-3.56,13.29,13.29,0,0,1-3.36-9.49,13.74,13.74,0,0,1,3.25-9.5,11.24,11.24,0,0,1,8.69-3.58,11.1,11.1,0,0,1,8.63,3.48q3.15,3.45,3.15,9.57Zm-5.86-4.67q-1.2-4.58-5.77-4.57a6,6,0,0,0-2,.31,5.74,5.74,0,0,0-1.66.92,5.89,5.89,0,0,0-1.29,1.43,7,7,0,0,0-.81,1.91Z"/><path class="cls-5" d="M1281.67,475h5.74v42.89h-5.74v-2.59a10.66,10.66,0,0,1-7.64,3.3,10.88,10.88,0,0,1-8.43-3.71,13.77,13.77,0,0,1-3.33-9.44,13.35,13.35,0,0,1,3.33-9.25,10.68,10.68,0,0,1,16.07-.17Zm-13.56,30.45a8.62,8.62,0,0,0,1.91,5.79,6.24,6.24,0,0,0,4.92,2.26,6.54,6.54,0,0,0,5.13-2.19,9.37,9.37,0,0,0,0-11.47,6.44,6.44,0,0,0-5.08-2.21,6.3,6.3,0,0,0-4.92,2.23A8.22,8.22,0,0,0,1268.11,505.48Z"/><path class="cls-5" d="M1317.14,506.9h-17.72a7.49,7.49,0,0,0,2,4.85,6,6,0,0,0,4.49,1.78,5.83,5.83,0,0,0,3.53-1,14.22,14.22,0,0,0,3.12-3.76l4.83,2.69a19.68,19.68,0,0,1-2.36,3.27,12.56,12.56,0,0,1-2.67,2.23,10.79,10.79,0,0,1-3.07,1.28,15,15,0,0,1-3.58.41,11.66,11.66,0,0,1-8.89-3.56,13.33,13.33,0,0,1-3.35-9.49,13.69,13.69,0,0,1,3.25-9.5A12.39,12.39,0,0,1,1314,496q3.15,3.45,3.15,9.57Zm-5.86-4.67q-1.2-4.58-5.77-4.57a6,6,0,0,0-2,.31,5.79,5.79,0,0,0-1.67.92,5.86,5.86,0,0,0-1.28,1.43,7,7,0,0,0-.81,1.91Z"/><path class="cls-5" d="M1323.39,493.19h5.71v2.21a10.83,10.83,0,0,1,2.79-2.26,6.32,6.32,0,0,1,2.95-.64,9.24,9.24,0,0,1,4.72,1.47l-2.61,5.24a5.49,5.49,0,0,0-3.18-1.17q-4.66,0-4.67,7.06v12.82h-5.71Z"/><path class="cls-5" d="M1343.62,493.19h5.74v2.28a9.37,9.37,0,0,1,6.76-3,8.52,8.52,0,0,1,6.72,2.72q2.09,2.31,2.09,7.54v15.16h-5.74V504.11q0-3.66-1-5.06c-.66-.95-1.86-1.42-3.6-1.42a4.42,4.42,0,0,0-4,1.88c-.78,1.24-1.17,3.39-1.17,6.47v11.94h-5.74Z"/><path class="cls-5" d="M1394.66,506.9h-17.72a7.49,7.49,0,0,0,2,4.85,6,6,0,0,0,4.49,1.78,5.83,5.83,0,0,0,3.53-1,14.61,14.61,0,0,0,3.12-3.76l4.83,2.69a20.28,20.28,0,0,1-2.36,3.27,12.56,12.56,0,0,1-2.67,2.23,10.79,10.79,0,0,1-3.07,1.28,15,15,0,0,1-3.58.41,11.64,11.64,0,0,1-8.89-3.56,13.33,13.33,0,0,1-3.35-9.49,13.69,13.69,0,0,1,3.25-9.5,12.39,12.39,0,0,1,17.32-.1q3.14,3.45,3.14,9.57Zm-5.87-4.67q-1.18-4.58-5.76-4.57a6,6,0,0,0-2,.31,5.74,5.74,0,0,0-1.66.92,5.66,5.66,0,0,0-1.28,1.43,6.44,6.44,0,0,0-.81,1.91Z"/><path class="cls-5" d="M1439.47,506.9h-17.72a7.49,7.49,0,0,0,2,4.85,6.07,6.07,0,0,0,4.49,1.78,5.81,5.81,0,0,0,3.53-1,14.41,14.41,0,0,0,3.13-3.76l4.82,2.69a19.13,19.13,0,0,1-2.36,3.27,12.56,12.56,0,0,1-2.67,2.23,10.67,10.67,0,0,1-3.07,1.28,15,15,0,0,1-3.58.41,11.66,11.66,0,0,1-8.89-3.56,13.33,13.33,0,0,1-3.35-9.49,13.74,13.74,0,0,1,3.25-9.5,11.24,11.24,0,0,1,8.69-3.58,11.1,11.1,0,0,1,8.63,3.48q3.15,3.45,3.15,9.57Zm-5.86-4.67q-1.2-4.58-5.77-4.57a6,6,0,0,0-1.95.31,5.61,5.61,0,0,0-1.66.92,5.89,5.89,0,0,0-1.29,1.43,7,7,0,0,0-.81,1.91Z"/><path class="cls-5" d="M1445.72,493.19h5.71v2.21a10.83,10.83,0,0,1,2.79-2.26,6.35,6.35,0,0,1,3-.64,9.22,9.22,0,0,1,4.72,1.47l-2.61,5.24a5.46,5.46,0,0,0-3.18-1.17q-4.66,0-4.67,7.06v12.82h-5.71Z"/><path class="cls-5" d="M1503.74,506.9H1486a7.59,7.59,0,0,0,2,4.85,6.07,6.07,0,0,0,4.5,1.78,5.83,5.83,0,0,0,3.53-1,14.61,14.61,0,0,0,3.12-3.76l4.82,2.69a19.13,19.13,0,0,1-2.36,3.27,12.51,12.51,0,0,1-2.66,2.23,10.79,10.79,0,0,1-3.07,1.28,15.09,15.09,0,0,1-3.58.41,11.63,11.63,0,0,1-8.89-3.56,13.29,13.29,0,0,1-3.35-9.49,13.69,13.69,0,0,1,3.25-9.5,11.22,11.22,0,0,1,8.68-3.58,11.09,11.09,0,0,1,8.63,3.48q3.15,3.45,3.15,9.57Zm-5.87-4.67c-.79-3.05-2.72-4.57-5.76-4.57a6,6,0,0,0-2,.31,5.74,5.74,0,0,0-1.66.92,5.66,5.66,0,0,0-1.28,1.43,6.72,6.72,0,0,0-.82,1.91Z"/><path class="cls-5" d="M1510,493.19h5.74v2.28a9.37,9.37,0,0,1,6.75-3,8.54,8.54,0,0,1,6.73,2.72q2.08,2.31,2.09,7.54v15.16h-5.74V504.11q0-3.66-1-5.06c-.66-.95-1.86-1.42-3.6-1.42a4.41,4.41,0,0,0-4,1.88c-.78,1.24-1.17,3.39-1.17,6.47v11.94H1510Z"/><path class="cls-5" d="M446.22,555.59h5.71v2.21a10.83,10.83,0,0,1,2.79-2.26,6.32,6.32,0,0,1,2.95-.64,9.24,9.24,0,0,1,4.72,1.47l-2.61,5.23a5.54,5.54,0,0,0-3.18-1.16q-4.67,0-4.67,7.06v12.82h-5.71Z"/><path class="cls-5" d="M465.59,545.3a3.53,3.53,0,0,1,1.09-2.59,3.72,3.72,0,0,1,5.26,0,3.52,3.52,0,0,1,1.09,2.62,3.59,3.59,0,0,1-1.09,2.64,3.52,3.52,0,0,1-2.62,1.09,3.72,3.72,0,0,1-3.73-3.76Zm6.58,10.29v24.73h-5.72V555.59Z"/><path class="cls-5" d="M503.32,579.73c0,1.17,0,2.2-.11,3.09s-.19,1.67-.32,2.35a10.48,10.48,0,0,1-2.39,4.8,11.56,11.56,0,0,1-9.21,3.86,12.31,12.31,0,0,1-8.16-2.67,10.9,10.9,0,0,1-3.8-7.59h5.73a6.47,6.47,0,0,0,1.1,2.82,6.13,6.13,0,0,0,5.18,2.31q6.27,0,6.27-7.7v-3.45a10.68,10.68,0,0,1-7.85,3.48,10.54,10.54,0,0,1-8.28-3.66,13.58,13.58,0,0,1-3.25-9.27,14.26,14.26,0,0,1,3-9.19,10.49,10.49,0,0,1,8.58-4,10,10,0,0,1,7.77,3.48v-2.79h5.71ZM497.84,568a8.36,8.36,0,0,0-1.93-5.76,6.4,6.4,0,0,0-5-2.21,6.13,6.13,0,0,0-5.12,2.41,8.73,8.73,0,0,0-1.71,5.59,8.63,8.63,0,0,0,1.71,5.53,6.12,6.12,0,0,0,5.12,2.36,6.26,6.26,0,0,0,5.18-2.38A8.51,8.51,0,0,0,497.84,568Z"/><path class="cls-5" d="M516.42,560.92v19.4h-5.71v-19.4h-2.44v-5.33h2.44v-9.07h5.71v9.07h4.45v5.33Z"/><path class="cls-5" d="M523.89,545.3a3.53,3.53,0,0,1,1.09-2.59,3.71,3.71,0,0,1,5.25,0,3.53,3.53,0,0,1,1.1,2.62,3.6,3.6,0,0,1-1.1,2.64,3.5,3.5,0,0,1-2.61,1.09,3.72,3.72,0,0,1-3.73-3.76Zm6.57,10.29v24.73h-5.71V555.59Z"/><path class="cls-5" d="M561.62,579.73q0,1.75-.12,3.09a21.47,21.47,0,0,1-.31,2.35,10.58,10.58,0,0,1-2.39,4.8,11.59,11.59,0,0,1-9.22,3.86,12.28,12.28,0,0,1-8.15-2.67,10.91,10.91,0,0,1-3.81-7.59h5.74a6.6,6.6,0,0,0,1.09,2.82,6.14,6.14,0,0,0,5.18,2.31q6.27,0,6.27-7.7v-3.45a10.64,10.64,0,0,1-7.84,3.48,10.54,10.54,0,0,1-8.28-3.66,13.53,13.53,0,0,1-3.25-9.27,14.31,14.31,0,0,1,3-9.19,10.52,10.52,0,0,1,8.58-4,10,10,0,0,1,7.77,3.48v-2.79h5.72ZM556.13,568a8.31,8.31,0,0,0-1.93-5.76,6.38,6.38,0,0,0-5-2.21,6.15,6.15,0,0,0-5.13,2.41,8.78,8.78,0,0,0-1.7,5.59,8.69,8.69,0,0,0,1.7,5.53,6.15,6.15,0,0,0,5.13,2.36,6.28,6.28,0,0,0,5.18-2.38A8.51,8.51,0,0,0,556.13,568Z"/><path class="cls-5" d="M608.79,579.73c0,1.17,0,2.2-.11,3.09a21.29,21.29,0,0,1-.32,2.35A10.38,10.38,0,0,1,606,590a11.56,11.56,0,0,1-9.21,3.86,12.28,12.28,0,0,1-8.15-2.67,10.91,10.91,0,0,1-3.81-7.59h5.74a6.47,6.47,0,0,0,1.09,2.82,6.13,6.13,0,0,0,5.18,2.31q6.27,0,6.27-7.7v-3.45a10.67,10.67,0,0,1-7.85,3.48,10.53,10.53,0,0,1-8.27-3.66,13.53,13.53,0,0,1-3.25-9.27,14.26,14.26,0,0,1,3-9.19,10.52,10.52,0,0,1,8.58-4,10,10,0,0,1,7.77,3.48v-2.79h5.71ZM603.31,568a8.31,8.31,0,0,0-1.93-5.76,6.38,6.38,0,0,0-5-2.21,6.14,6.14,0,0,0-5.13,2.41,8.73,8.73,0,0,0-1.7,5.59,8.63,8.63,0,0,0,1.7,5.53,6.13,6.13,0,0,0,5.13,2.36,6.28,6.28,0,0,0,5.18-2.38A8.56,8.56,0,0,0,603.31,568Z"/><path class="cls-5" d="M614.84,567.77a12.25,12.25,0,0,1,3.83-9.11,13.53,13.53,0,0,1,18.74,0,13.24,13.24,0,0,1,0,18.62,13.13,13.13,0,0,1-9.47,3.73,12.59,12.59,0,0,1-9.32-3.81A12.83,12.83,0,0,1,614.84,567.77Zm5.84.11a8.33,8.33,0,0,0,2,5.86,7.71,7.71,0,0,0,10.71,0,9.27,9.27,0,0,0,0-11.53,7,7,0,0,0-5.36-2.18,6.88,6.88,0,0,0-5.3,2.18A7.92,7.92,0,0,0,620.68,567.88Z"/><path class="cls-5" d="M665.49,537.43h5.74v42.89h-5.74v-2.59a10.66,10.66,0,0,1-7.64,3.3,10.88,10.88,0,0,1-8.43-3.71,13.77,13.77,0,0,1-3.33-9.44,13.35,13.35,0,0,1,3.33-9.25,10.64,10.64,0,0,1,8.3-3.73,10.53,10.53,0,0,1,7.77,3.56Zm-13.56,30.45a8.62,8.62,0,0,0,1.91,5.79,6.23,6.23,0,0,0,4.92,2.25,6.53,6.53,0,0,0,5.13-2.18,9.39,9.39,0,0,0,0-11.48,6.47,6.47,0,0,0-5.08-2.2,6.3,6.3,0,0,0-4.92,2.23A8.22,8.22,0,0,0,651.93,567.88Z"/><path class="cls-5" d="M693.62,545.3a3.72,3.72,0,0,1,3.71-3.68,3.63,3.63,0,0,1,2.64,1.09,3.52,3.52,0,0,1,1.09,2.62A3.59,3.59,0,0,1,700,548a3.5,3.5,0,0,1-2.61,1.09,3.6,3.6,0,0,1-2.65-1.09A3.67,3.67,0,0,1,693.62,545.3Zm6.58,10.29v24.73h-5.71V555.59Z"/><path class="cls-5" d="M725.67,537.43h5.73v42.89h-5.73v-2.59A10.66,10.66,0,0,1,718,581a10.91,10.91,0,0,1-8.43-3.71,13.81,13.81,0,0,1-3.32-9.44,13.39,13.39,0,0,1,3.32-9.25,10.69,10.69,0,0,1,16.08-.17Zm-13.56,30.45a8.61,8.61,0,0,0,1.9,5.79,6.27,6.27,0,0,0,4.93,2.25,6.56,6.56,0,0,0,5.13-2.18,9.42,9.42,0,0,0,0-11.48,6.48,6.48,0,0,0-5.08-2.2,6.31,6.31,0,0,0-4.93,2.23A8.26,8.26,0,0,0,712.11,567.88Z"/><path class="cls-5" d="M761.14,569.3H743.41a7.59,7.59,0,0,0,2,4.85,6.06,6.06,0,0,0,4.5,1.77,5.83,5.83,0,0,0,3.53-1,14.61,14.61,0,0,0,3.12-3.76l4.83,2.69a19.71,19.71,0,0,1-2.37,3.27,12.51,12.51,0,0,1-2.66,2.23,10.79,10.79,0,0,1-3.07,1.28,15,15,0,0,1-3.58.41,11.64,11.64,0,0,1-8.89-3.56,13.29,13.29,0,0,1-3.35-9.49,13.69,13.69,0,0,1,3.25-9.5,12.38,12.38,0,0,1,17.31-.1q3.15,3.45,3.15,9.57Zm-5.87-4.67c-.79-3-2.72-4.57-5.76-4.57a6,6,0,0,0-2,.31,5.51,5.51,0,0,0-1.66.92,5.66,5.66,0,0,0-1.28,1.43,6.72,6.72,0,0,0-.82,1.91Z"/><path class="cls-5" d="M770.91,573l5.08,2-7.24,14.5-3.86-1.6Z"/><path class="cls-5" d="M799.48,555.59h5.71v2.28a11.73,11.73,0,0,1,2.82-2.33,6.74,6.74,0,0,1,3.12-.64,7.59,7.59,0,0,1,6.63,3.66A8.56,8.56,0,0,1,825,554.9q8.36,0,8.36,10.13v15.29h-5.74V566.58a10.71,10.71,0,0,0-.86-5,3.13,3.13,0,0,0-2.92-1.49,3.72,3.72,0,0,0-3.44,1.77c-.72,1.19-1.08,3.09-1.08,5.72v12.77h-5.74V566.66q0-6.6-3.81-6.6a3.83,3.83,0,0,0-3.52,1.8,11.32,11.32,0,0,0-1.1,5.69v12.77h-5.71Z"/><path class="cls-5" d="M863.13,569.3H845.41a7.49,7.49,0,0,0,2,4.85,6,6,0,0,0,4.49,1.77,5.83,5.83,0,0,0,3.53-1,14.41,14.41,0,0,0,3.13-3.76l4.82,2.69a19.68,19.68,0,0,1-2.36,3.27,12.56,12.56,0,0,1-2.67,2.23,10.79,10.79,0,0,1-3.07,1.28,15,15,0,0,1-3.58.41,11.66,11.66,0,0,1-8.89-3.56,13.33,13.33,0,0,1-3.35-9.49,13.69,13.69,0,0,1,3.25-9.5,12.39,12.39,0,0,1,17.32-.1q3.15,3.45,3.15,9.57Zm-5.86-4.67q-1.2-4.57-5.77-4.57a6,6,0,0,0-2,.31,5.56,5.56,0,0,0-1.67.92,5.86,5.86,0,0,0-1.28,1.43,7,7,0,0,0-.81,1.91Z"/><path class="cls-5" d="M869.38,555.59h5.74v2.28a9.34,9.34,0,0,1,6.75-3,8.54,8.54,0,0,1,6.73,2.72q2.08,2.31,2.08,7.54v15.16h-5.74V566.5c0-2.43-.34-4.12-1-5s-1.87-1.42-3.61-1.42a4.42,4.42,0,0,0-4,1.88c-.78,1.23-1.16,3.39-1.16,6.47v11.94h-5.74Z"/><path class="cls-5" d="M932.17,537.43h5.74v42.89h-5.74v-2.59a10.66,10.66,0,0,1-7.64,3.3,10.88,10.88,0,0,1-8.43-3.71,13.77,13.77,0,0,1-3.33-9.44,13.35,13.35,0,0,1,3.33-9.25,10.68,10.68,0,0,1,16.07-.17Zm-13.56,30.45a8.61,8.61,0,0,0,1.9,5.79,6.27,6.27,0,0,0,4.93,2.25,6.55,6.55,0,0,0,5.13-2.18,9.42,9.42,0,0,0,0-11.48,6.48,6.48,0,0,0-5.08-2.2,6.32,6.32,0,0,0-4.93,2.23A8.26,8.26,0,0,0,918.61,567.88Z"/><path class="cls-5" d="M967.64,569.3H949.92a7.49,7.49,0,0,0,2,4.85,6,6,0,0,0,4.49,1.77,5.83,5.83,0,0,0,3.53-1,14.41,14.41,0,0,0,3.12-3.76l4.83,2.69a20.28,20.28,0,0,1-2.36,3.27,12.56,12.56,0,0,1-2.67,2.23,10.79,10.79,0,0,1-3.07,1.28,15,15,0,0,1-3.58.41,11.66,11.66,0,0,1-8.89-3.56A13.33,13.33,0,0,1,944,568a13.69,13.69,0,0,1,3.25-9.5,12.39,12.39,0,0,1,17.32-.1q3.13,3.45,3.14,9.57Zm-5.87-4.67q-1.18-4.57-5.76-4.57a6,6,0,0,0-2,.31,5.73,5.73,0,0,0-2.94,2.35,6.44,6.44,0,0,0-.81,1.91Z"/><path class="cls-5" d="M980.23,560.92v19.4h-5.71v-19.4h-2.44v-5.33h2.44v-9.07h5.71v9.07h4.45v5.33Z"/><path class="cls-5" d="M1027.13,569.3h-17.72a7.49,7.49,0,0,0,2,4.85,6,6,0,0,0,4.49,1.77,5.83,5.83,0,0,0,3.53-1,14.41,14.41,0,0,0,3.12-3.76l4.83,2.69a19.68,19.68,0,0,1-2.36,3.27,12.56,12.56,0,0,1-2.67,2.23,10.79,10.79,0,0,1-3.07,1.28,15,15,0,0,1-3.58.41,11.66,11.66,0,0,1-8.89-3.56,13.33,13.33,0,0,1-3.35-9.49,13.69,13.69,0,0,1,3.25-9.5,12.39,12.39,0,0,1,17.32-.1q3.13,3.45,3.14,9.57Zm-5.87-4.67q-1.18-4.57-5.76-4.57a6,6,0,0,0-2,.31,5.63,5.63,0,0,0-1.66.92,5.86,5.86,0,0,0-1.28,1.43,6.44,6.44,0,0,0-.81,1.91Z"/><path class="cls-5" d="M1033.38,555.59h5.71v2.21a10.83,10.83,0,0,1,2.79-2.26,6.32,6.32,0,0,1,2.95-.64,9.24,9.24,0,0,1,4.72,1.47l-2.62,5.23a5.49,5.49,0,0,0-3.17-1.16q-4.66,0-4.67,7.06v12.82h-5.71Z"/><path class="cls-5" d="M1087.1,537.43h5.74v42.89h-5.74v-2.59a10.66,10.66,0,0,1-7.64,3.3,10.88,10.88,0,0,1-8.43-3.71,13.77,13.77,0,0,1-3.33-9.44,13.35,13.35,0,0,1,3.33-9.25,10.64,10.64,0,0,1,8.3-3.73,10.53,10.53,0,0,1,7.77,3.56Zm-13.56,30.45a8.62,8.62,0,0,0,1.91,5.79,6.23,6.23,0,0,0,4.92,2.25,6.53,6.53,0,0,0,5.13-2.18,9.39,9.39,0,0,0,0-11.48,6.45,6.45,0,0,0-5.08-2.2,6.3,6.3,0,0,0-4.92,2.23A8.22,8.22,0,0,0,1073.54,567.88Z"/><path class="cls-5" d="M1122.57,569.3h-17.72a7.49,7.49,0,0,0,2,4.85,6.06,6.06,0,0,0,4.49,1.77,5.81,5.81,0,0,0,3.53-1,14.41,14.41,0,0,0,3.13-3.76l4.82,2.69a19.13,19.13,0,0,1-2.36,3.27,12.56,12.56,0,0,1-2.67,2.23,10.67,10.67,0,0,1-3.07,1.28,15,15,0,0,1-3.58.41,11.66,11.66,0,0,1-8.89-3.56,13.33,13.33,0,0,1-3.35-9.49,13.74,13.74,0,0,1,3.25-9.5,12.39,12.39,0,0,1,17.32-.1q3.15,3.45,3.15,9.57Zm-5.86-4.67q-1.2-4.57-5.77-4.57a6,6,0,0,0-2,.31,5.39,5.39,0,0,0-1.66.92,5.89,5.89,0,0,0-1.29,1.43,7,7,0,0,0-.81,1.91Z"/><path class="cls-5" d="M1143.19,559.8l-4.72,2.52c-.75-1.53-1.67-2.29-2.77-2.29a1.9,1.9,0,0,0-1.35.52,1.75,1.75,0,0,0-.56,1.33c0,1,1.11,1.89,3.31,2.82q4.55,2,6.11,3.61a6.17,6.17,0,0,1,1.58,4.44,7.78,7.78,0,0,1-2.64,6A9,9,0,0,1,1136,581q-6.21,0-8.81-6.07l4.88-2.26a10.26,10.26,0,0,0,1.55,2.26,3.53,3.53,0,0,0,2.48,1c1.93,0,2.9-.88,2.9-2.64,0-1-.75-2-2.24-2.84-.57-.29-1.15-.57-1.72-.84l-1.75-.84a10.78,10.78,0,0,1-3.51-2.43,6,6,0,0,1-1.29-4,7,7,0,0,1,2.21-5.33,7.71,7.71,0,0,1,5.48-2.11C1139.3,554.9,1141.65,556.54,1143.19,559.8Z"/><path class="cls-5" d="M1153,555.59l6.4,13.89,6.37-13.89h6.43L1159.34,582l-12.75-26.43Z"/><path class="cls-5" d="M1214,569.22h-17.82a7.8,7.8,0,0,0,2.08,4.88,6,6,0,0,0,4.47,1.82q3.9,0,6.47-4.95l4.93,2.75a17.14,17.14,0,0,1-1.76,2.71,10.4,10.4,0,0,1-2,2,13,13,0,0,1-7.89,2.66,12.44,12.44,0,0,1-9-4q-3.09,4-9.11,4a11.32,11.32,0,0,1-7.34-2.28,7.31,7.31,0,0,1-2.82-6,7.64,7.64,0,0,1,2.69-6.09,10.51,10.51,0,0,1,7.09-2.34,14.29,14.29,0,0,1,6.45,1.68c0-2.24-.47-3.79-1.4-4.67s-2.54-1.35-4.77-1.35a24.41,24.41,0,0,0-6.6.94v-5.31a44.88,44.88,0,0,1,7.16-.76q6,0,8.68,3.48a12.48,12.48,0,0,1,17.29,0,12.94,12.94,0,0,1,3.25,9.22Zm-34.25,3.48a2.82,2.82,0,0,0,1.42,2.41,6.46,6.46,0,0,0,3.6,1,6.83,6.83,0,0,0,3.79-1,3,3,0,0,0,1.52-2.52,2.71,2.71,0,0,0-1.57-2.28,7.05,7.05,0,0,0-3.79-1,6.13,6.13,0,0,0-3.53,1A2.87,2.87,0,0,0,1179.78,572.7Zm28.26-8.1q-1.05-4.54-5.56-4.54t-5.89,4.54Z"/><path class="cls-5" d="M1220.17,555.59h5.72v2.21a10.83,10.83,0,0,1,2.79-2.26,6.31,6.31,0,0,1,2.94-.64,9.25,9.25,0,0,1,4.73,1.47l-2.62,5.23a5.49,5.49,0,0,0-3.17-1.16c-3.12,0-4.67,2.35-4.67,7.06v12.82h-5.72Z"/><path class="cls-5" d="M1240.41,555.59h5.71v2.21a10.68,10.68,0,0,1,2.8-2.26,6.31,6.31,0,0,1,2.94-.64,9.22,9.22,0,0,1,4.72,1.47L1254,561.6a5.49,5.49,0,0,0-3.18-1.16q-4.66,0-4.67,7.06v12.82h-5.71Z"/><path class="cls-5" d="M1282,569.3H1264.3a7.59,7.59,0,0,0,2,4.85,6.06,6.06,0,0,0,4.5,1.77,5.83,5.83,0,0,0,3.53-1,14.61,14.61,0,0,0,3.12-3.76l4.82,2.69a19.13,19.13,0,0,1-2.36,3.27,12.76,12.76,0,0,1-2.66,2.23,10.85,10.85,0,0,1-3.08,1.28,15,15,0,0,1-3.58.41,11.62,11.62,0,0,1-8.88-3.56,13.29,13.29,0,0,1-3.35-9.49,13.69,13.69,0,0,1,3.25-9.5,12.38,12.38,0,0,1,17.31-.1q3.15,3.45,3.15,9.57Zm-5.87-4.67q-1.2-4.57-5.76-4.57a6,6,0,0,0-2,.31,5.51,5.51,0,0,0-1.66.92,5.66,5.66,0,0,0-1.28,1.43,6.72,6.72,0,0,0-.82,1.91Z"/><path class="cls-5" d="M1303.46,545.3a3.53,3.53,0,0,1,1.09-2.59,3.71,3.71,0,0,1,5.25,0,3.52,3.52,0,0,1,1.09,2.62,3.59,3.59,0,0,1-1.09,2.64,3.5,3.5,0,0,1-2.61,1.09,3.58,3.58,0,0,1-2.64-1.09A3.63,3.63,0,0,1,1303.46,545.3Zm6.57,10.29v24.73h-5.71V555.59Z"/><path class="cls-5" d="M1323,537.43v26.15l8-8h7.67L1328,566l11.52,14.35h-7.41l-8.18-10.44-.91.92v9.52h-5.71V537.43Z"/><path class="cls-5" d="M1348.88,537.43v26.15l8-8h7.67L1353.86,566l11.52,14.35H1358l-8.18-10.44-.91.92v9.52h-5.71V537.43Z"/><path class="cls-5" d="M1390.75,569.3H1373a7.49,7.49,0,0,0,2,4.85,6,6,0,0,0,4.49,1.77,5.83,5.83,0,0,0,3.53-1,14.61,14.61,0,0,0,3.12-3.76l4.83,2.69a20.28,20.28,0,0,1-2.36,3.27,12.56,12.56,0,0,1-2.67,2.23,10.79,10.79,0,0,1-3.07,1.28,15,15,0,0,1-3.58.41,11.64,11.64,0,0,1-8.89-3.56,13.33,13.33,0,0,1-3.35-9.49,13.69,13.69,0,0,1,3.25-9.5,12.38,12.38,0,0,1,17.31-.1q3.15,3.45,3.15,9.57Zm-5.87-4.67q-1.19-4.57-5.76-4.57a6,6,0,0,0-2,.31,5.51,5.51,0,0,0-1.66.92,5.66,5.66,0,0,0-1.28,1.43,6.44,6.44,0,0,0-.81,1.91Z"/><path class="cls-5" d="M1413,537.43h5.71v20.21a9.9,9.9,0,0,1,6.73-2.74,8.71,8.71,0,0,1,6.71,2.72c1.42,1.57,2.13,4.09,2.13,7.54v15.16h-5.71V565.69a7,7,0,0,0-1.06-4.3,4,4,0,0,0-3.39-1.33c-2,0-3.4.61-4.21,1.85s-1.2,3.4-1.2,6.45v12H1413Z"/><path class="cls-5" d="M1464.08,569.3h-17.73a7.59,7.59,0,0,0,2,4.85,6.06,6.06,0,0,0,4.5,1.77,5.83,5.83,0,0,0,3.53-1,14.61,14.61,0,0,0,3.12-3.76l4.82,2.69a19.13,19.13,0,0,1-2.36,3.27,12.51,12.51,0,0,1-2.66,2.23,10.79,10.79,0,0,1-3.07,1.28,15.12,15.12,0,0,1-3.59.41,11.62,11.62,0,0,1-8.88-3.56,13.29,13.29,0,0,1-3.35-9.49,13.69,13.69,0,0,1,3.25-9.5,12.38,12.38,0,0,1,17.31-.1q3.15,3.45,3.15,9.57Zm-5.87-4.67c-.79-3-2.72-4.57-5.76-4.57a6,6,0,0,0-2,.31,5.51,5.51,0,0,0-1.66.92,5.66,5.66,0,0,0-1.28,1.43,6.72,6.72,0,0,0-.82,1.91Z"/><path class="cls-5" d="M1476,537.43v42.89h-5.72V537.43Z"/><path class="cls-5" d="M1489.16,560.92v19.4h-5.71v-19.4H1481v-5.33h2.44v-9.07h5.71v9.07h4.45v5.33Z"/><path class="cls-5" d="M446.22,618H452v2.28a9.34,9.34,0,0,1,6.75-3,8.54,8.54,0,0,1,6.73,2.72q2.08,2.31,2.08,7.54v15.16h-5.74V628.9c0-2.43-.34-4.12-1-5s-1.87-1.42-3.61-1.42a4.42,4.42,0,0,0-4,1.88c-.78,1.23-1.16,3.39-1.16,6.47v11.94h-5.74Z"/><path class="cls-5" d="M473.56,630.17a12.26,12.26,0,0,1,3.84-9.11,13.52,13.52,0,0,1,18.73,0,13.26,13.26,0,0,1,0,18.62,13.13,13.13,0,0,1-9.47,3.73,12.57,12.57,0,0,1-9.32-3.81A12.82,12.82,0,0,1,473.56,630.17Zm5.84.11a8.33,8.33,0,0,0,2,5.86,7.72,7.72,0,0,0,10.72,0,9.31,9.31,0,0,0,0-11.53,7.62,7.62,0,0,0-10.67,0A8,8,0,0,0,479.4,630.28Z"/><path class="cls-5" d="M511.7,599.83V626l8.05-8h7.67l-10.74,10.38,11.52,14.35h-7.41l-8.18-10.44-.91.92v9.52H506V599.83Z"/><path class="cls-5" d="M533.56,639.87a3.48,3.48,0,1,1,1,2.54A3.4,3.4,0,0,1,533.56,639.87Z"/><path class="cls-5" d="M447.31,767.52V728.31h8.23a29.9,29.9,0,0,1,9.34,1.17,17.52,17.52,0,0,1,6.68,3.89q6.06,5.53,6.06,14.55a19.09,19.09,0,0,1-13,18.51,30.56,30.56,0,0,1-9.22,1.09Zm5.91-5.56h2.67a22.2,22.2,0,0,0,6.63-.84,13.47,13.47,0,0,0,9.14-13.2,13.61,13.61,0,0,0-4.32-10.46q-3.88-3.59-11.45-3.58h-2.67Z"/><path class="cls-5" d="M506.49,756.5H488.77a7.49,7.49,0,0,0,2,4.85,6.06,6.06,0,0,0,4.5,1.77,5.85,5.85,0,0,0,3.53-1,14.61,14.61,0,0,0,3.12-3.76l4.82,2.69a19.13,19.13,0,0,1-2.36,3.27,12.76,12.76,0,0,1-2.66,2.23,10.85,10.85,0,0,1-3.08,1.28,15,15,0,0,1-3.58.41,11.62,11.62,0,0,1-8.88-3.56,13.29,13.29,0,0,1-3.36-9.49,13.74,13.74,0,0,1,3.25-9.5,12.39,12.39,0,0,1,17.32-.1q3.15,3.45,3.15,9.57Zm-5.86-4.67q-1.2-4.58-5.76-4.57a6,6,0,0,0-2,.31,5.81,5.81,0,0,0-3,2.35,7,7,0,0,0-.81,1.91Z"/><path class="cls-5" d="M519.09,748.12v19.4h-5.71v-19.4h-2.44v-5.33h2.44v-9.07h5.71v9.07h4.44v5.33Z"/><path class="cls-5" d="M566,756.5H548.26a7.49,7.49,0,0,0,2,4.85,6.06,6.06,0,0,0,4.5,1.77,5.85,5.85,0,0,0,3.53-1,14.61,14.61,0,0,0,3.12-3.76l4.82,2.69a19.13,19.13,0,0,1-2.36,3.27,12.76,12.76,0,0,1-2.66,2.23,10.85,10.85,0,0,1-3.08,1.28,15,15,0,0,1-3.58.41,11.62,11.62,0,0,1-8.88-3.56,13.29,13.29,0,0,1-3.36-9.49,13.74,13.74,0,0,1,3.25-9.5,11.21,11.21,0,0,1,8.69-3.58,11.09,11.09,0,0,1,8.63,3.48Q566,749,566,755.15Zm-5.86-4.67q-1.2-4.58-5.76-4.57a6,6,0,0,0-2,.31,5.74,5.74,0,0,0-1.66.92,5.49,5.49,0,0,0-1.28,1.43,6.72,6.72,0,0,0-.82,1.91Z"/><path class="cls-5" d="M572.23,742.79h5.71V745a10.68,10.68,0,0,1,2.8-2.26,6.31,6.31,0,0,1,2.94-.64,9.22,9.22,0,0,1,4.72,1.47l-2.61,5.23a5.49,5.49,0,0,0-3.17-1.16q-4.68,0-4.68,7.06v12.82h-5.71Z"/><path class="cls-5" d="M626,742.79h5.74v24.73H626v-2.59a11,11,0,0,1-16.08-.41,13.81,13.81,0,0,1-3.32-9.44,13.39,13.39,0,0,1,3.32-9.27,10.74,10.74,0,0,1,8.33-3.71,10.54,10.54,0,0,1,7.75,3.56ZM612.4,755.08a8.61,8.61,0,0,0,1.9,5.79,6.27,6.27,0,0,0,4.93,2.25,6.56,6.56,0,0,0,5.13-2.18,9.42,9.42,0,0,0,0-11.48,6.48,6.48,0,0,0-5.08-2.2,6.32,6.32,0,0,0-4.93,2.23A8.26,8.26,0,0,0,612.4,755.08Z"/><path class="cls-5" d="M644.62,724.63v42.89h-5.71V724.63Z"/><path class="cls-5" d="M657.75,748.12v19.4H652v-19.4H649.6v-5.33H652v-9.07h5.72v9.07h4.44v5.33Z"/><path class="cls-5" d="M665.21,732.5a3.72,3.72,0,0,1,3.71-3.68,3.63,3.63,0,0,1,2.64,1.09,3.52,3.52,0,0,1,1.09,2.62,3.59,3.59,0,0,1-1.09,2.64,3.5,3.5,0,0,1-2.62,1.09,3.59,3.59,0,0,1-2.64-1.09A3.67,3.67,0,0,1,665.21,732.5Zm6.58,10.29v24.73h-5.72V742.79Z"/><path class="cls-5" d="M697.25,724.63H703v42.89h-5.74v-2.59a10.64,10.64,0,0,1-7.64,3.3,10.91,10.91,0,0,1-8.43-3.71,13.76,13.76,0,0,1-3.32-9.44,13.34,13.34,0,0,1,3.32-9.25,10.64,10.64,0,0,1,8.3-3.73,10.53,10.53,0,0,1,7.77,3.56ZM683.7,755.08a8.61,8.61,0,0,0,1.9,5.79,6.24,6.24,0,0,0,4.93,2.25,6.52,6.52,0,0,0,5.12-2.18,9.39,9.39,0,0,0,0-11.48,6.45,6.45,0,0,0-5.07-2.2,6.31,6.31,0,0,0-4.93,2.23A8.26,8.26,0,0,0,683.7,755.08Z"/><path class="cls-5" d="M748.77,756.5H731.05a7.49,7.49,0,0,0,2,4.85,6.06,6.06,0,0,0,4.49,1.77,5.81,5.81,0,0,0,3.53-1,14.41,14.41,0,0,0,3.13-3.76L749,761a19.68,19.68,0,0,1-2.36,3.27,12.56,12.56,0,0,1-2.67,2.23,10.79,10.79,0,0,1-3.07,1.28,15,15,0,0,1-3.58.41,11.66,11.66,0,0,1-8.89-3.56,13.33,13.33,0,0,1-3.35-9.49,13.74,13.74,0,0,1,3.25-9.5,12.39,12.39,0,0,1,17.32-.1q3.15,3.45,3.15,9.57Zm-5.86-4.67q-1.2-4.58-5.77-4.57a6,6,0,0,0-1.95.31,5.79,5.79,0,0,0-1.67.92,5.88,5.88,0,0,0-1.28,1.43,7,7,0,0,0-.81,1.91Z"/><path class="cls-5" d="M755,742.79h5.74v2.28a9.34,9.34,0,0,1,6.75-3,8.54,8.54,0,0,1,6.73,2.72q2.09,2.31,2.08,7.54v15.16h-5.74V753.71q0-3.66-1-5.06c-.66-.94-1.87-1.42-3.61-1.42a4.43,4.43,0,0,0-4,1.88c-.77,1.24-1.16,3.39-1.16,6.47v11.94H755Z"/><path class="cls-5" d="M823.5,766.93q0,1.76-.12,3.09a19.13,19.13,0,0,1-.32,2.35,10.46,10.46,0,0,1-2.38,4.8,11.59,11.59,0,0,1-9.22,3.86,12.28,12.28,0,0,1-8.15-2.67,10.91,10.91,0,0,1-3.81-7.59h5.74a6.47,6.47,0,0,0,1.09,2.82,6.14,6.14,0,0,0,5.18,2.31q6.27,0,6.27-7.7v-3.45a10.66,10.66,0,0,1-7.84,3.48,10.54,10.54,0,0,1-8.28-3.66,13.53,13.53,0,0,1-3.25-9.27,14.31,14.31,0,0,1,3-9.19,10.52,10.52,0,0,1,8.58-4,10,10,0,0,1,7.77,3.48v-2.79h5.72ZM818,755.2a8.31,8.31,0,0,0-1.93-5.76,6.38,6.38,0,0,0-5-2.21,6.16,6.16,0,0,0-5.13,2.41,8.78,8.78,0,0,0-1.7,5.59,8.67,8.67,0,0,0,1.7,5.53,6.15,6.15,0,0,0,5.13,2.36,6.28,6.28,0,0,0,5.18-2.38A8.49,8.49,0,0,0,818,755.2Z"/><path class="cls-5" d="M829.54,755a12.31,12.31,0,0,1,3.83-9.11,13.53,13.53,0,0,1,18.74,0,13.26,13.26,0,0,1,0,18.62,13.15,13.15,0,0,1-9.47,3.73,12.56,12.56,0,0,1-9.32-3.81A12.78,12.78,0,0,1,829.54,755Zm5.84.11a8.33,8.33,0,0,0,2,5.86,7.71,7.71,0,0,0,10.71,0,9.27,9.27,0,0,0,0-11.53,7.61,7.61,0,0,0-10.66,0A8,8,0,0,0,835.38,755.08Z"/><path class="cls-5" d="M880.19,724.63h5.74v42.89h-5.74v-2.59a10.66,10.66,0,0,1-7.64,3.3,10.91,10.91,0,0,1-8.43-3.71,13.77,13.77,0,0,1-3.33-9.44,13.35,13.35,0,0,1,3.33-9.25,10.64,10.64,0,0,1,8.3-3.73,10.53,10.53,0,0,1,7.77,3.56Zm-13.56,30.45a8.62,8.62,0,0,0,1.91,5.79,6.23,6.23,0,0,0,4.92,2.25,6.53,6.53,0,0,0,5.13-2.18,9.38,9.38,0,0,0,0-11.48,6.45,6.45,0,0,0-5.07-2.2,6.31,6.31,0,0,0-4.93,2.23A8.27,8.27,0,0,0,866.63,755.08Z"/><path class="cls-5" d="M908.33,732.5a3.55,3.55,0,0,1,1.09-2.59,3.71,3.71,0,0,1,5.25,0,3.53,3.53,0,0,1,1.1,2.62,3.6,3.6,0,0,1-1.1,2.64,3.5,3.5,0,0,1-2.61,1.09,3.72,3.72,0,0,1-3.73-3.76Zm6.57,10.29v24.73h-5.71V742.79Z"/><path class="cls-5" d="M940.37,724.63h5.74v42.89h-5.74v-2.59a10.66,10.66,0,0,1-7.64,3.3,10.88,10.88,0,0,1-8.43-3.71,13.77,13.77,0,0,1-3.33-9.44,13.35,13.35,0,0,1,3.33-9.25,10.68,10.68,0,0,1,16.07-.17Zm-13.56,30.45a8.66,8.66,0,0,0,1.9,5.79,6.27,6.27,0,0,0,4.93,2.25,6.53,6.53,0,0,0,5.13-2.18,9.42,9.42,0,0,0,0-11.48,6.47,6.47,0,0,0-5.08-2.2,6.3,6.3,0,0,0-4.92,2.23A8.22,8.22,0,0,0,926.81,755.08Z"/><path class="cls-5" d="M975.84,756.5H958.12a7.49,7.49,0,0,0,2,4.85,6,6,0,0,0,4.49,1.77,5.83,5.83,0,0,0,3.53-1,14.22,14.22,0,0,0,3.12-3.76l4.83,2.69a19.68,19.68,0,0,1-2.36,3.27,12.56,12.56,0,0,1-2.67,2.23,10.79,10.79,0,0,1-3.07,1.28,15,15,0,0,1-3.58.41,11.66,11.66,0,0,1-8.89-3.56,13.33,13.33,0,0,1-3.35-9.49,13.69,13.69,0,0,1,3.25-9.5,12.39,12.39,0,0,1,17.32-.1q3.15,3.45,3.15,9.57ZM970,751.83q-1.19-4.58-5.76-4.57a6,6,0,0,0-2,.31,5.79,5.79,0,0,0-1.67.92,5.68,5.68,0,0,0-1.28,1.43,6.71,6.71,0,0,0-.81,1.91Z"/><path class="cls-5" d="M997,755a12.28,12.28,0,0,1,3.84-9.11,12.82,12.82,0,0,1,9.34-3.76,13,13,0,0,1,9.4,3.78,13.24,13.24,0,0,1,0,18.62,13.13,13.13,0,0,1-9.47,3.73,12.57,12.57,0,0,1-9.32-3.81A12.82,12.82,0,0,1,997,755Zm5.84.11a8.29,8.29,0,0,0,2,5.86,7.71,7.71,0,0,0,10.71,0,9.27,9.27,0,0,0,0-11.53,7,7,0,0,0-5.36-2.18,6.88,6.88,0,0,0-5.3,2.18A7.93,7.93,0,0,0,1002.8,755.08Z"/><path class="cls-5" d="M1053.31,766.93q0,1.76-.12,3.09a21.47,21.47,0,0,1-.31,2.35,10.58,10.58,0,0,1-2.39,4.8,11.59,11.59,0,0,1-9.22,3.86,12.28,12.28,0,0,1-8.15-2.67,10.91,10.91,0,0,1-3.81-7.59h5.74a6.47,6.47,0,0,0,1.09,2.82,6.14,6.14,0,0,0,5.18,2.31q6.27,0,6.27-7.7v-3.45a10.64,10.64,0,0,1-7.84,3.48,10.54,10.54,0,0,1-8.28-3.66,13.53,13.53,0,0,1-3.25-9.27,14.31,14.31,0,0,1,3-9.19,10.52,10.52,0,0,1,8.58-4,10,10,0,0,1,7.77,3.48v-2.79h5.72Zm-5.49-11.73a8.31,8.31,0,0,0-1.93-5.76,6.38,6.38,0,0,0-5-2.21,6.16,6.16,0,0,0-5.13,2.41,8.78,8.78,0,0,0-1.7,5.59,8.67,8.67,0,0,0,1.7,5.53,6.15,6.15,0,0,0,5.13,2.36,6.28,6.28,0,0,0,5.18-2.38A8.49,8.49,0,0,0,1047.82,755.2Z"/><path class="cls-5" d="M1074.89,747l-4.72,2.52c-.75-1.53-1.67-2.29-2.77-2.29a1.89,1.89,0,0,0-1.35.52,1.75,1.75,0,0,0-.56,1.33q0,1.42,3.3,2.82c3,1.31,5.07,2.51,6.12,3.61a6.17,6.17,0,0,1,1.58,4.44,7.77,7.77,0,0,1-2.64,6,9,9,0,0,1-6.2,2.29q-6.23,0-8.81-6.07l4.88-2.26a10,10,0,0,0,1.55,2.26,3.53,3.53,0,0,0,2.48,1c1.93,0,2.9-.87,2.9-2.64,0-1-.75-2-2.24-2.84-.57-.29-1.15-.57-1.72-.84l-1.75-.84a10.78,10.78,0,0,1-3.51-2.43,6,6,0,0,1-1.29-4,7,7,0,0,1,2.21-5.33,7.71,7.71,0,0,1,5.48-2.11C1071,742.1,1073.35,743.74,1074.89,747Z"/><path class="cls-5" d="M1099.85,742.79h5.74v24.73h-5.74v-2.59a11,11,0,0,1-16.07-.41,13.77,13.77,0,0,1-3.33-9.44,13.35,13.35,0,0,1,3.33-9.27,10.71,10.71,0,0,1,8.32-3.71,10.54,10.54,0,0,1,7.75,3.56Zm-13.56,12.29a8.61,8.61,0,0,0,1.9,5.79,6.27,6.27,0,0,0,4.93,2.25,6.55,6.55,0,0,0,5.13-2.18,9.42,9.42,0,0,0,0-11.48,6.48,6.48,0,0,0-5.08-2.2,6.32,6.32,0,0,0-4.93,2.23A8.26,8.26,0,0,0,1086.29,755.08Zm2-21.71a5.23,5.23,0,0,1,1.63-3.84,5.52,5.52,0,1,1,7.79,7.82,5.21,5.21,0,0,1-3.88,1.63,5.36,5.36,0,0,1-3.94-1.63A5.48,5.48,0,0,1,1088.24,733.37Zm3,0a2.45,2.45,0,0,0,.72,1.81,2.56,2.56,0,0,0,3.58,0,2.51,2.51,0,0,0-1.79-4.3,2.47,2.47,0,0,0-1,.2,2.65,2.65,0,0,0-.8.55,2.28,2.28,0,0,0-.53.8A2.36,2.36,0,0,0,1091.27,733.42Z"/><path class="cls-5" d="M1147.07,742.79h5.74v24.73h-5.74v-2.59a11,11,0,0,1-16.07-.41,13.76,13.76,0,0,1-3.32-9.44,13.34,13.34,0,0,1,3.32-9.27,10.74,10.74,0,0,1,8.33-3.71,10.5,10.5,0,0,1,7.74,3.56Zm-13.55,12.29a8.61,8.61,0,0,0,1.9,5.79,6.25,6.25,0,0,0,4.93,2.25,6.52,6.52,0,0,0,5.12-2.18,9.38,9.38,0,0,0,0-11.48,6.45,6.45,0,0,0-5.07-2.2,6.31,6.31,0,0,0-4.93,2.23A8.26,8.26,0,0,0,1133.52,755.08Z"/><path class="cls-5" d="M1165.91,748.12v19.4h-5.71v-19.4h-2.44v-5.33h2.44v-9.07h5.71v9.07h4.45v5.33Z"/><path class="cls-5" d="M1196.18,748.12v19.4h-5.71v-19.4H1188v-5.33h2.44v-9.07h5.71v9.07h4.44v5.33Z"/><path class="cls-5" d="M1223.2,742.79h5.73v24.73h-5.73v-2.59a11,11,0,0,1-16.08-.41,13.81,13.81,0,0,1-3.32-9.44,13.39,13.39,0,0,1,3.32-9.27,10.74,10.74,0,0,1,8.33-3.71,10.54,10.54,0,0,1,7.75,3.56Zm-13.56,12.29a8.61,8.61,0,0,0,1.9,5.79,6.25,6.25,0,0,0,4.93,2.25,6.56,6.56,0,0,0,5.13-2.18,9.42,9.42,0,0,0,0-11.48,6.48,6.48,0,0,0-5.08-2.2,6.31,6.31,0,0,0-4.93,2.23A8.26,8.26,0,0,0,1209.64,755.08Z"/><path class="cls-5" d="M1260.06,766.93c0,1.17,0,2.2-.11,3.09a21.29,21.29,0,0,1-.32,2.35,10.48,10.48,0,0,1-2.39,4.8A11.56,11.56,0,0,1,1248,781a12.28,12.28,0,0,1-8.15-2.67,10.91,10.91,0,0,1-3.81-7.59h5.74a6.47,6.47,0,0,0,1.09,2.82,6.13,6.13,0,0,0,5.18,2.31q6.27,0,6.27-7.7v-3.45a10.67,10.67,0,0,1-7.85,3.48,10.53,10.53,0,0,1-8.27-3.66,13.53,13.53,0,0,1-3.25-9.27,14.26,14.26,0,0,1,3-9.19,10.52,10.52,0,0,1,8.58-4,10,10,0,0,1,7.77,3.48v-2.79h5.71Zm-5.48-11.73a8.36,8.36,0,0,0-1.93-5.76,6.4,6.4,0,0,0-5-2.21,6.16,6.16,0,0,0-5.13,2.41,8.73,8.73,0,0,0-1.7,5.59,8.61,8.61,0,0,0,1.7,5.53,6.13,6.13,0,0,0,5.13,2.36,6.28,6.28,0,0,0,5.18-2.38A8.54,8.54,0,0,0,1254.58,755.2Z"/><path class="cls-5" d="M1289.79,756.5h-17.72a7.49,7.49,0,0,0,2,4.85,6.06,6.06,0,0,0,4.5,1.77,5.83,5.83,0,0,0,3.53-1,14.61,14.61,0,0,0,3.12-3.76L1290,761a19.13,19.13,0,0,1-2.36,3.27,12.76,12.76,0,0,1-2.66,2.23,10.85,10.85,0,0,1-3.08,1.28,15,15,0,0,1-3.58.41,11.62,11.62,0,0,1-8.88-3.56,13.29,13.29,0,0,1-3.35-9.49,13.69,13.69,0,0,1,3.25-9.5,12.38,12.38,0,0,1,17.31-.1q3.15,3.45,3.15,9.57Zm-5.86-4.67q-1.2-4.58-5.76-4.57a6,6,0,0,0-2,.31,5.74,5.74,0,0,0-1.66.92,5.49,5.49,0,0,0-1.28,1.43,6.72,6.72,0,0,0-.82,1.91Z"/><path class="cls-5" d="M1311.22,732.5a3.74,3.74,0,0,1,3.71-3.68,3.63,3.63,0,0,1,2.64,1.09,3.52,3.52,0,0,1,1.09,2.62,3.59,3.59,0,0,1-1.09,2.64,3.5,3.5,0,0,1-2.61,1.09,3.56,3.56,0,0,1-2.64-1.09A3.64,3.64,0,0,1,1311.22,732.5Zm6.58,10.29v24.73h-5.71V742.79Z"/><path class="cls-5" d="M1363.61,756.5h-17.73a7.59,7.59,0,0,0,2,4.85,6.06,6.06,0,0,0,4.5,1.77,5.83,5.83,0,0,0,3.53-1,14.61,14.61,0,0,0,3.12-3.76l4.82,2.69a19.13,19.13,0,0,1-2.36,3.27,12.76,12.76,0,0,1-2.66,2.23,10.85,10.85,0,0,1-3.08,1.28,15,15,0,0,1-3.58.41,11.62,11.62,0,0,1-8.88-3.56,13.29,13.29,0,0,1-3.35-9.49,13.69,13.69,0,0,1,3.25-9.5,12.38,12.38,0,0,1,17.31-.1q3.15,3.45,3.15,9.57Zm-5.87-4.67q-1.2-4.58-5.76-4.57a6,6,0,0,0-2,.31,5.74,5.74,0,0,0-1.66.92,5.49,5.49,0,0,0-1.28,1.43,6.72,6.72,0,0,0-.82,1.91Z"/><path class="cls-5" d="M1369.85,742.79h5.74v2.28a9.37,9.37,0,0,1,6.75-3,8.54,8.54,0,0,1,6.73,2.72q2.09,2.31,2.08,7.54v15.16h-5.73V753.71q0-3.66-1-5.06c-.66-.94-1.86-1.42-3.61-1.42a4.4,4.4,0,0,0-4,1.88c-.78,1.24-1.17,3.39-1.17,6.47v11.94h-5.74Z"/><path class="cls-5" d="M449.29,805.19l6.4,13.89,6.37-13.89h6.42l-12.84,26.43-12.75-26.43Z"/><path class="cls-5" d="M470.19,817.38a12.26,12.26,0,0,1,3.83-9.12,13.52,13.52,0,0,1,18.74,0,13.23,13.23,0,0,1,0,18.61,13.13,13.13,0,0,1-9.47,3.73,12.57,12.57,0,0,1-9.32-3.81A12.82,12.82,0,0,1,470.19,817.38Zm5.84.1a8.33,8.33,0,0,0,2,5.86,7.68,7.68,0,0,0,10.71,0,9.27,9.27,0,0,0,0-11.53,7,7,0,0,0-5.36-2.18,6.88,6.88,0,0,0-5.3,2.18A7.91,7.91,0,0,0,476,817.48Z"/><path class="cls-5" d="M508.32,787v26.16l8.05-8H524L513.3,815.57l11.53,14.35h-7.42l-8.17-10.44-.92.92v9.52h-5.71V787Z"/><path class="cls-5" d="M542.88,809.4l-4.72,2.52c-.75-1.53-1.67-2.29-2.77-2.29a1.9,1.9,0,0,0-1.35.52,1.75,1.75,0,0,0-.56,1.33q0,1.42,3.31,2.82c3,1.31,5.06,2.51,6.11,3.61a6.17,6.17,0,0,1,1.58,4.44,7.77,7.77,0,0,1-2.64,6,9,9,0,0,1-6.2,2.29q-6.21,0-8.81-6.07l4.88-2.26a10,10,0,0,0,1.55,2.26,3.53,3.53,0,0,0,2.48,1c1.93,0,2.9-.89,2.9-2.65,0-1-.75-2-2.24-2.84-.57-.29-1.15-.57-1.72-.84l-1.75-.83a10.94,10.94,0,0,1-3.51-2.44,6,6,0,0,1-1.29-4,7,7,0,0,1,2.21-5.33,7.71,7.71,0,0,1,5.48-2.11Q540.58,804.5,542.88,809.4Z"/><path class="cls-5" d="M572.13,818.9H554.41a7.49,7.49,0,0,0,2,4.85,6,6,0,0,0,4.49,1.78,5.83,5.83,0,0,0,3.53-1,14.41,14.41,0,0,0,3.12-3.76l4.83,2.69a19.68,19.68,0,0,1-2.36,3.27,12.56,12.56,0,0,1-2.67,2.23,10.79,10.79,0,0,1-3.07,1.28,15,15,0,0,1-3.58.41,11.66,11.66,0,0,1-8.89-3.56,13.33,13.33,0,0,1-3.35-9.49,13.69,13.69,0,0,1,3.25-9.5A12.39,12.39,0,0,1,569,808q3.13,3.45,3.14,9.57Zm-5.87-4.67q-1.18-4.58-5.76-4.57a6,6,0,0,0-2,.31,5.73,5.73,0,0,0-2.94,2.35,6.44,6.44,0,0,0-.81,1.91Z"/><path class="cls-5" d="M578.38,805.19h5.73v2.28a9.37,9.37,0,0,1,6.76-3,8.54,8.54,0,0,1,6.73,2.72c1.38,1.54,2.08,4,2.08,7.54v15.16h-5.74V816.11q0-3.66-1-5.06c-.66-.95-1.86-1.42-3.6-1.42a4.42,4.42,0,0,0-4,1.88c-.78,1.24-1.17,3.39-1.17,6.47v11.94h-5.73Z"/><path class="cls-5" d="M610.42,822.58l5.08,2-7.24,14.5-3.86-1.6Z"/><path class="cls-5" d="M653.35,809.4l-4.72,2.52c-.74-1.53-1.67-2.29-2.77-2.29a1.88,1.88,0,0,0-1.34.52,1.75,1.75,0,0,0-.56,1.33q0,1.42,3.3,2.82,4.54,2,6.12,3.61a6.16,6.16,0,0,1,1.57,4.44,7.77,7.77,0,0,1-2.64,6,9,9,0,0,1-6.19,2.29q-6.23,0-8.81-6.07l4.87-2.26a10.73,10.73,0,0,0,1.55,2.26,3.54,3.54,0,0,0,2.49,1c1.93,0,2.89-.89,2.89-2.65,0-1-.74-2-2.23-2.84-.58-.29-1.15-.57-1.73-.84l-1.75-.83a10.76,10.76,0,0,1-3.5-2.44,6,6,0,0,1-1.3-4,7.05,7.05,0,0,1,2.21-5.33,7.74,7.74,0,0,1,5.48-2.11Q651,804.5,653.35,809.4Z"/><path class="cls-5" d="M678.31,805.19h5.74v24.73h-5.74v-2.59a11,11,0,0,1-16.07-.41,13.77,13.77,0,0,1-3.33-9.44,13.35,13.35,0,0,1,3.33-9.27,10.73,10.73,0,0,1,8.33-3.71,10.5,10.5,0,0,1,7.74,3.56Zm-13.56,12.29a8.62,8.62,0,0,0,1.91,5.79,6.24,6.24,0,0,0,4.92,2.26,6.54,6.54,0,0,0,5.13-2.19,9.37,9.37,0,0,0,0-11.47,6.43,6.43,0,0,0-5.08-2.21,6.3,6.3,0,0,0-4.92,2.23A8.27,8.27,0,0,0,664.75,817.48Zm2-21.71a5.22,5.22,0,0,1,1.62-3.84,5.52,5.52,0,0,1,7.8,7.82,5.23,5.23,0,0,1-3.89,1.63,5.32,5.32,0,0,1-3.93-1.63A5.44,5.44,0,0,1,666.71,795.77Zm3,.05a2.45,2.45,0,0,0,.72,1.81,2.42,2.42,0,0,0,1.79.73,2.49,2.49,0,0,0,2.52-2.52,2.48,2.48,0,0,0-2.52-2.51,2.54,2.54,0,0,0-1,.2,2.78,2.78,0,0,0-.8.55,2.6,2.6,0,0,0-.53.8A2.36,2.36,0,0,0,669.73,795.82Z"/><path class="cls-5" d="M721.68,809.4,717,811.92c-.75-1.53-1.67-2.29-2.77-2.29a1.92,1.92,0,0,0-1.35.52,1.74,1.74,0,0,0-.55,1.33q0,1.42,3.3,2.82,4.54,2,6.12,3.61a6.2,6.2,0,0,1,1.57,4.44,7.77,7.77,0,0,1-2.64,6,9,9,0,0,1-6.2,2.29q-6.21,0-8.81-6.07l4.88-2.26a10,10,0,0,0,1.55,2.26,3.53,3.53,0,0,0,2.48,1c1.93,0,2.9-.89,2.9-2.65,0-1-.75-2-2.23-2.84l-1.73-.84-1.75-.83a10.94,10.94,0,0,1-3.51-2.44,6,6,0,0,1-1.29-4,7,7,0,0,1,2.21-5.33,7.71,7.71,0,0,1,5.48-2.11Q719.38,804.5,721.68,809.4Z"/><path class="cls-5" d="M727.54,794.9a3.74,3.74,0,0,1,3.71-3.68,3.62,3.62,0,0,1,2.64,1.09,3.53,3.53,0,0,1,1.09,2.62,3.59,3.59,0,0,1-1.09,2.64,3.5,3.5,0,0,1-2.61,1.09,3.58,3.58,0,0,1-2.64-1.09A3.64,3.64,0,0,1,727.54,794.9Zm6.58,10.29v24.73h-5.71V805.19Z"/><path class="cls-5" d="M747.25,810.52v19.4h-5.71v-19.4H739.1v-5.33h2.44v-9.07h5.71v9.07h4.44v5.33Z"/><path class="cls-5" d="M761.29,805.19v14.19q0,6.15,4.85,6.15t4.85-6.15V805.19h5.71v14.32a15.69,15.69,0,0,1-.74,5.13,8.65,8.65,0,0,1-2.46,3.48,12,12,0,0,1-14.7,0,8.89,8.89,0,0,1-2.51-3.48,14,14,0,0,1-.71-5.13V805.19Z"/><path class="cls-5" d="M802.14,805.19h5.74v24.73h-5.74v-2.59a11,11,0,0,1-16.07-.41,13.77,13.77,0,0,1-3.33-9.44,13.35,13.35,0,0,1,3.33-9.27,10.73,10.73,0,0,1,8.33-3.71,10.5,10.5,0,0,1,7.74,3.56Zm-13.56,12.29a8.62,8.62,0,0,0,1.91,5.79,6.24,6.24,0,0,0,4.92,2.26,6.54,6.54,0,0,0,5.13-2.19,9.37,9.37,0,0,0,0-11.47,6.43,6.43,0,0,0-5.08-2.21,6.3,6.3,0,0,0-4.92,2.23A8.27,8.27,0,0,0,788.58,817.48Z"/><path class="cls-5" d="M821,810.52v19.4h-5.71v-19.4h-2.44v-5.33h2.44v-9.07H821v9.07h4.45v5.33Z"/><path class="cls-5" d="M828.45,794.9a3.55,3.55,0,0,1,1.09-2.59,3.71,3.71,0,0,1,5.25,0,3.54,3.54,0,0,1,1.1,2.62,3.6,3.6,0,0,1-1.1,2.64,3.5,3.5,0,0,1-2.61,1.09,3.72,3.72,0,0,1-3.73-3.76ZM835,805.19v24.73h-5.71V805.19Z"/><path class="cls-5" d="M841.09,817.38a12.27,12.27,0,0,1,3.84-9.12,13.5,13.5,0,0,1,18.73,0,13.24,13.24,0,0,1,0,18.61,13.13,13.13,0,0,1-9.47,3.73,12.56,12.56,0,0,1-9.32-3.81A12.79,12.79,0,0,1,841.09,817.38Zm5.84.1a8.33,8.33,0,0,0,2,5.86,7.69,7.69,0,0,0,10.72,0,9.31,9.31,0,0,0,0-11.53,7.62,7.62,0,0,0-10.67,0A8,8,0,0,0,846.93,817.48Z"/><path class="cls-5" d="M873.52,805.19h5.73v2.28a9.37,9.37,0,0,1,6.76-3,8.54,8.54,0,0,1,6.73,2.72c1.38,1.54,2.08,4,2.08,7.54v15.16h-5.74V816.11q0-3.66-1-5.06c-.66-.95-1.86-1.42-3.6-1.42a4.42,4.42,0,0,0-4,1.88c-.78,1.24-1.17,3.39-1.17,6.47v11.94h-5.73Z"/><path class="cls-5" d="M924.55,818.9H906.83a7.49,7.49,0,0,0,2,4.85,6,6,0,0,0,4.49,1.78,5.83,5.83,0,0,0,3.53-1,14.41,14.41,0,0,0,3.13-3.76l4.82,2.69a19.68,19.68,0,0,1-2.36,3.27,12.56,12.56,0,0,1-2.67,2.23,10.79,10.79,0,0,1-3.07,1.28,15,15,0,0,1-3.58.41,11.66,11.66,0,0,1-8.89-3.56,13.33,13.33,0,0,1-3.35-9.49,13.69,13.69,0,0,1,3.25-9.5,12.39,12.39,0,0,1,17.32-.1q3.15,3.45,3.15,9.57Zm-5.86-4.67q-1.2-4.58-5.77-4.57A6,6,0,0,0,911,810a5.79,5.79,0,0,0-1.67.92,5.86,5.86,0,0,0-1.28,1.43,7,7,0,0,0-.81,1.91Z"/><path class="cls-5" d="M930.8,805.19h5.74v2.28a9.34,9.34,0,0,1,6.75-3,8.54,8.54,0,0,1,6.73,2.72q2.09,2.31,2.08,7.54v15.16h-5.74V816.11q0-3.66-1-5.06c-.66-.95-1.87-1.42-3.61-1.42a4.42,4.42,0,0,0-4,1.88c-.78,1.24-1.16,3.39-1.16,6.47v11.94H930.8Z"/><path class="cls-5" d="M981.07,787v26.16l8-8h7.67l-10.74,10.38,11.52,14.35h-7.41L982,819.48l-.91.92v9.52h-5.71V787Z"/><path class="cls-5" d="M1018.6,805.19h5.74v24.73h-5.74v-2.59a11,11,0,0,1-16.07-.41,13.77,13.77,0,0,1-3.33-9.44,13.35,13.35,0,0,1,3.33-9.27,10.71,10.71,0,0,1,8.32-3.71,10.54,10.54,0,0,1,7.75,3.56ZM1005,817.48a8.61,8.61,0,0,0,1.9,5.79,6.28,6.28,0,0,0,4.93,2.26,6.55,6.55,0,0,0,5.13-2.19,9.41,9.41,0,0,0,0-11.47,6.46,6.46,0,0,0-5.08-2.21,6.32,6.32,0,0,0-4.93,2.23A8.26,8.26,0,0,0,1005,817.48Z"/><path class="cls-5" d="M1031.55,805.19h5.74v2.28a9.34,9.34,0,0,1,6.75-3,8.54,8.54,0,0,1,6.73,2.72q2.09,2.31,2.08,7.54v15.16h-5.74V816.11q0-3.66-1-5.06c-.66-.95-1.87-1.42-3.61-1.42a4.42,4.42,0,0,0-4,1.88c-.78,1.24-1.16,3.39-1.16,6.47v11.94h-5.74Z"/><path class="cls-5" d="M1081.82,787v21a10.56,10.56,0,0,1,7.77-3.56,10.73,10.73,0,0,1,8.33,3.73,13.34,13.34,0,0,1,3.32,9.25,13.56,13.56,0,0,1-3.35,9.44,10.81,10.81,0,0,1-8.4,3.71,10.69,10.69,0,0,1-7.67-3.3v2.59h-5.71V787Zm13.58,30.7a8.53,8.53,0,0,0-1.93-5.79,6.17,6.17,0,0,0-4.9-2.28,6.54,6.54,0,0,0-5.12,2.21,8.16,8.16,0,0,0-2,5.68,8.32,8.32,0,0,0,1.93,5.77,6.43,6.43,0,0,0,5.08,2.21,6.29,6.29,0,0,0,4.92-2.21A8.13,8.13,0,0,0,1095.4,817.73Z"/><path class="cls-5" d="M1113,787v42.89h-5.71V787Z"/><path class="cls-5" d="M1119.37,794.9a3.72,3.72,0,0,1,3.71-3.68,3.63,3.63,0,0,1,2.64,1.09,3.53,3.53,0,0,1,1.09,2.62,3.59,3.59,0,0,1-1.09,2.64,3.5,3.5,0,0,1-2.61,1.09,3.6,3.6,0,0,1-2.65-1.09A3.67,3.67,0,0,1,1119.37,794.9Zm6.58,10.29v24.73h-5.71V805.19Z"/><path class="cls-5" d="M1136.26,805.19l6.4,13.89,6.37-13.89h6.42l-12.84,26.43-12.75-26.43Z"/><path class="cls-5" d="M1181,818.9h-17.73a7.59,7.59,0,0,0,2,4.85,6.07,6.07,0,0,0,4.5,1.78,5.83,5.83,0,0,0,3.53-1,14.61,14.61,0,0,0,3.12-3.76l4.82,2.69a19.13,19.13,0,0,1-2.36,3.27,12.76,12.76,0,0,1-2.66,2.23,10.85,10.85,0,0,1-3.08,1.28,15,15,0,0,1-3.58.41,11.62,11.62,0,0,1-8.88-3.56,13.29,13.29,0,0,1-3.35-9.49,13.69,13.69,0,0,1,3.25-9.5,11.21,11.21,0,0,1,8.68-3.58,11.09,11.09,0,0,1,8.63,3.48q3.15,3.45,3.15,9.57Zm-5.87-4.67q-1.2-4.58-5.76-4.57a6,6,0,0,0-2,.31,5.74,5.74,0,0,0-1.66.92,5.66,5.66,0,0,0-1.28,1.43,6.72,6.72,0,0,0-.82,1.91Z"/><path class="cls-5" d="M1203.24,787H1209v20.21a9.88,9.88,0,0,1,6.73-2.74,8.69,8.69,0,0,1,6.7,2.72c1.42,1.57,2.14,4.09,2.14,7.54v15.16h-5.72V815.29a7,7,0,0,0-1-4.3,4,4,0,0,0-3.39-1.33c-2,0-3.4.61-4.22,1.85s-1.19,3.4-1.19,6.45v12h-5.71Z"/><path class="cls-5" d="M1250,805.19h5.74v24.73H1250v-2.59a11,11,0,0,1-16.07-.41,13.77,13.77,0,0,1-3.33-9.44,13.35,13.35,0,0,1,3.33-9.27,10.73,10.73,0,0,1,8.33-3.71,10.5,10.5,0,0,1,7.74,3.56Zm-13.56,12.29a8.62,8.62,0,0,0,1.91,5.79,6.24,6.24,0,0,0,4.92,2.26,6.54,6.54,0,0,0,5.13-2.19,9.37,9.37,0,0,0,0-11.47,6.43,6.43,0,0,0-5.08-2.21,6.3,6.3,0,0,0-4.92,2.23A8.27,8.27,0,0,0,1236.42,817.48Zm2-21.71a5.22,5.22,0,0,1,1.62-3.84,5.52,5.52,0,0,1,7.8,7.82,5.23,5.23,0,0,1-3.89,1.63,5.32,5.32,0,0,1-3.93-1.63A5.44,5.44,0,0,1,1238.38,795.77Zm3,.05a2.45,2.45,0,0,0,.72,1.81,2.53,2.53,0,1,0,1.79-4.3,2.54,2.54,0,0,0-1,.2,2.78,2.78,0,0,0-.8.55,2.6,2.6,0,0,0-.53.8A2.36,2.36,0,0,0,1241.4,795.82Z"/><path class="cls-5" d="M1262.93,805.19h5.74v2.28a9.37,9.37,0,0,1,6.75-3,8.54,8.54,0,0,1,6.73,2.72q2.08,2.31,2.08,7.54v15.16h-5.73V816.11q0-3.66-1-5.06c-.66-.95-1.86-1.42-3.6-1.42a4.41,4.41,0,0,0-4,1.88c-.78,1.24-1.17,3.39-1.17,6.47v11.94h-5.74Z"/><path class="cls-5" d="M1309.68,787h5.73v42.89h-5.73v-2.59a10.68,10.68,0,0,1-7.65,3.3,10.91,10.91,0,0,1-8.43-3.71,13.81,13.81,0,0,1-3.32-9.44,13.39,13.39,0,0,1,3.32-9.25,10.69,10.69,0,0,1,16.08-.17Zm-13.56,30.45a8.61,8.61,0,0,0,1.9,5.79,6.28,6.28,0,0,0,4.93,2.26,6.57,6.57,0,0,0,5.13-2.19,9.41,9.41,0,0,0,0-11.47,6.46,6.46,0,0,0-5.08-2.21,6.31,6.31,0,0,0-4.93,2.23A8.26,8.26,0,0,0,1296.12,817.48Z"/><path class="cls-5" d="M1328.52,810.52v19.4h-5.72v-19.4h-2.43v-5.33h2.43v-9.07h5.72v9.07H1333v5.33Z"/><path class="cls-5" d="M1359.82,818.9H1342.1a7.49,7.49,0,0,0,2,4.85,6.07,6.07,0,0,0,4.49,1.78,5.81,5.81,0,0,0,3.53-1,14.41,14.41,0,0,0,3.13-3.76l4.82,2.69a19.13,19.13,0,0,1-2.36,3.27,12.56,12.56,0,0,1-2.67,2.23,10.67,10.67,0,0,1-3.07,1.28,15,15,0,0,1-3.58.41,11.66,11.66,0,0,1-8.89-3.56,13.33,13.33,0,0,1-3.35-9.49,13.74,13.74,0,0,1,3.25-9.5,11.24,11.24,0,0,1,8.69-3.58,11.1,11.1,0,0,1,8.63,3.48q3.15,3.45,3.15,9.57Zm-5.86-4.67q-1.2-4.58-5.77-4.57a6,6,0,0,0-2,.31,5.61,5.61,0,0,0-1.66.92,5.89,5.89,0,0,0-1.29,1.43,7,7,0,0,0-.81,1.91Z"/><path class="cls-5" d="M1366.07,805.19h5.71v2.21a10.83,10.83,0,0,1,2.79-2.26,6.35,6.35,0,0,1,3-.64,9.22,9.22,0,0,1,4.72,1.47l-2.61,5.24a5.46,5.46,0,0,0-3.18-1.17q-4.67,0-4.67,7.06v12.82h-5.71Z"/><path class="cls-5" d="M1407.68,818.9H1390a7.49,7.49,0,0,0,2,4.85,6.07,6.07,0,0,0,4.5,1.78,5.8,5.8,0,0,0,3.52-1,14.41,14.41,0,0,0,3.13-3.76l4.82,2.69a19.13,19.13,0,0,1-2.36,3.27,12.56,12.56,0,0,1-2.67,2.23,10.67,10.67,0,0,1-3.07,1.28,15,15,0,0,1-3.58.41,11.62,11.62,0,0,1-8.88-3.56,13.29,13.29,0,0,1-3.36-9.49,13.74,13.74,0,0,1,3.25-9.5,11.24,11.24,0,0,1,8.69-3.58,11.1,11.1,0,0,1,8.63,3.48q3.15,3.45,3.15,9.57Zm-5.86-4.67q-1.2-4.58-5.77-4.57a6,6,0,0,0-2,.31,5.74,5.74,0,0,0-1.66.92,5.89,5.89,0,0,0-1.29,1.43,7,7,0,0,0-.81,1.91Z"/><path class="cls-5" d="M1420.28,810.52v19.4h-5.72v-19.4h-2.43v-5.33h2.43v-9.07h5.72v9.07h4.44v5.33Z"/><path class="cls-5" d="M445.05,879.77a12.29,12.29,0,0,1,3.83-9.11,13.53,13.53,0,0,1,18.74,0,13.26,13.26,0,0,1,0,18.62,13.15,13.15,0,0,1-9.48,3.73,12.55,12.55,0,0,1-9.31-3.81A12.8,12.8,0,0,1,445.05,879.77Zm5.84.11a8.33,8.33,0,0,0,2,5.86,7.71,7.71,0,0,0,10.71,0,9.27,9.27,0,0,0,0-11.53,7.61,7.61,0,0,0-10.66,0A8,8,0,0,0,450.89,879.88Z"/><path class="cls-5" d="M477.47,867.59h5.72v2.21a10.83,10.83,0,0,1,2.79-2.26,6.31,6.31,0,0,1,2.94-.64,9.28,9.28,0,0,1,4.73,1.47L491,873.6a5.49,5.49,0,0,0-3.17-1.16c-3.12,0-4.67,2.35-4.67,7.06v12.82h-5.72Z"/><path class="cls-5" d="M514.8,849.43h5.74v42.89H514.8v-2.59a10.66,10.66,0,0,1-7.65,3.3,10.91,10.91,0,0,1-8.43-3.71,13.81,13.81,0,0,1-3.32-9.44,13.39,13.39,0,0,1,3.32-9.25,10.69,10.69,0,0,1,16.08-.17Zm-13.56,30.45a8.61,8.61,0,0,0,1.9,5.79,6.27,6.27,0,0,0,4.93,2.25,6.56,6.56,0,0,0,5.13-2.18,9.42,9.42,0,0,0,0-11.48,6.48,6.48,0,0,0-5.08-2.2,6.32,6.32,0,0,0-4.93,2.23A8.26,8.26,0,0,0,501.24,879.88Z"/><path class="cls-5" d="M550.27,881.3H532.54a7.55,7.55,0,0,0,2,4.85,6,6,0,0,0,4.49,1.77,5.83,5.83,0,0,0,3.53-1,14.61,14.61,0,0,0,3.12-3.76l4.83,2.69a19.71,19.71,0,0,1-2.37,3.27,12.27,12.27,0,0,1-2.66,2.23,10.79,10.79,0,0,1-3.07,1.28,15,15,0,0,1-3.58.41,11.64,11.64,0,0,1-8.89-3.56,13.33,13.33,0,0,1-3.35-9.49,13.69,13.69,0,0,1,3.25-9.5,12.38,12.38,0,0,1,17.31-.1q3.15,3.45,3.15,9.57Zm-5.87-4.67q-1.18-4.57-5.76-4.57a6,6,0,0,0-2,.31,5.51,5.51,0,0,0-1.66.92,5.66,5.66,0,0,0-1.28,1.43,6.44,6.44,0,0,0-.81,1.91Z"/><path class="cls-5" d="M556.51,867.59h5.74v2.28a9.37,9.37,0,0,1,6.76-3,8.52,8.52,0,0,1,6.72,2.72q2.09,2.31,2.09,7.54v15.16h-5.74V878.5c0-2.43-.34-4.12-1-5s-1.86-1.42-3.6-1.42a4.42,4.42,0,0,0-4,1.88q-1.17,1.85-1.17,6.47v11.94h-5.74Z"/><path class="cls-5" d="M590.92,872.92v19.4h-5.71v-19.4h-2.44v-5.33h2.44v-9.07h5.71v9.07h4.44v5.33Z"/><path class="cls-5" d="M605,849.43v42.89h-5.71V849.43Z"/><path class="cls-5" d="M611.33,857.3a3.72,3.72,0,0,1,3.71-3.68,3.63,3.63,0,0,1,2.64,1.09,3.52,3.52,0,0,1,1.09,2.62,3.59,3.59,0,0,1-1.09,2.64,3.5,3.5,0,0,1-2.62,1.09,3.59,3.59,0,0,1-2.64-1.09A3.67,3.67,0,0,1,611.33,857.3Zm6.58,10.29v24.73H612.2V867.59Z"/><path class="cls-5" d="M649.06,891.73c0,1.17,0,2.2-.11,3.09a21.29,21.29,0,0,1-.32,2.35,10.48,10.48,0,0,1-2.39,4.8,11.56,11.56,0,0,1-9.21,3.86,12.28,12.28,0,0,1-8.15-2.67,10.91,10.91,0,0,1-3.81-7.59h5.74a6.47,6.47,0,0,0,1.09,2.82,6.13,6.13,0,0,0,5.18,2.31q6.27,0,6.27-7.7v-3.45A10.67,10.67,0,0,1,635.5,893a10.53,10.53,0,0,1-8.27-3.66A13.53,13.53,0,0,1,624,880.1a14.26,14.26,0,0,1,3-9.19,10.52,10.52,0,0,1,8.58-4,10,10,0,0,1,7.77,3.48v-2.79h5.71ZM643.58,880a8.36,8.36,0,0,0-1.93-5.76,6.4,6.4,0,0,0-5-2.21,6.14,6.14,0,0,0-5.13,2.41,8.73,8.73,0,0,0-1.7,5.59,8.63,8.63,0,0,0,1.7,5.53,6.13,6.13,0,0,0,5.13,2.36,6.28,6.28,0,0,0,5.18-2.38A8.56,8.56,0,0,0,643.58,880Z"/><path class="cls-5" d="M657.16,889.47a3.48,3.48,0,1,1,1,2.54A3.4,3.4,0,0,1,657.16,889.47Z"/></g></svg>