<svg xmlns="http://www.w3.org/2000/svg" width="1920" height="1080" viewBox="0 0 1920 1080"><defs><style>.cls-1{fill:#152230;}.cls-2{fill:#264159;}.cls-3{fill:#091014;}.cls-4{fill:#fff;}</style></defs><title>senarie2</title><g id="Layer_2" data-name="Layer 2"><rect class="cls-1" x="-15" y="59" width="1920" height="1080"/><circle class="cls-2" cx="130" cy="209" r="50"/><circle class="cls-2" cx="1199" cy="392" r="50"/><circle class="cls-2" cx="1718" cy="977" r="50"/><circle class="cls-2" cx="211" cy="750" r="50"/><circle class="cls-2" cx="898" cy="635" r="50"/><circle class="cls-2" cx="527" cy="392" r="50"/><circle class="cls-2" cx="1182" cy="900" r="50"/><circle class="cls-2" cx="1555" cy="549" r="50"/><circle class="cls-2" cx="813" cy="209" r="50"/><circle class="cls-2" cx="577" cy="1027" r="50"/><circle class="cls-2" cx="1605" cy="233" r="50"/><polygon class="cls-2" points="427 140 348 140 348 165 348 183 348 228 312 228 312 271 313 271 313 317 277 317 277 360 356 360 356 338 356 317 356 271 391 271 391 244 391 228 391 183 427 183 427 140"/><polygon class="cls-2" points="973 817 894 817 894 842 894 860 894 905 858 905 858 948 859 948 859 994 823 994 823 1037 902 1037 902 1015 902 994 902 948 937 948 937 921 937 905 937 860 973 860 973 817"/><polygon class="cls-2" points="286 966 207 966 207 991 207 1009 207 1054 171 1054 171 1097 172 1097 172 1143 136 1143 136 1186 215 1186 215 1164 215 1143 215 1097 250 1097 250 1070 250 1054 250 1009 286 1009 286 966"/><polygon class="cls-2" points="1377 850 1456 850 1456 875 1456 893 1456 938 1492 938 1492 981 1491 981 1491 1027 1527 1027 1527 1070 1448 1070 1448 1048 1448 1027 1448 981 1413 981 1413 954 1413 938 1413 893 1377 893 1377 850"/><polygon class="cls-2" points="1274 -11 1353 -11 1353 14 1353 32 1353 77 1389 77 1389 120 1388 120 1388 166 1424 166 1424 209 1345 209 1345 187 1345 166 1345 120 1310 120 1310 93 1310 77 1310 32 1274 32 1274 -11"/><polygon class="cls-2" points="1693 429 1772 429 1772 454 1772 472 1772 517 1808 517 1808 560 1807 560 1807 606 1843 606 1843 649 1764 649 1764 627 1764 606 1764 560 1729 560 1729 533 1729 517 1729 472 1693 472 1693 429"/><polygon class="cls-2" points="1048 232 969 232 969 257 969 275 969 320 933 320 933 363 934 363 934 409 898 409 898 452 977 452 977 430 977 409 977 363 1012 363 1012 336 1012 320 1012 275 1048 275 1048 232"/><polygon class="cls-2" points="1399 470 1320 470 1320 495 1320 513 1320 558 1284 558 1284 601 1285 601 1285 647 1249 647 1249 690 1328 690 1328 668 1328 647 1328 601 1363 601 1363 574 1363 558 1363 513 1399 513 1399 470"/><polygon class="cls-2" points="477 580 556 580 556 605 556 623 556 668 592 668 592 711 591 711 591 757 627 757 627 800 548 800 548 778 548 757 548 711 513 711 513 684 513 668 513 623 477 623 477 580"/><polygon class="cls-2" points="-54 332 25 332 25 357 25 375 25 420 61 420 61 463 60 463 60 509 96 509 96 552 17 552 17 530 17 509 17 463 -18 463 -18 436 -18 420 -18 375 -54 375 -54 332"/><rect class="cls-2" x="1781" y="224" width="40" height="110" rx="20" transform="translate(216.62 1179.65) rotate(-38.42)"/><rect class="cls-2" x="1665" y="4" width="40" height="110" rx="20" transform="translate(2968.45 1152.37) rotate(-141.58)"/><rect class="cls-2" x="1564" y="695" width="40" height="110" rx="20" transform="translate(2358.9 2321.97) rotate(-141.58)"/><rect class="cls-2" x="1231" y="1061" width="40" height="110" rx="20" transform="translate(1537.56 2767.77) rotate(-141.58)"/><rect class="cls-2" x="723" y="397" width="40" height="110" rx="20" transform="translate(1044.21 1267.86) rotate(-141.58)"/><rect class="cls-2" x="27" y="905" width="40" height="110" rx="20" transform="translate(-512.77 1741.32) rotate(-141.58)"/><rect class="cls-2" x="374" y="845" width="40" height="110" rx="20" transform="translate(143.38 1849.96) rotate(-141.58)"/><rect class="cls-2" x="574" y="85" width="40" height="110" rx="20" transform="translate(972.37 618.83) rotate(-141.58)"/><rect class="cls-2" x="1057" y="635" width="40" height="110" rx="20" transform="translate(1491.98 1899.89) rotate(-141.58)"/><rect class="cls-2" x="1432" y="305" width="40" height="110" rx="20" transform="translate(90.7 980.3) rotate(-38.42)"/><rect class="cls-2" x="1112" y="44" width="40" height="110" rx="20" transform="translate(183.61 724.92) rotate(-38.42)"/><rect class="cls-2" x="1885" y="809" width="40" height="110" rx="20" transform="translate(-124.41 1370.96) rotate(-38.42)"/><rect class="cls-2" x="681" y="845" width="40" height="110" rx="20" transform="translate(-407.51 630.53) rotate(-38.42)"/><rect class="cls-2" x="250" y="494" width="40" height="110" rx="20" transform="translate(-282.71 286.68) rotate(-38.42)"/><rect class="cls-3" x="313" y="225" width="1140" height="655" rx="12"/><rect class="cls-1" width="1920" height="1080"/><circle class="cls-2" cx="145" cy="150" r="50"/><circle class="cls-2" cx="1214" cy="333" r="50"/><circle class="cls-2" cx="1733" cy="918" r="50"/><circle class="cls-2" cx="226" cy="691" r="50"/><circle class="cls-2" cx="913" cy="576" r="50"/><circle class="cls-2" cx="542" cy="333" r="50"/><circle class="cls-2" cx="1197" cy="841" r="50"/><circle class="cls-2" cx="1570" cy="490" r="50"/><circle class="cls-2" cx="828" cy="150" r="50"/><circle class="cls-2" cx="592" cy="968" r="50"/><circle class="cls-2" cx="1620" cy="174" r="50"/><polygon class="cls-2" points="442 81 363 81 363 106 363 124 363 169 327 169 327 212 328 212 328 258 292 258 292 301 371 301 371 279 371 258 371 212 406 212 406 185 406 169 406 124 442 124 442 81"/><polygon class="cls-2" points="988 758 909 758 909 783 909 801 909 846 873 846 873 889 874 889 874 935 838 935 838 978 917 978 917 956 917 935 917 889 952 889 952 862 952 846 952 801 988 801 988 758"/><polygon class="cls-2" points="301 907 222 907 222 932 222 950 222 995 186 995 186 1038 187 1038 187 1084 151 1084 151 1127 230 1127 230 1105 230 1084 230 1038 265 1038 265 1011 265 995 265 950 301 950 301 907"/><polygon class="cls-2" points="1392 791 1471 791 1471 816 1471 834 1471 879 1507 879 1507 922 1506 922 1506 968 1542 968 1542 1011 1463 1011 1463 989 1463 968 1463 922 1428 922 1428 895 1428 879 1428 834 1392 834 1392 791"/><polygon class="cls-2" points="1289 -70 1368 -70 1368 -45 1368 -27 1368 18 1404 18 1404 61 1403 61 1403 107 1439 107 1439 150 1360 150 1360 128 1360 107 1360 61 1325 61 1325 34 1325 18 1325 -27 1289 -27 1289 -70"/><polygon class="cls-2" points="1708 370 1787 370 1787 395 1787 413 1787 458 1823 458 1823 501 1822 501 1822 547 1858 547 1858 590 1779 590 1779 568 1779 547 1779 501 1744 501 1744 474 1744 458 1744 413 1708 413 1708 370"/><polygon class="cls-2" points="1063 173 984 173 984 198 984 216 984 261 948 261 948 304 949 304 949 350 913 350 913 393 992 393 992 371 992 350 992 304 1027 304 1027 277 1027 261 1027 216 1063 216 1063 173"/><polygon class="cls-2" points="1414 411 1335 411 1335 436 1335 454 1335 499 1299 499 1299 542 1300 542 1300 588 1264 588 1264 631 1343 631 1343 609 1343 588 1343 542 1378 542 1378 515 1378 499 1378 454 1414 454 1414 411"/><polygon class="cls-2" points="492 521 571 521 571 546 571 564 571 609 607 609 607 652 606 652 606 698 642 698 642 741 563 741 563 719 563 698 563 652 528 652 528 625 528 609 528 564 492 564 492 521"/><polygon class="cls-2" points="-39 273 40 273 40 298 40 316 40 361 76 361 76 404 75 404 75 450 111 450 111 493 32 493 32 471 32 450 32 404 -3 404 -3 377 -3 361 -3 316 -39 316 -39 273"/><rect class="cls-2" x="1796" y="165" width="40" height="110" rx="20" transform="translate(256.53 1176.19) rotate(-38.42)"/><rect class="cls-2" x="1680" y="-55" width="40" height="110" rx="20" transform="translate(3031.87 1056.47) rotate(-141.58)"/><rect class="cls-2" x="1579" y="636" width="40" height="110" rx="20" transform="translate(2422.32 2226.07) rotate(-141.58)"/><rect class="cls-2" x="1246" y="1002" width="40" height="110" rx="20" transform="translate(1600.98 2671.87) rotate(-141.58)"/><rect class="cls-2" x="738" y="338" width="40" height="110" rx="20" transform="translate(1107.63 1171.96) rotate(-141.58)"/><rect class="cls-2" x="42" y="846" width="40" height="110" rx="20" transform="translate(-449.35 1645.42) rotate(-141.58)"/><rect class="cls-2" x="389" y="786" width="40" height="110" rx="20" transform="translate(206.79 1754.06) rotate(-141.58)"/><rect class="cls-2" x="589" y="26" width="40" height="110" rx="20" transform="translate(1035.79 522.92) rotate(-141.58)"/><rect class="cls-2" x="1072" y="576" width="40" height="110" rx="20" transform="translate(1555.4 1803.98) rotate(-141.58)"/><rect class="cls-2" x="1447" y="246" width="40" height="110" rx="20" transform="translate(130.62 976.85) rotate(-38.42)"/><rect class="cls-2" x="1127" y="-15" width="40" height="110" rx="20" transform="translate(223.52 721.47) rotate(-38.42)"/><rect class="cls-2" x="1900" y="750" width="40" height="110" rx="20" transform="translate(-84.5 1367.51) rotate(-38.42)"/><rect class="cls-2" x="696" y="786" width="40" height="110" rx="20" transform="translate(-367.59 627.07) rotate(-38.42)"/><rect class="cls-2" x="265" y="435" width="40" height="110" rx="20" transform="translate(-242.79 283.22) rotate(-38.42)"/><rect class="cls-3" x="328" y="166" width="1140" height="655" rx="12"/><rect class="cls-2" x="418" y="263" width="1140" height="655" rx="12"/><polygon class="cls-2" points="286 -213 207 -213 207 -188 207 -170 207 -125 171 -125 171 -82 172 -82 172 -36 136 -36 136 7 215 7 215 -15 215 -36 215 -82 250 -82 250 -109 250 -125 250 -170 286 -170 286 -213"/></g><g id="Layer_3" data-name="Layer 3"><path class="cls-4" d="M444.49,333.37V292.66H453a31.12,31.12,0,0,1,9.71,1.21,18.13,18.13,0,0,1,6.93,4Q476,303.66,476,313a19.78,19.78,0,0,1-13.47,19.22,31.27,31.27,0,0,1-9.57,1.14Zm6.14-5.78h2.77a23.05,23.05,0,0,0,6.88-.87,14,14,0,0,0,9.5-13.71,14.15,14.15,0,0,0-4.49-10.86q-4-3.72-11.89-3.72h-2.77Z"/><path class="cls-4" d="M501.5,307.69h5.95v25.68H501.5v-2.69a11.4,11.4,0,0,1-16.7-.42,14.33,14.33,0,0,1-3.45-9.81,13.91,13.91,0,0,1,3.45-9.63,11.17,11.17,0,0,1,8.65-3.85,11,11,0,0,1,8.05,3.69Zm-14.08,12.76a8.94,8.94,0,0,0,2,6,6.5,6.5,0,0,0,5.12,2.34,6.79,6.79,0,0,0,5.32-2.26,9.76,9.76,0,0,0,0-11.92,6.7,6.7,0,0,0-5.27-2.29,6.53,6.53,0,0,0-5.11,2.32A8.5,8.5,0,0,0,487.42,320.45Zm2-22.55a5.41,5.41,0,0,1,1.68-4,5.73,5.73,0,1,1,8.1,8.12,5.44,5.44,0,0,1-4,1.69,5.53,5.53,0,0,1-4.08-1.69A5.65,5.65,0,0,1,489.45,297.9Zm3.13.06a2.56,2.56,0,0,0,2.61,2.63,2.61,2.61,0,1,0,0-5.22,2.45,2.45,0,0,0-1,.21,2.71,2.71,0,0,0-.84.57,2.61,2.61,0,0,0-.55.83A2.56,2.56,0,0,0,492.58,298Z"/><path class="cls-4" d="M514.94,307.69h5.94V310a11.1,11.1,0,0,1,2.9-2.35,6.63,6.63,0,0,1,3.05-.66,9.6,9.6,0,0,1,4.91,1.53L529,313.93a5.7,5.7,0,0,0-3.29-1.21q-4.86,0-4.85,7.33v13.32h-5.94Z"/><path class="cls-4" d="M541.89,288.83v44.54H536V288.83Z"/><path class="cls-4" d="M548.51,297a3.88,3.88,0,0,1,3.85-3.83,3.73,3.73,0,0,1,2.74,1.14,3.61,3.61,0,0,1,1.13,2.71,3.73,3.73,0,0,1-1.13,2.75,3.67,3.67,0,0,1-2.72,1.13,3.86,3.86,0,0,1-3.87-3.9Zm6.83,10.68v25.68H549.4V307.69Z"/><path class="cls-4" d="M587.69,332.76c0,1.21,0,2.28-.12,3.2a22.3,22.3,0,0,1-.33,2.44,10.85,10.85,0,0,1-2.48,5q-3.48,4-9.57,4a12.73,12.73,0,0,1-8.46-2.77,11.27,11.27,0,0,1-4-7.88h6a6.75,6.75,0,0,0,1.14,2.93,6.36,6.36,0,0,0,5.37,2.4q6.53,0,6.52-8v-3.59a11.09,11.09,0,0,1-8.15,3.62,11,11,0,0,1-8.6-3.8,14.09,14.09,0,0,1-3.37-9.63,14.77,14.77,0,0,1,3.14-9.54,10.9,10.9,0,0,1,8.91-4.17,10.37,10.37,0,0,1,8.07,3.62v-2.9h5.93ZM582,320.58a8.64,8.64,0,0,0-2-6,6.6,6.6,0,0,0-5.19-2.29,6.39,6.39,0,0,0-5.33,2.5,9.1,9.1,0,0,0-1.77,5.81,9,9,0,0,0,1.77,5.74,6.38,6.38,0,0,0,5.33,2.45,6.5,6.5,0,0,0,5.37-2.47A8.8,8.8,0,0,0,582,320.58Z"/><path class="cls-4" d="M611,297a3.64,3.64,0,0,1,1.13-2.69,3.68,3.68,0,0,1,2.71-1.14,3.74,3.74,0,0,1,2.75,1.14,3.65,3.65,0,0,1,1.13,2.71,3.77,3.77,0,0,1-1.13,2.75,3.68,3.68,0,0,1-2.72,1.13A3.86,3.86,0,0,1,611,297Zm6.82,10.68v25.68h-5.93V307.69Z"/><path class="cls-4" d="M644.22,288.83h6v44.54h-6v-2.69a11.09,11.09,0,0,1-7.94,3.43,11.32,11.32,0,0,1-8.75-3.85,14.33,14.33,0,0,1-3.45-9.81,13.86,13.86,0,0,1,3.45-9.6,11.09,11.09,0,0,1,16.69-.19Zm-14.08,31.62a8.94,8.94,0,0,0,2,6,6.48,6.48,0,0,0,5.11,2.34,6.81,6.81,0,0,0,5.33-2.26,9.76,9.76,0,0,0,0-11.92,6.7,6.7,0,0,0-5.27-2.29,6.55,6.55,0,0,0-5.12,2.32A8.55,8.55,0,0,0,630.14,320.45Z"/><path class="cls-4" d="M681.06,321.92H662.65a7.84,7.84,0,0,0,2.06,5,6.27,6.27,0,0,0,4.67,1.84,6.09,6.09,0,0,0,3.66-1.05,14.84,14.84,0,0,0,3.24-3.9l5,2.79a19.75,19.75,0,0,1-2.45,3.39,12.7,12.7,0,0,1-2.77,2.32,10.94,10.94,0,0,1-3.19,1.33,15.56,15.56,0,0,1-3.72.43,12,12,0,0,1-9.22-3.7q-3.48-3.71-3.48-9.86a14.23,14.23,0,0,1,3.37-9.86,11.63,11.63,0,0,1,9-3.72,11.51,11.51,0,0,1,9,3.62q3.27,3.59,3.27,9.94Zm-6.1-4.85c-.82-3.16-2.82-4.74-6-4.74a6.13,6.13,0,0,0-2,.33,5.93,5.93,0,0,0-1.73.94,6.13,6.13,0,0,0-1.33,1.49,6.8,6.8,0,0,0-.84,2Z"/><path class="cls-4" d="M691.21,325.75l5.27,2.05L689,342.86l-4-1.66Z"/><path class="cls-4" d="M739.8,288.83h6v44.54h-6v-2.69a11.09,11.09,0,0,1-7.93,3.43,11.33,11.33,0,0,1-8.76-3.85,14.33,14.33,0,0,1-3.45-9.81,13.86,13.86,0,0,1,3.45-9.6,11.09,11.09,0,0,1,16.69-.19Zm-14.08,31.62a8.94,8.94,0,0,0,2,6,6.48,6.48,0,0,0,5.11,2.34,6.81,6.81,0,0,0,5.33-2.26,9.76,9.76,0,0,0,0-11.92,6.7,6.7,0,0,0-5.27-2.29,6.55,6.55,0,0,0-5.12,2.32A8.55,8.55,0,0,0,725.72,320.45Z"/><path class="cls-4" d="M776.64,321.92H758.23a7.84,7.84,0,0,0,2.06,5A6.27,6.27,0,0,0,765,328.8a6.09,6.09,0,0,0,3.66-1.05,14.84,14.84,0,0,0,3.24-3.9l5,2.79a19.75,19.75,0,0,1-2.45,3.39,12.7,12.7,0,0,1-2.77,2.32,10.83,10.83,0,0,1-3.19,1.33,15.54,15.54,0,0,1-3.71.43,12.05,12.05,0,0,1-9.23-3.7q-3.48-3.71-3.48-9.86a14.23,14.23,0,0,1,3.37-9.86,11.63,11.63,0,0,1,9-3.72,11.51,11.51,0,0,1,9,3.62q3.27,3.59,3.27,9.94Zm-6.09-4.85q-1.24-4.74-6-4.74a6.13,6.13,0,0,0-2,.33,5.93,5.93,0,0,0-1.73.94,6.13,6.13,0,0,0-1.33,1.49,6.8,6.8,0,0,0-.84,2Z"/><path class="cls-4" d="M783.12,307.69h5.94V310a11.27,11.27,0,0,1,2.9-2.35,6.63,6.63,0,0,1,3-.66,9.6,9.6,0,0,1,4.91,1.53l-2.72,5.43a5.7,5.7,0,0,0-3.29-1.21q-4.86,0-4.85,7.33v13.32h-5.94Z"/><path class="cls-4" d="M820,307.69h5.94V310a11.27,11.27,0,0,1,2.9-2.35,6.64,6.64,0,0,1,3.06-.66,9.56,9.56,0,0,1,4.9,1.53l-2.72,5.43a5.7,5.7,0,0,0-3.29-1.21q-4.86,0-4.85,7.33v13.32H820Z"/><path class="cls-4" d="M860.25,309.48l4.06-4,2.69,2.85-4,3.87a13.69,13.69,0,0,1,2.88,8.42,12.89,12.89,0,0,1-4,9.59,13.11,13.11,0,0,1-9.65,3.91,13.93,13.93,0,0,1-8.49-2.69l-3.9,3.77-2.71-2.75,3.87-3.85a14.13,14.13,0,0,1-2.56-8.12,12.86,12.86,0,0,1,4-9.57,13.37,13.37,0,0,1,9.73-3.93A14.31,14.31,0,0,1,860.25,309.48Zm-4.3,4.06a8,8,0,0,0-3.72-.82,7.4,7.4,0,0,0-5.59,2.16,7.93,7.93,0,0,0-2.08,5.75,8.74,8.74,0,0,0,.82,3.83Zm2.85,2.69L848,327.38a8.56,8.56,0,0,0,4.17,1.06,7.44,7.44,0,0,0,5.53-2.14,7.86,7.86,0,0,0,2.09-5.69A9.73,9.73,0,0,0,858.8,316.23Z"/><path class="cls-4" d="M897,332.76c0,1.21,0,2.28-.12,3.2a18.29,18.29,0,0,1-.33,2.44,10.83,10.83,0,0,1-2.47,5q-3.48,4-9.58,4a12.77,12.77,0,0,1-8.46-2.77,11.3,11.3,0,0,1-3.95-7.88H878a6.75,6.75,0,0,0,1.14,2.93,6.37,6.37,0,0,0,5.38,2.4q6.51,0,6.51-8v-3.59a11.09,11.09,0,0,1-8.15,3.62,10.93,10.93,0,0,1-8.59-3.8,14.1,14.1,0,0,1-3.38-9.63,14.82,14.82,0,0,1,3.14-9.54A10.9,10.9,0,0,1,883,307a10.34,10.34,0,0,1,8.07,3.62v-2.9H897Zm-5.69-12.18a8.64,8.64,0,0,0-2-6,6.6,6.6,0,0,0-5.19-2.29,6.39,6.39,0,0,0-5.33,2.5,9.16,9.16,0,0,0-1.76,5.81,9,9,0,0,0,1.76,5.74,6.39,6.39,0,0,0,5.33,2.45,6.51,6.51,0,0,0,5.38-2.47A8.86,8.86,0,0,0,891.31,320.58Z"/><path class="cls-4" d="M940.09,288.83h6v44.54h-6v-2.69a11.11,11.11,0,0,1-7.94,3.43,11.31,11.31,0,0,1-8.75-3.85,14.29,14.29,0,0,1-3.46-9.81,13.82,13.82,0,0,1,3.46-9.6,11.09,11.09,0,0,1,16.69-.19ZM926,320.45a9,9,0,0,0,2,6,6.5,6.5,0,0,0,5.12,2.34,6.82,6.82,0,0,0,5.33-2.26,9.76,9.76,0,0,0,0-11.92,6.73,6.73,0,0,0-5.28-2.29,6.53,6.53,0,0,0-5.11,2.32A8.5,8.5,0,0,0,926,320.45Z"/><path class="cls-4" d="M976.92,321.92h-18.4a7.83,7.83,0,0,0,2.05,5,6.28,6.28,0,0,0,4.67,1.84,6.11,6.11,0,0,0,3.67-1.05,14.84,14.84,0,0,0,3.24-3.9l5,2.79a19.75,19.75,0,0,1-2.45,3.39,12.94,12.94,0,0,1-2.77,2.32,11.06,11.06,0,0,1-3.19,1.33,15.56,15.56,0,0,1-3.72.43,12.07,12.07,0,0,1-9.23-3.7q-3.48-3.71-3.48-9.86a14.24,14.24,0,0,1,3.38-9.86,12.85,12.85,0,0,1,18-.1q3.27,3.59,3.27,9.94Zm-6.09-4.85q-1.25-4.74-6-4.74a6.09,6.09,0,0,0-2,.33,5.8,5.8,0,0,0-1.73.94,6.13,6.13,0,0,0-1.33,1.49,7.09,7.09,0,0,0-.85,2Z"/><path class="cls-4" d="M983.41,307.69h6v2.37a9.7,9.7,0,0,1,7-3.09,8.86,8.86,0,0,1,7,2.82q2.16,2.4,2.16,7.83v15.75h-6V319q0-3.79-1.05-5.24c-.69-1-1.94-1.48-3.75-1.48a4.58,4.58,0,0,0-4.19,1.95c-.81,1.28-1.21,3.53-1.21,6.72v12.4h-6Z"/><path class="cls-4" d="M1035.62,307.69v14.73c0,4.26,1.67,6.38,5,6.38s5-2.12,5-6.38V307.69h5.93v14.87a16.52,16.52,0,0,1-.76,5.32,9,9,0,0,1-2.56,3.61,12.43,12.43,0,0,1-15.27,0,9,9,0,0,1-2.61-3.61,14.69,14.69,0,0,1-.74-5.32V307.69Z"/><path class="cls-4" d="M1059.11,307.69h6v2.37a9.7,9.7,0,0,1,7-3.09,8.86,8.86,0,0,1,7,2.82q2.16,2.4,2.16,7.83v15.75h-6V319q0-3.79-1-5.24c-.69-1-1.94-1.48-3.75-1.48a4.58,4.58,0,0,0-4.19,1.95c-.81,1.28-1.21,3.53-1.21,6.72v12.4h-6Z"/><path class="cls-4" d="M1113.56,332.76c0,1.21,0,2.28-.12,3.2a22.3,22.3,0,0,1-.33,2.44,10.85,10.85,0,0,1-2.48,5q-3.48,4-9.57,4a12.77,12.77,0,0,1-8.47-2.77,11.3,11.3,0,0,1-3.95-7.88h6a6.88,6.88,0,0,0,1.13,2.93,6.38,6.38,0,0,0,5.38,2.4q6.51,0,6.51-8v-3.59a11.07,11.07,0,0,1-8.14,3.62,11,11,0,0,1-8.6-3.8,14.09,14.09,0,0,1-3.37-9.63,14.82,14.82,0,0,1,3.13-9.54,10.9,10.9,0,0,1,8.92-4.17,10.33,10.33,0,0,1,8.06,3.62v-2.9h5.94Zm-5.7-12.18a8.69,8.69,0,0,0-2-6,6.64,6.64,0,0,0-5.2-2.29,6.37,6.37,0,0,0-5.32,2.5,9.1,9.1,0,0,0-1.77,5.81,9,9,0,0,0,1.77,5.74,6.37,6.37,0,0,0,5.32,2.45,6.51,6.51,0,0,0,5.38-2.47A8.86,8.86,0,0,0,1107.86,320.58Z"/><path class="cls-4" d="M1140,288.83h6v44.54h-6v-2.69a11.11,11.11,0,0,1-7.94,3.43,11.31,11.31,0,0,1-8.75-3.85,14.29,14.29,0,0,1-3.46-9.81,13.82,13.82,0,0,1,3.46-9.6,11.09,11.09,0,0,1,16.69-.19Zm-14.08,31.62a9,9,0,0,0,2,6,6.5,6.5,0,0,0,5.12,2.34,6.82,6.82,0,0,0,5.33-2.26,9.76,9.76,0,0,0,0-11.92,6.73,6.73,0,0,0-5.28-2.29,6.53,6.53,0,0,0-5.11,2.32A8.5,8.5,0,0,0,1125.9,320.45Z"/><path class="cls-4" d="M1152.21,320.34a12.76,12.76,0,0,1,4-9.46,14,14,0,0,1,19.46,0,13.74,13.74,0,0,1,0,19.33,13.62,13.62,0,0,1-9.83,3.88,13,13,0,0,1-9.68-4A13.3,13.3,0,0,1,1152.21,320.34Zm6.07.11a8.68,8.68,0,0,0,2,6.09,8,8,0,0,0,11.13,0,9.65,9.65,0,0,0,0-12,7.92,7.92,0,0,0-11.08,0A8.3,8.3,0,0,0,1158.28,320.45Z"/><path class="cls-4" d="M1185.88,307.69h5.93v2.37a12.39,12.39,0,0,1,2.93-2.43A7.08,7.08,0,0,1,1198,307a7.89,7.89,0,0,1,6.89,3.8,8.9,8.9,0,0,1,7.56-3.8q8.68,0,8.68,10.52v15.88h-6V319.1a11,11,0,0,0-.9-5.22,3.23,3.23,0,0,0-3-1.55,3.86,3.86,0,0,0-3.57,1.84q-1.12,1.84-1.12,5.93v13.27h-6V319.18q0-6.85-4-6.85a4,4,0,0,0-3.65,1.87,11.7,11.7,0,0,0-1.15,5.9v13.27h-5.93Z"/><path class="cls-4" d="M1229.52,330.41a3.67,3.67,0,0,1,7.33,0,3.67,3.67,0,1,1-7.33,0Z"/><path class="cls-4" d="M450.63,422.26v24.52c0,3.5.57,6.05,1.72,7.67a9.16,9.16,0,0,0,14.42,0q1.71-2.34,1.71-7.67V422.26h6.15v26.2a14.66,14.66,0,0,1-4,10.6,15.48,15.48,0,0,1-22.12,0,14.66,14.66,0,0,1-4-10.6v-26.2Z"/><path class="cls-4" d="M502.18,437.29h6V463h-6v-2.69a11.39,11.39,0,0,1-16.69-.42,14.33,14.33,0,0,1-3.45-9.81,13.91,13.91,0,0,1,3.45-9.63,11.16,11.16,0,0,1,8.65-3.85,10.91,10.91,0,0,1,8,3.69ZM488.1,450.05a8.94,8.94,0,0,0,2,6,6.49,6.49,0,0,0,5.11,2.35,6.81,6.81,0,0,0,5.33-2.27,9.76,9.76,0,0,0,0-11.92,6.7,6.7,0,0,0-5.27-2.29,6.55,6.55,0,0,0-5.12,2.32A8.55,8.55,0,0,0,488.1,450.05Z"/><path class="cls-4" d="M515.63,437.29h6v2.37a9.7,9.7,0,0,1,7-3.09,8.86,8.86,0,0,1,7,2.82q2.16,2.4,2.16,7.84V463h-6V448.62q0-3.8-1-5.24c-.69-1-1.94-1.48-3.75-1.48a4.58,4.58,0,0,0-4.19,2c-.81,1.28-1.21,3.53-1.21,6.72V463h-6Z"/><path class="cls-4" d="M560.16,441.66l-4.9,2.61c-.78-1.58-1.73-2.37-2.88-2.37a2,2,0,0,0-1.39.54,1.79,1.79,0,0,0-.58,1.38q0,1.49,3.42,2.93c3.15,1.36,5.27,2.6,6.36,3.75a6.4,6.4,0,0,1,1.63,4.61,8.07,8.07,0,0,1-2.74,6.22,9.34,9.34,0,0,1-6.43,2.38q-6.46,0-9.15-6.31l5.06-2.34a10.66,10.66,0,0,0,1.61,2.34,3.66,3.66,0,0,0,2.58,1c2,0,3-.92,3-2.75,0-1.05-.77-2-2.32-3l-1.79-.87-1.82-.87a11,11,0,0,1-3.64-2.53,6.21,6.21,0,0,1-1.35-4.14,7.34,7.34,0,0,1,2.3-5.54,8,8,0,0,1,5.69-2.19Q557.77,436.57,560.16,441.66Z"/><path class="cls-4" d="M590.54,451.52H572.13a7.84,7.84,0,0,0,2.06,5,6.28,6.28,0,0,0,4.67,1.85,6.1,6.1,0,0,0,3.66-1.06,14.84,14.84,0,0,0,3.24-3.9l5,2.79a19.75,19.75,0,0,1-2.45,3.39,12.7,12.7,0,0,1-2.77,2.32,10.83,10.83,0,0,1-3.19,1.33,15.54,15.54,0,0,1-3.71.43,12.09,12.09,0,0,1-9.23-3.7q-3.48-3.7-3.48-9.86a14.22,14.22,0,0,1,3.37-9.86,11.63,11.63,0,0,1,9-3.72,11.51,11.51,0,0,1,9,3.62q3.27,3.58,3.27,9.94Zm-6.09-4.85q-1.25-4.74-6-4.74a6.13,6.13,0,0,0-2,.33,5.73,5.73,0,0,0-1.73.95,5.9,5.9,0,0,0-1.33,1.48,6.8,6.8,0,0,0-.84,2Z"/><path class="cls-4" d="M603.62,442.82V463h-5.94V442.82h-2.53v-5.53h2.53v-9.42h5.94v9.42h4.61v5.53Z"/><path class="cls-4" d="M627.71,449.94a12.73,12.73,0,0,1,4-9.46,14,14,0,0,1,19.46,0,13.76,13.76,0,0,1,0,19.33,13.63,13.63,0,0,1-9.84,3.88,13,13,0,0,1-9.67-4A13.31,13.31,0,0,1,627.71,449.94Zm6.07.11a8.64,8.64,0,0,0,2.06,6.09,8,8,0,0,0,11.12,0,9.61,9.61,0,0,0,0-12,7.91,7.91,0,0,0-11.07,0A8.27,8.27,0,0,0,633.78,450.05Z"/><path class="cls-4" d="M661.39,437.29h5.93v2.37a12.2,12.2,0,0,1,2.93-2.43,7.08,7.08,0,0,1,3.24-.66,7.88,7.88,0,0,1,6.88,3.8,8.92,8.92,0,0,1,7.57-3.8q8.67,0,8.67,10.52V463h-6V448.7a11.12,11.12,0,0,0-.89-5.22,3.25,3.25,0,0,0-3-1.55,3.87,3.87,0,0,0-3.57,1.84Q682,445.62,682,449.7V463h-6V448.78q0-6.86-4-6.85a4,4,0,0,0-3.65,1.87c-.77,1.25-1.15,3.21-1.15,5.9V463h-5.93Z"/><path class="cls-4" d="M739.7,418.43h6V463h-6v-2.69a11.11,11.11,0,0,1-7.94,3.43,11.31,11.31,0,0,1-8.75-3.85,14.29,14.29,0,0,1-3.46-9.81,13.81,13.81,0,0,1,3.46-9.6,11.09,11.09,0,0,1,16.69-.19Zm-14.08,31.62a9,9,0,0,0,2,6,6.51,6.51,0,0,0,5.12,2.35,6.83,6.83,0,0,0,5.33-2.27,9.76,9.76,0,0,0,0-11.92,6.73,6.73,0,0,0-5.28-2.29,6.53,6.53,0,0,0-5.11,2.32A8.5,8.5,0,0,0,725.62,450.05Z"/><path class="cls-4" d="M776.53,451.52h-18.4a7.83,7.83,0,0,0,2,5,6.29,6.29,0,0,0,4.67,1.85,6.11,6.11,0,0,0,3.67-1.06,15,15,0,0,0,3.24-3.9l5,2.79a19.75,19.75,0,0,1-2.45,3.39,12.94,12.94,0,0,1-2.77,2.32,11.06,11.06,0,0,1-3.19,1.33,15.62,15.62,0,0,1-3.72.43,12.1,12.1,0,0,1-9.23-3.7q-3.48-3.7-3.48-9.86a14.22,14.22,0,0,1,3.38-9.86,12.85,12.85,0,0,1,18-.1q3.27,3.58,3.27,9.94Zm-6.09-4.85q-1.25-4.74-6-4.74a6.19,6.19,0,0,0-2,.33,5.68,5.68,0,0,0-1.72.95,5.9,5.9,0,0,0-1.33,1.48,7.09,7.09,0,0,0-.85,2Z"/><path class="cls-4" d="M789.61,442.82V463h-5.93V442.82h-2.53v-5.53h2.53v-9.42h5.93v9.42h4.61v5.53Z"/><path class="cls-4" d="M838.31,451.52h-18.4a7.78,7.78,0,0,0,2.05,5,6.28,6.28,0,0,0,4.67,1.85,6.06,6.06,0,0,0,3.66-1.06,15,15,0,0,0,3.25-3.9l5,2.79a19.77,19.77,0,0,1-2.46,3.39,12.89,12.89,0,0,1-2.76,2.32,11.06,11.06,0,0,1-3.19,1.33,15.69,15.69,0,0,1-3.72.43,12.1,12.1,0,0,1-9.23-3.7q-3.48-3.7-3.48-9.86a14.22,14.22,0,0,1,3.37-9.86,12.86,12.86,0,0,1,18-.1q3.27,3.58,3.27,9.94Zm-6.09-4.85c-.83-3.16-2.82-4.74-6-4.74a6.17,6.17,0,0,0-2,.33,5.57,5.57,0,0,0-1.72.95,5.94,5.94,0,0,0-1.34,1.48,7.08,7.08,0,0,0-.84,2Z"/><path class="cls-4" d="M844.8,437.29h5.93v2.29a11.44,11.44,0,0,1,2.9-2.35,6.64,6.64,0,0,1,3.06-.66,9.56,9.56,0,0,1,4.9,1.53l-2.71,5.43a5.75,5.75,0,0,0-3.3-1.21q-4.85,0-4.85,7.33V463H844.8Z"/><path class="cls-4" d="M881.66,437.29h5.93v2.37a12.2,12.2,0,0,1,2.93-2.43,7.08,7.08,0,0,1,3.24-.66,7.88,7.88,0,0,1,6.88,3.8,8.92,8.92,0,0,1,7.57-3.8q8.67,0,8.67,10.52V463h-6V448.7c0-2.46-.29-4.2-.89-5.22a3.25,3.25,0,0,0-3-1.55,3.87,3.87,0,0,0-3.58,1.84c-.74,1.23-1.12,3.21-1.12,5.93V463h-6V448.78c0-4.57-1.31-6.85-4-6.85a4,4,0,0,0-3.65,1.87c-.77,1.25-1.15,3.21-1.15,5.9V463h-5.93Z"/><path class="cls-4" d="M947.76,451.52h-18.4a7.78,7.78,0,0,0,2,5,6.28,6.28,0,0,0,4.67,1.85,6.06,6.06,0,0,0,3.66-1.06,15,15,0,0,0,3.25-3.9l5,2.79a19.77,19.77,0,0,1-2.46,3.39,12.89,12.89,0,0,1-2.76,2.32,11.06,11.06,0,0,1-3.19,1.33,15.69,15.69,0,0,1-3.72.43,12.1,12.1,0,0,1-9.23-3.7q-3.48-3.7-3.48-9.86a14.22,14.22,0,0,1,3.37-9.86,12.86,12.86,0,0,1,18-.1q3.27,3.58,3.27,9.94Zm-6.09-4.85c-.83-3.16-2.82-4.74-6-4.74a6.17,6.17,0,0,0-2,.33,5.57,5.57,0,0,0-1.72.95,5.94,5.94,0,0,0-1.34,1.48,7.08,7.08,0,0,0-.84,2Z"/><path class="cls-4" d="M973.18,418.43h6V463h-6v-2.69a11.11,11.11,0,0,1-7.94,3.43,11.32,11.32,0,0,1-8.75-3.85,14.29,14.29,0,0,1-3.46-9.81,13.81,13.81,0,0,1,3.46-9.6,11.09,11.09,0,0,1,16.69-.19ZM959.1,450.05a8.94,8.94,0,0,0,2,6,6.47,6.47,0,0,0,5.11,2.35,6.83,6.83,0,0,0,5.33-2.27,9.76,9.76,0,0,0,0-11.92,6.72,6.72,0,0,0-5.28-2.29,6.53,6.53,0,0,0-5.11,2.32A8.5,8.5,0,0,0,959.1,450.05Z"/><path class="cls-4" d="M1006.48,437.29l6.64,14.42,6.62-14.42h6.67l-13.34,27.44-13.24-27.44Z"/><path class="cls-4" d="M1029.52,426.61a3.89,3.89,0,0,1,3.85-3.83,3.74,3.74,0,0,1,2.75,1.14,3.66,3.66,0,0,1,1.13,2.71,3.77,3.77,0,0,1-1.13,2.75,3.68,3.68,0,0,1-2.72,1.13,3.88,3.88,0,0,1-3.88-3.9Zm6.83,10.68V463h-5.93V437.29Z"/><path class="cls-4" d="M1049.8,418.43V463h-5.93V418.43Z"/><path class="cls-4" d="M1056.42,426.61a3.88,3.88,0,0,1,3.85-3.83,3.73,3.73,0,0,1,2.74,1.14,3.62,3.62,0,0,1,1.13,2.71,3.73,3.73,0,0,1-1.13,2.75,3.67,3.67,0,0,1-2.72,1.13,3.86,3.86,0,0,1-3.87-3.9Zm6.83,10.68v39.65h-5.93V437.29Z"/><path class="cls-4" d="M1094.15,451.52h-18.4a7.78,7.78,0,0,0,2,5,6.29,6.29,0,0,0,4.67,1.85,6.06,6.06,0,0,0,3.66-1.06,14.83,14.83,0,0,0,3.25-3.9l5,2.79a20.3,20.3,0,0,1-2.45,3.39,13.19,13.19,0,0,1-2.77,2.32,11.06,11.06,0,0,1-3.19,1.33,15.69,15.69,0,0,1-3.72.43A12.1,12.1,0,0,1,1073,460q-3.48-3.7-3.48-9.86a14.22,14.22,0,0,1,3.37-9.86,12.86,12.86,0,0,1,18-.1q3.27,3.58,3.27,9.94Zm-6.09-4.85c-.83-3.16-2.82-4.74-6-4.74a6.17,6.17,0,0,0-2,.33,5.57,5.57,0,0,0-1.72.95,5.72,5.72,0,0,0-1.33,1.48,6.81,6.81,0,0,0-.85,2Z"/><path class="cls-4" d="M1140.69,451.52h-18.41a7.84,7.84,0,0,0,2.06,5,6.28,6.28,0,0,0,4.67,1.85,6.08,6.08,0,0,0,3.66-1.06,15,15,0,0,0,3.25-3.9l5,2.79a20.32,20.32,0,0,1-2.46,3.39,12.89,12.89,0,0,1-2.76,2.32,11,11,0,0,1-3.2,1.33,15.54,15.54,0,0,1-3.71.43,12.09,12.09,0,0,1-9.23-3.7q-3.48-3.7-3.48-9.86a14.22,14.22,0,0,1,3.37-9.86,12.86,12.86,0,0,1,18-.1q3.25,3.58,3.26,9.94Zm-6.09-4.85c-.83-3.16-2.82-4.74-6-4.74a6.13,6.13,0,0,0-2,.33,5.57,5.57,0,0,0-1.72.95,5.94,5.94,0,0,0-1.34,1.48,6.8,6.8,0,0,0-.84,2Z"/><path class="cls-4" d="M1153.11,418.43V463h-5.94V418.43Z"/><path class="cls-4" d="M1166.55,418.43V463h-5.93V418.43Z"/><path class="cls-4" d="M1197.46,451.52h-18.41a7.84,7.84,0,0,0,2.06,5,6.28,6.28,0,0,0,4.67,1.85,6.1,6.1,0,0,0,3.66-1.06,14.84,14.84,0,0,0,3.24-3.9l5,2.79a19.75,19.75,0,0,1-2.45,3.39,12.7,12.7,0,0,1-2.77,2.32,10.83,10.83,0,0,1-3.19,1.33,15.54,15.54,0,0,1-3.71.43,12.09,12.09,0,0,1-9.23-3.7q-3.48-3.7-3.48-9.86a14.22,14.22,0,0,1,3.37-9.86,11.63,11.63,0,0,1,9-3.72,11.51,11.51,0,0,1,9,3.62q3.27,3.58,3.27,9.94Zm-6.09-4.85q-1.24-4.74-6-4.74a6.13,6.13,0,0,0-2,.33,5.73,5.73,0,0,0-1.73.95,5.9,5.9,0,0,0-1.33,1.48,6.8,6.8,0,0,0-.84,2Z"/><path class="cls-4" d="M1203.94,437.29h5.94v2.29a11.27,11.27,0,0,1,2.9-2.35,6.63,6.63,0,0,1,3-.66,9.6,9.6,0,0,1,4.91,1.53l-2.72,5.43a5.7,5.7,0,0,0-3.29-1.21q-4.86,0-4.85,7.33V463h-5.94Z"/><path class="cls-4" d="M1264.19,451.52h-18.4a7.83,7.83,0,0,0,2,5,6.29,6.29,0,0,0,4.67,1.85,6.11,6.11,0,0,0,3.67-1.06,14.84,14.84,0,0,0,3.24-3.9l5,2.79a19.75,19.75,0,0,1-2.45,3.39,12.94,12.94,0,0,1-2.77,2.32,11.06,11.06,0,0,1-3.19,1.33,15.56,15.56,0,0,1-3.72.43,12.1,12.1,0,0,1-9.23-3.7q-3.48-3.7-3.48-9.86a14.22,14.22,0,0,1,3.38-9.86,12.85,12.85,0,0,1,18-.1q3.27,3.58,3.27,9.94Zm-6.09-4.85c-.82-3.16-2.82-4.74-6-4.74a6.13,6.13,0,0,0-2,.33,5.61,5.61,0,0,0-1.73.95,5.9,5.9,0,0,0-1.33,1.48,7.09,7.09,0,0,0-.85,2Z"/><path class="cls-4" d="M1269.78,426.61a3.89,3.89,0,0,1,3.85-3.83,3.71,3.71,0,0,1,2.74,1.14,3.63,3.63,0,0,1,1.14,2.71,3.74,3.74,0,0,1-1.14,2.75,3.65,3.65,0,0,1-2.71,1.13,3.88,3.88,0,0,1-3.88-3.9Zm6.83,10.68v39.65h-5.93V437.29Z"/><path class="cls-4" d="M458.28,506.46l-4.9,2.61q-1.17-2.37-2.88-2.37a2,2,0,0,0-1.4.54,1.83,1.83,0,0,0-.58,1.38c0,1,1.15,2,3.43,2.93,3.15,1.36,5.27,2.6,6.36,3.74a6.44,6.44,0,0,1,1.63,4.62,8.07,8.07,0,0,1-2.74,6.22,9.36,9.36,0,0,1-6.44,2.38q-6.45,0-9.14-6.31l5.06-2.34a10.66,10.66,0,0,0,1.61,2.34,3.66,3.66,0,0,0,2.58,1c2,0,3-.92,3-2.75,0-1.05-.78-2-2.32-3l-1.8-.87-1.82-.87a11.25,11.25,0,0,1-3.64-2.53A6.26,6.26,0,0,1,443,509.1a7.33,7.33,0,0,1,2.29-5.54,8.07,8.07,0,0,1,5.7-2.19Q455.89,501.37,458.28,506.46Z"/><path class="cls-4" d="M484.2,502.09h6v25.68h-6v-2.69a11.39,11.39,0,0,1-16.69-.42,14.34,14.34,0,0,1-3.46-9.81,13.91,13.91,0,0,1,3.46-9.63,11.14,11.14,0,0,1,8.65-3.85,10.93,10.93,0,0,1,8,3.69Zm-14.08,12.76a8.94,8.94,0,0,0,2,6,6.47,6.47,0,0,0,5.11,2.35,6.83,6.83,0,0,0,5.33-2.27,9.76,9.76,0,0,0,0-11.92,6.72,6.72,0,0,0-5.28-2.29,6.53,6.53,0,0,0-5.11,2.32A8.5,8.5,0,0,0,470.12,514.85Zm2-22.55a5.38,5.38,0,0,1,1.69-4,5.73,5.73,0,1,1,8.09,8.12,5.43,5.43,0,0,1-4,1.69,5.55,5.55,0,0,1-4.09-1.69A5.65,5.65,0,0,1,472.15,492.3Zm3.14.06a2.56,2.56,0,0,0,.75,1.88,2.67,2.67,0,0,0,3.71,0,2.62,2.62,0,0,0-2.88-4.26,2.56,2.56,0,0,0-.83.57,2.64,2.64,0,0,0-.56.83A2.55,2.55,0,0,0,475.29,492.36Z"/><path class="cls-4" d="M537.7,516.32H519.29a7.84,7.84,0,0,0,2.06,5,6.28,6.28,0,0,0,4.67,1.85,6.1,6.1,0,0,0,3.66-1.06,14.84,14.84,0,0,0,3.24-3.9l5,2.79a19.75,19.75,0,0,1-2.45,3.39,12.7,12.7,0,0,1-2.77,2.32,10.83,10.83,0,0,1-3.19,1.33,15.54,15.54,0,0,1-3.71.43,12.05,12.05,0,0,1-9.23-3.7q-3.48-3.7-3.48-9.86a14.23,14.23,0,0,1,3.37-9.86,11.65,11.65,0,0,1,9-3.72,11.51,11.51,0,0,1,9,3.62q3.27,3.58,3.27,9.94Zm-6.09-4.85c-.83-3.16-2.82-4.74-6-4.74a6.13,6.13,0,0,0-2,.33,5.93,5.93,0,0,0-1.73.94,6.13,6.13,0,0,0-1.33,1.49,6.8,6.8,0,0,0-.84,2Z"/><path class="cls-4" d="M544.18,502.09h5.94v2.29A11.48,11.48,0,0,1,553,502a6.64,6.64,0,0,1,3.06-.66,9.59,9.59,0,0,1,4.9,1.53l-2.72,5.43a5.7,5.7,0,0,0-3.29-1.21q-4.86,0-4.85,7.33v13.32h-5.94Z"/><path class="cls-4" d="M600,483.23h6v44.54h-6v-2.69a11.11,11.11,0,0,1-7.94,3.43,11.31,11.31,0,0,1-8.75-3.85,14.29,14.29,0,0,1-3.46-9.81,13.82,13.82,0,0,1,3.46-9.6,11.09,11.09,0,0,1,16.69-.19ZM585.9,514.85a9,9,0,0,0,2,6,6.51,6.51,0,0,0,5.12,2.35,6.83,6.83,0,0,0,5.33-2.27,9.76,9.76,0,0,0,0-11.92,6.73,6.73,0,0,0-5.28-2.29,6.53,6.53,0,0,0-5.11,2.32A8.5,8.5,0,0,0,585.9,514.85Z"/><path class="cls-4" d="M636.81,516.32h-18.4a7.83,7.83,0,0,0,2.05,5,6.29,6.29,0,0,0,4.67,1.85,6.11,6.11,0,0,0,3.67-1.06,14.84,14.84,0,0,0,3.24-3.9l5,2.79a19.75,19.75,0,0,1-2.45,3.39,12.94,12.94,0,0,1-2.77,2.32,11.06,11.06,0,0,1-3.19,1.33,15.56,15.56,0,0,1-3.72.43,12.07,12.07,0,0,1-9.23-3.7q-3.48-3.7-3.48-9.86a14.24,14.24,0,0,1,3.38-9.86,12.85,12.85,0,0,1,18-.1q3.27,3.58,3.27,9.94Zm-6.09-4.85q-1.25-4.74-6-4.74a6.09,6.09,0,0,0-2,.33A5.8,5.8,0,0,0,621,508a6.13,6.13,0,0,0-1.33,1.49,7.09,7.09,0,0,0-.85,2Z"/><path class="cls-4" d="M649.89,507.62v20.15H644V507.62h-2.53v-5.53H644v-9.42h5.93v9.42h4.61v5.53Z"/><path class="cls-4" d="M681.13,502.09v14.73q0,6.39,5,6.39t5-6.39V502.09h5.93V517a16.8,16.8,0,0,1-.76,5.32,9,9,0,0,1-2.56,3.61,12.43,12.43,0,0,1-15.27,0,9,9,0,0,1-2.61-3.61,14.69,14.69,0,0,1-.74-5.32V502.09Z"/><path class="cls-4" d="M710.56,483.23v44.54h-5.93V483.23Z"/><path class="cls-4" d="M716.86,514.74a12.76,12.76,0,0,1,4-9.46,14,14,0,0,1,19.46,0,13.75,13.75,0,0,1,0,19.33,13.64,13.64,0,0,1-9.84,3.88,13.06,13.06,0,0,1-9.68-4A13.3,13.3,0,0,1,716.86,514.74Zm6.07.11a8.68,8.68,0,0,0,2.05,6.09,8,8,0,0,0,11.13,0,9.65,9.65,0,0,0,0-12,7.24,7.24,0,0,0-5.56-2.26A7.16,7.16,0,0,0,725,509,8.27,8.27,0,0,0,722.93,514.85Z"/><path class="cls-4" d="M752.64,502.09l6.65,14.42,6.62-14.42h6.67l-13.35,27.44L746,502.09Z"/><path class="cls-4" d="M783,483.23v44.54h-5.93V483.23Z"/><path class="cls-4" d="M789.61,491.41a3.85,3.85,0,0,1,6.59-2.69,3.62,3.62,0,0,1,1.13,2.71,3.73,3.73,0,0,1-1.13,2.75,3.66,3.66,0,0,1-2.71,1.13,3.86,3.86,0,0,1-3.88-3.9Zm6.83,10.68v25.68h-5.93V502.09Z"/><path class="cls-4" d="M828.79,527.16c0,1.21,0,2.28-.12,3.2a22.3,22.3,0,0,1-.33,2.44,10.85,10.85,0,0,1-2.48,5q-3.48,4-9.57,4a12.8,12.8,0,0,1-8.46-2.76,11.35,11.35,0,0,1-4-7.89h6a6.75,6.75,0,0,0,1.14,2.93,6.37,6.37,0,0,0,5.38,2.4q6.51,0,6.51-8v-3.59a11.09,11.09,0,0,1-8.15,3.62,10.93,10.93,0,0,1-8.59-3.8,14.1,14.1,0,0,1-3.38-9.63,14.82,14.82,0,0,1,3.14-9.54,10.9,10.9,0,0,1,8.91-4.17,10.37,10.37,0,0,1,8.07,3.62v-2.9h5.93ZM823.1,515a8.64,8.64,0,0,0-2-6,6.6,6.6,0,0,0-5.19-2.29,6.4,6.4,0,0,0-5.33,2.51,10.29,10.29,0,0,0,0,11.54,6.39,6.39,0,0,0,5.33,2.46,6.52,6.52,0,0,0,5.38-2.48A8.86,8.86,0,0,0,823.1,515Z"/><path class="cls-4" d="M842.4,507.62v20.15h-5.94V507.62h-2.53v-5.53h2.53v-9.42h5.94v9.42H847v5.53Z"/><path class="cls-4" d="M886.64,502.09h6v25.68h-6v-2.69a11.39,11.39,0,0,1-16.69-.42,14.33,14.33,0,0,1-3.45-9.81,13.91,13.91,0,0,1,3.45-9.63,11.16,11.16,0,0,1,8.65-3.85,10.91,10.91,0,0,1,8,3.69Zm-14.08,12.76a8.94,8.94,0,0,0,2,6,6.49,6.49,0,0,0,5.11,2.35,6.81,6.81,0,0,0,5.33-2.27A9.76,9.76,0,0,0,885,509a6.7,6.7,0,0,0-5.27-2.29,6.55,6.55,0,0,0-5.12,2.32A8.55,8.55,0,0,0,872.56,514.85Z"/><path class="cls-4" d="M906.21,507.62v20.15h-5.94V507.62h-2.53v-5.53h2.53v-9.42h5.94v9.42h4.61v5.53Z"/><path class="cls-4" d="M946.44,506.46l-4.9,2.61c-.78-1.58-1.73-2.37-2.88-2.37a2,2,0,0,0-1.39.54,1.79,1.79,0,0,0-.58,1.38c0,1,1.14,2,3.42,2.93,3.15,1.36,5.27,2.6,6.36,3.74a6.44,6.44,0,0,1,1.63,4.62,8.07,8.07,0,0,1-2.74,6.22,9.35,9.35,0,0,1-6.43,2.38q-6.46,0-9.15-6.31l5.06-2.34a10.66,10.66,0,0,0,1.61,2.34,3.66,3.66,0,0,0,2.58,1c2,0,3-.92,3-2.75,0-1.05-.78-2-2.32-3l-1.8-.87-1.81-.87a11,11,0,0,1-3.64-2.53,6.21,6.21,0,0,1-1.35-4.14,7.34,7.34,0,0,1,2.3-5.54,8,8,0,0,1,5.69-2.19Q944,501.37,946.44,506.46Z"/><path class="cls-4" d="M976.82,516.32H958.41a7.84,7.84,0,0,0,2.06,5,6.28,6.28,0,0,0,4.67,1.85,6.1,6.1,0,0,0,3.66-1.06,14.84,14.84,0,0,0,3.24-3.9l5,2.79a19.75,19.75,0,0,1-2.45,3.39,12.7,12.7,0,0,1-2.77,2.32,10.83,10.83,0,0,1-3.19,1.33,15.56,15.56,0,0,1-3.72.43,12,12,0,0,1-9.22-3.7q-3.48-3.7-3.48-9.86a14.23,14.23,0,0,1,3.37-9.86,11.63,11.63,0,0,1,9-3.72,11.51,11.51,0,0,1,9,3.62q3.27,3.58,3.27,9.94Zm-6.09-4.85q-1.25-4.74-6-4.74a6.13,6.13,0,0,0-2,.33A5.93,5.93,0,0,0,961,508a6.13,6.13,0,0,0-1.33,1.49,6.8,6.8,0,0,0-.84,2Z"/><path class="cls-4" d="M983.3,502.09h6v2.37a9.73,9.73,0,0,1,7-3.09,8.83,8.83,0,0,1,7,2.83q2.16,2.39,2.16,7.83v15.74h-5.95V513.42c0-2.53-.36-4.28-1.06-5.24s-1.93-1.48-3.74-1.48a4.6,4.6,0,0,0-4.2,1.95c-.8,1.28-1.21,3.53-1.21,6.73v12.39h-6Z"/><path class="cls-4" d="M1031.84,483.23h6v44.54h-6v-2.69a11.07,11.07,0,0,1-7.93,3.43,11.33,11.33,0,0,1-8.76-3.85,14.33,14.33,0,0,1-3.45-9.81,13.86,13.86,0,0,1,3.45-9.6,11.05,11.05,0,0,1,8.63-3.88,10.94,10.94,0,0,1,8.06,3.69Zm-14.08,31.62a8.94,8.94,0,0,0,2,6,6.51,6.51,0,0,0,5.12,2.35,6.81,6.81,0,0,0,5.32-2.27,9.76,9.76,0,0,0,0-11.92,6.7,6.7,0,0,0-5.27-2.29,6.57,6.57,0,0,0-5.12,2.32A8.55,8.55,0,0,0,1017.76,514.85Z"/><path class="cls-4" d="M1068.68,516.32h-18.4a7.78,7.78,0,0,0,2,5,6.28,6.28,0,0,0,4.67,1.85,6.06,6.06,0,0,0,3.66-1.06,15,15,0,0,0,3.25-3.9l5,2.79a19.77,19.77,0,0,1-2.46,3.39,12.89,12.89,0,0,1-2.76,2.32,11.06,11.06,0,0,1-3.19,1.33,15.69,15.69,0,0,1-3.72.43,12.07,12.07,0,0,1-9.23-3.7q-3.48-3.7-3.48-9.86a14.23,14.23,0,0,1,3.37-9.86,12.86,12.86,0,0,1,18-.1q3.27,3.58,3.27,9.94Zm-6.09-4.85c-.83-3.16-2.82-4.74-6-4.74a6.17,6.17,0,0,0-2,.33,5.75,5.75,0,0,0-1.72.94,6.17,6.17,0,0,0-1.34,1.49,7.08,7.08,0,0,0-.84,2Z"/><path class="cls-4" d="M1096.44,502.43l-5.3-2.06,7.52-15.08,4,1.63Zm10.55,0-5.3-2.06,7.52-15.08,4,1.63Z"/><path class="cls-4" d="M1126,541.74H1120V502.09H1126v2.79a11,11,0,0,1,8-3.51,11.09,11.09,0,0,1,8.73,3.91,14.08,14.08,0,0,1,3.48,9.78,13.86,13.86,0,0,1-3.45,9.62,11.24,11.24,0,0,1-16.72.21Zm14.11-26.66a8.86,8.86,0,0,0-2-6,6.48,6.48,0,0,0-5.11-2.34,6.77,6.77,0,0,0-5.3,2.26,8.58,8.58,0,0,0-2,6,8.74,8.74,0,0,0,2,6,6.65,6.65,0,0,0,5.27,2.3,6.43,6.43,0,0,0,5.09-2.33A8.42,8.42,0,0,0,1140.06,515.08Z"/><path class="cls-4" d="M1151.5,491.41a3.88,3.88,0,0,1,3.85-3.83,3.73,3.73,0,0,1,2.74,1.14,3.62,3.62,0,0,1,1.13,2.71,3.73,3.73,0,0,1-1.13,2.75,3.66,3.66,0,0,1-2.71,1.13,3.86,3.86,0,0,1-3.88-3.9Zm6.83,10.68v25.68h-5.93V502.09Z"/><path class="cls-4" d="M1165.84,502.09h6v2.37a9.73,9.73,0,0,1,7-3.09,8.83,8.83,0,0,1,7,2.83q2.16,2.39,2.16,7.83v15.74h-6V513.42c0-2.53-.36-4.28-1.06-5.24s-1.93-1.48-3.74-1.48a4.6,4.6,0,0,0-4.2,1.95c-.8,1.28-1.21,3.53-1.21,6.73v12.39h-6Z"/><path class="cls-4" d="M1201.39,483.23v44.54h-5.94V483.23Z"/><path class="cls-4" d="M1208,491.41a3.89,3.89,0,0,1,3.85-3.83,3.74,3.74,0,0,1,2.75,1.14,3.66,3.66,0,0,1,1.13,2.71,3.77,3.77,0,0,1-1.13,2.75,3.68,3.68,0,0,1-2.72,1.13,3.88,3.88,0,0,1-3.88-3.9Zm6.83,10.68v25.68h-5.93V502.09Z"/><path class="cls-4" d="M1247.19,527.16c0,1.21,0,2.28-.12,3.2a22.3,22.3,0,0,1-.33,2.44,10.85,10.85,0,0,1-2.48,5q-3.48,4-9.57,4a12.82,12.82,0,0,1-8.47-2.76,11.34,11.34,0,0,1-4-7.89h6a6.75,6.75,0,0,0,1.13,2.93,6.37,6.37,0,0,0,5.38,2.4q6.51,0,6.51-8v-3.59a11.07,11.07,0,0,1-8.14,3.62,11,11,0,0,1-8.6-3.8,14.1,14.1,0,0,1-3.38-9.63,14.82,14.82,0,0,1,3.14-9.54,10.9,10.9,0,0,1,8.91-4.17,10.34,10.34,0,0,1,8.07,3.62v-2.9h5.94Zm-5.7-12.18a8.69,8.69,0,0,0-2-6,6.64,6.64,0,0,0-5.2-2.29,6.38,6.38,0,0,0-5.32,2.51,10.29,10.29,0,0,0,0,11.54,6.37,6.37,0,0,0,5.32,2.46,6.52,6.52,0,0,0,5.38-2.48A8.86,8.86,0,0,0,1241.49,515Z"/><path class="cls-4" d="M1278.06,516.32h-18.4a7.83,7.83,0,0,0,2,5,6.29,6.29,0,0,0,4.67,1.85,6.11,6.11,0,0,0,3.67-1.06,14.84,14.84,0,0,0,3.24-3.9l5,2.79a19.75,19.75,0,0,1-2.45,3.39,12.94,12.94,0,0,1-2.77,2.32,11.06,11.06,0,0,1-3.19,1.33,15.56,15.56,0,0,1-3.72.43,12.07,12.07,0,0,1-9.23-3.7q-3.48-3.7-3.48-9.86a14.24,14.24,0,0,1,3.38-9.86,12.85,12.85,0,0,1,18-.1q3.27,3.58,3.27,9.94Zm-6.09-4.85q-1.24-4.74-6-4.74a6.09,6.09,0,0,0-2,.33,5.8,5.8,0,0,0-1.73.94,6.13,6.13,0,0,0-1.33,1.49,7.09,7.09,0,0,0-.85,2Z"/><path class="cls-4" d="M1290.11,485.29l5.27,2.06-7.51,15.08-4-1.66Zm10.55,0,5.27,2.06-7.51,15.08-4-1.66Z"/><path class="cls-4" d="M1335.33,483.23v21.83a10.94,10.94,0,0,1,8.07-3.69,11.12,11.12,0,0,1,8.65,3.88,13.86,13.86,0,0,1,3.45,9.6,14.15,14.15,0,0,1-3.48,9.81,11.24,11.24,0,0,1-8.73,3.85,11.12,11.12,0,0,1-8-3.43v2.69h-5.93V483.23Zm14.11,31.88a8.86,8.86,0,0,0-2-6,6.42,6.42,0,0,0-5.09-2.37A6.82,6.82,0,0,0,1337,509a8.54,8.54,0,0,0-2,5.91,8.66,8.66,0,0,0,2,6,6.68,6.68,0,0,0,5.28,2.3,6.54,6.54,0,0,0,5.11-2.3A8.42,8.42,0,0,0,1349.44,515.11Z"/><path class="cls-4" d="M1360.88,491.41a3.68,3.68,0,0,1,1.13-2.69,3.84,3.84,0,0,1,5.46,0,3.63,3.63,0,0,1,1.14,2.71,3.74,3.74,0,0,1-1.14,2.75,3.66,3.66,0,0,1-2.71,1.13,3.86,3.86,0,0,1-3.88-3.9Zm6.83,10.68v25.68h-5.93V502.09Z"/><path class="cls-4" d="M1381.16,483.23v44.54h-5.94V483.23Z"/><path class="cls-4" d="M1394.6,483.23v44.54h-5.93V483.23Z"/><path class="cls-4" d="M1425.51,516.32H1407.1a7.84,7.84,0,0,0,2.06,5,6.28,6.28,0,0,0,4.67,1.85,6.1,6.1,0,0,0,3.66-1.06,14.84,14.84,0,0,0,3.24-3.9l5,2.79a19.75,19.75,0,0,1-2.45,3.39,12.7,12.7,0,0,1-2.77,2.32,10.83,10.83,0,0,1-3.19,1.33,15.54,15.54,0,0,1-3.71.43,12.05,12.05,0,0,1-9.23-3.7q-3.48-3.7-3.48-9.86a14.23,14.23,0,0,1,3.37-9.86,11.63,11.63,0,0,1,9-3.72,11.51,11.51,0,0,1,9,3.62q3.27,3.58,3.27,9.94Zm-6.09-4.85q-1.25-4.74-6-4.74a6.13,6.13,0,0,0-2,.33,5.93,5.93,0,0,0-1.73.94,6.13,6.13,0,0,0-1.33,1.49,6.8,6.8,0,0,0-.84,2Z"/><path class="cls-4" d="M1450.92,483.23h6v44.54h-6v-2.69a11.07,11.07,0,0,1-7.93,3.43,11.33,11.33,0,0,1-8.76-3.85,14.33,14.33,0,0,1-3.45-9.81,13.86,13.86,0,0,1,3.45-9.6,11.05,11.05,0,0,1,8.63-3.88,10.94,10.94,0,0,1,8.06,3.69Zm-14.08,31.62a8.94,8.94,0,0,0,2,6,6.51,6.51,0,0,0,5.12,2.35,6.81,6.81,0,0,0,5.32-2.27,9.76,9.76,0,0,0,0-11.92,6.7,6.7,0,0,0-5.27-2.29,6.53,6.53,0,0,0-5.11,2.32A8.51,8.51,0,0,0,1436.84,514.85Z"/><path class="cls-4" d="M1487.76,516.32h-18.4a7.78,7.78,0,0,0,2.05,5,6.28,6.28,0,0,0,4.67,1.85,6.06,6.06,0,0,0,3.66-1.06,15,15,0,0,0,3.25-3.9l5,2.79a19.77,19.77,0,0,1-2.46,3.39,12.89,12.89,0,0,1-2.76,2.32,11.06,11.06,0,0,1-3.19,1.33,15.69,15.69,0,0,1-3.72.43,12.07,12.07,0,0,1-9.23-3.7q-3.48-3.7-3.48-9.86a14.23,14.23,0,0,1,3.37-9.86,12.86,12.86,0,0,1,18-.1q3.27,3.58,3.27,9.94Zm-6.09-4.85c-.83-3.16-2.82-4.74-6-4.74a6.17,6.17,0,0,0-2,.33,5.75,5.75,0,0,0-1.72.94,6.17,6.17,0,0,0-1.34,1.49,7.08,7.08,0,0,0-.84,2Z"/><path class="cls-4" d="M1494.25,502.09h5.93v2.29a11.66,11.66,0,0,1,2.9-2.35,6.64,6.64,0,0,1,3.06-.66,9.56,9.56,0,0,1,4.9,1.53l-2.71,5.43a5.75,5.75,0,0,0-3.3-1.21q-4.85,0-4.85,7.33v13.32h-5.93Z"/><path class="cls-4" d="M449.47,572.42v20.15h-5.93V572.42H441v-5.54h2.53v-9.41h5.93v9.41h4.62v5.54Z"/><path class="cls-4" d="M457.22,556.21a3.89,3.89,0,0,1,3.85-3.83,3.74,3.74,0,0,1,2.75,1.14,3.66,3.66,0,0,1,1.13,2.71,3.74,3.74,0,0,1-1.13,2.74,3.65,3.65,0,0,1-2.72,1.14,3.89,3.89,0,0,1-3.88-3.9Zm6.83,10.67v25.69h-5.93V566.88Z"/><path class="cls-4" d="M477.5,548v44.54h-5.93V548Z"/><path class="cls-4" d="M520.61,566.88h6v25.69h-6v-2.69a11.41,11.41,0,0,1-16.69-.42,14.33,14.33,0,0,1-3.45-9.81,13.91,13.91,0,0,1,3.45-9.63,11.16,11.16,0,0,1,8.65-3.85,10.89,10.89,0,0,1,8,3.7Zm-14.08,12.77a8.94,8.94,0,0,0,2,6,6.49,6.49,0,0,0,5.11,2.35,6.81,6.81,0,0,0,5.33-2.27,9.76,9.76,0,0,0,0-11.92,6.7,6.7,0,0,0-5.27-2.29,6.55,6.55,0,0,0-5.12,2.32A8.55,8.55,0,0,0,506.53,579.65Z"/><path class="cls-4" d="M534.06,566.88h6v2.38a9.7,9.7,0,0,1,7-3.09,8.86,8.86,0,0,1,7,2.82c1.44,1.6,2.16,4.22,2.16,7.84v15.74h-6V578.22q0-3.79-1.05-5.24c-.69-1-1.94-1.48-3.75-1.48a4.58,4.58,0,0,0-4.19,2q-1.22,1.92-1.21,6.72v12.4h-6Z"/><path class="cls-4" d="M582.6,548h6v44.54h-6v-2.69a11.08,11.08,0,0,1-7.94,3.42,11.31,11.31,0,0,1-8.75-3.84,14.33,14.33,0,0,1-3.45-9.81,13.85,13.85,0,0,1,3.45-9.6,11.08,11.08,0,0,1,16.69-.18Zm-14.08,31.62a8.94,8.94,0,0,0,2,6,6.49,6.49,0,0,0,5.11,2.35,6.81,6.81,0,0,0,5.33-2.27,9.76,9.76,0,0,0,0-11.92,6.7,6.7,0,0,0-5.27-2.29,6.55,6.55,0,0,0-5.12,2.32A8.55,8.55,0,0,0,568.52,579.65Z"/><path class="cls-4" d="M596.05,566.88H602v2.3a11.44,11.44,0,0,1,2.9-2.35,6.64,6.64,0,0,1,3.06-.66,9.56,9.56,0,0,1,4.9,1.53l-2.71,5.43a5.75,5.75,0,0,0-3.3-1.21q-4.85,0-4.85,7.33v13.32h-5.93Z"/><path class="cls-4" d="M639.26,581.12h-18.4a7.79,7.79,0,0,0,2.06,5,6.25,6.25,0,0,0,4.66,1.85,6.11,6.11,0,0,0,3.67-1.06,14.84,14.84,0,0,0,3.24-3.9l5,2.79a19.75,19.75,0,0,1-2.45,3.39,12.94,12.94,0,0,1-2.77,2.32,10.94,10.94,0,0,1-3.19,1.33,15.58,15.58,0,0,1-3.72.42,12.06,12.06,0,0,1-9.23-3.69q-3.48-3.72-3.48-9.86a14.24,14.24,0,0,1,3.38-9.86,12.85,12.85,0,0,1,18-.1q3.27,3.59,3.27,9.94Zm-6.09-4.85c-.82-3.16-2.82-4.74-6-4.74a6.13,6.13,0,0,0-2,.33,5.8,5.8,0,0,0-1.73.94,6.13,6.13,0,0,0-1.33,1.49,7.22,7.22,0,0,0-.85,2Z"/><path class="cls-4" d="M646.67,589.61a3.49,3.49,0,0,1,1.08-2.55,3.66,3.66,0,1,1,5.17,5.19,3.51,3.51,0,0,1-2.58,1,3.6,3.6,0,0,1-3.67-3.69Z"/><path class="cls-4" d="M444.49,722.17V681.46H453a31.12,31.12,0,0,1,9.71,1.21,18.13,18.13,0,0,1,6.93,4q6.3,5.76,6.3,15.11A19.78,19.78,0,0,1,462.5,721a31.27,31.27,0,0,1-9.57,1.14Zm6.14-5.78h2.77a23.05,23.05,0,0,0,6.88-.87,14,14,0,0,0,9.5-13.71A14.15,14.15,0,0,0,465.29,691q-4-3.72-11.89-3.72h-2.77Z"/><path class="cls-4" d="M506,710.72h-18.4a7.83,7.83,0,0,0,2.05,5,6.29,6.29,0,0,0,4.67,1.85,6.11,6.11,0,0,0,3.67-1.06,15,15,0,0,0,3.24-3.9l5,2.79a19.75,19.75,0,0,1-2.45,3.39,13.24,13.24,0,0,1-2.77,2.32,11.06,11.06,0,0,1-3.19,1.33,15.62,15.62,0,0,1-3.72.43,12.07,12.07,0,0,1-9.23-3.7q-3.48-3.71-3.48-9.86a14.24,14.24,0,0,1,3.38-9.86,12.85,12.85,0,0,1,18-.1Q506,703,506,709.33Zm-6.09-4.85q-1.25-4.74-6-4.74a6.19,6.19,0,0,0-2,.33,5.88,5.88,0,0,0-1.72.94,6.13,6.13,0,0,0-1.33,1.49,7.09,7.09,0,0,0-.85,2Z"/><path class="cls-4" d="M519,702v20.15H513.1V702h-2.53v-5.53h2.53v-9.42H519v9.42h4.61V702Z"/><path class="cls-4" d="M567.73,710.72h-18.4a7.78,7.78,0,0,0,2,5,6.28,6.28,0,0,0,4.67,1.85,6.06,6.06,0,0,0,3.66-1.06,15,15,0,0,0,3.25-3.9l5,2.79a19.77,19.77,0,0,1-2.46,3.39,13.19,13.19,0,0,1-2.76,2.32,11.06,11.06,0,0,1-3.19,1.33,15.69,15.69,0,0,1-3.72.43,12.07,12.07,0,0,1-9.23-3.7q-3.48-3.71-3.48-9.86a14.23,14.23,0,0,1,3.37-9.86,12.86,12.86,0,0,1,18-.1q3.27,3.58,3.27,9.94Zm-6.09-4.85c-.83-3.16-2.82-4.74-6-4.74a6.17,6.17,0,0,0-2,.33,5.75,5.75,0,0,0-1.72.94,6.17,6.17,0,0,0-1.34,1.49,7.08,7.08,0,0,0-.84,2Z"/><path class="cls-4" d="M574.22,696.49h5.93v2.29a11.44,11.44,0,0,1,2.9-2.35,6.64,6.64,0,0,1,3.06-.66,9.56,9.56,0,0,1,4.9,1.53l-2.71,5.43a5.75,5.75,0,0,0-3.3-1.21q-4.85,0-4.85,7.33v13.32h-5.93Z"/><path class="cls-4" d="M617,677.63v21.83a10.94,10.94,0,0,1,8.07-3.69,11.14,11.14,0,0,1,8.65,3.88,13.86,13.86,0,0,1,3.45,9.6,14.15,14.15,0,0,1-3.48,9.81,11.24,11.24,0,0,1-8.73,3.85,11.12,11.12,0,0,1-8-3.43v2.69h-5.93V677.63Zm14.11,31.88a8.86,8.86,0,0,0-2-6,6.42,6.42,0,0,0-5.09-2.37,6.8,6.8,0,0,0-5.32,2.29,8.49,8.49,0,0,0-2,5.91,8.61,8.61,0,0,0,2,6,6.66,6.66,0,0,0,5.27,2.3,6.54,6.54,0,0,0,5.12-2.3A8.42,8.42,0,0,0,631.12,709.51Z"/><path class="cls-4" d="M649.39,677.63v44.54h-5.93V677.63Z"/><path class="cls-4" d="M662.84,696.49v14.73c0,4.26,1.67,6.39,5,6.39s5-2.13,5-6.39V696.49h5.93v14.87a16.52,16.52,0,0,1-.76,5.32,9,9,0,0,1-2.56,3.61,12.43,12.43,0,0,1-15.27,0,9,9,0,0,1-2.61-3.61,14.69,14.69,0,0,1-.74-5.32V696.49Z"/><path class="cls-4" d="M692.47,702v20.15h-6V702H684.4v-5.53h2.11v-9.92c0-3.23.57-5.52,1.69-6.85a8.26,8.26,0,0,1,6.75-2.8,11.68,11.68,0,0,1,4,.92v6.07l-.6-.32a7.46,7.46,0,0,0-3.17-1,2.13,2.13,0,0,0-2.13,1.13,10.87,10.87,0,0,0-.56,4.27v8.47h6.46V702Z"/><path class="cls-4" d="M742.15,710.64H723.64a8.13,8.13,0,0,0,2.16,5.07,6.23,6.23,0,0,0,4.64,1.9q4.06,0,6.73-5.15l5.11,2.85a17.35,17.35,0,0,1-1.82,2.82,10.59,10.59,0,0,1-2.11,2,13.54,13.54,0,0,1-8.2,2.77,12.92,12.92,0,0,1-9.31-4.11q-3.21,4.11-9.46,4.11a11.73,11.73,0,0,1-7.62-2.37,7.61,7.61,0,0,1-2.93-6.2,7.92,7.92,0,0,1,2.8-6.33,10.91,10.91,0,0,1,7.35-2.42,14.86,14.86,0,0,1,6.7,1.74q0-3.48-1.45-4.85c-1-.93-2.64-1.4-5-1.4a25.47,25.47,0,0,0-6.85,1v-5.52a46.56,46.56,0,0,1,7.43-.79q6.28,0,9,3.62a12.95,12.95,0,0,1,18,0q3.38,3.6,3.37,9.57Zm-35.57,3.62a2.94,2.94,0,0,0,1.48,2.5,6.72,6.72,0,0,0,3.74,1,7.14,7.14,0,0,0,3.93-1,3.11,3.11,0,0,0,1.58-2.62,2.83,2.83,0,0,0-1.63-2.37,7.36,7.36,0,0,0-3.93-1,6.32,6.32,0,0,0-3.67,1A3,3,0,0,0,706.58,714.26Zm29.35-8.41q-1.08-4.73-5.78-4.72T724,705.85Z"/><path class="cls-4" d="M748.53,696.49h5.93v2.29a11.44,11.44,0,0,1,2.9-2.35,6.64,6.64,0,0,1,3.06-.66,9.6,9.6,0,0,1,4.91,1.53l-2.72,5.43a5.72,5.72,0,0,0-3.3-1.21q-4.84,0-4.85,7.33v13.32h-5.93Z"/><path class="cls-4" d="M787.29,677.63h6v44.54h-6v-2.69a11.09,11.09,0,0,1-7.94,3.43,11.32,11.32,0,0,1-8.75-3.85,14.34,14.34,0,0,1-3.46-9.81,13.87,13.87,0,0,1,3.46-9.6,11.09,11.09,0,0,1,16.69-.19Zm-14.08,31.62a8.94,8.94,0,0,0,2,6,6.49,6.49,0,0,0,5.11,2.35,6.83,6.83,0,0,0,5.33-2.27,9.76,9.76,0,0,0,0-11.92,6.72,6.72,0,0,0-5.28-2.29,6.55,6.55,0,0,0-5.11,2.32A8.55,8.55,0,0,0,773.21,709.25Z"/><path class="cls-4" d="M799.84,685.81a3.85,3.85,0,0,1,6.59-2.69,3.63,3.63,0,0,1,1.14,2.71,3.74,3.74,0,0,1-1.14,2.75,3.66,3.66,0,0,1-2.71,1.13,3.86,3.86,0,0,1-3.88-3.9Zm6.83,10.68v25.68h-5.93V696.49Z"/><path class="cls-4" d="M839,721.56c0,1.21,0,2.28-.12,3.2a22.3,22.3,0,0,1-.33,2.44,10.75,10.75,0,0,1-2.48,5q-3.48,4-9.57,4a12.8,12.8,0,0,1-8.46-2.76,11.35,11.35,0,0,1-4-7.89h6a6.75,6.75,0,0,0,1.14,2.93,6.37,6.37,0,0,0,5.38,2.4q6.51,0,6.51-8v-3.59a11.09,11.09,0,0,1-8.15,3.62,10.93,10.93,0,0,1-8.59-3.8,14.1,14.1,0,0,1-3.38-9.63,14.82,14.82,0,0,1,3.14-9.54,10.9,10.9,0,0,1,8.91-4.17,10.37,10.37,0,0,1,8.07,3.62v-2.9H839Zm-5.69-12.18a8.64,8.64,0,0,0-2-6,6.6,6.6,0,0,0-5.19-2.29,6.39,6.39,0,0,0-5.33,2.5,9.1,9.1,0,0,0-1.76,5.81,9,9,0,0,0,1.76,5.74,6.39,6.39,0,0,0,5.33,2.46,6.52,6.52,0,0,0,5.38-2.48A8.86,8.86,0,0,0,833.33,709.38Z"/><path class="cls-4" d="M846.51,677.63h5.93v21a10.22,10.22,0,0,1,7-2.85,9,9,0,0,1,7,2.82q2.22,2.46,2.22,7.84v15.74h-5.94V707a7.23,7.23,0,0,0-1.09-4.47,4.22,4.22,0,0,0-3.52-1.38c-2.08,0-3.53.64-4.38,1.92s-1.24,3.53-1.24,6.7v12.42h-5.93Z"/><path class="cls-4" d="M899.51,710.72H881.1a7.84,7.84,0,0,0,2.06,5,6.28,6.28,0,0,0,4.67,1.85,6.08,6.08,0,0,0,3.66-1.06,15,15,0,0,0,3.25-3.9l5,2.79a20.32,20.32,0,0,1-2.46,3.39,13,13,0,0,1-2.77,2.32,10.83,10.83,0,0,1-3.19,1.33,15.54,15.54,0,0,1-3.71.43,12.05,12.05,0,0,1-9.23-3.7q-3.48-3.71-3.48-9.86a14.23,14.23,0,0,1,3.37-9.86,11.65,11.65,0,0,1,9-3.72,11.51,11.51,0,0,1,9,3.62q3.27,3.58,3.27,9.94Zm-6.09-4.85c-.83-3.16-2.82-4.74-6-4.74a6.13,6.13,0,0,0-2,.33,5.93,5.93,0,0,0-1.73.94,6.34,6.34,0,0,0-1.33,1.49,6.8,6.8,0,0,0-.84,2Z"/><path class="cls-4" d="M924.93,677.63h6v44.54h-6v-2.69a11.11,11.11,0,0,1-7.94,3.43,11.31,11.31,0,0,1-8.75-3.85,14.29,14.29,0,0,1-3.46-9.81,13.82,13.82,0,0,1,3.46-9.6,11.09,11.09,0,0,1,16.69-.19Zm-14.08,31.62a8.94,8.94,0,0,0,2,6,6.51,6.51,0,0,0,5.12,2.35,6.79,6.79,0,0,0,5.32-2.27,9.76,9.76,0,0,0,0-11.92,6.7,6.7,0,0,0-5.27-2.29,6.53,6.53,0,0,0-5.11,2.32A8.5,8.5,0,0,0,910.85,709.25Z"/><path class="cls-4" d="M953.3,700.86l-4.91,2.61c-.77-1.58-1.73-2.37-2.87-2.37a2,2,0,0,0-1.4.54,1.79,1.79,0,0,0-.58,1.38c0,1,1.14,2,3.43,2.93,3.15,1.35,5.26,2.6,6.35,3.75a6.4,6.4,0,0,1,1.64,4.61,8.1,8.1,0,0,1-2.74,6.22,9.36,9.36,0,0,1-6.44,2.38q-6.45,0-9.15-6.31l5.07-2.34a10.73,10.73,0,0,0,1.6,2.34,3.68,3.68,0,0,0,2.59,1c2,0,3-.92,3-2.75,0-1.05-.77-2-2.32-3-.59-.3-1.19-.59-1.79-.87l-1.82-.87a11.25,11.25,0,0,1-3.64-2.53A6.26,6.26,0,0,1,938,703.5a7.33,7.33,0,0,1,2.29-5.54,8.05,8.05,0,0,1,5.7-2.19Q950.89,695.77,953.3,700.86Z"/><path class="cls-4" d="M966.22,677.63v27.16l8.36-8.3h8l-11.16,10.78,12,14.9h-7.7l-8.49-10.84-.95.95v9.89h-5.94V677.63Z"/><path class="cls-4" d="M987.18,696.49h5.93v2.29a11.44,11.44,0,0,1,2.9-2.35,6.64,6.64,0,0,1,3.06-.66,9.56,9.56,0,0,1,4.9,1.53l-2.71,5.43a5.72,5.72,0,0,0-3.3-1.21q-4.85,0-4.85,7.33v13.32h-5.93Z"/><path class="cls-4" d="M1047.11,710.64H1028.6a8.19,8.19,0,0,0,2.16,5.07,6.23,6.23,0,0,0,4.64,1.9q4.06,0,6.73-5.15l5.11,2.85a17.35,17.35,0,0,1-1.82,2.82,10.59,10.59,0,0,1-2.11,2,13.52,13.52,0,0,1-8.2,2.77,12.9,12.9,0,0,1-9.3-4.11q-3.22,4.11-9.47,4.11a11.73,11.73,0,0,1-7.62-2.37,7.61,7.61,0,0,1-2.93-6.2,8,8,0,0,1,2.8-6.33,10.92,10.92,0,0,1,7.36-2.42,14.82,14.82,0,0,1,6.69,1.74q0-3.48-1.45-4.85t-5-1.4a25.54,25.54,0,0,0-6.86,1v-5.52a46.67,46.67,0,0,1,7.44-.79q6.27,0,9,3.62a11.86,11.86,0,0,1,9-3.62,11.72,11.72,0,0,1,9,3.62q3.38,3.6,3.37,9.57Zm-35.57,3.62a2.94,2.94,0,0,0,1.48,2.5,6.74,6.74,0,0,0,3.74,1,7.09,7.09,0,0,0,3.93-1,3.09,3.09,0,0,0,1.58-2.62,2.83,2.83,0,0,0-1.63-2.37,7.36,7.36,0,0,0-3.93-1,6.34,6.34,0,0,0-3.67,1A3,3,0,0,0,1011.54,714.26Zm29.35-8.41q-1.08-4.73-5.78-4.72t-6.11,4.72Z"/><path class="cls-4" d="M1053.49,696.49h6v2.37a9.72,9.72,0,0,1,7-3.09,8.86,8.86,0,0,1,7,2.82q2.16,2.4,2.16,7.84v15.74h-5.95V707.82c0-2.53-.36-4.28-1.06-5.24s-1.93-1.48-3.74-1.48a4.6,4.6,0,0,0-4.2,1.95c-.8,1.28-1.21,3.53-1.21,6.72v12.4h-6Z"/><path class="cls-4" d="M1089,677.63v27.16l8.35-8.3h8l-11.16,10.78,12,14.9h-7.7L1090,711.33l-.94.95v9.89h-5.94V677.63Z"/><path class="cls-4" d="M1132.51,710.72h-18.4a7.79,7.79,0,0,0,2.06,5,6.27,6.27,0,0,0,4.66,1.85,6.11,6.11,0,0,0,3.67-1.06,14.84,14.84,0,0,0,3.24-3.9l5,2.79a19.75,19.75,0,0,1-2.45,3.39,13,13,0,0,1-2.77,2.32,10.94,10.94,0,0,1-3.19,1.33,15.56,15.56,0,0,1-3.72.43,12.07,12.07,0,0,1-9.23-3.7q-3.48-3.71-3.48-9.86a14.24,14.24,0,0,1,3.38-9.86,12.85,12.85,0,0,1,18-.1q3.27,3.58,3.27,9.94Zm-6.09-4.85c-.82-3.16-2.82-4.74-6-4.74a6.13,6.13,0,0,0-2,.33,5.93,5.93,0,0,0-1.73.94,6.13,6.13,0,0,0-1.33,1.49,6.8,6.8,0,0,0-.84,2Z"/><path class="cls-4" d="M1144.93,677.63v44.54H1139V677.63Z"/><path class="cls-4" d="M1167.37,700.86l-4.9,2.61c-.78-1.58-1.73-2.37-2.88-2.37a2,2,0,0,0-1.39.54,1.79,1.79,0,0,0-.58,1.38c0,1,1.14,2,3.42,2.93q4.73,2,6.36,3.75a6.4,6.4,0,0,1,1.63,4.61,8.07,8.07,0,0,1-2.74,6.22,9.34,9.34,0,0,1-6.43,2.38q-6.46,0-9.15-6.31l5.06-2.34a10.66,10.66,0,0,0,1.61,2.34,3.66,3.66,0,0,0,2.58,1c2,0,3-.92,3-2.75,0-1.05-.77-2-2.32-3l-1.79-.87-1.82-.87a11,11,0,0,1-3.64-2.53,6.21,6.21,0,0,1-1.35-4.14,7.34,7.34,0,0,1,2.3-5.54,8,8,0,0,1,5.69-2.19Q1165,695.77,1167.37,700.86Z"/><path class="cls-4" d="M1197.75,710.72h-18.41a7.84,7.84,0,0,0,2.06,5,6.28,6.28,0,0,0,4.67,1.85,6.1,6.1,0,0,0,3.66-1.06,14.84,14.84,0,0,0,3.24-3.9l5,2.79a19.75,19.75,0,0,1-2.45,3.39,13,13,0,0,1-2.77,2.32,10.83,10.83,0,0,1-3.19,1.33,15.54,15.54,0,0,1-3.71.43,12.05,12.05,0,0,1-9.23-3.7q-3.48-3.71-3.48-9.86a14.23,14.23,0,0,1,3.37-9.86,11.63,11.63,0,0,1,9-3.72,11.51,11.51,0,0,1,9,3.62q3.27,3.58,3.27,9.94Zm-6.09-4.85q-1.25-4.74-6-4.74a6.13,6.13,0,0,0-2,.33,5.93,5.93,0,0,0-1.73.94,6.13,6.13,0,0,0-1.33,1.49,6.8,6.8,0,0,0-.84,2Z"/><path class="cls-4" d="M1219.68,709.14a12.73,12.73,0,0,1,4-9.46,14,14,0,0,1,19.45,0,13.75,13.75,0,0,1,0,19.33,13.63,13.63,0,0,1-9.84,3.88,13,13,0,0,1-9.67-4A13.31,13.31,0,0,1,1219.68,709.14Zm6.07.11a8.64,8.64,0,0,0,2.06,6.09,8,8,0,0,0,11.12,0,9.61,9.61,0,0,0,0-12,7.91,7.91,0,0,0-11.07,0A8.27,8.27,0,0,0,1225.75,709.25Z"/><path class="cls-4" d="M1278.19,721.56c0,1.21,0,2.28-.12,3.2a20.25,20.25,0,0,1-.32,2.44,10.94,10.94,0,0,1-2.48,5q-3.48,4-9.57,4a12.82,12.82,0,0,1-8.47-2.76,11.34,11.34,0,0,1-4-7.89h6a6.63,6.63,0,0,0,1.13,2.93,6.37,6.37,0,0,0,5.38,2.4q6.51,0,6.51-8v-3.59a11.07,11.07,0,0,1-8.15,3.62,10.94,10.94,0,0,1-8.59-3.8,14.1,14.1,0,0,1-3.38-9.63,14.82,14.82,0,0,1,3.14-9.54,10.9,10.9,0,0,1,8.91-4.17,10.34,10.34,0,0,1,8.07,3.62v-2.9h5.93Zm-5.69-12.18a8.64,8.64,0,0,0-2-6,6.6,6.6,0,0,0-5.19-2.29,6.39,6.39,0,0,0-5.33,2.5,9.16,9.16,0,0,0-1.76,5.81,9,9,0,0,0,1.76,5.74,6.4,6.4,0,0,0,5.33,2.46,6.52,6.52,0,0,0,5.38-2.48A8.86,8.86,0,0,0,1272.5,709.38Z"/><path class="cls-4" d="M1317.27,700.86l-4.9,2.61q-1.17-2.37-2.88-2.37a2,2,0,0,0-1.4.54,1.83,1.83,0,0,0-.58,1.38c0,1,1.15,2,3.43,2.93q4.72,2,6.36,3.75a6.4,6.4,0,0,1,1.63,4.61,8.07,8.07,0,0,1-2.74,6.22,9.36,9.36,0,0,1-6.44,2.38q-6.45,0-9.14-6.31l5.06-2.34a10.66,10.66,0,0,0,1.61,2.34,3.66,3.66,0,0,0,2.58,1c2,0,3-.92,3-2.75,0-1.05-.78-2-2.32-3l-1.8-.87-1.82-.87a11.25,11.25,0,0,1-3.64-2.53,6.26,6.26,0,0,1-1.34-4.14,7.33,7.33,0,0,1,2.29-5.54,8.07,8.07,0,0,1,5.7-2.19Q1314.88,695.77,1317.27,700.86Z"/><path class="cls-4" d="M1330.37,702v20.15h-5.93V702h-2.53v-5.53h2.53v-9.42h5.93v9.42H1335V702Z"/><path class="cls-4" d="M1339,696.49H1345v2.29a11.1,11.1,0,0,1,2.9-2.35,6.63,6.63,0,0,1,3.05-.66,9.6,9.6,0,0,1,4.91,1.53l-2.72,5.43a5.7,5.7,0,0,0-3.29-1.21q-4.86,0-4.85,7.33v13.32H1339Z"/><path class="cls-4" d="M1377.78,696.49h6v25.68h-6v-2.69a11.39,11.39,0,0,1-16.69-.42,14.33,14.33,0,0,1-3.45-9.81,13.91,13.91,0,0,1,3.45-9.63,11.16,11.16,0,0,1,8.65-3.85,10.91,10.91,0,0,1,8,3.69Zm-14.08,12.76a8.94,8.94,0,0,0,2,6,6.49,6.49,0,0,0,5.11,2.35,6.81,6.81,0,0,0,5.33-2.27,9.76,9.76,0,0,0,0-11.92,6.7,6.7,0,0,0-5.27-2.29,6.55,6.55,0,0,0-5.12,2.32A8.55,8.55,0,0,0,1363.7,709.25Z"/><path class="cls-4" d="M1397.37,702v20.15h-6V702h-2.11v-5.53h2.11v-9.92c0-3.23.57-5.52,1.69-6.85a8.26,8.26,0,0,1,6.75-2.8,11.68,11.68,0,0,1,4,.92v6.07l-.6-.32a7.46,7.46,0,0,0-3.17-1,2.13,2.13,0,0,0-2.13,1.13,10.87,10.87,0,0,0-.56,4.27v8.47h6.46V702Z"/><path class="cls-4" d="M1415.2,702v20.15h-6V702h-2.11v-5.53h2.11v-9.92c0-3.23.56-5.52,1.69-6.85a8.24,8.24,0,0,1,6.75-2.8,11.73,11.73,0,0,1,4,.92v6.07l-.61-.32a7.43,7.43,0,0,0-3.16-1,2.14,2.14,0,0,0-2.14,1.13,10.92,10.92,0,0,0-.55,4.27v8.47h6.46V702Z"/><path class="cls-4" d="M1449.29,710.72h-18.4a7.78,7.78,0,0,0,2,5,6.29,6.29,0,0,0,4.67,1.85,6.06,6.06,0,0,0,3.66-1.06,15,15,0,0,0,3.25-3.9l5,2.79a20.3,20.3,0,0,1-2.45,3.39,13.5,13.5,0,0,1-2.77,2.32,11.06,11.06,0,0,1-3.19,1.33,15.69,15.69,0,0,1-3.72.43,12.07,12.07,0,0,1-9.23-3.7q-3.48-3.71-3.48-9.86a14.23,14.23,0,0,1,3.37-9.86,12.86,12.86,0,0,1,18-.1q3.27,3.58,3.27,9.94Zm-6.09-4.85c-.83-3.16-2.82-4.74-6-4.74a6.17,6.17,0,0,0-2,.33,5.75,5.75,0,0,0-1.72.94,6.17,6.17,0,0,0-1.34,1.49,7.08,7.08,0,0,0-.84,2Z"/><path class="cls-4" d="M1470.7,700.86l-4.9,2.61q-1.17-2.37-2.88-2.37a2,2,0,0,0-1.4.54,1.83,1.83,0,0,0-.58,1.38c0,1,1.15,2,3.43,2.93q4.73,2,6.36,3.75a6.4,6.4,0,0,1,1.63,4.61,8.07,8.07,0,0,1-2.74,6.22,9.35,9.35,0,0,1-6.43,2.38q-6.46,0-9.15-6.31l5.06-2.34a10.66,10.66,0,0,0,1.61,2.34,3.66,3.66,0,0,0,2.58,1c2,0,3-.92,3-2.75,0-1.05-.78-2-2.32-3l-1.8-.87-1.82-.87a11.08,11.08,0,0,1-3.63-2.53,6.21,6.21,0,0,1-1.35-4.14,7.37,7.37,0,0,1,2.29-5.54,8.07,8.07,0,0,1,5.7-2.19Q1468.31,695.77,1470.7,700.86Z"/><path class="cls-4" d="M443.36,761.29h5.93v2.37a12.38,12.38,0,0,1,2.92-2.43,7.15,7.15,0,0,1,3.25-.66,7.88,7.88,0,0,1,6.88,3.8,8.92,8.92,0,0,1,7.57-3.8q8.67,0,8.67,10.52V787h-6V772.7a11.12,11.12,0,0,0-.89-5.22,3.25,3.25,0,0,0-3-1.55,3.87,3.87,0,0,0-3.57,1.84Q464,769.62,464,773.7V787h-6V772.78q0-6.85-4-6.85a4,4,0,0,0-3.65,1.87c-.77,1.25-1.15,3.21-1.15,5.9V787h-5.93Z"/><path class="cls-4" d="M509.46,775.52H491.05a7.84,7.84,0,0,0,2.06,5,6.28,6.28,0,0,0,4.67,1.85,6.08,6.08,0,0,0,3.66-1.06,15,15,0,0,0,3.25-3.9l5,2.79a20.32,20.32,0,0,1-2.46,3.39,12.7,12.7,0,0,1-2.77,2.32,10.83,10.83,0,0,1-3.19,1.33,15.54,15.54,0,0,1-3.71.43,12.09,12.09,0,0,1-9.23-3.7q-3.48-3.71-3.48-9.86a14.22,14.22,0,0,1,3.37-9.86,11.65,11.65,0,0,1,9-3.72,11.51,11.51,0,0,1,9,3.62q3.27,3.59,3.27,9.94Zm-6.09-4.85c-.83-3.16-2.82-4.74-6-4.74a6.13,6.13,0,0,0-2,.33,5.73,5.73,0,0,0-1.73,1,6.1,6.1,0,0,0-1.33,1.48,6.8,6.8,0,0,0-.84,2Z"/><path class="cls-4" d="M534.88,742.43h6V787h-6v-2.69a11.11,11.11,0,0,1-7.94,3.43,11.31,11.31,0,0,1-8.75-3.85,14.29,14.29,0,0,1-3.46-9.81,13.81,13.81,0,0,1,3.46-9.6,11.09,11.09,0,0,1,16.69-.19ZM520.8,774.05a9,9,0,0,0,2,6,6.51,6.51,0,0,0,5.12,2.35,6.79,6.79,0,0,0,5.32-2.27,9.73,9.73,0,0,0,0-11.92,6.7,6.7,0,0,0-5.27-2.29,6.53,6.53,0,0,0-5.11,2.32A8.5,8.5,0,0,0,520.8,774.05Z"/><path class="cls-4" d="M571.13,766.82V787h-6V766.82h-2.11v-5.53h2.11v-9.92c0-3.23.56-5.52,1.69-6.85a8.26,8.26,0,0,1,6.75-2.8,11.73,11.73,0,0,1,4,.92v6.07l-.61-.32a7.39,7.39,0,0,0-3.16-1,2.15,2.15,0,0,0-2.14,1.13,11.12,11.12,0,0,0-.55,4.27v8.47h6.46v5.53Z"/><path class="cls-4" d="M620.81,775.44H602.3a8.13,8.13,0,0,0,2.16,5.07,6.23,6.23,0,0,0,4.64,1.9q4.06,0,6.72-5.15l5.12,2.85a17.35,17.35,0,0,1-1.82,2.82,10.59,10.59,0,0,1-2.11,2,13.54,13.54,0,0,1-8.2,2.77,12.9,12.9,0,0,1-9.31-4.11q-3.21,4.11-9.46,4.11a11.73,11.73,0,0,1-7.62-2.37,7.58,7.58,0,0,1-2.93-6.2,7.94,7.94,0,0,1,2.79-6.33,11,11,0,0,1,7.36-2.42,14.86,14.86,0,0,1,6.7,1.74c0-2.32-.49-3.94-1.45-4.85s-2.64-1.4-5-1.4a25.08,25.08,0,0,0-6.85,1v-5.52a46.45,46.45,0,0,1,7.43-.79q6.27,0,9,3.62a11.84,11.84,0,0,1,9-3.62,11.71,11.71,0,0,1,9,3.62,13.45,13.45,0,0,1,3.38,9.57Zm-35.57,3.62a3,3,0,0,0,1.47,2.5,6.77,6.77,0,0,0,3.75,1,7.14,7.14,0,0,0,3.93-1,3.11,3.11,0,0,0,1.58-2.62,2.85,2.85,0,0,0-1.64-2.37,7.35,7.35,0,0,0-3.92-1,6.3,6.3,0,0,0-3.67,1A3,3,0,0,0,585.24,779.06Zm29.34-8.41q-1.08-4.73-5.77-4.72t-6.12,4.72Z"/><path class="cls-4" d="M627.19,761.29h6v2.37a9.7,9.7,0,0,1,7-3.09,8.86,8.86,0,0,1,7,2.82q2.16,2.4,2.16,7.84V787h-6V772.62q0-3.79-1.05-5.24c-.69-1-1.94-1.48-3.75-1.48a4.58,4.58,0,0,0-4.19,2c-.81,1.28-1.21,3.53-1.21,6.72V787h-6Z"/><path class="cls-4" d="M681.64,786.36c0,1.21,0,2.28-.12,3.2a22.3,22.3,0,0,1-.33,2.44,10.85,10.85,0,0,1-2.48,5q-3.48,4-9.57,4a12.82,12.82,0,0,1-8.47-2.76,11.34,11.34,0,0,1-3.95-7.89h6a6.75,6.75,0,0,0,1.13,2.93,6.37,6.37,0,0,0,5.38,2.4q6.51,0,6.51-8v-3.59a11.07,11.07,0,0,1-8.14,3.62,11,11,0,0,1-8.6-3.8,14.1,14.1,0,0,1-3.38-9.63,14.82,14.82,0,0,1,3.14-9.54,10.9,10.9,0,0,1,8.91-4.17,10.34,10.34,0,0,1,8.07,3.62v-2.9h5.94Zm-5.7-12.18a8.69,8.69,0,0,0-2-6,6.64,6.64,0,0,0-5.2-2.29,6.37,6.37,0,0,0-5.32,2.5,9.1,9.1,0,0,0-1.77,5.81,9,9,0,0,0,1.77,5.74,6.37,6.37,0,0,0,5.32,2.46,6.52,6.52,0,0,0,5.38-2.48A8.86,8.86,0,0,0,675.94,774.18Z"/><path class="cls-4" d="M704.05,765.66l-4.91,2.61c-.77-1.58-1.73-2.37-2.87-2.37a2,2,0,0,0-1.4.54,1.83,1.83,0,0,0-.58,1.38q0,1.48,3.43,2.93c3.15,1.36,5.26,2.6,6.35,3.75a6.4,6.4,0,0,1,1.64,4.61,8.1,8.1,0,0,1-2.74,6.22,9.36,9.36,0,0,1-6.44,2.38q-6.45,0-9.15-6.31l5.07-2.34a11.11,11.11,0,0,0,1.6,2.34,3.7,3.7,0,0,0,2.59,1c2,0,3-.92,3-2.75,0-1-.77-2-2.32-2.95-.59-.3-1.19-.59-1.79-.87l-1.82-.87a11.25,11.25,0,0,1-3.64-2.53,6.26,6.26,0,0,1-1.34-4.14,7.33,7.33,0,0,1,2.29-5.54,8.07,8.07,0,0,1,5.7-2.19Q701.64,760.57,704.05,765.66Z"/><path class="cls-4" d="M734.42,775.52H716a7.79,7.79,0,0,0,2.06,5,6.25,6.25,0,0,0,4.66,1.85,6.11,6.11,0,0,0,3.67-1.06,14.84,14.84,0,0,0,3.24-3.9l5,2.79a19.75,19.75,0,0,1-2.45,3.39,12.94,12.94,0,0,1-2.77,2.32,10.94,10.94,0,0,1-3.19,1.33,15.56,15.56,0,0,1-3.72.43,12.1,12.1,0,0,1-9.23-3.7q-3.48-3.71-3.48-9.86a14.22,14.22,0,0,1,3.38-9.86,12.85,12.85,0,0,1,18-.1q3.27,3.59,3.27,9.94Zm-6.09-4.85c-.82-3.16-2.82-4.74-6-4.74a6.13,6.13,0,0,0-2,.33,5.61,5.61,0,0,0-1.73,1,5.9,5.9,0,0,0-1.33,1.48,7.09,7.09,0,0,0-.85,2Z"/><path class="cls-4" d="M746.84,742.43V787h-5.93V742.43Z"/><path class="cls-4" d="M769.81,773.94a12.72,12.72,0,0,1,4-9.46,14,14,0,0,1,19.46,0,13.76,13.76,0,0,1,0,19.33,13.62,13.62,0,0,1-9.83,3.88,13,13,0,0,1-9.68-4A13.3,13.3,0,0,1,769.81,773.94Zm6.06.11a8.69,8.69,0,0,0,2.06,6.09,8,8,0,0,0,11.13,0,9.65,9.65,0,0,0,0-12,7.27,7.27,0,0,0-5.57-2.26,7.18,7.18,0,0,0-5.51,2.26A8.31,8.31,0,0,0,775.87,774.05Z"/><path class="cls-4" d="M828.32,786.36c0,1.21,0,2.28-.12,3.2a22.3,22.3,0,0,1-.33,2.44,10.85,10.85,0,0,1-2.48,5q-3.48,4-9.57,4a12.82,12.82,0,0,1-8.47-2.76,11.34,11.34,0,0,1-4-7.89h6a6.75,6.75,0,0,0,1.13,2.93,6.38,6.38,0,0,0,5.38,2.4q6.51,0,6.51-8v-3.59a11.07,11.07,0,0,1-8.14,3.62,11,11,0,0,1-8.6-3.8,14.09,14.09,0,0,1-3.37-9.63,14.82,14.82,0,0,1,3.13-9.54,10.9,10.9,0,0,1,8.92-4.17,10.33,10.33,0,0,1,8.06,3.62v-2.9h5.94Zm-5.7-12.18a8.69,8.69,0,0,0-2-6,6.64,6.64,0,0,0-5.2-2.29,6.37,6.37,0,0,0-5.32,2.5,9.1,9.1,0,0,0-1.77,5.81A9,9,0,0,0,810.1,780a6.38,6.38,0,0,0,5.32,2.46,6.52,6.52,0,0,0,5.38-2.48A8.86,8.86,0,0,0,822.62,774.18Z"/><path class="cls-4" d="M858.4,742.43v21.83a10.94,10.94,0,0,1,8.07-3.69,11.12,11.12,0,0,1,8.65,3.88,13.85,13.85,0,0,1,3.45,9.6,14.15,14.15,0,0,1-3.48,9.81,11.24,11.24,0,0,1-8.73,3.85,11.12,11.12,0,0,1-8-3.43V787h-5.93V742.43Zm14.11,31.88a8.86,8.86,0,0,0-2-6,6.41,6.41,0,0,0-5.08-2.37,6.82,6.82,0,0,0-5.33,2.29,8.54,8.54,0,0,0-2,5.91,8.66,8.66,0,0,0,2,6,6.68,6.68,0,0,0,5.28,2.3,6.54,6.54,0,0,0,5.11-2.3A8.44,8.44,0,0,0,872.51,774.31Z"/><path class="cls-4" d="M905.39,763.08l4.06-4,2.69,2.85-4,3.87a13.69,13.69,0,0,1,2.88,8.42,12.92,12.92,0,0,1-4,9.59,13.14,13.14,0,0,1-9.66,3.91,13.93,13.93,0,0,1-8.49-2.69l-3.9,3.77L882.32,786l3.87-3.85a14.13,14.13,0,0,1-2.56-8.12,12.86,12.86,0,0,1,4-9.57,13.37,13.37,0,0,1,9.73-3.93A14.31,14.31,0,0,1,905.39,763.08Zm-4.3,4.06a8,8,0,0,0-3.72-.82,7.4,7.4,0,0,0-5.59,2.16,7.93,7.93,0,0,0-2.08,5.75,8.66,8.66,0,0,0,.82,3.82Zm2.85,2.69L893.18,781a8.56,8.56,0,0,0,4.17,1.06,7.44,7.44,0,0,0,5.53-2.14,7.86,7.86,0,0,0,2.09-5.69A9.73,9.73,0,0,0,903.94,769.83Z"/><path class="cls-4" d="M936.24,742.43h6V787h-6v-2.69a11.11,11.11,0,0,1-7.94,3.43,11.32,11.32,0,0,1-8.75-3.85,14.29,14.29,0,0,1-3.46-9.81,13.81,13.81,0,0,1,3.46-9.6,11.09,11.09,0,0,1,16.69-.19Zm-14.08,31.62a9,9,0,0,0,2,6,6.51,6.51,0,0,0,5.12,2.35,6.83,6.83,0,0,0,5.33-2.27,9.76,9.76,0,0,0,0-11.92,6.73,6.73,0,0,0-5.28-2.29,6.53,6.53,0,0,0-5.11,2.32A8.5,8.5,0,0,0,922.16,774.05Z"/><path class="cls-4" d="M973.07,775.52h-18.4a7.83,7.83,0,0,0,2.05,5,6.29,6.29,0,0,0,4.67,1.85,6.11,6.11,0,0,0,3.67-1.06,14.84,14.84,0,0,0,3.24-3.9l5,2.79a19.75,19.75,0,0,1-2.45,3.39,12.94,12.94,0,0,1-2.77,2.32,11.06,11.06,0,0,1-3.19,1.33,15.56,15.56,0,0,1-3.72.43A12.1,12.1,0,0,1,952,784q-3.48-3.71-3.48-9.86a14.22,14.22,0,0,1,3.38-9.86,12.85,12.85,0,0,1,18-.1q3.27,3.59,3.27,9.94ZM967,770.67c-.82-3.16-2.82-4.74-6-4.74a6.13,6.13,0,0,0-2,.33,5.61,5.61,0,0,0-1.73,1,5.9,5.9,0,0,0-1.33,1.48,7.09,7.09,0,0,0-.85,2Z"/><path class="cls-4" d="M980.48,784a3.49,3.49,0,0,1,1.08-2.55,3.68,3.68,0,1,1-1.08,2.55Z"/></g></svg>