<svg xmlns="http://www.w3.org/2000/svg" width="1920" height="1080" viewBox="0 0 1920 1080"><defs><style>.cls-1{fill:#264159;}.cls-2{fill:#152230;}.cls-3{fill:#091014;}.cls-4{fill:#fff;}</style></defs><title>senarie1</title><g id="Layer_2" data-name="Layer 2"><polygon class="cls-1" points="1304 1050 1383 1050 1383 1075 1383 1093 1383 1138 1419 1138 1419 1181 1418 1181 1418 1227 1454 1227 1454 1270 1375 1270 1375 1248 1375 1227 1375 1181 1340 1181 1340 1154 1340 1138 1340 1093 1304 1093 1304 1050"/><rect class="cls-1" x="1695" y="1065" width="40" height="110" rx="20" transform="translate(2362.6 3063.26) rotate(-141.58)"/><rect class="cls-1" x="1246" y="1002" width="40" height="110" rx="20" transform="translate(1600.98 2671.87) rotate(-141.58)"/><rect class="cls-2" width="1920" height="1080"/><circle class="cls-1" cx="145" cy="150" r="50"/><circle class="cls-1" cx="1214" cy="333" r="50"/><circle class="cls-1" cx="1733" cy="918" r="50"/><circle class="cls-1" cx="226" cy="691" r="50"/><circle class="cls-1" cx="913" cy="576" r="50"/><circle class="cls-1" cx="542" cy="333" r="50"/><circle class="cls-1" cx="1197" cy="841" r="50"/><circle class="cls-1" cx="1570" cy="490" r="50"/><circle class="cls-1" cx="828" cy="150" r="50"/><circle class="cls-1" cx="592" cy="968" r="50"/><circle class="cls-1" cx="1620" cy="174" r="50"/><polygon class="cls-1" points="442 81 363 81 363 106 363 124 363 169 327 169 327 212 328 212 328 258 292 258 292 301 371 301 371 279 371 258 371 212 406 212 406 185 406 169 406 124 442 124 442 81"/><polygon class="cls-1" points="988 758 909 758 909 783 909 801 909 846 873 846 873 889 874 889 874 935 838 935 838 978 917 978 917 956 917 935 917 889 952 889 952 862 952 846 952 801 988 801 988 758"/><polygon class="cls-1" points="301 907 222 907 222 932 222 950 222 995 186 995 186 1038 187 1038 187 1084 151 1084 151 1127 230 1127 230 1105 230 1084 230 1038 265 1038 265 1011 265 995 265 950 301 950 301 907"/><polygon class="cls-1" points="1392 791 1471 791 1471 816 1471 834 1471 879 1507 879 1507 922 1506 922 1506 968 1542 968 1542 1011 1463 1011 1463 989 1463 968 1463 922 1428 922 1428 895 1428 879 1428 834 1392 834 1392 791"/><polygon class="cls-1" points="1289 -70 1368 -70 1368 -45 1368 -27 1368 18 1404 18 1404 61 1403 61 1403 107 1439 107 1439 150 1360 150 1360 128 1360 107 1360 61 1325 61 1325 34 1325 18 1325 -27 1289 -27 1289 -70"/><polygon class="cls-1" points="1708 370 1787 370 1787 395 1787 413 1787 458 1823 458 1823 501 1822 501 1822 547 1858 547 1858 590 1779 590 1779 568 1779 547 1779 501 1744 501 1744 474 1744 458 1744 413 1708 413 1708 370"/><polygon class="cls-1" points="1063 173 984 173 984 198 984 216 984 261 948 261 948 304 949 304 949 350 913 350 913 393 992 393 992 371 992 350 992 304 1027 304 1027 277 1027 261 1027 216 1063 216 1063 173"/><polygon class="cls-1" points="1414 411 1335 411 1335 436 1335 454 1335 499 1299 499 1299 542 1300 542 1300 588 1264 588 1264 631 1343 631 1343 609 1343 588 1343 542 1378 542 1378 515 1378 499 1378 454 1414 454 1414 411"/><polygon class="cls-1" points="492 521 571 521 571 546 571 564 571 609 607 609 607 652 606 652 606 698 642 698 642 741 563 741 563 719 563 698 563 652 528 652 528 625 528 609 528 564 492 564 492 521"/><polygon class="cls-1" points="-39 273 40 273 40 298 40 316 40 361 76 361 76 404 75 404 75 450 111 450 111 493 32 493 32 471 32 450 32 404 -3 404 -3 377 -3 361 -3 316 -39 316 -39 273"/><rect class="cls-1" x="1796" y="165" width="40" height="110" rx="20" transform="matrix(0.78, -0.62, 0.62, 0.78, 256.53, 1176.19)"/><rect class="cls-1" x="1680" y="-55" width="40" height="110" rx="20" transform="translate(3031.87 1056.47) rotate(-141.58)"/><rect class="cls-1" x="738" y="338" width="40" height="110" rx="20" transform="translate(1107.63 1171.96) rotate(-141.58)"/><rect class="cls-1" x="42" y="846" width="40" height="110" rx="20" transform="translate(-449.35 1645.42) rotate(-141.58)"/><rect class="cls-1" x="389" y="786" width="40" height="110" rx="20" transform="matrix(-0.78, -0.62, 0.62, -0.78, 206.79, 1754.06)"/><rect class="cls-1" x="589" y="26" width="40" height="110" rx="20" transform="translate(1035.79 522.92) rotate(-141.58)"/><rect class="cls-1" x="1072" y="576" width="40" height="110" rx="20" transform="translate(1555.4 1803.98) rotate(-141.58)"/><rect class="cls-1" x="1447" y="246" width="40" height="110" rx="20" transform="translate(130.62 976.85) rotate(-38.42)"/><rect class="cls-1" x="1127" y="-15" width="40" height="110" rx="20" transform="translate(223.52 721.47) rotate(-38.42)"/><rect class="cls-1" x="1900" y="750" width="40" height="110" rx="20" transform="translate(-84.5 1367.51) rotate(-38.42)"/><rect class="cls-1" x="696" y="786" width="40" height="110" rx="20" transform="translate(-367.59 627.07) rotate(-38.42)"/><rect class="cls-1" x="265" y="435" width="40" height="110" rx="20" transform="translate(-242.79 283.22) rotate(-38.42)"/><rect class="cls-3" x="328" y="166" width="1140" height="655" rx="12"/><rect class="cls-1" x="434" y="271" width="1140" height="655" rx="12"/><path class="cls-4" d="M468.63,301.82,479.89,330l11.41-28.22H498l-18.28,43.77L461.9,301.82Z"/><path class="cls-4" d="M522.26,331.09H503.85a7.84,7.84,0,0,0,2.06,5,6.27,6.27,0,0,0,4.67,1.84,6.07,6.07,0,0,0,3.66-1.05,15.29,15.29,0,0,0,3.25-3.91l5,2.8A20.32,20.32,0,0,1,520,339.2a13,13,0,0,1-2.77,2.32,11.1,11.1,0,0,1-3.19,1.33,15.55,15.55,0,0,1-3.71.42,12.08,12.08,0,0,1-9.23-3.69q-3.48-3.72-3.48-9.86a14.22,14.22,0,0,1,3.37-9.86,11.65,11.65,0,0,1,9-3.72,11.5,11.5,0,0,1,9,3.61q3.27,3.58,3.27,9.94Zm-6.09-4.85c-.83-3.17-2.82-4.75-6-4.75a6.13,6.13,0,0,0-2,.33,6,6,0,0,0-1.73.95,6.15,6.15,0,0,0-1.33,1.49,6.8,6.8,0,0,0-.84,2Z"/><path class="cls-4" d="M534.68,298v44.53h-5.94V298Z"/><path class="cls-4" d="M548.12,298v27.16l8.36-8.31h8l-11.16,10.79,12,14.89h-7.7l-8.49-10.83-1,.95v9.88h-5.93V298Z"/><path class="cls-4" d="M566.79,329.51a12.78,12.78,0,0,1,4-9.47,14,14,0,0,1,19.46,0,13.75,13.75,0,0,1,0,19.33,13.64,13.64,0,0,1-9.84,3.87,13.09,13.09,0,0,1-9.68-3.95A13.3,13.3,0,0,1,566.79,329.51Zm6.07.1a8.65,8.65,0,0,0,2,6.09,8,8,0,0,0,11.13,0,9.65,9.65,0,0,0,0-12,7.25,7.25,0,0,0-5.56-2.27,7.17,7.17,0,0,0-5.51,2.27A8.23,8.23,0,0,0,572.86,329.61Z"/><path class="cls-4" d="M600.46,316.85h5.94v2.37a12.34,12.34,0,0,1,2.92-2.42,7.09,7.09,0,0,1,3.25-.66,7.88,7.88,0,0,1,6.88,3.8,8.9,8.9,0,0,1,7.56-3.8q8.68,0,8.68,10.52v15.87h-6V328.27a11,11,0,0,0-.9-5.22,3.23,3.23,0,0,0-3-1.56,3.88,3.88,0,0,0-3.57,1.85q-1.12,1.85-1.12,5.93v13.26h-6V328.35q0-6.86-4-6.86a4,4,0,0,0-3.65,1.87q-1.14,1.88-1.14,5.91v13.26h-5.94Z"/><path class="cls-4" d="M643.18,316.85h5.93v2.37A12.35,12.35,0,0,1,652,316.8a7.08,7.08,0,0,1,3.24-.66,7.88,7.88,0,0,1,6.88,3.8,8.92,8.92,0,0,1,7.57-3.8q8.67,0,8.67,10.52v15.87h-5.95V328.27a11,11,0,0,0-.9-5.22,3.26,3.26,0,0,0-3-1.56,3.88,3.88,0,0,0-3.58,1.85c-.74,1.23-1.12,3.21-1.12,5.93v13.26h-6V328.35c0-4.57-1.31-6.86-4-6.86a4,4,0,0,0-3.65,1.87q-1.15,1.88-1.15,5.91v13.26h-5.93Z"/><path class="cls-4" d="M709.28,331.09h-18.4a7.78,7.78,0,0,0,2,5A6.28,6.28,0,0,0,697.6,338a6.05,6.05,0,0,0,3.66-1.05,15.29,15.29,0,0,0,3.25-3.91l5,2.8a20.3,20.3,0,0,1-2.45,3.39,13.5,13.5,0,0,1-2.77,2.32,11.34,11.34,0,0,1-3.19,1.33,15.7,15.7,0,0,1-3.72.42,12.1,12.1,0,0,1-9.23-3.69q-3.48-3.72-3.48-9.86a14.22,14.22,0,0,1,3.37-9.86,12.87,12.87,0,0,1,18-.11q3.27,3.58,3.27,9.94Zm-6.09-4.85c-.83-3.17-2.82-4.75-6-4.75a6.17,6.17,0,0,0-2,.33,5.9,5.9,0,0,0-3,2.44,6.81,6.81,0,0,0-.85,2Z"/><path class="cls-4" d="M715.77,316.85h6v2.37a9.73,9.73,0,0,1,7-3.08,8.86,8.86,0,0,1,7,2.82q2.16,2.4,2.16,7.83v15.74h-6V328.19q0-3.79-1-5.25t-3.75-1.47a4.57,4.57,0,0,0-4.19,1.95q-1.22,1.92-1.21,6.72v12.39h-6Z"/><path class="cls-4" d="M768.16,322.39v20.14h-5.93V322.39h-2.54v-5.54h2.54v-9.41h5.93v9.41h4.61v5.54Z"/><path class="cls-4" d="M775.91,306.17a3.86,3.86,0,0,1,6.59-2.69,3.65,3.65,0,0,1,1.14,2.72,3.71,3.71,0,0,1-1.14,2.74,3.63,3.63,0,0,1-2.71,1.14,3.74,3.74,0,0,1-2.75-1.14A3.78,3.78,0,0,1,775.91,306.17Zm6.83,10.68v25.68h-5.93V316.85Z"/><path class="cls-4" d="M796.19,298v44.53h-5.94V298Z"/><path class="cls-4" d="M826.51,322.39v20.14h-6V322.39h-2.11v-5.54h2.11v-9.91c0-3.24.56-5.52,1.69-6.86a8.26,8.26,0,0,1,6.75-2.79,11.5,11.5,0,0,1,4,.92v6.06l-.61-.31a7.47,7.47,0,0,0-3.16-1,2.15,2.15,0,0,0-2.14,1.14,10.88,10.88,0,0,0-.55,4.27v8.46H833v5.54Z"/><path class="cls-4" d="M876.18,331H857.67a8.19,8.19,0,0,0,2.17,5.06,6.17,6.17,0,0,0,4.64,1.9c2.7,0,4.95-1.71,6.72-5.14l5.12,2.85a18,18,0,0,1-1.82,2.82,11.17,11.17,0,0,1-2.11,2,13.56,13.56,0,0,1-8.2,2.77,12.88,12.88,0,0,1-9.31-4.12q-3.23,4.13-9.47,4.12a11.71,11.71,0,0,1-7.62-2.38,7.58,7.58,0,0,1-2.92-6.19,7.94,7.94,0,0,1,2.79-6.33A10.89,10.89,0,0,1,845,326a14.89,14.89,0,0,1,6.7,1.74c0-2.32-.49-3.93-1.45-4.85s-2.64-1.39-5-1.39a25.58,25.58,0,0,0-6.86,1v-5.51a45.52,45.52,0,0,1,7.44-.79q6.27,0,9,3.61a11.83,11.83,0,0,1,9-3.61,11.7,11.7,0,0,1,9,3.61,13.46,13.46,0,0,1,3.38,9.57Zm-35.56,3.61a3,3,0,0,0,1.47,2.51,6.77,6.77,0,0,0,3.75,1,7,7,0,0,0,3.92-1,3.07,3.07,0,0,0,1.59-2.61,2.85,2.85,0,0,0-1.64-2.37,7.36,7.36,0,0,0-3.93-1,6.36,6.36,0,0,0-3.66,1A3,3,0,0,0,840.62,334.62ZM870,326.21c-.72-3.14-2.64-4.72-5.77-4.72s-5.22,1.58-6.12,4.72Z"/><path class="cls-4" d="M882.57,316.85h5.95v2.37a9.77,9.77,0,0,1,7-3.08,8.88,8.88,0,0,1,7,2.82q2.16,2.4,2.16,7.83v15.74h-6V328.19q0-3.79-1.06-5.25c-.68-1-1.93-1.47-3.74-1.47a4.57,4.57,0,0,0-4.19,1.95q-1.22,1.92-1.22,6.72v12.39h-5.95Z"/><path class="cls-4" d="M937,341.93c0,1.21,0,2.28-.11,3.2a22.64,22.64,0,0,1-.33,2.44,11,11,0,0,1-2.48,5,12,12,0,0,1-9.57,4,12.77,12.77,0,0,1-8.47-2.77,11.32,11.32,0,0,1-3.95-7.88h6a6.58,6.58,0,0,0,1.13,2.92,6.37,6.37,0,0,0,5.38,2.4q6.51,0,6.51-8v-3.59a11.06,11.06,0,0,1-8.15,3.61,10.91,10.91,0,0,1-8.59-3.8,14.05,14.05,0,0,1-3.38-9.62,14.82,14.82,0,0,1,3.14-9.54,10.9,10.9,0,0,1,8.91-4.17,10.33,10.33,0,0,1,8.07,3.61v-2.9H937Zm-5.69-12.18a8.63,8.63,0,0,0-2-6,6.6,6.6,0,0,0-5.19-2.29,6.39,6.39,0,0,0-5.33,2.5,10.35,10.35,0,0,0,0,11.55,6.42,6.42,0,0,0,5.33,2.45,6.49,6.49,0,0,0,5.38-2.48A8.83,8.83,0,0,0,931.32,329.75Z"/><path class="cls-4" d="M959.43,321.23l-4.91,2.61c-.77-1.58-1.73-2.37-2.87-2.37a2,2,0,0,0-1.4.54,1.79,1.79,0,0,0-.58,1.38c0,1,1.14,2,3.43,2.93q4.71,2,6.35,3.74a6.41,6.41,0,0,1,1.64,4.62,8.09,8.09,0,0,1-2.75,6.22,9.33,9.33,0,0,1-6.43,2.37q-6.46,0-9.15-6.3l5.06-2.35a11.18,11.18,0,0,0,1.61,2.35,3.66,3.66,0,0,0,2.59,1c2,0,3-.91,3-2.74,0-1.06-.77-2-2.32-3-.6-.3-1.19-.59-1.79-.87l-1.82-.87a11.14,11.14,0,0,1-3.64-2.54,6.2,6.2,0,0,1-1.34-4.13,7.32,7.32,0,0,1,2.29-5.54,8,8,0,0,1,5.7-2.19Q957,316.14,959.43,321.23Z"/><path class="cls-4" d="M989.8,331.09H971.4a7.78,7.78,0,0,0,2.05,5,6.28,6.28,0,0,0,4.67,1.84,6.11,6.11,0,0,0,3.67-1.05A15.29,15.29,0,0,0,985,333l5,2.8a20.3,20.3,0,0,1-2.45,3.39,13.5,13.5,0,0,1-2.77,2.32,11.34,11.34,0,0,1-3.19,1.33,15.7,15.7,0,0,1-3.72.42,12.1,12.1,0,0,1-9.23-3.69q-3.48-3.72-3.48-9.86a14.17,14.17,0,0,1,3.38-9.86,12.86,12.86,0,0,1,18-.11q3.27,3.58,3.27,9.94Zm-6.09-4.85c-.83-3.17-2.82-4.75-6-4.75a6.17,6.17,0,0,0-2,.33,5.9,5.9,0,0,0-1.72.95,5.76,5.76,0,0,0-1.33,1.49,7.09,7.09,0,0,0-.85,2Z"/><path class="cls-4" d="M1002.22,298v44.53h-5.93V298Z"/><path class="cls-4" d="M1010.66,339.58a3.67,3.67,0,0,1,7.33,0,3.7,3.7,0,0,1-6.28,2.61A3.61,3.61,0,0,1,1010.66,339.58Z"/><path class="cls-4" d="M463.88,472.13V431.42h8.54a31,31,0,0,1,9.7,1.22,18.17,18.17,0,0,1,6.94,4q6.3,5.74,6.3,15.11A19.81,19.81,0,0,1,481.89,471a31.32,31.32,0,0,1-9.57,1.13Zm6.14-5.77h2.77a23.1,23.1,0,0,0,6.88-.87,14.94,14.94,0,0,0,5-24.58q-4-3.71-11.89-3.71H470Z"/><path class="cls-4" d="M525.34,460.69h-18.4a7.78,7.78,0,0,0,2.05,5,6.28,6.28,0,0,0,4.67,1.84,6.05,6.05,0,0,0,3.66-1.05,15.29,15.29,0,0,0,3.25-3.91l5,2.8a19.77,19.77,0,0,1-2.46,3.39,13.19,13.19,0,0,1-2.76,2.32,11.34,11.34,0,0,1-3.19,1.33,15.7,15.7,0,0,1-3.72.42,12.1,12.1,0,0,1-9.23-3.69q-3.48-3.72-3.48-9.86a14.22,14.22,0,0,1,3.37-9.86,12.87,12.87,0,0,1,18-.11q3.27,3.58,3.27,9.94Zm-6.09-4.85c-.83-3.17-2.82-4.75-6-4.75a6.17,6.17,0,0,0-2,.33,5.78,5.78,0,0,0-1.72.95,6,6,0,0,0-1.34,1.49,7.08,7.08,0,0,0-.84,2Z"/><path class="cls-4" d="M538.42,452v20.14h-5.93V452H530v-5.54h2.54V437h5.93v9.41H543V452Z"/><path class="cls-4" d="M587.12,460.69H568.71a7.84,7.84,0,0,0,2.06,5,6.27,6.27,0,0,0,4.67,1.84,6.07,6.07,0,0,0,3.66-1.05,15.29,15.29,0,0,0,3.25-3.91l5,2.8a20.32,20.32,0,0,1-2.46,3.39,13,13,0,0,1-2.77,2.32,11.1,11.1,0,0,1-3.19,1.33,15.55,15.55,0,0,1-3.71.42,12.08,12.08,0,0,1-9.23-3.69q-3.48-3.72-3.48-9.86a14.22,14.22,0,0,1,3.37-9.86,12.87,12.87,0,0,1,18-.11q3.25,3.58,3.26,9.94ZM581,455.84c-.83-3.17-2.82-4.75-6-4.75a6.13,6.13,0,0,0-2,.33,6,6,0,0,0-1.73.95,6.15,6.15,0,0,0-1.33,1.49,6.8,6.8,0,0,0-.84,2Z"/><path class="cls-4" d="M593.6,446.45h5.94v2.3a11.05,11.05,0,0,1,2.9-2.35,6.64,6.64,0,0,1,3.06-.66,9.56,9.56,0,0,1,4.9,1.53l-2.72,5.43a5.63,5.63,0,0,0-3.29-1.21q-4.86,0-4.85,7.33v13.31H593.6Z"/><path class="cls-4" d="M636.4,446.45v14.74c0,4.26,1.68,6.38,5,6.38s5-2.12,5-6.38V446.45h5.93v14.87a16.54,16.54,0,0,1-.76,5.33,9,9,0,0,1-2.56,3.61,12.47,12.47,0,0,1-15.27,0,9.12,9.12,0,0,1-2.61-3.61,14.79,14.79,0,0,1-.73-5.33V446.45Z"/><path class="cls-4" d="M665.82,427.6v44.53h-5.93V427.6Z"/><path class="cls-4" d="M672.13,459.11a12.74,12.74,0,0,1,4-9.47,14,14,0,0,1,19.46,0,13.76,13.76,0,0,1,0,19.33,13.61,13.61,0,0,1-9.83,3.87,13.08,13.08,0,0,1-9.68-3.95A13.3,13.3,0,0,1,672.13,459.11Zm6.06.1a8.65,8.65,0,0,0,2.06,6.09,8,8,0,0,0,11.12,0,9.61,9.61,0,0,0,0-12,7.88,7.88,0,0,0-11.07,0A8.23,8.23,0,0,0,678.19,459.21Z"/><path class="cls-4" d="M707.91,446.45l6.64,14.42,6.62-14.42h6.67L714.5,473.9l-13.24-27.45Z"/><path class="cls-4" d="M738.25,427.6v44.53h-5.93V427.6Z"/><path class="cls-4" d="M744.87,435.77a3.88,3.88,0,0,1,3.85-3.82,3.74,3.74,0,0,1,2.74,1.13,3.65,3.65,0,0,1,1.14,2.72,3.71,3.71,0,0,1-1.14,2.74,3.62,3.62,0,0,1-2.71,1.14,3.89,3.89,0,0,1-3.88-3.91Zm6.83,10.68v25.68h-5.93V446.45Z"/><path class="cls-4" d="M784.05,471.53c0,1.21,0,2.28-.11,3.2a22.64,22.64,0,0,1-.33,2.44,11,11,0,0,1-2.48,5,12,12,0,0,1-9.57,4,12.77,12.77,0,0,1-8.47-2.77,11.32,11.32,0,0,1-4-7.88h6a6.68,6.68,0,0,0,1.13,2.93,6.39,6.39,0,0,0,5.38,2.39q6.51,0,6.51-8v-3.59a11.06,11.06,0,0,1-8.15,3.61,10.91,10.91,0,0,1-8.59-3.8,14.05,14.05,0,0,1-3.38-9.62,14.82,14.82,0,0,1,3.14-9.54,10.9,10.9,0,0,1,8.91-4.17,10.33,10.33,0,0,1,8.07,3.61v-2.9h5.93Zm-5.69-12.18a8.67,8.67,0,0,0-2-6,6.64,6.64,0,0,0-5.2-2.29,6.4,6.4,0,0,0-5.33,2.5,10.35,10.35,0,0,0,0,11.55,6.42,6.42,0,0,0,5.33,2.45,6.49,6.49,0,0,0,5.38-2.48A8.83,8.83,0,0,0,778.36,459.35Z"/><path class="cls-4" d="M797.66,452v20.14h-5.93V452H789.2v-5.54h2.53V437h5.93v9.41h4.61V452Z"/><path class="cls-4" d="M841.9,446.45h6v25.68h-6v-2.69a11.39,11.39,0,0,1-16.69-.42,14.33,14.33,0,0,1-3.45-9.81,13.88,13.88,0,0,1,3.45-9.62,11.14,11.14,0,0,1,8.65-3.85,10.91,10.91,0,0,1,8,3.69Zm-14.08,12.76a9,9,0,0,0,2,6,6.5,6.5,0,0,0,5.12,2.34,6.78,6.78,0,0,0,5.32-2.27,9.75,9.75,0,0,0,0-11.91,6.71,6.71,0,0,0-5.27-2.3,6.6,6.6,0,0,0-5.12,2.32A8.58,8.58,0,0,0,827.82,459.21Z"/><path class="cls-4" d="M861.47,452v20.14h-5.93V452H853v-5.54h2.54V437h5.93v9.41h4.61V452Z"/><path class="cls-4" d="M905.71,427.6h6v44.53h-6v-2.69a11,11,0,0,1-7.93,3.43A11.29,11.29,0,0,1,889,469a14.33,14.33,0,0,1-3.45-9.81,13.82,13.82,0,0,1,3.45-9.59,11.09,11.09,0,0,1,16.69-.19Zm-14.08,31.61a9,9,0,0,0,2,6,6.48,6.48,0,0,0,5.12,2.34,6.78,6.78,0,0,0,5.32-2.27,9.75,9.75,0,0,0,0-11.91,6.71,6.71,0,0,0-5.27-2.3,6.59,6.59,0,0,0-5.12,2.32A8.58,8.58,0,0,0,891.63,459.21Z"/><path class="cls-4" d="M942.55,460.69H924.14a7.84,7.84,0,0,0,2.06,5,6.27,6.27,0,0,0,4.67,1.84,6.07,6.07,0,0,0,3.66-1.05,15.29,15.29,0,0,0,3.25-3.91l5,2.8a20.32,20.32,0,0,1-2.46,3.39,13,13,0,0,1-2.77,2.32,11.1,11.1,0,0,1-3.19,1.33,15.55,15.55,0,0,1-3.71.42,12.08,12.08,0,0,1-9.23-3.69q-3.48-3.72-3.48-9.86a14.22,14.22,0,0,1,3.37-9.86,11.65,11.65,0,0,1,9-3.72,11.5,11.5,0,0,1,9,3.61q3.27,3.58,3.27,9.94Zm-6.09-4.85c-.83-3.17-2.82-4.75-6-4.75a6.13,6.13,0,0,0-2,.33,6,6,0,0,0-1.73.95,6.15,6.15,0,0,0-1.33,1.49,6.8,6.8,0,0,0-.84,2Z"/><path class="cls-4" d="M955,427.6v44.53H949V427.6Z"/><path class="cls-4" d="M985.87,460.69H967.46a7.84,7.84,0,0,0,2.06,5,6.27,6.27,0,0,0,4.67,1.84,6.05,6.05,0,0,0,3.66-1.05,15.29,15.29,0,0,0,3.25-3.91l5,2.8a19.77,19.77,0,0,1-2.46,3.39,13.19,13.19,0,0,1-2.76,2.32,11.34,11.34,0,0,1-3.19,1.33,15.7,15.7,0,0,1-3.72.42,12.08,12.08,0,0,1-9.23-3.69q-3.48-3.72-3.48-9.86a14.22,14.22,0,0,1,3.37-9.86,12.87,12.87,0,0,1,18-.11c2.17,2.39,3.27,5.71,3.27,9.94Zm-6.09-4.85c-.83-3.17-2.82-4.75-6-4.75a6.17,6.17,0,0,0-2,.33,5.78,5.78,0,0,0-1.72.95,6,6,0,0,0-1.34,1.49,6.8,6.8,0,0,0-.84,2Z"/><path class="cls-4" d="M1015,427.6v21.83a11,11,0,0,1,8.07-3.69,11.09,11.09,0,0,1,8.65,3.88,13.82,13.82,0,0,1,3.45,9.59,14.12,14.12,0,0,1-3.48,9.81,11.2,11.2,0,0,1-8.72,3.85,11.08,11.08,0,0,1-8-3.43v2.69H1009V427.6Zm14.11,31.88a8.84,8.84,0,0,0-2-6,6.39,6.39,0,0,0-5.08-2.38,6.83,6.83,0,0,0-5.33,2.3,8.53,8.53,0,0,0-2,5.9,8.69,8.69,0,0,0,2,6,6.68,6.68,0,0,0,5.28,2.29,6.53,6.53,0,0,0,5.11-2.29A8.44,8.44,0,0,0,1029.06,459.48Z"/><path class="cls-4" d="M1040.5,435.77a3.88,3.88,0,0,1,3.85-3.82,3.74,3.74,0,0,1,2.74,1.13,3.65,3.65,0,0,1,1.14,2.72,3.71,3.71,0,0,1-1.14,2.74,3.62,3.62,0,0,1-2.71,1.14,3.89,3.89,0,0,1-3.88-3.91Zm6.83,10.68v25.68h-5.93V446.45Z"/><path class="cls-4" d="M1060.78,427.6v44.53h-5.93V427.6Z"/><path class="cls-4" d="M1074.23,427.6v44.53h-5.94V427.6Z"/><path class="cls-4" d="M1105.13,460.69h-18.41a7.84,7.84,0,0,0,2.06,5,6.27,6.27,0,0,0,4.67,1.84,6.07,6.07,0,0,0,3.66-1.05,15.29,15.29,0,0,0,3.25-3.91l5,2.8a20.32,20.32,0,0,1-2.46,3.39,13,13,0,0,1-2.77,2.32,11.1,11.1,0,0,1-3.19,1.33,15.55,15.55,0,0,1-3.71.42,12.08,12.08,0,0,1-9.23-3.69q-3.48-3.72-3.48-9.86a14.22,14.22,0,0,1,3.37-9.86,11.65,11.65,0,0,1,9-3.72,11.5,11.5,0,0,1,9,3.61q3.27,3.58,3.27,9.94Zm-6.09-4.85c-.83-3.17-2.82-4.75-6-4.75a6.13,6.13,0,0,0-2,.33,6,6,0,0,0-1.73.95,6.15,6.15,0,0,0-1.33,1.49,6.8,6.8,0,0,0-.84,2Z"/><path class="cls-4" d="M1130.55,427.6h6v44.53h-6v-2.69a11.07,11.07,0,0,1-7.94,3.43,11.27,11.27,0,0,1-8.75-3.85,14.29,14.29,0,0,1-3.46-9.81,13.78,13.78,0,0,1,3.46-9.59,11.09,11.09,0,0,1,16.69-.19Zm-14.08,31.61a9,9,0,0,0,2,6,6.5,6.5,0,0,0,5.12,2.34,6.76,6.76,0,0,0,5.32-2.27,9.71,9.71,0,0,0,0-11.91,6.71,6.71,0,0,0-5.27-2.3,6.57,6.57,0,0,0-5.11,2.32A8.53,8.53,0,0,0,1116.47,459.21Z"/><path class="cls-4" d="M1167.38,460.69H1149a7.78,7.78,0,0,0,2,5,6.28,6.28,0,0,0,4.67,1.84,6.11,6.11,0,0,0,3.67-1.05,15.29,15.29,0,0,0,3.24-3.91l5,2.8a20.3,20.3,0,0,1-2.45,3.39,13.5,13.5,0,0,1-2.77,2.32,11.34,11.34,0,0,1-3.19,1.33,15.64,15.64,0,0,1-3.72.42,12.1,12.1,0,0,1-9.23-3.69q-3.48-3.72-3.48-9.86a14.22,14.22,0,0,1,3.38-9.86,12.86,12.86,0,0,1,18-.11q3.27,3.58,3.27,9.94Zm-6.09-4.85c-.83-3.17-2.82-4.75-6-4.75a6.17,6.17,0,0,0-2,.33,5.9,5.9,0,0,0-1.72.95,5.76,5.76,0,0,0-1.33,1.49,7.09,7.09,0,0,0-.85,2Z"/><path class="cls-4" d="M1173.87,446.45h5.93v2.3a11.22,11.22,0,0,1,2.9-2.35,6.64,6.64,0,0,1,3.06-.66,9.56,9.56,0,0,1,4.9,1.53L1188,452.7a5.68,5.68,0,0,0-3.3-1.21q-4.85,0-4.85,7.33v13.31h-5.93Z"/><path class="cls-4" d="M1229.66,446.45h6v25.68h-6v-2.69A11.39,11.39,0,0,1,1213,469a14.33,14.33,0,0,1-3.45-9.81,13.88,13.88,0,0,1,3.45-9.62,11.13,11.13,0,0,1,8.65-3.85,10.91,10.91,0,0,1,8,3.69Zm-14.08,12.76a9,9,0,0,0,2,6,6.48,6.48,0,0,0,5.11,2.34,6.78,6.78,0,0,0,5.33-2.27,9.75,9.75,0,0,0,0-11.91,6.71,6.71,0,0,0-5.27-2.3,6.59,6.59,0,0,0-5.12,2.32A8.58,8.58,0,0,0,1215.58,459.21Z"/><path class="cls-4" d="M1249.25,452v20.14h-6V452h-2.11v-5.54h2.11v-9.91c0-3.24.56-5.52,1.69-6.86a8.29,8.29,0,0,1,6.75-2.79,11.5,11.5,0,0,1,4,.92v6.06l-.61-.31a7.43,7.43,0,0,0-3.16-1,2.16,2.16,0,0,0-2.14,1.14,11.08,11.08,0,0,0-.55,4.27v8.46h6.46V452Z"/><path class="cls-4" d="M1294.73,446.45h6v25.68h-6v-2.69A11.39,11.39,0,0,1,1278,469a14.33,14.33,0,0,1-3.45-9.81,13.88,13.88,0,0,1,3.45-9.62,11.14,11.14,0,0,1,8.65-3.85,10.91,10.91,0,0,1,8,3.69Zm-14.08,12.76a9,9,0,0,0,2,6,6.5,6.5,0,0,0,5.12,2.34,6.78,6.78,0,0,0,5.32-2.27,9.75,9.75,0,0,0,0-11.91,6.71,6.71,0,0,0-5.27-2.3,6.6,6.6,0,0,0-5.12,2.32A8.58,8.58,0,0,0,1280.65,459.21Z"/><path class="cls-4" d="M1308.18,446.45h6v2.37a9.73,9.73,0,0,1,7-3.08,8.86,8.86,0,0,1,7,2.82q2.16,2.4,2.16,7.83v15.74h-6V457.79q0-3.8-1-5.25c-.69-1-1.93-1.47-3.74-1.47a4.6,4.6,0,0,0-4.2,1.95q-1.21,1.92-1.21,6.72v12.39h-6Z"/><path class="cls-4" d="M1356.72,427.6h6v44.53h-6v-2.69a11,11,0,0,1-7.93,3.43A11.29,11.29,0,0,1,1340,469a14.33,14.33,0,0,1-3.45-9.81,13.82,13.82,0,0,1,3.45-9.59,11.09,11.09,0,0,1,16.69-.19Zm-14.08,31.61a9,9,0,0,0,2,6,6.48,6.48,0,0,0,5.12,2.34,6.78,6.78,0,0,0,5.32-2.27,9.75,9.75,0,0,0,0-11.91,6.71,6.71,0,0,0-5.27-2.3,6.59,6.59,0,0,0-5.12,2.32A8.58,8.58,0,0,0,1342.64,459.21Z"/><path class="cls-4" d="M1370.17,446.45h5.93v2.3a11.22,11.22,0,0,1,2.9-2.35,6.67,6.67,0,0,1,3.06-.66,9.6,9.6,0,0,1,4.91,1.53l-2.72,5.43a5.63,5.63,0,0,0-3.29-1.21q-4.86,0-4.86,7.33v13.31h-5.93Z"/><path class="cls-4" d="M1413.39,460.69H1395a7.84,7.84,0,0,0,2.06,5,6.27,6.27,0,0,0,4.67,1.84,6.09,6.09,0,0,0,3.66-1.05,15.09,15.09,0,0,0,3.24-3.91l5,2.8a19.75,19.75,0,0,1-2.45,3.39,13,13,0,0,1-2.77,2.32,11.1,11.1,0,0,1-3.19,1.33,15.55,15.55,0,0,1-3.71.42,12.08,12.08,0,0,1-9.23-3.69q-3.48-3.72-3.48-9.86a14.22,14.22,0,0,1,3.37-9.86,11.63,11.63,0,0,1,9-3.72,11.5,11.5,0,0,1,9,3.61q3.27,3.58,3.27,9.94Zm-6.09-4.85q-1.24-4.75-6-4.75a6.13,6.13,0,0,0-2,.33,5.87,5.87,0,0,0-3.06,2.44,6.8,6.8,0,0,0-.84,2Z"/><path class="cls-4" d="M477.67,515.63l-4.91,2.61c-.77-1.58-1.73-2.37-2.87-2.37a2,2,0,0,0-1.4.54,1.83,1.83,0,0,0-.58,1.38c0,1,1.14,2,3.43,2.93,3.15,1.35,5.26,2.6,6.35,3.74a6.41,6.41,0,0,1,1.64,4.62,8.08,8.08,0,0,1-2.74,6.22,9.35,9.35,0,0,1-6.44,2.37q-6.45,0-9.15-6.3l5.07-2.35a11.27,11.27,0,0,0,1.6,2.35,3.69,3.69,0,0,0,2.59,1c2,0,3-.91,3-2.74,0-1-.77-2-2.32-3-.59-.3-1.19-.59-1.79-.87l-1.82-.87a11.41,11.41,0,0,1-3.64-2.53,6.3,6.3,0,0,1-1.34-4.14,7.32,7.32,0,0,1,2.29-5.54,8.07,8.07,0,0,1,5.7-2.19Q475.26,510.54,477.67,515.63Z"/><path class="cls-4" d="M508,525.49h-18.4a7.79,7.79,0,0,0,2.06,5,6.24,6.24,0,0,0,4.66,1.84,6.11,6.11,0,0,0,3.67-1,15.19,15.19,0,0,0,3.24-3.9l5,2.79a19.75,19.75,0,0,1-2.45,3.39,13.24,13.24,0,0,1-2.77,2.32,11.34,11.34,0,0,1-3.19,1.33,15.58,15.58,0,0,1-3.72.42,12.1,12.1,0,0,1-9.23-3.69q-3.48-3.72-3.48-9.86a14.22,14.22,0,0,1,3.38-9.86,12.86,12.86,0,0,1,18-.11q3.27,3.58,3.27,9.94ZM502,520.64c-.82-3.17-2.82-4.75-6-4.75a6.13,6.13,0,0,0-2,.33,5.83,5.83,0,0,0-1.73.95,6,6,0,0,0-1.33,1.49,7.09,7.09,0,0,0-.85,2Z"/><path class="cls-4" d="M520.46,492.4v44.53h-5.93V492.4Z"/><path class="cls-4" d="M531.64,511.25l6.65,14.42,6.61-14.42h6.68L538.23,538.7,525,511.25Z"/><path class="cls-4" d="M553.34,523.91a12.78,12.78,0,0,1,4-9.47,14,14,0,0,1,19.46,0,13.75,13.75,0,0,1,0,19.33,13.64,13.64,0,0,1-9.84,3.87,13.09,13.09,0,0,1-9.68-3.95A13.3,13.3,0,0,1,553.34,523.91Zm6.07.1a8.65,8.65,0,0,0,2.05,6.09,8,8,0,0,0,11.13,0,9.65,9.65,0,0,0,0-12,7.25,7.25,0,0,0-5.56-2.27,7.17,7.17,0,0,0-5.51,2.27A8.23,8.23,0,0,0,559.41,524Z"/><path class="cls-4" d="M587,511.25H593v2.37a12.34,12.34,0,0,1,2.92-2.42,7.09,7.09,0,0,1,3.25-.66,7.88,7.88,0,0,1,6.88,3.8,8.9,8.9,0,0,1,7.56-3.8q8.69,0,8.68,10.52v15.87h-6V522.67a11,11,0,0,0-.9-5.22,3.23,3.23,0,0,0-3-1.56,3.88,3.88,0,0,0-3.57,1.85q-1.12,1.85-1.12,5.93v13.26h-6V522.75q0-6.86-4-6.86a4,4,0,0,0-3.65,1.87q-1.14,1.88-1.14,5.91v13.26H587Z"/><path class="cls-4" d="M665.32,492.4h6v44.53h-6v-2.69a11,11,0,0,1-7.93,3.43,11.29,11.29,0,0,1-8.76-3.85,14.33,14.33,0,0,1-3.45-9.81,13.82,13.82,0,0,1,3.45-9.59,11.09,11.09,0,0,1,16.69-.19ZM651.24,524a9,9,0,0,0,2,6,6.48,6.48,0,0,0,5.12,2.34,6.78,6.78,0,0,0,5.32-2.27,9.75,9.75,0,0,0,0-11.91,6.71,6.71,0,0,0-5.27-2.3,6.59,6.59,0,0,0-5.12,2.32A8.58,8.58,0,0,0,651.24,524Z"/><path class="cls-4" d="M702.16,525.49H683.75a7.84,7.84,0,0,0,2.06,5,6.27,6.27,0,0,0,4.67,1.84,6.07,6.07,0,0,0,3.66-1,15.39,15.39,0,0,0,3.25-3.9l5,2.79a20.32,20.32,0,0,1-2.46,3.39,13,13,0,0,1-2.77,2.32,11.1,11.1,0,0,1-3.19,1.33,15.55,15.55,0,0,1-3.71.42A12.08,12.08,0,0,1,681,534q-3.48-3.72-3.48-9.86a14.22,14.22,0,0,1,3.37-9.86,12.87,12.87,0,0,1,18-.11q3.26,3.58,3.26,9.94Zm-6.09-4.85c-.83-3.17-2.82-4.75-6-4.75a6.13,6.13,0,0,0-2,.33,6,6,0,0,0-1.73.95,6.15,6.15,0,0,0-1.33,1.49,6.8,6.8,0,0,0-.84,2Z"/><path class="cls-4" d="M715.24,516.79v20.14H709.3V516.79h-2.53v-5.54h2.53v-9.41h5.94v9.41h4.61v5.54Z"/><path class="cls-4" d="M739.65,500.57a3.88,3.88,0,0,1,3.85-3.82,3.74,3.74,0,0,1,2.74,1.13,3.65,3.65,0,0,1,1.14,2.72,3.71,3.71,0,0,1-1.14,2.74,3.62,3.62,0,0,1-2.71,1.14,3.89,3.89,0,0,1-3.88-3.91Zm6.83,10.68v25.68h-5.93V511.25Z"/><path class="cls-4" d="M759.93,492.4v27.16l8.36-8.31h8L765.1,522l12,14.89h-7.7l-8.49-10.83-1,.95v9.88H754V492.4Z"/><path class="cls-4" d="M786.82,492.4v27.16l8.36-8.31h8L792,522l12,14.89h-7.7l-8.49-10.83-.95.95v9.88h-5.93V492.4Z"/><path class="cls-4" d="M830.3,525.49H811.9a7.79,7.79,0,0,0,2.06,5,6.24,6.24,0,0,0,4.66,1.84,6.11,6.11,0,0,0,3.67-1,15.19,15.19,0,0,0,3.24-3.9l5,2.79a19.75,19.75,0,0,1-2.45,3.39,13.24,13.24,0,0,1-2.77,2.32,11.34,11.34,0,0,1-3.19,1.33,15.58,15.58,0,0,1-3.72.42,12.1,12.1,0,0,1-9.23-3.69q-3.48-3.72-3.48-9.86a14.22,14.22,0,0,1,3.38-9.86,12.86,12.86,0,0,1,18-.11q3.27,3.58,3.27,9.94Zm-6.09-4.85c-.82-3.17-2.82-4.75-6-4.75a6.13,6.13,0,0,0-2,.33,5.83,5.83,0,0,0-1.73.95,6,6,0,0,0-1.33,1.49,7.09,7.09,0,0,0-.85,2Z"/><path class="cls-4" d="M876.84,525.49h-18.4a7.78,7.78,0,0,0,2,5,6.28,6.28,0,0,0,4.67,1.84,6.11,6.11,0,0,0,3.67-1,15.39,15.39,0,0,0,3.24-3.9l5,2.79a20.3,20.3,0,0,1-2.45,3.39,13.5,13.5,0,0,1-2.77,2.32,11.34,11.34,0,0,1-3.19,1.33,15.7,15.7,0,0,1-3.72.42,12.1,12.1,0,0,1-9.23-3.69q-3.48-3.72-3.48-9.86a14.17,14.17,0,0,1,3.38-9.86,12.86,12.86,0,0,1,18-.11q3.27,3.58,3.27,9.94Zm-6.09-4.85c-.83-3.17-2.82-4.75-6-4.75a6.17,6.17,0,0,0-2,.33,5.9,5.9,0,0,0-1.72.95,5.76,5.76,0,0,0-1.33,1.49,7.09,7.09,0,0,0-.85,2Z"/><path class="cls-4" d="M883.33,511.25h5.93v2.3a11.22,11.22,0,0,1,2.9-2.35,6.64,6.64,0,0,1,3.06-.66,9.56,9.56,0,0,1,4.9,1.53l-2.71,5.43a5.68,5.68,0,0,0-3.3-1.21q-4.85,0-4.85,7.33v13.31h-5.93Z"/><path class="cls-4" d="M939.12,492.4h6v44.53h-6v-2.69a11.05,11.05,0,0,1-7.94,3.43,11.29,11.29,0,0,1-8.75-3.85A14.33,14.33,0,0,1,919,524a13.82,13.82,0,0,1,3.45-9.59,11.09,11.09,0,0,1,16.69-.19ZM925,524a9,9,0,0,0,2,6,6.48,6.48,0,0,0,5.11,2.34,6.8,6.8,0,0,0,5.33-2.27,9.75,9.75,0,0,0,0-11.91,6.72,6.72,0,0,0-5.27-2.3,6.59,6.59,0,0,0-5.12,2.32A8.58,8.58,0,0,0,925,524Z"/><path class="cls-4" d="M951.67,500.57a3.86,3.86,0,0,1,6.59-2.69,3.65,3.65,0,0,1,1.14,2.72,3.71,3.71,0,0,1-1.14,2.74,3.63,3.63,0,0,1-2.71,1.14,3.74,3.74,0,0,1-2.75-1.14A3.78,3.78,0,0,1,951.67,500.57Zm6.83,10.68v25.68h-5.93V511.25Z"/><path class="cls-4" d="M990.85,536.33c0,1.21,0,2.28-.12,3.2a22.64,22.64,0,0,1-.33,2.44,10.85,10.85,0,0,1-2.47,5,12,12,0,0,1-9.58,4,12.77,12.77,0,0,1-8.46-2.77,11.32,11.32,0,0,1-3.95-7.88h5.95a6.8,6.8,0,0,0,1.14,2.93,6.39,6.39,0,0,0,5.38,2.39q6.51,0,6.51-8v-3.59a11.08,11.08,0,0,1-8.15,3.61,10.92,10.92,0,0,1-8.59-3.79,14.1,14.1,0,0,1-3.38-9.63,14.82,14.82,0,0,1,3.14-9.54,10.9,10.9,0,0,1,8.91-4.17,10.33,10.33,0,0,1,8.07,3.61v-2.9h5.93Zm-5.69-12.18a8.63,8.63,0,0,0-2-6,6.6,6.6,0,0,0-5.19-2.29,6.39,6.39,0,0,0-5.33,2.5,9.15,9.15,0,0,0-1.76,5.8,9,9,0,0,0,1.76,5.75,6.42,6.42,0,0,0,5.33,2.45,6.49,6.49,0,0,0,5.38-2.48A8.83,8.83,0,0,0,985.16,524.15Z"/><path class="cls-4" d="M1033.94,492.4h6v44.53h-6v-2.69a11.07,11.07,0,0,1-7.94,3.43,11.27,11.27,0,0,1-8.75-3.85,14.29,14.29,0,0,1-3.46-9.81,13.78,13.78,0,0,1,3.46-9.59,11.09,11.09,0,0,1,16.69-.19ZM1019.86,524a9,9,0,0,0,2,6,6.5,6.5,0,0,0,5.12,2.34,6.8,6.8,0,0,0,5.33-2.27,9.75,9.75,0,0,0,0-11.91,6.74,6.74,0,0,0-5.28-2.3,6.57,6.57,0,0,0-5.11,2.32A8.53,8.53,0,0,0,1019.86,524Z"/><path class="cls-4" d="M1070.77,525.49h-18.4a7.83,7.83,0,0,0,2.05,5,6.28,6.28,0,0,0,4.67,1.84,6.11,6.11,0,0,0,3.67-1,15.19,15.19,0,0,0,3.24-3.9l5,2.79a19.75,19.75,0,0,1-2.45,3.39,13.24,13.24,0,0,1-2.77,2.32,11.34,11.34,0,0,1-3.19,1.33,15.58,15.58,0,0,1-3.72.42,12.1,12.1,0,0,1-9.23-3.69q-3.48-3.72-3.48-9.86a14.22,14.22,0,0,1,3.38-9.86,12.86,12.86,0,0,1,18-.11q3.27,3.58,3.27,9.94Zm-6.09-4.85q-1.25-4.75-6-4.75a6.09,6.09,0,0,0-2,.33,5.83,5.83,0,0,0-1.73.95,6,6,0,0,0-1.33,1.49,7.09,7.09,0,0,0-.85,2Z"/><path class="cls-4" d="M1077.26,511.25h5.93v2.3a11.22,11.22,0,0,1,2.9-2.35,6.64,6.64,0,0,1,3.06-.66,9.56,9.56,0,0,1,4.9,1.53l-2.71,5.43a5.68,5.68,0,0,0-3.3-1.21q-4.85,0-4.85,7.33v13.31h-5.93Z"/><path class="cls-4" d="M1129,515.63l-4.9,2.61q-1.16-2.37-2.88-2.37a2,2,0,0,0-1.39.54,1.79,1.79,0,0,0-.58,1.38c0,1,1.14,2,3.42,2.93q4.72,2,6.36,3.74a6.4,6.4,0,0,1,1.63,4.62,8.08,8.08,0,0,1-2.74,6.22,9.33,9.33,0,0,1-6.43,2.37q-6.46,0-9.15-6.3l5.06-2.35a10.81,10.81,0,0,0,1.61,2.35,3.65,3.65,0,0,0,2.58,1c2,0,3-.91,3-2.74,0-1-.77-2-2.32-3l-1.79-.87-1.82-.87a11.18,11.18,0,0,1-3.64-2.53,6.25,6.25,0,0,1-1.35-4.14,7.32,7.32,0,0,1,2.3-5.54,8,8,0,0,1,5.69-2.19Q1126.65,510.54,1129,515.63Z"/><path class="cls-4" d="M1142.15,516.79v20.14h-5.94V516.79h-2.53v-5.54h2.53v-9.41h5.94v9.41h4.61v5.54Z"/><path class="cls-4" d="M1170.2,511.25h6v25.68h-6v-2.69a11.39,11.39,0,0,1-16.69-.42,14.33,14.33,0,0,1-3.45-9.81,13.88,13.88,0,0,1,3.45-9.62,11.13,11.13,0,0,1,8.65-3.85,10.91,10.91,0,0,1,8,3.69ZM1156.12,524a9,9,0,0,0,2,6,6.48,6.48,0,0,0,5.11,2.34,6.78,6.78,0,0,0,5.33-2.27,9.75,9.75,0,0,0,0-11.91,6.71,6.71,0,0,0-5.27-2.3,6.59,6.59,0,0,0-5.12,2.32A8.58,8.58,0,0,0,1156.12,524Z"/><path class="cls-4" d="M1183.65,511.25h5.93v2.3a11.22,11.22,0,0,1,2.9-2.35,6.64,6.64,0,0,1,3.06-.66,9.6,9.6,0,0,1,4.91,1.53l-2.72,5.43a5.65,5.65,0,0,0-3.3-1.21q-4.85,0-4.85,7.33v13.31h-5.93Z"/><path class="cls-4" d="M1211.92,516.79v20.14H1206V516.79h-2.53v-5.54H1206v-9.41h5.94v9.41h4.61v5.54Z"/><path class="cls-4" d="M1244.43,525.49H1226a7.84,7.84,0,0,0,2.06,5,6.27,6.27,0,0,0,4.67,1.84,6.09,6.09,0,0,0,3.66-1,15.19,15.19,0,0,0,3.24-3.9l5,2.79a19.75,19.75,0,0,1-2.45,3.39,13,13,0,0,1-2.77,2.32,11.22,11.22,0,0,1-3.19,1.33,15.58,15.58,0,0,1-3.72.42,12.07,12.07,0,0,1-9.22-3.69q-3.48-3.72-3.48-9.86a14.22,14.22,0,0,1,3.37-9.86,11.63,11.63,0,0,1,9-3.72,11.5,11.5,0,0,1,9,3.61q3.27,3.58,3.27,9.94Zm-6.1-4.85c-.82-3.17-2.82-4.75-6-4.75a6.13,6.13,0,0,0-2,.33,5.87,5.87,0,0,0-3.06,2.44,6.8,6.8,0,0,0-.84,2Z"/><path class="cls-4" d="M1269.84,492.4h6v44.53h-6v-2.69a11,11,0,0,1-7.93,3.43,11.29,11.29,0,0,1-8.76-3.85,14.33,14.33,0,0,1-3.45-9.81,13.82,13.82,0,0,1,3.45-9.59,11.09,11.09,0,0,1,16.69-.19ZM1255.76,524a9,9,0,0,0,2,6,6.48,6.48,0,0,0,5.12,2.34,6.78,6.78,0,0,0,5.32-2.27,9.75,9.75,0,0,0,0-11.91,6.71,6.71,0,0,0-5.27-2.3,6.6,6.6,0,0,0-5.12,2.32A8.58,8.58,0,0,0,1255.76,524Z"/><path class="cls-4" d="M1306.68,525.49h-18.41a7.84,7.84,0,0,0,2.06,5,6.27,6.27,0,0,0,4.67,1.84,6.07,6.07,0,0,0,3.66-1,15.39,15.39,0,0,0,3.25-3.9l5,2.79a19.77,19.77,0,0,1-2.46,3.39,13.19,13.19,0,0,1-2.76,2.32,11.28,11.28,0,0,1-3.2,1.33,15.55,15.55,0,0,1-3.71.42,12.1,12.1,0,0,1-9.23-3.69q-3.48-3.72-3.48-9.86a14.22,14.22,0,0,1,3.37-9.86,12.87,12.87,0,0,1,18-.11q3.27,3.58,3.27,9.94Zm-6.09-4.85c-.83-3.17-2.82-4.75-6-4.75a6.17,6.17,0,0,0-2,.33,5.78,5.78,0,0,0-1.72.95,6,6,0,0,0-1.34,1.49,6.8,6.8,0,0,0-.84,2Z"/><path class="cls-4" d="M1329.83,511.25h5.93v2.37a12.35,12.35,0,0,1,2.93-2.42,7.08,7.08,0,0,1,3.24-.66,7.87,7.87,0,0,1,6.88,3.8,8.93,8.93,0,0,1,7.57-3.8q8.67,0,8.68,10.52v15.87h-6V522.67a11,11,0,0,0-.9-5.22,3.26,3.26,0,0,0-3-1.56,3.88,3.88,0,0,0-3.58,1.85c-.74,1.23-1.12,3.21-1.12,5.93v13.26h-6V522.75q0-6.86-4-6.86a4,4,0,0,0-3.65,1.87q-1.15,1.88-1.15,5.91v13.26h-5.93Z"/><path class="cls-4" d="M1395.93,525.49h-18.4a7.83,7.83,0,0,0,2,5,6.28,6.28,0,0,0,4.67,1.84,6.11,6.11,0,0,0,3.67-1,15.19,15.19,0,0,0,3.24-3.9l5,2.79a19.75,19.75,0,0,1-2.45,3.39,13.24,13.24,0,0,1-2.77,2.32,11.34,11.34,0,0,1-3.19,1.33,15.58,15.58,0,0,1-3.72.42,12.1,12.1,0,0,1-9.23-3.69q-3.48-3.72-3.48-9.86a14.22,14.22,0,0,1,3.38-9.86,12.86,12.86,0,0,1,18-.11q3.27,3.58,3.27,9.94Zm-6.09-4.85q-1.24-4.75-6-4.75a6.09,6.09,0,0,0-2,.33,5.83,5.83,0,0,0-1.73.95,6,6,0,0,0-1.33,1.49,7.09,7.09,0,0,0-.85,2Z"/><path class="cls-4" d="M1421.35,492.4h6v44.53h-6v-2.69a11.05,11.05,0,0,1-7.94,3.43,11.29,11.29,0,0,1-8.75-3.85,14.33,14.33,0,0,1-3.45-9.81,13.82,13.82,0,0,1,3.45-9.59,11.09,11.09,0,0,1,16.69-.19ZM1407.27,524a9,9,0,0,0,2,6,6.48,6.48,0,0,0,5.11,2.34,6.8,6.8,0,0,0,5.33-2.27,9.75,9.75,0,0,0,0-11.91,6.72,6.72,0,0,0-5.27-2.3,6.59,6.59,0,0,0-5.12,2.32A8.58,8.58,0,0,0,1407.27,524Z"/><path class="cls-4" d="M1470.39,511.25h6v25.68h-6v-2.69a11.39,11.39,0,0,1-16.69-.42,14.33,14.33,0,0,1-3.45-9.81,13.88,13.88,0,0,1,3.45-9.62,11.13,11.13,0,0,1,8.65-3.85,10.91,10.91,0,0,1,8,3.69ZM1456.31,524a9,9,0,0,0,2,6,6.48,6.48,0,0,0,5.12,2.34,6.78,6.78,0,0,0,5.32-2.27,9.75,9.75,0,0,0,0-11.91,6.71,6.71,0,0,0-5.27-2.3,6.59,6.59,0,0,0-5.12,2.32A8.58,8.58,0,0,0,1456.31,524Z"/><path class="cls-4" d="M1490,516.79v20.14H1484V516.79h-2.53v-5.54H1484v-9.41H1490v9.41h4.61v5.54Z"/><path class="cls-4" d="M477.67,580.43,472.76,583c-.77-1.58-1.73-2.37-2.87-2.37a2,2,0,0,0-1.4.54,1.83,1.83,0,0,0-.58,1.38c0,1,1.14,2,3.43,2.93,3.15,1.35,5.26,2.6,6.35,3.74a6.41,6.41,0,0,1,1.64,4.62,8.08,8.08,0,0,1-2.74,6.22,9.35,9.35,0,0,1-6.44,2.37q-6.45,0-9.15-6.3l5.07-2.35a11.27,11.27,0,0,0,1.6,2.35,3.69,3.69,0,0,0,2.59,1c2,0,3-.91,3-2.74,0-1-.77-2-2.32-2.95-.59-.3-1.19-.59-1.79-.87l-1.82-.87a11.41,11.41,0,0,1-3.64-2.53,6.3,6.3,0,0,1-1.34-4.14,7.32,7.32,0,0,1,2.29-5.54,8.07,8.07,0,0,1,5.7-2.19Q475.26,575.34,477.67,580.43Z"/><path class="cls-4" d="M508,590.29h-18.4a7.79,7.79,0,0,0,2.06,5,6.24,6.24,0,0,0,4.66,1.84,6.11,6.11,0,0,0,3.67-1,15.09,15.09,0,0,0,3.24-3.91l5,2.8a19.75,19.75,0,0,1-2.45,3.39,13.24,13.24,0,0,1-2.77,2.32,11.06,11.06,0,0,1-3.19,1.33,15.58,15.58,0,0,1-3.72.42,12.1,12.1,0,0,1-9.23-3.69q-3.48-3.72-3.48-9.86a14.22,14.22,0,0,1,3.38-9.86,12.86,12.86,0,0,1,18-.11q3.27,3.59,3.27,9.94ZM502,585.44c-.82-3.17-2.82-4.75-6-4.75a6.13,6.13,0,0,0-2,.33,5.83,5.83,0,0,0-1.73,1,6,6,0,0,0-1.33,1.49,7.09,7.09,0,0,0-.85,2Z"/><path class="cls-4" d="M514.53,576.05h6v2.37a9.73,9.73,0,0,1,7-3.08,8.86,8.86,0,0,1,7,2.82q2.16,2.4,2.16,7.83v15.74h-6V587.39q0-3.79-1.05-5.25t-3.75-1.47a4.58,4.58,0,0,0-4.19,2q-1.22,1.92-1.21,6.72v12.39h-6Z"/><path class="cls-4" d="M563.07,557.2h6v44.53h-6V599a11.05,11.05,0,0,1-7.94,3.43,11.29,11.29,0,0,1-8.75-3.85,14.33,14.33,0,0,1-3.45-9.81,13.82,13.82,0,0,1,3.45-9.59,11.09,11.09,0,0,1,16.69-.19ZM549,588.81a9,9,0,0,0,2,6,6.48,6.48,0,0,0,5.11,2.34,6.78,6.78,0,0,0,5.33-2.27,9.75,9.75,0,0,0,0-11.91,6.71,6.71,0,0,0-5.27-2.3A6.59,6.59,0,0,0,551,583,8.58,8.58,0,0,0,549,588.81Z"/><path class="cls-4" d="M599.91,590.29H581.5a7.84,7.84,0,0,0,2.06,5,6.27,6.27,0,0,0,4.67,1.84,6.09,6.09,0,0,0,3.66-1,15.09,15.09,0,0,0,3.24-3.91l5,2.8a19.75,19.75,0,0,1-2.45,3.39,13,13,0,0,1-2.77,2.32,10.83,10.83,0,0,1-3.19,1.33,15.58,15.58,0,0,1-3.72.42,12.07,12.07,0,0,1-9.22-3.69q-3.48-3.72-3.48-9.86a14.22,14.22,0,0,1,3.37-9.86,11.63,11.63,0,0,1,9-3.72,11.5,11.5,0,0,1,9,3.61q3.27,3.59,3.27,9.94Zm-6.09-4.85q-1.25-4.76-6-4.75a6.13,6.13,0,0,0-2,.33,5.87,5.87,0,0,0-3.06,2.44,6.8,6.8,0,0,0-.84,2Z"/><path class="cls-4" d="M642,557.2h6v44.53h-6V599a11.07,11.07,0,0,1-7.94,3.43,11.29,11.29,0,0,1-8.75-3.85,14.29,14.29,0,0,1-3.46-9.81,13.78,13.78,0,0,1,3.46-9.59A11.09,11.09,0,0,1,642,579Zm-14.08,31.61a9,9,0,0,0,2,6,6.46,6.46,0,0,0,5.11,2.34,6.8,6.8,0,0,0,5.33-2.27,9.75,9.75,0,0,0,0-11.91,6.73,6.73,0,0,0-5.28-2.3,6.57,6.57,0,0,0-5.11,2.32A8.53,8.53,0,0,0,627.91,588.81Z"/><path class="cls-4" d="M678.82,590.29h-18.4a7.79,7.79,0,0,0,2.06,5,6.24,6.24,0,0,0,4.66,1.84,6.11,6.11,0,0,0,3.67-1,15.09,15.09,0,0,0,3.24-3.91l5,2.8a19.75,19.75,0,0,1-2.45,3.39,13.24,13.24,0,0,1-2.77,2.32,11.06,11.06,0,0,1-3.19,1.33,15.58,15.58,0,0,1-3.72.42,12.1,12.1,0,0,1-9.23-3.69q-3.48-3.72-3.48-9.86a14.22,14.22,0,0,1,3.38-9.86,12.86,12.86,0,0,1,18-.11q3.27,3.59,3.27,9.94Zm-6.09-4.85c-.82-3.17-2.82-4.75-6-4.75a6.13,6.13,0,0,0-2,.33,5.83,5.83,0,0,0-1.73,1,6,6,0,0,0-1.33,1.49,7.09,7.09,0,0,0-.85,2Z"/><path class="cls-4" d="M691.9,581.59v20.14H686V581.59h-2.53v-5.54H686v-9.41h5.93v9.41h4.62v5.54Z"/><path class="cls-4" d="M701.47,598.78a3.67,3.67,0,0,1,7.33,0,3.56,3.56,0,0,1-1.08,2.61,3.51,3.51,0,0,1-2.58,1.05,3.54,3.54,0,0,1-2.61-1.05A3.58,3.58,0,0,1,701.47,598.78Z"/><path class="cls-4" d="M470,706.55h17.56V690.62h6.15v40.71h-6.15v-19H470v19h-6.14V690.62H470Z"/><path class="cls-4" d="M505.54,705.65l6.64,14.42,6.62-14.42h6.67L512.13,733.1l-13.24-27.45Z"/><path class="cls-4" d="M528.58,695a3.88,3.88,0,0,1,3.85-3.82,3.74,3.74,0,0,1,2.74,1.13,3.65,3.65,0,0,1,1.14,2.72,3.71,3.71,0,0,1-1.14,2.74,3.62,3.62,0,0,1-2.71,1.14,3.89,3.89,0,0,1-3.88-3.91Zm6.83,10.68v25.68h-5.93V705.65Z"/><path class="cls-4" d="M557.85,710l-4.9,2.61q-1.17-2.37-2.88-2.37a2,2,0,0,0-1.4.54,1.83,1.83,0,0,0-.58,1.38c0,1,1.15,2,3.43,2.93q4.72,2,6.36,3.74a6.4,6.4,0,0,1,1.63,4.62,8.08,8.08,0,0,1-2.74,6.22,9.35,9.35,0,0,1-6.43,2.37q-6.47,0-9.15-6.3l5.06-2.35a10.81,10.81,0,0,0,1.61,2.35,3.65,3.65,0,0,0,2.58,1c2,0,3-.91,3-2.74,0-1.06-.78-2-2.32-2.95q-.9-.45-1.8-.87l-1.82-.87a11.08,11.08,0,0,1-3.63-2.54,6.2,6.2,0,0,1-1.35-4.13,7.32,7.32,0,0,1,2.3-5.54,8,8,0,0,1,5.69-2.19Q555.45,704.94,557.85,710Z"/><path class="cls-4" d="M587.43,745.31H581.5V705.65h5.93v2.8a11.26,11.26,0,0,1,16.69.39,14.07,14.07,0,0,1,3.49,9.78,13.91,13.91,0,0,1-3.46,9.63,11.26,11.26,0,0,1-16.72.21Zm14.11-26.66a8.9,8.9,0,0,0-2-6,6.48,6.48,0,0,0-5.12-2.35,6.8,6.8,0,0,0-5.3,2.27,8.61,8.61,0,0,0-2,6,8.81,8.81,0,0,0,2,6,6.68,6.68,0,0,0,5.28,2.29,6.4,6.4,0,0,0,5.08-2.32A8.39,8.39,0,0,0,601.54,718.65Z"/><path class="cls-4" d="M637.27,719.89H618.86a7.84,7.84,0,0,0,2.06,5,6.27,6.27,0,0,0,4.67,1.84,6.07,6.07,0,0,0,3.66-1,15.29,15.29,0,0,0,3.25-3.91l5,2.8a20.32,20.32,0,0,1-2.46,3.39,13.19,13.19,0,0,1-2.76,2.32,11.28,11.28,0,0,1-3.2,1.33,15.55,15.55,0,0,1-3.71.42,12.08,12.08,0,0,1-9.23-3.69q-3.48-3.72-3.48-9.86a14.22,14.22,0,0,1,3.37-9.86,12.87,12.87,0,0,1,18-.11q3.26,3.59,3.26,9.94ZM631.18,715c-.83-3.17-2.82-4.75-6-4.75a6.13,6.13,0,0,0-2,.33,5.78,5.78,0,0,0-1.72,1,6,6,0,0,0-1.34,1.49,6.8,6.8,0,0,0-.84,2Z"/><path class="cls-4" d="M643.75,705.65h5.94V708a11.05,11.05,0,0,1,2.9-2.35,6.64,6.64,0,0,1,3.06-.66,9.56,9.56,0,0,1,4.9,1.53l-2.72,5.43a5.63,5.63,0,0,0-3.29-1.21q-4.86,0-4.85,7.33v13.31h-5.94Z"/><path class="cls-4" d="M678.88,710,674,712.64c-.77-1.58-1.73-2.37-2.87-2.37a2,2,0,0,0-1.4.54,1.79,1.79,0,0,0-.58,1.38q0,1.47,3.43,2.93,4.71,2,6.35,3.74a6.41,6.41,0,0,1,1.64,4.62,8.09,8.09,0,0,1-2.75,6.22,9.31,9.31,0,0,1-6.43,2.37q-6.47,0-9.15-6.3l5.06-2.35a11.18,11.18,0,0,0,1.61,2.35,3.66,3.66,0,0,0,2.59,1c2,0,3-.91,3-2.74,0-1.06-.77-2-2.32-2.95-.6-.3-1.19-.59-1.79-.87l-1.82-.87a11.14,11.14,0,0,1-3.64-2.54,6.2,6.2,0,0,1-1.34-4.13,7.32,7.32,0,0,1,2.29-5.54,8.05,8.05,0,0,1,5.7-2.19Q676.47,704.94,678.88,710Z"/><path class="cls-4" d="M684.65,718.31a12.78,12.78,0,0,1,4-9.47,14,14,0,0,1,19.46,0,13.74,13.74,0,0,1,0,19.33,13.61,13.61,0,0,1-9.83,3.87,13.08,13.08,0,0,1-9.68-4A13.32,13.32,0,0,1,684.65,718.31Zm6.06.1a8.65,8.65,0,0,0,2.06,6.09,8,8,0,0,0,11.13,0,9.65,9.65,0,0,0,0-12,7.9,7.9,0,0,0-11.08,0A8.27,8.27,0,0,0,690.71,718.41Z"/><path class="cls-4" d="M718.32,705.65h6V708a9.73,9.73,0,0,1,7-3.08,8.86,8.86,0,0,1,7,2.82q2.16,2.4,2.16,7.83v15.74h-6V717q0-3.79-1.05-5.25c-.69-1-1.93-1.47-3.74-1.47a4.6,4.6,0,0,0-4.2,2q-1.22,1.92-1.21,6.72v12.39h-6Z"/><path class="cls-4" d="M771.32,719.89h-18.4a7.78,7.78,0,0,0,2.05,5,6.27,6.27,0,0,0,4.67,1.84,6.05,6.05,0,0,0,3.66-1,15.29,15.29,0,0,0,3.25-3.91l5,2.8A19.77,19.77,0,0,1,769.1,728a13.19,13.19,0,0,1-2.76,2.32,11.34,11.34,0,0,1-3.19,1.33,15.7,15.7,0,0,1-3.72.42,12.1,12.1,0,0,1-9.23-3.69q-3.48-3.72-3.48-9.86a14.22,14.22,0,0,1,3.37-9.86,12.87,12.87,0,0,1,18-.11q3.27,3.59,3.27,9.94ZM765.23,715c-.83-3.17-2.82-4.75-6-4.75a6.17,6.17,0,0,0-2,.33,5.78,5.78,0,0,0-1.72,1,6,6,0,0,0-1.34,1.49,7.08,7.08,0,0,0-.84,2Z"/><path class="cls-4" d="M777.81,705.65h6V708a9.77,9.77,0,0,1,7-3.08,8.86,8.86,0,0,1,7,2.82q2.16,2.4,2.16,7.83v15.74h-6V717q0-3.79-1.06-5.25c-.68-1-1.93-1.47-3.74-1.47a4.57,4.57,0,0,0-4.19,2q-1.22,1.92-1.22,6.72v12.39h-6Z"/><path class="cls-4" d="M830,745.31h-5.93V705.65H830v2.8a11,11,0,0,1,8-3.51,11.09,11.09,0,0,1,8.72,3.9,14.11,14.11,0,0,1,3.48,9.78,13.91,13.91,0,0,1-3.45,9.63,11.26,11.26,0,0,1-16.72.21Zm14.11-26.66a8.9,8.9,0,0,0-2-6,6.48,6.48,0,0,0-5.12-2.35,6.78,6.78,0,0,0-5.3,2.27,8.61,8.61,0,0,0-2,6,8.81,8.81,0,0,0,2,6,6.66,6.66,0,0,0,5.27,2.29,6.41,6.41,0,0,0,5.09-2.32A8.44,8.44,0,0,0,844.12,718.65Z"/><path class="cls-4" d="M875.39,705.65h6v25.68h-6v-2.69a11.39,11.39,0,0,1-16.69-.42,14.33,14.33,0,0,1-3.45-9.81,13.88,13.88,0,0,1,3.45-9.62,11.13,11.13,0,0,1,8.65-3.85,10.91,10.91,0,0,1,8,3.69Zm-14.08,12.76a8.92,8.92,0,0,0,2,6,6.46,6.46,0,0,0,5.11,2.35,6.78,6.78,0,0,0,5.33-2.27,9.75,9.75,0,0,0,0-11.91,6.71,6.71,0,0,0-5.27-2.3,6.59,6.59,0,0,0-5.12,2.32A8.58,8.58,0,0,0,861.31,718.41Zm2-22.54a5.37,5.37,0,0,1,1.69-4,5.73,5.73,0,1,1,4.06,9.81A5.6,5.6,0,0,1,865,700,5.68,5.68,0,0,1,863.34,695.87Zm3.14,0a2.56,2.56,0,0,0,.75,1.89,2.62,2.62,0,1,0,.83-4.26,2.67,2.67,0,0,0-.83.57,2.62,2.62,0,0,0-.75,1.8Z"/><path class="cls-4" d="M911.43,686.8v21.83a11.12,11.12,0,0,1,16.72.19,13.83,13.83,0,0,1,3.46,9.59,14.08,14.08,0,0,1-3.49,9.81,11.39,11.39,0,0,1-16.69.42v2.69H905.5V686.8Zm14.11,31.88a8.88,8.88,0,0,0-2-6,6.41,6.41,0,0,0-5.09-2.38,6.83,6.83,0,0,0-5.33,2.3,8.53,8.53,0,0,0-2,5.9,8.64,8.64,0,0,0,2,6,6.64,6.64,0,0,0,5.27,2.29,6.51,6.51,0,0,0,5.11-2.29A8.39,8.39,0,0,0,925.54,718.68Z"/><path class="cls-4" d="M937,695a3.88,3.88,0,0,1,3.85-3.82,3.77,3.77,0,0,1,2.75,1.13,3.68,3.68,0,0,1,1.13,2.72,3.74,3.74,0,0,1-1.13,2.74,3.65,3.65,0,0,1-2.72,1.14A3.89,3.89,0,0,1,937,695Zm6.83,10.68v25.68h-5.93V705.65Z"/><path class="cls-4" d="M957.26,686.8v44.53h-5.93V686.8Z"/><path class="cls-4" d="M970.71,686.8v44.53h-5.93V686.8Z"/><path class="cls-4" d="M1001.61,719.89h-18.4a7.78,7.78,0,0,0,2,5,6.28,6.28,0,0,0,4.67,1.84,6.05,6.05,0,0,0,3.66-1,15.29,15.29,0,0,0,3.25-3.91l5,2.8A20.3,20.3,0,0,1,999.4,728a13.5,13.5,0,0,1-2.77,2.32,11.34,11.34,0,0,1-3.19,1.33,15.7,15.7,0,0,1-3.72.42,12.1,12.1,0,0,1-9.23-3.69q-3.48-3.72-3.48-9.86a14.22,14.22,0,0,1,3.37-9.86,12.87,12.87,0,0,1,18-.11q3.27,3.59,3.27,9.94ZM995.52,715c-.83-3.17-2.82-4.75-6-4.75a6.17,6.17,0,0,0-2,.33,5.9,5.9,0,0,0-3,2.44,6.81,6.81,0,0,0-.85,2Z"/><path class="cls-4" d="M1027,686.8h6v44.53h-6v-2.69a11.07,11.07,0,0,1-7.94,3.43,11.29,11.29,0,0,1-8.75-3.85,14.34,14.34,0,0,1-3.46-9.81,13.83,13.83,0,0,1,3.46-9.59,11.09,11.09,0,0,1,16.69-.19ZM1013,718.41a8.92,8.92,0,0,0,2,6,6.44,6.44,0,0,0,5.11,2.35,6.8,6.8,0,0,0,5.33-2.27,9.75,9.75,0,0,0,0-11.91,6.73,6.73,0,0,0-5.28-2.3,6.57,6.57,0,0,0-5.11,2.32A8.53,8.53,0,0,0,1013,718.41Z"/><path class="cls-4" d="M1063.86,719.89h-18.4a7.79,7.79,0,0,0,2.06,5,6.24,6.24,0,0,0,4.66,1.84,6.11,6.11,0,0,0,3.67-1,15.09,15.09,0,0,0,3.24-3.91l5,2.8a19.75,19.75,0,0,1-2.45,3.39,13.24,13.24,0,0,1-2.77,2.32,11.22,11.22,0,0,1-3.19,1.33,15.58,15.58,0,0,1-3.72.42,12.1,12.1,0,0,1-9.23-3.69q-3.48-3.72-3.48-9.86a14.22,14.22,0,0,1,3.38-9.86,12.86,12.86,0,0,1,18-.11q3.27,3.59,3.27,9.94Zm-6.09-4.85c-.82-3.17-2.82-4.75-6-4.75a6.13,6.13,0,0,0-2,.33,5.83,5.83,0,0,0-1.73,1,6,6,0,0,0-1.33,1.49,7.09,7.09,0,0,0-.85,2Z"/><path class="cls-4" d="M1076.94,711.19v20.14H1071V711.19h-2.53v-5.54H1071v-9.41h5.93v9.41h4.62v5.54Z"/><path class="cls-4" d="M1125.64,719.89h-18.4a7.83,7.83,0,0,0,2,5,6.28,6.28,0,0,0,4.67,1.84,6.11,6.11,0,0,0,3.67-1,15.09,15.09,0,0,0,3.24-3.91l5,2.8a19.75,19.75,0,0,1-2.45,3.39,13.24,13.24,0,0,1-2.77,2.32,11.34,11.34,0,0,1-3.19,1.33,15.58,15.58,0,0,1-3.72.42,12.1,12.1,0,0,1-9.23-3.69q-3.48-3.72-3.48-9.86a14.22,14.22,0,0,1,3.38-9.86,12.86,12.86,0,0,1,18-.11q3.27,3.59,3.27,9.94Zm-6.09-4.85q-1.24-4.75-6-4.75a6.09,6.09,0,0,0-2,.33,5.83,5.83,0,0,0-1.73,1,6,6,0,0,0-1.33,1.49,7.09,7.09,0,0,0-.85,2Z"/><path class="cls-4" d="M1132.13,705.65h5.93V708a11.22,11.22,0,0,1,2.9-2.35,6.64,6.64,0,0,1,3.06-.66,9.56,9.56,0,0,1,4.9,1.53l-2.71,5.43a5.68,5.68,0,0,0-3.3-1.21q-4.85,0-4.85,7.33v13.31h-5.93Z"/><path class="cls-4" d="M1174.92,705.65v14.74q0,6.38,5,6.38c3.36,0,5-2.13,5-6.38V705.65h5.94v14.87a16.57,16.57,0,0,1-.77,5.33,8.88,8.88,0,0,1-2.56,3.61,12.46,12.46,0,0,1-15.26,0,9.12,9.12,0,0,1-2.61-3.61,14.75,14.75,0,0,1-.74-5.33V705.65Z"/><path class="cls-4" d="M1198.42,705.65h5.95V708a9.77,9.77,0,0,1,7-3.08,8.86,8.86,0,0,1,7,2.82q2.16,2.4,2.16,7.83v15.74h-6V717q0-3.79-1.06-5.25c-.68-1-1.93-1.47-3.74-1.47a4.57,4.57,0,0,0-4.19,2q-1.21,1.92-1.22,6.72v12.39h-5.95Z"/><path class="cls-4" d="M1247,686.8h6v44.53h-6v-2.69a11.07,11.07,0,0,1-7.94,3.43,11.27,11.27,0,0,1-8.75-3.85,14.29,14.29,0,0,1-3.46-9.81,13.78,13.78,0,0,1,3.46-9.59,11.09,11.09,0,0,1,16.69-.19Zm-14.08,31.61a9,9,0,0,0,2,6,6.48,6.48,0,0,0,5.12,2.35,6.8,6.8,0,0,0,5.33-2.27,9.75,9.75,0,0,0,0-11.91,6.74,6.74,0,0,0-5.28-2.3,6.57,6.57,0,0,0-5.11,2.32A8.53,8.53,0,0,0,1232.88,718.41Z"/><path class="cls-4" d="M1283.79,719.89h-18.4a7.83,7.83,0,0,0,2,5,6.28,6.28,0,0,0,4.67,1.84,6.11,6.11,0,0,0,3.67-1,15.09,15.09,0,0,0,3.24-3.91l5,2.8a19.75,19.75,0,0,1-2.45,3.39,13.24,13.24,0,0,1-2.77,2.32,11.34,11.34,0,0,1-3.19,1.33,15.58,15.58,0,0,1-3.72.42,12.1,12.1,0,0,1-9.23-3.69q-3.48-3.72-3.48-9.86a14.22,14.22,0,0,1,3.38-9.86,12.86,12.86,0,0,1,18-.11q3.27,3.59,3.27,9.94ZM1277.7,715c-.82-3.17-2.82-4.75-6-4.75a6.13,6.13,0,0,0-2,.33,5.83,5.83,0,0,0-1.73,1,6,6,0,0,0-1.33,1.49,7.09,7.09,0,0,0-.85,2Z"/><path class="cls-4" d="M1290.28,705.65h5.93V708a11.22,11.22,0,0,1,2.9-2.35,6.64,6.64,0,0,1,3.06-.66,9.56,9.56,0,0,1,4.9,1.53l-2.71,5.43a5.68,5.68,0,0,0-3.3-1.21q-4.85,0-4.85,7.33v13.31h-5.93Z"/><path class="cls-4" d="M1338,696.37h-7l3.37-5.75h9.81v40.71H1338Z"/><path class="cls-4" d="M1362.05,710.16a10,10,0,0,1-4.48-8.62,11.08,11.08,0,0,1,3.4-8.28,11.72,11.72,0,0,1,8.52-3.32,11.51,11.51,0,0,1,8.43,3.32,11.12,11.12,0,0,1,3.38,8.3,10.23,10.23,0,0,1-4.46,8.57,9.45,9.45,0,0,1,3.85,3.85,11.43,11.43,0,0,1,1.43,5.7,11.84,11.84,0,0,1-3.54,8.86,12.39,12.39,0,0,1-9,3.45,13,13,0,0,1-9.31-3.48,11.52,11.52,0,0,1-3.69-8.75Q1356.54,712.91,1362.05,710.16Zm.53,9.39a6.77,6.77,0,0,0,2,4.85,6.82,6.82,0,1,0-2-4.85Zm.76-18a6.08,6.08,0,0,0,6.09,6.17,6.09,6.09,0,1,0-4.3-10.39A5.8,5.8,0,0,0,1363.34,701.51Z"/><path class="cls-4" d="M1425.33,705.65h6v25.68h-6v-2.69a11.39,11.39,0,0,1-16.69-.42,14.33,14.33,0,0,1-3.45-9.81,13.88,13.88,0,0,1,3.45-9.62,11.13,11.13,0,0,1,8.65-3.85,10.91,10.91,0,0,1,8,3.69Zm-14.08,12.76a8.92,8.92,0,0,0,2,6,6.46,6.46,0,0,0,5.11,2.35,6.78,6.78,0,0,0,5.33-2.27,9.75,9.75,0,0,0,0-11.91,6.71,6.71,0,0,0-5.27-2.3,6.59,6.59,0,0,0-5.12,2.32A8.58,8.58,0,0,0,1411.25,718.41Zm2-22.54a5.37,5.37,0,0,1,1.69-4,5.73,5.73,0,1,1,4.06,9.81,5.6,5.6,0,0,1-4.09-1.69A5.68,5.68,0,0,1,1413.28,695.87Zm3.14,0a2.56,2.56,0,0,0,.75,1.89,2.62,2.62,0,1,0,.83-4.26,2.67,2.67,0,0,0-.83.57,2.36,2.36,0,0,0-.55.83A2.51,2.51,0,0,0,1416.42,695.92Z"/><path class="cls-4" d="M1438.78,705.65h5.93V708a11.22,11.22,0,0,1,2.9-2.35,6.64,6.64,0,0,1,3.06-.66,9.56,9.56,0,0,1,4.9,1.53l-2.71,5.43a5.68,5.68,0,0,0-3.3-1.21q-4.85,0-4.85,7.33v13.31h-5.93Z"/><path class="cls-4" d="M1499,719.89h-18.41a7.84,7.84,0,0,0,2.06,5,6.27,6.27,0,0,0,4.67,1.84,6.09,6.09,0,0,0,3.66-1,15.09,15.09,0,0,0,3.24-3.91l5,2.8a19.75,19.75,0,0,1-2.45,3.39,13,13,0,0,1-2.77,2.32,11.1,11.1,0,0,1-3.19,1.33,15.55,15.55,0,0,1-3.71.42,12.08,12.08,0,0,1-9.23-3.69q-3.48-3.72-3.48-9.86a14.22,14.22,0,0,1,3.37-9.86,11.65,11.65,0,0,1,9-3.72,11.5,11.5,0,0,1,9,3.61q3.27,3.59,3.27,9.94Zm-6.09-4.85c-.83-3.17-2.82-4.75-6-4.75a6.13,6.13,0,0,0-2,.33,5.87,5.87,0,0,0-3.06,2.44,6.8,6.8,0,0,0-.84,2Z"/><path class="cls-4" d="M1505.51,705.65h5.94V708a11.05,11.05,0,0,1,2.9-2.35,6.64,6.64,0,0,1,3.06-.66,9.59,9.59,0,0,1,4.9,1.53l-2.72,5.43a5.63,5.63,0,0,0-3.29-1.21q-4.86,0-4.85,7.33v13.31h-5.94Z"/><path class="cls-4" d="M481.68,751.6h5.95v44.53h-5.95v-2.69a11.07,11.07,0,0,1-7.94,3.43A11.27,11.27,0,0,1,465,793a14.29,14.29,0,0,1-3.46-9.81,13.78,13.78,0,0,1,3.46-9.59,11.09,11.09,0,0,1,16.69-.19ZM467.6,783.21a9,9,0,0,0,2,6,6.5,6.5,0,0,0,5.12,2.34A6.76,6.76,0,0,0,480,789.3a9.75,9.75,0,0,0,0-11.91,6.71,6.71,0,0,0-5.27-2.3,6.57,6.57,0,0,0-5.11,2.32A8.53,8.53,0,0,0,467.6,783.21Z"/><path class="cls-4" d="M518.51,784.69h-18.4a7.78,7.78,0,0,0,2.05,5,6.28,6.28,0,0,0,4.67,1.84,6.11,6.11,0,0,0,3.67-1.05,15.39,15.39,0,0,0,3.24-3.9l5,2.79a20.3,20.3,0,0,1-2.45,3.39,13.5,13.5,0,0,1-2.77,2.32,11.06,11.06,0,0,1-3.19,1.33,15.7,15.7,0,0,1-3.72.42,12.1,12.1,0,0,1-9.23-3.69q-3.48-3.72-3.48-9.86a14.17,14.17,0,0,1,3.38-9.86,12.86,12.86,0,0,1,18-.11q3.27,3.58,3.27,9.94Zm-6.09-4.85c-.83-3.17-2.82-4.75-6-4.75a6.17,6.17,0,0,0-2,.33,5.9,5.9,0,0,0-3,2.44,7.09,7.09,0,0,0-.85,2Z"/><path class="cls-4" d="M531.59,776v20.14h-5.93V776h-2.54v-5.54h2.54V761h5.93v9.41h4.61V776Z"/><path class="cls-4" d="M562.83,751.6v21.83a11.12,11.12,0,0,1,16.72.19,13.82,13.82,0,0,1,3.45,9.59,14.12,14.12,0,0,1-3.48,9.81,11.39,11.39,0,0,1-16.69.42v2.69H556.9V751.6Zm14.11,31.88a8.88,8.88,0,0,0-2-6,6.41,6.41,0,0,0-5.09-2.38,6.83,6.83,0,0,0-5.33,2.3,8.53,8.53,0,0,0-2,5.9,8.64,8.64,0,0,0,2,6,6.64,6.64,0,0,0,5.27,2.29,6.51,6.51,0,0,0,5.11-2.29A8.44,8.44,0,0,0,576.94,783.48Z"/><path class="cls-4" d="M609.82,772.25l4.06-4,2.69,2.84-4,3.88a13.71,13.71,0,0,1,2.87,8.41,12.93,12.93,0,0,1-4,9.6,13.11,13.11,0,0,1-9.65,3.9,13.83,13.83,0,0,1-8.49-2.69L589.46,798l-2.71-2.74,3.87-3.85a14.12,14.12,0,0,1-2.55-8.12,12.85,12.85,0,0,1,4-9.57,13.37,13.37,0,0,1,9.73-3.93A14.26,14.26,0,0,1,609.82,772.25Zm-4.3,4.06a8,8,0,0,0-3.72-.82,7.42,7.42,0,0,0-5.59,2.16,8,8,0,0,0-2.08,5.75,8.7,8.7,0,0,0,.82,3.82Zm2.85,2.69-10.76,11.15a8.58,8.58,0,0,0,4.17,1.05,7.47,7.47,0,0,0,5.54-2.13,7.9,7.9,0,0,0,2.08-5.7A9.59,9.59,0,0,0,608.37,779Z"/><path class="cls-4" d="M621.74,770.45h5.93v2.3a11.22,11.22,0,0,1,2.9-2.35,6.64,6.64,0,0,1,3.06-.66,9.56,9.56,0,0,1,4.9,1.53l-2.71,5.43a5.68,5.68,0,0,0-3.3-1.21q-4.85,0-4.85,7.33v13.31h-5.93Z"/><path class="cls-4" d="M642.75,770.45h6v2.38a9.73,9.73,0,0,1,7-3.09,8.86,8.86,0,0,1,7,2.82c1.44,1.6,2.17,4.21,2.17,7.83v15.74h-6V781.79c0-2.53-.36-4.28-1.06-5.25s-1.93-1.47-3.74-1.47a4.6,4.6,0,0,0-4.2,1.95c-.8,1.28-1.21,3.52-1.21,6.72v12.39h-6Z"/><path class="cls-4" d="M695.75,784.69h-18.4a7.78,7.78,0,0,0,2,5,6.28,6.28,0,0,0,4.67,1.84,6.11,6.11,0,0,0,3.67-1.05,15.39,15.39,0,0,0,3.24-3.9l5,2.79a20.3,20.3,0,0,1-2.45,3.39,13.5,13.5,0,0,1-2.77,2.32,11.06,11.06,0,0,1-3.19,1.33,15.7,15.7,0,0,1-3.72.42,12.1,12.1,0,0,1-9.23-3.69q-3.48-3.72-3.48-9.86a14.17,14.17,0,0,1,3.38-9.86,12.86,12.86,0,0,1,18-.11q3.27,3.58,3.27,9.94Zm-6.09-4.85c-.83-3.17-2.82-4.75-6-4.75a6.17,6.17,0,0,0-2,.33,5.9,5.9,0,0,0-1.72,1,6.13,6.13,0,0,0-1.33,1.49,7.09,7.09,0,0,0-.85,2Z"/><path class="cls-4" d="M708.17,810.11h-5.93V770.45h5.93v2.8a11,11,0,0,1,8-3.51,11.09,11.09,0,0,1,8.73,3.9,14.11,14.11,0,0,1,3.48,9.78,13.91,13.91,0,0,1-3.45,9.63,11.26,11.26,0,0,1-16.72.21Zm14.11-26.66a8.86,8.86,0,0,0-2-6,6.49,6.49,0,0,0-5.11-2.35,6.78,6.78,0,0,0-5.3,2.27,8.57,8.57,0,0,0-2,6,8.76,8.76,0,0,0,2,6,6.64,6.64,0,0,0,5.27,2.29,6.42,6.42,0,0,0,5.09-2.32A8.42,8.42,0,0,0,722.28,783.45Z"/><path class="cls-4" d="M733.4,783.11a12.78,12.78,0,0,1,4-9.47,14,14,0,0,1,19.46,0,13.75,13.75,0,0,1,0,19.33,13.62,13.62,0,0,1-9.84,3.87,13.05,13.05,0,0,1-9.67-4A13.27,13.27,0,0,1,733.4,783.11Zm6.07.1a8.65,8.65,0,0,0,2,6.09,8,8,0,0,0,11.13,0,9.65,9.65,0,0,0,0-12,7.25,7.25,0,0,0-5.56-2.27,7.17,7.17,0,0,0-5.51,2.27A8.23,8.23,0,0,0,739.47,783.21Z"/><path class="cls-4" d="M767.07,770.45H773v2.3a11.05,11.05,0,0,1,2.9-2.35,6.64,6.64,0,0,1,3.06-.66,9.56,9.56,0,0,1,4.9,1.53l-2.72,5.43a5.63,5.63,0,0,0-3.29-1.21q-4.86,0-4.85,7.33v13.31h-5.94Z"/><path class="cls-4" d="M788.09,770.45h6v2.38a9.7,9.7,0,0,1,7-3.09,8.86,8.86,0,0,1,7,2.82q2.16,2.4,2.16,7.83v15.74h-6V781.79q0-3.79-1-5.25t-3.75-1.47a4.58,4.58,0,0,0-4.19,1.95q-1.21,1.92-1.21,6.72v12.39h-6Z"/><path class="cls-4" d="M816.49,783.11a12.74,12.74,0,0,1,4-9.47,14,14,0,0,1,19.46,0,13.76,13.76,0,0,1,0,19.33,13.61,13.61,0,0,1-9.83,3.87,13.08,13.08,0,0,1-9.68-4A13.3,13.3,0,0,1,816.49,783.11Zm6.06.1a8.65,8.65,0,0,0,2.06,6.09,8,8,0,0,0,11.12,0,9.61,9.61,0,0,0,0-12,7.88,7.88,0,0,0-11.07,0A8.23,8.23,0,0,0,822.55,783.21Z"/><path class="cls-4" d="M853.82,788.51l5.28,2.06-7.52,15.06-4-1.67Z"/><path class="cls-4" d="M898.41,774.83l-4.91,2.61c-.77-1.58-1.73-2.37-2.87-2.37a2,2,0,0,0-1.4.54,1.83,1.83,0,0,0-.58,1.38c0,1,1.15,2,3.43,2.93q4.73,2,6.36,3.74a6.4,6.4,0,0,1,1.63,4.62,8.08,8.08,0,0,1-2.74,6.22,9.35,9.35,0,0,1-6.44,2.37q-6.45,0-9.14-6.3l5.06-2.35a10.81,10.81,0,0,0,1.61,2.35,3.65,3.65,0,0,0,2.58,1c2,0,3-.91,3-2.74,0-1.05-.78-2-2.32-3l-1.8-.87-1.82-.87a11.41,11.41,0,0,1-3.64-2.53,6.3,6.3,0,0,1-1.34-4.14,7.32,7.32,0,0,1,2.29-5.54,8.07,8.07,0,0,1,5.7-2.19Q896,769.74,898.41,774.83Z"/><path class="cls-4" d="M904.18,783.11a12.75,12.75,0,0,1,4-9.47,14,14,0,0,1,19.45,0,13.75,13.75,0,0,1,0,19.33,13.62,13.62,0,0,1-9.84,3.87,13.05,13.05,0,0,1-9.67-4A13.27,13.27,0,0,1,904.18,783.11Zm6.07.1a8.65,8.65,0,0,0,2,6.09,8,8,0,0,0,11.13,0,9.65,9.65,0,0,0,0-12,7.25,7.25,0,0,0-5.56-2.27,7.17,7.17,0,0,0-5.51,2.27A8.23,8.23,0,0,0,910.25,783.21Z"/><path class="cls-4" d="M937.85,770.45h5.94v2.38a12.38,12.38,0,0,1,2.92-2.43,7.12,7.12,0,0,1,3.25-.66,7.88,7.88,0,0,1,6.88,3.8,8.9,8.9,0,0,1,7.57-3.8q8.67,0,8.67,10.52v15.87h-6V781.87a11.12,11.12,0,0,0-.89-5.22,3.26,3.26,0,0,0-3-1.56,3.88,3.88,0,0,0-3.57,1.85q-1.12,1.84-1.12,5.93v13.26h-6V782q0-6.86-3.95-6.86a4,4,0,0,0-3.66,1.87q-1.14,1.88-1.14,5.91v13.26h-5.94Z"/><path class="cls-4" d="M1012.16,774.83l-4.91,2.61c-.77-1.58-1.73-2.37-2.87-2.37a2,2,0,0,0-1.4.54,1.79,1.79,0,0,0-.58,1.38c0,1,1.14,2,3.43,2.93,3.15,1.35,5.26,2.6,6.35,3.74a6.41,6.41,0,0,1,1.64,4.62,8.12,8.12,0,0,1-2.74,6.22,9.35,9.35,0,0,1-6.44,2.37q-6.45,0-9.15-6.3l5.07-2.35a10.88,10.88,0,0,0,1.6,2.35,3.68,3.68,0,0,0,2.59,1c2,0,3-.91,3-2.74,0-1.05-.77-2-2.32-3-.59-.3-1.19-.59-1.79-.87l-1.82-.87a11.29,11.29,0,0,1-3.64-2.53,6.3,6.3,0,0,1-1.34-4.14,7.32,7.32,0,0,1,2.29-5.54,8.05,8.05,0,0,1,5.7-2.19Q1009.75,769.74,1012.16,774.83Z"/><path class="cls-4" d="M1025.26,776v20.14h-5.93V776h-2.53v-5.54h2.53V761h5.93v9.41h4.62V776Z"/><path class="cls-4" d="M1033.91,770.45h5.93v2.3a11.22,11.22,0,0,1,2.9-2.35,6.64,6.64,0,0,1,3.06-.66,9.6,9.6,0,0,1,4.91,1.53L1048,776.7a5.63,5.63,0,0,0-3.3-1.21q-4.85,0-4.85,7.33v13.31h-5.93Z"/><path class="cls-4" d="M1072.67,770.45h6v25.68h-6v-2.69A11.39,11.39,0,0,1,1056,793a14.33,14.33,0,0,1-3.45-9.81,13.88,13.88,0,0,1,3.45-9.62,11.13,11.13,0,0,1,8.65-3.85,10.91,10.91,0,0,1,8,3.69Zm-14.08,12.76a9,9,0,0,0,2,6,6.48,6.48,0,0,0,5.11,2.34,6.78,6.78,0,0,0,5.33-2.27,9.75,9.75,0,0,0,0-11.91,6.71,6.71,0,0,0-5.27-2.3,6.59,6.59,0,0,0-5.12,2.32A8.58,8.58,0,0,0,1058.59,783.21Z"/><path class="cls-4" d="M1092.26,776v20.14h-6V776h-2.11v-5.54h2.11v-9.91c0-3.24.56-5.52,1.69-6.86a8.29,8.29,0,0,1,6.75-2.79,11.73,11.73,0,0,1,4,.92v6.07l-.61-.32a7.43,7.43,0,0,0-3.16-1,2.16,2.16,0,0,0-2.14,1.14,11.12,11.12,0,0,0-.55,4.27v8.46h6.46V776Z"/><path class="cls-4" d="M1110.08,776v20.14h-5.95V776H1102v-5.54h2.11v-9.91c0-3.24.56-5.52,1.68-6.86a8.29,8.29,0,0,1,6.75-2.79,11.63,11.63,0,0,1,4,.92v6.07l-.6-.32a7.47,7.47,0,0,0-3.17-1,2.14,2.14,0,0,0-2.13,1.14,10.87,10.87,0,0,0-.56,4.27v8.46h6.46V776Z"/><path class="cls-4" d="M1144.18,784.69h-18.41a7.84,7.84,0,0,0,2.06,5,6.27,6.27,0,0,0,4.67,1.84,6.07,6.07,0,0,0,3.66-1.05,15.39,15.39,0,0,0,3.25-3.9l5,2.79a20.32,20.32,0,0,1-2.46,3.39,13,13,0,0,1-2.77,2.32,10.83,10.83,0,0,1-3.19,1.33,15.55,15.55,0,0,1-3.71.42,12.08,12.08,0,0,1-9.23-3.69q-3.48-3.72-3.48-9.86a14.22,14.22,0,0,1,3.37-9.86,11.65,11.65,0,0,1,9-3.72,11.5,11.5,0,0,1,9,3.61q3.27,3.58,3.27,9.94Zm-6.09-4.85c-.83-3.17-2.82-4.75-6-4.75a6.13,6.13,0,0,0-2,.33,6,6,0,0,0-1.73,1,6.34,6.34,0,0,0-1.33,1.49,6.8,6.8,0,0,0-.84,2Z"/><path class="cls-4" d="M1165.59,774.83l-4.91,2.61c-.77-1.58-1.73-2.37-2.87-2.37a2,2,0,0,0-1.4.54,1.83,1.83,0,0,0-.58,1.38c0,1,1.14,2,3.43,2.93,3.15,1.35,5.26,2.6,6.35,3.74a6.41,6.41,0,0,1,1.64,4.62,8.12,8.12,0,0,1-2.74,6.22,9.35,9.35,0,0,1-6.44,2.37q-6.45,0-9.15-6.3l5.07-2.35a11.27,11.27,0,0,0,1.6,2.35,3.69,3.69,0,0,0,2.59,1c2,0,3-.91,3-2.74,0-1.05-.77-2-2.32-3-.59-.3-1.19-.59-1.79-.87l-1.82-.87a11.41,11.41,0,0,1-3.64-2.53,6.3,6.3,0,0,1-1.34-4.14,7.32,7.32,0,0,1,2.29-5.54,8.07,8.07,0,0,1,5.7-2.19Q1163.18,769.74,1165.59,774.83Z"/><path class="cls-4" d="M1189.24,770.45h5.93v2.38a12.2,12.2,0,0,1,2.93-2.43,7.08,7.08,0,0,1,3.24-.66,7.87,7.87,0,0,1,6.88,3.8,8.93,8.93,0,0,1,7.57-3.8q8.67,0,8.68,10.52v15.87h-6V781.87a11,11,0,0,0-.9-5.22,3.24,3.24,0,0,0-3-1.56,3.88,3.88,0,0,0-3.58,1.85c-.74,1.23-1.12,3.21-1.12,5.93v13.26h-6V782q0-6.86-4-6.86a4,4,0,0,0-3.65,1.87q-1.15,1.88-1.15,5.91v13.26h-5.93Z"/><path class="cls-4" d="M1255.34,784.69h-18.4a7.83,7.83,0,0,0,2,5,6.28,6.28,0,0,0,4.67,1.84,6.11,6.11,0,0,0,3.67-1.05,15.19,15.19,0,0,0,3.24-3.9l5,2.79a19.75,19.75,0,0,1-2.45,3.39,13.24,13.24,0,0,1-2.77,2.32,11.06,11.06,0,0,1-3.19,1.33,15.58,15.58,0,0,1-3.72.42,12.1,12.1,0,0,1-9.23-3.69q-3.48-3.72-3.48-9.86a14.22,14.22,0,0,1,3.38-9.86,12.86,12.86,0,0,1,18-.11q3.27,3.58,3.27,9.94Zm-6.09-4.85q-1.24-4.76-6-4.75a6.09,6.09,0,0,0-2,.33,5.83,5.83,0,0,0-1.73,1,6.13,6.13,0,0,0-1.33,1.49,7.09,7.09,0,0,0-.85,2Z"/><path class="cls-4" d="M1280.76,751.6h6v44.53h-6v-2.69a11.05,11.05,0,0,1-7.94,3.43,11.29,11.29,0,0,1-8.75-3.85,14.33,14.33,0,0,1-3.45-9.81,13.82,13.82,0,0,1,3.45-9.59,11.09,11.09,0,0,1,16.69-.19Zm-14.08,31.61a9,9,0,0,0,2,6,6.48,6.48,0,0,0,5.11,2.34,6.78,6.78,0,0,0,5.33-2.27,9.75,9.75,0,0,0,0-11.91,6.71,6.71,0,0,0-5.27-2.3,6.59,6.59,0,0,0-5.12,2.32A8.58,8.58,0,0,0,1266.68,783.21Z"/><path class="cls-4" d="M1316.8,751.6v21.83a11,11,0,0,1,8.07-3.69,11.09,11.09,0,0,1,8.65,3.88,13.82,13.82,0,0,1,3.45,9.59,14.12,14.12,0,0,1-3.48,9.81,11.39,11.39,0,0,1-16.69.42v2.69h-5.93V751.6Zm14.11,31.88a8.88,8.88,0,0,0-2-6,6.41,6.41,0,0,0-5.09-2.38,6.83,6.83,0,0,0-5.33,2.3,8.53,8.53,0,0,0-2,5.9,8.69,8.69,0,0,0,2,6,6.68,6.68,0,0,0,5.28,2.29,6.53,6.53,0,0,0,5.11-2.29A8.44,8.44,0,0,0,1330.91,783.48Z"/><path class="cls-4" d="M1363.79,772.25l4.06-4,2.69,2.84-4,3.88a13.66,13.66,0,0,1,2.88,8.41,12.93,12.93,0,0,1-4,9.6,13.11,13.11,0,0,1-9.65,3.9,13.83,13.83,0,0,1-8.49-2.69l-3.91,3.77-2.71-2.74,3.87-3.85a14.12,14.12,0,0,1-2.55-8.12,12.85,12.85,0,0,1,4-9.57,13.37,13.37,0,0,1,9.73-3.93A14.26,14.26,0,0,1,1363.79,772.25Zm-4.3,4.06a8,8,0,0,0-3.72-.82,7.42,7.42,0,0,0-5.59,2.16,8,8,0,0,0-2.08,5.75,8.7,8.7,0,0,0,.82,3.82Zm2.85,2.69-10.76,11.15a8.58,8.58,0,0,0,4.17,1.05,7.47,7.47,0,0,0,5.54-2.13,7.9,7.9,0,0,0,2.08-5.7A9.59,9.59,0,0,0,1362.34,779Z"/><path class="cls-4" d="M1394.64,751.6h6v44.53h-6v-2.69a11.05,11.05,0,0,1-7.94,3.43A11.29,11.29,0,0,1,1378,793a14.33,14.33,0,0,1-3.45-9.81,13.82,13.82,0,0,1,3.45-9.59,11.09,11.09,0,0,1,16.69-.19Zm-14.08,31.61a9,9,0,0,0,2,6,6.48,6.48,0,0,0,5.11,2.34,6.8,6.8,0,0,0,5.33-2.27,9.75,9.75,0,0,0,0-11.91,6.72,6.72,0,0,0-5.27-2.3,6.59,6.59,0,0,0-5.12,2.32A8.58,8.58,0,0,0,1380.56,783.21Z"/><path class="cls-4" d="M1431.47,784.69h-18.4a7.79,7.79,0,0,0,2.06,5,6.26,6.26,0,0,0,4.66,1.84,6.11,6.11,0,0,0,3.67-1.05,15.19,15.19,0,0,0,3.24-3.9l5,2.79a19.75,19.75,0,0,1-2.45,3.39,13,13,0,0,1-2.77,2.32,10.94,10.94,0,0,1-3.19,1.33,15.58,15.58,0,0,1-3.72.42,12.1,12.1,0,0,1-9.23-3.69q-3.48-3.72-3.48-9.86a14.22,14.22,0,0,1,3.38-9.86,12.86,12.86,0,0,1,18-.11q3.27,3.58,3.27,9.94Zm-6.09-4.85c-.82-3.17-2.82-4.75-6-4.75a6.13,6.13,0,0,0-2,.33,6,6,0,0,0-1.73,1,6.13,6.13,0,0,0-1.33,1.49,6.8,6.8,0,0,0-.84,2Z"/><path class="cls-4" d="M1453.41,783.11a12.78,12.78,0,0,1,4-9.47,14,14,0,0,1,19.46,0,13.75,13.75,0,0,1,0,19.33,13.64,13.64,0,0,1-9.84,3.87,13.09,13.09,0,0,1-9.68-4A13.3,13.3,0,0,1,1453.41,783.11Zm6.07.1a8.65,8.65,0,0,0,2,6.09,8,8,0,0,0,11.13,0,9.65,9.65,0,0,0,0-12,7.25,7.25,0,0,0-5.56-2.27,7.17,7.17,0,0,0-5.51,2.27A8.23,8.23,0,0,0,1459.48,783.21Z"/><path class="cls-4" d="M1511.92,795.53c0,1.21,0,2.28-.12,3.2a22.64,22.64,0,0,1-.33,2.44,10.86,10.86,0,0,1-2.48,5q-3.48,4-9.57,4a12.75,12.75,0,0,1-8.46-2.77,11.33,11.33,0,0,1-4-7.88h6a6.8,6.8,0,0,0,1.14,2.93,6.36,6.36,0,0,0,5.38,2.39q6.51,0,6.51-8v-3.59a11.08,11.08,0,0,1-8.15,3.61,10.92,10.92,0,0,1-8.59-3.79,14.1,14.1,0,0,1-3.38-9.63,14.82,14.82,0,0,1,3.14-9.54,10.9,10.9,0,0,1,8.91-4.17,10.36,10.36,0,0,1,8.07,3.61v-2.9h5.93Zm-5.69-12.18a8.63,8.63,0,0,0-2-6,6.6,6.6,0,0,0-5.19-2.29,6.39,6.39,0,0,0-5.33,2.5,9.09,9.09,0,0,0-1.77,5.8,9,9,0,0,0,1.77,5.75,6.41,6.41,0,0,0,5.33,2.45,6.51,6.51,0,0,0,5.38-2.48A8.83,8.83,0,0,0,1506.23,783.35Z"/><path class="cls-4" d="M468.89,840.79v20.14h-6V840.79h-2.11v-5.54h2.11v-9.91c0-3.24.56-5.52,1.69-6.86a8.26,8.26,0,0,1,6.75-2.79,11.73,11.73,0,0,1,4,.92v6.06l-.61-.31a7.47,7.47,0,0,0-3.16-1,2.15,2.15,0,0,0-2.14,1.14,10.88,10.88,0,0,0-.55,4.27v8.46h6.46v5.54Z"/><path class="cls-4" d="M518.56,849.41H500.05a8.17,8.17,0,0,0,2.17,5.06,6.17,6.17,0,0,0,4.64,1.9q4,0,6.72-5.14l5.12,2.85a18,18,0,0,1-1.82,2.82,11.17,11.17,0,0,1-2.11,2,13.56,13.56,0,0,1-8.2,2.77,12.88,12.88,0,0,1-9.31-4.12q-3.22,4.13-9.47,4.12a11.73,11.73,0,0,1-7.62-2.37,7.61,7.61,0,0,1-2.92-6.2A7.94,7.94,0,0,1,480,846.8a10.87,10.87,0,0,1,7.36-2.42,14.82,14.82,0,0,1,6.69,1.74c0-2.33-.48-3.94-1.45-4.86s-2.63-1.39-4.95-1.39a25.58,25.58,0,0,0-6.86,1v-5.51a45.52,45.52,0,0,1,7.44-.79q6.27,0,9,3.61a13,13,0,0,1,17.95,0,13.46,13.46,0,0,1,3.38,9.57ZM483,853a3,3,0,0,0,1.48,2.51,6.76,6.76,0,0,0,3.74,1,7,7,0,0,0,3.93-1,3.07,3.07,0,0,0,1.59-2.61,2.85,2.85,0,0,0-1.64-2.37,7.36,7.36,0,0,0-3.93-1,6.36,6.36,0,0,0-3.66,1A3,3,0,0,0,483,853Zm29.35-8.41c-.72-3.14-2.65-4.72-5.77-4.72s-5.22,1.58-6.12,4.72Z"/><path class="cls-4" d="M524.94,835.25h6v2.37a9.77,9.77,0,0,1,7-3.08,8.84,8.84,0,0,1,7,2.82q2.18,2.4,2.17,7.83v15.74h-6V846.59q0-3.8-1.06-5.25c-.68-1-1.93-1.47-3.74-1.47a4.57,4.57,0,0,0-4.19,2q-1.22,1.92-1.22,6.72v12.39h-6Z"/><path class="cls-4" d="M579.39,860.33c0,1.21,0,2.28-.12,3.2a22.64,22.64,0,0,1-.33,2.44,10.85,10.85,0,0,1-2.47,5,12,12,0,0,1-9.58,4,12.77,12.77,0,0,1-8.46-2.77,11.32,11.32,0,0,1-3.95-7.88h5.95a6.8,6.8,0,0,0,1.14,2.93,6.39,6.39,0,0,0,5.38,2.39q6.51,0,6.51-8v-3.59a11.08,11.08,0,0,1-8.15,3.61,10.92,10.92,0,0,1-8.59-3.79,14.1,14.1,0,0,1-3.38-9.63,14.82,14.82,0,0,1,3.14-9.54,10.9,10.9,0,0,1,8.91-4.17,10.35,10.35,0,0,1,8.07,3.61v-2.9h5.93Zm-5.69-12.18a8.63,8.63,0,0,0-2-6,6.6,6.6,0,0,0-5.19-2.29,6.39,6.39,0,0,0-5.33,2.5,9.15,9.15,0,0,0-1.76,5.8,9,9,0,0,0,1.76,5.75,6.42,6.42,0,0,0,5.33,2.45,6.49,6.49,0,0,0,5.38-2.48A8.83,8.83,0,0,0,573.7,848.15Z"/><path class="cls-4" d="M601.8,839.63l-4.9,2.61c-.77-1.58-1.73-2.37-2.87-2.37a2,2,0,0,0-1.4.54,1.79,1.79,0,0,0-.58,1.38c0,1,1.14,2,3.43,2.93q4.71,2,6.35,3.74a6.41,6.41,0,0,1,1.64,4.62,8.09,8.09,0,0,1-2.75,6.22,9.33,9.33,0,0,1-6.43,2.37q-6.46,0-9.15-6.3L590.2,853a11.18,11.18,0,0,0,1.61,2.35,3.66,3.66,0,0,0,2.59,1c2,0,3-.91,3-2.74,0-1-.77-2-2.32-3-.6-.3-1.19-.59-1.79-.87l-1.82-.87a11.29,11.29,0,0,1-3.64-2.53,6.24,6.24,0,0,1-1.34-4.14,7.32,7.32,0,0,1,2.29-5.54,8,8,0,0,1,5.69-2.19Q599.41,834.54,601.8,839.63Z"/><path class="cls-4" d="M614.72,816.4v44.53h-5.93V816.4Z"/><path class="cls-4" d="M621.34,824.57a3.88,3.88,0,0,1,3.85-3.82,3.74,3.74,0,0,1,2.74,1.13,3.65,3.65,0,0,1,1.14,2.72,3.71,3.71,0,0,1-1.14,2.74,3.62,3.62,0,0,1-2.71,1.14,3.89,3.89,0,0,1-3.88-3.91Zm6.83,10.68v25.68h-5.93V835.25Z"/><path class="cls-4" d="M635.69,835.25h6v2.37a9.73,9.73,0,0,1,7-3.08,8.86,8.86,0,0,1,7,2.82q2.16,2.4,2.16,7.83v15.74h-6V846.59q0-3.8-1.06-5.25c-.68-1-1.93-1.47-3.74-1.47a4.57,4.57,0,0,0-4.19,2q-1.22,1.92-1.21,6.72v12.39h-6Z"/><path class="cls-4" d="M690.13,860.33c0,1.21,0,2.28-.11,3.2a22.64,22.64,0,0,1-.33,2.44,11,11,0,0,1-2.48,5,12,12,0,0,1-9.57,4,12.77,12.77,0,0,1-8.47-2.77,11.32,11.32,0,0,1-3.95-7.88h6a6.68,6.68,0,0,0,1.13,2.93,6.39,6.39,0,0,0,5.38,2.39q6.51,0,6.51-8v-3.59a11.06,11.06,0,0,1-8.15,3.61,10.94,10.94,0,0,1-8.59-3.79,14.1,14.1,0,0,1-3.38-9.63,14.82,14.82,0,0,1,3.14-9.54,10.9,10.9,0,0,1,8.91-4.17,10.33,10.33,0,0,1,8.07,3.61v-2.9h5.93Zm-5.69-12.18a8.67,8.67,0,0,0-2-6,6.64,6.64,0,0,0-5.2-2.29,6.37,6.37,0,0,0-5.32,2.5,9.09,9.09,0,0,0-1.77,5.8,9,9,0,0,0,1.77,5.75,6.39,6.39,0,0,0,5.32,2.45,6.49,6.49,0,0,0,5.38-2.48A8.83,8.83,0,0,0,684.44,848.15Z"/><path class="cls-4" d="M698.55,858a3.59,3.59,0,1,1,1.05,2.64A3.6,3.6,0,0,1,698.55,858Z"/></g></svg>