<svg xmlns="http://www.w3.org/2000/svg" width="1920" height="1080" viewBox="0 0 1920 1080"><defs><style>.cls-1{fill:#152230;}.cls-2{fill:#358da8;}.cls-3{fill:#89cce5;}.cls-4{fill:#003a44;}.cls-5{fill:#fff;}</style></defs><title>senarie1_1</title><g id="Layer_1" data-name="Layer 1"><path class="cls-1" d="M1203.52,92.65a137.84,137.84,0,0,1-23.75,2L705.19,93.23C633.51,93,574,34.56,572.47-37.1l6.84-.14c1.42,68,57.9,123.44,125.9,123.64l474.58,1.39c70.48.2,129.75-56.92,132.12-127.35l6.83.23a137.89,137.89,0,0,1-42.36,94.92A138.1,138.1,0,0,1,1203.52,92.65Z"/></g><g id="Layer_3" data-name="Layer 3"><polygon class="cls-2" points="1289 1072 1368 1072 1368 1097 1368 1115 1368 1160 1404 1160 1404 1203 1403 1203 1403 1249 1439 1249 1439 1292 1360 1292 1360 1270 1360 1249 1360 1203 1325 1203 1325 1176 1325 1160 1325 1115 1289 1115 1289 1072"/><rect class="cls-3" width="1920" height="1080"/><circle class="cls-2" cx="145" cy="150" r="50"/><circle class="cls-2" cx="1214" cy="333" r="50"/><circle class="cls-2" cx="1733" cy="918" r="50"/><circle class="cls-2" cx="226" cy="691" r="50"/><circle class="cls-2" cx="913" cy="576" r="50"/><circle class="cls-2" cx="542" cy="333" r="50"/><circle class="cls-2" cx="1197" cy="841" r="50"/><circle class="cls-2" cx="1570" cy="490" r="50"/><circle class="cls-2" cx="828" cy="150" r="50"/><circle class="cls-2" cx="592" cy="968" r="50"/><circle class="cls-2" cx="1620" cy="174" r="50"/><polygon class="cls-2" points="442 81 363 81 363 106 363 124 363 169 327 169 327 212 328 212 328 258 292 258 292 301 371 301 371 279 371 258 371 212 406 212 406 185 406 169 406 124 442 124 442 81"/><polygon class="cls-2" points="988 758 909 758 909 783 909 801 909 846 873 846 873 889 874 889 874 935 838 935 838 978 917 978 917 956 917 935 917 889 952 889 952 862 952 846 952 801 988 801 988 758"/><polygon class="cls-2" points="301 907 222 907 222 932 222 950 222 995 186 995 186 1038 187 1038 187 1084 151 1084 151 1127 230 1127 230 1105 230 1084 230 1038 265 1038 265 1011 265 995 265 950 301 950 301 907"/><polygon class="cls-2" points="1392 791 1471 791 1471 816 1471 834 1471 879 1507 879 1507 922 1506 922 1506 968 1542 968 1542 1011 1463 1011 1463 989 1463 968 1463 922 1428 922 1428 895 1428 879 1428 834 1392 834 1392 791"/><polygon class="cls-2" points="1289 -70 1368 -70 1368 -45 1368 -27 1368 18 1404 18 1404 61 1403 61 1403 107 1439 107 1439 150 1360 150 1360 128 1360 107 1360 61 1325 61 1325 34 1325 18 1325 -27 1289 -27 1289 -70"/><polygon class="cls-2" points="1708 370 1787 370 1787 395 1787 413 1787 458 1823 458 1823 501 1822 501 1822 547 1858 547 1858 590 1779 590 1779 568 1779 547 1779 501 1744 501 1744 474 1744 458 1744 413 1708 413 1708 370"/><polygon class="cls-2" points="1063 173 984 173 984 198 984 216 984 261 948 261 948 304 949 304 949 350 913 350 913 393 992 393 992 371 992 350 992 304 1027 304 1027 277 1027 261 1027 216 1063 216 1063 173"/><polygon class="cls-2" points="1414 411 1335 411 1335 436 1335 454 1335 499 1299 499 1299 542 1300 542 1300 588 1264 588 1264 631 1343 631 1343 609 1343 588 1343 542 1378 542 1378 515 1378 499 1378 454 1414 454 1414 411"/><polygon class="cls-2" points="492 521 571 521 571 546 571 564 571 609 607 609 607 652 606 652 606 698 642 698 642 741 563 741 563 719 563 698 563 652 528 652 528 625 528 609 528 564 492 564 492 521"/><polygon class="cls-2" points="-39 273 40 273 40 298 40 316 40 361 76 361 76 404 75 404 75 450 111 450 111 493 32 493 32 471 32 450 32 404 -3 404 -3 377 -3 361 -3 316 -39 316 -39 273"/><rect class="cls-2" x="1796" y="165" width="40" height="110" rx="20" transform="translate(256.53 1176.19) rotate(-38.42)"/><rect class="cls-2" x="1645" y="-20" width="110" height="40" rx="20" transform="translate(643.53 1331.87) rotate(-51.58)"/><rect class="cls-2" x="1544" y="671" width="110" height="40" rx="20" transform="translate(63.93 1514.32) rotate(-51.58)"/><rect class="cls-2" x="1211" y="1037" width="110" height="40" rx="20" transform="translate(-348.87 1391.98) rotate(-51.58)"/><rect class="cls-2" x="703" y="373" width="110" height="40" rx="20" transform="translate(-20.96 742.63) rotate(-51.58)"/><rect class="cls-2" x="7" y="881" width="110" height="40" rx="20" transform="translate(-682.42 389.65) rotate(-51.58)"/><rect class="cls-2" x="354" y="821" width="110" height="40" rx="20" transform="matrix(0.62, -0.78, 0.78, 0.62, -504.06, 638.79)"/><rect class="cls-2" x="554" y="61" width="110" height="40" rx="20" transform="translate(167.08 507.79) rotate(-51.58)"/><rect class="cls-2" x="1037" y="611" width="110" height="40" rx="20" transform="translate(-80.98 1094.4) rotate(-51.58)"/><rect class="cls-2" x="1447" y="246" width="40" height="110" rx="20" transform="translate(130.62 976.85) rotate(-38.42)"/><rect class="cls-2" x="1127" y="-15" width="40" height="110" rx="20" transform="translate(223.52 721.47) rotate(-38.42)"/><rect class="cls-2" x="1900" y="750" width="40" height="110" rx="20" transform="translate(-84.5 1367.51) rotate(-38.42)"/><rect class="cls-2" x="696" y="786" width="40" height="110" rx="20" transform="translate(-367.59 627.07) rotate(-38.42)"/><rect class="cls-2" x="265" y="435" width="40" height="110" rx="20" transform="translate(-242.8 283.22) rotate(-38.42)"/><rect class="cls-4" x="328" y="166" width="1140" height="655" rx="12"/><rect class="cls-2" x="418" y="263" width="1140" height="655" rx="12"/><path class="cls-5" d="M447.49,332.37V291.66H456a31.12,31.12,0,0,1,9.71,1.21,18.13,18.13,0,0,1,6.93,4Q479,302.66,479,312a19.78,19.78,0,0,1-13.47,19.22,31.27,31.27,0,0,1-9.57,1.14Zm6.14-5.78h2.77a23.05,23.05,0,0,0,6.88-.87,14,14,0,0,0,9.5-13.71,14.15,14.15,0,0,0-4.49-10.86q-4-3.72-11.89-3.72h-2.77Z"/><path class="cls-5" d="M491.5,306.69v14.73c0,4.26,1.67,6.39,5,6.39s5-2.13,5-6.39V306.69h5.93v14.87a16.52,16.52,0,0,1-.76,5.32,9,9,0,0,1-2.56,3.61,12.47,12.47,0,0,1-15.27,0,9,9,0,0,1-2.61-3.61,14.69,14.69,0,0,1-.74-5.32V306.69Z"/><path class="cls-5" d="M531.65,287.83h5.94v21a10.19,10.19,0,0,1,7-2.85,9,9,0,0,1,7,2.82q2.22,2.46,2.22,7.84v15.74h-5.93V317.18a7.22,7.22,0,0,0-1.1-4.47,4.22,4.22,0,0,0-3.52-1.38q-3.11,0-4.37,1.92t-1.24,6.7v12.42h-5.94Z"/><path class="cls-5" d="M580.2,306.69h5.95v25.68H580.2v-2.69a11.42,11.42,0,0,1-16.7-.42,14.33,14.33,0,0,1-3.45-9.81,13.91,13.91,0,0,1,3.45-9.63,11.17,11.17,0,0,1,8.65-3.85,11,11,0,0,1,8.05,3.69Zm-14.08,12.76a8.94,8.94,0,0,0,2,6,6.51,6.51,0,0,0,5.12,2.35,6.79,6.79,0,0,0,5.32-2.27,9.76,9.76,0,0,0,0-11.92,6.7,6.7,0,0,0-5.27-2.29,6.53,6.53,0,0,0-5.11,2.32A8.5,8.5,0,0,0,566.12,319.45Z"/><path class="cls-5" d="M593.64,306.69h5.94V309a11.27,11.27,0,0,1,2.9-2.35,6.63,6.63,0,0,1,3-.66,9.6,9.6,0,0,1,4.91,1.53l-2.72,5.43a5.7,5.7,0,0,0-3.29-1.21q-4.86,0-4.85,7.33v13.32h-5.94Z"/><path class="cls-5" d="M633.69,306.69l6.65,14.42L647,306.69h6.67l-13.34,27.44-13.24-27.44Z"/><path class="cls-5" d="M675.64,306.69h6v25.68h-6v-2.69a11.41,11.41,0,0,1-16.69-.42,14.33,14.33,0,0,1-3.45-9.81,13.91,13.91,0,0,1,3.45-9.63A11.17,11.17,0,0,1,667.6,306a10.91,10.91,0,0,1,8,3.69Zm-14.08,12.76a8.94,8.94,0,0,0,2,6,6.51,6.51,0,0,0,5.12,2.35,6.81,6.81,0,0,0,5.32-2.27,9.76,9.76,0,0,0,0-11.92,6.7,6.7,0,0,0-5.27-2.29,6.57,6.57,0,0,0-5.12,2.32A8.55,8.55,0,0,0,661.56,319.45Z"/><path class="cls-5" d="M695,287.83v44.54h-5.93V287.83Z"/><path class="cls-5" d="M727.38,331.76c0,1.21,0,2.28-.12,3.2a22.3,22.3,0,0,1-.33,2.44,10.85,10.85,0,0,1-2.48,5q-3.48,4-9.57,4a12.78,12.78,0,0,1-8.46-2.76,11.31,11.31,0,0,1-4-7.89h6a6.88,6.88,0,0,0,1.13,2.93,6.38,6.38,0,0,0,5.38,2.4q6.51,0,6.51-8v-3.59a11.05,11.05,0,0,1-8.14,3.61,10.94,10.94,0,0,1-8.6-3.79,14.09,14.09,0,0,1-3.37-9.63,14.82,14.82,0,0,1,3.13-9.54,10.9,10.9,0,0,1,8.92-4.17,10.33,10.33,0,0,1,8.06,3.62v-2.9h5.94Zm-5.7-12.18a8.69,8.69,0,0,0-2-6,6.64,6.64,0,0,0-5.2-2.29,6.37,6.37,0,0,0-5.32,2.5,9.09,9.09,0,0,0-1.77,5.8,9,9,0,0,0,1.77,5.75,6.38,6.38,0,0,0,5.32,2.46,6.52,6.52,0,0,0,5.38-2.48A8.8,8.8,0,0,0,721.68,319.58Z"/><path class="cls-5" d="M741,312.22v20.15h-5.93V312.22h-2.53v-5.53h2.53v-9.42H741v9.42h4.62v5.53Z"/><path class="cls-5" d="M785.23,287.83h6v44.54h-6v-2.69a11.1,11.1,0,0,1-7.94,3.42,11.3,11.3,0,0,1-8.75-3.84,14.29,14.29,0,0,1-3.46-9.81,13.81,13.81,0,0,1,3.46-9.6,11.09,11.09,0,0,1,16.69-.19Zm-14.08,31.62a9,9,0,0,0,2,6,6.51,6.51,0,0,0,5.12,2.35,6.83,6.83,0,0,0,5.33-2.27,9.76,9.76,0,0,0,0-11.92,6.73,6.73,0,0,0-5.28-2.29,6.53,6.53,0,0,0-5.11,2.32A8.5,8.5,0,0,0,771.15,319.45Z"/><path class="cls-5" d="M822.06,320.92h-18.4a7.83,7.83,0,0,0,2.05,5,6.29,6.29,0,0,0,4.67,1.85,6.11,6.11,0,0,0,3.67-1.06,14.84,14.84,0,0,0,3.24-3.9l5,2.79a19.75,19.75,0,0,1-2.45,3.39,12.94,12.94,0,0,1-2.77,2.32,11.06,11.06,0,0,1-3.19,1.33,15.58,15.58,0,0,1-3.72.42,12.06,12.06,0,0,1-9.23-3.69q-3.48-3.71-3.48-9.86a14.24,14.24,0,0,1,3.38-9.86,12.85,12.85,0,0,1,18-.1q3.27,3.59,3.27,9.94ZM816,316.07q-1.25-4.74-6-4.74a6.09,6.09,0,0,0-2,.33,5.8,5.8,0,0,0-1.73.94,6.13,6.13,0,0,0-1.33,1.49,7.09,7.09,0,0,0-.85,2Z"/><path class="cls-5" d="M828.55,306.69h6v2.37a9.7,9.7,0,0,1,7-3.09,8.86,8.86,0,0,1,7,2.82q2.16,2.4,2.16,7.84v15.74h-6V318q0-3.79-1.05-5.24c-.69-1-1.94-1.48-3.75-1.48a4.58,4.58,0,0,0-4.19,1.95q-1.22,1.92-1.21,6.72v12.4h-6Z"/><path class="cls-5" d="M874.82,306.69h6v2.37a9.72,9.72,0,0,1,7-3.09,8.86,8.86,0,0,1,7,2.82q2.16,2.4,2.16,7.84v15.74h-6V318c0-2.53-.36-4.28-1.06-5.24s-1.93-1.48-3.74-1.48a4.6,4.6,0,0,0-4.2,1.95c-.8,1.28-1.21,3.52-1.21,6.72v12.4h-6Z"/><path class="cls-5" d="M927.82,320.92h-18.4a7.78,7.78,0,0,0,2.05,5,6.29,6.29,0,0,0,4.67,1.85,6.06,6.06,0,0,0,3.66-1.06,15,15,0,0,0,3.25-3.9l5,2.79a20.3,20.3,0,0,1-2.45,3.39,13.19,13.19,0,0,1-2.77,2.32,11.06,11.06,0,0,1-3.19,1.33,15.7,15.7,0,0,1-3.72.42,12.06,12.06,0,0,1-9.23-3.69q-3.48-3.71-3.48-9.86a14.23,14.23,0,0,1,3.37-9.86,12.86,12.86,0,0,1,18-.1q3.27,3.59,3.27,9.94Zm-6.09-4.85c-.83-3.16-2.82-4.74-6-4.74a6.17,6.17,0,0,0-2,.33,5.75,5.75,0,0,0-1.72.94,5.93,5.93,0,0,0-1.33,1.49,6.81,6.81,0,0,0-.85,2Z"/><path class="cls-5" d="M934.31,306.69h5.93v2.37a12.2,12.2,0,0,1,2.93-2.43,7.08,7.08,0,0,1,3.24-.66,7.88,7.88,0,0,1,6.88,3.8,8.92,8.92,0,0,1,7.57-3.8q8.67,0,8.67,10.52v15.88h-6V318.1c0-2.46-.29-4.2-.89-5.22a3.25,3.25,0,0,0-3-1.55,3.87,3.87,0,0,0-3.58,1.84c-.74,1.23-1.12,3.21-1.12,5.93v13.27h-6V318.18q0-6.85-4-6.85a4,4,0,0,0-3.65,1.87c-.77,1.25-1.15,3.21-1.15,5.9v13.27h-5.93Z"/><path class="cls-5" d="M977,306.69H983v2.37a12.39,12.39,0,0,1,2.93-2.43,7.08,7.08,0,0,1,3.24-.66,7.89,7.89,0,0,1,6.89,3.8,8.9,8.9,0,0,1,7.56-3.8q8.68,0,8.68,10.52v15.88h-6V318.1a11,11,0,0,0-.9-5.22,3.23,3.23,0,0,0-3-1.55,3.86,3.86,0,0,0-3.57,1.84q-1.12,1.84-1.12,5.93v13.27h-6V318.18q0-6.85-4-6.85a4,4,0,0,0-3.65,1.87,11.7,11.7,0,0,0-1.15,5.9v13.27H977Z"/><path class="cls-5" d="M1043.12,320.92h-18.4a7.79,7.79,0,0,0,2.06,5,6.25,6.25,0,0,0,4.66,1.85,6.11,6.11,0,0,0,3.67-1.06,14.84,14.84,0,0,0,3.24-3.9l5,2.79a19.75,19.75,0,0,1-2.45,3.39,12.94,12.94,0,0,1-2.77,2.32,10.94,10.94,0,0,1-3.19,1.33,15.58,15.58,0,0,1-3.72.42,12.06,12.06,0,0,1-9.23-3.69q-3.48-3.71-3.48-9.86a14.24,14.24,0,0,1,3.38-9.86,12.85,12.85,0,0,1,18-.1q3.27,3.59,3.27,9.94Zm-6.09-4.85c-.82-3.16-2.82-4.74-6-4.74a6.13,6.13,0,0,0-2,.33,5.8,5.8,0,0,0-1.73.94,6.13,6.13,0,0,0-1.33,1.49,6.8,6.8,0,0,0-.84,2Z"/><path class="cls-5" d="M1072.21,287.83v44.54h-5.94V287.83Z"/><path class="cls-5" d="M1100.26,308.48l4.06-4,2.69,2.85-4,3.87a13.73,13.73,0,0,1,2.87,8.41,12.93,12.93,0,0,1-4,9.6,13.11,13.11,0,0,1-9.65,3.9,13.88,13.88,0,0,1-8.49-2.68l-3.9,3.77-2.72-2.75,3.88-3.85a14.06,14.06,0,0,1-2.56-8.12,12.89,12.89,0,0,1,4-9.57,13.39,13.39,0,0,1,9.73-3.93A14.26,14.26,0,0,1,1100.26,308.48Zm-4.3,4.06a8,8,0,0,0-3.71-.82,7.39,7.39,0,0,0-5.59,2.16,7.94,7.94,0,0,0-2.09,5.75,8.81,8.81,0,0,0,.82,3.82Zm2.85,2.69-10.76,11.15a8.62,8.62,0,0,0,4.17,1.06,7.47,7.47,0,0,0,5.54-2.14,7.86,7.86,0,0,0,2.08-5.7A9.59,9.59,0,0,0,1098.81,315.23Z"/><path class="cls-5" d="M1127.1,311.06l-4.9,2.61c-.77-1.58-1.73-2.37-2.87-2.37a2,2,0,0,0-1.4.54,1.79,1.79,0,0,0-.58,1.38c0,1,1.14,2,3.43,2.93q4.71,2,6.35,3.75a6.4,6.4,0,0,1,1.63,4.61,8.07,8.07,0,0,1-2.74,6.22,9.33,9.33,0,0,1-6.43,2.37q-6.46,0-9.15-6.3l5.06-2.34a11,11,0,0,0,1.61,2.34,3.66,3.66,0,0,0,2.58,1c2,0,3-.92,3-2.75,0-1.05-.77-2-2.32-2.95l-1.79-.87-1.82-.87a11,11,0,0,1-3.64-2.53,6.21,6.21,0,0,1-1.35-4.14,7.34,7.34,0,0,1,2.3-5.54,8,8,0,0,1,5.69-2.19Q1124.71,306,1127.1,311.06Z"/><path class="cls-5" d="M1134.09,306.69h6v2.37a9.7,9.7,0,0,1,7-3.09,8.86,8.86,0,0,1,7,2.82q2.16,2.4,2.16,7.84v15.74h-6V318q0-3.79-1-5.24c-.69-1-1.93-1.48-3.74-1.48a4.6,4.6,0,0,0-4.2,1.95q-1.21,1.92-1.21,6.72v12.4h-6Z"/><path class="cls-5" d="M1162.8,296a3.89,3.89,0,0,1,3.85-3.83,3.74,3.74,0,0,1,2.75,1.14,3.66,3.66,0,0,1,1.13,2.71,3.74,3.74,0,0,1-1.13,2.74,3.65,3.65,0,0,1-2.72,1.14,3.89,3.89,0,0,1-3.88-3.9Zm6.83,10.68v25.68h-5.93V306.69Z"/><path class="cls-5" d="M1177.15,306.69h6v2.37a9.7,9.7,0,0,1,7-3.09,8.86,8.86,0,0,1,7,2.82q2.16,2.4,2.16,7.84v15.74h-6V318q0-3.79-1-5.24c-.69-1-1.94-1.48-3.75-1.48a4.58,4.58,0,0,0-4.19,1.95q-1.21,1.92-1.21,6.72v12.4h-6Z"/><path class="cls-5" d="M1231.6,331.76c0,1.21,0,2.28-.12,3.2a22.3,22.3,0,0,1-.33,2.44,10.85,10.85,0,0,1-2.48,5q-3.48,4-9.57,4a12.82,12.82,0,0,1-8.47-2.76,11.34,11.34,0,0,1-4-7.89h6a6.88,6.88,0,0,0,1.13,2.93,6.38,6.38,0,0,0,5.38,2.4q6.51,0,6.51-8v-3.59a11.05,11.05,0,0,1-8.14,3.61,10.94,10.94,0,0,1-8.6-3.79,14.09,14.09,0,0,1-3.37-9.63,14.82,14.82,0,0,1,3.13-9.54,10.9,10.9,0,0,1,8.92-4.17,10.33,10.33,0,0,1,8.06,3.62v-2.9h5.94Zm-5.7-12.18a8.69,8.69,0,0,0-2-6,6.64,6.64,0,0,0-5.2-2.29,6.37,6.37,0,0,0-5.32,2.5,9.09,9.09,0,0,0-1.77,5.8,9,9,0,0,0,1.77,5.75,6.38,6.38,0,0,0,5.32,2.46,6.52,6.52,0,0,0,5.38-2.48A8.86,8.86,0,0,0,1225.9,319.58Z"/><path class="cls-5" d="M1240,329.41a3.49,3.49,0,0,1,1.08-2.55,3.66,3.66,0,1,1,2.58,6.24,3.59,3.59,0,0,1-3.66-3.69Z"/><path class="cls-5" d="M447.49,462V421.26H456a31.12,31.12,0,0,1,9.71,1.21,18.13,18.13,0,0,1,6.93,4q6.3,5.76,6.3,15.11a19.78,19.78,0,0,1-13.47,19.22,31.27,31.27,0,0,1-9.57,1.14Zm6.14-5.78h2.77a23.05,23.05,0,0,0,6.88-.87,14,14,0,0,0,9.5-13.71,14.15,14.15,0,0,0-4.49-10.86q-4-3.72-11.89-3.72h-2.77Z"/><path class="cls-5" d="M509,450.52h-18.4a7.83,7.83,0,0,0,2.05,5,6.29,6.29,0,0,0,4.67,1.85,6.11,6.11,0,0,0,3.67-1.06,15,15,0,0,0,3.24-3.9l5,2.79a19.75,19.75,0,0,1-2.45,3.39A12.94,12.94,0,0,1,504,461a11.06,11.06,0,0,1-3.19,1.33,15.62,15.62,0,0,1-3.72.43,12.07,12.07,0,0,1-9.23-3.7q-3.48-3.7-3.48-9.86a14.24,14.24,0,0,1,3.38-9.86,12.85,12.85,0,0,1,18-.1q3.27,3.58,3.27,9.94Zm-6.09-4.85q-1.25-4.74-6-4.74a6.19,6.19,0,0,0-2,.33,5.88,5.88,0,0,0-1.72.94,6.13,6.13,0,0,0-1.33,1.49,7.09,7.09,0,0,0-.85,2Z"/><path class="cls-5" d="M522,441.82V462H516.1V441.82h-2.53v-5.53h2.53v-9.42H522v9.42h4.61v5.53Z"/><path class="cls-5" d="M570.73,450.52h-18.4a7.78,7.78,0,0,0,2,5,6.28,6.28,0,0,0,4.67,1.85,6.06,6.06,0,0,0,3.66-1.06,15,15,0,0,0,3.25-3.9l5,2.79a19.77,19.77,0,0,1-2.46,3.39,12.89,12.89,0,0,1-2.76,2.32,11.06,11.06,0,0,1-3.19,1.33,15.69,15.69,0,0,1-3.72.43,12.07,12.07,0,0,1-9.23-3.7q-3.48-3.7-3.48-9.86a14.23,14.23,0,0,1,3.37-9.86,12.86,12.86,0,0,1,18-.1q3.27,3.58,3.27,9.94Zm-6.09-4.85c-.83-3.16-2.82-4.74-6-4.74a6.17,6.17,0,0,0-2,.33,5.75,5.75,0,0,0-1.72.94,6.17,6.17,0,0,0-1.34,1.49,7.08,7.08,0,0,0-.84,2Z"/><path class="cls-5" d="M577.22,436.29h5.93v2.29a11.44,11.44,0,0,1,2.9-2.35,6.64,6.64,0,0,1,3.06-.66,9.56,9.56,0,0,1,4.9,1.53l-2.71,5.43a5.75,5.75,0,0,0-3.3-1.21q-4.85,0-4.85,7.33V462h-5.93Z"/><path class="cls-5" d="M613.18,425.61a3.68,3.68,0,0,1,1.13-2.69,3.84,3.84,0,0,1,5.46,0,3.63,3.63,0,0,1,1.14,2.71,3.74,3.74,0,0,1-1.14,2.75,3.66,3.66,0,0,1-2.71,1.13,3.86,3.86,0,0,1-3.88-3.9ZM620,436.29V462h-5.93V436.29Z"/><path class="cls-5" d="M633.46,417.43v27.16l8.36-8.3h8l-11.16,10.78,12,14.9h-7.7l-8.49-10.84-.95.95V462h-5.94V417.43Z"/><path class="cls-5" d="M660.35,417.43v27.16l8.36-8.3h8l-11.15,10.78,12,14.9h-7.7l-8.49-10.84-.95.95V462h-5.93V417.43Z"/><path class="cls-5" d="M703.83,450.52h-18.4a7.78,7.78,0,0,0,2.05,5,6.29,6.29,0,0,0,4.67,1.85,6.11,6.11,0,0,0,3.67-1.06,15,15,0,0,0,3.24-3.9l5,2.79a20.3,20.3,0,0,1-2.45,3.39,13.19,13.19,0,0,1-2.77,2.32,11.06,11.06,0,0,1-3.19,1.33,15.62,15.62,0,0,1-3.72.43,12.07,12.07,0,0,1-9.23-3.7q-3.48-3.7-3.48-9.86a14.24,14.24,0,0,1,3.38-9.86,12.85,12.85,0,0,1,18-.1q3.27,3.58,3.27,9.94Zm-6.09-4.85c-.83-3.16-2.82-4.74-6-4.74a6.17,6.17,0,0,0-2,.33,5.88,5.88,0,0,0-1.72.94,6.13,6.13,0,0,0-1.33,1.49,7.09,7.09,0,0,0-.85,2Z"/><path class="cls-5" d="M732.91,436.29V451q0,6.39,5,6.39t5-6.39V436.29h5.93v14.87a16.5,16.5,0,0,1-.77,5.32,8.88,8.88,0,0,1-2.55,3.61,12.43,12.43,0,0,1-15.27,0,9,9,0,0,1-2.61-3.61,14.69,14.69,0,0,1-.74-5.32V436.29Z"/><path class="cls-5" d="M762.34,417.43V462h-5.93V417.43Z"/><path class="cls-5" d="M768.64,448.94a12.76,12.76,0,0,1,4-9.46,14,14,0,0,1,19.46,0,13.75,13.75,0,0,1,0,19.33,13.64,13.64,0,0,1-9.84,3.88,13.06,13.06,0,0,1-9.68-4A13.3,13.3,0,0,1,768.64,448.94Zm6.07.11a8.68,8.68,0,0,0,2,6.09,8,8,0,0,0,11.13,0,9.65,9.65,0,0,0,0-12,7.24,7.24,0,0,0-5.56-2.26,7.16,7.16,0,0,0-5.51,2.26A8.27,8.27,0,0,0,774.71,449.05Z"/><path class="cls-5" d="M804.42,436.29l6.65,14.42,6.61-14.42h6.68L811,463.73l-13.23-27.44Z"/><path class="cls-5" d="M834.77,417.43V462h-5.93V417.43Z"/><path class="cls-5" d="M841.39,425.61a3.88,3.88,0,0,1,3.85-3.83,3.73,3.73,0,0,1,2.74,1.14,3.62,3.62,0,0,1,1.13,2.71,3.73,3.73,0,0,1-1.13,2.75,3.67,3.67,0,0,1-2.72,1.13,3.86,3.86,0,0,1-3.87-3.9Zm6.83,10.68V462h-5.93V436.29Z"/><path class="cls-5" d="M880.57,461.36c0,1.21,0,2.28-.12,3.2a22.3,22.3,0,0,1-.33,2.44,10.85,10.85,0,0,1-2.48,5q-3.48,4-9.57,4a12.78,12.78,0,0,1-8.46-2.76,11.31,11.31,0,0,1-4-7.89h6a6.75,6.75,0,0,0,1.14,2.93,6.36,6.36,0,0,0,5.37,2.4q6.52,0,6.52-8v-3.59a11.09,11.09,0,0,1-8.15,3.62,11,11,0,0,1-8.6-3.8,14.09,14.09,0,0,1-3.37-9.63,14.82,14.82,0,0,1,3.14-9.54,10.9,10.9,0,0,1,8.91-4.17,10.37,10.37,0,0,1,8.07,3.62v-2.9h5.93Zm-5.69-12.18a8.64,8.64,0,0,0-2-6,6.6,6.6,0,0,0-5.19-2.29,6.39,6.39,0,0,0-5.33,2.5,9.1,9.1,0,0,0-1.77,5.81,9,9,0,0,0,1.77,5.74,6.39,6.39,0,0,0,5.33,2.46,6.54,6.54,0,0,0,5.38-2.48A8.86,8.86,0,0,0,874.88,449.18Z"/><path class="cls-5" d="M894.18,441.82V462h-5.94V441.82h-2.53v-5.53h2.53v-9.42h5.94v9.42h4.61v5.53Z"/><path class="cls-5" d="M938.42,436.29h6V462h-6v-2.69a11.39,11.39,0,0,1-16.69-.42,14.33,14.33,0,0,1-3.45-9.81,13.91,13.91,0,0,1,3.45-9.63,11.16,11.16,0,0,1,8.65-3.85,10.91,10.91,0,0,1,8,3.69Zm-14.08,12.76a8.94,8.94,0,0,0,2,6,6.49,6.49,0,0,0,5.11,2.35,6.81,6.81,0,0,0,5.33-2.27,9.76,9.76,0,0,0,0-11.92,6.7,6.7,0,0,0-5.27-2.29,6.55,6.55,0,0,0-5.12,2.32A8.55,8.55,0,0,0,924.34,449.05Z"/><path class="cls-5" d="M958,441.82V462h-5.93V441.82h-2.53v-5.53h2.53v-9.42H958v9.42h4.62v5.53Z"/><path class="cls-5" d="M983.3,436.29h5.93v2.37a12.2,12.2,0,0,1,2.93-2.43,7.08,7.08,0,0,1,3.24-.66,7.88,7.88,0,0,1,6.88,3.8,8.92,8.92,0,0,1,7.57-3.8q8.67,0,8.67,10.52V462h-6V447.7c0-2.46-.29-4.2-.89-5.22a3.25,3.25,0,0,0-3-1.55,3.87,3.87,0,0,0-3.58,1.84c-.74,1.23-1.12,3.21-1.12,5.93V462h-6V447.78c0-4.57-1.31-6.85-4-6.85a4,4,0,0,0-3.65,1.87c-.77,1.25-1.15,3.21-1.15,5.9V462H983.3Z"/><path class="cls-5" d="M1024.8,448.94a12.76,12.76,0,0,1,4-9.46,14,14,0,0,1,19.46,0,13.76,13.76,0,0,1,0,19.33,13.62,13.62,0,0,1-9.83,3.88,13,13,0,0,1-9.68-4A13.3,13.3,0,0,1,1024.8,448.94Zm6.06.11a8.69,8.69,0,0,0,2.06,6.09,8,8,0,0,0,11.13,0,9.65,9.65,0,0,0,0-12,7.92,7.92,0,0,0-11.08,0A8.31,8.31,0,0,0,1030.86,449.05Z"/><path class="cls-5" d="M1077.4,417.43h6V462h-6v-2.69a11.09,11.09,0,0,1-7.94,3.43,11.32,11.32,0,0,1-8.75-3.85,14.33,14.33,0,0,1-3.45-9.81,13.85,13.85,0,0,1,3.45-9.6,11.09,11.09,0,0,1,16.69-.19Zm-14.08,31.62a8.94,8.94,0,0,0,2,6,6.49,6.49,0,0,0,5.11,2.35,6.81,6.81,0,0,0,5.33-2.27,9.76,9.76,0,0,0,0-11.92,6.7,6.7,0,0,0-5.27-2.29,6.55,6.55,0,0,0-5.12,2.32A8.55,8.55,0,0,0,1063.32,449.05Z"/><path class="cls-5" d="M1097,441.82V462H1091V441.82h-2.53v-5.53H1091v-9.42H1097v9.42h4.61v5.53Z"/><path class="cls-5" d="M1125,436.29h6V462h-6v-2.69a11.39,11.39,0,0,1-16.69-.42,14.33,14.33,0,0,1-3.45-9.81,13.91,13.91,0,0,1,3.45-9.63,11.16,11.16,0,0,1,8.65-3.85,10.91,10.91,0,0,1,8,3.69Zm-14.08,12.76a8.94,8.94,0,0,0,2,6,6.49,6.49,0,0,0,5.11,2.35,6.81,6.81,0,0,0,5.33-2.27,9.76,9.76,0,0,0,0-11.92,6.7,6.7,0,0,0-5.27-2.29,6.55,6.55,0,0,0-5.12,2.32A8.55,8.55,0,0,0,1110.94,449.05Z"/><path class="cls-5" d="M1163.31,461.36c0,1.21,0,2.28-.12,3.2a22.3,22.3,0,0,1-.33,2.44,10.85,10.85,0,0,1-2.48,5q-3.48,4-9.57,4a12.82,12.82,0,0,1-8.47-2.76,11.34,11.34,0,0,1-3.95-7.89h6a6.75,6.75,0,0,0,1.13,2.93,6.37,6.37,0,0,0,5.38,2.4q6.51,0,6.51-8v-3.59a11.07,11.07,0,0,1-8.14,3.62,11,11,0,0,1-8.6-3.8,14.1,14.1,0,0,1-3.38-9.63,14.82,14.82,0,0,1,3.14-9.54,10.9,10.9,0,0,1,8.91-4.17,10.34,10.34,0,0,1,8.07,3.62v-2.9h5.94Zm-5.7-12.18a8.69,8.69,0,0,0-2-6,6.64,6.64,0,0,0-5.2-2.29,6.37,6.37,0,0,0-5.32,2.5,9.1,9.1,0,0,0-1.77,5.81,9,9,0,0,0,1.77,5.74,6.37,6.37,0,0,0,5.32,2.46,6.52,6.52,0,0,0,5.38-2.48A8.86,8.86,0,0,0,1157.61,449.18Z"/><path class="cls-5" d="M1194.18,450.52h-18.4a7.83,7.83,0,0,0,2,5,6.29,6.29,0,0,0,4.67,1.85,6.11,6.11,0,0,0,3.67-1.06,14.84,14.84,0,0,0,3.24-3.9l5,2.79a19.75,19.75,0,0,1-2.45,3.39,12.94,12.94,0,0,1-2.77,2.32,11.06,11.06,0,0,1-3.19,1.33,15.56,15.56,0,0,1-3.72.43,12.07,12.07,0,0,1-9.23-3.7q-3.48-3.7-3.48-9.86a14.24,14.24,0,0,1,3.38-9.86,12.85,12.85,0,0,1,18-.1q3.27,3.58,3.27,9.94Zm-6.09-4.85q-1.24-4.74-6-4.74a6.09,6.09,0,0,0-2,.33,5.8,5.8,0,0,0-1.73.94,6.13,6.13,0,0,0-1.33,1.49,7.09,7.09,0,0,0-.85,2Z"/><path class="cls-5" d="M1223.26,417.43v21.83a11,11,0,0,1,8.07-3.69,11.11,11.11,0,0,1,8.65,3.88,13.85,13.85,0,0,1,3.46,9.6,14.15,14.15,0,0,1-3.48,9.81,11.27,11.27,0,0,1-8.73,3.85,11.14,11.14,0,0,1-8-3.43V462h-5.93V417.43Zm14.11,31.88a8.9,8.9,0,0,0-2-6,6.43,6.43,0,0,0-5.09-2.37,6.82,6.82,0,0,0-5.33,2.29,9.76,9.76,0,0,0,0,11.89,6.65,6.65,0,0,0,5.27,2.3,6.52,6.52,0,0,0,5.11-2.3A8.39,8.39,0,0,0,1237.37,449.31Z"/><path class="cls-5" d="M1248.81,425.61a3.89,3.89,0,0,1,3.85-3.83,3.74,3.74,0,0,1,2.75,1.14,3.66,3.66,0,0,1,1.13,2.71,3.77,3.77,0,0,1-1.13,2.75,3.68,3.68,0,0,1-2.72,1.13,3.88,3.88,0,0,1-3.88-3.9Zm6.83,10.68V462h-5.93V436.29Z"/><path class="cls-5" d="M1269.09,417.43V462h-5.93V417.43Z"/><path class="cls-5" d="M1282.54,417.43V462h-5.93V417.43Z"/><path class="cls-5" d="M1313.44,450.52H1295a7.78,7.78,0,0,0,2,5,6.29,6.29,0,0,0,4.67,1.85,6.06,6.06,0,0,0,3.66-1.06,14.83,14.83,0,0,0,3.25-3.9l5,2.79a20.3,20.3,0,0,1-2.45,3.39,13.19,13.19,0,0,1-2.77,2.32,11.06,11.06,0,0,1-3.19,1.33,15.69,15.69,0,0,1-3.72.43,12.07,12.07,0,0,1-9.23-3.7q-3.48-3.7-3.48-9.86a14.23,14.23,0,0,1,3.37-9.86,12.86,12.86,0,0,1,18-.1q3.27,3.58,3.27,9.94Zm-6.09-4.85c-.83-3.16-2.82-4.74-6-4.74a6.17,6.17,0,0,0-2,.33,5.75,5.75,0,0,0-1.72.94,5.93,5.93,0,0,0-1.33,1.49,6.81,6.81,0,0,0-.85,2Z"/><path class="cls-5" d="M1338.86,417.43h6V462h-6v-2.69a11.09,11.09,0,0,1-7.94,3.43,11.32,11.32,0,0,1-8.75-3.85,14.34,14.34,0,0,1-3.46-9.81,13.85,13.85,0,0,1,3.46-9.6,11.09,11.09,0,0,1,16.69-.19Zm-14.08,31.62a8.94,8.94,0,0,0,2,6,6.47,6.47,0,0,0,5.11,2.35,6.83,6.83,0,0,0,5.33-2.27,9.76,9.76,0,0,0,0-11.92,6.72,6.72,0,0,0-5.28-2.29,6.53,6.53,0,0,0-5.11,2.32A8.55,8.55,0,0,0,1324.78,449.05Z"/><path class="cls-5" d="M1375.69,450.52h-18.4a7.79,7.79,0,0,0,2.06,5,6.25,6.25,0,0,0,4.66,1.85,6.11,6.11,0,0,0,3.67-1.06,14.84,14.84,0,0,0,3.24-3.9l5,2.79a19.75,19.75,0,0,1-2.45,3.39,12.94,12.94,0,0,1-2.77,2.32,10.94,10.94,0,0,1-3.19,1.33,15.56,15.56,0,0,1-3.72.43,12.07,12.07,0,0,1-9.23-3.7q-3.48-3.7-3.48-9.86a14.24,14.24,0,0,1,3.38-9.86,12.85,12.85,0,0,1,18-.1q3.27,3.58,3.27,9.94Zm-6.09-4.85c-.82-3.16-2.82-4.74-6-4.74a6.13,6.13,0,0,0-2,.33,5.8,5.8,0,0,0-1.73.94,6.13,6.13,0,0,0-1.33,1.49,7.09,7.09,0,0,0-.85,2Z"/><path class="cls-5" d="M1382.18,436.29h5.93v2.29a11.44,11.44,0,0,1,2.9-2.35,6.64,6.64,0,0,1,3.06-.66,9.6,9.6,0,0,1,4.91,1.53l-2.72,5.43a5.72,5.72,0,0,0-3.3-1.21q-4.85,0-4.85,7.33V462h-5.93Z"/><path class="cls-5" d="M1403.88,454.35l5.27,2-7.51,15.06-4-1.66Z"/><path class="cls-5" d="M1448.47,440.66l-4.91,2.61c-.77-1.58-1.73-2.37-2.87-2.37a2,2,0,0,0-1.4.54,1.79,1.79,0,0,0-.58,1.38c0,1,1.14,2,3.43,2.93,3.15,1.35,5.26,2.6,6.35,3.75a6.4,6.4,0,0,1,1.64,4.61,8.1,8.1,0,0,1-2.74,6.22,9.36,9.36,0,0,1-6.44,2.38q-6.45,0-9.15-6.31l5.07-2.34a10.73,10.73,0,0,0,1.6,2.34,3.68,3.68,0,0,0,2.59,1c2,0,3-.92,3-2.75,0-1.05-.77-2-2.32-3-.59-.3-1.19-.59-1.79-.87l-1.82-.87a11.25,11.25,0,0,1-3.64-2.53,6.26,6.26,0,0,1-1.34-4.14,7.33,7.33,0,0,1,2.29-5.54,8.05,8.05,0,0,1,5.7-2.19Q1446.06,435.57,1448.47,440.66Z"/><path class="cls-5" d="M1474.39,436.29h5.95V462h-5.95v-2.69a11.39,11.39,0,0,1-16.69-.42,14.29,14.29,0,0,1-3.46-9.81,13.87,13.87,0,0,1,3.46-9.63,11.14,11.14,0,0,1,8.64-3.85,11,11,0,0,1,8.05,3.69Zm-14.08,12.76a8.94,8.94,0,0,0,2,6,6.51,6.51,0,0,0,5.12,2.35,6.79,6.79,0,0,0,5.32-2.27,9.76,9.76,0,0,0,0-11.92,6.7,6.7,0,0,0-5.27-2.29,6.53,6.53,0,0,0-5.11,2.32A8.5,8.5,0,0,0,1460.31,449.05Zm2-22.55a5.41,5.41,0,0,1,1.68-4,5.73,5.73,0,1,1,8.1,8.12,5.44,5.44,0,0,1-4,1.69,5.53,5.53,0,0,1-4.08-1.69A5.65,5.65,0,0,1,1462.34,426.5Zm3.13.06a2.63,2.63,0,1,0,2.61-2.59,2.45,2.45,0,0,0-1,.21,2.56,2.56,0,0,0-.83.57,2.48,2.48,0,0,0-.56.83A2.56,2.56,0,0,0,1465.47,426.56Z"/><path class="cls-5" d="M452.29,482.23v44.54h-5.93V482.23Z"/><path class="cls-5" d="M499.91,515.24H481.4a8.13,8.13,0,0,0,2.16,5.07,6.23,6.23,0,0,0,4.64,1.9q4.07,0,6.72-5.15l5.12,2.85a17.35,17.35,0,0,1-1.82,2.82,10.59,10.59,0,0,1-2.11,2,13.54,13.54,0,0,1-8.2,2.77,12.9,12.9,0,0,1-9.31-4.11q-3.21,4.11-9.46,4.11a11.73,11.73,0,0,1-7.62-2.37,7.61,7.61,0,0,1-2.93-6.2,7.94,7.94,0,0,1,2.79-6.33,11,11,0,0,1,7.36-2.42,14.86,14.86,0,0,1,6.7,1.74q0-3.48-1.45-4.85t-5-1.4a25.47,25.47,0,0,0-6.85,1v-5.52a46.45,46.45,0,0,1,7.43-.79q6.27,0,9,3.62a11.84,11.84,0,0,1,9-3.62,11.71,11.71,0,0,1,9,3.62,13.43,13.43,0,0,1,3.38,9.57Zm-35.57,3.62a3,3,0,0,0,1.47,2.5,6.77,6.77,0,0,0,3.75,1,7.14,7.14,0,0,0,3.93-1,3.1,3.1,0,0,0,1.58-2.61,2.85,2.85,0,0,0-1.64-2.38,7.32,7.32,0,0,0-3.92-1,6.3,6.3,0,0,0-3.67,1A3,3,0,0,0,464.34,518.86Zm29.34-8.41q-1.08-4.72-5.77-4.72t-6.12,4.72Z"/><path class="cls-5" d="M506.29,501.09h6v2.37a9.7,9.7,0,0,1,7-3.09,8.86,8.86,0,0,1,7,2.82q2.16,2.4,2.16,7.84v15.74h-6V512.42q0-3.79-1.05-5.24c-.69-1-1.94-1.48-3.75-1.48a4.58,4.58,0,0,0-4.19,1.95c-.81,1.28-1.21,3.53-1.21,6.72v12.4h-6Z"/><path class="cls-5" d="M560.74,526.16c0,1.21,0,2.28-.12,3.2a22.3,22.3,0,0,1-.33,2.44,10.85,10.85,0,0,1-2.48,5q-3.48,4-9.57,4a12.82,12.82,0,0,1-8.47-2.76,11.34,11.34,0,0,1-3.95-7.89h6a6.75,6.75,0,0,0,1.13,2.93,6.38,6.38,0,0,0,5.38,2.4q6.51,0,6.51-8v-3.59a11.07,11.07,0,0,1-8.14,3.62,11,11,0,0,1-8.6-3.8,14.09,14.09,0,0,1-3.37-9.63,14.82,14.82,0,0,1,3.13-9.54,10.9,10.9,0,0,1,8.92-4.17A10.33,10.33,0,0,1,554.8,504v-2.9h5.94ZM555,514a8.69,8.69,0,0,0-2-6,6.64,6.64,0,0,0-5.2-2.29,6.37,6.37,0,0,0-5.32,2.5,9.1,9.1,0,0,0-1.77,5.81,9,9,0,0,0,1.77,5.74,6.38,6.38,0,0,0,5.32,2.46,6.52,6.52,0,0,0,5.38-2.48A8.86,8.86,0,0,0,555,514Z"/><path class="cls-5" d="M591.61,515.32h-18.4a7.83,7.83,0,0,0,2,5,6.29,6.29,0,0,0,4.67,1.85,6.11,6.11,0,0,0,3.67-1.06,14.84,14.84,0,0,0,3.24-3.9l5,2.79a19.75,19.75,0,0,1-2.45,3.39,12.94,12.94,0,0,1-2.77,2.32,11.06,11.06,0,0,1-3.19,1.33,15.56,15.56,0,0,1-3.72.43,12.07,12.07,0,0,1-9.23-3.7Q567,520.11,567,514a14.24,14.24,0,0,1,3.38-9.86,12.85,12.85,0,0,1,18-.1q3.27,3.58,3.27,9.94Zm-6.09-4.85c-.82-3.16-2.82-4.74-6-4.74a6.13,6.13,0,0,0-2,.33,5.8,5.8,0,0,0-1.73.94,6.13,6.13,0,0,0-1.33,1.49,7.09,7.09,0,0,0-.85,2Z"/><path class="cls-5" d="M633.69,482.23h6v44.54h-6v-2.69a11.07,11.07,0,0,1-7.93,3.43,11.33,11.33,0,0,1-8.76-3.85,14.33,14.33,0,0,1-3.45-9.81,13.86,13.86,0,0,1,3.45-9.6,11.05,11.05,0,0,1,8.63-3.88,10.94,10.94,0,0,1,8.06,3.69Zm-14.08,31.62a8.94,8.94,0,0,0,2,6,6.51,6.51,0,0,0,5.12,2.35,6.81,6.81,0,0,0,5.32-2.27A9.76,9.76,0,0,0,632,508a6.7,6.7,0,0,0-5.27-2.29,6.57,6.57,0,0,0-5.12,2.32A8.55,8.55,0,0,0,619.61,513.85Z"/><path class="cls-5" d="M653.07,501.09v14.73q0,6.39,5,6.39t5-6.39V501.09h5.93V516a16.5,16.5,0,0,1-.77,5.32,9,9,0,0,1-2.55,3.62,12.47,12.47,0,0,1-15.27,0,9.15,9.15,0,0,1-2.61-3.62,14.69,14.69,0,0,1-.74-5.32V501.09Z"/><path class="cls-5" d="M692.33,490.41a3.89,3.89,0,0,1,3.85-3.83,3.74,3.74,0,0,1,2.75,1.14,3.66,3.66,0,0,1,1.13,2.71,3.77,3.77,0,0,1-1.13,2.75,3.68,3.68,0,0,1-2.72,1.13,3.88,3.88,0,0,1-3.88-3.9Zm6.83,10.68v25.68h-5.93V501.09Z"/><path class="cls-5" d="M712.61,482.23v27.16l8.36-8.3h8l-11.15,10.78,12,14.9h-7.7l-8.49-10.84-.95,1v9.89h-5.93V482.23Z"/><path class="cls-5" d="M739.51,482.23v27.16l8.35-8.3h8l-11.16,10.78,12,14.9H749l-8.49-10.84-1,1v9.89h-5.94V482.23Z"/><path class="cls-5" d="M783,515.32H764.58a7.79,7.79,0,0,0,2.06,5,6.27,6.27,0,0,0,4.66,1.85,6.11,6.11,0,0,0,3.67-1.06,14.84,14.84,0,0,0,3.24-3.9l5,2.79a19.75,19.75,0,0,1-2.45,3.39,12.7,12.7,0,0,1-2.77,2.32,10.94,10.94,0,0,1-3.19,1.33,15.56,15.56,0,0,1-3.72.43,12,12,0,0,1-9.22-3.7q-3.5-3.7-3.49-9.86a14.24,14.24,0,0,1,3.38-9.86,12.85,12.85,0,0,1,18-.1q3.27,3.58,3.27,9.94Zm-6.1-4.85c-.82-3.16-2.82-4.74-6-4.74a6.13,6.13,0,0,0-2,.33,5.93,5.93,0,0,0-1.73.94,6.13,6.13,0,0,0-1.33,1.49,6.8,6.8,0,0,0-.84,2Z"/><path class="cls-5" d="M831,526.16c0,1.21,0,2.28-.12,3.2a20.25,20.25,0,0,1-.32,2.44,10.94,10.94,0,0,1-2.48,5q-3.48,4-9.57,4A12.82,12.82,0,0,1,810,538a11.34,11.34,0,0,1-4-7.89h6a6.63,6.63,0,0,0,1.13,2.93,6.37,6.37,0,0,0,5.38,2.4q6.51,0,6.51-8v-3.59a11.07,11.07,0,0,1-8.15,3.62,10.94,10.94,0,0,1-8.59-3.8,14.1,14.1,0,0,1-3.38-9.63,14.82,14.82,0,0,1,3.14-9.54,10.9,10.9,0,0,1,8.91-4.17A10.34,10.34,0,0,1,825,504v-2.9H831ZM825.28,514a8.64,8.64,0,0,0-2-6,6.6,6.6,0,0,0-5.19-2.29,6.39,6.39,0,0,0-5.33,2.5A9.16,9.16,0,0,0,811,514a9,9,0,0,0,1.76,5.74,6.4,6.4,0,0,0,5.33,2.46,6.52,6.52,0,0,0,5.38-2.48A8.86,8.86,0,0,0,825.28,514Z"/><path class="cls-5" d="M861.85,515.32h-18.4a7.78,7.78,0,0,0,2,5,6.28,6.28,0,0,0,4.67,1.85,6.06,6.06,0,0,0,3.66-1.06,15,15,0,0,0,3.25-3.9l5,2.79a19.77,19.77,0,0,1-2.46,3.39,12.89,12.89,0,0,1-2.76,2.32,11.06,11.06,0,0,1-3.19,1.33,15.69,15.69,0,0,1-3.72.43,12.07,12.07,0,0,1-9.23-3.7q-3.48-3.7-3.48-9.86a14.23,14.23,0,0,1,3.37-9.86,12.86,12.86,0,0,1,18-.1q3.27,3.58,3.27,9.94Zm-6.09-4.85c-.83-3.16-2.82-4.74-6-4.74a6.17,6.17,0,0,0-2,.33A5.75,5.75,0,0,0,846,507a6.17,6.17,0,0,0-1.34,1.49,7.08,7.08,0,0,0-.84,2Z"/><path class="cls-5" d="M868.34,501.09h5.93v2.37A12.2,12.2,0,0,1,877.2,501a7.08,7.08,0,0,1,3.24-.66,7.88,7.88,0,0,1,6.88,3.8,8.92,8.92,0,0,1,7.57-3.8q8.67,0,8.67,10.52v15.88h-6V512.5a11.12,11.12,0,0,0-.89-5.22,3.25,3.25,0,0,0-3-1.55,3.87,3.87,0,0,0-3.57,1.84Q889,509.42,889,513.5v13.27h-6V512.58q0-6.86-3.95-6.85a4,4,0,0,0-3.65,1.87c-.77,1.25-1.15,3.21-1.15,5.9v13.27h-5.93Z"/><path class="cls-5" d="M911.05,501.09H917v2.37a12.39,12.39,0,0,1,2.93-2.43,7.08,7.08,0,0,1,3.24-.66,7.89,7.89,0,0,1,6.89,3.8,8.9,8.9,0,0,1,7.56-3.8q8.68,0,8.68,10.52v15.88h-6V512.5a11,11,0,0,0-.9-5.22,3.23,3.23,0,0,0-3-1.55,3.85,3.85,0,0,0-3.57,1.84q-1.12,1.85-1.12,5.93v13.27h-6V512.58q0-6.86-4-6.85a4,4,0,0,0-3.65,1.87,11.7,11.7,0,0,0-1.15,5.9v13.27h-5.93Z"/><path class="cls-5" d="M977.15,515.32h-18.4a7.79,7.79,0,0,0,2.06,5,6.25,6.25,0,0,0,4.66,1.85,6.11,6.11,0,0,0,3.67-1.06,14.84,14.84,0,0,0,3.24-3.9l5,2.79a19.75,19.75,0,0,1-2.45,3.39,12.94,12.94,0,0,1-2.77,2.32,10.94,10.94,0,0,1-3.19,1.33,15.56,15.56,0,0,1-3.72.43,12.07,12.07,0,0,1-9.23-3.7q-3.48-3.7-3.48-9.86a14.24,14.24,0,0,1,3.38-9.86,12.85,12.85,0,0,1,18-.1q3.27,3.58,3.27,9.94Zm-6.09-4.85c-.82-3.16-2.82-4.74-6-4.74a6.13,6.13,0,0,0-2,.33,5.8,5.8,0,0,0-1.73.94,6.13,6.13,0,0,0-1.33,1.49,7.09,7.09,0,0,0-.85,2Z"/><path class="cls-5" d="M983.64,501.09h5.93v2.29a11.44,11.44,0,0,1,2.9-2.35,6.64,6.64,0,0,1,3.06-.66,9.6,9.6,0,0,1,4.91,1.53l-2.72,5.43a5.72,5.72,0,0,0-3.3-1.21q-4.84,0-4.85,7.33v13.32h-5.93Z"/><path class="cls-5" d="M1039.43,482.23h6v44.54h-6v-2.69a11.09,11.09,0,0,1-7.93,3.43,11.33,11.33,0,0,1-8.76-3.85,14.33,14.33,0,0,1-3.45-9.81,13.86,13.86,0,0,1,3.45-9.6,11.09,11.09,0,0,1,16.69-.19Zm-14.08,31.62a8.94,8.94,0,0,0,2,6,6.49,6.49,0,0,0,5.12,2.35,6.81,6.81,0,0,0,5.32-2.27,9.76,9.76,0,0,0,0-11.92,6.7,6.7,0,0,0-5.27-2.29,6.55,6.55,0,0,0-5.12,2.32A8.55,8.55,0,0,0,1025.35,513.85Z"/><path class="cls-5" d="M1076.27,515.32h-18.41a7.84,7.84,0,0,0,2.06,5,6.28,6.28,0,0,0,4.67,1.85,6.08,6.08,0,0,0,3.66-1.06,15,15,0,0,0,3.25-3.9l5,2.79a19.75,19.75,0,0,1-2.45,3.39,12.7,12.7,0,0,1-2.77,2.32,10.83,10.83,0,0,1-3.19,1.33,15.54,15.54,0,0,1-3.71.43,12.05,12.05,0,0,1-9.23-3.7q-3.48-3.7-3.48-9.86a14.23,14.23,0,0,1,3.37-9.86,11.65,11.65,0,0,1,9-3.72,11.51,11.51,0,0,1,9,3.62q3.27,3.58,3.27,9.94Zm-6.09-4.85c-.83-3.16-2.82-4.74-6-4.74a6.13,6.13,0,0,0-2,.33,5.93,5.93,0,0,0-1.73.94,6.34,6.34,0,0,0-1.33,1.49,6.8,6.8,0,0,0-.84,2Z"/><path class="cls-5" d="M1082.75,501.09h5.94v2.37a12.19,12.19,0,0,1,2.92-2.43,7.12,7.12,0,0,1,3.25-.66,7.88,7.88,0,0,1,6.88,3.8,8.9,8.9,0,0,1,7.57-3.8q8.67,0,8.67,10.52v15.88h-6V512.5a11,11,0,0,0-.9-5.22,3.23,3.23,0,0,0-3-1.55,3.87,3.87,0,0,0-3.57,1.84q-1.12,1.85-1.12,5.93v13.27h-6V512.58q0-6.86-4-6.85a4,4,0,0,0-3.66,1.87c-.76,1.25-1.14,3.21-1.14,5.9v13.27h-5.94Z"/><path class="cls-5" d="M1165.52,515.32h-18.4a7.78,7.78,0,0,0,2.05,5,6.29,6.29,0,0,0,4.67,1.85,6.06,6.06,0,0,0,3.66-1.06,14.83,14.83,0,0,0,3.25-3.9l5,2.79a20.3,20.3,0,0,1-2.45,3.39,13.19,13.19,0,0,1-2.77,2.32,11.06,11.06,0,0,1-3.19,1.33,15.69,15.69,0,0,1-3.72.43,12.07,12.07,0,0,1-9.23-3.7q-3.48-3.7-3.48-9.86a14.23,14.23,0,0,1,3.37-9.86,12.86,12.86,0,0,1,18-.1q3.27,3.58,3.27,9.94Zm-6.09-4.85c-.83-3.16-2.82-4.74-6-4.74a6.17,6.17,0,0,0-2,.33,5.82,5.82,0,0,0-3.05,2.43,7.09,7.09,0,0,0-.85,2Z"/><path class="cls-5" d="M1177.94,482.23v44.54H1172V482.23Z"/><path class="cls-5" d="M1191.39,482.23v44.54h-5.94V482.23Z"/><path class="cls-5" d="M1222.29,515.32h-18.41a7.84,7.84,0,0,0,2.06,5,6.28,6.28,0,0,0,4.67,1.85,6.08,6.08,0,0,0,3.66-1.06,15,15,0,0,0,3.25-3.9l5,2.79a19.77,19.77,0,0,1-2.46,3.39,12.89,12.89,0,0,1-2.76,2.32,11.06,11.06,0,0,1-3.19,1.33,15.69,15.69,0,0,1-3.72.43,12.07,12.07,0,0,1-9.23-3.7q-3.48-3.7-3.48-9.86a14.23,14.23,0,0,1,3.37-9.86,12.86,12.86,0,0,1,18-.1q3.27,3.58,3.27,9.94Zm-6.09-4.85c-.83-3.16-2.82-4.74-6-4.74a6.17,6.17,0,0,0-2,.33,5.75,5.75,0,0,0-1.72.94,6.17,6.17,0,0,0-1.34,1.49,6.8,6.8,0,0,0-.84,2Z"/><path class="cls-5" d="M1228.78,501.09h5.93v2.29a11.27,11.27,0,0,1,2.9-2.35,6.64,6.64,0,0,1,3.06-.66,9.56,9.56,0,0,1,4.9,1.53l-2.71,5.43a5.75,5.75,0,0,0-3.3-1.21q-4.85,0-4.85,7.33v13.32h-5.93Z"/><path class="cls-5" d="M1280.56,505.46l-4.9,2.61q-1.17-2.37-2.88-2.37a2,2,0,0,0-1.4.54,1.83,1.83,0,0,0-.58,1.38c0,1,1.15,2,3.43,2.93,3.15,1.36,5.27,2.6,6.36,3.75a6.4,6.4,0,0,1,1.63,4.61,8.07,8.07,0,0,1-2.74,6.22,9.35,9.35,0,0,1-6.43,2.38q-6.46,0-9.15-6.31l5.06-2.34a10.66,10.66,0,0,0,1.61,2.34,3.66,3.66,0,0,0,2.58,1c2,0,3-.92,3-2.75,0-1.05-.78-2-2.32-3q-.9-.45-1.8-.87l-1.82-.87a11.08,11.08,0,0,1-3.63-2.53,6.21,6.21,0,0,1-1.35-4.14,7.34,7.34,0,0,1,2.3-5.54,8,8,0,0,1,5.69-2.19Q1278.17,500.37,1280.56,505.46Z"/><path class="cls-5" d="M1310.94,515.32h-18.41a7.84,7.84,0,0,0,2.06,5,6.27,6.27,0,0,0,4.66,1.85,6.11,6.11,0,0,0,3.67-1.06,14.84,14.84,0,0,0,3.24-3.9l5,2.79a19.75,19.75,0,0,1-2.45,3.39,12.7,12.7,0,0,1-2.77,2.32,10.94,10.94,0,0,1-3.19,1.33,15.56,15.56,0,0,1-3.72.43,12,12,0,0,1-9.22-3.7q-3.48-3.7-3.49-9.86a14.24,14.24,0,0,1,3.38-9.86,11.63,11.63,0,0,1,9-3.72,11.51,11.51,0,0,1,9,3.62q3.27,3.58,3.27,9.94Zm-6.1-4.85c-.82-3.16-2.82-4.74-6-4.74a6.13,6.13,0,0,0-2,.33,5.93,5.93,0,0,0-1.73.94,6.13,6.13,0,0,0-1.33,1.49,6.8,6.8,0,0,0-.84,2Z"/><path class="cls-5" d="M1317.42,501.09h6v2.37a9.72,9.72,0,0,1,7-3.09,8.86,8.86,0,0,1,7,2.82q2.16,2.4,2.16,7.84v15.74h-6V512.42q0-3.79-1-5.24c-.69-1-1.93-1.48-3.74-1.48a4.6,4.6,0,0,0-4.2,1.95c-.8,1.28-1.21,3.53-1.21,6.72v12.4h-6Z"/><path class="cls-5" d="M1366,482.23h6v44.54h-6v-2.69a11.07,11.07,0,0,1-7.93,3.43,11.33,11.33,0,0,1-8.76-3.85,14.33,14.33,0,0,1-3.45-9.81,13.86,13.86,0,0,1,3.45-9.6,11.05,11.05,0,0,1,8.63-3.88,10.94,10.94,0,0,1,8.06,3.69Zm-14.08,31.62a8.94,8.94,0,0,0,2,6,6.49,6.49,0,0,0,5.12,2.35,6.81,6.81,0,0,0,5.32-2.27,9.76,9.76,0,0,0,0-11.92,6.7,6.7,0,0,0-5.27-2.29,6.57,6.57,0,0,0-5.12,2.32A8.55,8.55,0,0,0,1351.88,513.85Z"/><path class="cls-5" d="M1402.8,515.32h-18.41a7.84,7.84,0,0,0,2.06,5,6.28,6.28,0,0,0,4.67,1.85,6.08,6.08,0,0,0,3.66-1.06,15,15,0,0,0,3.25-3.9l5,2.79a19.77,19.77,0,0,1-2.46,3.39,12.89,12.89,0,0,1-2.76,2.32,11,11,0,0,1-3.2,1.33,15.54,15.54,0,0,1-3.71.43,12.07,12.07,0,0,1-9.23-3.7q-3.48-3.7-3.48-9.86a14.23,14.23,0,0,1,3.37-9.86,12.86,12.86,0,0,1,18-.1q3.27,3.58,3.27,9.94Zm-6.09-4.85c-.83-3.16-2.82-4.74-6-4.74a6.17,6.17,0,0,0-2,.33,5.75,5.75,0,0,0-1.72.94,6.17,6.17,0,0,0-1.34,1.49,6.8,6.8,0,0,0-.84,2Z"/><path class="cls-5" d="M1409.29,501.09h5.93v2.29a11.27,11.27,0,0,1,2.9-2.35,6.64,6.64,0,0,1,3.06-.66,9.56,9.56,0,0,1,4.9,1.53l-2.71,5.43a5.75,5.75,0,0,0-3.3-1.21q-4.86,0-4.85,7.33v13.32h-5.93Z"/><path class="cls-5" d="M465.29,547h6v44.54h-6v-2.69a11.1,11.1,0,0,1-7.94,3.42,11.3,11.3,0,0,1-8.75-3.84,14.29,14.29,0,0,1-3.46-9.81,13.81,13.81,0,0,1,3.46-9.6,11.08,11.08,0,0,1,16.69-.18Zm-14.08,31.62a9,9,0,0,0,2,6A6.51,6.51,0,0,0,458.3,587a6.83,6.83,0,0,0,5.33-2.27,9.76,9.76,0,0,0,0-11.92,6.73,6.73,0,0,0-5.28-2.29,6.53,6.53,0,0,0-5.11,2.32A8.5,8.5,0,0,0,451.21,578.65Z"/><path class="cls-5" d="M502.12,580.12h-18.4a7.83,7.83,0,0,0,2,5,6.29,6.29,0,0,0,4.67,1.85,6.11,6.11,0,0,0,3.67-1.06,14.84,14.84,0,0,0,3.24-3.9l5,2.79a19.75,19.75,0,0,1-2.45,3.39,12.94,12.94,0,0,1-2.77,2.32,11.06,11.06,0,0,1-3.19,1.33,15.58,15.58,0,0,1-3.72.42,12.06,12.06,0,0,1-9.23-3.69q-3.48-3.72-3.48-9.86a14.24,14.24,0,0,1,3.38-9.86,12.85,12.85,0,0,1,18-.1q3.27,3.59,3.27,9.94ZM496,575.27c-.82-3.16-2.82-4.74-6-4.74a6.13,6.13,0,0,0-2,.33,5.8,5.8,0,0,0-1.73.94,6.13,6.13,0,0,0-1.33,1.49,7.22,7.22,0,0,0-.85,2Z"/><path class="cls-5" d="M508.61,565.88h5.93v2.38a12.2,12.2,0,0,1,2.93-2.43,7.08,7.08,0,0,1,3.24-.66,7.87,7.87,0,0,1,6.88,3.8,8.93,8.93,0,0,1,7.57-3.8q8.67,0,8.67,10.52v15.88h-6V577.3a11,11,0,0,0-.9-5.22,3.25,3.25,0,0,0-3-1.55,3.87,3.87,0,0,0-3.58,1.84c-.74,1.23-1.12,3.21-1.12,5.93v13.27h-6V577.38c0-4.57-1.31-6.85-3.95-6.85a4,4,0,0,0-3.65,1.87q-1.16,1.88-1.15,5.9v13.27h-5.93Z"/><path class="cls-5" d="M571.18,565.88l6.64,14.43,6.62-14.43h6.67l-13.34,27.45-13.24-27.45Z"/><path class="cls-5" d="M594.22,555.21a3.89,3.89,0,0,1,3.85-3.83,3.71,3.71,0,0,1,2.74,1.14,3.63,3.63,0,0,1,1.14,2.71,3.71,3.71,0,0,1-1.14,2.74,3.62,3.62,0,0,1-2.71,1.14,3.89,3.89,0,0,1-3.88-3.9Zm6.83,10.67v25.69h-5.93V565.88Z"/><path class="cls-5" d="M627.5,547h6v44.54h-6v-2.69a11.1,11.1,0,0,1-7.94,3.42,11.31,11.31,0,0,1-8.75-3.84,14.29,14.29,0,0,1-3.46-9.81,13.81,13.81,0,0,1,3.46-9.6,11.08,11.08,0,0,1,16.69-.18Zm-14.08,31.62a8.94,8.94,0,0,0,2,6,6.47,6.47,0,0,0,5.11,2.35,6.83,6.83,0,0,0,5.33-2.27,9.76,9.76,0,0,0,0-11.92,6.72,6.72,0,0,0-5.28-2.29,6.53,6.53,0,0,0-5.11,2.32A8.5,8.5,0,0,0,613.42,578.65Z"/><path class="cls-5" d="M664.33,580.12h-18.4a7.79,7.79,0,0,0,2.06,5,6.25,6.25,0,0,0,4.66,1.85,6.11,6.11,0,0,0,3.67-1.06,14.84,14.84,0,0,0,3.24-3.9l5,2.79a19.75,19.75,0,0,1-2.45,3.39,12.94,12.94,0,0,1-2.77,2.32,10.94,10.94,0,0,1-3.19,1.33,15.58,15.58,0,0,1-3.72.42,12.06,12.06,0,0,1-9.23-3.69q-3.48-3.72-3.48-9.86a14.24,14.24,0,0,1,3.38-9.86,12.85,12.85,0,0,1,18-.1q3.27,3.59,3.27,9.94Zm-6.09-4.85c-.82-3.16-2.82-4.74-6-4.74a6.13,6.13,0,0,0-2,.33,5.8,5.8,0,0,0-1.73.94,6.13,6.13,0,0,0-1.33,1.49,7.22,7.22,0,0,0-.85,2Z"/><path class="cls-5" d="M670.82,565.88h5.93v2.3a11.44,11.44,0,0,1,2.9-2.35,6.64,6.64,0,0,1,3.06-.66,9.6,9.6,0,0,1,4.91,1.53l-2.72,5.43a5.72,5.72,0,0,0-3.3-1.21q-4.85,0-4.85,7.33v13.32h-5.93Z"/><path class="cls-5" d="M714,580.12H695.63a7.79,7.79,0,0,0,2.06,5,6.27,6.27,0,0,0,4.66,1.85A6.11,6.11,0,0,0,706,586a14.84,14.84,0,0,0,3.24-3.9l5,2.79a19.75,19.75,0,0,1-2.45,3.39,12.7,12.7,0,0,1-2.77,2.32,10.94,10.94,0,0,1-3.19,1.33,15.58,15.58,0,0,1-3.72.42,12,12,0,0,1-9.22-3.69q-3.49-3.72-3.49-9.86a14.24,14.24,0,0,1,3.38-9.86,12.85,12.85,0,0,1,18-.1q3.27,3.59,3.27,9.94Zm-6.1-4.85c-.82-3.16-2.82-4.74-6-4.74a6.13,6.13,0,0,0-2,.33,5.93,5.93,0,0,0-1.73.94,6.13,6.13,0,0,0-1.33,1.49,6.91,6.91,0,0,0-.84,2Z"/><path class="cls-5" d="M743.3,571.42v20.15h-5.93V571.42h-2.53v-5.54h2.53v-9.41h5.93v9.41h4.62v5.54Z"/><path class="cls-5" d="M751.05,555.21a3.89,3.89,0,0,1,3.85-3.83,3.74,3.74,0,0,1,2.75,1.14,3.66,3.66,0,0,1,1.13,2.71,3.74,3.74,0,0,1-1.13,2.74,3.65,3.65,0,0,1-2.72,1.14,3.89,3.89,0,0,1-3.88-3.9Zm6.83,10.67v25.69H752V565.88Z"/><path class="cls-5" d="M771.33,547v44.54H765.4V547Z"/><path class="cls-5" d="M814.44,565.88h6v25.69h-6v-2.69a11.41,11.41,0,0,1-16.69-.42,14.33,14.33,0,0,1-3.45-9.81,13.91,13.91,0,0,1,3.45-9.63,11.16,11.16,0,0,1,8.65-3.85,10.89,10.89,0,0,1,8,3.7Zm-14.08,12.77a8.94,8.94,0,0,0,2,6,6.49,6.49,0,0,0,5.11,2.35,6.81,6.81,0,0,0,5.33-2.27,9.76,9.76,0,0,0,0-11.92,6.7,6.7,0,0,0-5.27-2.29,6.55,6.55,0,0,0-5.12,2.32A8.55,8.55,0,0,0,800.36,578.65Z"/><path class="cls-5" d="M827.89,565.88h6v2.38a9.7,9.7,0,0,1,7-3.09,8.86,8.86,0,0,1,7,2.82c1.44,1.6,2.16,4.22,2.16,7.84v15.74h-6V577.22q0-3.79-1-5.24c-.69-1-1.94-1.48-3.75-1.48a4.58,4.58,0,0,0-4.19,2q-1.21,1.92-1.21,6.72v12.4h-6Z"/><path class="cls-5" d="M876.43,547h6v44.54h-6v-2.69a11.08,11.08,0,0,1-7.94,3.42,11.31,11.31,0,0,1-8.75-3.84,14.33,14.33,0,0,1-3.45-9.81,13.85,13.85,0,0,1,3.45-9.6,11.08,11.08,0,0,1,16.69-.18Zm-14.08,31.62a8.94,8.94,0,0,0,2,6,6.49,6.49,0,0,0,5.11,2.35,6.81,6.81,0,0,0,5.33-2.27,9.76,9.76,0,0,0,0-11.92,6.7,6.7,0,0,0-5.27-2.29,6.55,6.55,0,0,0-5.12,2.32A8.55,8.55,0,0,0,862.35,578.65Z"/><path class="cls-5" d="M889.88,565.88h5.93v2.3a11.44,11.44,0,0,1,2.9-2.35,6.64,6.64,0,0,1,3.06-.66,9.56,9.56,0,0,1,4.9,1.53L904,572.13a5.75,5.75,0,0,0-3.3-1.21q-4.85,0-4.85,7.33v13.32h-5.93Z"/><path class="cls-5" d="M933.09,580.12h-18.4a7.79,7.79,0,0,0,2.06,5,6.25,6.25,0,0,0,4.66,1.85,6.11,6.11,0,0,0,3.67-1.06,14.84,14.84,0,0,0,3.24-3.9l5,2.79a19.75,19.75,0,0,1-2.45,3.39,12.94,12.94,0,0,1-2.77,2.32,10.94,10.94,0,0,1-3.19,1.33,15.58,15.58,0,0,1-3.72.42,12.06,12.06,0,0,1-9.23-3.69q-3.48-3.72-3.48-9.86a14.24,14.24,0,0,1,3.38-9.86,12.85,12.85,0,0,1,18-.1q3.27,3.59,3.27,9.94ZM927,575.27c-.82-3.16-2.82-4.74-6-4.74a6.13,6.13,0,0,0-2,.33,5.8,5.8,0,0,0-1.73.94,6.13,6.13,0,0,0-1.33,1.49,7.22,7.22,0,0,0-.85,2Z"/><path class="cls-5" d="M940.5,588.61a3.49,3.49,0,0,1,1.08-2.55,3.66,3.66,0,1,1,5.17,5.19,3.51,3.51,0,0,1-2.58,1,3.6,3.6,0,0,1-3.67-3.69Z"/><path class="cls-5" d="M446.07,721.17l8.56-43.77,14,31.64,14.47-31.64,7.7,43.77h-6.3l-3.93-24.58L468.5,723l-11.7-26.47-4.38,24.6Z"/><path class="cls-5" d="M521.87,686.23H505.55V696H521.4v5.78H505.55v13.6h16.32v5.78H499.41V680.46h22.46Z"/><path class="cls-5" d="M529.94,721.17V677.69l29.69,31.06V680.46h6.14v43.19l-29.69-31v28.51Z"/><path class="cls-5" d="M575.48,718.21a3.67,3.67,0,0,1,7.33,0,3.69,3.69,0,0,1-6.28,2.61A3.58,3.58,0,0,1,575.48,718.21Zm17,0a3.69,3.69,0,0,1,3.66-3.63,3.67,3.67,0,0,1,2.61,6.27,3.52,3.52,0,0,1-2.58,1.06,3.55,3.55,0,0,1-2.61-1.06A3.59,3.59,0,0,1,592.46,718.21Zm17,0a3.49,3.49,0,0,1,1.08-2.55,3.66,3.66,0,1,1,5.17,5.19,3.49,3.49,0,0,1-2.56,1.06,3.65,3.65,0,0,1-3.69-3.7Z"/><path class="cls-5" d="M643.19,721.17V680.46h8.54a31,31,0,0,1,9.7,1.21,18.17,18.17,0,0,1,6.94,4q6.3,5.76,6.3,15.11A19.3,19.3,0,0,1,668.1,716a19.1,19.1,0,0,1-6.9,4,31.35,31.35,0,0,1-9.58,1.14Zm6.14-5.78h2.77a23.1,23.1,0,0,0,6.88-.87,13.94,13.94,0,0,0,9.49-13.71A14.14,14.14,0,0,0,664,690q-4-3.72-11.89-3.72h-2.77Z"/><path class="cls-5" d="M687.19,695.49v14.73q0,6.39,5,6.39t5-6.39V695.49h5.93v14.87a16.5,16.5,0,0,1-.77,5.32,8.88,8.88,0,0,1-2.55,3.61,12.43,12.43,0,0,1-15.27,0,9,9,0,0,1-2.61-3.61,14.69,14.69,0,0,1-.74-5.32V695.49Z"/><path class="cls-5" d="M733.28,676.63v27.16l8.36-8.3h8l-11.15,10.78,12,14.9h-7.7l-8.49-10.84-1,.95v9.89h-5.93V676.63Z"/><path class="cls-5" d="M760.34,695.49v14.73c0,4.26,1.67,6.39,5,6.39s5-2.13,5-6.39V695.49h5.93v14.87a16.52,16.52,0,0,1-.76,5.32,9,9,0,0,1-2.56,3.61,12.43,12.43,0,0,1-15.27,0,9,9,0,0,1-2.61-3.61,14.69,14.69,0,0,1-.74-5.32V695.49Z"/><path class="cls-5" d="M783.83,695.49h6v2.37a9.7,9.7,0,0,1,7-3.09,8.86,8.86,0,0,1,7,2.82Q806,700,806,705.43v15.74h-6V706.82q0-3.8-1-5.24c-.69-1-1.94-1.48-3.75-1.48a4.58,4.58,0,0,0-4.19,1.95c-.81,1.28-1.21,3.53-1.21,6.72v12.4h-6Z"/><path class="cls-5" d="M813.44,695.49h6v2.37a9.7,9.7,0,0,1,7-3.09,8.86,8.86,0,0,1,7,2.82q2.16,2.4,2.16,7.84v15.74h-6V706.82q0-3.8-1.05-5.24c-.69-1-1.94-1.48-3.75-1.48a4.58,4.58,0,0,0-4.19,1.95c-.81,1.28-1.21,3.53-1.21,6.72v12.4h-6Z"/><path class="cls-5" d="M866.44,709.72H848a7.84,7.84,0,0,0,2.06,5,6.28,6.28,0,0,0,4.67,1.85,6.08,6.08,0,0,0,3.66-1.06,15,15,0,0,0,3.25-3.9l5,2.79a19.75,19.75,0,0,1-2.45,3.39,13,13,0,0,1-2.77,2.32,10.83,10.83,0,0,1-3.19,1.33,15.54,15.54,0,0,1-3.71.43,12.05,12.05,0,0,1-9.23-3.7q-3.48-3.71-3.48-9.86a14.23,14.23,0,0,1,3.37-9.86,11.65,11.65,0,0,1,9-3.72,11.51,11.51,0,0,1,9,3.62q3.27,3.58,3.27,9.94Zm-6.09-4.85c-.83-3.16-2.82-4.74-6-4.74a6.13,6.13,0,0,0-2,.33,5.93,5.93,0,0,0-1.73.94,6.13,6.13,0,0,0-1.33,1.49,6.8,6.8,0,0,0-.84,2Z"/><path class="cls-5" d="M889.59,676.63h5.93v21a10.22,10.22,0,0,1,7-2.85,9,9,0,0,1,7,2.82c1.48,1.64,2.21,4.25,2.21,7.84v15.74h-5.93V706a7.23,7.23,0,0,0-1.09-4.47,4.23,4.23,0,0,0-3.52-1.38q-3.12,0-4.38,1.92t-1.24,6.7v12.42h-5.93Z"/><path class="cls-5" d="M938.13,695.49h6v25.68h-6v-2.69a11.39,11.39,0,0,1-16.69-.42,14.33,14.33,0,0,1-3.45-9.81,13.91,13.91,0,0,1,3.45-9.63,11.14,11.14,0,0,1,8.65-3.85,10.91,10.91,0,0,1,8,3.69Zm-14.08,12.76a8.94,8.94,0,0,0,2,6,6.49,6.49,0,0,0,5.11,2.35,6.81,6.81,0,0,0,5.33-2.27,9.76,9.76,0,0,0,0-11.92,6.7,6.7,0,0,0-5.27-2.29,6.55,6.55,0,0,0-5.12,2.32A8.55,8.55,0,0,0,924.05,708.25Z"/><path class="cls-5" d="M955.24,695.49l6.65,14.42,6.61-14.42h6.68l-13.35,27.44L948.6,695.49Z"/><path class="cls-5" d="M998.12,676.63h6v44.54h-6v-2.69a11.11,11.11,0,0,1-7.94,3.43,11.34,11.34,0,0,1-8.76-3.85,14.33,14.33,0,0,1-3.45-9.81,13.86,13.86,0,0,1,3.45-9.6,11.1,11.1,0,0,1,16.7-.19ZM984,708.25a8.94,8.94,0,0,0,2,6,6.51,6.51,0,0,0,5.12,2.35,6.79,6.79,0,0,0,5.32-2.27,9.76,9.76,0,0,0,0-11.92,6.7,6.7,0,0,0-5.27-2.29,6.53,6.53,0,0,0-5.11,2.32A8.5,8.5,0,0,0,984,708.25Z"/><path class="cls-5" d="M1035,709.72h-18.4a7.78,7.78,0,0,0,2.05,5,6.29,6.29,0,0,0,4.67,1.85,6.06,6.06,0,0,0,3.66-1.06,15,15,0,0,0,3.25-3.9l5,2.79a20.3,20.3,0,0,1-2.45,3.39,13.5,13.5,0,0,1-2.77,2.32,11.06,11.06,0,0,1-3.19,1.33,15.69,15.69,0,0,1-3.72.43,12.07,12.07,0,0,1-9.23-3.7q-3.48-3.71-3.48-9.86a14.23,14.23,0,0,1,3.37-9.86,12.86,12.86,0,0,1,18-.1q3.27,3.58,3.27,9.94Zm-6.09-4.85c-.83-3.16-2.82-4.74-6-4.74a6.17,6.17,0,0,0-2,.33,5.75,5.75,0,0,0-1.72.94,5.93,5.93,0,0,0-1.33,1.49,6.81,6.81,0,0,0-.85,2Z"/><path class="cls-5" d="M1082.94,720.56c0,1.21,0,2.28-.12,3.2a22.3,22.3,0,0,1-.33,2.44,10.85,10.85,0,0,1-2.48,5q-3.48,4-9.57,4a12.78,12.78,0,0,1-8.46-2.76,11.31,11.31,0,0,1-4-7.89h6a6.88,6.88,0,0,0,1.13,2.93,6.38,6.38,0,0,0,5.38,2.4q6.51,0,6.52-8v-3.59a11.1,11.1,0,0,1-8.15,3.62,11,11,0,0,1-8.6-3.8,14.09,14.09,0,0,1-3.37-9.63,14.77,14.77,0,0,1,3.14-9.54,10.9,10.9,0,0,1,8.91-4.17,10.37,10.37,0,0,1,8.07,3.62v-2.9h5.93Zm-5.7-12.18a8.64,8.64,0,0,0-2-6,6.63,6.63,0,0,0-5.2-2.29,6.37,6.37,0,0,0-5.32,2.5,9.1,9.1,0,0,0-1.77,5.81,9,9,0,0,0,1.77,5.74,6.38,6.38,0,0,0,5.32,2.46,6.51,6.51,0,0,0,5.38-2.48A8.8,8.8,0,0,0,1077.24,708.38Z"/><path class="cls-5" d="M1089.53,684.81a3.68,3.68,0,0,1,1.13-2.69,3.84,3.84,0,0,1,5.46,0,3.63,3.63,0,0,1,1.14,2.71,3.74,3.74,0,0,1-1.14,2.75,3.66,3.66,0,0,1-2.71,1.13,3.86,3.86,0,0,1-3.88-3.9Zm6.83,10.68v39.65h-5.93V695.49Z"/><path class="cls-5" d="M1102.66,708.14a12.76,12.76,0,0,1,4-9.46,14,14,0,0,1,19.46,0,13.75,13.75,0,0,1,0,19.33,13.66,13.66,0,0,1-9.84,3.88,13.06,13.06,0,0,1-9.68-4A13.3,13.3,0,0,1,1102.66,708.14Zm6.07.11a8.68,8.68,0,0,0,2,6.09,8,8,0,0,0,11.13,0,9.65,9.65,0,0,0,0-12,7.92,7.92,0,0,0-11.08,0A8.3,8.3,0,0,0,1108.73,708.25Z"/><path class="cls-5" d="M1136.33,695.49h5.93v2.29a11.28,11.28,0,0,1,2.91-2.35,6.63,6.63,0,0,1,3-.66,9.6,9.6,0,0,1,4.91,1.53l-2.72,5.43a5.7,5.7,0,0,0-3.29-1.21q-4.86,0-4.86,7.33v13.32h-5.93Z"/><path class="cls-5" d="M1164.6,701v20.15h-5.93V701h-2.54v-5.53h2.54v-9.42h5.93v9.42h4.61V701Z"/><path class="cls-5" d="M1189.91,695.49h5.93v2.37a12.39,12.39,0,0,1,2.93-2.43,7.08,7.08,0,0,1,3.24-.66,7.87,7.87,0,0,1,6.88,3.8,8.93,8.93,0,0,1,7.57-3.8q8.68,0,8.68,10.52v15.88h-6V706.9a11,11,0,0,0-.9-5.22,3.23,3.23,0,0,0-3-1.55,3.85,3.85,0,0,0-3.57,1.84q-1.12,1.85-1.12,5.93v13.27h-6V707q0-6.86-4-6.85A4,4,0,0,0,1197,702c-.77,1.25-1.15,3.21-1.15,5.9v13.27h-5.93Z"/><path class="cls-5" d="M1256,709.72h-18.4a7.79,7.79,0,0,0,2.06,5,6.25,6.25,0,0,0,4.66,1.85,6.11,6.11,0,0,0,3.67-1.06,14.84,14.84,0,0,0,3.24-3.9l5,2.79a19.75,19.75,0,0,1-2.45,3.39,13.24,13.24,0,0,1-2.77,2.32,11.06,11.06,0,0,1-3.19,1.33,15.56,15.56,0,0,1-3.72.43,12.07,12.07,0,0,1-9.23-3.7q-3.48-3.71-3.48-9.86a14.24,14.24,0,0,1,3.38-9.86,12.85,12.85,0,0,1,18-.1q3.27,3.58,3.27,9.94Zm-6.09-4.85c-.82-3.16-2.82-4.74-6-4.74a6.13,6.13,0,0,0-2,.33,5.8,5.8,0,0,0-1.73.94,6.13,6.13,0,0,0-1.33,1.49,7.09,7.09,0,0,0-.85,2Z"/><path class="cls-5" d="M1262.5,695.49h5.93v2.29a11.44,11.44,0,0,1,2.9-2.35,6.64,6.64,0,0,1,3.06-.66,9.54,9.54,0,0,1,4.9,1.53l-2.71,5.43a5.72,5.72,0,0,0-3.3-1.21q-4.85,0-4.85,7.33v13.32h-5.93Z"/><path class="cls-5" d="M1305.71,709.72h-18.4a7.79,7.79,0,0,0,2.06,5,6.27,6.27,0,0,0,4.66,1.85,6.11,6.11,0,0,0,3.67-1.06,14.84,14.84,0,0,0,3.24-3.9l5,2.79a19.75,19.75,0,0,1-2.45,3.39,13,13,0,0,1-2.77,2.32,10.94,10.94,0,0,1-3.19,1.33,15.56,15.56,0,0,1-3.72.43,12.08,12.08,0,0,1-9.23-3.7q-3.48-3.71-3.48-9.86a14.24,14.24,0,0,1,3.38-9.86,12.85,12.85,0,0,1,18-.1q3.27,3.58,3.27,9.94Zm-6.09-4.85c-.82-3.16-2.82-4.74-6-4.74a6.13,6.13,0,0,0-2,.33,5.93,5.93,0,0,0-1.73.94,6.13,6.13,0,0,0-1.33,1.49,6.8,6.8,0,0,0-.84,2Z"/><path class="cls-5" d="M1313.12,718.21a3.46,3.46,0,0,1,1.09-2.55,3.64,3.64,0,1,1,0,5.19A3.59,3.59,0,0,1,1313.12,718.21Z"/><path class="cls-5" d="M1357.9,686.23v34.94h-6.15V686.23h-9.36v-5.77h24.84v5.77Z"/><path class="cls-5" d="M1388.24,695.49h6v25.68h-6v-2.69a11.39,11.39,0,0,1-16.69-.42,14.33,14.33,0,0,1-3.45-9.81,13.91,13.91,0,0,1,3.45-9.63,11.17,11.17,0,0,1,8.65-3.85,10.91,10.91,0,0,1,8,3.69Zm-14.08,12.76a8.94,8.94,0,0,0,2,6,6.51,6.51,0,0,0,5.12,2.35,6.81,6.81,0,0,0,5.32-2.27,9.76,9.76,0,0,0,0-11.92,6.7,6.7,0,0,0-5.27-2.29,6.57,6.57,0,0,0-5.12,2.32A8.55,8.55,0,0,0,1374.16,708.25Z"/><path class="cls-5" d="M1426.53,720.56c0,1.21,0,2.28-.12,3.2a22.3,22.3,0,0,1-.33,2.44,10.85,10.85,0,0,1-2.48,5q-3.48,4-9.57,4a12.78,12.78,0,0,1-8.46-2.76,11.31,11.31,0,0,1-4-7.89h6a6.75,6.75,0,0,0,1.14,2.93,6.36,6.36,0,0,0,5.37,2.4q6.53,0,6.52-8v-3.59a11.09,11.09,0,0,1-8.15,3.62,11,11,0,0,1-8.6-3.8,14.09,14.09,0,0,1-3.37-9.63,14.77,14.77,0,0,1,3.14-9.54,10.9,10.9,0,0,1,8.91-4.17,10.37,10.37,0,0,1,8.07,3.62v-2.9h5.93Zm-5.7-12.18a8.64,8.64,0,0,0-2-6,6.6,6.6,0,0,0-5.19-2.29,6.39,6.39,0,0,0-5.33,2.5,9.1,9.1,0,0,0-1.77,5.81,9,9,0,0,0,1.77,5.74,6.39,6.39,0,0,0,5.33,2.46,6.5,6.5,0,0,0,5.37-2.48A8.8,8.8,0,0,0,1420.83,708.38Z"/><path class="cls-5" d="M1456.83,701v20.15h-6V701h-2.11v-5.53h2.11v-9.92c0-3.23.56-5.52,1.68-6.85a8.26,8.26,0,0,1,6.75-2.8,11.73,11.73,0,0,1,4,.92v6.07l-.61-.32a7.43,7.43,0,0,0-3.17-1,2.13,2.13,0,0,0-2.13,1.13,10.92,10.92,0,0,0-.55,4.27v8.47h6.46V701Z"/><path class="cls-5" d="M1486.46,695.49h6v25.68h-6v-2.69a11.39,11.39,0,0,1-16.69-.42,14.33,14.33,0,0,1-3.45-9.81,13.91,13.91,0,0,1,3.45-9.63,11.16,11.16,0,0,1,8.65-3.85,10.91,10.91,0,0,1,8,3.69Zm-14.08,12.76a8.94,8.94,0,0,0,2,6,6.49,6.49,0,0,0,5.11,2.35,6.81,6.81,0,0,0,5.33-2.27,9.76,9.76,0,0,0,0-11.92,6.7,6.7,0,0,0-5.27-2.29,6.55,6.55,0,0,0-5.12,2.32A8.55,8.55,0,0,0,1472.38,708.25Z"/><path class="cls-5" d="M1506,701v20.15h-5.94V701h-2.53v-5.53h2.53v-9.42H1506v9.42h4.61V701Z"/><path class="cls-5" d="M1530.44,684.81a3.89,3.89,0,0,1,3.85-3.83,3.71,3.71,0,0,1,2.74,1.14,3.63,3.63,0,0,1,1.14,2.71,3.74,3.74,0,0,1-1.14,2.75,3.65,3.65,0,0,1-2.71,1.13,3.88,3.88,0,0,1-3.88-3.9Zm6.83,10.68v25.68h-5.93V695.49Z"/><path class="cls-5" d="M469.74,774.52h-18.4a7.79,7.79,0,0,0,2.06,5,6.25,6.25,0,0,0,4.66,1.85,6.11,6.11,0,0,0,3.67-1.06,14.84,14.84,0,0,0,3.24-3.9l5,2.79a19.75,19.75,0,0,1-2.45,3.39,12.94,12.94,0,0,1-2.77,2.32,10.94,10.94,0,0,1-3.19,1.33,15.56,15.56,0,0,1-3.72.43,12.1,12.1,0,0,1-9.23-3.7q-3.48-3.71-3.48-9.86a14.22,14.22,0,0,1,3.38-9.86,12.85,12.85,0,0,1,18-.1q3.27,3.59,3.27,9.94Zm-6.09-4.85c-.82-3.16-2.82-4.74-6-4.74a6.13,6.13,0,0,0-2,.33,5.61,5.61,0,0,0-1.73,1,5.9,5.9,0,0,0-1.33,1.48,7.09,7.09,0,0,0-.85,2Z"/><path class="cls-5" d="M476.23,760.29h6v2.37a9.7,9.7,0,0,1,7-3.09,8.86,8.86,0,0,1,7,2.82q2.16,2.4,2.16,7.84V786h-6V771.62q0-3.79-1.05-5.24c-.69-1-1.94-1.48-3.75-1.48a4.58,4.58,0,0,0-4.19,2c-.81,1.28-1.21,3.53-1.21,6.72V786h-6Z"/><path class="cls-5" d="M525.69,760.29l6.65,14.42L539,760.29h6.67l-13.34,27.44-13.24-27.44Z"/><path class="cls-5" d="M547.39,772.94a12.73,12.73,0,0,1,4-9.46,14,14,0,0,1,19.45,0,13.75,13.75,0,0,1,0,19.33,13.63,13.63,0,0,1-9.84,3.88,13,13,0,0,1-9.67-4A13.31,13.31,0,0,1,547.39,772.94Zm6.07.11a8.64,8.64,0,0,0,2.06,6.09,8,8,0,0,0,11.12,0,9.61,9.61,0,0,0,0-12,7.91,7.91,0,0,0-11.07,0A8.27,8.27,0,0,0,553.46,773.05Z"/><path class="cls-5" d="M587,741.43v27.16l8.36-8.3h8l-11.15,10.78,12,14.9h-7.7L588,775.13l-1,1V786h-5.93V741.43Z"/><path class="cls-5" d="M622.88,764.66l-4.9,2.61c-.77-1.58-1.73-2.37-2.87-2.37a2,2,0,0,0-1.4.54,1.79,1.79,0,0,0-.58,1.38q0,1.48,3.43,2.93c3.14,1.36,5.26,2.6,6.35,3.75a6.4,6.4,0,0,1,1.63,4.61,8.07,8.07,0,0,1-2.74,6.22,9.34,9.34,0,0,1-6.43,2.38q-6.47,0-9.15-6.31l5.06-2.34a11,11,0,0,0,1.61,2.34,3.66,3.66,0,0,0,2.58,1c2,0,3-.92,3-2.75,0-1-.77-2-2.32-2.95l-1.79-.87-1.82-.87a11.14,11.14,0,0,1-3.64-2.53,6.21,6.21,0,0,1-1.35-4.14,7.34,7.34,0,0,1,2.3-5.54,8,8,0,0,1,5.69-2.19Q620.49,759.57,622.88,764.66Z"/><path class="cls-5" d="M653.26,774.52H634.85a7.84,7.84,0,0,0,2.06,5,6.28,6.28,0,0,0,4.67,1.85,6.08,6.08,0,0,0,3.66-1.06,15,15,0,0,0,3.25-3.9l5,2.79a19.77,19.77,0,0,1-2.46,3.39,12.89,12.89,0,0,1-2.76,2.32,11,11,0,0,1-3.2,1.33,15.54,15.54,0,0,1-3.71.43,12.1,12.1,0,0,1-9.23-3.7q-3.48-3.71-3.48-9.86a14.22,14.22,0,0,1,3.37-9.86,12.86,12.86,0,0,1,18-.1q3.27,3.59,3.27,9.94Zm-6.09-4.85c-.83-3.16-2.82-4.74-6-4.74a6.17,6.17,0,0,0-2,.33,5.57,5.57,0,0,0-1.72,1,5.94,5.94,0,0,0-1.34,1.48,6.8,6.8,0,0,0-.84,2Z"/><path class="cls-5" d="M659.75,760.29h6v2.37a9.74,9.74,0,0,1,7-3.09,8.86,8.86,0,0,1,7,2.82q2.16,2.4,2.16,7.84V786h-6V771.62q0-3.79-1.06-5.24c-.68-1-1.93-1.48-3.74-1.48a4.57,4.57,0,0,0-4.19,2c-.81,1.28-1.22,3.53-1.22,6.72V786h-6Z"/><path class="cls-5" d="M704.81,772.94a12.72,12.72,0,0,1,4-9.46,14,14,0,0,1,19.46,0,13.76,13.76,0,0,1,0,19.33,13.62,13.62,0,0,1-9.83,3.88,13,13,0,0,1-9.68-4A13.3,13.3,0,0,1,704.81,772.94Zm6.06.11a8.69,8.69,0,0,0,2.06,6.09,8,8,0,0,0,11.12,0,9.61,9.61,0,0,0,0-12,7.91,7.91,0,0,0-11.07,0A8.27,8.27,0,0,0,710.87,773.05Z"/><path class="cls-5" d="M763.32,785.36c0,1.21,0,2.28-.12,3.2a22.3,22.3,0,0,1-.33,2.44,10.85,10.85,0,0,1-2.48,5q-3.48,4-9.57,4a12.82,12.82,0,0,1-8.47-2.76,11.34,11.34,0,0,1-4-7.89h6a6.75,6.75,0,0,0,1.13,2.93,6.37,6.37,0,0,0,5.38,2.4q6.51,0,6.51-8v-3.59a11.07,11.07,0,0,1-8.14,3.62,11,11,0,0,1-8.6-3.8,14.1,14.1,0,0,1-3.38-9.63,14.82,14.82,0,0,1,3.14-9.54,10.9,10.9,0,0,1,8.91-4.17,10.34,10.34,0,0,1,8.07,3.62v-2.9h5.94Zm-5.7-12.18a8.69,8.69,0,0,0-2-6,6.64,6.64,0,0,0-5.2-2.29,6.37,6.37,0,0,0-5.32,2.5,9.1,9.1,0,0,0-1.77,5.81A9,9,0,0,0,745.1,779a6.37,6.37,0,0,0,5.32,2.46,6.52,6.52,0,0,0,5.38-2.48A8.86,8.86,0,0,0,757.62,773.18Z"/><path class="cls-5" d="M793.61,765.82V786h-6V765.82h-2.11v-5.53h2.11v-9.92c0-3.23.56-5.52,1.69-6.85a8.26,8.26,0,0,1,6.75-2.8,11.73,11.73,0,0,1,4,.92v6.07l-.61-.32a7.39,7.39,0,0,0-3.16-1,2.12,2.12,0,0,0-2.13,1.13,10.87,10.87,0,0,0-.56,4.27v8.47h6.46v5.53Z"/><path class="cls-5" d="M803,772.94a12.72,12.72,0,0,1,4-9.46,14,14,0,0,1,19.46,0,13.76,13.76,0,0,1,0,19.33,13.63,13.63,0,0,1-9.84,3.88,13,13,0,0,1-9.67-4A13.3,13.3,0,0,1,803,772.94Zm6.06.11a8.69,8.69,0,0,0,2.06,6.09,8,8,0,0,0,11.12,0,9.61,9.61,0,0,0,0-12,7.91,7.91,0,0,0-11.07,0A8.27,8.27,0,0,0,809,773.05Z"/><path class="cls-5" d="M836.62,760.29h5.93v2.29a11.44,11.44,0,0,1,2.9-2.35,6.64,6.64,0,0,1,3.06-.66,9.56,9.56,0,0,1,4.9,1.53l-2.71,5.43a5.75,5.75,0,0,0-3.3-1.21q-4.85,0-4.85,7.33V786h-5.93Z"/><path class="cls-5" d="M864.88,765.82V786H859V765.82h-2.53v-5.53H859v-9.42h5.93v9.42h4.62v5.53Z"/><path class="cls-5" d="M913.63,774.44H895.12a8.19,8.19,0,0,0,2.17,5.07,6.21,6.21,0,0,0,4.64,1.9c2.7,0,5-1.72,6.72-5.15l5.12,2.85a18,18,0,0,1-1.82,2.82,10.87,10.87,0,0,1-2.11,2,13.56,13.56,0,0,1-8.2,2.77,12.9,12.9,0,0,1-9.31-4.11q-3.21,4.11-9.47,4.11a11.76,11.76,0,0,1-7.62-2.37,7.6,7.6,0,0,1-2.92-6.2,7.94,7.94,0,0,1,2.79-6.33,10.93,10.93,0,0,1,7.36-2.42,14.89,14.89,0,0,1,6.7,1.74c0-2.32-.49-3.94-1.45-4.85s-2.64-1.4-5-1.4a25.2,25.2,0,0,0-6.86,1v-5.52a46.67,46.67,0,0,1,7.44-.79q6.27,0,9,3.62a11.84,11.84,0,0,1,9-3.62,11.71,11.71,0,0,1,9,3.62,13.45,13.45,0,0,1,3.38,9.57Zm-35.56,3.62a3,3,0,0,0,1.47,2.5,6.77,6.77,0,0,0,3.75,1,7.08,7.08,0,0,0,3.92-1,3.1,3.1,0,0,0,1.59-2.62,2.85,2.85,0,0,0-1.64-2.37,7.36,7.36,0,0,0-3.93-1,6.29,6.29,0,0,0-3.66,1A3,3,0,0,0,878.07,778.06Zm29.34-8.41q-1.08-4.73-5.77-4.72t-6.12,4.72Z"/><path class="cls-5" d="M926,741.43V786H920V741.43Z"/><path class="cls-5" d="M948.91,772.94a12.73,12.73,0,0,1,4-9.46,14,14,0,0,1,19.45,0,13.75,13.75,0,0,1,0,19.33,13.63,13.63,0,0,1-9.84,3.88,13,13,0,0,1-9.67-4A13.27,13.27,0,0,1,948.91,772.94Zm6.07.11a8.64,8.64,0,0,0,2.06,6.09,8,8,0,0,0,11.12,0,9.61,9.61,0,0,0,0-12,7.91,7.91,0,0,0-11.07,0A8.27,8.27,0,0,0,955,773.05Z"/><path class="cls-5" d="M982.58,760.29h5.94v2.37a12.38,12.38,0,0,1,2.92-2.43,7.15,7.15,0,0,1,3.25-.66,7.88,7.88,0,0,1,6.88,3.8,8.92,8.92,0,0,1,7.57-3.8q8.67,0,8.67,10.52V786h-6V771.7a11.12,11.12,0,0,0-.89-5.22,3.25,3.25,0,0,0-3-1.55,3.87,3.87,0,0,0-3.57,1.84q-1.12,1.85-1.12,5.93V786h-6V771.78q0-6.85-3.95-6.85a4,4,0,0,0-3.65,1.87c-.77,1.25-1.15,3.21-1.15,5.9V786h-5.94Z"/><path class="cls-5" d="M1060.9,741.43h5.95V786h-5.95v-2.69a11.11,11.11,0,0,1-7.94,3.43,11.31,11.31,0,0,1-8.75-3.85,14.29,14.29,0,0,1-3.46-9.81,13.81,13.81,0,0,1,3.46-9.6,11.09,11.09,0,0,1,16.69-.19Zm-14.08,31.62a8.94,8.94,0,0,0,2,6,6.51,6.51,0,0,0,5.12,2.35,6.79,6.79,0,0,0,5.32-2.27,9.76,9.76,0,0,0,0-11.92,6.7,6.7,0,0,0-5.27-2.29,6.53,6.53,0,0,0-5.11,2.32A8.5,8.5,0,0,0,1046.82,773.05Z"/><path class="cls-5" d="M1097.73,774.52h-18.4a7.78,7.78,0,0,0,2.05,5,6.29,6.29,0,0,0,4.67,1.85,6.06,6.06,0,0,0,3.66-1.06,14.83,14.83,0,0,0,3.25-3.9l5,2.79a20.3,20.3,0,0,1-2.45,3.39,13.19,13.19,0,0,1-2.77,2.32,11.06,11.06,0,0,1-3.19,1.33,15.69,15.69,0,0,1-3.72.43,12.1,12.1,0,0,1-9.23-3.7q-3.48-3.71-3.48-9.86a14.22,14.22,0,0,1,3.37-9.86,12.86,12.86,0,0,1,18-.1q3.27,3.59,3.27,9.94Zm-6.09-4.85c-.83-3.16-2.82-4.74-6-4.74a6.17,6.17,0,0,0-2,.33,5.95,5.95,0,0,0-3,2.43,7.09,7.09,0,0,0-.85,2Z"/><path class="cls-5" d="M1110.81,765.82V786h-5.93V765.82h-2.54v-5.53h2.54v-9.42h5.93v9.42h4.61v5.53Z"/><path class="cls-5" d="M1123.12,778.35l5.28,2-7.52,15.06-4-1.66Z"/><path class="cls-5" d="M1167.71,764.66l-4.91,2.61c-.77-1.58-1.73-2.37-2.87-2.37a2,2,0,0,0-1.4.54,1.83,1.83,0,0,0-.58,1.38c0,1,1.15,2,3.43,2.93,3.15,1.36,5.27,2.6,6.36,3.75a6.4,6.4,0,0,1,1.63,4.61,8.07,8.07,0,0,1-2.74,6.22,9.36,9.36,0,0,1-6.44,2.38q-6.45,0-9.15-6.31l5.07-2.34a10.66,10.66,0,0,0,1.61,2.34,3.66,3.66,0,0,0,2.58,1c2,0,3-.92,3-2.75,0-1-.78-2-2.32-2.95q-.9-.45-1.8-.87l-1.82-.87a11.25,11.25,0,0,1-3.64-2.53,6.26,6.26,0,0,1-1.34-4.14,7.33,7.33,0,0,1,2.29-5.54,8.07,8.07,0,0,1,5.7-2.19Q1165.32,759.57,1167.71,764.66Z"/><path class="cls-5" d="M1193.63,760.29h6V786h-6v-2.69a11.39,11.39,0,0,1-16.69-.42,14.29,14.29,0,0,1-3.46-9.81,13.87,13.87,0,0,1,3.46-9.63,11.14,11.14,0,0,1,8.65-3.85,10.94,10.94,0,0,1,8,3.69Zm-14.08,12.76a8.94,8.94,0,0,0,2,6,6.47,6.47,0,0,0,5.11,2.35,6.83,6.83,0,0,0,5.33-2.27,9.76,9.76,0,0,0,0-11.92,6.72,6.72,0,0,0-5.28-2.29,6.53,6.53,0,0,0-5.11,2.32A8.5,8.5,0,0,0,1179.55,773.05Zm2-22.55a5.38,5.38,0,0,1,1.69-4,5.73,5.73,0,1,1,8.09,8.12,5.43,5.43,0,0,1-4,1.69,5.55,5.55,0,0,1-4.09-1.69A5.65,5.65,0,0,1,1181.58,750.5Zm3.14.06a2.56,2.56,0,0,0,.75,1.88,2.67,2.67,0,0,0,3.71,0,2.62,2.62,0,0,0-2.88-4.26,2.56,2.56,0,0,0-.83.57,2.64,2.64,0,0,0-.56.83A2.55,2.55,0,0,0,1184.72,750.56Z"/><path class="cls-5" d="M1238.66,764.66l-4.9,2.61q-1.15-2.37-2.88-2.37a2,2,0,0,0-1.39.54,1.79,1.79,0,0,0-.58,1.38q0,1.48,3.42,2.93c3.15,1.36,5.27,2.6,6.36,3.75a6.4,6.4,0,0,1,1.63,4.61,8.07,8.07,0,0,1-2.74,6.22,9.34,9.34,0,0,1-6.43,2.38q-6.47,0-9.15-6.31l5.06-2.34a10.66,10.66,0,0,0,1.61,2.34,3.66,3.66,0,0,0,2.58,1c2,0,3-.92,3-2.75,0-1-.77-2-2.32-2.95l-1.79-.87-1.82-.87a11,11,0,0,1-3.64-2.53,6.21,6.21,0,0,1-1.35-4.14,7.34,7.34,0,0,1,2.3-5.54,8,8,0,0,1,5.69-2.19Q1236.26,759.57,1238.66,764.66Z"/><path class="cls-5" d="M1251.58,799.94h-5.93V760.29h5.93v2.79a11.25,11.25,0,0,1,16.69.4,14.08,14.08,0,0,1,3.48,9.78,13.86,13.86,0,0,1-3.45,9.62,11.24,11.24,0,0,1-16.72.21Zm14.11-26.66a8.9,8.9,0,0,0-2-6,6.5,6.5,0,0,0-5.12-2.34,6.77,6.77,0,0,0-5.3,2.26,8.63,8.63,0,0,0-2,6,8.79,8.79,0,0,0,2,6,6.66,6.66,0,0,0,5.27,2.3,6.42,6.42,0,0,0,5.09-2.33A8.42,8.42,0,0,0,1265.69,773.28Z"/><path class="cls-5" d="M1278,760.29H1284v2.29a11.44,11.44,0,0,1,2.9-2.35,6.64,6.64,0,0,1,3.06-.66,9.6,9.6,0,0,1,4.91,1.53l-2.72,5.43a5.72,5.72,0,0,0-3.3-1.21q-4.85,0-4.85,7.33V786H1278Z"/><path class="cls-5" d="M1321.25,774.52h-18.41a7.79,7.79,0,0,0,2.06,5,6.27,6.27,0,0,0,4.66,1.85,6.11,6.11,0,0,0,3.67-1.06,14.84,14.84,0,0,0,3.24-3.9l5,2.79a19.75,19.75,0,0,1-2.45,3.39,12.7,12.7,0,0,1-2.77,2.32,10.94,10.94,0,0,1-3.19,1.33,15.56,15.56,0,0,1-3.72.43,12.12,12.12,0,0,1-9.23-3.7q-3.48-3.71-3.48-9.86a14.22,14.22,0,0,1,3.38-9.86,12.85,12.85,0,0,1,18-.1q3.27,3.59,3.27,9.94Zm-6.1-4.85c-.82-3.16-2.82-4.74-6-4.74a6.13,6.13,0,0,0-2,.33,5.73,5.73,0,0,0-1.73,1,5.9,5.9,0,0,0-1.33,1.48,6.8,6.8,0,0,0-.84,2Z"/><path class="cls-5" d="M1346.66,741.43h6V786h-6v-2.69a11.07,11.07,0,0,1-7.93,3.43,11.33,11.33,0,0,1-8.76-3.85,14.33,14.33,0,0,1-3.45-9.81,13.85,13.85,0,0,1,3.45-9.6,11.09,11.09,0,0,1,16.69-.19Zm-14.08,31.62a8.94,8.94,0,0,0,2,6,6.49,6.49,0,0,0,5.12,2.35,6.81,6.81,0,0,0,5.32-2.27,9.76,9.76,0,0,0,0-11.92,6.7,6.7,0,0,0-5.27-2.29,6.55,6.55,0,0,0-5.12,2.32A8.55,8.55,0,0,0,1332.58,773.05Z"/><path class="cls-5" d="M1360.11,760.29h6v2.37a9.7,9.7,0,0,1,7-3.09,8.86,8.86,0,0,1,7,2.82q2.16,2.4,2.16,7.84V786h-6V771.62q0-3.79-1-5.24c-.69-1-1.93-1.48-3.75-1.48a4.59,4.59,0,0,0-4.19,2c-.81,1.28-1.21,3.53-1.21,6.72V786h-6Z"/><path class="cls-5" d="M1388.82,749.61a3.89,3.89,0,0,1,3.85-3.83,3.74,3.74,0,0,1,2.75,1.14,3.66,3.66,0,0,1,1.13,2.71,3.77,3.77,0,0,1-1.13,2.75,3.68,3.68,0,0,1-2.72,1.13,3.88,3.88,0,0,1-3.88-3.9Zm6.83,10.68V786h-5.93V760.29Z"/><path class="cls-5" d="M1403.17,760.29h6v2.37a9.7,9.7,0,0,1,7-3.09,8.86,8.86,0,0,1,7,2.82q2.16,2.4,2.16,7.84V786h-6V771.62q0-3.79-1-5.24c-.69-1-1.94-1.48-3.75-1.48a4.58,4.58,0,0,0-4.19,2c-.81,1.28-1.21,3.53-1.21,6.72V786h-6Z"/><path class="cls-5" d="M1457.62,785.36c0,1.21,0,2.28-.12,3.2a22.3,22.3,0,0,1-.33,2.44,10.85,10.85,0,0,1-2.48,5q-3.48,4-9.57,4a12.82,12.82,0,0,1-8.47-2.76,11.34,11.34,0,0,1-4-7.89h6a6.75,6.75,0,0,0,1.13,2.93,6.38,6.38,0,0,0,5.38,2.4q6.51,0,6.51-8v-3.59a11.07,11.07,0,0,1-8.14,3.62,11,11,0,0,1-8.6-3.8,14.09,14.09,0,0,1-3.37-9.63,14.82,14.82,0,0,1,3.13-9.54,10.9,10.9,0,0,1,8.92-4.17,10.33,10.33,0,0,1,8.06,3.62v-2.9h5.94Zm-5.7-12.18a8.69,8.69,0,0,0-2-6,6.64,6.64,0,0,0-5.2-2.29,6.37,6.37,0,0,0-5.32,2.5,9.1,9.1,0,0,0-1.77,5.81,9,9,0,0,0,1.77,5.74,6.38,6.38,0,0,0,5.32,2.46,6.52,6.52,0,0,0,5.38-2.48A8.86,8.86,0,0,0,1451.92,773.18Z"/><path class="cls-5" d="M1488.49,774.52h-18.4a7.83,7.83,0,0,0,2.05,5,6.29,6.29,0,0,0,4.67,1.85,6.11,6.11,0,0,0,3.67-1.06,14.84,14.84,0,0,0,3.24-3.9l5,2.79a19.75,19.75,0,0,1-2.45,3.39,12.94,12.94,0,0,1-2.77,2.32,11.06,11.06,0,0,1-3.19,1.33,15.56,15.56,0,0,1-3.72.43,12.1,12.1,0,0,1-9.23-3.7q-3.48-3.71-3.48-9.86a14.22,14.22,0,0,1,3.38-9.86,12.85,12.85,0,0,1,18-.1q3.27,3.59,3.27,9.94Zm-6.09-4.85c-.82-3.16-2.82-4.74-6-4.74a6.13,6.13,0,0,0-2,.33,5.61,5.61,0,0,0-1.73,1,5.9,5.9,0,0,0-1.33,1.48,7.09,7.09,0,0,0-.85,2Z"/><path class="cls-5" d="M1495,760.29h6v2.37a9.7,9.7,0,0,1,7-3.09,8.86,8.86,0,0,1,7,2.82q2.16,2.4,2.16,7.84V786h-6V771.62q0-3.79-1.05-5.24c-.69-1-1.94-1.48-3.75-1.48a4.58,4.58,0,0,0-4.19,2c-.81,1.28-1.21,3.53-1.21,6.72V786h-6Z"/><path class="cls-5" d="M452.29,806.23v27.16l8.36-8.31h8l-11.15,10.79,12,14.9h-7.7l-8.49-10.84-.95,1v9.89h-5.93V806.23Z"/><path class="cls-5" d="M491.26,825.08h6v25.69h-6v-2.69a11.41,11.41,0,0,1-16.69-.42,14.34,14.34,0,0,1-3.46-9.81,13.91,13.91,0,0,1,3.46-9.63,11.14,11.14,0,0,1,8.65-3.85,10.91,10.91,0,0,1,8,3.69Zm-14.08,12.77a8.94,8.94,0,0,0,2,6,6.47,6.47,0,0,0,5.11,2.35,6.83,6.83,0,0,0,5.33-2.27,9.76,9.76,0,0,0,0-11.92,6.72,6.72,0,0,0-5.28-2.29,6.55,6.55,0,0,0-5.11,2.32A8.55,8.55,0,0,0,477.18,837.85Z"/><path class="cls-5" d="M504.71,825.08h6v2.38a9.7,9.7,0,0,1,7-3.09,8.86,8.86,0,0,1,7,2.82q2.16,2.4,2.16,7.84v15.74h-6V836.42q0-3.79-1.06-5.24c-.68-1-1.93-1.48-3.74-1.48a4.57,4.57,0,0,0-4.19,1.95q-1.22,1.92-1.21,6.72v12.4h-6Z"/><path class="cls-5" d="M556.91,806.23v21.83a11,11,0,0,1,8.07-3.69,11.12,11.12,0,0,1,8.65,3.88,13.85,13.85,0,0,1,3.45,9.6,14.15,14.15,0,0,1-3.48,9.81,11.42,11.42,0,0,1-16.69.42v2.69H551V806.23ZM571,838.11a8.9,8.9,0,0,0-2-6,6.43,6.43,0,0,0-5.09-2.37A6.82,6.82,0,0,0,558.6,832a8.54,8.54,0,0,0-2,5.91,8.66,8.66,0,0,0,2,6,6.68,6.68,0,0,0,5.28,2.3,6.54,6.54,0,0,0,5.11-2.3A8.42,8.42,0,0,0,571,838.11Z"/><path class="cls-5" d="M589.29,806.23v44.54h-5.93V806.23Z"/><path class="cls-5" d="M595.91,814.41a3.68,3.68,0,0,1,1.13-2.69,3.84,3.84,0,0,1,5.46,0,3.63,3.63,0,0,1,1.14,2.71,3.71,3.71,0,0,1-1.14,2.74,3.63,3.63,0,0,1-2.71,1.14,3.88,3.88,0,0,1-3.88-3.9Zm6.83,10.67v25.69h-5.93V825.08Z"/><path class="cls-5" d="M613.44,825.08l6.65,14.43,6.62-14.43h6.67L620,852.53,606.8,825.08Z"/><path class="cls-5" d="M659.85,839.32h-18.4a7.78,7.78,0,0,0,2,5,6.29,6.29,0,0,0,4.67,1.85,6.06,6.06,0,0,0,3.66-1.06,14.83,14.83,0,0,0,3.25-3.9l5,2.79a20.3,20.3,0,0,1-2.45,3.39,13.5,13.5,0,0,1-2.77,2.32,11.06,11.06,0,0,1-3.19,1.33,15.7,15.7,0,0,1-3.72.42,12.06,12.06,0,0,1-9.23-3.69q-3.48-3.72-3.48-9.86a14.28,14.28,0,0,1,3.37-9.86,12.86,12.86,0,0,1,18-.1q3.27,3.59,3.27,9.94Zm-6.09-4.85c-.83-3.16-2.82-4.74-6-4.74a6.44,6.44,0,0,0-2,.32,6.15,6.15,0,0,0-1.72,1,5.93,5.93,0,0,0-1.33,1.49,7.09,7.09,0,0,0-.85,2Z"/><path class="cls-5" d="M697.92,829.46l-4.9,2.61c-.77-1.58-1.73-2.37-2.87-2.37a2,2,0,0,0-1.4.54,1.79,1.79,0,0,0-.58,1.38c0,1,1.14,2,3.43,2.93q4.71,2,6.35,3.74a6.44,6.44,0,0,1,1.64,4.62,8.08,8.08,0,0,1-2.75,6.22,9.33,9.33,0,0,1-6.43,2.37q-6.46,0-9.15-6.3l5.06-2.34a11,11,0,0,0,1.61,2.34,3.67,3.67,0,0,0,2.59,1c2,0,3-.92,3-2.75,0-1.05-.77-2-2.32-3-.6-.3-1.19-.59-1.79-.87l-1.82-.87a11.14,11.14,0,0,1-3.64-2.53,6.21,6.21,0,0,1-1.34-4.14,7.33,7.33,0,0,1,2.29-5.54,8,8,0,0,1,5.69-2.19Q695.53,824.37,697.92,829.46Z"/><path class="cls-5" d="M711,830.62v20.15H705.1V830.62h-2.53v-5.54h2.53v-9.41H711v9.41h4.61v5.54Z"/><path class="cls-5" d="M718.83,837.74a12.73,12.73,0,0,1,4-9.46,14,14,0,0,1,19.45,0,13.75,13.75,0,0,1,0,19.33,13.62,13.62,0,0,1-9.84,3.87,13,13,0,0,1-9.67-4A13.27,13.27,0,0,1,718.83,837.74Zm6.07.11a8.64,8.64,0,0,0,2.06,6.09,8,8,0,0,0,11.12,0,9.61,9.61,0,0,0,0-12A7.91,7.91,0,0,0,727,832,8.27,8.27,0,0,0,724.9,837.85Z"/><path class="cls-5" d="M758.44,864.74H752.5V825.08h5.94v2.8a11,11,0,0,1,8-3.51,11.1,11.1,0,0,1,8.73,3.91,14.08,14.08,0,0,1,3.48,9.78,13.82,13.82,0,0,1-3.46,9.62,11.25,11.25,0,0,1-16.71.21Zm14.1-26.66a8.85,8.85,0,0,0-2-6,6.48,6.48,0,0,0-5.12-2.34,6.8,6.8,0,0,0-5.3,2.26,8.63,8.63,0,0,0-2,6,8.79,8.79,0,0,0,2,6,6.68,6.68,0,0,0,5.28,2.3,6.43,6.43,0,0,0,5.09-2.33A8.41,8.41,0,0,0,772.54,838.08Z"/><path class="cls-5" d="M790.82,864.74h-5.94V825.08h5.94v2.8a11,11,0,0,1,8-3.51,11.1,11.1,0,0,1,8.73,3.91,14.08,14.08,0,0,1,3.48,9.78,13.82,13.82,0,0,1-3.46,9.62,11.25,11.25,0,0,1-16.71.21Zm14.1-26.66a8.9,8.9,0,0,0-2-6,6.48,6.48,0,0,0-5.12-2.34,6.79,6.79,0,0,0-5.3,2.26,8.63,8.63,0,0,0-2,6,8.79,8.79,0,0,0,2,6,6.68,6.68,0,0,0,5.28,2.3,6.45,6.45,0,0,0,5.09-2.33A8.41,8.41,0,0,0,804.92,838.08Z"/><path class="cls-5" d="M840.65,839.32h-18.4a7.78,7.78,0,0,0,2,5,6.29,6.29,0,0,0,4.67,1.85,6.06,6.06,0,0,0,3.66-1.06,14.83,14.83,0,0,0,3.25-3.9l5,2.79a20.3,20.3,0,0,1-2.45,3.39,13.5,13.5,0,0,1-2.77,2.32,11.06,11.06,0,0,1-3.19,1.33,15.7,15.7,0,0,1-3.72.42,12.06,12.06,0,0,1-9.23-3.69q-3.48-3.72-3.48-9.86a14.23,14.23,0,0,1,3.37-9.86,12.86,12.86,0,0,1,18-.1q3.27,3.59,3.27,9.94Zm-6.09-4.85c-.83-3.16-2.82-4.74-6-4.74a6.44,6.44,0,0,0-2,.32,6,6,0,0,0-1.72,1,5.93,5.93,0,0,0-1.33,1.49,6.81,6.81,0,0,0-.85,2Z"/><path class="cls-5" d="M853.73,830.62v20.15H847.8V830.62h-2.54v-5.54h2.54v-9.41h5.93v9.41h4.61v5.54Z"/><path class="cls-5" d="M879,806.23H885v21a10.22,10.22,0,0,1,7-2.85,9,9,0,0,1,7,2.82q2.22,2.46,2.22,7.84v15.74H895.2V835.58a7.23,7.23,0,0,0-1.09-4.47,4.22,4.22,0,0,0-3.52-1.38q-3.11,0-4.38,1.92c-.82,1.3-1.24,3.53-1.24,6.7v12.42H879Z"/><path class="cls-5" d="M932,839.32H913.63a7.84,7.84,0,0,0,2.06,5,6.28,6.28,0,0,0,4.67,1.85,6.08,6.08,0,0,0,3.66-1.06,15,15,0,0,0,3.25-3.9l5,2.79a19.77,19.77,0,0,1-2.46,3.39,13.19,13.19,0,0,1-2.76,2.32,11.06,11.06,0,0,1-3.19,1.33,15.7,15.7,0,0,1-3.72.42,12.06,12.06,0,0,1-9.23-3.69q-3.48-3.72-3.48-9.86a14.23,14.23,0,0,1,3.37-9.86,12.86,12.86,0,0,1,18-.1q3.27,3.59,3.27,9.94ZM926,834.47c-.83-3.16-2.82-4.74-6-4.74a6.44,6.44,0,0,0-2,.32,6,6,0,0,0-1.72,1,6.17,6.17,0,0,0-1.34,1.49,6.8,6.8,0,0,0-.84,2Z"/><path class="cls-5" d="M944.46,806.23v44.54h-5.93V806.23Z"/><path class="cls-5" d="M958.09,830.62v20.15h-5.93V830.62h-2.53v-5.54h2.53v-9.41h5.93v9.41h4.61v5.54Z"/><path class="cls-5" d="M967.66,847.81a3.49,3.49,0,0,1,1.08-2.55,3.68,3.68,0,1,1-1.08,2.55Z"/></g></svg>