<svg id="Layer_1" data-name="Layer 1" xmlns="http://www.w3.org/2000/svg" width="1920" height="1080" viewBox="0 0 1920 1080"><defs><style>.cls-1,.cls-11{fill:#40364b;}.cls-1,.cls-10,.cls-4,.cls-5{stroke:#112231;}.cls-1,.cls-10,.cls-2,.cls-4,.cls-5,.cls-7,.cls-9{stroke-miterlimit:10;}.cls-1,.cls-5{stroke-width:3px;}.cls-2,.cls-5,.cls-6,.cls-7,.cls-9{fill:#112231;}.cls-2{stroke:#55365d;}.cls-2,.cls-9{stroke-width:8px;}.cls-3,.cls-4{fill:#55365d;}.cls-7{stroke:#001623;}.cls-8{fill:#22223c;}.cls-9{stroke:#29264b;}.cls-10{fill:#40365d;}</style></defs><title>desk</title><rect class="cls-1" x="-0.5" y="0.5" width="1920" height="1080"/><path class="cls-2" d="M1449,.5V81.27a39.11,39.11,0,0,1-39,39H458.13a39,39,0,0,1-33.7-19.47,38.57,38.57,0,0,1-5.28-19.52V.5Z"/><rect class="cls-3" x="415.19" y="91.32" width="1029.85" height="655.54" rx="31.84"/><rect class="cls-4" x="704.54" y="501.39" width="466.69" height="228.85" rx="15.91"/><rect class="cls-5" x="458.78" y="432.16" width="54.15" height="54.15" rx="12"/><rect class="cls-5" x="524.47" y="432.16" width="54.15" height="54.15" rx="12"/><rect class="cls-5" x="589" y="432.16" width="54.15" height="54.15" rx="12"/><rect class="cls-5" x="654.06" y="432.16" width="80.03" height="54.15" rx="12"/><rect class="cls-5" x="745.88" y="432.16" width="315.26" height="54.15" rx="12"/><rect class="cls-5" x="1072.18" y="432.16" width="77.83" height="54.15" rx="12"/><rect class="cls-5" x="1157.05" y="431.04" width="54.15" height="54.15" rx="12"/><rect class="cls-5" x="1267.09" y="367.53" width="132.96" height="54.15" rx="12"/><rect class="cls-5" x="1220.53" y="431.04" width="54.15" height="54.15" rx="12"/><rect class="cls-5" x="1345.9" y="431.04" width="54.15" height="54.15" rx="12"/><rect class="cls-5" x="1283.78" y="431.04" width="54.15" height="54.15" rx="12"/><rect class="cls-5" x="1006.95" y="367.53" width="54.15" height="54.15" rx="12"/><rect class="cls-5" x="1137.02" y="367.53" width="54.15" height="54.15" rx="12"/><rect class="cls-5" x="1202.06" y="367.53" width="54.15" height="54.15" rx="12"/><rect class="cls-5" x="1072.52" y="367.53" width="54.15" height="54.15" rx="12"/><rect class="cls-5" x="744.05" y="367.53" width="54.15" height="54.15" rx="12"/><rect class="cls-5" x="877.52" y="367.53" width="54.15" height="54.15" rx="12"/><rect class="cls-5" x="941.75" y="367.53" width="54.15" height="54.15" rx="12"/><rect class="cls-5" x="809.63" y="367.53" width="54.15" height="54.15" rx="12"/><rect class="cls-5" x="614.25" y="367.53" width="54.15" height="54.15" rx="12"/><rect class="cls-5" x="678.48" y="367.53" width="54.15" height="54.15" rx="12"/><rect class="cls-5" x="550.85" y="367.53" width="54.15" height="54.15" rx="12"/><rect class="cls-5" x="459.78" y="368" width="80.03" height="54.15" rx="12"/><rect class="cls-5" x="458.78" y="303.84" width="107.52" height="54.15" rx="12"/><rect class="cls-5" x="458.78" y="240.55" width="85.96" height="54.15" rx="12"/><rect class="cls-5" x="458.78" y="179.5" width="54.15" height="54.15" rx="12"/><rect class="cls-5" x="976.12" y="178.94" width="54.15" height="54.15" rx="12"/><rect class="cls-5" x="1106.19" y="178.94" width="54.15" height="54.15" rx="12"/><rect class="cls-5" x="1171.23" y="178.94" width="54.15" height="54.15" rx="12"/><rect class="cls-5" x="1041.7" y="178.94" width="54.15" height="54.15" rx="12"/><rect class="cls-5" x="713.23" y="178.94" width="54.15" height="54.15" rx="12"/><rect class="cls-5" x="846.69" y="178.94" width="54.15" height="54.15" rx="12"/><rect class="cls-5" x="910.93" y="178.94" width="54.15" height="54.15" rx="12"/><rect class="cls-5" x="778.8" y="178.94" width="54.15" height="54.15" rx="12"/><rect class="cls-5" x="583.42" y="178.94" width="54.15" height="54.15" rx="12"/><rect class="cls-5" x="647.66" y="178.94" width="54.15" height="54.15" rx="12"/><rect class="cls-5" x="520.03" y="178.94" width="54.15" height="54.15" rx="12"/><rect class="cls-5" x="1240.01" y="178.94" width="54.15" height="54.15" rx="12"/><rect class="cls-5" x="1302.49" y="178.94" width="92.76" height="54.15" rx="12"/><rect class="cls-5" x="1337.5" y="241.44" width="59.66" height="54.15" rx="12"/><rect class="cls-5" x="1361.22" y="267.87" width="35.94" height="91.32" rx="12"/><rect class="cls-6" x="1356.6" y="281.18" width="39.83" height="13.7"/><rect class="cls-5" x="1075.59" y="240.74" width="54.15" height="54.15" rx="12"/><rect class="cls-5" x="1205.66" y="240.74" width="54.15" height="54.15" rx="12"/><rect class="cls-5" x="1141.16" y="240.74" width="54.15" height="54.15" rx="12"/><rect class="cls-5" x="812.69" y="240.74" width="54.15" height="54.15" rx="12"/><rect class="cls-5" x="946.16" y="240.74" width="54.15" height="54.15" rx="12"/><rect class="cls-5" x="1010.39" y="240.74" width="54.15" height="54.15" rx="12"/><rect class="cls-5" x="878.27" y="240.74" width="54.15" height="54.15" rx="12"/><rect class="cls-5" x="554.95" y="240.74" width="54.15" height="54.15" rx="12"/><rect class="cls-5" x="682.89" y="240.74" width="54.15" height="54.15" rx="12"/><rect class="cls-5" x="747.12" y="240.74" width="54.15" height="54.15" rx="12"/><rect class="cls-5" x="619.49" y="240.74" width="54.15" height="54.15" rx="12"/><rect class="cls-5" x="1097.83" y="303.84" width="54.15" height="54.15" rx="12"/><rect class="cls-5" x="1227.9" y="303.84" width="54.15" height="54.15" rx="12"/><rect class="cls-5" x="1163.4" y="303.84" width="54.15" height="54.15" rx="12"/><rect class="cls-5" x="834.93" y="303.84" width="54.15" height="54.15" rx="12"/><rect class="cls-5" x="968.4" y="303.84" width="54.15" height="54.15" rx="12"/><rect class="cls-5" x="1032.63" y="303.84" width="54.15" height="54.15" rx="12"/><rect class="cls-5" x="900.5" y="303.84" width="54.15" height="54.15" rx="12"/><rect class="cls-5" x="577.19" y="303.84" width="54.15" height="54.15" rx="12"/><rect class="cls-5" x="705.13" y="303.84" width="54.15" height="54.15" rx="12"/><rect class="cls-5" x="769.36" y="303.84" width="54.15" height="54.15" rx="12"/><rect class="cls-5" x="641.73" y="303.84" width="54.15" height="54.15" rx="12"/><rect class="cls-5" x="1271.11" y="240.74" width="54.15" height="54.15" rx="12"/><rect class="cls-5" x="1294.72" y="303.84" width="54.15" height="54.15" rx="12"/><rect class="cls-5" x="458.78" y="147.63" width="88.32" height="22.49" rx="4.35"/><rect class="cls-5" x="556.35" y="147.63" width="54.15" height="22.49" rx="4.68"/><rect class="cls-7" x="538.61" y="87.24" width="786.13" height="20.96"/><path class="cls-3" d="M881.08,60h2V74.14h6.8v1.73h-8.85Z"/><path class="cls-3" d="M902.15,70.06c0,4.23-2.93,6.06-5.69,6.06-3.09,0-5.47-2.26-5.47-5.87,0-3.82,2.5-6.06,5.66-6.06S902.15,66.57,902.15,70.06Zm-9.06.12c0,2.5,1.44,4.39,3.46,4.39S900,72.7,900,70.13c0-1.93-1-4.38-3.42-4.38S893.09,68,893.09,70.18Z"/><path class="cls-3" d="M904.76,68c0-1.34,0-2.5-.09-3.56h1.81l.08,2.24h.09a3.43,3.43,0,0,1,3.16-2.5,2.12,2.12,0,0,1,.59.07v2a2.86,2.86,0,0,0-3.49,2.59,5.67,5.67,0,0,0-.1,1v6.09h-2Z"/><path class="cls-3" d="M913.4,70.53a3.66,3.66,0,0,0,3.91,4,7.5,7.5,0,0,0,3.16-.59l.36,1.48a9.24,9.24,0,0,1-3.8.71c-3.52,0-5.62-2.31-5.62-5.75s2-6.16,5.36-6.16c3.73,0,4.72,3.28,4.72,5.38a8.55,8.55,0,0,1-.07,1Zm6.08-1.48c0-1.32-.54-3.38-2.88-3.38-2.1,0-3,1.94-3.18,3.38Z"/><path class="cls-3" d="M924.06,67.54c0-1.18,0-2.15-.1-3.09h1.82l.09,1.84H926a3.91,3.91,0,0,1,3.58-2.1,3.36,3.36,0,0,1,3.23,2.29h0A4.61,4.61,0,0,1,934.08,65a3.91,3.91,0,0,1,2.53-.8c1.51,0,3.75,1,3.75,5v6.73h-2V69.4c0-2.19-.8-3.51-2.48-3.51a2.68,2.68,0,0,0-2.45,1.88,3.65,3.65,0,0,0-.17,1v7.06h-2V69c0-1.81-.81-3.13-2.39-3.13A3.07,3.07,0,0,0,926.09,69v6.89h-2Z"/><path class="cls-3" d="M950.85,60v15.9H948.8V60Z"/><path class="cls-3" d="M954.6,68.18c0-1.47,0-2.65-.09-3.73h1.86l.1,2h0a4.46,4.46,0,0,1,4.05-2.22c2.76,0,4.84,2.33,4.84,5.8,0,4.11-2.5,6.13-5.19,6.13a4,4,0,0,1-3.52-1.79h0v6.21H954.6Zm2.06,3a4.43,4.43,0,0,0,.09.85,3.21,3.21,0,0,0,3.12,2.43c2.19,0,3.46-1.8,3.46-4.41,0-2.29-1.2-4.25-3.39-4.25a3.31,3.31,0,0,0-3.14,2.57,3.43,3.43,0,0,0-.14.85Z"/><path class="cls-3" d="M967.74,73.74a5.48,5.48,0,0,0,2.74.83c1.51,0,2.22-.76,2.22-1.7s-.59-1.53-2.13-2.1c-2.05-.73-3-1.86-3-3.23,0-1.84,1.49-3.35,3.94-3.35a5.68,5.68,0,0,1,2.81.71l-.52,1.51a4.37,4.37,0,0,0-2.33-.66c-1.23,0-1.91.7-1.91,1.55s.68,1.37,2.17,1.94c2,.75,3,1.74,3,3.44,0,2-1.55,3.42-4.27,3.42a6.56,6.56,0,0,1-3.21-.78Z"/><path class="cls-3" d="M986.92,72.75c0,1.18,0,2.22.1,3.12h-1.84L985.06,74h0a4.29,4.29,0,0,1-3.77,2.12c-1.8,0-3.94-1-3.94-5V64.45h2.07v6.32c0,2.17.66,3.63,2.55,3.63a3,3,0,0,0,2.74-1.88,3.28,3.28,0,0,0,.19-1.07v-7h2.07Z"/><path class="cls-3" d="M990.36,67.54c0-1.18,0-2.15-.09-3.09h1.82l.09,1.84h.07a3.93,3.93,0,0,1,3.59-2.1,3.38,3.38,0,0,1,3.23,2.29h0a4.61,4.61,0,0,1,1.27-1.49,3.88,3.88,0,0,1,2.52-.8c1.51,0,3.76,1,3.76,5v6.73h-2V69.4c0-2.19-.81-3.51-2.48-3.51a2.68,2.68,0,0,0-2.45,1.88,3.33,3.33,0,0,0-.17,1v7.06h-2V69c0-1.81-.8-3.13-2.38-3.13A3.1,3.1,0,0,0,992.39,69v6.89h-2Z"/><path d="M1443.4.5V31.63a12,12,0,0,1-12,12H435.45a12,12,0,0,1-12-12V.5Z"/><rect class="cls-5" x="619.11" y="147.63" width="54.15" height="22.49" rx="4.68"/><rect class="cls-5" x="681.88" y="147.63" width="54.15" height="22.49" rx="4.68"/><rect class="cls-5" x="744.64" y="147.63" width="54.15" height="22.49" rx="4.68"/><rect class="cls-5" x="808.53" y="147.63" width="54.15" height="22.49" rx="4.68"/><rect class="cls-5" x="871.29" y="147.63" width="54.15" height="22.49" rx="4.68"/><rect class="cls-5" x="935.18" y="147.63" width="54.15" height="22.49" rx="4.68"/><rect class="cls-5" x="999.07" y="147.63" width="54.15" height="22.49" rx="4.68"/><rect class="cls-5" x="1065.2" y="147.63" width="54.15" height="22.49" rx="4.68"/><rect class="cls-5" x="1133.57" y="147.63" width="54.15" height="22.49" rx="4.68"/><rect class="cls-5" x="1200.81" y="147.63" width="54.15" height="22.49" rx="4.68"/><rect class="cls-5" x="1271.43" y="147.63" width="54.15" height="22.49" rx="4.68"/><rect class="cls-5" x="1340.92" y="147.63" width="54.15" height="22.49" rx="4.68"/><path class="cls-8" d="M1919.5,319.66V982.1c-105.25,45-225.64,38-319.42-29.55-148.07-106.73-173.74-324.19-57.32-485.7C1634.36,339.77,1786.62,285.17,1919.5,319.66Z"/><ellipse class="cls-1" cx="1657.91" cy="620.98" rx="100.5" ry="150.52" transform="translate(-108.51 739.48) rotate(-24.37)"/><line class="cls-9" x1="1594.16" y1="485.13" x2="1650.1" y2="608.62"/><polygon class="cls-10" points="354.18 403.6 283.09 434.13 257.23 445.24 230.87 456.56 230.82 456.58 229.84 457 217.58 462.27 217.57 462.27 170.17 482.63 139.62 495.75 10.53 551.19 -0.5 525.51 -0.5 0.5 181.06 0.5 188.44 17.69 199.88 44.33 211.33 70.98 222.77 97.63 234.21 124.27 234.22 124.27 257.1 177.57 268.55 204.21 291.43 257.51 302.88 284.15 354.18 403.6"/><line class="cls-10" x1="6.9" y1="0.5" x2="-0.5" y2="3.65"/><line class="cls-10" x1="80.85" y1="0.5" x2="-0.5" y2="35.18"/><line class="cls-10" x1="154.81" y1="0.5" x2="-0.5" y2="66.71"/><line class="cls-10" x1="188.44" y1="17.69" x2="-0.5" y2="98.23"/><line class="cls-10" x1="199.88" y1="44.33" x2="-0.5" y2="129.75"/><line class="cls-10" x1="211.33" y1="70.98" x2="-0.5" y2="161.28"/><line class="cls-10" x1="222.77" y1="97.63" x2="-0.5" y2="192.8"/><polyline class="cls-10" points="234.22 124.27 234.21 124.27 -0.5 224.33"/><line class="cls-10" x1="245.66" y1="150.92" x2="-0.5" y2="255.86"/><path class="cls-10" d="M257.1,177.57,1,286.73H1l-1.51.64"/><polyline class="cls-10" points="-0.5 318.9 109.46 272.03 110.86 271.43 201.38 232.85 201.42 232.83 208.61 229.76 208.65 229.74 268.55 204.21"/><polyline class="cls-10" points="279.99 230.86 224.7 254.43 202.26 264 108.04 304.16 105.18 305.38 75.45 318.05 54.4 327.03 -0.5 350.43"/><polyline class="cls-10" points="291.43 257.51 235.43 281.38 209.54 292.42 194.68 298.75 172 308.42 147.18 319 113.26 333.46 95.74 340.93 84.17 345.86 57.63 357.17 -0.5 381.95"/><polyline class="cls-10" points="-0.5 413.48 81.3 378.61 175.9 338.28 175.97 338.25 183.16 335.18 183.19 335.17 218.22 320.24 244.11 309.2 302.88 284.15"/><polyline class="cls-10" points="-0.5 445.01 159.32 376.88 170.96 371.91 174.05 370.6 174.06 370.6 186.52 365.28 226.9 348.06 252.79 337.03 313.4 311.19"/><polyline class="cls-10" points="324.85 337.84 261.48 364.86 235.59 375.89 184.23 397.78 153.7 410.8 -0.5 476.53"/><polyline class="cls-10" points="336.29 364.49 270.16 392.68 244.27 403.72 178.61 431.71 148.07 444.73 -0.5 508.06"/><path class="cls-5" d="M127.26,367.69h22.43a2.55,2.55,0,0,1,2.55,2.55V799.69a12,12,0,0,1-12,12h-4a12,12,0,0,1-12-12v-429a3,3,0,0,1,3-3Z" transform="translate(98.27 -14.67) rotate(9.41)"/><polygon class="cls-3" points="187.57 374.66 160.91 370.25 182.06 325.3 187.57 374.66"/><polygon class="cls-5" points="172.7 345.03 182.06 325.3 184.54 347 172.7 345.03"/><path class="cls-5" d="M214,482h22.43a2.55,2.55,0,0,1,2.55,2.55V914a12,12,0,0,1-12,12h-4a12,12,0,0,1-12-12V485A3,3,0,0,1,214,482Z"/><polygon class="cls-3" points="238.51 483.8 211.49 483.8 225 436 238.51 483.8"/><polygon class="cls-5" points="219 457 225 436 231 457 219 457"/><path class="cls-11" d="M.8,289.94q4.56-7.45,9.8-14.69c1.13-1.57-1.47-3.07-2.6-1.52-3.45,4.77-6.83,9.85-9.8,14.69-1,1.65,1.59,3.16,2.6,1.52Z"/><path class="cls-11" d="M248.48,259.57c-8.08,7.53-16,15.23-24.27,22.61-2.56,2.3-4.63,4.18-8.16,4.14-2.19,0-4.05-.92-6.18-1.29a11.12,11.12,0,0,0-8.63,2.07c-6.84,4.95-7.51,14.1-13.28,19.8-10.69,10.56-20.81-5.53-24.78-13.85a1.52,1.52,0,0,0-2.6,0c-6.34,10.88-12.46,21.93-19.06,32.65-2.81,4.55-6.19,9.3-10.87,12.09-6.27,3.73-12.74,1-16.09-5.09-3.12-5.66-3.7-12.69-4.33-19q-.89-8.94-.88-17.93a179.62,179.62,0,0,1,4.71-40.4l-3-.4a425.75,425.75,0,0,1-7,48.21q-2.55,12.38-5.92,24.56c-2.11,7.62-4.18,15.57-8.31,22.4-3.85,6.36-9.74,11.45-17.4,12.21-8.51.84-14.36-4.55-16.13-12.6-1.6-7.29-.85-15.36-.44-22.75.47-8.48,1.38-16.92,2.68-25.32l-1.85,1.05c14.6,2.81,21.16,21.95,24.26,34.52,3.76,15.23,4,32.64-3.85,46.66C62.66,409.66,27.76,421-.1,416.09c-1.89-.33-2.7,2.56-.8,2.9,29.85,5.3,68.23-7.34,82.06-36.29,7.2-15.08,6.44-33.1,2-48.87-3.63-13-10.67-31.08-25.65-34a1.53,1.53,0,0,0-1.85,1.05c-2.21,14.3-4,29.36-3,43.84.71,10,5.32,19.8,16.44,20.65S89.17,358.38,94,349c6.69-13.15,9.62-28.84,12.66-43.17A432.5,432.5,0,0,0,114.11,255c.15-1.69-2.57-2-3-.4a183.57,183.57,0,0,0-4.73,46.78,153.08,153.08,0,0,0,2,21.9c1,5.59,2.8,11.78,7.11,15.76,8.17,7.55,18.29,1.66,24.13-5.55,4.24-5.22,7.35-11.31,10.73-17.09q6.36-10.92,12.74-21.83h-2.6c3.79,7.92,8.78,17.16,18.51,18.33,10.25,1.24,14.16-8.22,18-15.78,3-5.91,7.3-10.43,14.29-8.6,4.25,1.11,7.5,1.39,11.3-1.19,4.37-3,8.09-7.19,11.94-10.78q8-7.43,15.95-14.86c1.42-1.32-.71-3.44-2.12-2.12Z"/><path class="cls-5" d="M269.87,252H292.3a2.55,2.55,0,0,1,2.55,2.55V684a12,12,0,0,1-12,12h-4a12,12,0,0,1-12-12V255a3,3,0,0,1,3-3Z" transform="translate(-128.43 105.17) rotate(-17.33)"/><polygon class="cls-3" points="228.16 259.73 202.36 267.78 201.02 218.12 228.16 259.73"/><polygon class="cls-5" points="201.55 239.96 201.02 218.12 213.01 236.38 201.55 239.96"/></svg>
