<svg id="Layer_1" data-name="Layer 1" xmlns="http://www.w3.org/2000/svg" width="1920" height="1080" viewBox="0 0 1920 1080"><defs><style>.cls-1{fill:#55365d;}.cls-15,.cls-2,.cls-9{fill:#40364b;}.cls-3{fill:#131a2f;}.cls-4{fill:#402c4b;}.cls-10,.cls-5{fill:#28283b;}.cls-11,.cls-16,.cls-6{fill:#17152f;}.cls-7{fill:#0f091a;}.cls-8{fill:#22223c;}.cls-11,.cls-9{opacity:0.34;}.cls-10{stroke:#000;}.cls-10,.cls-15{stroke-miterlimit:10;}.cls-12{fill:#17222f;}.cls-13{opacity:0.22;}.cls-14{fill:#40365d;}.cls-15{stroke:#17222f;stroke-width:4px;}.cls-16{opacity:0.44;}</style></defs><title>party</title><rect class="cls-1" width="1920" height="1080"/><polygon class="cls-2" points="963.64 -0.31 963.46 0 952.66 18.71 945.32 31.43 945.05 31.89 938.39 43.43 931.73 31.89 931.55 31.58 913.32 0 913.14 -0.31 963.64 -0.31"/><ellipse class="cls-3" cx="938.39" cy="215.11" rx="190.41" ry="183.33"/><circle class="cls-1" cx="821.87" cy="120.69" r="20.05"/><circle class="cls-4" cx="892.73" cy="144.38" r="20.05"/><circle class="cls-4" cx="932.58" cy="86.07" r="20.05"/><circle class="cls-2" cx="866.41" cy="72.34" r="20.05"/><circle class="cls-1" cx="978.48" cy="140.74" r="20.05"/><circle class="cls-2" cx="1001.82" cy="72.34" r="20.05"/><circle class="cls-1" cx="1054" cy="112.43" r="20.05"/><circle class="cls-4" cx="1098.75" cy="164.43" r="20.05"/><circle class="cls-4" cx="1028.25" cy="191.69" r="20.05"/><circle class="cls-2" cx="958.43" cy="215.11" r="20.05"/><circle class="cls-1" cx="880.44" cy="211.74" r="20.05"/><circle class="cls-2" cx="817.88" cy="191.69" r="20.05"/><circle class="cls-5" cx="773.38" cy="248.25" r="20.05"/><path class="cls-4" d="M761.81,146.48a20,20,0,1,1-11.74,38.33Z"/><circle class="cls-5" cx="845.96" cy="279.09" r="20.05"/><circle class="cls-5" cx="922.32" cy="299.14" r="20.05"/><circle class="cls-1" cx="998.68" cy="288.34" r="20.05"/><circle class="cls-1" cx="1061.96" cy="259.05" r="20.05"/><path class="cls-5" d="M1083.67,332.46a20,20,0,1,1,25.55-30.89Z"/><path class="cls-2" d="M1031.3,375.45a20,20,0,1,1,34-21.27Z"/><circle class="cls-5" cx="969.46" cy="375.45" r="20.05"/><circle class="cls-5" cx="897.69" cy="375.4" r="20.05"/><path class="cls-1" d="M809.82,351.5A20,20,0,0,1,842,375.4Z"/><path class="cls-2" d="M766.78,296.48a20,20,0,1,1,22,33.52Z"/><path class="cls-2" d="M1125.33,249.21a20,20,0,0,1,4.26-39.87Z"/><path class="cls-6" d="M958.43,31.29a20,20,0,1,1-40.09.44Z"/><rect class="cls-4" x="203" y="119" width="401" height="568" rx="23.63"/><rect class="cls-7" x="235" y="150" width="148" height="156" rx="12"/><rect class="cls-7" x="415" y="150" width="148" height="156" rx="12"/><rect class="cls-7" x="235" y="330" width="148" height="156" rx="12"/><rect class="cls-7" x="415" y="330" width="148" height="156" rx="12"/><rect class="cls-7" x="235" y="504" width="148" height="156" rx="12"/><rect class="cls-7" x="415" y="504" width="148" height="156" rx="12"/><polygon class="cls-2" points="273.54 203.81 266.6 201.82 261.03 206.41 260.78 199.19 254.7 195.31 261.48 192.84 263.3 185.86 267.74 191.55 274.94 191.12 270.9 197.1 273.54 203.81"/><polygon class="cls-2" points="314.81 249.47 308.27 244.94 300.83 247.76 303.12 240.14 298.15 233.94 306.1 233.76 310.46 227.11 313.08 234.62 320.75 236.71 314.43 241.53 314.81 249.47"/><polygon class="cls-2" points="450.03 176.59 444.36 173.4 438.51 176.26 439.8 169.88 435.27 165.2 441.74 164.45 444.79 158.7 447.5 164.62 453.91 165.75 449.11 170.15 450.03 176.59"/><polygon class="cls-2" points="327.1 425.96 321.42 423.61 316.26 426.95 316.75 420.82 311.98 416.95 317.95 415.52 320.16 409.78 323.37 415.02 329.5 415.35 325.51 420.02 327.1 425.96"/><polygon class="cls-2" points="276.17 382.06 269.83 379.96 264.5 384 264.54 377.32 259.05 373.51 265.41 371.47 267.35 365.07 271.25 370.5 277.93 370.36 273.98 375.75 276.17 382.06"/><polygon class="cls-2" points="440.37 366.25 435.19 363.07 429.63 365.52 431.06 359.62 427 355.09 433.07 354.62 436.12 349.37 438.44 354.99 444.38 356.27 439.75 360.21 440.37 366.25"/><circle class="cls-2" cx="507.5" cy="206.5" r="47.5"/><circle class="cls-8" cx="491.5" cy="193.5" r="11.5"/><circle class="cls-8" cx="499.5" cy="225.5" r="3.5"/><circle class="cls-8" cx="531" cy="215" r="5"/><circle class="cls-8" cx="517.5" cy="188.5" r="2.5"/><ellipse class="cls-8" cx="507" cy="170" rx="8" ry="7"/><circle class="cls-8" cx="522.5" cy="243.5" r="5.5"/><circle class="cls-8" cx="472" cy="215" r="2"/><circle class="cls-8" cx="539.5" cy="192.5" r="3.5"/><rect class="cls-4" x="1331" y="126" width="401" height="568" rx="23.63"/><rect class="cls-7" x="1363" y="157" width="148" height="156" rx="12"/><rect class="cls-7" x="1543" y="157" width="148" height="156" rx="12"/><rect class="cls-7" x="1363" y="337" width="148" height="156" rx="12"/><rect class="cls-7" x="1543" y="337" width="148" height="156" rx="12"/><rect class="cls-7" x="1363" y="511" width="148" height="156" rx="12"/><rect class="cls-7" x="1543" y="511" width="148" height="156" rx="12"/><polygon class="cls-8" points="1416.54 229.81 1409.6 227.82 1404.03 232.41 1403.78 225.19 1397.7 221.31 1404.48 218.84 1406.3 211.86 1410.74 217.55 1417.94 217.12 1413.9 223.1 1416.54 229.81"/><polygon class="cls-8" points="1499.81 186.47 1493.27 181.94 1485.83 184.76 1488.12 177.14 1483.15 170.94 1491.1 170.76 1495.46 164.11 1498.08 171.62 1505.76 173.71 1499.43 178.53 1499.81 186.47"/><polygon class="cls-8" points="1578.03 183.59 1572.36 180.4 1566.51 183.26 1567.8 176.88 1563.27 172.2 1569.74 171.45 1572.79 165.7 1575.5 171.62 1581.91 172.75 1577.11 177.15 1578.03 183.59"/><polygon class="cls-8" points="1601.1 221.96 1595.42 219.61 1590.27 222.95 1590.75 216.82 1585.97 212.95 1591.95 211.52 1594.16 205.78 1597.37 211.02 1603.5 211.35 1599.51 216.02 1601.1 221.96"/><polygon class="cls-8" points="1434.67 192.06 1428.32 189.96 1423 194 1423.03 187.32 1417.55 183.51 1423.91 181.47 1425.84 175.07 1429.74 180.5 1436.42 180.36 1432.47 185.75 1434.67 192.06"/><polygon class="cls-8" points="1654.37 222.25 1649.19 219.07 1643.63 221.53 1645.06 215.62 1641.01 211.09 1647.07 210.62 1650.12 205.37 1652.43 210.99 1658.38 212.27 1653.75 216.21 1654.37 222.25"/><polygon class="cls-9" points="888.41 75.66 886.03 76.42 860.27 84.62 857.92 85.37 847.05 77.55 829.34 64.81 756.64 12.52 739.23 0 879.75 0 881.58 15.98 884.25 39.3 888.41 75.66"/><polygon class="cls-9" points="1920 0 1920 382.08 1755.89 333.26 1732 326.16 1709.69 319.52 1684.02 311.89 1543 269.93 1542.95 269.92 1526.17 264.92 1511 260.41 1506.9 259.19 1407.44 229.6 1403.9 228.55 1363 216.38 1361.72 216 1331 206.86 1304.1 198.86 1113.06 142.03 1082.3 132.88 1082.27 132.87 1072.19 129.87 1066.42 128.15 1054.14 124.5 1056.28 119.77 1062.58 105.88 1066.66 96.89 1067.6 94.81 1076.27 92.79 1076.65 92.7 1079.5 92.04 1079.51 92.04 1093.17 88.86 1093.19 88.85 1206.29 62.53 1304.1 39.77 1453.52 5 1475 0 1920 0"/><rect class="cls-10" x="-0.5" y="998.5" width="1920" height="41"/><rect class="cls-10" x="-0.5" y="1039.5" width="1920" height="41"/><polygon class="cls-11" points="836.3 107.03 835.92 107.51 816.27 131.99 812.02 131.84 812.01 131.84 807.96 131.68 807.95 131.68 805.58 131.6 805.03 131.58 769.56 130.26 748.75 129.48 718.71 128.36 715.78 128.25 671.37 126.6 671.36 126.6 644.5 125.61 634.72 125.24 633.32 125.2 594.6 123.76 466.59 119 431.63 117.7 309.58 113.16 269.6 111.67 245.79 110.78 192.11 108.8 153.52 107.36 120.28 106.12 90.57 105.02 80.13 104.63 46.51 103.38 9.44 102 2.99 101.76 2.45 101.74 0 94.8 0 0 746.09 0 756.64 12.52 782.1 42.73 804.03 68.75 811.9 78.08 830.5 100.15 830.84 100.55 835.22 105.75 836.3 107.03"/><rect class="cls-12" x="261" y="775" width="33" height="305"/><rect class="cls-12" x="333" y="825" width="31" height="255"/><rect class="cls-13" x="333" y="826" width="31" height="255"/><rect class="cls-12" x="720" y="806" width="33" height="274"/><rect class="cls-12" x="647" y="801" width="31" height="279"/><rect class="cls-13" x="647" y="801" width="31" height="279"/><ellipse class="cls-6" cx="489" cy="764.5" rx="377" ry="92.5"/><polygon class="cls-14" points="478 753 415 753 403 655 490 655 478 753"/><ellipse class="cls-15" cx="446.5" cy="655.5" rx="43.5" ry="6.5"/><ellipse class="cls-14" cx="446.5" cy="752.5" rx="31.5" ry="7.5"/><polygon class="cls-14" points="362 754 299 754 287 656 374 656 362 754"/><ellipse class="cls-15" cx="330.5" cy="656.5" rx="43.5" ry="6.5"/><ellipse class="cls-14" cx="330.5" cy="753.5" rx="31.5" ry="7.5"/><polygon class="cls-9" points="817.87 170.77 817.79 171.65 817.41 176 814.96 203.61 807.21 208.67 807.05 208.77 806.7 209 776.73 228.49 776.72 228.49 753.95 243.31 750.59 245.5 688.25 286.05 604 340.85 598.9 344.17 563 367.52 462.39 432.97 415 463.8 353.21 504 235 580.9 203 601.72 133.81 646.73 0 733.78 0 246.32 -184.74 269.58 -188.11 260.67 0 243.86 45.13 239.83 67.22 237.85 67.33 237.84 96 235.28 203 225.72 235 222.86 279.61 218.87 319.31 215.33 383 209.64 415 206.78 460.15 202.74 479.18 201.04 482.57 200.74 501.57 199.04 501.58 199.04 538.25 195.76 541.3 195.49 541.31 195.49 542.62 195.37 553.44 194.4 563 193.55 604 189.88 752.18 176.64 752.58 176.6 773.82 174.71 786.86 173.54 786.89 173.54 797.99 172.55 817.87 170.77"/><polygon class="cls-11" points="1252.8 0 1235.08 9.86 1187.95 36.1 1093.17 88.86 1082.2 94.96 1070.71 101.36 1062.58 105.88 1035.78 120.8 1006.53 137.08 1006.51 137.09 998.5 141.55 998.26 141.68 983.5 149.9 981.29 145.31 970.29 122.44 969.62 121.06 973.31 114.02 973.47 113.71 987.71 86.57 1005.51 52.64 1009.51 45.01 1028.73 8.36 1033.11 0 1252.8 0"/><polygon class="cls-11" points="1920 336.99 1920 884.67 1902.56 925.74 1694.99 757.65 1649.72 720.99 1616.39 694 1583.04 667 1543 634.57 1511 608.66 1486.31 588.67 1450.98 560.05 1390.41 511 1331 462.89 1308.71 444.84 1252.24 399.11 1113.65 286.88 1081.89 261.17 1055.74 239.99 1034.87 223.09 1034.85 223.07 1024.97 215.07 1007.28 200.74 1009.49 198.77 1011.83 196.67 1035.86 175.21 1040.86 176.12 1046.45 177.14 1046.92 177.22 1127.28 191.93 1205.34 206.21 1324.86 228.08 1331 229.2 1363 235.06 1507.45 261.5 1511 262.15 1526.17 264.92 1543 268 1691 295.09 1732 302.59 1920 336.99"/><polygon class="cls-11" points="895.88 133.54 895.37 139.29 893.1 164.42 892.62 169.68 883.58 175.69 883.18 175.95 790.37 237.61 756.99 259.79 754.17 261.66 747.82 265.88 645.7 333.71 604 361.41 563 388.64 489.69 437.34 419.93 483.68 381.07 509.5 235 606.54 203 627.79 114.18 686.8 0 762.65 0 246.32 11.93 244.82 67.22 237.85 67.33 237.84 70.11 237.49 203 220.76 235 216.73 280.15 211.05 325.57 205.33 383 198.1 415 194.07 463.76 187.93 463.77 187.93 483.26 185.48 483.27 185.48 497.49 183.69 508.45 182.31 545.26 177.68 563 175.45 581.02 173.18 604 170.29 760.09 150.63 760.56 150.57 768.01 149.64 768.02 149.64 860.42 138 860.45 138 873.15 136.4 874.41 136.24 895.88 133.54"/><polygon class="cls-16" points="860.76 294.26 859.82 297.54 857.98 304.01 857.85 304.44 846.04 345.78 840.34 365.74 840.17 366.35 816.17 450.38 784.72 560.48 746.6 693.96 736.68 728.68 704.63 840.88 687 902.61 659.9 997.5 656 1011.14 648.19 1038.5 636.62 1079 636.48 1079.5 373 1079.5 373 1080 342 1080 342 1079.5 131.64 1079.5 130.67 1079 117.77 1072.31 148.15 1038.5 184.99 997.5 270 902.9 285.57 885.57 303 866.17 321.75 845.3 322.16 844.84 421.79 733.96 454.26 697.83 464.89 686 478.26 671.12 482.82 666.05 489.16 659 489.56 658.55 493.65 654 495.5 651.94 572 566.81 597.84 538.05 613 521.18 643.49 487.25 792.67 321.22 792.77 321.12 805.97 306.43 819.2 291.7 819.22 291.68 827.21 282.79 835.42 273.66 841.51 266.88 844.58 271.23 860.76 294.26"/><polygon class="cls-9" points="1194.98 1080.5 1194.81 1080 1181.48 1039.5 1167.99 998.5 1152.27 950.74 1049.09 637.27 1006.23 507.05 978.17 421.8 969.67 395.98 969.51 395.49 957.6 359.28 940.98 308.8 940.86 308.47 940.54 307.5 938.38 300.92 912.84 292.42 908.01 290.82 903.75 306.69 903.63 307.14 901.19 316.26 901.18 316.28 890.33 356.76 882 387.88 881.4 390.09 847.44 516.83 833.48 568.93 798.3 700.2 795.5 710.63 789.56 732.8 764.11 827.74 753 869.21 749.15 883.57 737.96 925.34 720 992.36 718.36 998.5 707.37 1039.5 696.52 1080 696.38 1080.5 1194.98 1080.5"/><polygon class="cls-11" points="1778.92 1080.5 1316.74 1080.5 1316.53 1080 1299.61 1039.5 1282.47 998.5 1259.21 942.83 1238.77 893.89 1156.42 696.8 1123.73 618.59 1023.65 379.06 997.92 317.48 997.91 317.45 993.88 307.81 992.19 303.76 981.95 279.26 987.6 279.14 1016.18 278.56 1017.41 278.53 1026.12 287.7 1026.5 288.1 1076.76 341.03 1156.8 425.32 1255.09 528.84 1331 608.78 1363 642.48 1386.28 667 1405.25 686.98 1411.92 694 1701.06 998.5 1739.99 1039.5 1766.71 1067.64 1778.45 1080 1778.92 1080.5"/></svg>
