<svg id="Layer_1" data-name="Layer 1" xmlns="http://www.w3.org/2000/svg" width="1920" height="1080" viewBox="0 0 1920 1080"><defs><style>.cls-1{fill:#fff;}.cls-2{fill:#55365d;}.cls-3{fill:#17222f;}.cls-4{fill:#40364b;}.cls-5{fill:#4c364b;}.cls-6{opacity:0.44;}.cls-13,.cls-14,.cls-15,.cls-18,.cls-7{fill:none;}.cls-13,.cls-7{stroke:#000;}.cls-13,.cls-14,.cls-15,.cls-7{stroke-miterlimit:10;}.cls-8{opacity:0.19;}.cls-9{opacity:0.47;}.cls-10{opacity:0.77;}.cls-11{fill:#402f4b;}.cls-12{fill:#402c4b;}.cls-13{stroke-width:0.5px;}.cls-14{stroke:#40364b;}.cls-15{stroke:#17222f;}.cls-16{opacity:0.15;}.cls-17{fill:#28283b;}.cls-19{opacity:0.14;}</style></defs><title>gym</title><polygon class="cls-1" points="1920 106.63 1920 1080 0 1080 0 90 1919 90 1919 106.9 1920 106.63"/><rect class="cls-2" x="0.13" y="116.13" width="245.75" height="423.75"/><path class="cls-3" d="M245.75,116.25v423.5H.25V116.25h245.5M246,116H0V540H246V116Z"/><rect class="cls-2" x="246.13" y="116.13" width="272.75" height="423.75"/><path class="cls-3" d="M518.75,116.25v423.5H246.25V116.25h272.5M519,116H246V540H519V116Z"/><rect class="cls-2" x="519.13" y="116.13" width="272.75" height="423.75"/><path class="cls-3" d="M791.75,116.25v423.5H519.25V116.25h272.5M792,116H519V540H792V116Z"/><rect class="cls-3" x="792.5" y="116.5" width="272" height="423"/><path class="cls-3" d="M1064,117V539H793V117h271m1-1H792V540h273V116Z"/><rect class="cls-2" x="1066.13" y="116.13" width="272.75" height="423.75"/><path class="cls-3" d="M1338.75,116.25v423.5h-272.5V116.25h272.5m.25-.25H1066V540h273V116Z"/><rect class="cls-2" x="1339.13" y="116.13" width="272.75" height="423.75"/><path class="cls-3" d="M1611.75,116.25v423.5h-272.5V116.25h272.5m.25-.25H1339V540h273V116Z"/><rect class="cls-2" x="1612.13" y="116.13" width="272.75" height="423.75"/><path class="cls-3" d="M1884.75,116.25v423.5h-272.5V116.25h272.5m.25-.25H1612V540h273V116Z"/><rect class="cls-2" x="1885.13" y="116.13" width="34.75" height="423.75"/><path class="cls-3" d="M1919.75,116.25v423.5h-34.5V116.25h34.5m.25-.25h-35V540h35V116Z"/><rect class="cls-2" x="0.13" y="540.13" width="245.75" height="423.75"/><path class="cls-3" d="M245.75,540.25v423.5H.25V540.25h245.5M246,540H0V964H246V540Z"/><rect class="cls-2" x="521.13" y="540.13" width="272.75" height="423.75"/><path class="cls-3" d="M793.75,540.25v423.5H521.25V540.25h272.5M794,540H521V964H794V540Z"/><rect class="cls-2" x="793.13" y="540.13" width="272.75" height="423.75"/><path class="cls-3" d="M1065.75,540.25v423.5H793.25V540.25h272.5m.25-.25H793V964h273V540Z"/><rect class="cls-2" x="1066.13" y="540.13" width="272.75" height="423.75"/><path class="cls-3" d="M1338.75,540.25v423.5h-272.5V540.25h272.5m.25-.25H1066V964h273V540Z"/><rect class="cls-2" x="1339.13" y="540.13" width="272.75" height="423.75"/><path class="cls-3" d="M1611.75,540.25v423.5h-272.5V540.25h272.5m.25-.25H1339V964h273V540Z"/><rect class="cls-2" x="1885.13" y="540.13" width="34.75" height="423.75"/><path class="cls-3" d="M1919.75,540.25v423.5h-34.5V540.25h34.5m.25-.25h-35V964h35V540Z"/><rect class="cls-4" y="963" width="1919" height="46"/><rect class="cls-5" x="0.13" y="1010.13" width="1919.75" height="69.75"/><path class="cls-3" d="M1919.75,1010.25v69.5H.25v-69.5h1919.5m.25-.25H0v70H1920v-70Z"/><g class="cls-6"><rect y="964" width="1919" height="46"/></g><line class="cls-7" x1="0.5" y1="1052.5" x2="1920.5" y2="1055.5"/><polygon class="cls-2" points="896.13 152.1 1065.88 116.15 1065.88 539.91 896.13 588.83 896.13 152.1"/><path class="cls-3" d="M1065.75,116.31v423.5l-169.5,48.86V152.2l169.5-35.89m.25-.31L896,152V589l170-49V116Z"/><g class="cls-8"><polygon points="1067 540 897 589 897 152 1067 116 1067 540"/></g><rect class="cls-4" x="893" y="151" width="5" height="438"/><g class="cls-9"><rect class="cls-3" x="893" y="151" width="5" height="438"/></g><rect class="cls-4" x="891.79" y="132.99" width="176.93" height="4.13" transform="translate(-6.55 208.2) rotate(-12.08)"/><g class="cls-9"><rect class="cls-3" x="892.79" y="132.99" width="176.93" height="4.13" transform="translate(-6.53 208.41) rotate(-12.08)"/></g><rect class="cls-3" x="246.5" y="540.5" width="274" height="423"/><path class="cls-3" d="M520,541V963H247V541H520m1-1H246V964H521V540Z"/><polygon class="cls-2" points="350.13 577.1 519.88 541.15 519.88 964.91 350.13 1013.83 350.13 577.1"/><path class="cls-3" d="M519.75,541.31v423.5l-169.5,48.86V577.2l169.5-35.89M520,541,350,577v437l170-49V541Z"/><g class="cls-8"><polygon points="522 968 352 1017 352 580 522 544 522 968"/></g><rect class="cls-4" x="347" y="576" width="5" height="438"/><g class="cls-9"><rect class="cls-3" x="347" y="576" width="5" height="438"/></g><rect class="cls-4" x="345.79" y="557.99" width="176.93" height="4.13" transform="translate(-107.62 103.32) rotate(-12.08)"/><g class="cls-9"><rect class="cls-3" x="344.79" y="557.99" width="176.93" height="4.13" transform="translate(-107.64 103.11) rotate(-12.08)"/></g><rect class="cls-3" x="1612" y="540" width="273" height="424"/><polygon class="cls-2" points="1791.13 567.1 1884.88 541.16 1884.88 964.92 1789.13 1009.8 1791.13 567.1"/><path class="cls-3" d="M1884.75,541.33V964.84l-95.5,44.77,2-442.42,93.5-25.86m.25-.33-94,26-2,443,96-45V541Z"/><rect class="cls-4" x="1786" y="567" width="5" height="443"/><g class="cls-10"><rect class="cls-3" x="1786" y="567" width="5" height="443"/></g><ellipse class="cls-11" cx="35.5" cy="340.5" rx="20.5" ry="17.5"/><ellipse class="cls-11" cx="279.5" cy="340.5" rx="20.5" ry="17.5"/><ellipse class="cls-11" cx="556.5" cy="340.5" rx="20.5" ry="17.5"/><ellipse class="cls-11" cx="1110.5" cy="345.5" rx="20.5" ry="17.5"/><ellipse class="cls-11" cx="1382.5" cy="345.5" rx="20.5" ry="17.5"/><ellipse class="cls-11" cx="1650.5" cy="352.5" rx="20.5" ry="17.5"/><ellipse class="cls-11" cx="1382.5" cy="760.5" rx="20.5" ry="17.5"/><ellipse class="cls-11" cx="1096.5" cy="760.5" rx="20.5" ry="17.5"/><ellipse class="cls-11" cx="839.5" cy="760.5" rx="20.5" ry="17.5"/><ellipse class="cls-11" cx="556.5" cy="760.5" rx="20.5" ry="17.5"/><ellipse class="cls-11" cx="35.5" cy="760.5" rx="20.5" ry="17.5"/><g class="cls-8"><polygon points="1885 967 1789 1012 1791 569 1885 543 1885 967"/></g><polygon class="cls-4" points="1790.51 566.82 1786 567 1878 541 1883 541 1790.51 566.82"/><g class="cls-10"><polygon class="cls-3" points="1791.51 566.82 1786 567 1879 541 1884 541 1791.51 566.82"/></g><ellipse class="cls-4" cx="925.5" cy="368.5" rx="20.5" ry="16.5" transform="translate(-68.4 301.33) rotate(-17.84)"/><rect class="cls-12" x="0.13" y="90.13" width="1919.75" height="25.75"/><path class="cls-3" d="M1919.75,90.25v25.5H.25V90.25h1919.5M1920,90H0v26H1920V90Z"/><line class="cls-13" x1="347.94" y1="90" x2="247" y2="116"/><line class="cls-13" x1="103.94" y1="90" x2="3" y2="116"/><line class="cls-13" x1="620.94" y1="90" x2="520" y2="116"/><line class="cls-13" x1="894.94" y1="90" x2="794" y2="116"/><polyline class="cls-13" points="1166.94 90 1066.61 115.84 1066 116"/><line class="cls-13" x1="1437.94" y1="90" x2="1337" y2="116"/><line class="cls-13" x1="1707.94" y1="90" x2="1607" y2="116"/><polyline class="cls-13" points="1920.5 106.5 1920 106.63 1919 106.9 1885 116"/><line class="cls-14" x1="1712.94" y1="936" x2="1612" y2="962"/><line class="cls-14" x1="1712.5" y1="935.5" x2="1712.5" y2="539.5"/><line class="cls-14" x1="1712.5" y1="935.5" x2="1786.5" y2="935.5"/><line class="cls-15" x1="892.94" y1="513" x2="792" y2="539"/><line class="cls-7" x1="346.5" y1="939.5" x2="247" y2="965"/><polygon class="cls-7" points="346.5 963.5 248.5 964.5 346.5 940.5 346.5 963.5"/><g class="cls-16"><polygon points="251.64 963.5 345.02 940.63 345.67 963.5 251.64 963.5"/><path d="M344.54,941.27l.62,21.73H255.79l88.75-21.73m1-1.27-98,24h98.69l-.69-24Z"/></g><g class="cls-16"><polygon points="798.69 537.58 892.5 513.64 892.5 539.49 798.69 537.58"/><path class="cls-3" d="M892,514.29V539l-89.62-1.83L892,514.29m1-1.29-98,25,98,2V513Z"/></g><g class="cls-16"><polygon points="1713 964 1612 962 1713 936 1713 964"/></g><g class="cls-16"><rect x="1713" y="936" width="73" height="27"/></g><line class="cls-14" x1="895.5" y1="150.5" x2="895.5" y2="116.5"/><line class="cls-14" x1="346.5" y1="576" x2="346.5" y2="542"/><rect class="cls-17" x="0.5" y="0.5" width="1919" height="89"/><path class="cls-3" d="M1919,1V89H1V1H1919m1-1H0V90H1920V0Z"/><line class="cls-7" x1="351.5" y1="1010.5" x2="174.5" y2="1079.5"/><line class="cls-7" x1="423.5" y1="1011.5" x2="246.5" y2="1080.5"/><line class="cls-7" x1="500.5" y1="1011.5" x2="323.5" y2="1080.5"/><line class="cls-7" x1="591.5" y1="1012.5" x2="414.5" y2="1081.5"/><line class="cls-7" x1="681.5" y1="1013.5" x2="504.5" y2="1082.5"/><line class="cls-7" x1="782.5" y1="1010.5" x2="605.5" y2="1079.5"/><line class="cls-7" x1="860.5" y1="1010.5" x2="683.5" y2="1079.5"/><line class="cls-7" x1="948.5" y1="1010.5" x2="771.5" y2="1079.5"/><line class="cls-7" x1="1037.5" y1="1010.5" x2="860.5" y2="1079.5"/><line class="cls-7" x1="1139.5" y1="1010.5" x2="962.5" y2="1079.5"/><line class="cls-7" x1="1219.5" y1="1011.5" x2="1042.5" y2="1080.5"/><line class="cls-7" x1="1303.5" y1="1010.5" x2="1126.5" y2="1079.5"/><line class="cls-7" x1="1403.5" y1="1010.5" x2="1226.5" y2="1079.5"/><line class="cls-7" x1="1491.5" y1="1010.5" x2="1314.5" y2="1079.5"/><line class="cls-7" x1="1580.5" y1="1011.5" x2="1403.5" y2="1080.5"/><line class="cls-7" x1="1682.5" y1="1011.5" x2="1505.5" y2="1080.5"/><line class="cls-7" x1="1759.5" y1="1012.5" x2="1582.5" y2="1081.5"/><line class="cls-7" x1="1857.5" y1="1010.5" x2="1680.5" y2="1079.5"/><polyline class="cls-7" points="1767.5 1078.5 1814.1 1060.33 1920 1019.05"/><polyline class="cls-7" points="1869.5 1078.5 1915.69 1060.49 1920 1058.81"/><line class="cls-7" x1="262.5" y1="1010.5" x2="85.5" y2="1079.5"/><line class="cls-7" x1="184.5" y1="1010.5" x2="7.5" y2="1079.5"/><line class="cls-7" x1="107.5" y1="1010.5" y2="1052.41"/><line class="cls-7" x1="29.5" y1="1010.5" y2="1022"/><rect class="cls-18" x="-0.5" y="0.5" width="1921" height="89"/><path class="cls-12" d="M231,922.88a11.88,11.88,0,0,1,0-23.76H1684a11.88,11.88,0,1,1,0,23.76Z"/><path class="cls-3" d="M1684,899.25a11.75,11.75,0,0,1,0,23.5H231a11.75,11.75,0,0,1,0-23.5H1684m0-.25H231a12,12,0,0,0,0,24H1684a12,12,0,0,0,0-24Z"/><path class="cls-12" d="M196,923.13H1649A11.87,11.87,0,0,1,1660.88,935v5A11.88,11.88,0,0,1,1649,951.88H196A11.87,11.87,0,0,1,184.13,940v-5A11.88,11.88,0,0,1,196,923.13Z"/><path class="cls-3" d="M1649,923.25A11.76,11.76,0,0,1,1660.75,935v5A11.76,11.76,0,0,1,1649,951.75H196A11.76,11.76,0,0,1,184.25,940v-5A11.76,11.76,0,0,1,196,923.25H1649m0-.25H196a12,12,0,0,0-12,12v5a12,12,0,0,0,12,12H1649a12,12,0,0,0,12-12v-5a12,12,0,0,0-12-12Z"/><rect class="cls-12" x="151.13" y="952.13" width="1476.75" height="28.75" rx="11.88"/><path class="cls-3" d="M1616,952.25A11.76,11.76,0,0,1,1627.75,964v5A11.76,11.76,0,0,1,1616,980.75H163A11.76,11.76,0,0,1,151.25,969v-5A11.76,11.76,0,0,1,163,952.25H1616m0-.25H163a12,12,0,0,0-12,12v5a12,12,0,0,0,12,12H1616a12,12,0,0,0,12-12v-5a12,12,0,0,0-12-12Z"/><rect class="cls-17" x="300" y="981" width="43" height="99"/><g class="cls-19"><rect class="cls-17" x="300" y="981" width="43" height="99"/></g><rect class="cls-17" x="353" y="981" width="43" height="54"/><g class="cls-19"><rect class="cls-17" x="353" y="981" width="43" height="54"/></g><rect class="cls-17" x="1422.5" y="981.5" width="42" height="98"/><path class="cls-3" d="M1464,982v97h-41V982h41m1-1h-43v99h43V981Z"/><g class="cls-19"><rect class="cls-17" x="1422.5" y="981.5" width="42" height="98"/><path class="cls-3" d="M1464,982v97h-41V982h41m1-1h-43v99h43V981Z"/></g><rect class="cls-3" x="1476" y="981" width="43" height="54"/><g class="cls-19"><rect class="cls-17" x="1476.5" y="981.5" width="42" height="53"/><path class="cls-3" d="M1518,982v52h-41V982h41m1-1h-43v54h43V981Z"/></g><ellipse class="cls-17" cx="374.5" cy="1035" rx="21.5" ry="3"/><g class="cls-19"><ellipse class="cls-17" cx="374.55" cy="1034.69" rx="21.5" ry="2.21" transform="translate(-28.01 10.57) rotate(-1.56)"/></g><g class="cls-19"><ellipse class="cls-17" cx="1497.5" cy="1035" rx="21.5" ry="3"/></g><ellipse class="cls-17" cx="1497.5" cy="1035" rx="21.5" ry="3"/><ellipse class="cls-4" cx="374.5" cy="795.5" rx="20.5" ry="16.5" transform="translate(-225.75 153.03) rotate(-17.84)"/><ellipse class="cls-4" cx="1815.5" cy="797.5" rx="20.5" ry="16.5" transform="translate(-157.04 594.7) rotate(-17.84)"/></svg>
