<svg id="Layer_1" data-name="Layer 1" xmlns="http://www.w3.org/2000/svg" width="293" height="42" viewBox="0 0 293 42"><defs><style>.cls-1{fill:#0f86fe;}.cls-2{font-size:7.5645px;fill:#fff;font-family:Futura-Medium, Futura;}.cls-3{letter-spacing:0.0088em;}.cls-4{letter-spacing:0.0152em;}</style></defs><title>mulighed_3.2</title><path class="cls-1" d="M286,37.5469s-6.1373-.8875-9.8863-4.7481A13.4058,13.4058,0,0,0,279,24.5v-2A13.54,13.54,0,0,0,265.5,9H19.5A13.54,13.54,0,0,0,6,22.5v2A13.54,13.54,0,0,0,19.5,38h246a13.3679,13.3679,0,0,0,6.8835-1.9172A49.913,49.913,0,0,0,286,37.5469Z"/><text></text><text class="cls-2" transform="translate(18 26.7393) scale(0.9329 1)">Du <tspan class="cls-3" x="11.9485" y="0">t</tspan><tspan x="14.0836" y="0">ager </tspan><tspan class="cls-4" x="32.4963" y="0">f</tspan><tspan x="34.8564" y="0">at i dem som har sendt dit billede </tspan><tspan class="cls-4" x="151.4227" y="0">r</tspan><tspan x="154.3663" y="0">undt og beder dem sl</tspan><tspan class="cls-3" x="227.5807" y="0">e</tspan><tspan x="231.8319" y="0">t</tspan><tspan class="cls-3" x="233.9004" y="0">t</tspan><tspan x="236.0355" y="0">e billed</tspan><tspan class="cls-3" x="261.462" y="0">e</tspan><tspan x="265.7131" y="0">t.</tspan></text></svg>
