<svg id="Layer_1" data-name="Layer 1" xmlns="http://www.w3.org/2000/svg" width="234" height="43" viewBox="0 0 234 43"><defs><style>.cls-1{fill:#0f86fe;}.cls-2{font-size:7.3149px;fill:#fff;font-family:Futura-Medium, Futura;}.cls-3{letter-spacing:-0.0068em;}.cls-4{letter-spacing:-0.0001em;}.cls-5{letter-spacing:0.0088em;}</style></defs><title>mulighed_2.3_1</title><path class="cls-1" d="M227,32.535s-8.1929-1.3684-12.0546-7.6485A14.35,14.35,0,0,0,216,19.5h0A14.5426,14.5426,0,0,0,201.5,5H21.5A14.5426,14.5426,0,0,0,7,19.5H7A14.5426,14.5426,0,0,0,21.5,34h180a14.417,14.417,0,0,0,9.5206-3.6045A48.9672,48.9672,0,0,0,227,32.535Z"/><text class="cls-2" transform="translate(22 23.8652) scale(1.1478 1)">Du igno<tspan class="cls-3" x="26.1629" y="0">r</tspan><tspan class="cls-4" x="28.8489" y="0">e</tspan><tspan class="cls-3" x="32.8952" y="0">r</tspan><tspan x="35.5812" y="0">er d</tspan><tspan class="cls-5" x="49.0072" y="0">e</tspan><tspan x="53.1183" y="0">t og håber ingen opdager d</tspan><tspan class="cls-5" x="146.1186" y="0">e</tspan><tspan x="150.2296" y="0">t</tspan></text></svg>
