<svg id="Layer_1" data-name="Layer 1" xmlns="http://www.w3.org/2000/svg" width="383" height="56" viewBox="0 0 383 56"><defs><style>.cls-1{fill:#0f86fe;}.cls-2{fill:#fff;}</style></defs><title>Artboard 1</title><path class="cls-1" d="M375,46.62a10.43,10.43,0,0,1-7.53-7.08,10.08,10.08,0,0,0,.55-3.31V28.77c0-5.92-5.1-10.77-11.33-10.77H107.33C101.1,18,96,22.85,96,28.77v7.46C96,42.15,101.1,47,107.33,47H356.69a11.56,11.56,0,0,0,7.36-2.61A24.74,24.74,0,0,0,375,46.62Z"/><path class="cls-2" d="M107,36.42V28.88h1.58a5.75,5.75,0,0,1,1.8.23,3.39,3.39,0,0,1,1.29.75,3.91,3.91,0,0,1,0,5.61,3.58,3.58,0,0,1-1.28.74,5.87,5.87,0,0,1-1.78.21Zm1.14-1.07h.51a4.25,4.25,0,0,0,1.28-.16,2.5,2.5,0,0,0,.91-.54,2.58,2.58,0,0,0,.84-2,2.61,2.61,0,0,0-.83-2,3.12,3.12,0,0,0-2.2-.69h-.51Z"/><path class="cls-2" d="M115.14,31.67V34.4c0,.79.31,1.18.93,1.18s.94-.39.94-1.18V31.67h1.1v2.75a3,3,0,0,1-.15,1,1.68,1.68,0,0,1-.47.67,2.33,2.33,0,0,1-2.83,0,1.61,1.61,0,0,1-.48-.67,2.74,2.74,0,0,1-.14-1V31.67Z"/><path class="cls-2" d="M123.72,32.69v3.73h-1.11V32.69h-.39v-1h.39V29.83a2.05,2.05,0,0,1,.31-1.27,1.56,1.56,0,0,1,1.25-.52,2,2,0,0,1,.74.18v1.12l-.11-.06a1.38,1.38,0,0,0-.59-.18.4.4,0,0,0-.39.21,2,2,0,0,0-.1.79v1.57h1.19v1Z"/><path class="cls-2" d="M125.44,34a2.37,2.37,0,0,1,.74-1.75,2.47,2.47,0,0,1,1.8-.72,2.51,2.51,0,0,1,1.81.72,2.46,2.46,0,0,1,.73,1.79,2.41,2.41,0,0,1-.74,1.79,2.5,2.5,0,0,1-1.82.72,2.41,2.41,0,0,1-1.79-.73A2.44,2.44,0,0,1,125.44,34Zm1.13,0a1.58,1.58,0,0,0,.38,1.13,1.47,1.47,0,0,0,2.06,0A1.8,1.8,0,0,0,129,33a1.35,1.35,0,0,0-1-.42,1.33,1.33,0,0,0-1,.42A1.52,1.52,0,0,0,126.57,34Z"/><path class="cls-2" d="M131.68,31.67h1.1v.42a2.05,2.05,0,0,1,.54-.43,1.19,1.19,0,0,1,.56-.12,1.77,1.77,0,0,1,.91.28l-.5,1a1.06,1.06,0,0,0-.61-.23c-.6,0-.9.45-.9,1.36v2.46h-1.1Z"/><path class="cls-2" d="M136.91,32.69v3.73h-1.09V32.69h-.47v-1h.47V29.92h1.09v1.75h.86v1Z"/><path class="cls-2" d="M145.94,34.29h-3.43a1.51,1.51,0,0,0,.41.94,1.14,1.14,0,0,0,.85.35,1.45,1.45,0,0,0,1.25-.95l.95.52a3.73,3.73,0,0,1-.34.53,1.93,1.93,0,0,1-.39.37,2.54,2.54,0,0,1-1.52.52A2.38,2.38,0,0,1,142,35.8a2.1,2.1,0,0,1-1.76.77,2.18,2.18,0,0,1-1.41-.44,1.53,1.53,0,0,1,0-2.32,2,2,0,0,1,1.36-.45,2.69,2.69,0,0,1,1.24.32,1.21,1.21,0,0,0-.27-.9,1.33,1.33,0,0,0-.92-.26,4.68,4.68,0,0,0-1.26.18v-1a8,8,0,0,1,1.37-.14,2,2,0,0,1,1.67.67,2.19,2.19,0,0,1,1.66-.67,2.16,2.16,0,0,1,1.67.67A2.5,2.5,0,0,1,146,34Zm-6.58.67a.54.54,0,0,0,.27.46,1.19,1.19,0,0,0,.69.19,1.39,1.39,0,0,0,.73-.19.56.56,0,0,0,.29-.49.52.52,0,0,0-.3-.43,1.3,1.3,0,0,0-.73-.19,1.16,1.16,0,0,0-.68.19A.56.56,0,0,0,139.36,35Zm5.43-1.56a1,1,0,0,0-1.07-.87,1.07,1.07,0,0,0-1.13.87Z"/><path class="cls-2" d="M148.22,28.18v8.24h-1.1V28.18Z"/><path class="cls-2" d="M150.71,28.18v8.24h-1.1V28.18Z"/><path class="cls-2" d="M156.44,34.3H153a1.42,1.42,0,0,0,.38.94,1.18,1.18,0,0,0,.86.34,1.12,1.12,0,0,0,.68-.2,2.62,2.62,0,0,0,.6-.72l.93.52a4.65,4.65,0,0,1-.45.63,3,3,0,0,1-.52.43,2,2,0,0,1-.59.24,3,3,0,0,1-.69.08,2.26,2.26,0,0,1-1.71-.68,2.57,2.57,0,0,1-.64-1.83,2.69,2.69,0,0,1,.62-1.83,2.18,2.18,0,0,1,1.67-.68,2.11,2.11,0,0,1,1.66.67,2.59,2.59,0,0,1,.61,1.84Zm-1.13-.89a1.05,1.05,0,0,0-1.11-.88,1.21,1.21,0,0,0-.38.06,1.41,1.41,0,0,0-.32.17,1.31,1.31,0,0,0-.24.28,1.38,1.38,0,0,0-.16.37Z"/><path class="cls-2" d="M157.64,31.67h1.1v.42a2.21,2.21,0,0,1,.53-.43,1.26,1.26,0,0,1,.57-.12,1.77,1.77,0,0,1,.91.28l-.51,1a1,1,0,0,0-.61-.23c-.6,0-.89.45-.89,1.36v2.46h-1.1Z"/><path class="cls-2" d="M165.81,28.88v6.47H168v1.07h-3.36V28.88Z"/><path class="cls-2" d="M172.4,31.67h1.11v4.75H172.4v-.49a2.12,2.12,0,0,1-3.09-.08,2.65,2.65,0,0,1-.64-1.82,2.54,2.54,0,0,1,.64-1.78,2,2,0,0,1,1.6-.71,2,2,0,0,1,1.49.68ZM169.79,34a1.65,1.65,0,0,0,.37,1.11,1.21,1.21,0,0,0,1,.44,1.26,1.26,0,0,0,1-.42,1.8,1.8,0,0,0,0-2.21,1.24,1.24,0,0,0-1-.42,1.2,1.2,0,0,0-1,.43A1.57,1.57,0,0,0,169.79,34Z"/><path class="cls-2" d="M176,31.67V34.4c0,.79.31,1.18.93,1.18s.94-.39.94-1.18V31.67H179v2.75a3,3,0,0,1-.15,1,1.68,1.68,0,0,1-.47.67,2.33,2.33,0,0,1-2.83,0,1.61,1.61,0,0,1-.48-.67,2.74,2.74,0,0,1-.14-1V31.67Z"/><path class="cls-2" d="M180.34,31.67h1.1v.42a2.05,2.05,0,0,1,.54-.43,1.25,1.25,0,0,1,.56-.12,1.75,1.75,0,0,1,.91.28l-.5,1a1.06,1.06,0,0,0-.61-.23c-.6,0-.9.45-.9,1.36v2.46h-1.1Z"/><path class="cls-2" d="M187.52,31.67h1.1v4.75h-1.1v-.49a2.12,2.12,0,0,1-3.09-.08,2.65,2.65,0,0,1-.64-1.82,2.54,2.54,0,0,1,.64-1.78,2,2,0,0,1,1.6-.71,2,2,0,0,1,1.49.68ZM184.91,34a1.6,1.6,0,0,0,.37,1.11,1.2,1.2,0,0,0,.95.44,1.26,1.26,0,0,0,1-.42,1.8,1.8,0,0,0,0-2.21,1.24,1.24,0,0,0-1-.42,1.2,1.2,0,0,0-1,.43A1.57,1.57,0,0,0,184.91,34Z"/><path class="cls-2" d="M193.1,28.18h1.09v3.88a1.91,1.91,0,0,1,1.3-.52,1.66,1.66,0,0,1,1.29.52,2.13,2.13,0,0,1,.41,1.45v2.91h-1.1V33.61a1.39,1.39,0,0,0-.2-.83.8.8,0,0,0-.66-.25.92.92,0,0,0-.81.35,2.49,2.49,0,0,0-.23,1.24v2.3H193.1Z"/><path class="cls-2" d="M199.17,31.67l1.23,2.67,1.23-2.67h1.23l-2.47,5.08-2.45-5.08Z"/><path class="cls-2" d="M206.94,31.67H208v4.75h-1.1v-.49a2.12,2.12,0,0,1-3.09-.08,2.65,2.65,0,0,1-.64-1.82,2.54,2.54,0,0,1,.64-1.78,2,2,0,0,1,1.6-.71,2,2,0,0,1,1.49.68ZM204.33,34a1.6,1.6,0,0,0,.37,1.11,1.19,1.19,0,0,0,.94.44,1.26,1.26,0,0,0,1-.42,1.8,1.8,0,0,0,0-2.21,1.26,1.26,0,0,0-1-.42,1.19,1.19,0,0,0-.94.43A1.57,1.57,0,0,0,204.33,34Z"/><path class="cls-2" d="M212.93,28.18H214v8.24h-1.11v-.49a2,2,0,0,1-1.47.63,2.11,2.11,0,0,1-1.62-.71A2.69,2.69,0,0,1,209.2,34a2.61,2.61,0,0,1,.64-1.78,2.08,2.08,0,0,1,1.6-.71,2,2,0,0,1,1.49.68ZM210.33,34a1.65,1.65,0,0,0,.36,1.11,1.21,1.21,0,0,0,.95.44,1.26,1.26,0,0,0,1-.42,1.84,1.84,0,0,0,0-2.21,1.26,1.26,0,0,0-1-.42,1.21,1.21,0,0,0-1,.43A1.57,1.57,0,0,0,210.33,34Z"/><path class="cls-2" d="M222,28.18h1.1v8.24H222v-.49a2.08,2.08,0,0,1-1.47.63,2.11,2.11,0,0,1-1.62-.71,2.65,2.65,0,0,1-.64-1.82,2.56,2.56,0,0,1,.64-1.78,2,2,0,0,1,1.59-.71,2,2,0,0,1,1.5.68ZM219.41,34a1.6,1.6,0,0,0,.37,1.11,1.19,1.19,0,0,0,.94.44,1.26,1.26,0,0,0,1-.42,1.84,1.84,0,0,0,0-2.21,1.26,1.26,0,0,0-1-.42,1.18,1.18,0,0,0-.94.43A1.53,1.53,0,0,0,219.41,34Z"/><path class="cls-2" d="M228.84,34.3h-3.41a1.47,1.47,0,0,0,.38.94,1.19,1.19,0,0,0,.86.34,1.12,1.12,0,0,0,.68-.2,2.62,2.62,0,0,0,.6-.72l.93.52a3.91,3.91,0,0,1-.45.63,2.91,2.91,0,0,1-.51.43,2.09,2.09,0,0,1-.6.24,3,3,0,0,1-.68.08,2.26,2.26,0,0,1-1.71-.68,2.57,2.57,0,0,1-.65-1.83,2.64,2.64,0,0,1,.63-1.83,2.17,2.17,0,0,1,1.67-.68,2.13,2.13,0,0,1,1.66.67,2.63,2.63,0,0,1,.6,1.84Zm-1.13-.89a1,1,0,0,0-1.11-.88,1.1,1.1,0,0,0-.37.06,1.09,1.09,0,0,0-.32.17,1.12,1.12,0,0,0-.25.28,1.38,1.38,0,0,0-.16.37Z"/><path class="cls-2" d="M230,31.67h1.1v.42a2.21,2.21,0,0,1,.53-.43,1.26,1.26,0,0,1,.57-.12,1.77,1.77,0,0,1,.91.28l-.5,1a1.08,1.08,0,0,0-.61-.23c-.6,0-.9.45-.9,1.36v2.46H230Z"/><path class="cls-2" d="M241.2,34.3h-3.41a1.42,1.42,0,0,0,.38.94,1.18,1.18,0,0,0,.86.34,1.12,1.12,0,0,0,.68-.2,2.62,2.62,0,0,0,.6-.72l.93.52a3.91,3.91,0,0,1-.45.63,2.64,2.64,0,0,1-.52.43,2,2,0,0,1-.59.24,3,3,0,0,1-.69.08,2.22,2.22,0,0,1-1.7-.68,2.57,2.57,0,0,1-.65-1.83,2.64,2.64,0,0,1,.63-1.83,2.17,2.17,0,0,1,1.67-.68,2.14,2.14,0,0,1,1.66.67,2.63,2.63,0,0,1,.6,1.84Zm-1.13-.89a1,1,0,0,0-1.11-.88,1.21,1.21,0,0,0-.38.06,1.41,1.41,0,0,0-.32.17A1.31,1.31,0,0,0,238,33a1.38,1.38,0,0,0-.16.37Z"/><path class="cls-2" d="M242.4,31.67h1.1v.42a2.21,2.21,0,0,1,.53-.43,1.26,1.26,0,0,1,.57-.12,1.77,1.77,0,0,1,.91.28l-.51,1a1,1,0,0,0-.61-.23c-.6,0-.89.45-.89,1.36v2.46h-1.1Z"/><path class="cls-2" d="M252,32.48l-.91.48c-.14-.29-.32-.44-.53-.44a.4.4,0,0,0-.26.1.36.36,0,0,0-.11.26c0,.18.21.36.64.54a3.77,3.77,0,0,1,1.17.69,1.22,1.22,0,0,1,.3.86,1.51,1.51,0,0,1-.5,1.15,1.75,1.75,0,0,1-1.19.44,1.73,1.73,0,0,1-1.7-1.17l.94-.43a1.8,1.8,0,0,0,.3.43.65.65,0,0,0,.48.19c.37,0,.55-.17.55-.51s-.14-.38-.43-.55l-.33-.16-.34-.16a1.89,1.89,0,0,1-.67-.47,1.11,1.11,0,0,1-.25-.76,1.34,1.34,0,0,1,.43-1,1.47,1.47,0,0,1,1-.4A1.44,1.44,0,0,1,252,32.48Z"/><path class="cls-2" d="M254.38,28.18v5l1.55-1.54h1.47l-2.06,2,2.21,2.75h-1.42l-1.57-2-.18.17v1.83h-1.1V28.18Z"/><path class="cls-2" d="M262.43,34.3H259a1.47,1.47,0,0,0,.38.94,1.22,1.22,0,0,0,.87.34,1.14,1.14,0,0,0,.68-.2,3,3,0,0,0,.6-.72l.93.52a4.67,4.67,0,0,1-.46.63,2.91,2.91,0,0,1-.51.43,2,2,0,0,1-.59.24,3,3,0,0,1-.69.08,2.26,2.26,0,0,1-1.71-.68,2.57,2.57,0,0,1-.64-1.83,2.64,2.64,0,0,1,.62-1.83,2.18,2.18,0,0,1,1.67-.68,2.13,2.13,0,0,1,1.66.67,2.63,2.63,0,0,1,.61,1.84Zm-1.13-.89a1,1,0,0,0-1.1-.88,1.16,1.16,0,0,0-.38.06,1.23,1.23,0,0,0-.32.17,1.13,1.13,0,0,0-.4.65Z"/><path class="cls-2" d="M264.85,32.69v3.73h-1.1V32.69h-.46v-1h.46V29.92h1.1v1.75h.86v1Z"/><path class="cls-2" d="M269.32,34a2.36,2.36,0,0,1,.73-1.75,2.47,2.47,0,0,1,1.8-.72,2.51,2.51,0,0,1,1.81.72,2.55,2.55,0,0,1,0,3.58,2.5,2.5,0,0,1-1.82.72,2.41,2.41,0,0,1-1.79-.73A2.47,2.47,0,0,1,269.32,34Zm1.12,0a1.62,1.62,0,0,0,.38,1.13,1.47,1.47,0,0,0,2.06,0,1.76,1.76,0,0,0,0-2.21,1.46,1.46,0,0,0-2.05,0A1.52,1.52,0,0,0,270.44,34Z"/><path class="cls-2" d="M280.15,36.31c0,.23,0,.42,0,.59s0,.33-.06.46a2.05,2.05,0,0,1-.46.92,2.24,2.24,0,0,1-1.77.74,2.37,2.37,0,0,1-1.57-.51,2.09,2.09,0,0,1-.73-1.46h1.1a1.22,1.22,0,0,0,.21.54,1.18,1.18,0,0,0,1,.45c.8,0,1.2-.5,1.2-1.48v-.67a2.1,2.1,0,0,1-3.1,0,2.64,2.64,0,0,1-.62-1.78,2.71,2.71,0,0,1,.58-1.77,2,2,0,0,1,1.65-.77,1.88,1.88,0,0,1,1.49.67v-.54h1.1Zm-1-2.25a1.62,1.62,0,0,0-.37-1.11,1.24,1.24,0,0,0-1-.43,1.18,1.18,0,0,0-1,.47,1.88,1.88,0,0,0,0,2.13,1.15,1.15,0,0,0,1,.46,1.2,1.2,0,0,0,1-.46A1.66,1.66,0,0,0,279.1,34.06Z"/><path class="cls-2" d="M289.22,36.31a5.25,5.25,0,0,1,0,.59,2.72,2.72,0,0,1-.06.46,2.05,2.05,0,0,1-.46.92,2.24,2.24,0,0,1-1.77.74,2.37,2.37,0,0,1-1.57-.51,2.09,2.09,0,0,1-.73-1.46h1.1a1.35,1.35,0,0,0,.21.54,1.18,1.18,0,0,0,1,.45c.8,0,1.2-.5,1.2-1.48v-.67a2,2,0,0,1-1.5.67,2,2,0,0,1-1.6-.7,2.64,2.64,0,0,1-.62-1.78,2.71,2.71,0,0,1,.58-1.77,2,2,0,0,1,1.65-.77,1.88,1.88,0,0,1,1.49.67v-.54h1.1Zm-1.05-2.25A1.62,1.62,0,0,0,287.8,33a1.21,1.21,0,0,0-1-.43,1.19,1.19,0,0,0-1,.47,1.88,1.88,0,0,0,0,2.13,1.3,1.3,0,0,0,2,0A1.61,1.61,0,0,0,288.17,34.06Z"/><path class="cls-2" d="M294.12,31.67h1.1v4.75h-1.1v-.49a2.12,2.12,0,0,1-3.09-.08,2.65,2.65,0,0,1-.64-1.82,2.54,2.54,0,0,1,.64-1.78,2,2,0,0,1,1.6-.71,2,2,0,0,1,1.49.68ZM291.51,34a1.6,1.6,0,0,0,.37,1.11,1.18,1.18,0,0,0,.94.44,1.26,1.26,0,0,0,1-.42,1.84,1.84,0,0,0,0-2.21,1.26,1.26,0,0,0-1-.42,1.21,1.21,0,0,0-.95.43A1.57,1.57,0,0,0,291.51,34Zm.37-4.17a1.08,1.08,0,0,1,1.06-1.05,1,1,0,0,1,.76.31,1.06,1.06,0,0,1,.31.75,1,1,0,0,1-.31.75,1.05,1.05,0,0,1-1.51,0A1,1,0,0,1,291.88,29.86Zm.59,0a.45.45,0,0,0,.48.48.45.45,0,0,0,.34-.13.46.46,0,0,0,.14-.35.48.48,0,0,0-.48-.48.41.41,0,0,0-.19,0,.54.54,0,0,0-.16.1.86.86,0,0,0-.1.16A.48.48,0,0,0,292.47,29.87Z"/><path class="cls-2" d="M296.61,31.67h1.1v.42a2.21,2.21,0,0,1,.53-.43,1.26,1.26,0,0,1,.57-.12,1.77,1.77,0,0,1,.91.28l-.51,1a1.06,1.06,0,0,0-.61-.23c-.6,0-.89.45-.89,1.36v2.46h-1.1Z"/><path class="cls-2" d="M304.57,32.69v3.73h-1.1V32.69H303v-1h.47V29.92h1.1v1.75h.85v1Z"/><path class="cls-2" d="M306,29.69a.72.72,0,1,1,1.22.51.67.67,0,0,1-.5.21.72.72,0,0,1-.72-.72Zm1.27,2v4.75h-1.1V31.67Z"/><path class="cls-2" d="M309.76,28.18v8.24h-1.1V28.18Z"/><path class="cls-2" d="M318.56,34.3h-3.4a1.42,1.42,0,0,0,.38.94,1.18,1.18,0,0,0,.86.34,1.14,1.14,0,0,0,.68-.2,2.62,2.62,0,0,0,.6-.72l.93.52a4.67,4.67,0,0,1-.46.63,2.91,2.91,0,0,1-.51.43,2,2,0,0,1-.59.24,3,3,0,0,1-.69.08,2.26,2.26,0,0,1-1.71-.68,2.57,2.57,0,0,1-.64-1.83,2.69,2.69,0,0,1,.62-1.83,2.18,2.18,0,0,1,1.67-.68,2.11,2.11,0,0,1,1.66.67,2.59,2.59,0,0,1,.61,1.84Zm-1.12-.89a1.06,1.06,0,0,0-1.11-.88,1.16,1.16,0,0,0-.38.06,1.23,1.23,0,0,0-.32.17,1.08,1.08,0,0,0-.24.28,1.12,1.12,0,0,0-.16.37Z"/><path class="cls-2" d="M319.77,31.67h1.1v.44a1.8,1.8,0,0,1,1.3-.57,1.63,1.63,0,0,1,1.29.52,2.13,2.13,0,0,1,.4,1.45v2.91h-1.1V33.77a1.73,1.73,0,0,0-.2-1,.75.75,0,0,0-.69-.28.86.86,0,0,0-.78.36,2.53,2.53,0,0,0-.22,1.25v2.29h-1.1Z"/><path class="cls-2" d="M328.93,31.67l1.23,2.67,1.22-2.67h1.24l-2.47,5.08-2.45-5.08Z"/><path class="cls-2" d="M332.94,34a2.37,2.37,0,0,1,.74-1.75,2.47,2.47,0,0,1,1.8-.72,2.51,2.51,0,0,1,1.81.72,2.46,2.46,0,0,1,.73,1.79,2.41,2.41,0,0,1-.74,1.79,2.5,2.5,0,0,1-1.82.72,2.41,2.41,0,0,1-1.79-.73A2.44,2.44,0,0,1,332.94,34Zm1.13,0a1.58,1.58,0,0,0,.38,1.13,1.47,1.47,0,0,0,2.06,0,1.8,1.8,0,0,0,0-2.21,1.35,1.35,0,0,0-1-.42,1.33,1.33,0,0,0-1,.42A1.52,1.52,0,0,0,334.07,34Z"/><path class="cls-2" d="M340.28,28.18v5l1.55-1.54h1.47l-2.06,2,2.21,2.75H342l-1.58-2-.17.17v1.83h-1.1V28.18Z"/><path class="cls-2" d="M346.92,32.48,346,33c-.15-.29-.33-.44-.54-.44a.42.42,0,0,0-.26.1.35.35,0,0,0-.1.26q0,.27.63.54a3.85,3.85,0,0,1,1.18.69,1.22,1.22,0,0,1,.3.86,1.49,1.49,0,0,1-.51,1.15,1.81,1.81,0,0,1-2.88-.73l.94-.43a1.86,1.86,0,0,0,.29.43.68.68,0,0,0,.48.19c.37,0,.56-.17.56-.51s-.15-.38-.43-.55l-.33-.16L345,34.2a1.89,1.89,0,0,1-.67-.47,1.11,1.11,0,0,1-.25-.76,1.36,1.36,0,0,1,.42-1,1.49,1.49,0,0,1,1.06-.4A1.43,1.43,0,0,1,346.92,32.48Z"/><path class="cls-2" d="M352.55,34.3h-3.41a1.47,1.47,0,0,0,.38.94,1.2,1.2,0,0,0,.87.34,1.11,1.11,0,0,0,.67-.2,2.8,2.8,0,0,0,.61-.72l.92.52a3.91,3.91,0,0,1-.45.63,2.91,2.91,0,0,1-.51.43,2.15,2.15,0,0,1-.59.24,3.1,3.1,0,0,1-.69.08,2.26,2.26,0,0,1-1.71-.68,2.57,2.57,0,0,1-.65-1.83,2.64,2.64,0,0,1,.63-1.83,2.17,2.17,0,0,1,1.67-.68,2.13,2.13,0,0,1,1.66.67,2.63,2.63,0,0,1,.6,1.84Zm-1.13-.89a1,1,0,0,0-1.11-.88,1.1,1.1,0,0,0-.37.06,1.09,1.09,0,0,0-.32.17,1.12,1.12,0,0,0-.25.28,1.38,1.38,0,0,0-.16.37Z"/><path class="cls-2" d="M353.75,31.67h1.1v.44a1.82,1.82,0,0,1,1.3-.57,1.64,1.64,0,0,1,1.3.52,2.18,2.18,0,0,1,.4,1.45v2.91h-1.11V33.77a1.74,1.74,0,0,0-.19-1,.78.78,0,0,0-.7-.28.84.84,0,0,0-.77.36,2.51,2.51,0,0,0-.23,1.25v2.29h-1.1Z"/></svg>
