<svg id="Layer_1" data-name="Layer 1" xmlns="http://www.w3.org/2000/svg" width="180" height="43" viewBox="0 0 180 43"><defs><style>.cls-1{fill:#0f86fe;}.cls-2{font-size:7.3597px;fill:#fcfcfc;font-family:Futura-Medium, Futura;}.cls-3{letter-spacing:-0.016em;}.cls-4{letter-spacing:0.0088em;}.cls-5{letter-spacing:0.0122em;}.cls-6{letter-spacing:0.0161em;}.cls-7{letter-spacing:-0.0001em;}.cls-8{letter-spacing:-0.02em;}.cls-9{letter-spacing:-0.0552em;}</style></defs><title>mulighed_3.1</title><path class="cls-1" d="M171,35.94a14.55,14.55,0,0,1-8.1577-6.1621A13.382,13.382,0,0,0,165,22.5,13.54,13.54,0,0,0,151.5,9H19.5a13.5,13.5,0,0,0,0,27h132a13.3955,13.3955,0,0,0,7.4669-2.2726A27.4507,27.4507,0,0,0,171,35.94Z"/><text class="cls-2" transform="translate(18 26.1602) scale(0.9385 1)">Du siger ik<tspan class="cls-3" x="35.4436" y="0">k</tspan><tspan x="38.9908" y="0">e nog</tspan><tspan class="cls-4" x="58.1985" y="0">e</tspan><tspan x="62.3346" y="0">t til nogen, du er </tspan><tspan class="cls-5" x="119.8723" y="0">f</tspan><tspan x="122.1469" y="0">or </tspan><tspan class="cls-6" x="131.5944" y="0">f</tspan><tspan class="cls-7" x="133.8982" y="0">l</tspan><tspan class="cls-8" x="135.7305" y="0">o</tspan><tspan class="cls-9" x="140.0071" y="0">v</tspan><tspan x="143.2988" y="0">.</tspan></text></svg>
