<svg id="Layer_1" data-name="Layer 1" xmlns="http://www.w3.org/2000/svg" width="293" height="40" viewBox="0 0 293 40"><defs><style>.cls-1{fill:#0f86fe;}.cls-2{font-size:7.1718px;fill:#fff;font-family:Futura-Medium, Futura;}.cls-3{letter-spacing:0.0087em;}.cls-4{letter-spacing:0.0001em;}.cls-5{letter-spacing:0.0122em;}.cls-6{letter-spacing:-0.0069em;}.cls-7{letter-spacing:-0.0068em;}.cls-8{letter-spacing:-0.0001em;}.cls-9{letter-spacing:-0.02em;}.cls-10{letter-spacing:0.0088em;}</style></defs><title>mulighed_3.3</title><path class="cls-1" d="M290,29.55s-6.015-.9023-9.3123-4.9256A12.9678,12.9678,0,0,0,271,3H15a13,13,0,0,0,0,26H271a12.8592,12.8592,0,0,0,5.374-1.1836A44.6575,44.6575,0,0,0,290,29.55Z"/><text class="cls-2" transform="translate(16 19.3848) scale(1.0431 1)">Du siger d<tspan class="cls-3" x="33.4811" y="0">e</tspan><tspan class="cls-4" x="37.5116" y="0">t til dine </tspan><tspan class="cls-5" x="65.6319" y="0">f</tspan><tspan x="67.8484" y="0">o</tspan><tspan class="cls-6" x="72.1593" y="0">r</tspan><tspan x="74.7925" y="0">æld</tspan><tspan class="cls-7" x="87.0524" y="0">r</tspan><tspan class="cls-8" x="89.6861" y="0">e når du </tspan><tspan class="cls-9" x="119.4167" y="0">k</tspan><tspan x="122.8451" y="0">ommer hjem som </tspan><tspan class="cls-10" x="180.0444" y="0">t</tspan><tspan x="182.0685" y="0">ager sagen vide</tspan><tspan class="cls-7" x="234.7991" y="0">r</tspan><tspan x="237.4327" y="0">e. </tspan></text></svg>
