<svg id="Layer_1" data-name="Layer 1" xmlns="http://www.w3.org/2000/svg" width="356" height="52" viewBox="0 0 356 52"><defs><style>.cls-1{fill:#0f86fe;}.cls-2{font-size:9.0382px;fill:#fff;font-family:Futura-Medium, Futura;}.cls-3{letter-spacing:0.0151em;}.cls-4{letter-spacing:0.0088em;}.cls-5{letter-spacing:0.0001em;}.cls-6{letter-spacing:-0.0069em;}.cls-7{letter-spacing:0.0058em;}.cls-8{letter-spacing:0.0088em;}</style></defs><title>mulighed_2.1</title><path class="cls-1" d="M349,38.5261s-8.2454-1.5993-12.0915-8.9527A14.8458,14.8458,0,0,0,338,24V19A15.0441,15.0441,0,0,0,323,4H23A15.0441,15.0441,0,0,0,8,19v5A15.0441,15.0441,0,0,0,23,39H323a14.8982,14.8982,0,0,0,9.2482-3.2273C336.38,37.2456,342.686,38.9441,349,38.5261Z"/><text class="cls-2" transform="translate(21 24.3916) scale(0.9527 1)">Du skynder dig at <tspan class="cls-3" x="75.4524" y="0">f</tspan><tspan x="78.2722" y="0">å alle til at sl</tspan><tspan class="cls-4" x="130.5507" y="0">e</tspan><tspan class="cls-5" x="135.6301" y="0">t</tspan><tspan class="cls-4" x="138.1019" y="0">t</tspan><tspan x="140.6527" y="0">e de</tspan><tspan class="cls-6" x="158.8614" y="0">r</tspan><tspan class="cls-5" x="162.1799" y="0">es sc</tspan><tspan class="cls-6" x="181.6115" y="0">r</tspan><tspan x="184.9299" y="0">eensh</tspan><tspan class="cls-7" x="208.5097" y="0">o</tspan><tspan x="213.9951" y="0">ts, så ingen opdager d</tspan><tspan class="cls-8" x="306.641" y="0">e</tspan><tspan x="311.7209" y="0">t.</tspan></text></svg>
