<svg id="Layer_1" data-name="Layer 1" xmlns="http://www.w3.org/2000/svg" viewBox="0 0 300 300"><defs><style>.cls-1{fill:#d1d1d1;}.cls-2{fill:#e9eced;}</style></defs><title>Artboard 1</title><rect class="cls-1" x="150" y="-23" width="15" height="221" rx="7.5" ry="7.5" transform="translate(-0.77 173.59) rotate(-57.6)"/><path class="cls-2" d="M61.92,243.6a7,7,0,0,1-6.24-3.8,7,7,0,0,1,3-9.42l183.2-94.21a6.88,6.88,0,0,1,3.18-.77,7,7,0,0,1,3.22,13.22L65.1,242.83A6.88,6.88,0,0,1,61.92,243.6Z"/><path class="cls-2" d="M245.08,135.9h0a6.5,6.5,0,0,1,3,12.28l-183.2,94.2a6.31,6.31,0,0,1-3,.72,6.5,6.5,0,0,1-3-12.28l183.2-94.2a6.31,6.31,0,0,1,3-.72m0-1a7.46,7.46,0,0,0-3.41.83l-183.2,94.2a7.5,7.5,0,0,0,6.86,13.34l183.2-94.2a7.5,7.5,0,0,0-3.45-14.17Z"/></svg>
