<svg xmlns="http://www.w3.org/2000/svg" width="385" height="465" viewBox="0 0 385 465"><defs><style>.cls-1{fill:#f4ac90;}.cls-2{fill:#aa5b21;}.cls-3{fill:#773c15;}.cls-4{fill:#ff7b22;}</style></defs><title>oppefrafregne</title><g id="fregneovenfra"><ellipse class="cls-1" cx="195" cy="167.5" rx="146" ry="84.5"/><circle class="cls-2" cx="192" cy="129" r="105"/><path class="cls-2" d="M203.65,266.15a13.4,13.4,0,0,1-23.21.08l-14.28-24.54-14.27-24.54A13.4,13.4,0,0,1,163.43,197l28.39-.1,28.39-.09a13.4,13.4,0,0,1,11.67,20.07l-14.11,24.63Z"/><circle class="cls-3" cx="239" cy="207" r="5"/><circle class="cls-3" cx="158" cy="209" r="5"/><circle class="cls-3" cx="184" cy="215" r="5"/><circle class="cls-3" cx="212" cy="219" r="5"/><circle class="cls-3" cx="178" cy="233" r="5"/><circle class="cls-4" cx="140" cy="47" r="23"/><circle class="cls-4" cx="110.5" cy="76.5" r="23.5"/><circle class="cls-4" cx="187.5" cy="34.5" r="29.5"/><circle class="cls-4" cx="238" cy="44" r="26"/><ellipse class="cls-4" cx="270.5" cy="82" rx="22.5" ry="18"/><ellipse class="cls-4" cx="264" cy="70" rx="20" ry="26"/><ellipse class="cls-4" cx="110" cy="121" rx="38" ry="30"/><circle class="cls-4" cx="284" cy="121" r="33"/><ellipse class="cls-4" cx="147.5" cy="161" rx="30.5" ry="27"/><circle class="cls-4" cx="187.5" cy="173.5" r="19.5"/><ellipse class="cls-4" cx="221.5" cy="178.5" rx="29.5" ry="23.5"/><ellipse class="cls-4" cx="236" cy="154" rx="20" ry="15" transform="translate(-44.03 122.48) rotate(-26.7)"/><circle class="cls-4" cx="259" cy="138" r="25"/><ellipse class="cls-4" cx="201.5" cy="113" rx="79.5" ry="60"/><rect class="cls-1" x="39.43" y="153.19" width="19.87" height="159.11" transform="translate(79.66 -3.24) rotate(19.29)"/><rect class="cls-1" x="327.4" y="178.86" width="19.68" height="133.14" transform="translate(-55.53 105.07) rotate(-16.38)"/><rect class="cls-1" x="9" y="321" width="144" height="21" transform="translate(158.01 -0.95) rotate(26.77)"/><rect class="cls-1" x="230" y="322" width="144" height="21" transform="translate(-125.79 195.55) rotate(-30)"/><ellipse class="cls-2" cx="140.5" cy="396.5" rx="27.5" ry="48.5"/><ellipse class="cls-2" cx="163.6" cy="368.71" rx="13.16" ry="33" transform="translate(-237.51 326.04) rotate(-60)"/><ellipse class="cls-2" cx="163.71" cy="447.88" rx="9.86" ry="33" transform="translate(-311.81 483.68) rotate(-74.23)"/><ellipse class="cls-2" cx="182.21" cy="412.91" rx="33" ry="8.94" transform="translate(-16.59 7.73) rotate(-2.32)"/><ellipse class="cls-2" cx="177.77" cy="428.84" rx="33" ry="9.03" transform="translate(-17.24 7.56) rotate(-2.32)"/></g></svg>
