<svg id="offerpige" xmlns="http://www.w3.org/2000/svg" width="390" height="850" viewBox="0 0 390 850"><defs><style>.cls-1{fill:#ce6405;}.cls-2{fill:#fcd0b1;}.cls-3{fill:#f4912d;}.cls-4{fill:#d88d48;}.cls-5{fill:#f9b587;}.cls-6{fill:#ffe0c7;}.cls-7{fill:#93521d;}.cls-8{fill:#fff8f3;}.cls-9{fill:#fff;}.cls-10{fill:#6d3c1b;}</style></defs><title>pigeoffer</title><polygon class="cls-1" points="332 400.04 300.26 415.85 268.51 431.65 270.7 396.26 272.88 360.87 302.44 380.45 332 400.04"/><polygon class="cls-1" points="146.4 426.43 113.09 414.25 79.79 402.07 106.99 379.32 134.19 356.56 140.29 391.5 146.4 426.43"/><rect class="cls-2" x="275" y="391.73" width="32.25" height="226.7" transform="translate(582.25 1010.16) rotate(-180)"/><polygon class="cls-2" points="316 643.81 310.65 614.17 305.29 584.53 297.5 601.24 289.72 617.95 302.86 630.88 316 643.81"/><ellipse class="cls-2" cx="282.96" cy="618.65" rx="37.86" ry="19.91" transform="translate(-390.88 712.07) rotate(-73.31)"/><rect class="cls-2" x="100.75" y="396" width="32.25" height="214.43"/><polygon class="cls-2" points="92 634.44 97.35 606.4 102.71 578.37 110.5 594.17 118.28 609.98 105.14 622.21 92 634.44"/><ellipse class="cls-2" cx="125.04" cy="610.63" rx="19.81" ry="35.99" transform="translate(-185.85 70.4) rotate(-18.35)"/><polygon class="cls-3" points="331.89 401.19 307.69 401.29 283.48 401.39 295.52 386.23 307.56 371.08 319.73 386.13 331.89 401.19"/><polygon class="cls-3" points="331.89 401.19 307.69 401.29 283.48 401.39 295.52 386.23 307.56 371.08 319.73 386.13 331.89 401.19"/><path class="cls-1" d="M265.06,800l24.16-114,.12,0c7.6-25.15,11.93-54.09,11.93-84.91,0-96.75-42.66-175.19-95.28-175.19s-95.28,78.44-95.28,175.19c0,33.58,5.14,64.95,14.05,91.6v7.1L146,800h49V568.6a11,11,0,1,1,22,0V800Z"/><rect class="cls-3" x="131.55" y="342.31" width="148.18" height="138.91"/><polygon class="cls-3" points="128.42 401.19 104.21 401.29 80.01 401.39 92.05 386.23 104.08 371.08 116.25 386.13 128.42 401.19"/><circle class="cls-1" cx="161.04" cy="400.55" r="29.49"/><circle class="cls-1" cx="236.97" cy="398.34" r="31.7"/><circle class="cls-3" cx="152.93" cy="391.7" r="33.91"/><circle class="cls-3" cx="229.6" cy="391.7" r="33.91"/><path class="cls-3" d="M269,322.38l-14.09-17.67H157l-14,17.51L95.79,381A12.25,12.25,0,0,0,105.33,401l100.55.13,100.56.13A12.25,12.25,0,0,0,316,381.32Z"/><rect class="cls-2" x="131.79" y="459.27" width="149.29" height="27.22"/><polygon class="cls-4" points="239.57 242.38 242.84 250.65 267.12 311.93 267.68 276.21 268.24 240.85 239.57 242.38"/><polygon class="cls-4" points="277.09 184.22 277.38 183.88 277.27 184.22 277.09 184.22"/><polygon class="cls-4" points="259.71 236.48 256.39 246.37 235.4 308.86 232.95 273.22 230.49 237.58 231.45 236.48 259.71 236.48"/><polygon class="cls-4" points="114.94 244.56 115.92 253.41 123.15 318.96 133.12 284.67 142.99 250.72 114.94 244.56"/><polygon class="cls-4" points="141.75 241.56 144.58 250 165.57 312.49 168.03 276.85 170.46 241.56 141.75 241.56"/><polygon class="cls-4" points="122.96 245.19 126.52 255.81 147.51 318.29 149.97 282.65 152.42 247.02 150.83 245.19 122.96 245.19"/><rect class="cls-4" x="115.2" y="60.8" width="152.41" height="203.99" rx="26.17"/><rect class="cls-2" x="177.32" y="211.07" width="53.45" height="131.4" rx="26.73"/><polygon class="cls-5" points="230.64 314.92 203.43 300.16 176.22 285.4 203.74 266.87 231.26 248.34 230.95 281.63 230.64 314.92"/><ellipse class="cls-2" cx="123.87" cy="199.46" rx="32.5" ry="32.67"/><ellipse class="cls-2" cx="257.5" cy="192.93" rx="32.5" ry="32.67"/><ellipse class="cls-5" cx="257.5" cy="192.93" rx="20.95" ry="21.05"/><ellipse class="cls-5" cx="123.87" cy="199.46" rx="20.95" ry="21.05"/><path class="cls-2" d="M250.27,197.54c-6.08,26-16.93,51.62-28.4,72.12-11.65,20.08-23.92,35-37,30-13-3.83-25.31-24.28-37-41.29-11.47-18-22.32-32.56-28.4-47.53-5.8-14.84-5.45-35,5.94-59.81,10.92-23.8,32.88-52.31,59.42-60.15,26.55-9.33,48.51,6.61,59.43,29C255.72,142.58,256.07,171.77,250.27,197.54Z"/><ellipse class="cls-6" cx="250.63" cy="192.56" rx="11.2" ry="11.25"/><polygon class="cls-4" points="146.66 7.47 146.38 7 146.47 7.45 146.66 7.47"/><polygon class="cls-4" points="160.49 77.48 163.38 91.9 180.38 176.8 186.51 129.53 192.63 82.27 191.06 79.72 160.49 77.48"/><polygon class="cls-4" points="177.06 90.34 189.88 98.63 265.38 147.44 238.08 107.11 210.79 66.77 207.52 66.2 177.06 90.34"/><polygon class="cls-4" points="137.89 71.69 140.97 84.84 161.96 174.56 164.41 123.39 166.87 72.23 166.54 71.69 137.89 71.69"/><path class="cls-7" d="M198.35,804.39c2.59-5.61-4.52-10.28-15.48-16.31a316,316,0,0,0-41-18.21c-15.23-5.15-29.82-6.82-43.66-2C84.75,772.4,72,783.43,68.38,799A456.38,456.38,0,0,0,198.35,804.39Z"/><path class="cls-7" d="M213,803.44c-2.55-5.47,4.43-10,15.19-15.91a310.88,310.88,0,0,1,40.23-17.77c15-5,29.28-6.66,42.87-2C324.5,772.23,337,783,340.58,798.17A450.59,450.59,0,0,1,213,803.44Z"/><rect class="cls-8" x="162.33" y="252.09" width="53" height="8.89" rx="4.44" transform="translate(-38.72 33.62) rotate(-9.23)"/><rect class="cls-5" x="179" y="267" width="20" height="5" rx="2.5" transform="translate(24.84 -15.81) rotate(5.13)"/><path class="cls-4" d="M151.17,161.85c-10.12,7.34-19.08,12.35-27.43,15.1-2.3.81-3.39,2.66-2.34,4.65l.8,1.55c1.12,2.07,3.87,4.16,5.93,4.21,7.58,0,15.3-2.08,23.69-6.47,2.26-1.13,3.76-6.32,3.79-11.13,0-1.18,0-2.34,0-3.49C155.85,161.53,154,159.8,151.17,161.85Z"/><path class="cls-4" d="M204.91,154.85c10.1,7.34,19,12.35,27.36,15.1,2.29.81,3.38,2.66,2.33,4.65l-.8,1.55c-1.11,2.07-3.85,4.16-5.91,4.21-7.56,0-15.26-2.08-23.62-6.47-2.26-1.13-3.76-6.32-3.78-11.13,0-1.18,0-2.34-.05-3.49C200.25,154.53,202.11,152.8,204.91,154.85Z"/><circle class="cls-7" cx="146" cy="199" r="21"/><circle class="cls-7" cx="210" cy="193" r="21"/><path class="cls-5" d="M200.23,230c0-.13,0-.25,0-.38a18.62,18.62,0,0,0-37.24,0c0,.13,0,.25,0,.38Z"/><path class="cls-7" d="M194.72,205a21.26,21.26,0,0,0-32.34.08l-5.41-4a28.26,28.26,0,0,1,43,.08Z"/><circle class="cls-9" cx="210" cy="193" r="15"/><circle class="cls-10" cx="210" cy="197" r="7"/><path class="cls-5" d="M198.54,203.24a15,15,0,0,0,26.27-8.08Z"/><circle class="cls-9" cx="146" cy="199" r="15"/><circle class="cls-10" cx="148" cy="204" r="7"/><path class="cls-5" d="M133.9,208.31a15,15,0,0,0,27.36-2.58Z"/><circle class="cls-7" cx="173" cy="224" r="4"/><circle class="cls-7" cx="189" cy="224" r="4"/><rect class="cls-7" x="225" y="184" width="32" height="7"/><rect class="cls-7" x="112.68" y="196.26" width="16.23" height="5.99" transform="translate(-18.13 12.19) rotate(-5.37)"/></svg>
