<svg xmlns="http://www.w3.org/2000/svg" xmlns:xlink="http://www.w3.org/1999/xlink" width="538" height="807" viewBox="0 0 538 807"><defs><style>.cls-1,.cls-4{fill:#fff;}.cls-2{fill:#4c4f51;}.cls-3{font-size:12px;fill:#f9f2ed;}.cls-3,.cls-4{font-family:SFCompactDisplay-Thin, SF Compact Display;}.cls-4{font-size:60px;}.cls-5{letter-spacing:-0.0049em;}.cls-6{letter-spacing:0.0088em;}.cls-7{letter-spacing:-0.0215em;}.cls-8{fill:#e9b58a;}.cls-9{fill:#e4a06e;}.cls-10{fill:#dd8c54;}.cls-11{fill:#f1882a;}.cls-12{fill:#ee740f;}.cls-13{fill:url(#radial-gradient);}.cls-14{fill:#152230;}.cls-15{fill:#e8ebec;}.cls-16{fill:#0e3151;}.cls-17{fill:#f3a967;}.cls-18{fill:#f3902d;}</style><radialGradient id="radial-gradient" cx="216.8141" cy="320.3875" r="265.3668" gradientTransform="translate(0.2313 8.5276) scale(1.0072 1.0283)" gradientUnits="userSpaceOnUse"><stop offset="0.435" stop-color="#fff"/><stop offset="0.5013" stop-color="#f5f5f5"/><stop offset="0.6157" stop-color="#d9d9d9"/><stop offset="0.7645" stop-color="#ababab"/><stop offset="0.9401" stop-color="#6d6d6d"/><stop offset="1" stop-color="#565656"/></radialGradient></defs><title>pige_krop</title><g id="Layer_6" data-name="Layer 6"><image width="128" height="180" transform="matrix(0.277, 0.0521, -0.0469, 0.2496, 112.4472, 536)" xlink:href="ios11-control-center-flashlight-icon.png"/><image width="512" height="512" transform="matrix(0.0402, 0.0057, -0.0059, 0.0416, 377.0307, 75)" xlink:href="Apple-04-512.png"/><image width="512" height="512" transform="matrix(0.0274, 0.0042, -0.0038, 0.025, 361.9631, 75)" xlink:href="Apple-01-512.png"/><rect class="cls-1" x="354.9054" y="77.7182" width="2.3366" height="8.6056" rx="0.9733" ry="0.9733" transform="translate(20.6738 -62.9714) rotate(10.407)"/><rect class="cls-1" x="351.351" y="78.2619" width="2.3366" height="7.419" rx="0.9733" ry="0.9733" transform="translate(20.6065 -62.3305) rotate(10.407)"/><rect class="cls-1" x="347.7487" y="78.9192" width="2.3366" height="6.3594" rx="0.9733" ry="0.9733" transform="translate(20.5702 -61.6777) rotate(10.407)"/><rect class="cls-1" x="344.1097" y="80.6353" width="2.3366" height="3.7449" rx="0.9733" ry="0.9733" transform="translate(20.5842 -61.0136) rotate(10.407)"/><rect class="cls-2" x="68.6667" y="40.0504" width="270.872" height="592.9354" rx="16" ry="16" transform="matrix(0.9848, 0.1736, -0.1736, 0.9848, 61.5365, -30.3296)"/><rect class="cls-2" x="97.6667" y="45.0504" width="270.872" height="592.9354" rx="16" ry="16" transform="matrix(0.9848, 0.1736, -0.1736, 0.9848, 62.8453, -35.2894)"/></g><g id="Layer_8" data-name="Layer 8"><text class="cls-3" transform="matrix(0.9848, 0.1736, -0.1736, 0.9848, 146.486, 48.9151)">3 DK</text><text class="cls-4" transform="matrix(0.9848, 0.1736, -0.1736, 0.9848, 179.614, 184.0451)"><tspan class="cls-5">1</tspan><tspan class="cls-6" x="22.3828" y="0">2</tspan><tspan class="cls-7" x="54.873" y="0">.</tspan><tspan x="66.6211" y="0">05</tspan></text></g><g id="Layer_7" data-name="Layer 7"><path class="cls-8" d="M86.3606,210.5546l60.5712-83.1374c3.6169-4.9644,8.6609-8.1246,13.9737-8.7548l35.343-4.1924c8.7247-1.0349,16.2876-8.7819,18.5431-18.9946h0c2.5826-11.694,12.02-19.9055,21.8956-19.05l26.9866,2.3369c10.1944.8828,17.4186,11.1117,16.514,23.3825l-.0931,1.2618c-.8132,11.03,4.9651,20.5986,13.8413,22.9208l59.5527,15.5805s20.0366,4.4251,17.0491,57.132c-2.3471,41.4081-29.6618,206.2325-41.2651,274.9975-2.5793,15.2861-16.5343,24.6024-28.066,18.7483l-188.8559-95.873c-5.5753-2.83-9.4568-8.7812-10.4441-16.0122L81.3713,230.4963"/><path class="cls-8" d="M31,597s-7.4476-125.3385,73.3957-212.1023l186.6436,26.2747s62.5581,40.7178,18.9616,249.293l-143.0394-22.623s41.5548-316.6333-18.5054-5.5815Z"/><path class="cls-9" d="M221.4752,444.1937l-40.9926,52.0828L159.5185,433.591c-1.74-5.2035,2.2-11.1191,6.9583-10.4457l51.43,7.2786C223.4327,431.2059,225.48,439.1058,221.4752,444.1937Z"/><path class="cls-10" d="M186.9156,464.3984c-.3167,2.5456-.7128,5.0735-1.0664,7.611q-.57,3.7972-1.2128,7.5785a56.05,56.05,0,0,1-1.3594,7.5461,32.8489,32.8489,0,0,1-2.97,7.19l-.2929-.0647a32.85,32.85,0,0,1,.3341-7.7725,56.0442,56.0442,0,0,1,1.9451-7.4168q1.0092-3.7,2.0917-7.3844c.748-2.45,1.4535-4.91,2.2382-7.352Z"/><path class="cls-9" d="M127.5193,280.886q-1.1968,13.3515-2.8275,26.6631c-1.1253,8.8686-2.3754,17.7247-3.8271,26.5571-1.4761,8.8232-2.8668,17.6985-5.3185,26.3564a123.3394,123.3394,0,0,1-4.269,12.8154c-1.7019,4.1561-3.6979,8.3508-6.7656,11.7148l-.2319-.19a32.658,32.658,0,0,0,2.8862-5.952c.8027-2.0537,1.47-4.1634,2.1213-6.2743,1.2547-4.242,2.3438-8.5406,3.3537-12.861l3.0235-12.9819c1.0321-4.3288,1.963-8.6859,2.8389-13.0558,1.74-8.7422,3.2838-17.5314,4.7037-26.3419q2.1986-13.2063,4.014-26.4818Z"/><path class="cls-9" d="M309.1329,318.7692c-3.1178,15.8683-5.9829,31.789-8.4894,47.7558-1.2622,7.9809-2.4408,15.9752-3.3772,23.9878-.4627,4.0058-.8723,8.0165-1.1439,12.0248a72.6291,72.6291,0,0,0-.0338,11.8975l-.2553-.61a117.3785,117.3785,0,0,1,7.0011,9.9663q3.2593,5.12,6.0985,10.4915,2.8377,5.3661,5.2395,10.9523,2.3385,5.6059,4.2615,11.3739,1.8414,5.79,3.2227,11.7094c.4033,1.9844.8637,3.9551,1.1844,5.9542.1693.9975.358,1.9909.511,2.99l.3976,3.0077c.4825,4.0142.8242,8.043.9123,12.0772a112.8474,112.8474,0,0,1-.4018,12.07l-.3-.012c-.1337-4.0107-.2188-8.0068-.6789-11.9772-.3332-3.9751-.9055-7.9236-1.6184-11.8375a156.1955,156.1955,0,0,0-6.08-23.0267q-1.9386-5.6308-4.2876-11.1086c-1.5168-3.6694-3.19-7.2751-4.9808-10.8217-1.7808-3.5517-3.688-7.0431-5.7409-10.4458a112.5555,112.5555,0,0,0-6.5895-9.8726l-.2295-.3021-.026-.308a74.3416,74.3416,0,0,1,.2463-12.3317c.35-4.0553.836-8.0842,1.3747-12.1029,1.09-8.0349,2.4121-16.0241,3.8306-23.9933,2.9-15.927,6.1535-31.7773,9.6588-47.5717Z"/><path class="cls-9" d="M207.7281,381.5641c-.2293.9531-.47,1.9023-.7923,2.8866a10.088,10.088,0,0,1-1.4272,2.9332,6.0335,6.0335,0,0,1-2.822,2.1229,5.7757,5.7757,0,0,1-3.7139.052,6.2353,6.2353,0,0,1-2.9034-2.1128,10.8908,10.8908,0,0,1-1.5363-2.8732,15.9275,15.9275,0,0,1-1.0083-6.1456,9.6389,9.6389,0,0,1,.7128-3.24,8.7664,8.7664,0,0,1,1.98-2.8546,8.4057,8.4057,0,0,1,3.1327-1.9587,6.8348,6.8348,0,0,1,7.26,1.7395,6.4484,6.4484,0,0,1,1.6062,3.2148,10.4821,10.4821,0,0,1,.0418,3.2814A29.776,29.776,0,0,1,207.7281,381.5641Zm-.3906-.0863a5.45,5.45,0,0,0-.1538-2.776,6.169,6.169,0,0,0-1.3866-2.2717,8.5382,8.5382,0,0,0-1.754-1.4133,4.59,4.59,0,0,0-1.7094-.6766,4.9237,4.9237,0,0,0-3.6562.863,8.5385,8.5385,0,0,0-1.6548,1.5805,9.7266,9.7266,0,0,0-1.36,2.1158,5.762,5.762,0,0,0,.0441,5.1383,4.2817,4.2817,0,0,0,1.8239,1.7547,5,5,0,0,0,2.161.5085,8.7233,8.7233,0,0,0,1.9833-.1926,11.4059,11.4059,0,0,0,2.1749-.6593,6.4342,6.4342,0,0,0,2.2071-1.502A5.275,5.275,0,0,0,207.3375,381.4778Z"/><path class="cls-9" d="M227.4476,264.1138a75.7623,75.7623,0,0,1-7.8147,21.154A66.5609,66.5609,0,0,1,205.52,302.9746a54.6562,54.6562,0,0,1-19.7716,11.2339,45.072,45.072,0,0,1-43.3679-9.1212,51.329,51.329,0,0,1-7.8126-8.5548A58.58,58.58,0,0,1,128.8347,286.5a64.0933,64.0933,0,0,1-5.2533-22.2631,73.4044,73.4044,0,0,1,.28-11.396,71.5793,71.5793,0,0,1,2.1345-11.1325l.2929.0646a85.0013,85.0013,0,0,0-1.0617,11.1626,73.0955,73.0955,0,0,0,.4376,11.1227,68.1424,68.1424,0,0,0,5.9,21.2,55.5153,55.5153,0,0,0,5.5322,9.4534,50.3017,50.3017,0,0,0,7.2513,8.1518A42.2138,42.2138,0,0,0,185.192,312.34a52.9348,52.9348,0,0,0,19.3516-10.5035A65.3623,65.3623,0,0,0,218.852,284.82a75.1586,75.1586,0,0,0,8.3026-20.7713Z"/><path class="cls-9" d="M331.041,281.0142a75.76,75.76,0,0,1-7.8147,21.1541,66.5581,66.5581,0,0,1-14.1124,17.7067,54.66,54.66,0,0,1-19.7716,11.2339,45.0722,45.0722,0,0,1-43.368-9.1212,51.3333,51.3333,0,0,1-7.8126-8.5548A58.5726,58.5726,0,0,1,232.4282,303.4a64.0883,64.0883,0,0,1-5.2533-22.263,73.4034,73.4034,0,0,1,.28-11.396,71.5724,71.5724,0,0,1,2.1345-11.1327l.2929.0647a84.986,84.986,0,0,0-1.0618,11.1626,73.0945,73.0945,0,0,0,.4376,11.1227,68.1426,68.1426,0,0,0,5.9,21.2,55.511,55.511,0,0,0,5.5321,9.4534,50.3064,50.3064,0,0,0,7.2513,8.1518,42.2133,42.2133,0,0,0,40.8431,9.4768,52.9352,52.9352,0,0,0,19.3517-10.5035,65.3634,65.3634,0,0,0,14.3083-17.0157A75.1573,75.1573,0,0,0,330.748,280.95Z"/><ellipse class="cls-9" cx="172.5637" cy="254.9818" rx="11.675" ry="9.6368" transform="translate(-113.6322 368.4976) rotate(-77.5462)"/><ellipse class="cls-9" cx="287.8371" cy="280.4399" rx="11.675" ry="9.6368" transform="translate(-48.0768 501.0267) rotate(-77.5462)"/><path class="cls-8" d="M304.6118,70.4247l-32.5334,39.86c-5.0445,6.18-11.261,10.906-18.0763,13.2651-7.9293,2.7448-17.364,2.634-22.3179-9.6927a35.4977,35.4977,0,0,0-1.8479-3.8039L199.5274,54.69"/><path class="cls-9" d="M304.6505,70.4564l-26.5677,32.8667c-2.2262,2.7332-4.4143,5.4793-6.6718,8.202a46.9877,46.9877,0,0,1-7.7471,7.2529,36.4053,36.4053,0,0,1-9.3544,5.044,22.1916,22.1916,0,0,1-10.5541,1.3821,14.4022,14.4022,0,0,1-5.1121-1.7612,16.7163,16.7163,0,0,1-4.0649-3.5728,22.889,22.889,0,0,1-2.7766-4.6078l-.558-1.2223q-.2452-.5992-.52-1.1873c-.3669-.7847-.77-1.5558-1.19-2.3221L219.3829,92l-9.9892-18.6213-4.9927-9.3117-4.9175-9.3529.0877-.048,5.23,9.182,5.1544,9.2232L220.26,91.5193l10.1431,18.5392c.4194.7812.8257,1.5749,1.1975,2.389q.2784.6107.5286,1.2365l.529,1.185a21.9811,21.9811,0,0,0,2.6193,4.4424,15.8547,15.8547,0,0,0,3.8,3.4036,13.5724,13.5724,0,0,0,4.7973,1.698,21.4463,21.4463,0,0,0,10.1935-1.2746,35.7225,35.7225,0,0,0,9.2126-4.8855,46.3777,46.3777,0,0,0,7.6946-7.1031c2.2572-2.6835,4.4789-5.4307,6.72-8.1429l26.8777-32.6138Z"/></g><g id="Layer_4" data-name="Layer 4"><path class="cls-11" d="M327.6357,687.7063s-37.0607-23.5582-41.63-31.6936S271,652,271,652s3.8548,21.757-37-10c0,0-28.0553-8.6777-34-5,0,0-31.54-13.02-23,15,0,0,3.705,5.1871,37.0611,31.1759,0,0,31.1161,27.2359,43.9569,31.5031,0,0,37.4961,38.4141,46.8888,38.7089,0,0,3.0215,17.8352,9.7446,23.6669,0,0,3.8835,18.8284,6.1236,17.5813"/><path class="cls-12" d="M224.0047,641.9637c-2.3253,6.5152-4.5961,13.05-6.7667,19.6119l-3.1213,9.8772c-.547,1.6357-1.05,3.2842-1.5321,4.9355-.2423.8251-.4711,1.6548-.6515,2.4911a11.5513,11.5513,0,0,0-.2336,1.2574,3.8119,3.8119,0,0,0-.0343.6289.8527.8527,0,0,0,.1529.5651l-.0621.0783a1.7979,1.7979,0,0,1-.3452-1.2871,11.9167,11.9167,0,0,1,.072-1.317c.1008-.87.2581-1.7279.4247-2.5827.344-1.7077.8017-3.3832,1.252-5.0589.944-3.34,2.1457-6.5925,3.3221-9.8482q3.5137-9.7739,7.43-19.3873Z"/><path class="cls-12" d="M223.4249,656.0984q-2.2563,6.4635-4.5907,12.897c-.7691,2.1479-1.4847,4.3165-2.3653,6.4215-.9047,2.0957-1.7917,4.1983-2.8786,6.2238l-.0934-.0359c.5522-2.2315,1.3043-4.386,2.0387-6.5472.7585-2.1521,1.6821-4.2406,2.552-6.35q2.583-6.3377,5.244-12.6454Z"/><path class="cls-12" d="M253.1478,712.487q5.0628-10.9606,9.7284-22.0909c1.536-3.7168,2.9545-7.4768,4.4424-11.2043a112.2782,112.2782,0,0,0,3.9922-11.3522l.0984.0178a59.4249,59.4249,0,0,1-3.1548,11.6868c-1.3738,3.7961-3.0051,7.4871-4.6431,11.1674q-4.9056,11.0469-10.3737,21.8193Z"/><path class="cls-12" d="M257.9936,714.6353a20.26,20.26,0,0,0,3.8524-3.4147c.6006-.6163,1.1116-1.3133,1.6627-1.9716.5222-.6828,1.0074-1.3942,1.5113-2.0888a48.55,48.55,0,0,0,4.7484-9.1271,91.5335,91.5335,0,0,0,3.1407-9.8061c.4456-1.66.8178-3.34,1.2551-5.0085.3444-1.688.6983-3.3772,1.1133-5.0646l.0991.0132c-.1318,1.7275-.3248,3.4531-.5272,5.18q-.4423,2.5655-.9705,5.1237a57.5,57.5,0,0,1-3.3731,9.8724,49.2,49.2,0,0,1-5.0759,9.1034c-.5379.6849-1.0557,1.3841-1.61,2.0536-.5837.6456-1.1251,1.3267-1.7564,1.927a20.43,20.43,0,0,1-4.0213,3.2955Z"/><path class="cls-12" d="M279.5014,652.3135q-2.4451,6.4868-4.6573,13.0483c-.7271,2.19-1.3472,4.41-2.08,6.589-.75,2.1784-1.4359,4.3608-2.04,6.5969l-.0993-.0125a29.6108,29.6108,0,0,1,1.1821-6.873c.6151-2.2411,1.4526-4.4078,2.2838-6.5683q2.4589-6.4968,5.319-12.819Z"/><path class="cls-12" d="M286.0451,656.0432c-1.5941,2.22-3.11,4.4958-4.5732,6.8006q-2.21,3.4475-4.1929,7.0242c-1.3229,2.3831-2.4532,4.8565-3.5783,7.3128a26.731,26.731,0,0,0-2.4578,7.7h-.1a18.7216,18.7216,0,0,1,1.6358-8.0875,50.1641,50.1641,0,0,1,3.8064-7.3238,126.1152,126.1152,0,0,1,9.3807-13.4875Z"/><path class="cls-12" d="M304.8586,753.3748c3.0225-11.2239,6.2095-22.404,9.64-33.5132,1.7243-5.5516,3.5094-11.0861,5.4714-16.5634.9865-2.7366,2.0091-5.4619,3.1442-8.147.5725-1.3405,1.157-2.6776,1.8343-3.9781a14.3048,14.3048,0,0,1,2.4628-3.7177l.6163-.6107-.0558.8841-1.686,26.705q-.82,13.354-1.7211,26.7026c-.56,8.9017-1.2616,17.7941-1.9235,26.689-.6579,8.8953-1.3259,17.79-2.0912,26.678l-.1-.0068c.424-8.9108.9452-17.8152,1.4766-26.7189.5275-8.9039,1.0153-17.81,1.6444-26.7077q.8758-13.35,1.8468-26.6942L327.3,687.684l.56.2733a13.8959,13.8959,0,0,0-2.34,3.5124c-.674,1.2722-1.2639,2.5965-1.8412,3.9234-1.1459,2.66-2.1844,5.371-3.187,8.0943-1.99,5.4535-3.82,10.968-5.5967,16.4991-3.5286,11.0706-6.8165,22.22-9.94,33.4144Z"/><path class="cls-12" d="M319.1987,704.308c-1.53,3.0609-3.002,6.1514-4.4425,9.2544-1.4537,3.0965-2.8688,6.2107-4.22,9.3507-1.349,3.1413-2.6029,6.3193-3.8981,9.4745-1.3186,3.149-2.5543,6.3226-3.7133,9.55l-.0967-.0254a62.2338,62.2338,0,0,1,2.8787-9.8887c1.1825-3.2266,2.6486-6.3335,4.1-9.4382,2.8914-6.2165,6.0122-12.3179,9.3036-18.324Z"/><path class="cls-11" d="M399.6357,656.7063s-37.0607-23.5582-41.63-31.6936S343.87,614.4694,343.87,614.4694s-5.4719-.0839-16.0506-4.1374S339.4274,636.8785,319,621c0,0-2.0553,15.3223-8,19,0,0,8-19-13,7,0,0,17-12-11.9389,5.1759,0,0,31.1161,27.2359,43.9569,31.5031,0,0,37.4961,38.4141,46.8888,38.7089,0,0,3.0215,17.8352,9.7446,23.6669,0,0,3.8835,18.8284,6.1236,17.5813"/><path class="cls-12" d="M325.1478,681.487q5.0629-10.9606,9.7284-22.0908c1.536-3.7169,2.9545-7.4769,4.4424-11.2044a112.3052,112.3052,0,0,0,3.9923-11.3523l.0983.0179a59.4344,59.4344,0,0,1-3.1547,11.6869c-1.3738,3.796-3.0052,7.4869-4.6432,11.1673q-4.9056,11.0469-10.3737,21.8193Z"/><path class="cls-12" d="M329.9937,683.6353a20.2628,20.2628,0,0,0,3.8523-3.4147c.6007-.6163,1.1116-1.3133,1.6627-1.9716.5222-.6828,1.0074-1.3942,1.5113-2.0888a48.5511,48.5511,0,0,0,4.7484-9.1272,91.53,91.53,0,0,0,3.1407-9.8059c.4456-1.66.8178-3.34,1.2551-5.0087.3444-1.6878.6982-3.3771,1.1133-5.0645l.0991.0132c-.1318,1.7275-.3248,3.4531-.5272,5.18q-.4423,2.5656-.97,5.1238a57.5125,57.5125,0,0,1-3.3732,9.8725,49.1979,49.1979,0,0,1-5.0759,9.1032c-.5379.685-1.0557,1.3842-1.61,2.0537-.5837.6456-1.1251,1.3268-1.7564,1.927a20.4332,20.4332,0,0,1-4.0213,3.2955Z"/><path class="cls-12" d="M351.5014,621.3135q-2.4451,6.4868-4.6573,13.0484c-.7272,2.19-1.3472,4.41-2.08,6.589-.75,2.1783-1.4359,4.3607-2.04,6.5968l-.0993-.0125a29.6108,29.6108,0,0,1,1.1821-6.873c.6151-2.2411,1.4526-4.4078,2.2839-6.5683q2.459-6.4966,5.3189-12.819Z"/><path class="cls-12" d="M358.0451,625.0432c-1.5941,2.22-3.11,4.4958-4.5732,6.8006q-2.21,3.4476-4.1928,7.0241c-1.323,2.3833-2.4533,4.8566-3.5784,7.3129a26.7279,26.7279,0,0,0-2.4578,7.7h-.1a18.7216,18.7216,0,0,1,1.6358-8.0875,50.1641,50.1641,0,0,1,3.8064-7.3238,126.13,126.13,0,0,1,9.3807-13.4875Z"/><path class="cls-12" d="M376.8586,722.3748c3.0224-11.2239,6.2095-22.404,9.64-33.5132,1.7243-5.5516,3.5093-11.0861,5.4713-16.5634.9866-2.7366,2.0092-5.4619,3.1443-8.147.5725-1.3405,1.157-2.6776,1.8344-3.9781a14.2972,14.2972,0,0,1,2.4628-3.7177l.6162-.6107-.0558.8841-1.6859,26.705q-.82,13.354-1.7211,26.7026c-.56,8.9017-1.2617,17.7941-1.9236,26.689-.6578,8.8953-1.3259,17.79-2.0912,26.678l-.1-.0068c.424-8.9108.9453-17.8152,1.4767-26.7189.5273-8.9039,1.0152-17.81,1.6442-26.7077q.876-13.35,1.8468-26.6942L399.3,656.684l.56.2733a13.8985,13.8985,0,0,0-2.34,3.5124c-.674,1.2722-1.2639,2.5965-1.8412,3.9234-1.146,2.66-2.1844,5.371-3.187,8.0943-1.99,5.4535-3.82,10.968-5.5967,16.4991-3.5286,11.0706-6.8165,22.22-9.94,33.4144Z"/><path class="cls-12" d="M391.1987,673.308c-1.53,3.061-3.002,6.1514-4.4425,9.2544-1.4537,3.0965-2.8688,6.2107-4.22,9.3507-1.3491,3.1413-2.6028,6.3193-3.8981,9.4745-1.3186,3.149-2.5543,6.3226-3.7133,9.55l-.0967-.0253a62.2338,62.2338,0,0,1,2.8787-9.8887c1.1825-3.2266,2.6486-6.3335,4.1-9.4381,2.8914-6.2166,6.0122-12.318,9.3036-18.3241Z"/><path class="cls-13" d="M278.892,662.3418a60.6447,60.6447,0,0,1-10.6021-.9379l-203.2908-36.05A61.1436,61.1436,0,0,1,25.16,599.5119a63.5742,63.5742,0,0,1-10.3955-47.0041L97.5687,65.8242c5.8218-34.2226,37.83-57.2322,71.3533-51.2855l203.2908,36.05c33.5217,5.9447,56.0567,38.6239,50.2338,72.847L339.6433,610.119a62.6983,62.6983,0,0,1-25.3126,40.6728A60.5165,60.5165,0,0,1,278.892,662.3418ZM158.3367,23.887c-24.6271,0-46.4893,18.0977-50.8456,43.6965L24.6883,554.2671a53.1918,53.1918,0,0,0,8.7077,39.3253,51.1613,51.1613,0,0,0,33.3264,21.6318l203.2908,36.05a50.4619,50.4619,0,0,0,38.5192-8.89A52.46,52.46,0,0,0,329.7209,608.36l82.8033-486.6831C417.3959,93.0392,398.54,65.6941,370.49,60.72L167.1988,24.67A50.7364,50.7364,0,0,0,158.3367,23.887Z"/><path class="cls-14" d="M278.1032,656.603a53.4934,53.4934,0,0,1-9.3441-.8245v-.001L66.8119,619.9649A55.6881,55.6881,0,0,1,30.5278,596.43,57.9038,57.9038,0,0,1,21.06,553.62L104.1115,65.4782c5.3035-31.1689,34.457-52.1209,64.9866-46.7089L369.325,54.2762c30.5306,5.414,51.0541,35.1771,45.7506,66.346L331.7254,610.52C327.1331,637.5147,304.0729,656.603,278.1032,656.603Zm-7.6208-10.9555c24.1037,4.2667,47.1315-12.273,51.3206-36.8872l83.35-489.8974C409.5056,93.28,392.66,68.8512,367.6018,64.4073L167.3748,28.9c-25.0677-4.444-48.9875,12.7544-53.3389,38.3371L30.9837,555.38a47.52,47.52,0,0,0,7.78,35.1309,45.7044,45.7044,0,0,0,29.7717,19.3242Z"/><path class="cls-14" d="M339.6345,54.2294l-2.8454,16.7237a11.1351,11.1351,0,0,1-12.8117,9.2084L202.9126,58.6928a11.3249,11.3249,0,0,1-9.02-13.08l3.3718-19.8183"/><path class="cls-14" d="M325.881,85.4712a15.8322,15.8322,0,0,1-2.7649-.244L202.0512,63.7581a15.9678,15.9678,0,0,1-10.4083-6.7465,16.6,16.6,0,0,1-2.7108-12.2795l3.3718-19.8168,9.9224,1.7593-3.3717,19.8178a6.2213,6.2213,0,0,0,1.0239,4.6,5.9816,5.9816,0,0,0,3.896,2.5345L324.8393,75.0962a5.8947,5.8947,0,0,0,4.5049-1.0449,6.1355,6.1355,0,0,0,2.4825-3.978l2.8465-16.7239,9.9225,1.76L341.75,71.8331A16.2394,16.2394,0,0,1,325.881,85.4712Z"/><path class="cls-15" d="M280.756,62.23l-33.2916-5.9037a2.0592,2.0592,0,0,1-1.64-2.3782h0a2.0246,2.0246,0,0,1,2.3294-1.6742l33.2916,5.9037a2.059,2.059,0,0,1,1.64,2.3781h0A2.0247,2.0247,0,0,1,280.756,62.23Z"/><ellipse class="cls-16" cx="298.0297" cy="63.5377" rx="4.0288" ry="4.1131"/><path class="cls-15" d="M298.03,68.679a4.952,4.952,0,0,1-3.5291-1.4736,5.1587,5.1587,0,0,1-1.5069-3.622,5.0165,5.0165,0,0,1,8.5651-3.7135,5.1589,5.1589,0,0,1,1.5069,3.6221,5.0983,5.0983,0,0,1-4.9908,5.187Zm0-8.2261h-.0276a3.059,3.059,0,0,0-2.994,3.1124,3.0961,3.0961,0,0,0,.9039,2.173,3.01,3.01,0,0,0,5.1393-2.2282,3.0962,3.0962,0,0,0-.9039-2.1731A2.9729,2.9729,0,0,0,298.03,60.4529Z"/><polygon class="cls-14" points="17.261 555.338 14.284 554.809 97.621 65.822 100.597 66.351 17.261 555.338"/><path class="cls-14" d="M279.3613,663.5439a60.8439,60.8439,0,0,1-10.4209-.9013L63.707,626.9932C33.72,621.7852,13.1379,593.985,16,564c.1584-1.66-1.6492-3.2465,0-3l2.8779.2451a55.7688,55.7688,0,0,0,45.3428,62.793l205.2334,35.6494c30.4785,5.29,60.3389-15.0459,66.5654-45.3408l2.94.6035a61.1141,61.1141,0,0,1-59.5977,48.5937Z"/><polygon class="cls-14" points="339.982 609.677 337.005 609.149 419.783 122.613 422.759 123.142 339.982 609.677"/><path class="cls-14" d="M423.4932,118.4968l-2.996-.3966a59.6807,59.6807,0,0,0-10.8048-42.501,57.3614,57.3614,0,0,0-36.6494-23.256L167.8666,15.9586a56.5505,56.5505,0,0,0-42.2578,9.3273,58.7968,58.7968,0,0,0-24.1756,36.4292l-2.9547-.6477A61.8673,61.8673,0,0,1,123.915,22.7312a59.5153,59.5153,0,0,1,44.469-9.8122L373.56,49.3036a60.3623,60.3623,0,0,1,38.5674,24.47A62.7949,62.7949,0,0,1,423.4932,118.4968Z"/><path class="cls-14" d="M87.4912,115.66h0a2.5737,2.5737,0,0,1-2.05-2.9726l2.93-17.2227a2.5308,2.5308,0,0,1,2.9118-2.0929h0a2.5739,2.5739,0,0,1,2.05,2.9727l-2.93,17.2227A2.5307,2.5307,0,0,1,87.4912,115.66Z"/><path class="cls-14" d="M87.9236,116.2124a3.0109,3.0109,0,0,1-.5193-.0457h0a3.0822,3.0822,0,0,1-2.459-3.5668l2.93-17.223A3.033,3.033,0,0,1,91.37,92.8654a3.0832,3.0832,0,0,1,2.459,3.5673l-2.93,17.2225A3.0446,3.0446,0,0,1,87.9236,116.2124Zm-.3462-1.0589a2.0219,2.0219,0,0,0,2.33-1.674l2.93-17.2225a2.0559,2.0559,0,0,0-1.6406-2.3784,2.022,2.022,0,0,0-2.33,1.674l-2.93,17.223a2.0555,2.0555,0,0,0,1.6406,2.3779Z"/><path class="cls-14" d="M77.4961,179.7428l-1.1912-.2112a2.5738,2.5738,0,0,1-2.05-2.9727l6.4371-37.835a2.5307,2.5307,0,0,1,2.9118-2.0928l1.1912.2112a2.5739,2.5739,0,0,1,2.05,2.9727L80.4078,177.65A2.5307,2.5307,0,0,1,77.4961,179.7428Z"/><path class="cls-14" d="M77.9284,180.2949a3,3,0,0,1-.5193-.0457H77.41l-1.1911-.2108a3.0823,3.0823,0,0,1-2.46-3.5674l6.4375-37.835a3.0375,3.0375,0,0,1,3.4937-2.5115l1.1912.2114a2.9963,2.9963,0,0,1,1.9514,1.2653,3.1141,3.1141,0,0,1,.5075,2.3015l-6.4366,37.8351A3.0445,3.0445,0,0,1,77.9284,180.2949Zm5.2445-43.1878a1.9769,1.9769,0,0,0-1.1577.3776,2.05,2.05,0,0,0-.8272,1.327L74.75,176.6468a2.056,2.056,0,0,0,1.6406,2.3784l1.1912.2108a2.0208,2.0208,0,0,0,2.33-1.6739l6.4366-37.8351a2.0751,2.0751,0,0,0-.34-1.5339,1.9945,1.9945,0,0,0-1.3-.844l-1.1912-.2114A1.9615,1.9615,0,0,0,83.1729,137.1071Z"/><path class="cls-14" d="M67.9014,234.3308,66.71,234.12a2.5739,2.5739,0,0,1-2.05-2.9727l6.4372-37.8349a2.5307,2.5307,0,0,1,2.9117-2.0929L75.2,191.43a2.5738,2.5738,0,0,1,2.05,2.9727l-6.4372,37.8349A2.5307,2.5307,0,0,1,67.9014,234.3308Z"/><path class="cls-14" d="M68.3345,234.8831a3.0034,3.0034,0,0,1-.5194-.0457l-1.1911-.2114a2.996,2.996,0,0,1-1.9514-1.2653,3.11,3.11,0,0,1-.5085-2.3015l6.4375-37.8351a3.069,3.069,0,0,1,1.2394-1.9923,2.9523,2.9523,0,0,1,2.2543-.5191l1.19.2109a2.9954,2.9954,0,0,1,1.9524,1.2652,3.1115,3.1115,0,0,1,.5085,2.3021l-6.4376,37.835A3.0435,3.0435,0,0,1,68.3345,234.8831Zm-.3462-1.0589a2.018,2.018,0,0,0,2.3291-1.674l6.4376-37.8351a2.0766,2.0766,0,0,0-.34-1.5343,1.9954,1.9954,0,0,0-1.3012-.844l-1.19-.2109a1.9644,1.9644,0,0,0-1.5029.3469,2.05,2.05,0,0,0-.8272,1.327l-6.4376,37.8351a2.076,2.076,0,0,0,.34,1.5339,1.9959,1.9959,0,0,0,1.3013.844Z"/><path class="cls-14" d="M398.7424,275.5512l-1.2991-.23a2.5738,2.5738,0,0,1-2.05-2.9727l10.5313-61.8987a2.5307,2.5307,0,0,1,2.9117-2.0928l1.2992.23a2.5739,2.5739,0,0,1,2.05,2.9727l-10.5313,61.8987A2.5308,2.5308,0,0,1,398.7424,275.5512Z"/><path class="cls-14" d="M399.174,276.1037a2.9722,2.9722,0,0,1-.5174-.0457h-.001l-1.2993-.23a3.0825,3.0825,0,0,1-2.459-3.5674l10.5313-61.8984a3.0307,3.0307,0,0,1,3.4947-2.512l1.2993.2305a3.0831,3.0831,0,0,1,2.459,3.5673L402.15,273.5461A3.0453,3.0453,0,0,1,399.174,276.1037Zm-.3463-1.0589a2.0183,2.0183,0,0,0,2.3311-1.6744L411.69,211.4719a2.0559,2.0559,0,0,0-1.6406-2.3784l-1.2993-.2305a2.027,2.027,0,0,0-2.33,1.6745L395.8888,272.436a2.0559,2.0559,0,0,0,1.6406,2.3784Z"/><path class="cls-17" d="M109,603.7487l-21.5606,15.58s-.9585-14.102,8.6872-21.4065a4.84,4.84,0,0,1,4.4475-.6532C102.5613,597.9589,105.4755,599.659,109,603.7487Z"/><path class="cls-18" d="M510.5,649.5l.19-.3556c1.8706-9.9881,4.6444-35.5713-17.19-63.6444,0,0-46-126.3945-46-130,0-13-68-71-68-71s-17,81-13,84,9,10,12,11,5,11,8,12,1,61,22,67l2.2,6.3571c-1.8-3.643-19.2-19.3571-19.2-19.3571,1-5-9-33-9-33l-48-16c-26,52,4,100,4,100,0,8,9,27,9,27,11,10-12,58-12,58-6.521,4.23-11.3481,10.866-14.8859,18.918L317.5,700.5a40.3426,40.3426,0,0,0-25,8s-45-25-50-33-17-11-17-11-28-2-77-35c0,0-34-29-42-26,0,0-26,3-18,30,0,0,19,35,59,62,0,0,37,28,53,33,0,0,44,39,56,40,0,0,2,17,10,23,0,0,3,18,6,17s245,0,245,0S512.1124,652.7249,510.5,649.5Z"/><path class="cls-17" d="M385.5,522.5c3.9084,13.0278-13.6622,4.9285-25.5,4-25.5-2-28.5359-29.0975-25.5-42,4-17,16.5256-15.7317,29-11C378,479,382.5,512.5,385.5,522.5Z"/><path class="cls-12" d="M164.5418,657.5274c-3.6542,5.8826-7.2468,11.8037-10.7272,17.7831-1.7283,2.9971-3.3708,6.04-5.0677,9.0438-.8636,1.4943-1.68,3.0132-2.466,4.5429-.3937.7643-.77,1.5377-1.0936,2.3286a9.4965,9.4965,0,0,0-.4278,1.2,2.8646,2.8646,0,0,0-.1051.6137.6416.6416,0,0,0,.15.5464l-.0567.0824a.7776.7776,0,0,1-.2984-.6222,3.0082,3.0082,0,0,1,.0258-.6748,9.8272,9.8272,0,0,1,.2809-1.2959c.2521-.8423.565-1.6592.8909-2.469.6631-1.6153,1.4416-3.1721,2.2192-4.7264,1.5944-3.09,3.4372-6.0331,5.2614-8.98q5.46-8.8506,11.33-17.4272Z"/><path class="cls-12" d="M162.3171,670.7712l-15.0652,23.3941-.3981-.4288a21.2972,21.2972,0,0,0,5.0526-4.4711,54.8984,54.8984,0,0,0,4.1043-5.4669,132.5027,132.5027,0,0,0,6.8657-11.8769q3.164-6.096,6.11-12.3136c1.9528-4.149,3.8692-8.3193,5.7126-12.5258l.0933.036q-2.292,6.5037-5.0631,12.8266-1.3845,3.159-2.8457,6.2858c-1.0026,2.0705-2.0176,4.1366-3.0974,6.17a122.9462,122.9462,0,0,1-7.1116,11.8485,55.7846,55.7846,0,0,1-4.2412,5.48,21.8912,21.8912,0,0,1-5.2874,4.5341l-1.1108.6351.7127-1.064,15.4853-23.1181Z"/><path class="cls-12" d="M194.5081,726.0571q7.561-9.7634,14.7146-19.823c2.36-3.3686,4.6168-6.8028,6.9156-10.2025a88.1873,88.1873,0,0,0,6.3147-10.5487l.094.0342a52.9925,52.9925,0,0,1-5.5693,11.0581c-2.2037,3.4936-4.6545,6.816-7.1067,10.1276q-7.3731,9.9252-15.2851,19.4172Z"/><path class="cls-12" d="M200.4842,728.4526a33.4719,33.4719,0,0,0,9.03-5.8316,48.5973,48.5973,0,0,0,7.2329-7.9473c.9936-1.495,2.0357-2.9542,2.8781-4.5406.9362-1.5291,1.72-3.1406,2.5375-4.7367a25.87,25.87,0,0,0,1.1616-2.4267c.369-.8189.72-1.6455,1.1092-2.4588.6832-1.6632,1.2993-3.3568,2.0188-5.0251l.0958.0284c-.4462,1.753-.91,3.5125-1.4629,5.2443-.3033.8565-.6444,1.7-.9678,2.55a26.5167,26.5167,0,0,1-1.0528,2.5195l-1.2081,2.4528c-.3921.8237-.9257,1.5712-1.3815,2.36-.9126,1.5806-2.025,3.031-3.0858,4.51a49.2507,49.2507,0,0,1-7.5529,7.8526,33.7468,33.7468,0,0,1-9.32,5.5439Z"/><path class="cls-12" d="M234.5408,671.5288q-3.8083,5.8314-7.3587,11.8136c-1.17,2.0009-2.24,4.0533-3.399,6.0485a64.7844,64.7844,0,0,0-3.235,6.1228l-.0962-.0274a25.6528,25.6528,0,0,1,2.4507-6.5693,65.9227,65.9227,0,0,1,3.5981-5.9937q3.78-5.87,7.9585-11.4521Z"/><path class="cls-12" d="M242.5314,675.5389c-2.18,1.8786-4.3,3.8273-6.3693,5.8241-2.08,1.9853-4.1047,4.0262-6.0453,6.139-1.9317,2.1221-3.738,4.345-5.4728,6.6005A32.9721,32.9721,0,0,0,222.23,697.61a13.9311,13.9311,0,0,0-1.6807,3.8951l-.0994-.011a10.9685,10.9685,0,0,1,1.1638-4.21,27.5051,27.5051,0,0,1,2.2221-3.7716,52.4467,52.4467,0,0,1,5.7-6.5615,136.242,136.242,0,0,1,12.9322-11.49Z"/><path class="cls-12" d="M256.4551,768.478c5.0782-10.5592,10.3774-21.0136,15.9839-31.31,2.8029-5.1474,5.6352-10.2883,8.804-15.2336,1.6092-2.4557,3.2415-4.9009,5.0312-7.2374.8913-1.17,1.8283-2.3086,2.8225-3.3975a14.5961,14.5961,0,0,1,3.379-2.843l.0486.0874a14.3662,14.3662,0,0,0-3.0839,3.055q-1.3752,1.6949-2.6031,3.509-2.4816,3.6024-4.7473,7.3581c-3.0416,4.9888-6.058,10.0024-8.9518,15.0907q-4.3284,7.6386-8.4485,15.398-4.15,7.7418-8.1448,15.5675Z"/><path class="cls-12" d="M279.936,723.4659q-3.3765,4.0641-6.61,8.2433-3.2646,4.1516-6.3833,8.41c-2.0753,2.8415-4.0489,5.7513-6.047,8.6361-2.0164,2.8755-3.9563,5.7949-5.7492,8.8328l-.09-.0433a56.156,56.156,0,0,1,5.0079-9.3451c1.9055-2.9819,4.0722-5.778,6.2393-8.5617,4.3167-5.5841,8.8579-10.9831,13.5568-16.2383Z"/><path class="cls-12" d="M311.5412,778.5283c-3.6047,5.4387-7.3441,10.7888-11.2651,16.013-1.9566,2.6139-3.9125,5.2393-6.11,7.6717-1.1133,1.2018-2.2312,2.4034-3.447,3.5128a15.1689,15.1689,0,0,1-4.0161,2.8595l-.0432-.09a20.08,20.08,0,0,0,3.5667-3.2626c1.0923-1.1947,2.16-2.4164,3.1849-3.6757,2.0772-2.4932,4.1953-4.964,6.2323-7.5052q3.0495-3.8157,5.9824-7.7291,2.96-3.8916,5.8329-7.8508Z"/><path class="cls-12" d="M425.5223,446.5447c-4.2735,2.2173-8.4741,4.5752-12.6273,7.0077q-6.2331,3.6446-12.245,7.6413a142.1567,142.1567,0,0,0-11.6443,8.4885,57.5813,57.5813,0,0,0-10.1212,10.1l-.7967-.5214c1.59-2.7856,3.2747-5.5048,4.967-8.224q2.5343-4.08,5.2857-8.0237c1.8294-2.63,3.7172-5.2255,5.7761-7.6908a40.9049,40.9049,0,0,1,3.26-3.5516,15.914,15.914,0,0,1,1.8659-1.5415,3.3265,3.3265,0,0,1,2.2677-.7779l-.02.098a3.1887,3.1887,0,0,0-2.106.8757,15.62,15.62,0,0,0-1.7364,1.6171c-1.0807,1.1629-2.0924,2.3929-3.0621,3.6554-1.9268,2.5361-3.7426,5.16-5.51,7.8152-1.7517,2.6663-3.4689,5.3566-5.1771,8.0532-1.7016,2.7-3.3449,5.4415-4.9863,8.1737l-.7968-.5213a59.3726,59.3726,0,0,1,10.4253-10.1128,142.8,142.8,0,0,1,11.8016-8.38q6.0711-3.9336,12.3825-7.4674c4.1982-2.366,8.4392-4.6546,12.7527-6.8022Z"/><path class="cls-12" d="M382.5461,460.5192c-.552,1.5348-1.0347,3.0948-1.4789,4.6609-.4575,1.5619-.87,3.1362-1.202,4.7232-.3288,1.5885-.5541,3.19-.8016,4.7737a39.5192,39.5192,0,0,0-.5141,4.8159l-.099.0142a13.5163,13.5163,0,0,1-.38-4.9508,25.3457,25.3457,0,0,1,1.0174-4.8437,63.2767,63.2767,0,0,1,3.3656-9.2318Z"/><path class="cls-12" d="M404.7246,558.0754c-5.8846-.5225-11.7842-.8777-17.6764-.9237-2.9471-.01-5.8857.14-8.8122.2878a47.5179,47.5179,0,0,0-8.7189,1.1075l-.0342-.094a28.2582,28.2582,0,0,1,8.679-2.0108,66.0826,66.0826,0,0,1,8.9029-.09c5.9231.2244,11.8154.8143,17.6713,1.6242Z"/><path class="cls-12" d="M417.5332,550.5374q-2.1059,2.1619-4.2675,4.2616a25.9259,25.9259,0,0,1-2.1835,2.0747,15.024,15.024,0,0,1-2.549,1.6637l-.0664-.0748a15.0214,15.0214,0,0,1,1.951-2.3363,25.9456,25.9456,0,0,1,2.3165-1.9253q2.3383-1.9,4.7325-3.7384Z"/><path class="cls-12" d="M425.4841,609.4526c1.393-.6018,2.7118-1.3914,4.0517-2.1231l4.0173-2.219c2.6975-1.4467,5.4287-2.8379,8.2133-4.1281a58.6535,58.6535,0,0,1,8.59-3.3536A26.5029,26.5029,0,0,1,459.5,596.45v.1a40.8144,40.8144,0,0,0-8.8533,2.0357c-2.8731.9517-5.7486,1.9444-8.5576,3.1288-2.805,1.19-5.5694,2.4856-8.3069,3.84l-4.1063,2.04c-1.3729.6734-2.7185,1.4034-4.16,1.9527Z"/><path class="cls-12" d="M472.4558,701.5234c-11.7927-22.2089-23.3038-44.57-34.3506-67.1645-5.5024-11.307-10.9476-22.6463-16.023-34.1608-2.5186-5.7651-4.9747-11.5614-7.1858-17.4623-1.0784-2.96-2.11-5.9414-2.9654-8.9855a42.9083,42.9083,0,0,1-1.0676-4.6359,15.6553,15.6553,0,0,1-.2225-2.4043,3.39,3.39,0,0,1,.7583-2.4637l-.0474.052a34.0192,34.0192,0,0,1,4.24-4.4308,32.944,32.944,0,0,1,4.9469-3.5984,23.5188,23.5188,0,0,1,5.6479-2.3282,18.9761,18.9761,0,0,1,6.0613-.4908l-.0084.1a18.7767,18.7767,0,0,0-5.9751.6783,24.1969,24.1969,0,0,0-5.4813,2.4542,32.4223,32.4223,0,0,0-4.805,3.6176,33.4913,33.4913,0,0,0-4.08,4.4015l-.018.0239-.03.0285a2.846,2.846,0,0,0-.492,1.9533,14.9538,14.9538,0,0,0,.2507,2.2814,42.15,42.15,0,0,0,1.1228,4.53c.8952,2.9944,1.9688,5.9423,3.09,8.87,2.2179,5.8665,4.6517,11.658,7.1677,17.4122,5.0251,11.5133,10.3158,22.9171,15.76,34.2462q8.1567,16.999,16.6475,33.838,8.4547,16.8555,17.1465,33.592Z"/><path class="cls-12" d="M342.5424,580.5265a30.5788,30.5788,0,0,0-1.685,3.8168,32.2807,32.2807,0,0,0-1.2179,3.965c-.3269,1.3433-.4479,2.7117-.6645,4.0577-.2166,1.3555-.29,2.71-.4254,4.1278l-.0992.0124a12.2186,12.2186,0,0,1-.4705-4.2389,17.0521,17.0521,0,0,1,.8878-4.17,30.2,30.2,0,0,1,3.59-7.6242Z"/><path class="cls-12" d="M378.5,574.45a129.6586,129.6586,0,0,1,18.4679.96,51.3116,51.3116,0,0,1,9.1136,1.8259,26.6641,26.6641,0,0,1,4.3184,1.8092,11.34,11.34,0,0,1,3.6375,2.9214l-.0748.0666a13.9886,13.9886,0,0,0-3.8689-2.3617,30.8342,30.8342,0,0,0-4.3-1.4779,88.4235,88.4235,0,0,0-8.941-1.9919c-3.0269-.4892-6.08-.8455-9.1423-1.1047-3.0614-.2739-6.1337-.4681-9.21-.5471Z"/><path class="cls-12" d="M320.45,701.5c-1.6429,8.6757-3.163,17.4684-4.3948,26.2518-1.2613,8.79-2.31,17.6112-3.0343,26.4565-.3536,4.4231-.6242,8.852-.7767,13.2829-.1811,4.4293-.2465,8.8632-.1252,13.2894a112.0133,112.0133,0,0,0,.947,13.2333,57.7263,57.7263,0,0,0,1.2415,6.51,31.3043,31.3043,0,0,0,2.2,6.2494l-.0885.0467a40.1782,40.1782,0,0,1-4.0423-12.7,104.2468,104.2468,0,0,1-1.2577-13.312c-.1188-4.4557-.0495-8.9108.1357-13.358.2165-4.4462.5512-8.8836.9689-13.3114.8257-8.8569,1.9752-17.6771,3.3367-26.4609q1.0363-6.5859,2.2389-13.1428l1.25-6.5471.6661-3.2655.349-1.63.1819-.8134.095-.4061.05-.2029.0269-.1018.0153-.0518.0107-.0309c.027.0152-.0385-.0946.1053.014Z"/></g></svg>
