<?xml version="1.0" encoding="utf-8"?>
<!-- Generator: Adobe Illustrator 22.1.0, SVG Export Plug-In . SVG Version: 6.00 Build 0)  -->
<svg version="1.1" id="Layer_2_1_" xmlns="http://www.w3.org/2000/svg" xmlns:xlink="http://www.w3.org/1999/xlink" x="0px" y="0px"
	 viewBox="0 0 300 300" style="enable-background:new 0 0 300 300;" xml:space="preserve">
<style type="text/css">
	.st0{fill:#E9ECED;}
	.st1{fill:#FFFFFF;}
	.st2{fill:#FFFFFF;stroke:#FFFFFF;stroke-width:0.25;stroke-miterlimit:10;}
</style>
<title>play_again</title>
<path class="st0" d="M141.5,50C86.5,50,42,94.5,42,149.5S86.5,249,141.5,249s99.5-44.5,99.5-99.5S196.5,50,141.5,50z M116.3,170
	C116.3,170,116.3,170,116.3,170c-0.2,0-0.3,0-0.4,0c0,0,0,0-0.1,0c0,0-0.1,0-0.1,0c-1.7,0-2.9-0.7-3.7-1.7c-0.2-0.2-0.4-0.4-0.6-0.6
	c-0.6-0.3-1.1-0.8-1.4-1.3c-0.2-0.1-0.3-0.2-0.5-0.4c-0.1-0.1-0.2-0.1-0.2-0.2c-1.1-0.6-1.8-1.7-2.2-2.9c-0.9-0.2-1.7-0.6-2.4-1.2
	c-2-1.8-1.9-5.3,0-7.1c2.1-2,5.2-2.3,7.6-0.8c1.1,0.7,2,1.7,3,2.5c0.8,0.8,1.4,1.8,1.6,2.8c0.2,0.2,0.4,0.4,0.6,0.6
	c0.3,0.2,0.6,0.4,0.9,0.6c0.3,0.2,0.6,0.4,0.9,0.7c0,0,0,0,0,0c0.1,0.1,0.1,0.1,0.2,0.2C121.9,164.2,120.9,169.7,116.3,170z"/>
<path class="st1" d="M141,72c-43.1,0-78,34.9-78,78s34.9,78,78,78c43.1,0,78-34.9,78-78S184.1,72,141,72z M116.3,170
	C116.3,170,116.3,170,116.3,170c-0.2,0-0.3,0-0.4,0c0,0,0,0-0.1,0c0,0-0.1,0-0.1,0c-1.7,0-2.9-0.7-3.7-1.7c-0.2-0.2-0.4-0.4-0.6-0.6
	c-0.6-0.3-1.1-0.8-1.4-1.3c-0.2-0.1-0.3-0.2-0.5-0.4c-0.1-0.1-0.2-0.1-0.2-0.2c-1.1-0.6-1.8-1.7-2.2-2.9c-0.9-0.2-1.7-0.6-2.4-1.2
	c-2-1.8-1.9-5.3,0-7.1c2.1-2,5.2-2.3,7.6-0.8c1.1,0.7,2,1.7,3,2.5c0.8,0.8,1.4,1.8,1.6,2.8c0.2,0.2,0.4,0.4,0.6,0.6
	c0.3,0.2,0.6,0.4,0.9,0.6c0.3,0.2,0.6,0.4,0.9,0.7c0,0,0,0,0,0c0.1,0.1,0.1,0.1,0.2,0.2C121.9,164.2,120.9,169.7,116.3,170z"/>
<path class="st0" d="M181.5,119c-17.1-22.4-49.1-26.6-71.5-9.5l-1.7,43.5c1.3-0.1,2.7,0.2,4,0.9c1.1,0.7,2,1.7,3,2.5
	c0.8,0.8,1.4,1.8,1.6,2.8c0.2,0.2,0.4,0.4,0.6,0.6c0.3,0.2,0.6,0.4,0.9,0.6c0.3,0.2,0.6,0.4,0.9,0.7c0,0,0,0,0,0
	c0.1,0.1,0.1,0.1,0.2,0.2c2.5,2.7,1.4,8.2-3.1,8.5c0,0,0,0-0.1,0c-0.1,0-0.2,0-0.4,0c0,0,0,0-0.1,0c0,0-0.1,0-0.1,0
	c-1.7,0-2.9-0.7-3.7-1.7c-0.2-0.2-0.4-0.4-0.6-0.6c-0.6-0.3-1.1-0.8-1.4-1.3c-0.2-0.1-0.4-0.2-0.5-0.4c0,0-0.1,0-0.1-0.1
	c0,0-0.1-0.1-0.1-0.1c-0.5-0.3-1-0.7-1.3-1.2L107,188c18.3,16.3,45.5,17.4,65,2.5C194.4,173.4,198.6,141.4,181.5,119z"/>
<path class="st2" d="M169.6,131.6c-10.2-15.8-31.2-20.4-47-10.2c-11.1,7.2-16.6,19.6-15.5,31.9c1.7-0.5,3.6-0.3,5.2,0.7
	c1.1,0.7,2,1.7,3,2.5c0.8,0.8,1.4,1.8,1.6,2.8c0.2,0.2,0.4,0.4,0.6,0.6c0.3,0.2,0.6,0.4,0.9,0.6c0.3,0.2,0.6,0.4,0.9,0.7
	c0,0,0,0,0,0c0.1,0.1,0.1,0.1,0.2,0.2c2.5,2.7,1.4,8.2-3.1,8.5c0,0,0,0-0.1,0c-0.1,0-0.2,0-0.4,0c0,0,0,0-0.1,0c0,0-0.1,0-0.1,0
	c-1.1,0-2-0.3-2.8-0.8c6.3,9.2,16.8,14.8,28,14.8c6.5,0,12.9-1.9,18.4-5.4C175.2,168.4,179.8,147.4,169.6,131.6z"/>
<path class="st0" d="M98.8,101.3L98.8,101.3c0.9-1.1,2.5-1.2,3.5-0.3l31.6,26.2c1.1,0.9,1.2,2.5,0.3,3.5l0,0
	c-0.9,1.1-2.5,1.2-3.5,0.3l-31.6-26.2C98.1,104,97.9,102.4,98.8,101.3z"/>
<path class="st0" d="M100.4,100.1L100.4,100.1c1.4,0.1,2.4,1.4,2.2,2.7l-3.5,36c-0.1,1.4-1.4,2.4-2.7,2.2l0,0
	c-1.4-0.1-2.4-1.4-2.2-2.7l3.5-36C97.8,101,99,100,100.4,100.1z"/>
<path class="st0" d="M108.9,138.2l-11,3c-1.3,0.3-2.6-0.4-2.9-1.7l0,0c-0.3-1.3,0.4-2.6,1.7-2.9l35.4-9.6c1.3-0.3,2.6,0.4,2.9,1.7
	l0,0c0.3,1.3-0.4,2.6-1.7,2.9l-24.2,6.6"/>
<path class="st0" d="M98.6,126l-0.3,10.4c2.3-0.2,4.6-0.6,6.9-1.1c7.7-1.6,15.4-3.1,22.8-5.9c0.5-0.2,1.1-0.5,1.2-1.1
	c0-0.5-0.3-1-0.7-1.3c-2.3-2.5-4.9-4.7-7.8-6.5c-2.1-1.2-4.5-2-6.4-3.5c-2.2-1.8-3.7-4.4-6-6.2c-2.1-1.7-4.4-3.1-6.9-4.2
	C98.3,111.9,98.8,120.1,98.6,126z"/>
<path class="st0" d="M106.5,163.5l12,12c2.6,2.6,2.6,6.7,0,9.2l-2.6,2.6c-2.6,2.6-6.7,2.6-9.2,0l-12-12c-2.6-2.6-2.6-6.7,0-9.2
	l2.6-2.6C99.8,161,104,161,106.5,163.5z"/>
</svg>
