<svg xmlns="http://www.w3.org/2000/svg" viewBox="0 0 300 300"><defs><style>.cls-1{fill:#e9eced;}.cls-2{fill:#f4912d;}</style></defs><title>play1</title><g id="Layer_1" data-name="Layer 1"><circle class="cls-1" cx="166.5" cy="148.5" r="85.5"/><circle class="cls-2" cx="166.5" cy="148.5" r="78.5"/><rect class="cls-1" x="131" y="101" width="7" height="93" rx="3.5" ry="3.5"/><rect class="cls-1" x="172.08" y="76.14" width="7" height="99.95" rx="3.5" ry="3.5" transform="translate(-17.65 223.05) rotate(-62.33)"/><rect class="cls-1" x="172.7" y="119.59" width="7" height="99.06" rx="3.5" ry="3.5" transform="translate(246.4 -64.8) rotate(62.88)"/><path class="cls-1" d="M209,143.85c1.59.7,3.38,2.09,2.95,3.78a4.06,4.06,0,0,1-2.11,2.17c-12.51,7.51-25,15-38.11,21.51-8.42,4.17-17.06,7.9-25.69,11.62l-8,3.47a2.4,2.4,0,0,1-1.19.28c-1-.14-1.36-1.42-1.45-2.45-.45-4.82-.73-9.66-.93-14.5a429.82,429.82,0,0,1,.87-50c.15-2-.28-9.87,1.53-10.83s8.55,3.44,10.41,4.33c7.37,3.51,14.72,7.08,22.06,10.64l3.64,1.77,3.63,1.76,27.26,13.22-6.86.77A28.46,28.46,0,0,1,209,143.85Z"/></g></svg>
