<svg id="Layer_1" data-name="Layer 1" xmlns="http://www.w3.org/2000/svg" width="300" height="300" viewBox="0 0 300 300"><defs><style>.cls-1{fill:#f77e06;}.cls-2{fill:#152230;stroke:#f77e06;stroke-miterlimit:10;}.cls-3{fill:#e9eced;}</style></defs><title>Artboard 1</title><g id="Layer_1-2" data-name="Layer 1"><circle class="cls-1" cx="150.5" cy="152.5" r="85.5"/><circle class="cls-2" cx="150.5" cy="152.5" r="78.5"/><path class="cls-3" d="M118.5,105h0a3.5,3.5,0,0,1,3.5,3.5v86a3.5,3.5,0,0,1-3.5,3.5h0a3.5,3.5,0,0,1-3.5-3.5v-86A3.5,3.5,0,0,1,118.5,105Z"/><path class="cls-3" d="M115.32,106.91h0a3.51,3.51,0,0,1,4.72-1.48l82.32,43.17a3.5,3.5,0,0,1,1.48,4.72h0a3.52,3.52,0,0,1-4.73,1.48l-82.32-43.17A3.49,3.49,0,0,1,115.32,106.91Z"/><path class="cls-3" d="M204.28,150.54h0a3.5,3.5,0,0,1-1.52,4.71l-81.94,42a3.5,3.5,0,0,1-4.71-1.52h0a3.5,3.5,0,0,1,1.52-4.71l81.94-42A3.5,3.5,0,0,1,204.28,150.54Z"/><path class="cls-3" d="M193,147.85c1.59.7,3.38,2.09,2.95,3.78a4,4,0,0,1-2.11,2.17c-12.51,7.51-25,15-38.11,21.51-8.42,4.17-17.06,7.9-25.69,11.62l-8,3.47a2.48,2.48,0,0,1-1.19.28c-1-.14-1.36-1.42-1.45-2.45-.45-4.82-.73-9.66-.93-14.5a430,430,0,0,1,.87-50c.15-2-.28-9.87,1.53-10.83s8.55,3.44,10.41,4.33c7.37,3.51,14.72,7.08,22.06,10.64l3.64,1.77,3.63,1.76,27.26,13.22-6.86.77A28.44,28.44,0,0,1,193,147.85Z"/></g></svg>
