<svg xmlns="http://www.w3.org/2000/svg" width="1920" height="1080" viewBox="0 0 1920 1080"><defs><style>.cls-1{fill:#89cce5;}.cls-2{fill:#358da8;}.cls-3{fill:#003a44;}</style></defs><title>resultatmellem</title><g id="Layer_3" data-name="Layer 3"><rect class="cls-1" width="1920" height="1080"/><circle class="cls-2" cx="145" cy="150" r="50"/><circle class="cls-2" cx="1214" cy="333" r="50"/><circle class="cls-2" cx="1733" cy="918" r="50"/><circle class="cls-2" cx="226" cy="691" r="50"/><circle class="cls-2" cx="913" cy="576" r="50"/><circle class="cls-2" cx="542" cy="333" r="50"/><circle class="cls-2" cx="1197" cy="841" r="50"/><circle class="cls-2" cx="1570" cy="490" r="50"/><circle class="cls-2" cx="828" cy="150" r="50"/><circle class="cls-2" cx="592" cy="968" r="50"/><circle class="cls-2" cx="1620" cy="174" r="50"/><polygon class="cls-2" points="442 81 363 81 363 106 363 124 363 169 327 169 327 212 328 212 328 258 292 258 292 301 371 301 371 279 371 258 371 212 406 212 406 185 406 169 406 124 442 124 442 81"/><polygon class="cls-2" points="988 758 909 758 909 783 909 801 909 846 873 846 873 889 874 889 874 935 838 935 838 978 917 978 917 956 917 935 917 889 952 889 952 862 952 846 952 801 988 801 988 758"/><polygon class="cls-2" points="301 907 222 907 222 932 222 950 222 995 186 995 186 1038 187 1038 187 1084 151 1084 151 1127 230 1127 230 1105 230 1084 230 1038 265 1038 265 1011 265 995 265 950 301 950 301 907"/><polygon class="cls-2" points="1392 791 1471 791 1471 816 1471 834 1471 879 1507 879 1507 922 1506 922 1506 968 1542 968 1542 1011 1463 1011 1463 989 1463 968 1463 922 1428 922 1428 895 1428 879 1428 834 1392 834 1392 791"/><polygon class="cls-2" points="1289 -70 1368 -70 1368 -45 1368 -27 1368 18 1404 18 1404 61 1403 61 1403 107 1439 107 1439 150 1360 150 1360 128 1360 107 1360 61 1325 61 1325 34 1325 18 1325 -27 1289 -27 1289 -70"/><polygon class="cls-2" points="1708 370 1787 370 1787 395 1787 413 1787 458 1823 458 1823 501 1822 501 1822 547 1858 547 1858 590 1779 590 1779 568 1779 547 1779 501 1744 501 1744 474 1744 458 1744 413 1708 413 1708 370"/><polygon class="cls-2" points="1063 173 984 173 984 198 984 216 984 261 948 261 948 304 949 304 949 350 913 350 913 393 992 393 992 371 992 350 992 304 1027 304 1027 277 1027 261 1027 216 1063 216 1063 173"/><polygon class="cls-2" points="1414 411 1335 411 1335 436 1335 454 1335 499 1299 499 1299 542 1300 542 1300 588 1264 588 1264 631 1343 631 1343 609 1343 588 1343 542 1378 542 1378 515 1378 499 1378 454 1414 454 1414 411"/><polygon class="cls-2" points="492 521 571 521 571 546 571 564 571 609 607 609 607 652 606 652 606 698 642 698 642 741 563 741 563 719 563 698 563 652 528 652 528 625 528 609 528 564 492 564 492 521"/><polygon class="cls-2" points="-39 273 40 273 40 298 40 316 40 361 76 361 76 404 75 404 75 450 111 450 111 493 32 493 32 471 32 450 32 404 -3 404 -3 377 -3 361 -3 316 -39 316 -39 273"/><rect class="cls-2" x="1796" y="165" width="40" height="110" rx="20" transform="translate(256.53 1176.19) rotate(-38.42)"/><rect class="cls-2" x="1645" y="-20" width="110" height="40" rx="20" transform="translate(643.53 1331.87) rotate(-51.58)"/><rect class="cls-2" x="1544" y="671" width="110" height="40" rx="20" transform="translate(63.93 1514.32) rotate(-51.58)"/><rect class="cls-2" x="1211" y="1037" width="110" height="40" rx="20" transform="translate(-348.87 1391.98) rotate(-51.58)"/><rect class="cls-2" x="703" y="373" width="110" height="40" rx="20" transform="translate(-20.96 742.63) rotate(-51.58)"/><rect class="cls-2" x="7" y="881" width="110" height="40" rx="20" transform="translate(-682.42 389.65) rotate(-51.58)"/><rect class="cls-2" x="354" y="821" width="110" height="40" rx="20" transform="translate(-504.06 638.79) rotate(-51.58)"/><rect class="cls-2" x="554" y="61" width="110" height="40" rx="20" transform="translate(167.08 507.79) rotate(-51.58)"/><rect class="cls-2" x="1037" y="611" width="110" height="40" rx="20" transform="matrix(0.62, -0.78, 0.78, 0.62, -80.98, 1094.4)"/><rect class="cls-2" x="1447" y="246" width="40" height="110" rx="20" transform="translate(130.62 976.85) rotate(-38.42)"/><rect class="cls-2" x="1127" y="-15" width="40" height="110" rx="20" transform="translate(223.52 721.47) rotate(-38.42)"/><rect class="cls-2" x="1900" y="750" width="40" height="110" rx="20" transform="translate(-84.5 1367.51) rotate(-38.42)"/><rect class="cls-2" x="696" y="786" width="40" height="110" rx="20" transform="translate(-367.59 627.07) rotate(-38.42)"/><rect class="cls-2" x="265" y="435" width="40" height="110" rx="20" transform="translate(-242.79 283.22) rotate(-38.42)"/><rect class="cls-3" x="328" y="166" width="1140" height="655" rx="12"/><rect class="cls-2" x="418" y="263" width="1140" height="655" rx="12"/></g></svg>
