<svg id="Layer_1" data-name="Layer 1" xmlns="http://www.w3.org/2000/svg" width="353" height="104" viewBox="0 0 353 104"><defs><style>.cls-1{fill:#e5e5ea;}.cls-2{font-size:9.6456px;fill:#2f3335;font-family:Futura-Medium, Futura;}.cls-3{letter-spacing:0.0088em;}.cls-4{letter-spacing:-0.0001em;}.cls-5{letter-spacing:0.0258em;}.cls-6{letter-spacing:0.0209em;}.cls-7{letter-spacing:0.0001em;}.cls-8{letter-spacing:-0.0171em;}.cls-9{letter-spacing:-0.0401em;}.cls-10{letter-spacing:-0.0161em;}.cls-11{letter-spacing:0.0088em;}.cls-12{letter-spacing:-0.0069em;}.cls-13{letter-spacing:0.0151em;}.cls-14{letter-spacing:0.0122em;}.cls-15{letter-spacing:0.0059em;}.cls-16{letter-spacing:-0.0172em;}</style></defs><title>scenarie_2</title><path class="cls-1" d="M326.3508,13H31.103A15.766,15.766,0,0,0,15.4538,28.79v48.421a15.7467,15.7467,0,0,0,.8765,5.1481C12.0781,88.92,4.5151,90.3959,4.5151,90.3959a42.9676,42.9676,0,0,0,15.3926-2.1926A15.5307,15.5307,0,0,0,31.103,93H326.3508A15.766,15.766,0,0,0,342,77.2105V28.79A15.766,15.766,0,0,0,326.3508,13Z"/><text class="cls-2" transform="translate(29.0127 38.4932) scale(0.9114 1)">Du har <tspan class="cls-3" x="32.8927" y="0">t</tspan><tspan x="35.6149" y="0">ag</tspan><tspan class="cls-3" x="47.173" y="0">e</tspan><tspan class="cls-4" x="52.5938" y="0">t </tspan><tspan class="cls-3" x="58.2076" y="0">e</tspan><tspan x="63.6284" y="0">t Snap</tspan><tspan class="cls-5" x="91.7223" y="0">c</tspan><tspan x="96.5683" y="0">hat sel</tspan><tspan class="cls-6" x="124.907" y="0">f</tspan><tspan class="cls-7" x="127.9727" y="0">ie i omklædningen og sendt d</tspan><tspan class="cls-3" x="257.4107" y="0">e</tspan><tspan x="262.8315" y="0">t til dine </tspan><tspan class="cls-8" x="300.6506" y="0">v</tspan><tspan x="305.3321" y="0">enne</tspan><tspan class="cls-9" x="326.5826" y="0">r</tspan><tspan x="329.8037" y="0">, </tspan><tspan x="0" y="11.5742">men du har sl</tspan><tspan class="cls-3" x="59.2202" y="11.5742">e</tspan><tspan x="64.641" y="11.5742">t ik</tspan><tspan class="cls-10" x="77.4608" y="11.5742">k</tspan><tspan x="82.1096" y="11.5742">e s</tspan><tspan class="cls-11" x="94.3358" y="11.5742">e</tspan><tspan class="cls-4" x="99.7572" y="11.5742">t at Lau</tspan><tspan class="cls-12" x="132.0847" y="11.5742">r</tspan><tspan x="135.6261" y="11.5742">a er nøgen i bagg</tspan><tspan class="cls-13" x="215.2631" y="11.5742">r</tspan><tspan class="cls-7" x="219.0167" y="11.5742">unden.</tspan><tspan x="0" y="23.1494"> </tspan><tspan x="0" y="34.7236">Og </tspan><tspan class="cls-14" x="17.3695" y="34.7236">f</tspan><tspan x="20.351" y="34.7236">olk er alle</tspan><tspan class="cls-12" x="64.1749" y="34.7236">r</tspan><tspan x="67.7163" y="34.7236">ede begyndt at </tspan><tspan class="cls-3" x="137.3689" y="34.7236">t</tspan><tspan x="140.0911" y="34.7236">age sc</tspan><tspan class="cls-12" x="168.4722" y="34.7236">r</tspan><tspan x="172.0136" y="34.7236">eensh</tspan><tspan class="cls-15" x="197.1779" y="34.7236">o</tspan><tspan class="cls-4" x="203.0322" y="34.7236">ts. H</tspan><tspan class="cls-16" x="222.6106" y="34.7236">v</tspan><tspan x="227.2916" y="34.7236">ad gør du ? </tspan></text></svg>
