<svg id="Layer_1" data-name="Layer 1" xmlns="http://www.w3.org/2000/svg" width="360" height="49" viewBox="0 0 360 49"><defs><style>.cls-1{fill:#e5e5ea;}.cls-2{font-size:12px;fill:#454647;font-family:Futura-Medium, Futura;}.cls-3{letter-spacing:0.01em;}.cls-4{letter-spacing:0.03em;}.cls-5{letter-spacing:0.01em;}.cls-6{letter-spacing:-0.02em;}</style></defs><title>scenarie_1</title><path class="cls-1" d="M336.71,7H35.08A13.28,13.28,0,0,0,21.79,20.19v7.1a13.56,13.56,0,0,0,.23,2.4C19,39.52,8.52,41.53,8.52,41.53,16,42,23.43,39.64,27.44,38.06a13.27,13.27,0,0,0,7.64,2.42H336.71A13.28,13.28,0,0,0,350,27.29v-7.1A13.28,13.28,0,0,0,336.71,7Z"/><text class="cls-2" transform="translate(42 27)">Du mod<tspan class="cls-3" x="42.86" y="0">t</tspan><tspan x="46.24" y="0">ager </tspan><tspan class="cls-3" x="75.45" y="0">e</tspan><tspan x="82.2" y="0">t di</tspan><tspan class="cls-4" x="99.36" y="0">c</tspan><tspan x="105.39" y="0">kpic på din </tspan><tspan class="cls-3" x="169.54" y="0">t</tspan><tspan x="172.92" y="0">ele</tspan><tspan class="cls-5" x="189.19" y="0">f</tspan><tspan x="192.9" y="0">on, h</tspan><tspan class="cls-6" x="220.68" y="0">v</tspan><tspan x="226.5" y="0">ad gør du ? </tspan></text></svg>
