<svg xmlns="http://www.w3.org/2000/svg" width="425" height="880" viewBox="0 0 425 880"><defs><style>.cls-1{fill:#e8b287;}.cls-2{fill:#5b2d06;}.cls-3{fill:#ffebde;}.cls-4{fill:#d6833e;}.cls-5{fill:#ffb980;}.cls-6{fill:#fff;}.cls-7{fill:#844c21;}.cls-8{fill:#f7a65c;}.cls-9{fill:#f4912d;}</style></defs><title>selfielav</title><g id="selfielav"><ellipse class="cls-1" cx="314" cy="392" rx="36" ry="77" transform="translate(-70.68 69.08) rotate(-11.29)"/><ellipse class="cls-1" cx="117.5" cy="424" rx="59.5" ry="101"/><path class="cls-2" d="M178.24,830.6c6.85-.24,12-6.51,9.94-12.16l-12.62-35.18-12.63-35.18c-2-5.66-10-7.24-15.41-3.07l-53.7,41.14L50,819.73c-7.26,5.55-3.67,15.55,5.46,15.23l55.17-2Z"/><path class="cls-2" d="M335,829.81c7-.49,12.41-6.46,10.57-11.59L334.1,786.29l-11.45-31.92c-1.84-5.13-9.84-6.27-15.53-2.22l-56.1,40-45.77,32.62c-7.58,5.4-4.32,14.47,5,13.82l56.07-3.93Z"/><ellipse class="cls-3" cx="201.67" cy="482.49" rx="136.35" ry="100.96"/><rect class="cls-4" x="59.65" y="323.23" width="67.61" height="90.77" transform="translate(17.84 -4.07) rotate(2.76)"/><rect class="cls-2" x="125.61" y="54.95" width="143.14" height="306.47" rx="40.03" transform="translate(394.36 416.36) rotate(-180)"/><rect class="cls-3" x="152.44" y="213.99" width="83.19" height="83.19"/><circle class="cls-5" cx="178.74" cy="140.59" r="7.34"/><polygon class="cls-1" points="235.37 297.84 206.93 279.63 178.48 261.41 207.21 247.87 235.94 234.32 235.65 266.08 235.37 297.84"/><rect class="cls-2" x="235.63" y="116.73" width="30.06" height="154.15" transform="translate(501.32 387.61) rotate(-180)"/><circle class="cls-3" cx="180.67" cy="198.7" r="70.35"/><circle class="cls-6" cx="132.86" cy="136.31" r="15.9"/><circle class="cls-5" cx="132.86" cy="135.69" r="7.34"/><ellipse class="cls-3" cx="195.3" cy="165.36" rx="64.88" ry="92.67"/><circle class="cls-6" cx="179.05" cy="140.89" r="18.05"/><path class="cls-3" d="M96,169c-7.31,5.57-7,16.75.51,21.11l19.18,11.08,19.18,11.08c7.55,4.36,17.38-1,18.54-10.11l4.2-32.87,3.07-24a11.76,11.76,0,0,0-19-11L122.35,149Z"/><rect class="cls-2" x="207.49" y="69.63" width="50.77" height="50.77" transform="translate(465.76 190.03) rotate(-180)"/><rect class="cls-2" x="196.7" y="64.63" width="28.82" height="41.6" transform="translate(-2.85 163.44) rotate(-42.06)"/><circle class="cls-3" cx="255.21" cy="176.68" r="33.64"/><circle class="cls-1" cx="255.21" cy="176.68" r="20.8"/><ellipse class="cls-3" cx="238.08" cy="175.46" rx="12.23" ry="9.79"/><circle class="cls-5" cx="178.74" cy="140.59" r="7.34"/><rect class="cls-3" x="150.69" y="152.8" width="46.03" height="18.96" transform="translate(49.78 -40.58) rotate(15.53)"/><rect class="cls-7" x="159.78" y="106.94" width="38.54" height="12.23" transform="translate(-12.06 21.85) rotate(-6.76)"/><rect class="cls-7" x="140.21" y="106.94" width="6.12" height="12.23" transform="translate(14.9 -16.67) rotate(7.02)"/><rect class="cls-2" x="158.56" y="56.78" width="44.65" height="57.5"/><path class="cls-1" d="M141,205.29c1.53,3.89-3.32,5.82-8.16,3.25l-17.57-9.34-17.57-9.33c-4.84-2.58-5.42-7.39-1-8.1l11-1.75,15.16-2.42c3.46-.55,7.94,1.83,9.13,4.85l5.23,13.25Z"/><ellipse class="cls-1" cx="131.84" cy="193.71" rx="13.34" ry="20.62" transform="translate(-102.42 198.98) rotate(-57.05)"/><ellipse class="cls-7" cx="138.61" cy="193.55" rx="4.64" ry="4.25"/><ellipse class="cls-7" cx="125.46" cy="197.81" rx="4.64" ry="4.25"/><path class="cls-6" d="M198.81,200.44c-.65-1.08-1.31-2.12-2-3.12-5.25-7.72-12.86-2.18-17.17,6.19-6,11.25-13,18.61-19.94,22.09-5.18,2.76-5.83,4.28-2.73,9.37.41.68.81,1.4,1.19,2.15,2.87,5.46,8.06,13.54,13.88,12.31,7.73-1.71,16.15-7.25,24.17-16.77C202.37,225.79,203.91,208.6,198.81,200.44Z"/><rect class="cls-8" x="152.44" y="283.12" width="83.19" height="27.53"/><rect class="cls-8" x="64.19" y="300.54" width="277.49" height="57.06" rx="27.97" transform="translate(-25.29 17.01) rotate(-4.52)"/><polygon class="cls-8" points="117.87 352.38 75.31 447.65 203.53 445.08 331.75 442.51 284.29 347.76 117.87 352.38"/><rect class="cls-8" x="264.26" y="315.22" width="78.98" height="68.55" transform="translate(-39.01 38.17) rotate(-6.76)"/><rect class="cls-4" x="60.44" y="309.31" width="67.61" height="92.77" rx="23.61"/><ellipse class="cls-8" cx="134.24" cy="376.32" rx="51.04" ry="46.94"/><ellipse class="cls-4" cx="210.99" cy="383.97" rx="44.33" ry="40.77"/><ellipse class="cls-8" cx="221.42" cy="368.86" rx="51.04" ry="46.94"/><circle class="cls-1" cx="154.43" cy="476.75" r="8.93"/><polygon class="cls-9" points="312.35 551.14 344.21 498.02 201.88 500.66 59.55 503.3 87.23 551.14 312.35 551.14"/><rect class="cls-9" x="68.98" y="512.88" width="262.72" height="82.47"/><rect class="cls-9" x="97.78" y="558.91" width="38.51" height="201.71" transform="translate(-177.42 57.86) rotate(-16.01)"/><path class="cls-9" d="M73.93,565.89c-12.18,17.16-13.28,56.35-1.13,98.7s33.86,75,53.29,83.09Z"/><rect class="cls-9" x="290.2" y="565.31" width="38.51" height="201.71" transform="translate(23.94 -10.61) rotate(2.04)"/><path class="cls-9" d="M297.56,563.56c-16.9,12.53-30.08,49.46-31.65,93.49s8.95,81.8,24.91,95.51Z"/><path class="cls-9" d="M131,640.72c0-26.62,15-48.2,33.49-48.2a24.62,24.62,0,0,1,11.61,3V524.33H75.78V657.42h57.29A67.55,67.55,0,0,1,131,640.72Z"/><rect class="cls-3" x="285" y="747" width="40" height="20"/><rect class="cls-3" x="123" y="737" width="40" height="20" transform="translate(-200.47 68.41) rotate(-16.01)"/><ellipse class="cls-3" cx="345.92" cy="359.12" rx="101.5" ry="24.1" transform="translate(-43.91 670.02) rotate(-84.65)"/><rect class="cls-3" x="338" y="250" width="32" height="39"/><path class="cls-3" d="M366.42,271.8c-3.55,6.83-13.18,6.63-17.33-.37l-14.86-25.06-14.86-25.05c-4.15-7,.29-15.55,8-15.38l27.58.58,21.72.46A14.42,14.42,0,0,1,389.15,228l-10,19.28Z"/><ellipse class="cls-3" cx="333" cy="187" rx="9" ry="39" transform="translate(-19.69 40.48) rotate(-6.76)"/><path class="cls-3" d="M360,189c-1.4,21.49-4,39-9,39s-9-17.46-9-39,5.81-35.19,9-39C357.19,142.62,362.31,153.44,360,189Z"/><path class="cls-3" d="M388,209.66c-1.4,12.86-4,23.34-9,23.34s-9-10.45-9-23.34,5.81-21.07,9-23.35C385.19,181.9,390.31,188.37,388,209.66Z"/><path class="cls-3" d="M375,206.66c-1.4,12.86-4,23.34-9,23.34s-9-10.45-9-23.34,5.81-21.07,9-23.35C372.19,178.9,377.31,185.37,375,206.66Z"/></g></svg>
