<svg xmlns="http://www.w3.org/2000/svg" width="420" height="895" viewBox="0 0 420 895"><defs><style>.cls-1{fill:#ff9e5c;}.cls-2{fill:#93521d;}.cls-3{fill:#703101;}.cls-4{fill:#ce6405;}.cls-5{fill:#c66d30;}.cls-6{fill:#fff;}.cls-7{fill:#fcc29a;}.cls-8{fill:#f4912d;}</style></defs><title>selfiehoej</title><g id="selfiehoej"><ellipse class="cls-1" cx="119.89" cy="542.25" rx="21.41" ry="39.57" transform="translate(-313.32 194.77) rotate(-38.8)"/><rect class="cls-1" x="95" y="293.5" width="19" height="253"/><rect class="cls-2" x="184.31" y="259.85" width="31.41" height="44.98" transform="translate(-57.65 51.41) rotate(-12.82)"/><rect class="cls-2" x="176.79" y="228.59" width="35.35" height="73.9" rx="14.94" transform="translate(-54.06 49.76) rotate(-12.82)"/><polygon class="cls-3" points="247.48 161.48 85.66 175.47 90.87 226.44 247.48 212.9 247.48 161.48"/><rect class="cls-1" x="206.67" y="164.8" width="18.25" height="205.63" transform="translate(33.27 -23.71) rotate(6.81)"/><ellipse class="cls-4" cx="114.13" cy="275.71" rx="24.1" ry="41.77"/><ellipse class="cls-2" cx="131.8" cy="128.44" rx="109.25" ry="66.94"/><ellipse class="cls-2" cx="147.33" cy="132.73" rx="102.29" ry="71.23"/><rect class="cls-4" x="160.72" y="230.73" width="24.63" height="47.13"/><path class="cls-4" d="M116.46,233.65c-6.1,39.08-6.81,95.63-2.12,153.31,4.84,57.22,13.13,103,24.82,129.89,11.63,27.21,26.65,35.45,43.52,25.75,35.08-21.82,51-93.39,33.45-180.49a850.83,850.83,0,0,0-31.56-122.88A164.7,164.7,0,0,0,116.46,233.65Z"/><polygon class="cls-1" points="121.98 233.54 128.44 247.46 153.65 301.74 165.9 264.45 177.57 228.91 121.98 233.54"/><rect class="cls-1" x="131.55" y="146.6" width="40.23" height="107.8" rx="18.78"/><polygon class="cls-5" points="172.45 203.69 151.99 214.87 131.54 226.05 131.11 200.95 130.68 175.85 151.56 189.77 172.45 203.69"/><ellipse class="cls-1" cx="147.27" cy="146.23" rx="57.93" ry="91.72" transform="translate(-6.98 285.08) rotate(-86.79)"/><rect class="cls-2" x="41.31" y="96.48" width="139.62" height="34.03" transform="translate(-43.68 77.9) rotate(-32.66)"/><rect class="cls-2" x="56.83" y="88.28" width="52.48" height="142.45"/><rect class="cls-2" x="22.55" y="123.62" width="48.2" height="107.11"/><polygon class="cls-2" points="247.59 131.48 214.76 108.17 180.22 83.67 221.88 149.92 247.59 190.8 247.59 131.48"/><polygon class="cls-2" points="261.27 212.55 263.54 216.16 262.92 212.55 261.27 212.55"/><ellipse class="cls-1" cx="84.67" cy="157.9" rx="33.2" ry="24.63"/><ellipse class="cls-5" cx="84.72" cy="157.36" rx="20.39" ry="17.67"/><circle class="cls-1" cx="99.13" cy="157.36" r="11.25"/><circle class="cls-4" cx="202.49" cy="327.12" r="22.49"/><ellipse class="cls-2" cx="151.62" cy="339.06" rx="23.38" ry="23.56"/><ellipse class="cls-4" cx="150.65" cy="334.88" rx="24.35" ry="24.38"/><rect class="cls-4" x="88.06" y="264.87" width="32.15" height="64.34" transform="translate(35.97 -10.26) rotate(6.81)"/><circle class="cls-6" cx="129.66" cy="147.19" r="12.85"/><circle class="cls-6" cx="198.74" cy="146.65" r="12.32"/><rect class="cls-6" x="132.87" y="177.17" width="48.2" height="10.71" rx="5" transform="translate(22.76 -17.33) rotate(6.81)"/><ellipse class="cls-6" cx="155.85" cy="186.55" rx="5.89" ry="13.27" transform="translate(-55.77 306.17) rotate(-79.6)"/><rect class="cls-5" x="144.51" y="194.33" width="12.85" height="3.17" rx="1.48" transform="translate(57.24 -32.96) rotate(15.35)"/><circle class="cls-3" cx="198.74" cy="146.65" r="3.75"/><circle class="cls-3" cx="132.34" cy="147.72" r="3.75"/><ellipse class="cls-5" cx="164.64" cy="162.92" rx="8.58" ry="12.95" transform="translate(-25.32 295.46) rotate(-79.6)"/><circle class="cls-3" cx="159.11" cy="162.72" r="2.68"/><circle class="cls-3" cx="170.9" cy="164.86" r="2.68"/><path class="cls-2" d="M113,132a23.75,23.75,0,0,1,30.38-5.38l7.17-1.25a33.46,33.46,0,0,0-42.25,10.18Q110.66,133.82,113,132Z"/><path class="cls-2" d="M216.54,132a23.75,23.75,0,0,0-30.38-5.38L179,125.41a33.46,33.46,0,0,1,42.25,10.18Q218.89,133.82,216.54,132Z"/><polygon class="cls-7" points="153.89 675.81 135.26 542.84 116.64 409.86 152.84 472.58 189.03 535.31 171.46 605.56 153.89 675.81"/><rect class="cls-7" x="117.91" y="404.85" width="108.72" height="30.97" transform="translate(-37.6 17.45) rotate(-5.23)"/><polygon class="cls-7" points="231.92 477.72 175.77 483.97 173.54 492.53 213.44 558.51 253.33 624.5 232.81 483.88 231.92 477.72"/><ellipse class="cls-7" cx="178.93" cy="476.54" rx="52.48" ry="63.73"/><ellipse class="cls-7" cx="207.85" cy="462.61" rx="26.78" ry="47.66"/><path class="cls-8" d="M142.86,792.59a6.09,6.09,0,0,0-9,3.57l-8.06,28.35-8.06,28.34a6.1,6.1,0,0,0,5.76,7.76l64.9,1.13,49.88.86a6.09,6.09,0,0,0,3.22-11.33l-42.88-25.5Z"/><path class="cls-8" d="M263.23,777.22a6.39,6.39,0,0,0-9.16,4.35l-6.51,30.21L241,842a6.41,6.41,0,0,0,6.55,7.74l68-3.21,52.26-2.47A6.39,6.39,0,0,0,370.47,832l-46.6-23.79Z"/><polygon class="cls-7" points="307.62 798.34 268.5 802.97 229.39 807.59 230.57 649.91 231.76 492.24 269.69 645.29 307.62 798.34"/><polygon class="cls-7" points="196.6 809.2 157.22 809.5 117.83 809.8 136.32 650.41 154.81 491.02 175.7 650.11 196.6 809.2"/><polygon class="cls-1" points="71.59 565.94 84.21 535.21 96.83 504.48 99.72 523.63 102.62 542.77 87.11 554.36 71.59 565.94"/><polygon class="cls-1" points="214.28 200.44 225.88 168.13 237.48 135.83 240.89 155.29 244.3 174.75 229.29 187.59 214.28 200.44"/></g></svg>
