<svg xmlns="http://www.w3.org/2000/svg" width="1920" height="1080" viewBox="0 0 1920 1080"><defs><style>.cls-1{fill:#f4912d;}.cls-2{fill:#ff7300;}.cls-3{fill:#512500;}.cls-4{fill:#fff;}</style></defs><title>senarie2_2</title><g id="Layer_1" data-name="Layer 1"><rect class="cls-1" width="1920" height="1080"/><circle class="cls-2" cx="145" cy="150" r="50"/><circle class="cls-2" cx="1214" cy="333" r="50"/><circle class="cls-2" cx="1733" cy="918" r="50"/><circle class="cls-2" cx="226" cy="691" r="50"/><circle class="cls-2" cx="913" cy="576" r="50"/><circle class="cls-2" cx="542" cy="333" r="50"/><circle class="cls-2" cx="1197" cy="841" r="50"/><circle class="cls-2" cx="1570" cy="490" r="50"/><circle class="cls-2" cx="828" cy="150" r="50"/><circle class="cls-2" cx="592" cy="968" r="50"/><circle class="cls-2" cx="1620" cy="174" r="50"/><polygon class="cls-2" points="442 81 363 81 363 106 363 124 363 169 327 169 327 212 328 212 328 258 292 258 292 301 371 301 371 279 371 258 371 212 406 212 406 185 406 169 406 124 442 124 442 81"/><polygon class="cls-2" points="988 758 909 758 909 783 909 801 909 846 873 846 873 889 874 889 874 935 838 935 838 978 917 978 917 956 917 935 917 889 952 889 952 862 952 846 952 801 988 801 988 758"/><polygon class="cls-2" points="301 907 222 907 222 932 222 950 222 995 186 995 186 1038 187 1038 187 1084 151 1084 151 1127 230 1127 230 1105 230 1084 230 1038 265 1038 265 1011 265 995 265 950 301 950 301 907"/><polygon class="cls-2" points="1392 791 1471 791 1471 816 1471 834 1471 879 1507 879 1507 922 1506 922 1506 968 1542 968 1542 1011 1463 1011 1463 989 1463 968 1463 922 1428 922 1428 895 1428 879 1428 834 1392 834 1392 791"/><polygon class="cls-2" points="1289 -70 1368 -70 1368 -45 1368 -27 1368 18 1404 18 1404 61 1403 61 1403 107 1439 107 1439 150 1360 150 1360 128 1360 107 1360 61 1325 61 1325 34 1325 18 1325 -27 1289 -27 1289 -70"/><polygon class="cls-2" points="1708 370 1787 370 1787 395 1787 413 1787 458 1823 458 1823 501 1822 501 1822 547 1858 547 1858 590 1779 590 1779 568 1779 547 1779 501 1744 501 1744 474 1744 458 1744 413 1708 413 1708 370"/><polygon class="cls-2" points="1063 173 984 173 984 198 984 216 984 261 948 261 948 304 949 304 949 350 913 350 913 393 992 393 992 371 992 350 992 304 1027 304 1027 277 1027 261 1027 216 1063 216 1063 173"/><polygon class="cls-2" points="1414 411 1335 411 1335 436 1335 454 1335 499 1299 499 1299 542 1300 542 1300 588 1264 588 1264 631 1343 631 1343 609 1343 588 1343 542 1378 542 1378 515 1378 499 1378 454 1414 454 1414 411"/><polygon class="cls-2" points="492 521 571 521 571 546 571 564 571 609 607 609 607 652 606 652 606 698 642 698 642 741 563 741 563 719 563 698 563 652 528 652 528 625 528 609 528 564 492 564 492 521"/><polygon class="cls-2" points="-39 273 40 273 40 298 40 316 40 361 76 361 76 404 75 404 75 450 111 450 111 493 32 493 32 471 32 450 32 404 -3 404 -3 377 -3 361 -3 316 -39 316 -39 273"/><rect class="cls-2" x="1796" y="165" width="40" height="110" rx="20" transform="translate(256.53 1176.19) rotate(-38.42)"/><rect class="cls-2" x="1645" y="-20" width="110" height="40" rx="20" transform="translate(643.53 1331.87) rotate(-51.58)"/><rect class="cls-2" x="1544" y="671" width="110" height="40" rx="20" transform="translate(63.93 1514.32) rotate(-51.58)"/><rect class="cls-2" x="1211" y="1037" width="110" height="40" rx="20" transform="translate(-348.87 1391.98) rotate(-51.58)"/><rect class="cls-2" x="703" y="373" width="110" height="40" rx="20" transform="translate(-20.96 742.63) rotate(-51.58)"/><rect class="cls-2" x="7" y="881" width="110" height="40" rx="20" transform="translate(-682.42 389.65) rotate(-51.58)"/><rect class="cls-2" x="354" y="821" width="110" height="40" rx="20" transform="translate(-504.06 638.79) rotate(-51.58)"/><rect class="cls-2" x="554" y="61" width="110" height="40" rx="20" transform="translate(167.08 507.79) rotate(-51.58)"/><rect class="cls-2" x="1037" y="611" width="110" height="40" rx="20" transform="translate(-80.98 1094.4) rotate(-51.58)"/><rect class="cls-2" x="1447" y="246" width="40" height="110" rx="20" transform="translate(130.62 976.85) rotate(-38.42)"/><rect class="cls-2" x="1127" y="-15" width="40" height="110" rx="20" transform="translate(223.52 721.47) rotate(-38.42)"/><rect class="cls-2" x="1900" y="750" width="40" height="110" rx="20" transform="translate(-84.5 1367.51) rotate(-38.42)"/><rect class="cls-2" x="696" y="786" width="40" height="110" rx="20" transform="translate(-367.59 627.07) rotate(-38.42)"/><rect class="cls-2" x="265" y="435" width="40" height="110" rx="20" transform="translate(-242.8 283.22) rotate(-38.42)"/><rect class="cls-3" x="328" y="166" width="1140" height="655" rx="12"/><rect class="cls-2" x="418" y="263" width="1140" height="655" rx="12"/></g><g id="Layer_3" data-name="Layer 3"><path class="cls-4" d="M458.47,314.28l-13-22.7h6.94l9.13,16,9.16-16h6.94l-13.1,22.7v17.26h-6Z"/><path class="cls-4" d="M500.65,320.31H482.59a7.66,7.66,0,0,0,2,4.94,6.15,6.15,0,0,0,4.58,1.81,6,6,0,0,0,3.6-1A14.81,14.81,0,0,0,496,322.2l4.92,2.74a19.06,19.06,0,0,1-2.41,3.33,12.83,12.83,0,0,1-2.72,2.28,10.8,10.8,0,0,1-3.13,1.3,15,15,0,0,1-3.65.42,11.83,11.83,0,0,1-9.05-3.63,13.58,13.58,0,0,1-3.42-9.68,13.93,13.93,0,0,1,3.31-9.67,12.63,12.63,0,0,1,17.65-.11q3.21,3.52,3.21,9.76Zm-6-4.76q-1.21-4.67-5.88-4.66a6.15,6.15,0,0,0-2,.32,5.77,5.77,0,0,0-1.7.94,5.89,5.89,0,0,0-1.3,1.46,6.81,6.81,0,0,0-.83,1.94Z"/><path class="cls-4" d="M521.67,310.63l-4.82,2.56c-.76-1.55-1.69-2.32-2.82-2.32a1.92,1.92,0,0,0-1.37.53,1.75,1.75,0,0,0-.57,1.35q0,1.46,3.37,2.88,4.62,2,6.23,3.67a6.29,6.29,0,0,1,1.61,4.53,8,8,0,0,1-2.69,6.11,9.2,9.2,0,0,1-6.32,2.33q-6.33,0-9-6.19l5-2.3a10.83,10.83,0,0,0,1.58,2.3,3.58,3.58,0,0,0,2.54,1c2,0,3-.89,3-2.69,0-1-.76-2-2.28-2.9l-1.76-.85c-.59-.27-1.18-.56-1.79-.85a10.93,10.93,0,0,1-3.57-2.49,6.1,6.1,0,0,1-1.32-4.06,7.18,7.18,0,0,1,2.25-5.43,7.88,7.88,0,0,1,5.59-2.15Q519.32,305.64,521.67,310.63Z"/><path class="cls-4" d="M544.88,306.34h5.83v2.33a12.07,12.07,0,0,1,2.87-2.39,7,7,0,0,1,3.18-.64,7.71,7.71,0,0,1,6.75,3.72,8.76,8.76,0,0,1,7.43-3.72q8.52,0,8.52,10.32v15.58h-5.85v-14a10.88,10.88,0,0,0-.88-5.12,3.2,3.2,0,0,0-3-1.53,3.78,3.78,0,0,0-3.5,1.81q-1.11,1.82-1.11,5.83v13H559.3V317.62q0-6.74-3.89-6.73a3.88,3.88,0,0,0-3.58,1.84q-1.12,1.83-1.12,5.8v13h-5.83Z"/><path class="cls-4" d="M605.39,306.34h5.85v25.2h-5.85V328.9a11.17,11.17,0,0,1-16.38-.41,14.05,14.05,0,0,1-3.39-9.63,13.59,13.59,0,0,1,3.39-9.44,10.91,10.91,0,0,1,8.48-3.78,10.74,10.74,0,0,1,7.9,3.62Zm-13.82,12.52a8.74,8.74,0,0,0,1.94,5.9,6.34,6.34,0,0,0,5,2.3,6.69,6.69,0,0,0,5.23-2.22,9.59,9.59,0,0,0,0-11.7,6.6,6.6,0,0,0-5.18-2.25,6.44,6.44,0,0,0-5,2.28A8.37,8.37,0,0,0,591.57,318.86Z"/><path class="cls-4" d="M618.58,306.34h5.85v2.33a9.55,9.55,0,0,1,6.89-3,8.69,8.69,0,0,1,6.86,2.77q2.12,2.35,2.12,7.68v15.45h-5.85V317.46q0-3.72-1-5.15c-.67-1-1.89-1.44-3.67-1.44a4.49,4.49,0,0,0-4.12,1.91q-1.18,1.89-1.19,6.6v12.16h-5.85Z"/><path class="cls-4" d="M666.23,287.83h5.85v43.71h-5.85V328.9a10.85,10.85,0,0,1-7.79,3.37,11.08,11.08,0,0,1-8.59-3.78,14.05,14.05,0,0,1-3.39-9.63,13.59,13.59,0,0,1,3.39-9.42,10.89,10.89,0,0,1,16.38-.18Zm-13.82,31a8.79,8.79,0,0,0,1.94,5.9,6.34,6.34,0,0,0,5,2.3,6.69,6.69,0,0,0,5.23-2.22,9.59,9.59,0,0,0,0-11.7,6.6,6.6,0,0,0-5.18-2.25,6.44,6.44,0,0,0-5,2.28A8.37,8.37,0,0,0,652.41,318.86Z"/><path class="cls-4" d="M697.31,328.64a3.43,3.43,0,0,1,1.06-2.51,3.6,3.6,0,0,1,5.07,5.1,3.44,3.44,0,0,1-2.53,1,3.54,3.54,0,0,1-3.6-3.63Zm.67-6V291.58h5.85v31.06Z"/><path class="cls-4" d="M751.37,310.74h16.51v1.31a27.25,27.25,0,0,1-1.06,8,16.86,16.86,0,0,1-3.49,6,18.09,18.09,0,0,1-14.16,6.26,19.47,19.47,0,0,1-14.36-6.05,20.81,20.81,0,0,1,14.9-35.43,20.34,20.34,0,0,1,8.75,1.91,25.43,25.43,0,0,1,7.64,6.21l-4.3,4.12q-4.92-6.56-12-6.55a14.3,14.3,0,0,0-10.64,4.38,14.6,14.6,0,0,0-4.29,10.76,14.17,14.17,0,0,0,4.78,11,14.32,14.32,0,0,0,9.71,4,12.09,12.09,0,0,0,8-3,10.67,10.67,0,0,0,4-7.25h-10Z"/><path class="cls-4" d="M773.16,318.76a12.5,12.5,0,0,1,3.91-9.29,13.8,13.8,0,0,1,19.1,0,13.5,13.5,0,0,1,0,19,13.34,13.34,0,0,1-9.65,3.81,12.81,12.81,0,0,1-9.5-3.89A13.05,13.05,0,0,1,773.16,318.76Zm6,.1a8.54,8.54,0,0,0,2,6,7.86,7.86,0,0,0,10.92,0,9.44,9.44,0,0,0,0-11.75,7.74,7.74,0,0,0-10.87,0A8.09,8.09,0,0,0,779.11,318.86Z"/><path class="cls-4" d="M824.79,287.83h5.85v43.71h-5.85V328.9a10.85,10.85,0,0,1-7.79,3.37,11.09,11.09,0,0,1-8.59-3.78,14.05,14.05,0,0,1-3.39-9.63,13.59,13.59,0,0,1,3.39-9.42,10.89,10.89,0,0,1,16.38-.18Zm-13.82,31a8.79,8.79,0,0,0,1.94,5.9,6.34,6.34,0,0,0,5,2.3,6.69,6.69,0,0,0,5.23-2.22,9.59,9.59,0,0,0,0-11.7,6.59,6.59,0,0,0-5.18-2.25,6.44,6.44,0,0,0-5,2.28A8.37,8.37,0,0,0,811,318.86Z"/><path class="cls-4" d="M844,311.77v19.77h-5.82V311.77h-2.49v-5.43h2.49V297.1H844v9.24h4.53v5.43Z"/><path class="cls-4" d="M893.21,331c0,1.19,0,2.24-.11,3.14a21.6,21.6,0,0,1-.33,2.39,10.65,10.65,0,0,1-2.43,4.9,11.8,11.8,0,0,1-9.39,3.93,12.54,12.54,0,0,1-8.31-2.72,11.09,11.09,0,0,1-3.88-7.74h5.85a6.57,6.57,0,0,0,1.11,2.88,6.26,6.26,0,0,0,5.28,2.35q6.39,0,6.39-7.84v-3.52a10.89,10.89,0,0,1-8,3.55,10.75,10.75,0,0,1-8.43-3.73,13.82,13.82,0,0,1-3.32-9.45,14.54,14.54,0,0,1,3.08-9.36,10.7,10.7,0,0,1,8.75-4.09,10.15,10.15,0,0,1,7.92,3.54v-2.84h5.82Zm-5.59-12a8.46,8.46,0,0,0-2-5.87,6.51,6.51,0,0,0-5.1-2.25,6.27,6.27,0,0,0-5.23,2.45,8.92,8.92,0,0,0-1.73,5.7,8.82,8.82,0,0,0,1.73,5.64,6.28,6.28,0,0,0,5.23,2.4,6.41,6.41,0,0,0,5.28-2.43A8.64,8.64,0,0,0,887.62,319Z"/><path class="cls-4" d="M919.14,306.34H925v25.2h-5.85V328.9a11.17,11.17,0,0,1-16.38-.41,14.05,14.05,0,0,1-3.39-9.63,13.59,13.59,0,0,1,3.39-9.44,10.93,10.93,0,0,1,8.49-3.78,10.72,10.72,0,0,1,7.89,3.62Zm-13.81,12.52a8.74,8.74,0,0,0,1.94,5.9,6.33,6.33,0,0,0,5,2.3,6.67,6.67,0,0,0,5.22-2.22,9.56,9.56,0,0,0,0-11.7,6.57,6.57,0,0,0-5.17-2.25,6.43,6.43,0,0,0-5,2.28A8.37,8.37,0,0,0,905.33,318.86Zm2-22.13a5.28,5.28,0,0,1,1.65-3.9,5.64,5.64,0,0,1,9.61,4,5.46,5.46,0,0,1-1.66,4,5.37,5.37,0,0,1-4,1.65,5.46,5.46,0,0,1-4-1.65A5.57,5.57,0,0,1,907.32,296.73Zm3.08.06a2.51,2.51,0,0,0,2.56,2.59,2.48,2.48,0,0,0,1.82-.74,2.62,2.62,0,0,0,0-3.65,2.48,2.48,0,0,0-1.82-.74,2.44,2.44,0,0,0-1,.21,2.88,2.88,0,0,0-.82.55,2.66,2.66,0,0,0-.54.82A2.45,2.45,0,0,0,910.4,296.79Z"/><path class="cls-4" d="M955.3,320.31H937.23a7.66,7.66,0,0,0,2,4.94,6.15,6.15,0,0,0,4.58,1.81,6,6,0,0,0,3.6-1,14.81,14.81,0,0,0,3.18-3.83l4.92,2.74a19.06,19.06,0,0,1-2.41,3.33,13,13,0,0,1-2.71,2.28,10.91,10.91,0,0,1-3.13,1.3,15.1,15.1,0,0,1-3.65.42,11.85,11.85,0,0,1-9.06-3.63,13.58,13.58,0,0,1-3.42-9.68,14,14,0,0,1,3.31-9.67,12.63,12.63,0,0,1,17.65-.11q3.21,3.52,3.21,9.76Zm-6-4.76q-1.22-4.67-5.87-4.66a6.21,6.21,0,0,0-2,.32,5.9,5.9,0,0,0-3,2.4,6.81,6.81,0,0,0-.83,1.94Z"/><path class="cls-4" d="M968.13,311.77v19.77h-5.82V311.77h-2.48v-5.43h2.48V297.1h5.82v9.24h4.53v5.43Z"/><path class="cls-4" d="M977.68,328.64a3.6,3.6,0,0,1,7.2,0,3.52,3.52,0,0,1-1.06,2.56,3.65,3.65,0,0,1-5.1,0A3.51,3.51,0,0,1,977.68,328.64Zm16.67,0a3.43,3.43,0,0,1,1.06-2.51,3.6,3.6,0,1,1-1.06,2.51Zm16.69,0a3.43,3.43,0,0,1,1.06-2.51,3.6,3.6,0,1,1,5.07,5.1,3.41,3.41,0,0,1-2.51,1,3.59,3.59,0,0,1-3.62-3.63Z"/><path class="cls-4" d="M449.86,447.94V412.51h7.43a27.23,27.23,0,0,1,8.45,1.05,15.68,15.68,0,0,1,6,3.52,18.3,18.3,0,0,1-.23,26.36,16.58,16.58,0,0,1-6,3.52,27.63,27.63,0,0,1-8.33,1Zm5.34-5h2.41a20.22,20.22,0,0,0,6-.76,12.17,12.17,0,0,0,8.27-11.93,12.33,12.33,0,0,0-3.91-9.46q-3.51-3.24-10.35-3.23H455.2Z"/><path class="cls-4" d="M488.16,425.59v12.83q0,5.55,4.38,5.55c2.92,0,4.39-1.85,4.39-5.55V425.59h5.16v12.94a14.25,14.25,0,0,1-.67,4.64,7.73,7.73,0,0,1-2.22,3.14,10.86,10.86,0,0,1-13.29,0,7.87,7.87,0,0,1-2.27-3.14,12.78,12.78,0,0,1-.64-4.64V425.59Z"/><path class="cls-4" d="M536.1,429.4l-4.27,2.27c-.67-1.38-1.51-2.06-2.5-2.06a1.71,1.71,0,0,0-1.22.47,1.58,1.58,0,0,0-.5,1.2c0,.86,1,1.71,3,2.55a17.71,17.71,0,0,1,5.53,3.26,5.55,5.55,0,0,1,1.42,4,7,7,0,0,1-2.38,5.42,8.11,8.11,0,0,1-5.6,2.06q-5.62,0-8-5.48l4.4-2a9.53,9.53,0,0,0,1.4,2,3.21,3.21,0,0,0,2.25.87c1.74,0,2.62-.79,2.62-2.38,0-.92-.68-1.78-2-2.57-.52-.26-1-.52-1.56-.76l-1.59-.76a9.62,9.62,0,0,1-3.16-2.2,5.46,5.46,0,0,1-1.17-3.61,6.34,6.34,0,0,1,2-4.81,7,7,0,0,1,5-1.91Q534,425,536.1,429.4Z"/><path class="cls-4" d="M547.34,409.18v23.64l7.28-7.23h6.93L551.84,435l10.42,13h-6.7l-7.39-9.43-.83.83v8.6h-5.16V409.18Z"/><path class="cls-4" d="M581.26,425.59h5.19v22.35h-5.19V445.6a9.91,9.91,0,0,1-14.52-.37,12.4,12.4,0,0,1-3-8.53,12.06,12.06,0,0,1,3-8.38,9.69,9.69,0,0,1,7.52-3.35,9.49,9.49,0,0,1,7,3.21ZM569,436.7a7.78,7.78,0,0,0,1.72,5.23,5.64,5.64,0,0,0,4.45,2,6,6,0,0,0,4.64-2,8.53,8.53,0,0,0,0-10.38,5.85,5.85,0,0,0-4.59-2,5.68,5.68,0,0,0-4.45,2A7.43,7.43,0,0,0,569,436.7Z"/><path class="cls-4" d="M598.13,409.18v38.76H593V409.18Z"/><path class="cls-4" d="M632.16,429.4l-4.26,2.27c-.68-1.38-1.51-2.06-2.51-2.06a1.67,1.67,0,0,0-1.21.47,1.55,1.55,0,0,0-.51,1.2c0,.86,1,1.71,3,2.55a17.83,17.83,0,0,1,5.53,3.26,5.55,5.55,0,0,1,1.42,4,7,7,0,0,1-2.39,5.42,8.09,8.09,0,0,1-5.6,2.06q-5.61,0-8-5.48l4.41-2a9.17,9.17,0,0,0,1.4,2,3.17,3.17,0,0,0,2.24.87c1.75,0,2.62-.79,2.62-2.38,0-.92-.67-1.78-2-2.57-.52-.26-1-.52-1.56-.76l-1.58-.76a9.68,9.68,0,0,1-3.17-2.2,5.46,5.46,0,0,1-1.17-3.61,6.35,6.35,0,0,1,2-4.81,7,7,0,0,1,4.95-1.91Q630.07,425,632.16,429.4Z"/><path class="cls-4" d="M658.6,438h-16a6.8,6.8,0,0,0,1.8,4.39,5.43,5.43,0,0,0,4.06,1.6,5.24,5.24,0,0,0,3.19-.92,13.23,13.23,0,0,0,2.82-3.39l4.36,2.43a17.67,17.67,0,0,1-2.13,3,11.55,11.55,0,0,1-2.41,2,9.86,9.86,0,0,1-2.78,1.16,13.8,13.8,0,0,1-3.24.36,10.53,10.53,0,0,1-8-3.21,12.05,12.05,0,0,1-3-8.58,12.35,12.35,0,0,1,2.94-8.58,11.19,11.19,0,0,1,15.65-.1c1.9,2.09,2.85,5,2.85,8.66Zm-5.3-4.22c-.72-2.75-2.45-4.13-5.21-4.13a5.08,5.08,0,0,0-1.76.29,4.91,4.91,0,0,0-1.51.82,5.18,5.18,0,0,0-1.16,1.3,6.07,6.07,0,0,0-.73,1.72Z"/><path class="cls-4" d="M669.41,409.18v38.76h-5.16V409.18Z"/><path class="cls-4" d="M679.14,425.59l5.79,12.55,5.76-12.55h5.8l-11.61,23.89-11.52-23.89Z"/><path class="cls-4" d="M705.33,430.41v17.53h-5.19V430.41H698.3v-4.82h1.84V417q0-4.21,1.47-6a7.2,7.2,0,0,1,5.87-2.43,10,10,0,0,1,3.47.81v5.27l-.53-.27a6.43,6.43,0,0,0-2.75-.85,1.87,1.87,0,0,0-1.86,1,9.5,9.5,0,0,0-.48,3.71v7.37H711v4.82Z"/><path class="cls-4" d="M732.34,427.15l3.53-3.49,2.34,2.48-3.44,3.37a11.9,11.9,0,0,1,2.5,7.32,11.25,11.25,0,0,1-3.46,8.36,11.44,11.44,0,0,1-8.4,3.39,12.09,12.09,0,0,1-7.39-2.34l-3.4,3.29-2.36-2.39,3.37-3.35a12.3,12.3,0,0,1-2.22-7.07,11.2,11.2,0,0,1,3.46-8.33,11.66,11.66,0,0,1,8.47-3.42A12.46,12.46,0,0,1,732.34,427.15Zm-3.74,3.53a7.12,7.12,0,0,0-3.24-.71,6.42,6.42,0,0,0-4.86,1.89,6.89,6.89,0,0,0-1.82,5,7.6,7.6,0,0,0,.72,3.33Zm2.48,2.35-9.37,9.7a7.37,7.37,0,0,0,3.63.92,6.48,6.48,0,0,0,4.82-1.86,6.84,6.84,0,0,0,1.81-5A8.46,8.46,0,0,0,731.08,433Z"/><path class="cls-4" d="M747.87,409.18v38.76h-5.16V409.18Z"/><path class="cls-4" d="M776,447.41c0,1.06,0,2-.1,2.79a18,18,0,0,1-.29,2.13,9.38,9.38,0,0,1-2.15,4.33,10.45,10.45,0,0,1-8.33,3.49,11.1,11.1,0,0,1-7.37-2.41,9.82,9.82,0,0,1-3.44-6.86h5.18a5.91,5.91,0,0,0,1,2.55,5.55,5.55,0,0,0,4.68,2.09q5.67,0,5.67-7v-3.12a9.62,9.62,0,0,1-7.09,3.14,9.51,9.51,0,0,1-7.48-3.3,12.24,12.24,0,0,1-2.94-8.38,12.87,12.87,0,0,1,2.73-8.3,9.49,9.49,0,0,1,7.76-3.63,9,9,0,0,1,7,3.14v-2.52H776Zm-4.95-10.6a7.55,7.55,0,0,0-1.75-5.21,5.76,5.76,0,0,0-4.52-2,5.53,5.53,0,0,0-4.63,2.18,9,9,0,0,0,0,10,5.55,5.55,0,0,0,4.63,2.13,5.65,5.65,0,0,0,4.68-2.16A7.64,7.64,0,0,0,771.08,436.81Z"/><path class="cls-4" d="M802.91,438h-16a6.79,6.79,0,0,0,1.79,4.39,5.45,5.45,0,0,0,4.06,1.6,5.22,5.22,0,0,0,3.19-.92,12.83,12.83,0,0,0,2.82-3.39l4.36,2.43a17.12,17.12,0,0,1-2.13,3,11.3,11.3,0,0,1-2.41,2,9.74,9.74,0,0,1-2.78,1.16,13.71,13.71,0,0,1-3.23.36,10.54,10.54,0,0,1-8-3.21,12,12,0,0,1-3-8.58,12.34,12.34,0,0,1,2.93-8.58,11.19,11.19,0,0,1,15.65-.1c1.9,2.09,2.85,5,2.85,8.66Zm-5.3-4.22a5,5,0,0,0-5.21-4.13,5.14,5.14,0,0,0-1.77.29A5.07,5.07,0,0,0,788,432a6.08,6.08,0,0,0-.74,1.72Z"/><path class="cls-4" d="M813.72,409.18v38.76h-5.17V409.18Z"/><path class="cls-4" d="M819.48,416.29a3.19,3.19,0,0,1,1-2.33,3.34,3.34,0,0,1,4.75,0,3.15,3.15,0,0,1,1,2.36,3.26,3.26,0,0,1-1,2.39,3.19,3.19,0,0,1-2.36,1,3.29,3.29,0,0,1-2.39-1A3.33,3.33,0,0,1,819.48,416.29Zm5.94,9.3v22.35h-5.16V425.59Z"/><path class="cls-4" d="M853.58,447.41c0,1.06,0,2-.1,2.79a20.42,20.42,0,0,1-.29,2.13,9.49,9.49,0,0,1-2.16,4.33,10.43,10.43,0,0,1-8.33,3.49,11.12,11.12,0,0,1-7.37-2.41,9.89,9.89,0,0,1-3.44-6.86h5.19a5.91,5.91,0,0,0,1,2.55,5.55,5.55,0,0,0,4.68,2.09q5.67,0,5.67-7v-3.12a9.86,9.86,0,0,1-14.58-.16,12.24,12.24,0,0,1-2.93-8.38,12.87,12.87,0,0,1,2.73-8.3,9.47,9.47,0,0,1,7.75-3.63,9,9,0,0,1,7,3.14v-2.52h5.16Zm-5-10.6a7.54,7.54,0,0,0-1.74-5.21,5.77,5.77,0,0,0-4.52-2,5.54,5.54,0,0,0-4.64,2.18,9,9,0,0,0,0,10,5.57,5.57,0,0,0,4.64,2.13,5.67,5.67,0,0,0,4.68-2.16A7.69,7.69,0,0,0,848.62,436.81Z"/><path class="cls-4" d="M880,430.41v17.53h-5.19V430.41h-1.83v-4.82h1.83V417q0-4.21,1.47-6a7.22,7.22,0,0,1,5.88-2.43,10,10,0,0,1,3.46.81v5.27l-.53-.27a6.39,6.39,0,0,0-2.75-.85,1.87,1.87,0,0,0-1.86,1,9.5,9.5,0,0,0-.48,3.71v7.37h5.62v4.82Z"/><path class="cls-4" d="M888.07,436.61a11.11,11.11,0,0,1,3.47-8.24,12.21,12.21,0,0,1,16.93,0,12,12,0,0,1,0,16.82,11.85,11.85,0,0,1-8.56,3.37,11.33,11.33,0,0,1-8.42-3.44A11.55,11.55,0,0,1,888.07,436.61Zm5.28.09a7.56,7.56,0,0,0,1.79,5.3,7,7,0,0,0,9.69,0,8.4,8.4,0,0,0,0-10.42,6.34,6.34,0,0,0-4.85-2,6.25,6.25,0,0,0-4.79,2A7.18,7.18,0,0,0,893.35,436.7Z"/><path class="cls-4" d="M917.38,425.59h5.16v2a9.8,9.8,0,0,1,2.53-2,5.8,5.8,0,0,1,2.66-.57A8.34,8.34,0,0,1,932,426.3L929.63,431a5,5,0,0,0-2.87-1.06q-4.21,0-4.22,6.38v11.59h-5.16Z"/><path class="cls-4" d="M942,430.41v17.53h-5.16V430.41h-2.21v-4.82h2.21V417.4H942v8.19h4v4.82Z"/><path class="cls-4" d="M984.41,437.91H968.3a7.14,7.14,0,0,0,1.88,4.41,5.41,5.41,0,0,0,4,1.65q3.54,0,5.86-4.47l4.45,2.48a14.8,14.8,0,0,1-1.59,2.45,9.53,9.53,0,0,1-1.83,1.77,11.86,11.86,0,0,1-7.14,2.41,11.25,11.25,0,0,1-8.1-3.58c-1.87,2.38-4.61,3.58-8.24,3.58a10.19,10.19,0,0,1-6.63-2.07,6.59,6.59,0,0,1-2.55-5.39,6.91,6.91,0,0,1,2.43-5.51,9.49,9.49,0,0,1,6.41-2.11,13.07,13.07,0,0,1,5.83,1.51c0-2-.43-3.42-1.27-4.22s-2.29-1.21-4.31-1.21a22.12,22.12,0,0,0-6,.85v-4.8A39.76,39.76,0,0,1,958,425q5.46,0,7.85,3.14A10.35,10.35,0,0,1,973.7,425a10.22,10.22,0,0,1,7.82,3.14,11.73,11.73,0,0,1,2.94,8.34Zm-31,3.15a2.57,2.57,0,0,0,1.29,2.18,5.9,5.9,0,0,0,3.26.87,6.13,6.13,0,0,0,3.42-.9,2.65,2.65,0,0,0,1.37-2.27,2.46,2.46,0,0,0-1.42-2.06A6.44,6.44,0,0,0,958,438a5.49,5.49,0,0,0-3.19.89A2.6,2.6,0,0,0,953.45,441.06ZM979,433.74q-.94-4.11-5-4.11a5.08,5.08,0,0,0-5.32,4.11Z"/><path class="cls-4" d="M995.13,409.18v38.76H990V409.18Z"/><path class="cls-4" d="M1006.83,409.18v38.76h-5.16V409.18Z"/><path class="cls-4" d="M1033.73,438h-16a6.85,6.85,0,0,0,1.79,4.39,5.47,5.47,0,0,0,4.07,1.6,5.26,5.26,0,0,0,3.19-.92,13.23,13.23,0,0,0,2.82-3.39l4.36,2.43a17.69,17.69,0,0,1-2.14,3,11.3,11.3,0,0,1-2.41,2,9.68,9.68,0,0,1-2.77,1.16,13.86,13.86,0,0,1-3.24.36,10.53,10.53,0,0,1-8-3.21,12.05,12.05,0,0,1-3-8.58,12.35,12.35,0,0,1,2.94-8.58,11.19,11.19,0,0,1,15.65-.1c1.9,2.09,2.84,5,2.84,8.66Zm-5.3-4.22a5,5,0,0,0-5.21-4.13,5.14,5.14,0,0,0-1.77.29,5,5,0,0,0-1.5.82,5.18,5.18,0,0,0-1.16,1.3,6.07,6.07,0,0,0-.73,1.72Z"/><path class="cls-4" d="M1060.22,412.51v30.41h10.41v5h-15.76V412.51Z"/><path class="cls-4" d="M1091.2,425.59h5.18v22.35h-5.18V445.6a9.92,9.92,0,0,1-14.53-.37,12.45,12.45,0,0,1-3-8.53,12.1,12.1,0,0,1,3-8.38,9.69,9.69,0,0,1,7.53-3.35,9.52,9.52,0,0,1,7,3.21Zm-12.26,11.11a7.83,7.83,0,0,0,1.72,5.23,5.66,5.66,0,0,0,4.46,2,5.94,5.94,0,0,0,4.63-2,8.49,8.49,0,0,0,0-10.38,5.85,5.85,0,0,0-4.59-2,5.69,5.69,0,0,0-4.45,2A7.43,7.43,0,0,0,1078.94,436.7Z"/><path class="cls-4" d="M1108.06,425.59v12.83c0,3.7,1.47,5.55,4.39,5.55s4.38-1.85,4.38-5.55V425.59H1122v12.94a14.52,14.52,0,0,1-.67,4.64,7.76,7.76,0,0,1-2.23,3.14,10.85,10.85,0,0,1-13.28,0,8,8,0,0,1-2.28-3.14,13,13,0,0,1-.64-4.64V425.59Z"/><path class="cls-4" d="M1128.51,425.59h5.17v2a9.78,9.78,0,0,1,2.52-2,5.83,5.83,0,0,1,2.66-.57,8.31,8.31,0,0,1,4.27,1.33l-2.36,4.73a5,5,0,0,0-2.87-1.06c-2.82,0-4.22,2.13-4.22,6.38v11.59h-5.17Z"/><path class="cls-4" d="M1162.25,425.59h5.18v22.35h-5.18V445.6a9.92,9.92,0,0,1-14.53-.37,12.45,12.45,0,0,1-3-8.53,12.1,12.1,0,0,1,3-8.38,9.71,9.71,0,0,1,7.53-3.35,9.52,9.52,0,0,1,7,3.21ZM1150,436.7a7.83,7.83,0,0,0,1.72,5.23,5.66,5.66,0,0,0,4.46,2,5.94,5.94,0,0,0,4.63-2,8.49,8.49,0,0,0,0-10.38,5.85,5.85,0,0,0-4.59-2,5.69,5.69,0,0,0-4.45,2A7.43,7.43,0,0,0,1150,436.7Z"/><path class="cls-4" d="M1188.46,409.18h5.16v18.27a8.91,8.91,0,0,1,6.08-2.48,7.84,7.84,0,0,1,6.06,2.46c1.28,1.42,1.93,3.69,1.93,6.81v13.7h-5.17V434.72a6.28,6.28,0,0,0-1-3.89,3.66,3.66,0,0,0-3.06-1.2,4.22,4.22,0,0,0-3.81,1.67q-1.08,1.71-1.08,5.83v10.81h-5.16Z"/><path class="cls-4" d="M1217,425.59l5.79,12.55,5.76-12.55h5.8l-11.61,23.89-11.52-23.89Z"/><path class="cls-4" d="M1253.52,425.59h5.18v22.35h-5.18V445.6a9.92,9.92,0,0,1-14.53-.37,12.45,12.45,0,0,1-3-8.53,12.1,12.1,0,0,1,3-8.38,9.71,9.71,0,0,1,7.53-3.35,9.52,9.52,0,0,1,7,3.21Zm-12.26,11.11a7.83,7.83,0,0,0,1.72,5.23,5.66,5.66,0,0,0,4.46,2,5.94,5.94,0,0,0,4.63-2,8.49,8.49,0,0,0,0-10.38,5.85,5.85,0,0,0-4.59-2,5.69,5.69,0,0,0-4.45,2A7.43,7.43,0,0,0,1241.26,436.7Z"/><path class="cls-4" d="M1281.7,409.18h5.19v38.76h-5.19V445.6a9.64,9.64,0,0,1-6.91,3,9.82,9.82,0,0,1-7.62-3.35,12.44,12.44,0,0,1-3-8.53,12.08,12.08,0,0,1,3-8.36,9.66,9.66,0,0,1,14.53-.16Zm-12.26,27.52a7.78,7.78,0,0,0,1.73,5.23,5.62,5.62,0,0,0,4.45,2,5.92,5.92,0,0,0,4.63-2,8.49,8.49,0,0,0,0-10.38,5.83,5.83,0,0,0-4.59-2,5.69,5.69,0,0,0-4.45,2A7.43,7.43,0,0,0,1269.44,436.7Z"/><path class="cls-4" d="M1324.38,409.18h5.19v38.76h-5.19V445.6a9.6,9.6,0,0,1-6.9,3,9.82,9.82,0,0,1-7.62-3.35,12.4,12.4,0,0,1-3-8.53,12,12,0,0,1,3-8.36,9.65,9.65,0,0,1,14.52-.16Zm-12.25,27.52a7.78,7.78,0,0,0,1.72,5.23,5.64,5.64,0,0,0,4.45,2,5.94,5.94,0,0,0,4.64-2,8.49,8.49,0,0,0,0-10.38,5.85,5.85,0,0,0-4.59-2,5.68,5.68,0,0,0-4.45,2A7.43,7.43,0,0,0,1312.13,436.7Z"/><path class="cls-4" d="M1356.45,438h-16a6.74,6.74,0,0,0,1.79,4.39,5.45,5.45,0,0,0,4.06,1.6,5.24,5.24,0,0,0,3.19-.92,13,13,0,0,0,2.82-3.39l4.36,2.43a17.12,17.12,0,0,1-2.13,3,11.55,11.55,0,0,1-2.41,2,9.74,9.74,0,0,1-2.78,1.16,13.74,13.74,0,0,1-3.24.36,10.53,10.53,0,0,1-8-3.21,12.05,12.05,0,0,1-3-8.58,12.35,12.35,0,0,1,2.94-8.58,11.19,11.19,0,0,1,15.65-.1c1.9,2.09,2.85,5,2.85,8.66Zm-5.31-4.22c-.72-2.75-2.45-4.13-5.21-4.13a5.26,5.26,0,0,0-3.27,1.11,5.38,5.38,0,0,0-1.16,1.3,6.07,6.07,0,0,0-.73,1.72Z"/><path class="cls-4" d="M1362.09,425.59h5.16v2a9.8,9.8,0,0,1,2.53-2,5.83,5.83,0,0,1,2.66-.57,8.31,8.31,0,0,1,4.27,1.33l-2.36,4.73a5,5,0,0,0-2.87-1.06q-4.23,0-4.23,6.38v11.59h-5.16Z"/><path class="cls-4" d="M1414.53,438h-16a6.85,6.85,0,0,0,1.79,4.39,5.46,5.46,0,0,0,4.06,1.6,5.22,5.22,0,0,0,3.19-.92,13,13,0,0,0,2.83-3.39l4.36,2.43a17.69,17.69,0,0,1-2.14,3,11.3,11.3,0,0,1-2.41,2,9.8,9.8,0,0,1-2.77,1.16,13.86,13.86,0,0,1-3.24.36,10.52,10.52,0,0,1-8-3.21,12.05,12.05,0,0,1-3-8.58,12.35,12.35,0,0,1,2.94-8.58,11.19,11.19,0,0,1,15.65-.1c1.89,2.09,2.84,5,2.84,8.66Zm-5.3-4.22a5,5,0,0,0-5.21-4.13,5.14,5.14,0,0,0-1.77.29,5,5,0,0,0-1.5.82,5.18,5.18,0,0,0-1.16,1.3,5.8,5.8,0,0,0-.73,1.72Z"/><path class="cls-4" d="M1420.17,425.59h5.17v2a10,10,0,0,1,2.52-2,5.84,5.84,0,0,1,2.67-.57,8.28,8.28,0,0,1,4.26,1.33l-2.36,4.73a5,5,0,0,0-2.87-1.06q-4.21,0-4.22,6.38v11.59h-5.17Z"/><path class="cls-4" d="M1465.25,429.4l-4.27,2.27c-.68-1.38-1.51-2.06-2.5-2.06a1.7,1.7,0,0,0-1.22.47,1.54,1.54,0,0,0-.5,1.2c0,.86,1,1.71,3,2.55a17.71,17.71,0,0,1,5.53,3.26,5.55,5.55,0,0,1,1.42,4,7,7,0,0,1-2.38,5.42,8.13,8.13,0,0,1-5.6,2.06q-5.62,0-8-5.48l4.41-2a9.53,9.53,0,0,0,1.4,2,3.21,3.21,0,0,0,2.25.87c1.74,0,2.62-.79,2.62-2.38,0-.92-.68-1.78-2-2.57-.52-.26-1.05-.52-1.57-.76l-1.58-.76a9.79,9.79,0,0,1-3.17-2.2,5.46,5.46,0,0,1-1.17-3.61,6.35,6.35,0,0,1,2-4.81,7,7,0,0,1,5-1.91C1461.73,425,1463.85,426.45,1465.25,429.4Z"/><path class="cls-4" d="M1476.49,409.18v23.64l7.28-7.23h6.93L1481,435l10.42,13h-6.7l-7.39-9.43-.83.83v8.6h-5.16V409.18Z"/><path class="cls-4" d="M1514.34,438h-16a6.79,6.79,0,0,0,1.79,4.39,5.45,5.45,0,0,0,4.06,1.6,5.24,5.24,0,0,0,3.19-.92,12.83,12.83,0,0,0,2.82-3.39l4.36,2.43a17.12,17.12,0,0,1-2.13,3,11.55,11.55,0,0,1-2.41,2,9.74,9.74,0,0,1-2.78,1.16,13.71,13.71,0,0,1-3.23.36,10.54,10.54,0,0,1-8-3.21,12.05,12.05,0,0,1-3-8.58,12.35,12.35,0,0,1,2.94-8.58,11.19,11.19,0,0,1,15.65-.1c1.9,2.09,2.85,5,2.85,8.66Zm-5.31-4.22c-.72-2.75-2.45-4.13-5.21-4.13a5.07,5.07,0,0,0-4.42,2.41,5.81,5.81,0,0,0-.74,1.72Z"/><path class="cls-4" d="M1525.72,430.41v17.53h-5.16V430.41h-2.21v-4.82h2.21V417.4h5.16v8.19h4v4.82Z"/><path class="cls-4" d="M447.81,493a11.11,11.11,0,0,1,3.47-8.24,12.22,12.22,0,0,1,16.94,0,12,12,0,0,1,0,16.82,11.83,11.83,0,0,1-8.56,3.37,11.33,11.33,0,0,1-8.42-3.44A11.58,11.58,0,0,1,447.81,493Zm5.28.09a7.56,7.56,0,0,0,1.79,5.3,7,7,0,0,0,9.69,0,8.4,8.4,0,0,0,0-10.42,6.34,6.34,0,0,0-4.85-2,6.25,6.25,0,0,0-4.79,2A7.18,7.18,0,0,0,453.09,493.1Z"/><path class="cls-4" d="M498.74,503.81c0,1.06,0,2-.11,2.79a18.2,18.2,0,0,1-.28,2.13,9.49,9.49,0,0,1-2.16,4.33,10.45,10.45,0,0,1-8.33,3.49,11.12,11.12,0,0,1-7.37-2.41,9.85,9.85,0,0,1-3.44-6.86h5.19a6,6,0,0,0,1,2.55,5.57,5.57,0,0,0,4.69,2.09q5.65,0,5.66-7v-3.12a9.85,9.85,0,0,1-14.57-.16,12.24,12.24,0,0,1-2.94-8.38,12.87,12.87,0,0,1,2.73-8.3,9.5,9.5,0,0,1,7.76-3.63,9,9,0,0,1,7,3.14V482h5.17Zm-5-10.6A7.54,7.54,0,0,0,492,488a5.77,5.77,0,0,0-4.52-2,5.54,5.54,0,0,0-4.64,2.18,9,9,0,0,0,0,10.05,5.57,5.57,0,0,0,4.64,2.13,5.67,5.67,0,0,0,4.68-2.16A7.69,7.69,0,0,0,493.78,493.21Z"/><path class="cls-4" d="M525.08,486.81v17.53h-5.16V486.81h-2.2V482h2.2V473.8h5.16V482h4v4.82Z"/><path class="cls-4" d="M549.5,482h5.19v22.35H549.5V502a9.92,9.92,0,0,1-14.53-.37,12.44,12.44,0,0,1-3-8.53,12.11,12.11,0,0,1,3-8.38,9.72,9.72,0,0,1,7.53-3.35,9.5,9.5,0,0,1,7,3.21ZM537.25,493.1a7.78,7.78,0,0,0,1.72,5.23,5.64,5.64,0,0,0,4.45,2,6,6,0,0,0,4.64-2,8.52,8.52,0,0,0,0-10.37,5.82,5.82,0,0,0-4.59-2,5.71,5.71,0,0,0-4.46,2A7.47,7.47,0,0,0,537.25,493.1Z"/><path class="cls-4" d="M582.82,503.81c0,1.06,0,2-.1,2.79a18,18,0,0,1-.29,2.13,9.38,9.38,0,0,1-2.15,4.33,10.45,10.45,0,0,1-8.33,3.49,11.1,11.1,0,0,1-7.37-2.41,9.82,9.82,0,0,1-3.44-6.86h5.18a5.91,5.91,0,0,0,1,2.55,5.55,5.55,0,0,0,4.68,2.09q5.67,0,5.67-7v-3.12a9.62,9.62,0,0,1-7.09,3.14,9.51,9.51,0,0,1-7.48-3.3,12.24,12.24,0,0,1-2.94-8.38,12.87,12.87,0,0,1,2.73-8.3,9.5,9.5,0,0,1,7.76-3.63,9,9,0,0,1,7,3.14V482h5.16Zm-5-10.6a7.5,7.5,0,0,0-1.75-5.21,5.76,5.76,0,0,0-4.52-2,5.53,5.53,0,0,0-4.63,2.18,9,9,0,0,0,0,10.05,5.55,5.55,0,0,0,4.63,2.13,5.65,5.65,0,0,0,4.68-2.16A7.64,7.64,0,0,0,577.87,493.21Z"/><path class="cls-4" d="M609.7,494.38h-16a6.79,6.79,0,0,0,1.79,4.39,5.45,5.45,0,0,0,4.06,1.6,5.22,5.22,0,0,0,3.19-.92,12.83,12.83,0,0,0,2.82-3.39l4.36,2.43a17.12,17.12,0,0,1-2.13,2.95,11.3,11.3,0,0,1-2.41,2,9.74,9.74,0,0,1-2.78,1.16,13.71,13.71,0,0,1-3.23.36,10.5,10.5,0,0,1-8-3.21,12,12,0,0,1-3-8.58,12.34,12.34,0,0,1,2.93-8.58,11.21,11.21,0,0,1,15.66-.1c1.89,2.09,2.84,5,2.84,8.66Zm-5.3-4.22a5,5,0,0,0-5.21-4.13,5.14,5.14,0,0,0-1.77.29,5.07,5.07,0,0,0-2.66,2.12,6.08,6.08,0,0,0-.74,1.72Z"/><path class="cls-4" d="M635.19,486.81v17.53H630V486.81h-1.84V482H630v-8.63q0-4.22,1.47-6a7.18,7.18,0,0,1,5.87-2.43,10.27,10.27,0,0,1,3.47.8V471l-.53-.27a6.46,6.46,0,0,0-2.75-.85,1.87,1.87,0,0,0-1.86,1,9.45,9.45,0,0,0-.49,3.71V482h5.63v4.82Z"/><path class="cls-4" d="M661,482h5.19v22.35H661V502a9.92,9.92,0,0,1-14.53-.37,12.44,12.44,0,0,1-3-8.53,12.11,12.11,0,0,1,3-8.38,9.72,9.72,0,0,1,7.53-3.35,9.52,9.52,0,0,1,7,3.21ZM648.74,493.1a7.78,7.78,0,0,0,1.72,5.23,5.62,5.62,0,0,0,4.45,2,5.92,5.92,0,0,0,4.63-2,8.48,8.48,0,0,0,0-10.37,5.79,5.79,0,0,0-4.58-2,5.71,5.71,0,0,0-4.46,2A7.42,7.42,0,0,0,648.74,493.1Z"/><path class="cls-4" d="M678,486.81v17.53h-5.16V486.81h-2.21V482h2.21V473.8H678V482h4v4.82Z"/><path class="cls-4" d="M699.27,472.7a3.36,3.36,0,0,1,3.35-3.33,3.29,3.29,0,0,1,2.39,1,3.23,3.23,0,0,1,1,2.37,3.29,3.29,0,0,1-1,2.39,3.21,3.21,0,0,1-2.37,1,3.25,3.25,0,0,1-2.38-1A3.29,3.29,0,0,1,699.27,472.7Zm5.94,9.29v22.35h-5.16V482Z"/><path class="cls-4" d="M746.61,494.38h-16a6.85,6.85,0,0,0,1.79,4.39,5.47,5.47,0,0,0,4.07,1.6,5.26,5.26,0,0,0,3.19-.92,13.23,13.23,0,0,0,2.82-3.39l4.36,2.43a17.67,17.67,0,0,1-2.13,2.95,11.55,11.55,0,0,1-2.41,2,9.86,9.86,0,0,1-2.78,1.16,13.86,13.86,0,0,1-3.24.36,10.53,10.53,0,0,1-8-3.21,12,12,0,0,1-3-8.58,12.35,12.35,0,0,1,2.94-8.58,11.19,11.19,0,0,1,15.65-.1c1.9,2.09,2.85,5,2.85,8.66Zm-5.3-4.22c-.72-2.75-2.45-4.13-5.21-4.13a5.18,5.18,0,0,0-1.77.29,5,5,0,0,0-1.5.82,5.18,5.18,0,0,0-1.16,1.3,6.07,6.07,0,0,0-.73,1.72Z"/><path class="cls-4" d="M752.26,482h5.19v2.06a8.49,8.49,0,0,1,6.1-2.68,7.7,7.7,0,0,1,6.08,2.46c1.26,1.39,1.88,3.66,1.88,6.81v13.7h-5.18V491.86c0-2.21-.31-3.73-.92-4.57a3.69,3.69,0,0,0-3.26-1.28,4,4,0,0,0-3.65,1.69q-1.05,1.68-1,5.86v10.78h-5.19Z"/><path class="cls-4" d="M795.31,482l5.78,12.55L806.85,482h5.81l-11.61,23.89L789.53,482Z"/><path class="cls-4" d="M814.2,493a11.1,11.1,0,0,1,3.46-8.24,12.22,12.22,0,0,1,16.94,0,12,12,0,0,1,0,16.82A11.85,11.85,0,0,1,826,505a11.36,11.36,0,0,1-8.43-3.44A11.58,11.58,0,0,1,814.2,493Zm5.28.09a7.51,7.51,0,0,0,1.79,5.3,7,7,0,0,0,9.68,0A8.4,8.4,0,0,0,831,488a6.88,6.88,0,0,0-9.64,0A7.22,7.22,0,0,0,819.48,493.1Z"/><path class="cls-4" d="M848.67,465.58v23.64l7.27-7.23h6.93l-9.7,9.39,10.41,13h-6.7l-7.39-9.43-.82.83v8.6H843.5V465.58Z"/><path class="cls-4" d="M879.9,485.8l-4.27,2.27c-.67-1.38-1.5-2.06-2.5-2.06a1.67,1.67,0,0,0-1.21.47,1.55,1.55,0,0,0-.51,1.2c0,.86,1,1.71,3,2.55a17.58,17.58,0,0,1,5.53,3.26,5.56,5.56,0,0,1,1.43,4,7,7,0,0,1-2.39,5.42,8.09,8.09,0,0,1-5.6,2.06q-5.62,0-8-5.48l4.4-2a9.92,9.92,0,0,0,1.4,2,3.21,3.21,0,0,0,2.25.87c1.75,0,2.62-.79,2.62-2.38,0-.92-.67-1.78-2-2.57-.52-.26-1-.52-1.56-.76l-1.58-.76a9.68,9.68,0,0,1-3.17-2.2,5.46,5.46,0,0,1-1.17-3.61,6.34,6.34,0,0,1,2-4.81,7,7,0,0,1,5-1.91Q877.81,481.37,879.9,485.8Z"/><path class="cls-4" d="M906.34,494.38h-16a6.79,6.79,0,0,0,1.79,4.39,5.46,5.46,0,0,0,4.06,1.6,5.22,5.22,0,0,0,3.19-.92,12.83,12.83,0,0,0,2.82-3.39l4.36,2.43a17.12,17.12,0,0,1-2.13,2.95,11.3,11.3,0,0,1-2.41,2,9.74,9.74,0,0,1-2.78,1.16A13.71,13.71,0,0,1,896,505a10.52,10.52,0,0,1-8-3.21,12,12,0,0,1-3-8.58,12.39,12.39,0,0,1,2.93-8.58,11.21,11.21,0,0,1,15.66-.1c1.89,2.09,2.84,5,2.84,8.66Zm-5.3-4.22a5,5,0,0,0-5.21-4.13,5.14,5.14,0,0,0-1.77.29,5,5,0,0,0-1.5.82,5.18,5.18,0,0,0-1.16,1.3,6.08,6.08,0,0,0-.74,1.72Z"/><path class="cls-4" d="M912,482h5.19v2.06a8.51,8.51,0,0,1,6.11-2.68,7.71,7.71,0,0,1,6.08,2.46q1.88,2.09,1.88,6.81v13.7h-5.19V491.86c0-2.21-.3-3.73-.92-4.57a3.67,3.67,0,0,0-3.25-1.28,4,4,0,0,0-3.65,1.69q-1.07,1.68-1.06,5.86v10.78H912Z"/><path class="cls-4" d="M938.56,501.77a3,3,0,0,1,.94-2.22,3.19,3.19,0,0,1,5.44,2.24,3.14,3.14,0,0,1-.94,2.28,3.26,3.26,0,0,1-4.52,0A3.13,3.13,0,0,1,938.56,501.77Z"/><path class="cls-4" d="M455.2,602.75v14.39h-5.34V581.71h6.06a27.51,27.51,0,0,1,6.72.62,9,9,0,0,1,4,2.34,10.11,10.11,0,0,1,3.05,7.53,9.73,9.73,0,0,1-3.26,7.71q-3.25,2.83-8.79,2.84Zm0-5h2q7.37,0,7.37-5.67,0-5.49-7.6-5.49H455.2Z"/><path class="cls-4" d="M489.47,594.79h5.18v22.35h-5.18V614.8a9.9,9.9,0,0,1-14.53-.37,12.47,12.47,0,0,1-3-8.53,12.1,12.1,0,0,1,3-8.38,9.69,9.69,0,0,1,7.53-3.35,9.52,9.52,0,0,1,7,3.21ZM477.21,605.9a7.83,7.83,0,0,0,1.72,5.23,5.65,5.65,0,0,0,4.45,2,5.94,5.94,0,0,0,4.64-2,8.48,8.48,0,0,0,0-10.37,5.82,5.82,0,0,0-4.59-2,5.69,5.69,0,0,0-4.45,2A7.43,7.43,0,0,0,477.21,605.9ZM479,586.28a4.69,4.69,0,0,1,1.47-3.47,5,5,0,1,1,7,7.07,4.73,4.73,0,0,1-3.51,1.47,4.85,4.85,0,0,1-3.56-1.47A5,5,0,0,1,479,586.28Zm2.73,0a2.23,2.23,0,0,0,.65,1.64,2.32,2.32,0,0,0,3.24,0,2.33,2.33,0,0,0,0-3.23,2.2,2.2,0,0,0-1.62-.66,2,2,0,0,0-.89.19,2.29,2.29,0,0,0-.73.49,2.52,2.52,0,0,0-.48.72A2.3,2.3,0,0,0,481.71,586.32Z"/><path class="cls-4" d="M532.15,578.38h5.19v38.76h-5.19V614.8a9.63,9.63,0,0,1-6.91,3,9.83,9.83,0,0,1-7.62-3.36,12.46,12.46,0,0,1-3-8.53,12.08,12.08,0,0,1,3-8.36,9.66,9.66,0,0,1,14.53-.16ZM519.9,605.9a7.78,7.78,0,0,0,1.72,5.23,5.64,5.64,0,0,0,4.45,2,6,6,0,0,0,4.64-2,8.52,8.52,0,0,0,0-10.37,5.82,5.82,0,0,0-4.59-2,5.71,5.71,0,0,0-4.46,2A7.47,7.47,0,0,0,519.9,605.9Z"/><path class="cls-4" d="M564.21,607.18h-16a6.85,6.85,0,0,0,1.79,4.39,5.47,5.47,0,0,0,4.07,1.6,5.26,5.26,0,0,0,3.19-.92,13.23,13.23,0,0,0,2.82-3.39l4.36,2.43a17.67,17.67,0,0,1-2.13,3,11.55,11.55,0,0,1-2.41,2,9.86,9.86,0,0,1-2.78,1.16,13.85,13.85,0,0,1-3.24.37,10.54,10.54,0,0,1-8-3.22,12.05,12.05,0,0,1-3-8.58,12.36,12.36,0,0,1,2.94-8.58,11.19,11.19,0,0,1,15.65-.1q2.85,3.12,2.85,8.66Zm-5.3-4.22c-.72-2.75-2.45-4.13-5.21-4.13a5.18,5.18,0,0,0-1.77.29,5,5,0,0,0-1.5.82,5.18,5.18,0,0,0-1.16,1.3,6.07,6.07,0,0,0-.73,1.72Z"/><path class="cls-4" d="M569.86,594.79H575v2.07a8.44,8.44,0,0,1,6.11-2.69,7.72,7.72,0,0,1,6.08,2.45c1.26,1.4,1.88,3.67,1.88,6.82v13.7h-5.18V604.66c0-2.2-.31-3.73-.92-4.57a3.69,3.69,0,0,0-3.26-1.28,4,4,0,0,0-3.65,1.69c-.7,1.12-1.06,3.07-1.06,5.86v10.78h-5.18Z"/><path class="cls-4" d="M610.13,594.79h5.17v2.07a10.68,10.68,0,0,1,2.54-2.12,6.25,6.25,0,0,1,2.83-.57,6.86,6.86,0,0,1,6,3.3,7.74,7.74,0,0,1,6.58-3.3q7.56,0,7.55,9.16v13.81h-5.18V604.73a9.59,9.59,0,0,0-.78-4.55,2.84,2.84,0,0,0-2.64-1.35,3.36,3.36,0,0,0-3.11,1.61,10.33,10.33,0,0,0-1,5.16v11.54h-5.18V604.79q0-6-3.45-6a3.43,3.43,0,0,0-3.17,1.63,10.1,10.1,0,0,0-1,5.14v11.54h-5.17Z"/><path class="cls-4" d="M663.79,594.79H669v22.35h-5.19V614.8a9.9,9.9,0,0,1-14.53-.37,12.46,12.46,0,0,1-3-8.53,12.1,12.1,0,0,1,3-8.38,9.72,9.72,0,0,1,7.53-3.35,9.52,9.52,0,0,1,7,3.21ZM651.53,605.9a7.78,7.78,0,0,0,1.73,5.23,5.62,5.62,0,0,0,4.45,2,5.92,5.92,0,0,0,4.63-2,8.48,8.48,0,0,0,0-10.37,5.81,5.81,0,0,0-4.59-2,5.69,5.69,0,0,0-4.45,2A7.43,7.43,0,0,0,651.53,605.9Zm1.77-19.62a4.69,4.69,0,0,1,1.47-3.47,5,5,0,0,1,7.05,0,5,5,0,0,1,0,7.07,4.77,4.77,0,0,1-3.52,1.47,4.83,4.83,0,0,1-3.55-1.47A4.92,4.92,0,0,1,653.3,586.28Zm2.73,0a2.2,2.2,0,0,0,.66,1.64,2.28,2.28,0,1,0,1.61-3.89,2,2,0,0,0-.89.19,2.14,2.14,0,0,0-.72.49,2.36,2.36,0,0,0-.49.72A2.3,2.3,0,0,0,656,586.32Z"/><path class="cls-4" d="M692,578.38h5.19v38.76H692V614.8a9.63,9.63,0,0,1-6.91,3,9.83,9.83,0,0,1-7.62-3.36,12.46,12.46,0,0,1-3-8.53,12.08,12.08,0,0,1,3-8.36,9.66,9.66,0,0,1,14.53-.16ZM679.72,605.9a7.78,7.78,0,0,0,1.72,5.23,5.64,5.64,0,0,0,4.45,2,6,6,0,0,0,4.64-2,8.52,8.52,0,0,0,0-10.37,5.82,5.82,0,0,0-4.59-2,5.71,5.71,0,0,0-4.46,2A7.42,7.42,0,0,0,679.72,605.9Z"/><path class="cls-4" d="M724,607.18H708a6.85,6.85,0,0,0,1.79,4.39,5.46,5.46,0,0,0,4.06,1.6,5.22,5.22,0,0,0,3.19-.92,13,13,0,0,0,2.83-3.39l4.36,2.43a17.69,17.69,0,0,1-2.14,3,11.3,11.3,0,0,1-2.41,2,9.68,9.68,0,0,1-2.77,1.16,13.85,13.85,0,0,1-3.24.37,10.52,10.52,0,0,1-8-3.22,12.05,12.05,0,0,1-3-8.58,12.36,12.36,0,0,1,2.94-8.58,11.19,11.19,0,0,1,15.65-.1q2.84,3.12,2.84,8.66Zm-5.3-4.22a5,5,0,0,0-5.21-4.13,5.14,5.14,0,0,0-1.77.29,5,5,0,0,0-1.5.82,5.18,5.18,0,0,0-1.16,1.3,5.8,5.8,0,0,0-.73,1.72Z"/><path class="cls-4" d="M749.34,578.38V602l7.28-7.23h6.93l-9.71,9.39,10.42,13h-6.7l-7.39-9.43-.83.83v8.6h-5.16V578.38Z"/><path class="cls-4" d="M783.26,594.79h5.19v22.35h-5.19V614.8a9.89,9.89,0,0,1-14.52-.37,12.42,12.42,0,0,1-3-8.53,12.06,12.06,0,0,1,3-8.38,9.69,9.69,0,0,1,7.52-3.35,9.5,9.5,0,0,1,7,3.21ZM771,605.9a7.78,7.78,0,0,0,1.72,5.23,5.64,5.64,0,0,0,4.45,2,6,6,0,0,0,4.64-2,8.52,8.52,0,0,0,0-10.37,5.82,5.82,0,0,0-4.59-2,5.71,5.71,0,0,0-4.46,2A7.47,7.47,0,0,0,771,605.9Z"/><path class="cls-4" d="M795,594.79h5.18v2.07a8.44,8.44,0,0,1,6.11-2.69,7.72,7.72,0,0,1,6.08,2.45q1.88,2.1,1.88,6.82v13.7H809V604.66c0-2.2-.3-3.73-.91-4.57a3.71,3.71,0,0,0-3.26-1.28,4,4,0,0,0-3.65,1.69q-1.07,1.68-1.06,5.86v10.78H795Z"/><path class="cls-4" d="M848.23,598.6,844,600.87c-.67-1.38-1.5-2.06-2.5-2.06a1.67,1.67,0,0,0-1.21.47,1.55,1.55,0,0,0-.51,1.2c0,.86,1,1.71,3,2.55a17.58,17.58,0,0,1,5.53,3.26,5.56,5.56,0,0,1,1.43,4,7,7,0,0,1-2.39,5.42,8.1,8.1,0,0,1-5.6,2.07q-5.62,0-8-5.49l4.4-2a9.92,9.92,0,0,0,1.4,2,3.21,3.21,0,0,0,2.25.87c1.75,0,2.62-.79,2.62-2.38,0-.92-.67-1.78-2-2.58l-1.56-.75-1.58-.76a9.68,9.68,0,0,1-3.17-2.2,5.46,5.46,0,0,1-1.17-3.61,6.38,6.38,0,0,1,2-4.82,7,7,0,0,1,5-1.9Q846.14,594.17,848.23,598.6Z"/><path class="cls-4" d="M859.48,629.3h-5.17V594.79h5.17v2.43a9.79,9.79,0,0,1,14.52.35,12.25,12.25,0,0,1,3,8.51,12.11,12.11,0,0,1-3,8.38,9.79,9.79,0,0,1-14.55.18Zm12.27-23.2a7.74,7.74,0,0,0-1.74-5.23,5.64,5.64,0,0,0-4.45-2,5.93,5.93,0,0,0-4.62,2,7.54,7.54,0,0,0-1.76,5.19,7.71,7.71,0,0,0,1.76,5.19,5.82,5.82,0,0,0,4.59,2,5.57,5.57,0,0,0,4.43-2A7.29,7.29,0,0,0,871.75,606.1Z"/><path class="cls-4" d="M882.49,594.79h5.17v2a10,10,0,0,1,2.52-2,5.83,5.83,0,0,1,2.66-.57,8.28,8.28,0,0,1,4.27,1.33l-2.36,4.73a5,5,0,0,0-2.87-1.06q-4.21,0-4.22,6.38v11.59h-5.17Z"/><path class="cls-4" d="M920.11,607.18h-16a6.79,6.79,0,0,0,1.79,4.39,5.45,5.45,0,0,0,4.06,1.6,5.22,5.22,0,0,0,3.19-.92,12.83,12.83,0,0,0,2.82-3.39l4.36,2.43a17.12,17.12,0,0,1-2.13,3,11.3,11.3,0,0,1-2.41,2,9.74,9.74,0,0,1-2.78,1.16,13.7,13.7,0,0,1-3.23.37,10.52,10.52,0,0,1-8-3.22,12.05,12.05,0,0,1-3-8.58,12.36,12.36,0,0,1,2.93-8.58,11.21,11.21,0,0,1,15.66-.1q2.84,3.12,2.84,8.66Zm-5.3-4.22a5,5,0,0,0-5.21-4.13,5.14,5.14,0,0,0-1.77.29,5,5,0,0,0-1.5.82,5.18,5.18,0,0,0-1.16,1.3,6.08,6.08,0,0,0-.74,1.72Z"/><path class="cls-4" d="M942.23,578.38h5.19v38.76h-5.19V614.8a9.63,9.63,0,0,1-6.91,3,9.83,9.83,0,0,1-7.62-3.36,12.46,12.46,0,0,1-3-8.53,12.08,12.08,0,0,1,3-8.36,9.66,9.66,0,0,1,14.53-.16ZM930,605.9a7.78,7.78,0,0,0,1.72,5.23,5.64,5.64,0,0,0,4.45,2,6,6,0,0,0,4.64-2,8.52,8.52,0,0,0,0-10.37,5.82,5.82,0,0,0-4.59-2,5.71,5.71,0,0,0-4.46,2A7.42,7.42,0,0,0,930,605.9Z"/><path class="cls-4" d="M953.93,594.79h5.19v2.07a8.44,8.44,0,0,1,6.11-2.69,7.74,7.74,0,0,1,6.08,2.45q1.88,2.1,1.88,6.82v13.7H968V604.66c0-2.2-.3-3.73-.92-4.57a3.67,3.67,0,0,0-3.25-1.28,4,4,0,0,0-3.65,1.69q-1.06,1.68-1.06,5.86v10.78h-5.19Z"/><path class="cls-4" d="M978.93,585.5a3.2,3.2,0,0,1,1-2.35,3.37,3.37,0,0,1,4.75,0,3.19,3.19,0,0,1,1,2.37,3.22,3.22,0,0,1-1,2.38,3.16,3.16,0,0,1-2.36,1,3.36,3.36,0,0,1-3.37-3.39Zm5.94,9.29v22.35h-5.16V594.79Z"/><path class="cls-4" d="M991.41,594.79h5.19v2.07a8.42,8.42,0,0,1,6.1-2.69,7.72,7.72,0,0,1,6.08,2.45q1.89,2.1,1.89,6.82v13.7h-5.19V604.66c0-2.2-.31-3.73-.92-4.57a3.69,3.69,0,0,0-3.26-1.28,4,4,0,0,0-3.65,1.69q-1,1.68-1,5.86v10.78h-5.19Z"/><path class="cls-4" d="M1038.8,616.61c0,1.06,0,2-.1,2.79a20.42,20.42,0,0,1-.29,2.13,9.49,9.49,0,0,1-2.16,4.33,10.43,10.43,0,0,1-8.33,3.49,11.07,11.07,0,0,1-7.36-2.41,9.86,9.86,0,0,1-3.45-6.86h5.19a5.91,5.91,0,0,0,1,2.55,5.54,5.54,0,0,0,4.68,2.08q5.67,0,5.67-7v-3.12a9.84,9.84,0,0,1-14.58-.16,12.29,12.29,0,0,1-2.93-8.38,12.87,12.87,0,0,1,2.73-8.3,9.49,9.49,0,0,1,7.76-3.63,9,9,0,0,1,7,3.14v-2.52h5.16Zm-5-10.6a7.54,7.54,0,0,0-1.74-5.21,5.77,5.77,0,0,0-4.52-2,5.56,5.56,0,0,0-4.64,2.18,9,9,0,0,0,0,10,5.59,5.59,0,0,0,4.64,2.13,5.67,5.67,0,0,0,4.68-2.16A7.64,7.64,0,0,0,1033.84,606Z"/><path class="cls-4" d="M1065.67,607.18h-16a6.74,6.74,0,0,0,1.79,4.39,5.45,5.45,0,0,0,4.06,1.6,5.24,5.24,0,0,0,3.19-.92,13.23,13.23,0,0,0,2.82-3.39l4.36,2.43a17.12,17.12,0,0,1-2.13,3,11.55,11.55,0,0,1-2.41,2,9.86,9.86,0,0,1-2.78,1.16,13.73,13.73,0,0,1-3.24.37,10.54,10.54,0,0,1-8-3.22,12.05,12.05,0,0,1-3-8.58,12.36,12.36,0,0,1,2.94-8.58,11.19,11.19,0,0,1,15.65-.1q2.85,3.12,2.85,8.66Zm-5.3-4.22c-.72-2.75-2.45-4.13-5.21-4.13a5.12,5.12,0,0,0-1.76.29,5,5,0,0,0-1.51.82,5.38,5.38,0,0,0-1.16,1.3A6.07,6.07,0,0,0,1050,603Z"/><path class="cls-4" d="M1071.32,594.79h5.19v2.07a8.42,8.42,0,0,1,6.1-2.69,7.72,7.72,0,0,1,6.08,2.45c1.26,1.4,1.88,3.67,1.88,6.82v13.7h-5.18V604.66c0-2.2-.31-3.73-.92-4.57a3.69,3.69,0,0,0-3.26-1.28,4,4,0,0,0-3.65,1.69q-1.05,1.68-1,5.86v10.78h-5.19Z"/><path class="cls-4" d="M1124.58,598.6l-4.26,2.27c-.68-1.38-1.51-2.06-2.51-2.06a1.67,1.67,0,0,0-1.21.47,1.55,1.55,0,0,0-.51,1.2c0,.86,1,1.71,3,2.55a17.83,17.83,0,0,1,5.53,3.26,5.55,5.55,0,0,1,1.42,4,7,7,0,0,1-2.39,5.42,8.1,8.1,0,0,1-5.6,2.07q-5.62,0-8-5.49l4.41-2a9.17,9.17,0,0,0,1.4,2,3.17,3.17,0,0,0,2.24.87c1.75,0,2.62-.79,2.62-2.38,0-.92-.67-1.78-2-2.58l-1.56-.75-1.58-.76a9.68,9.68,0,0,1-3.17-2.2,5.46,5.46,0,0,1-1.17-3.61,6.39,6.39,0,0,1,2-4.82,7,7,0,0,1,5-1.9Q1122.49,594.17,1124.58,598.6Z"/><path class="cls-4" d="M1136,599.61v17.53h-5.16V599.61h-2.21v-4.82h2.21V586.6H1136v8.19h4v4.82Z"/><path class="cls-4" d="M1142.78,605.8a11.1,11.1,0,0,1,3.47-8.23,12.21,12.21,0,0,1,16.93,0,12,12,0,0,1,0,16.82,11.85,11.85,0,0,1-8.56,3.38,11.33,11.33,0,0,1-8.42-3.45A11.55,11.55,0,0,1,1142.78,605.8Zm5.28.1a7.56,7.56,0,0,0,1.79,5.3,7,7,0,0,0,9.69,0,8.4,8.4,0,0,0,0-10.42,6.34,6.34,0,0,0-4.85-2,6.25,6.25,0,0,0-4.79,2A7.18,7.18,0,0,0,1148.06,605.9Z"/><path class="cls-4" d="M1177.25,629.3h-5.16V594.79h5.16v2.43a9.8,9.8,0,0,1,14.53.35,12.25,12.25,0,0,1,3,8.51,12.07,12.07,0,0,1-3,8.38,9.79,9.79,0,0,1-14.55.18Zm12.28-23.2a7.74,7.74,0,0,0-1.74-5.23,5.66,5.66,0,0,0-4.46-2,5.92,5.92,0,0,0-4.61,2A7.49,7.49,0,0,0,1177,606a7.67,7.67,0,0,0,1.77,5.19,5.79,5.79,0,0,0,4.59,2,5.58,5.58,0,0,0,4.43-2A7.34,7.34,0,0,0,1189.53,606.1Z"/><path class="cls-4" d="M1205.43,629.3h-5.16V594.79h5.16v2.43a9.8,9.8,0,0,1,14.53.35,12.25,12.25,0,0,1,3,8.51,12.07,12.07,0,0,1-3,8.38,9.79,9.79,0,0,1-14.55.18Zm12.28-23.2a7.74,7.74,0,0,0-1.74-5.23,5.66,5.66,0,0,0-4.46-2,5.92,5.92,0,0,0-4.61,2,7.49,7.49,0,0,0-1.77,5.19,7.67,7.67,0,0,0,1.77,5.19,5.79,5.79,0,0,0,4.59,2,5.58,5.58,0,0,0,4.43-2A7.34,7.34,0,0,0,1217.71,606.1Z"/><path class="cls-4" d="M1248.81,607.18h-16a6.79,6.79,0,0,0,1.79,4.39,5.45,5.45,0,0,0,4.06,1.6,5.22,5.22,0,0,0,3.19-.92,12.83,12.83,0,0,0,2.82-3.39l4.36,2.43a17.12,17.12,0,0,1-2.13,3,11.3,11.3,0,0,1-2.41,2,9.74,9.74,0,0,1-2.78,1.16,13.7,13.7,0,0,1-3.23.37,10.54,10.54,0,0,1-8-3.22,12.09,12.09,0,0,1-3-8.58,12.36,12.36,0,0,1,2.93-8.58,11.19,11.19,0,0,1,15.65-.1q2.85,3.12,2.85,8.66Zm-5.3-4.22a5,5,0,0,0-5.21-4.13,5.14,5.14,0,0,0-1.77.29,5.07,5.07,0,0,0-2.66,2.12,6.08,6.08,0,0,0-.74,1.72Z"/><path class="cls-4" d="M1267.44,598.6l-4.27,2.27c-.67-1.38-1.5-2.06-2.5-2.06a1.67,1.67,0,0,0-1.21.47,1.55,1.55,0,0,0-.51,1.2c0,.86,1,1.71,3,2.55a17.79,17.79,0,0,1,5.54,3.26,5.59,5.59,0,0,1,1.42,4,7,7,0,0,1-2.39,5.42,8.1,8.1,0,0,1-5.6,2.07q-5.62,0-8-5.49l4.4-2a9.45,9.45,0,0,0,1.41,2,3.17,3.17,0,0,0,2.24.87c1.75,0,2.62-.79,2.62-2.38,0-.92-.67-1.78-2-2.58l-1.56-.75-1.58-.76a9.68,9.68,0,0,1-3.17-2.2,5.46,5.46,0,0,1-1.17-3.61,6.35,6.35,0,0,1,2-4.82,7,7,0,0,1,5-1.9Q1265.35,594.17,1267.44,598.6Z"/><path class="cls-4" d="M1288,578.38h5.16v18.27a8.91,8.91,0,0,1,6.08-2.48,7.87,7.87,0,0,1,6.06,2.45q1.93,2.14,1.93,6.82v13.7h-5.17V603.92a6.28,6.28,0,0,0-.95-3.89,3.66,3.66,0,0,0-3.06-1.2,4.22,4.22,0,0,0-3.81,1.67q-1.08,1.71-1.08,5.83v10.81H1288Z"/><path class="cls-4" d="M1319,594.79v12.83q0,5.55,4.39,5.55t4.38-5.55V594.79h5.16v12.94a14.54,14.54,0,0,1-.66,4.64,7.76,7.76,0,0,1-2.23,3.14,10.82,10.82,0,0,1-13.29,0,7.87,7.87,0,0,1-2.27-3.14,12.78,12.78,0,0,1-.64-4.64V594.79Z"/><path class="cls-4" d="M1339.41,594.79h5.16v2a9.8,9.8,0,0,1,2.53-2,5.83,5.83,0,0,1,2.66-.57,8.34,8.34,0,0,1,4.27,1.33l-2.36,4.73a5,5,0,0,0-2.87-1.06q-4.23,0-4.23,6.38v11.59h-5.16Z"/><path class="cls-4" d="M1364,599.61v17.53h-5.16V599.61h-2.2v-4.82h2.2V586.6H1364v8.19h4v4.82Z"/><path class="cls-4" d="M1370.76,585.5a3.36,3.36,0,0,1,3.35-3.33,3.29,3.29,0,0,1,2.39,1,3.21,3.21,0,0,1,1,2.37,3.25,3.25,0,0,1-1,2.38,3.19,3.19,0,0,1-2.37,1,3.38,3.38,0,0,1-3.37-3.39Zm5.94,9.29v22.35h-5.16V594.79Z"/><path class="cls-4" d="M1404.86,616.61c0,1.06,0,2-.1,2.79a20.42,20.42,0,0,1-.29,2.13,9.49,9.49,0,0,1-2.16,4.33,10.43,10.43,0,0,1-8.33,3.49,11.07,11.07,0,0,1-7.36-2.41,9.86,9.86,0,0,1-3.45-6.86h5.19a5.91,5.91,0,0,0,1,2.55,5.54,5.54,0,0,0,4.68,2.08q5.67,0,5.67-7v-3.12a9.84,9.84,0,0,1-14.58-.16,12.29,12.29,0,0,1-2.93-8.38,12.87,12.87,0,0,1,2.73-8.3,9.49,9.49,0,0,1,7.76-3.63,9,9,0,0,1,7,3.14v-2.52h5.16Zm-5-10.6a7.54,7.54,0,0,0-1.74-5.21,5.77,5.77,0,0,0-4.52-2A5.56,5.56,0,0,0,1389,601a9,9,0,0,0,0,10,5.59,5.59,0,0,0,4.64,2.13,5.67,5.67,0,0,0,4.68-2.16A7.64,7.64,0,0,0,1399.9,606Z"/><path class="cls-4" d="M1416.7,599.61v17.53h-5.16V599.61h-2.2v-4.82h2.2V586.6h5.16v8.19h4v4.82Z"/><path class="cls-4" d="M1437.68,605.8a11.09,11.09,0,0,1,3.46-8.23,12.22,12.22,0,0,1,16.94,0,12,12,0,0,1,0,16.82,11.85,11.85,0,0,1-8.56,3.38,11.33,11.33,0,0,1-8.42-3.45A11.55,11.55,0,0,1,1437.68,605.8Zm5.28.1a7.51,7.51,0,0,0,1.79,5.3,7,7,0,0,0,9.68,0,8.37,8.37,0,0,0,0-10.42,6.88,6.88,0,0,0-9.64,0A7.22,7.22,0,0,0,1443,605.9Z"/><path class="cls-4" d="M1488.6,616.61c0,1.06,0,2-.1,2.79a18,18,0,0,1-.29,2.13,9.38,9.38,0,0,1-2.15,4.33,10.45,10.45,0,0,1-8.33,3.49,11.1,11.1,0,0,1-7.37-2.41,9.82,9.82,0,0,1-3.44-6.86h5.18a5.91,5.91,0,0,0,1,2.55,5.54,5.54,0,0,0,4.68,2.08q5.67,0,5.67-7v-3.12a9.63,9.63,0,0,1-7.09,3.15,9.52,9.52,0,0,1-7.48-3.31,12.24,12.24,0,0,1-2.94-8.38,12.87,12.87,0,0,1,2.73-8.3,9.5,9.5,0,0,1,7.76-3.63,9,9,0,0,1,7,3.14v-2.52h5.16Zm-4.95-10.6a7.55,7.55,0,0,0-1.75-5.21,5.76,5.76,0,0,0-4.52-2,5.53,5.53,0,0,0-4.63,2.18,9,9,0,0,0,0,10,5.55,5.55,0,0,0,4.63,2.13,5.65,5.65,0,0,0,4.68-2.16A7.64,7.64,0,0,0,1483.65,606Z"/><path class="cls-4" d="M461.86,655l-4.27,2.27c-.67-1.38-1.51-2.06-2.5-2.06a1.71,1.71,0,0,0-1.22.47,1.58,1.58,0,0,0-.5,1.2c0,.86,1,1.71,3,2.55a17.71,17.71,0,0,1,5.53,3.26,5.55,5.55,0,0,1,1.42,4,7,7,0,0,1-2.38,5.42,8.11,8.11,0,0,1-5.6,2.06q-5.62,0-8-5.48l4.4-2a9.53,9.53,0,0,0,1.4,2,3.21,3.21,0,0,0,2.25.87c1.74,0,2.62-.79,2.62-2.38,0-.92-.68-1.78-2-2.57-.52-.26-1-.52-1.56-.76l-1.59-.76a9.62,9.62,0,0,1-3.16-2.2,5.46,5.46,0,0,1-1.17-3.61,6.38,6.38,0,0,1,2-4.82,7.05,7.05,0,0,1,5-1.9Q459.77,650.57,461.86,655Z"/><path class="cls-4" d="M484.42,651.19h5.18v22.35h-5.18V671.2a9.92,9.92,0,0,1-14.53-.37,12.47,12.47,0,0,1-3-8.53,12.1,12.1,0,0,1,3-8.38,9.71,9.71,0,0,1,7.53-3.35,9.52,9.52,0,0,1,7,3.21ZM472.16,662.3a7.83,7.83,0,0,0,1.72,5.23,5.66,5.66,0,0,0,4.46,2,5.94,5.94,0,0,0,4.63-2,8.49,8.49,0,0,0,0-10.38,5.85,5.85,0,0,0-4.59-2,5.69,5.69,0,0,0-4.45,2A7.43,7.43,0,0,0,472.16,662.3Z"/><path class="cls-4" d="M517.74,673c0,1.06,0,2-.1,2.79a20.42,20.42,0,0,1-.29,2.13,9.49,9.49,0,0,1-2.16,4.33,10.43,10.43,0,0,1-8.33,3.49,11.07,11.07,0,0,1-7.36-2.41,9.86,9.86,0,0,1-3.45-6.86h5.19a5.91,5.91,0,0,0,1,2.55,5.55,5.55,0,0,0,4.68,2.09q5.67,0,5.67-7V671a9.86,9.86,0,0,1-14.58-.16,12.24,12.24,0,0,1-2.93-8.38,12.87,12.87,0,0,1,2.73-8.3,9.48,9.48,0,0,1,7.75-3.63,9,9,0,0,1,7,3.14v-2.52h5.16Zm-5-10.6A7.54,7.54,0,0,0,511,657.2a5.77,5.77,0,0,0-4.52-2,5.54,5.54,0,0,0-4.64,2.18,9,9,0,0,0,0,10.05,5.57,5.57,0,0,0,4.64,2.13,5.67,5.67,0,0,0,4.68-2.16A7.64,7.64,0,0,0,512.78,662.41Z"/><path class="cls-4" d="M544.61,663.58h-16a6.75,6.75,0,0,0,1.8,4.38,5.4,5.4,0,0,0,4.06,1.61,5.24,5.24,0,0,0,3.19-.92,13.23,13.23,0,0,0,2.82-3.39l4.36,2.43a17.12,17.12,0,0,1-2.13,2.95,11.55,11.55,0,0,1-2.41,2,9.86,9.86,0,0,1-2.78,1.16,13.8,13.8,0,0,1-3.24.36,10.53,10.53,0,0,1-8-3.21,12.05,12.05,0,0,1-3-8.58,12.35,12.35,0,0,1,2.94-8.58,11.19,11.19,0,0,1,15.65-.1q2.85,3.12,2.85,8.66Zm-5.3-4.22c-.72-2.75-2.45-4.13-5.21-4.13a5.12,5.12,0,0,0-1.76.29,5,5,0,0,0-1.51.82,5.38,5.38,0,0,0-1.16,1.3,6.07,6.07,0,0,0-.73,1.72Z"/><path class="cls-4" d="M550.26,651.19h5.19v2.06a8.45,8.45,0,0,1,6.1-2.68,7.7,7.7,0,0,1,6.08,2.46c1.26,1.39,1.88,3.66,1.88,6.81v13.7h-5.18V661.06c0-2.21-.31-3.73-.92-4.57a3.69,3.69,0,0,0-3.26-1.28,4,4,0,0,0-3.65,1.69q-1.05,1.68-1,5.86v10.78h-5.19Z"/><path class="cls-4" d="M595.7,634.78v23.64l7.27-7.23h6.93l-9.7,9.39,10.42,13h-6.71l-7.39-9.43-.82.83v8.6h-5.17V634.78Z"/><path class="cls-4" d="M629.62,651.19h5.18v22.35h-5.18V671.2a9.92,9.92,0,0,1-14.53-.37,12.47,12.47,0,0,1-3-8.53,12.1,12.1,0,0,1,3-8.38,9.69,9.69,0,0,1,7.53-3.35,9.52,9.52,0,0,1,7,3.21ZM617.36,662.3a7.83,7.83,0,0,0,1.72,5.23,5.66,5.66,0,0,0,4.46,2,5.94,5.94,0,0,0,4.63-2,8.49,8.49,0,0,0,0-10.38,5.85,5.85,0,0,0-4.59-2,5.69,5.69,0,0,0-4.45,2A7.43,7.43,0,0,0,617.36,662.3Z"/><path class="cls-4" d="M641.32,651.19h5.19v2.06a8.45,8.45,0,0,1,6.1-2.68,7.7,7.7,0,0,1,6.08,2.46q1.89,2.09,1.89,6.81v13.7h-5.19V661.06c0-2.21-.31-3.73-.92-4.57s-1.68-1.28-3.26-1.28a4,4,0,0,0-3.65,1.69q-1,1.68-1,5.86v10.78h-5.19Z"/><path class="cls-4" d="M686.76,634.78v19a9.54,9.54,0,0,1,7-3.21,9.65,9.65,0,0,1,7.53,3.37,12.09,12.09,0,0,1,3,8.36,12.28,12.28,0,0,1-3,8.53,9.76,9.76,0,0,1-7.6,3.35,9.65,9.65,0,0,1-6.93-3v2.34H681.6V634.78ZM699,662.53a7.7,7.7,0,0,0-1.75-5.24,5.58,5.58,0,0,0-4.42-2.06,5.94,5.94,0,0,0-4.64,2,8.5,8.5,0,0,0,0,10.36,5.79,5.79,0,0,0,4.59,2,5.69,5.69,0,0,0,4.45-2A7.36,7.36,0,0,0,699,662.53Z"/><path class="cls-4" d="M714.94,634.78v38.76h-5.16V634.78Z"/><path class="cls-4" d="M720.7,641.89a3.2,3.2,0,0,1,1-2.34,3.24,3.24,0,0,1,2.36-1,3.29,3.29,0,0,1,2.39,1,3.19,3.19,0,0,1,1,2.37,3.22,3.22,0,0,1-1,2.38,3.17,3.17,0,0,1-2.37,1,3.38,3.38,0,0,1-3.37-3.4Zm5.94,9.3v22.35h-5.16V651.19Z"/><path class="cls-4" d="M736,651.19l5.79,12.55,5.76-12.55h5.8L741.7,675.08l-11.52-23.89Z"/><path class="cls-4" d="M776.35,663.58h-16a6.75,6.75,0,0,0,1.8,4.38,5.42,5.42,0,0,0,4.06,1.61,5.24,5.24,0,0,0,3.19-.92,13.23,13.23,0,0,0,2.82-3.39l4.36,2.43a17.12,17.12,0,0,1-2.13,2.95,11.55,11.55,0,0,1-2.41,2,9.86,9.86,0,0,1-2.78,1.16,13.74,13.74,0,0,1-3.24.36,10.53,10.53,0,0,1-8-3.21,12.05,12.05,0,0,1-3-8.58,12.35,12.35,0,0,1,2.94-8.58,11.19,11.19,0,0,1,15.65-.1q2.85,3.12,2.85,8.66Zm-5.3-4.22c-.72-2.75-2.45-4.13-5.21-4.13a5.12,5.12,0,0,0-1.76.29,5,5,0,0,0-1.51.82,5.38,5.38,0,0,0-1.16,1.3,6.07,6.07,0,0,0-.73,1.72Z"/><path class="cls-4" d="M796.5,634.78h5.17v18.27a8.89,8.89,0,0,1,6.08-2.48,7.87,7.87,0,0,1,6.06,2.46c1.28,1.42,1.93,3.69,1.93,6.81v13.7h-5.17V660.32a6.35,6.35,0,0,0-1-3.89,3.69,3.69,0,0,0-3.06-1.2,4.22,4.22,0,0,0-3.81,1.67q-1.08,1.71-1.08,5.83v10.81H796.5Z"/><path class="cls-4" d="M838.75,651.19h5.19v22.35h-5.19V671.2a9.91,9.91,0,0,1-14.52-.37,12.42,12.42,0,0,1-3-8.53,12.06,12.06,0,0,1,3-8.38,9.69,9.69,0,0,1,7.52-3.35,9.5,9.5,0,0,1,7,3.21ZM826.5,662.3a7.78,7.78,0,0,0,1.72,5.23,5.64,5.64,0,0,0,4.45,2,6,6,0,0,0,4.64-2,8.53,8.53,0,0,0,0-10.38,5.85,5.85,0,0,0-4.59-2,5.71,5.71,0,0,0-4.46,2A7.47,7.47,0,0,0,826.5,662.3Zm1.76-19.62a4.69,4.69,0,0,1,1.47-3.47,5,5,0,1,1,7,7.07,4.73,4.73,0,0,1-3.51,1.47,4.85,4.85,0,0,1-3.56-1.47A5,5,0,0,1,828.26,642.68Zm2.74,0a2.28,2.28,0,1,0,2.27-2.25,2.11,2.11,0,0,0-.9.19,2.36,2.36,0,0,0-.72.49,2.16,2.16,0,0,0-.48.72A2.12,2.12,0,0,0,831,642.72Z"/><path class="cls-4" d="M850.46,651.19h5.18v2.06a8.47,8.47,0,0,1,6.11-2.68,7.7,7.7,0,0,1,6.08,2.46q1.88,2.09,1.88,6.81v13.7h-5.19V661.06c0-2.21-.3-3.73-.91-4.57a3.71,3.71,0,0,0-3.26-1.28,4,4,0,0,0-3.65,1.69c-.7,1.12-1.06,3.07-1.06,5.86v10.78h-5.18Z"/><path class="cls-4" d="M892.71,634.78h5.18v38.76h-5.18V671.2a9.64,9.64,0,0,1-6.91,3,9.82,9.82,0,0,1-7.62-3.35,12.42,12.42,0,0,1-3-8.53,12,12,0,0,1,3-8.36,9.67,9.67,0,0,1,14.53-.16ZM880.45,662.3a7.78,7.78,0,0,0,1.72,5.23,5.64,5.64,0,0,0,4.45,2,5.94,5.94,0,0,0,4.64-2,8.49,8.49,0,0,0,0-10.38,5.85,5.85,0,0,0-4.59-2,5.69,5.69,0,0,0-4.45,2A7.43,7.43,0,0,0,880.45,662.3Z"/><path class="cls-4" d="M909.73,656v17.53h-5.16V656h-2.2v-4.82h2.2V643h5.16v8.19h4V656Z"/><path class="cls-4" d="M938,663.58H922A6.8,6.8,0,0,0,923.8,668a5.43,5.43,0,0,0,4.06,1.61,5.22,5.22,0,0,0,3.19-.92,13,13,0,0,0,2.83-3.39l4.36,2.43a17.69,17.69,0,0,1-2.14,2.95,11.3,11.3,0,0,1-2.41,2,9.68,9.68,0,0,1-2.77,1.16,13.86,13.86,0,0,1-3.24.36,10.52,10.52,0,0,1-8-3.21,12.05,12.05,0,0,1-3-8.58,12.35,12.35,0,0,1,2.94-8.58,11.19,11.19,0,0,1,15.65-.1q2.84,3.12,2.84,8.66Zm-5.3-4.22a5,5,0,0,0-5.21-4.13,5.14,5.14,0,0,0-1.77.29,5,5,0,0,0-1.5.82,5.18,5.18,0,0,0-1.16,1.3,5.8,5.8,0,0,0-.73,1.72Z"/><path class="cls-4" d="M943.68,651.19h5.16v2a9.8,9.8,0,0,1,2.53-2.05,5.77,5.77,0,0,1,2.66-.57,8.28,8.28,0,0,1,4.26,1.33l-2.36,4.73a4.88,4.88,0,0,0-2.87-1.06q-4.21,0-4.22,6.38v11.59h-5.16Z"/><path class="cls-4" d="M981.29,663.58h-16a6.8,6.8,0,0,0,1.79,4.38,5.43,5.43,0,0,0,4.06,1.61,5.22,5.22,0,0,0,3.19-.92,13,13,0,0,0,2.83-3.39l4.36,2.43a17.69,17.69,0,0,1-2.14,2.95,11.3,11.3,0,0,1-2.41,2,9.68,9.68,0,0,1-2.77,1.16,13.86,13.86,0,0,1-3.24.36,10.52,10.52,0,0,1-8-3.21,12.05,12.05,0,0,1-3-8.58,12.35,12.35,0,0,1,2.94-8.58,11.19,11.19,0,0,1,15.65-.1q2.84,3.12,2.84,8.66Zm-5.3-4.22a5,5,0,0,0-5.21-4.13,5.14,5.14,0,0,0-1.77.29,5,5,0,0,0-1.5.82,5.18,5.18,0,0,0-1.16,1.3,5.8,5.8,0,0,0-.73,1.72Z"/><path class="cls-4" d="M992.67,656v17.53h-5.16V656h-2.2v-4.82h2.2V643h5.16v8.19h4V656Z"/><path class="cls-4" d="M1013.65,662.21a11.1,11.1,0,0,1,3.46-8.24,12.22,12.22,0,0,1,16.94,0,12,12,0,0,1,0,16.82,11.85,11.85,0,0,1-8.56,3.37,11.36,11.36,0,0,1-8.43-3.44A11.58,11.58,0,0,1,1013.65,662.21Zm5.28.09a7.51,7.51,0,0,0,1.79,5.3,7,7,0,0,0,9.68,0,8.4,8.4,0,0,0,0-10.42,6.88,6.88,0,0,0-9.64,0A7.22,7.22,0,0,0,1018.93,662.3Z"/><path class="cls-4" d="M1043,651.19h5.17v2a10,10,0,0,1,2.52-2.05,5.83,5.83,0,0,1,2.66-.57,8.28,8.28,0,0,1,4.27,1.33l-2.36,4.73a4.91,4.91,0,0,0-2.87-1.06q-4.21,0-4.22,6.38v11.59H1043Z"/><path class="cls-4" d="M1076.69,634.78h5.19v38.76h-5.19V671.2a9.64,9.64,0,0,1-6.91,3,9.82,9.82,0,0,1-7.62-3.35,12.46,12.46,0,0,1-3-8.53,12.08,12.08,0,0,1,3-8.36,9.66,9.66,0,0,1,14.53-.16Zm-12.26,27.52a7.78,7.78,0,0,0,1.73,5.23,5.62,5.62,0,0,0,4.45,2,5.92,5.92,0,0,0,4.63-2,8.49,8.49,0,0,0,0-10.38,5.82,5.82,0,0,0-4.59-2,5.69,5.69,0,0,0-4.45,2A7.43,7.43,0,0,0,1064.43,662.3Z"/><path class="cls-4" d="M1108.75,663.58h-16a6.75,6.75,0,0,0,1.79,4.38,5.43,5.43,0,0,0,4.06,1.61,5.22,5.22,0,0,0,3.19-.92,13,13,0,0,0,2.83-3.39l4.36,2.43a17.69,17.69,0,0,1-2.14,2.95,11.3,11.3,0,0,1-2.41,2,9.74,9.74,0,0,1-2.78,1.16,13.71,13.71,0,0,1-3.23.36,10.52,10.52,0,0,1-8-3.21,12.05,12.05,0,0,1-3-8.58,12.35,12.35,0,0,1,2.94-8.58,11.19,11.19,0,0,1,15.65-.1q2.83,3.12,2.84,8.66Zm-5.3-4.22a5,5,0,0,0-5.21-4.13,5.14,5.14,0,0,0-1.77.29,5,5,0,0,0-1.5.82,5.18,5.18,0,0,0-1.16,1.3,5.8,5.8,0,0,0-.73,1.72Z"/><path class="cls-4" d="M1114.39,651.19h5.19v2.06a8.47,8.47,0,0,1,6.11-2.68,7.71,7.71,0,0,1,6.08,2.46q1.88,2.09,1.88,6.81v13.7h-5.19V661.06c0-2.21-.3-3.73-.92-4.57a3.67,3.67,0,0,0-3.25-1.28,4,4,0,0,0-3.65,1.69q-1.07,1.68-1.06,5.86v10.78h-5.19Z"/><path class="cls-4" d="M1145.49,656v17.53h-5.16V656h-2.21v-4.82h2.21V643h5.16v8.19h4V656Z"/><path class="cls-4" d="M1158.18,634.78v38.76H1153V634.78Z"/><path class="cls-4" d="M1163.94,641.89a3.2,3.2,0,0,1,1-2.34,3.24,3.24,0,0,1,2.36-1,3.29,3.29,0,0,1,2.39,1,3.19,3.19,0,0,1,1,2.37,3.22,3.22,0,0,1-1,2.38,3.17,3.17,0,0,1-2.37,1,3.38,3.38,0,0,1-3.37-3.4Zm5.94,9.3v22.35h-5.16V651.19Z"/><path class="cls-4" d="M1198,673c0,1.06,0,2-.1,2.79a18,18,0,0,1-.29,2.13,9.38,9.38,0,0,1-2.15,4.33,10.45,10.45,0,0,1-8.33,3.49,11.1,11.1,0,0,1-7.37-2.41,9.82,9.82,0,0,1-3.44-6.86h5.18a5.91,5.91,0,0,0,1,2.55,5.55,5.55,0,0,0,4.68,2.09q5.67,0,5.67-7V671a9.62,9.62,0,0,1-7.09,3.14,9.51,9.51,0,0,1-7.48-3.3,12.24,12.24,0,0,1-2.94-8.38,12.87,12.87,0,0,1,2.73-8.3,9.5,9.5,0,0,1,7.76-3.63,9,9,0,0,1,7,3.14v-2.52H1198Zm-5-10.6a7.55,7.55,0,0,0-1.75-5.21,5.76,5.76,0,0,0-4.52-2,5.53,5.53,0,0,0-4.63,2.18,9,9,0,0,0,0,10.05,5.55,5.55,0,0,0,4.63,2.13,5.65,5.65,0,0,0,4.68-2.16A7.64,7.64,0,0,0,1193.09,662.41Z"/><path class="cls-4" d="M1209.89,656v17.53h-5.17V656h-2.2v-4.82h2.2V643h5.17v8.19h4V656Z"/><path class="cls-4" d="M1244.91,655l-4.27,2.27c-.68-1.38-1.51-2.06-2.5-2.06a1.7,1.7,0,0,0-1.22.47,1.54,1.54,0,0,0-.5,1.2c0,.86,1,1.71,3,2.55a17.71,17.71,0,0,1,5.53,3.26,5.55,5.55,0,0,1,1.42,4,7,7,0,0,1-2.39,5.42,8.09,8.09,0,0,1-5.59,2.06q-5.62,0-8-5.48l4.41-2a9.53,9.53,0,0,0,1.4,2,3.21,3.21,0,0,0,2.25.87c1.74,0,2.61-.79,2.61-2.38,0-.92-.67-1.78-2-2.57-.52-.26-1-.52-1.56-.76l-1.58-.76a9.68,9.68,0,0,1-3.17-2.2,5.46,5.46,0,0,1-1.17-3.61,6.39,6.39,0,0,1,2-4.82,7,7,0,0,1,5-1.9C1241.39,650.57,1243.51,652.05,1244.91,655Z"/><path class="cls-4" d="M1267.47,651.19h5.18v22.35h-5.18V671.2a9.93,9.93,0,0,1-14.53-.37,12.42,12.42,0,0,1-3-8.53,12.06,12.06,0,0,1,3-8.38,9.69,9.69,0,0,1,7.53-3.35,9.52,9.52,0,0,1,7,3.21Zm-12.26,11.11a7.78,7.78,0,0,0,1.72,5.23,5.64,5.64,0,0,0,4.45,2,5.94,5.94,0,0,0,4.64-2,8.49,8.49,0,0,0,0-10.38,5.85,5.85,0,0,0-4.59-2,5.69,5.69,0,0,0-4.45,2A7.43,7.43,0,0,0,1255.21,662.3Zm1.77-19.62a4.69,4.69,0,0,1,1.47-3.47,5,5,0,1,1,7,7.07,4.73,4.73,0,0,1-3.51,1.47,4.85,4.85,0,0,1-3.56-1.47A5,5,0,0,1,1257,642.68Zm2.73,0a2.23,2.23,0,0,0,.65,1.64,2.32,2.32,0,0,0,3.24,0,2.33,2.33,0,0,0,0-3.23,2.2,2.2,0,0,0-1.62-.66,2,2,0,0,0-.89.19,2.29,2.29,0,0,0-.73.49,2.52,2.52,0,0,0-.48.72A2.3,2.3,0,0,0,1259.71,642.72Z"/><path class="cls-4" d="M1310.15,634.78h5.19v38.76h-5.19V671.2a9.62,9.62,0,0,1-6.91,3,9.82,9.82,0,0,1-7.62-3.35,12.46,12.46,0,0,1-3-8.53,12.08,12.08,0,0,1,3-8.36,9.66,9.66,0,0,1,14.53-.16ZM1297.9,662.3a7.78,7.78,0,0,0,1.72,5.23,5.64,5.64,0,0,0,4.45,2,6,6,0,0,0,4.64-2,8.53,8.53,0,0,0,0-10.38,5.85,5.85,0,0,0-4.59-2,5.71,5.71,0,0,0-4.46,2A7.47,7.47,0,0,0,1297.9,662.3Z"/><path class="cls-4" d="M1327,651.19V664q0,5.55,4.38,5.55c2.92,0,4.39-1.85,4.39-5.55V651.19H1341v12.94a14.25,14.25,0,0,1-.67,4.64,7.73,7.73,0,0,1-2.22,3.14,10.86,10.86,0,0,1-13.29,0,7.87,7.87,0,0,1-2.27-3.14,12.78,12.78,0,0,1-.64-4.64V651.19Z"/><path class="cls-4" d="M1361.19,641.89a3.36,3.36,0,0,1,3.35-3.32,3.29,3.29,0,0,1,2.39,1,3.22,3.22,0,0,1,1,2.37,3.26,3.26,0,0,1-1,2.38,3.17,3.17,0,0,1-2.37,1,3.22,3.22,0,0,1-2.38-1A3.26,3.26,0,0,1,1361.19,641.89Zm5.94,9.3v22.35H1362V651.19Z"/><path class="cls-4" d="M1378.84,634.78v23.64l7.27-7.23H1393l-9.7,9.39,10.42,13h-6.71l-7.39-9.43-.82.83v8.6h-5.17V634.78Z"/><path class="cls-4" d="M1402.25,634.78v23.64l7.27-7.23h6.93l-9.71,9.39,10.42,13h-6.7l-7.39-9.43-.82.83v8.6h-5.17V634.78Z"/><path class="cls-4" d="M1440.09,663.58h-16a6.75,6.75,0,0,0,1.79,4.38,5.43,5.43,0,0,0,4.06,1.61,5.22,5.22,0,0,0,3.19-.92,13,13,0,0,0,2.83-3.39l4.36,2.43a17.69,17.69,0,0,1-2.14,2.95,11.3,11.3,0,0,1-2.41,2,9.74,9.74,0,0,1-2.78,1.16,13.71,13.71,0,0,1-3.23.36,10.52,10.52,0,0,1-8-3.21,12.05,12.05,0,0,1-3-8.58,12.35,12.35,0,0,1,2.94-8.58,11.19,11.19,0,0,1,15.65-.1q2.84,3.12,2.84,8.66Zm-5.3-4.22a5,5,0,0,0-5.21-4.13,5.14,5.14,0,0,0-1.77.29,5,5,0,0,0-1.5.82,5.18,5.18,0,0,0-1.16,1.3,5.8,5.8,0,0,0-.73,1.72Z"/><path class="cls-4" d="M469.23,720h-16a6.79,6.79,0,0,0,1.79,4.39,5.45,5.45,0,0,0,4.06,1.6,5.24,5.24,0,0,0,3.19-.92,12.83,12.83,0,0,0,2.82-3.39l4.36,2.43A17.12,17.12,0,0,1,467.3,727a11.3,11.3,0,0,1-2.41,2,9.74,9.74,0,0,1-2.78,1.16,13.71,13.71,0,0,1-3.23.36,10.54,10.54,0,0,1-8-3.21,12.05,12.05,0,0,1-3-8.58,12.35,12.35,0,0,1,2.94-8.58,11.19,11.19,0,0,1,15.65-.1c1.9,2.09,2.85,5,2.85,8.66Zm-5.31-4.22a4.94,4.94,0,0,0-5.21-4.13,5.12,5.12,0,0,0-1.76.29,5.07,5.07,0,0,0-2.66,2.12,5.81,5.81,0,0,0-.74,1.72Z"/><path class="cls-4" d="M474.87,707.59h5.19v2.07a8.46,8.46,0,0,1,6.1-2.69,7.7,7.7,0,0,1,6.08,2.46q1.89,2.09,1.89,6.81v13.7h-5.19V717.46c0-2.21-.31-3.73-.92-4.57a3.71,3.71,0,0,0-3.26-1.28,4,4,0,0,0-3.65,1.69q-1,1.68-1.05,5.86v10.78h-5.19Z"/><path class="cls-4" d="M517.12,691.18h5.19v38.76h-5.19V727.6a9.62,9.62,0,0,1-6.91,3,9.82,9.82,0,0,1-7.62-3.35,12.44,12.44,0,0,1-3-8.53,12.08,12.08,0,0,1,3-8.36,9.66,9.66,0,0,1,14.53-.16ZM504.87,718.7a7.78,7.78,0,0,0,1.72,5.23,5.64,5.64,0,0,0,4.45,2,6,6,0,0,0,4.64-2,8.53,8.53,0,0,0,0-10.38,5.85,5.85,0,0,0-4.59-2,5.71,5.71,0,0,0-4.46,2A7.47,7.47,0,0,0,504.87,718.7Z"/><path class="cls-4" d="M549.18,720h-16a6.85,6.85,0,0,0,1.79,4.39A5.46,5.46,0,0,0,539,726a5.27,5.27,0,0,0,3.2-.92,13.23,13.23,0,0,0,2.82-3.39l4.36,2.43a17.69,17.69,0,0,1-2.14,2.95,11.3,11.3,0,0,1-2.41,2,9.68,9.68,0,0,1-2.77,1.16,13.86,13.86,0,0,1-3.24.36,10.53,10.53,0,0,1-8-3.21,12.05,12.05,0,0,1-3-8.58,12.35,12.35,0,0,1,2.94-8.58,11.19,11.19,0,0,1,15.65-.1c1.89,2.09,2.84,5,2.84,8.66Zm-5.3-4.22a5,5,0,0,0-5.21-4.13,5.14,5.14,0,0,0-1.77.29,5,5,0,0,0-1.5.82,5.18,5.18,0,0,0-1.16,1.3,5.8,5.8,0,0,0-.73,1.72Z"/><path class="cls-4" d="M554.83,707.59H560v2a9.8,9.8,0,0,1,2.53-2.05,5.77,5.77,0,0,1,2.66-.57,8.34,8.34,0,0,1,4.27,1.33L567.08,713a5,5,0,0,0-2.87-1.06q-4.22,0-4.22,6.38v11.59h-5.16Z"/><path class="cls-4" d="M586.91,707.59h5.16v2.07a11.15,11.15,0,0,1,2.55-2.12,6.21,6.21,0,0,1,2.82-.57,6.84,6.84,0,0,1,6,3.31A7.74,7.74,0,0,1,610,707q7.54,0,7.55,9.16v13.81h-5.19V717.53a9.59,9.59,0,0,0-.78-4.55,2.82,2.82,0,0,0-2.64-1.35,3.36,3.36,0,0,0-3.11,1.61,10.34,10.34,0,0,0-1,5.16v11.54h-5.19V717.6c0-4-1.14-6-3.44-6a3.45,3.45,0,0,0-3.18,1.63,10.2,10.2,0,0,0-1,5.14v11.54h-5.16Z"/><path class="cls-4" d="M644.44,720h-16a6.8,6.8,0,0,0,1.8,4.39,5.43,5.43,0,0,0,4.06,1.6,5.24,5.24,0,0,0,3.19-.92,13.23,13.23,0,0,0,2.82-3.39l4.36,2.43a17.12,17.12,0,0,1-2.13,2.95,11.55,11.55,0,0,1-2.41,2,9.86,9.86,0,0,1-2.78,1.16,13.8,13.8,0,0,1-3.24.36,10.53,10.53,0,0,1-8-3.21,12.05,12.05,0,0,1-3-8.58,12.35,12.35,0,0,1,2.94-8.58,11.19,11.19,0,0,1,15.65-.1c1.9,2.09,2.85,5,2.85,8.66Zm-5.3-4.22c-.72-2.75-2.45-4.13-5.21-4.13a5.12,5.12,0,0,0-1.76.29,5,5,0,0,0-1.51.82,5.38,5.38,0,0,0-1.16,1.3,6.07,6.07,0,0,0-.73,1.72Z"/><path class="cls-4" d="M666.57,691.18h5.18v38.76h-5.18V727.6a9.64,9.64,0,0,1-6.91,3,9.82,9.82,0,0,1-7.62-3.35,12.45,12.45,0,0,1-3-8.53,12.09,12.09,0,0,1,3-8.36,9.67,9.67,0,0,1,14.53-.16ZM654.31,718.7a7.78,7.78,0,0,0,1.72,5.23,5.65,5.65,0,0,0,4.45,2,5.94,5.94,0,0,0,4.64-2,8.49,8.49,0,0,0,0-10.38,5.85,5.85,0,0,0-4.59-2,5.69,5.69,0,0,0-4.45,2A7.43,7.43,0,0,0,654.31,718.7Z"/><path class="cls-4" d="M709.25,707.59h5.19v22.35h-5.19V727.6a9.92,9.92,0,0,1-14.53-.37,12.44,12.44,0,0,1-3-8.53,12.1,12.1,0,0,1,3-8.38,9.72,9.72,0,0,1,7.53-3.35,9.5,9.5,0,0,1,7,3.21ZM697,718.7a7.78,7.78,0,0,0,1.72,5.23,5.64,5.64,0,0,0,4.45,2,6,6,0,0,0,4.64-2,8.53,8.53,0,0,0,0-10.38,5.85,5.85,0,0,0-4.59-2,5.71,5.71,0,0,0-4.46,2A7.47,7.47,0,0,0,697,718.7Z"/><path class="cls-4" d="M726.28,712.41v17.53h-5.16V712.41h-2.21v-4.82h2.21V699.4h5.16v8.19h4v4.82Z"/><path class="cls-4" d="M753.47,691.18v19a9.55,9.55,0,0,1,7-3.21,9.68,9.68,0,0,1,7.53,3.37,12.08,12.08,0,0,1,3,8.36,12.27,12.27,0,0,1-3,8.53,9.93,9.93,0,0,1-14.53.37v2.34h-5.16V691.18Zm12.28,27.75a7.76,7.76,0,0,0-1.74-5.24,5.62,5.62,0,0,0-4.43-2.06,6,6,0,0,0-4.64,2,8.54,8.54,0,0,0,0,10.36,5.79,5.79,0,0,0,4.59,2,5.69,5.69,0,0,0,4.45-2A7.31,7.31,0,0,0,765.75,718.93Z"/><path class="cls-4" d="M781.66,691.18v38.76h-5.17V691.18Z"/><path class="cls-4" d="M787.42,698.29a3.19,3.19,0,0,1,1-2.33,3.34,3.34,0,0,1,4.75,0,3.15,3.15,0,0,1,1,2.36,3.26,3.26,0,0,1-1,2.39,3.19,3.19,0,0,1-2.36,1,3.29,3.29,0,0,1-2.39-1A3.33,3.33,0,0,1,787.42,698.29Zm5.94,9.3v22.35H788.2V707.59Z"/><path class="cls-4" d="M802.68,707.59l5.78,12.55,5.76-12.55H820l-11.61,23.89-11.53-23.89Z"/><path class="cls-4" d="M843.07,720h-16a6.85,6.85,0,0,0,1.79,4.39,5.46,5.46,0,0,0,4.06,1.6,5.22,5.22,0,0,0,3.19-.92,13,13,0,0,0,2.83-3.39l4.36,2.43a17.69,17.69,0,0,1-2.14,2.95,11.3,11.3,0,0,1-2.41,2,9.68,9.68,0,0,1-2.77,1.16,13.86,13.86,0,0,1-3.24.36,10.52,10.52,0,0,1-8-3.21,12.05,12.05,0,0,1-3-8.58,12.35,12.35,0,0,1,2.94-8.58,11.19,11.19,0,0,1,15.65-.1c1.89,2.09,2.84,5,2.84,8.66Zm-5.3-4.22a5,5,0,0,0-5.21-4.13,5.14,5.14,0,0,0-1.77.29,5,5,0,0,0-1.5.82,5.18,5.18,0,0,0-1.16,1.3,5.8,5.8,0,0,0-.73,1.72Z"/><path class="cls-4" d="M876.21,711.4l-4.27,2.27c-.67-1.38-1.51-2.06-2.5-2.06a1.7,1.7,0,0,0-1.22.47,1.58,1.58,0,0,0-.5,1.2c0,.86,1,1.71,3,2.55a17.71,17.71,0,0,1,5.53,3.26,5.55,5.55,0,0,1,1.42,4,7,7,0,0,1-2.38,5.42,8.11,8.11,0,0,1-5.6,2.06q-5.62,0-8-5.48l4.4-2a9.53,9.53,0,0,0,1.4,2,3.21,3.21,0,0,0,2.25.87c1.74,0,2.62-.79,2.62-2.38,0-.92-.68-1.78-2-2.57-.52-.26-1-.52-1.56-.76l-1.59-.76a9.62,9.62,0,0,1-3.16-2.2,5.46,5.46,0,0,1-1.17-3.61,6.34,6.34,0,0,1,2-4.81,7,7,0,0,1,5-1.91Q874.12,707,876.21,711.4Z"/><path class="cls-4" d="M887.61,712.41v17.53h-5.16V712.41h-2.2v-4.82h2.2V699.4h5.16v8.19h4v4.82Z"/><path class="cls-4" d="M895.14,707.59h5.16v2a10,10,0,0,1,2.53-2.05,5.83,5.83,0,0,1,2.66-.57,8.31,8.31,0,0,1,4.27,1.33L907.4,713a5,5,0,0,0-2.87-1.06q-4.23,0-4.23,6.38v11.59h-5.16Z"/><path class="cls-4" d="M928.88,707.59h5.18v22.35h-5.18V727.6a9.92,9.92,0,0,1-14.53-.37,12.45,12.45,0,0,1-3-8.53,12.1,12.1,0,0,1,3-8.38,9.69,9.69,0,0,1,7.53-3.35,9.52,9.52,0,0,1,7,3.21ZM916.62,718.7a7.83,7.83,0,0,0,1.72,5.23,5.65,5.65,0,0,0,4.45,2,5.94,5.94,0,0,0,4.64-2,8.49,8.49,0,0,0,0-10.38,5.85,5.85,0,0,0-4.59-2,5.69,5.69,0,0,0-4.45,2A7.43,7.43,0,0,0,916.62,718.7Z"/><path class="cls-4" d="M945.93,712.41v17.53h-5.19V712.41h-1.83v-4.82h1.83V699q0-4.22,1.47-6a7.22,7.22,0,0,1,5.88-2.43,10,10,0,0,1,3.46.81v5.27l-.53-.27a6.39,6.39,0,0,0-2.75-.85,1.87,1.87,0,0,0-1.86,1,9.5,9.5,0,0,0-.48,3.71v7.37h5.62v4.82Z"/><path class="cls-4" d="M961.44,712.41v17.53h-5.18V712.41h-1.84v-4.82h1.84V699q0-4.22,1.46-6a7.22,7.22,0,0,1,5.88-2.43,10,10,0,0,1,3.46.81v5.27l-.52-.27a6.46,6.46,0,0,0-2.76-.85,1.88,1.88,0,0,0-1.86,1,9.5,9.5,0,0,0-.48,3.71v7.37h5.62v4.82Z"/><path class="cls-4" d="M991.12,720h-16a6.74,6.74,0,0,0,1.79,4.39A5.45,5.45,0,0,0,981,726a5.24,5.24,0,0,0,3.19-.92,13,13,0,0,0,2.82-3.39l4.36,2.43a17.12,17.12,0,0,1-2.13,2.95,11.55,11.55,0,0,1-2.41,2,9.74,9.74,0,0,1-2.78,1.16,13.74,13.74,0,0,1-3.24.36,10.53,10.53,0,0,1-8-3.21,12.05,12.05,0,0,1-3-8.58,12.35,12.35,0,0,1,2.94-8.58,11.19,11.19,0,0,1,15.65-.1c1.9,2.09,2.85,5,2.85,8.66Zm-5.31-4.22c-.72-2.75-2.45-4.13-5.21-4.13a5.26,5.26,0,0,0-3.27,1.11,5.38,5.38,0,0,0-1.16,1.3,6.07,6.07,0,0,0-.73,1.72Z"/><path class="cls-4" d="M1002.5,712.41v17.53h-5.17V712.41h-2.2v-4.82h2.2V699.4h5.17v8.19h4v4.82Z"/><path class="cls-4" d="M1029.88,712.41v17.53h-5.19V712.41h-1.84v-4.82h1.84V699q0-4.22,1.47-6a7.18,7.18,0,0,1,5.87-2.43,10,10,0,0,1,3.47.81v5.27l-.53-.27a6.43,6.43,0,0,0-2.75-.85,1.87,1.87,0,0,0-1.86,1,9.5,9.5,0,0,0-.48,3.71v7.37h5.62v4.82Z"/><path class="cls-4" d="M1038,718.61a11.13,11.13,0,0,1,3.46-8.24,12.22,12.22,0,0,1,16.94,0,12,12,0,0,1,0,16.82,11.85,11.85,0,0,1-8.56,3.37,11.33,11.33,0,0,1-8.42-3.44A11.55,11.55,0,0,1,1038,718.61Zm5.28.09a7.56,7.56,0,0,0,1.79,5.3,7,7,0,0,0,9.68,0,8.37,8.37,0,0,0,0-10.42,6.88,6.88,0,0,0-9.64,0A7.22,7.22,0,0,0,1043.28,718.7Z"/><path class="cls-4" d="M1067.31,707.59h5.16v2a10,10,0,0,1,2.52-2.05,5.84,5.84,0,0,1,2.67-.57,8.28,8.28,0,0,1,4.26,1.33l-2.36,4.73a5,5,0,0,0-2.87-1.06q-4.21,0-4.22,6.38v11.59h-5.16Z"/><path class="cls-4" d="M1104.55,691.18v19a9.54,9.54,0,0,1,7-3.21,9.65,9.65,0,0,1,7.53,3.37,12,12,0,0,1,3,8.36,12.27,12.27,0,0,1-3,8.53,9.93,9.93,0,0,1-14.53.37v2.34h-5.16V691.18Zm12.28,27.75a7.72,7.72,0,0,0-1.75-5.24,5.58,5.58,0,0,0-4.42-2.06,5.94,5.94,0,0,0-4.64,2,8.5,8.5,0,0,0,0,10.36,5.79,5.79,0,0,0,4.59,2,5.69,5.69,0,0,0,4.45-2A7.36,7.36,0,0,0,1116.83,718.93Z"/><path class="cls-4" d="M1126.79,698.29a3.16,3.16,0,0,1,1-2.33,3.2,3.2,0,0,1,2.36-1,3.26,3.26,0,0,1,2.39,1,3.18,3.18,0,0,1,1,2.36,3.29,3.29,0,0,1-1,2.39,3.21,3.21,0,0,1-2.37,1,3.25,3.25,0,0,1-2.38-1A3.3,3.3,0,0,1,1126.79,698.29Zm5.94,9.3v22.35h-5.16V707.59Z"/><path class="cls-4" d="M1144.44,691.18v38.76h-5.17V691.18Z"/><path class="cls-4" d="M1156.14,691.18v38.76H1151V691.18Z"/><path class="cls-4" d="M1183,720h-16a6.79,6.79,0,0,0,1.79,4.39,5.46,5.46,0,0,0,4.06,1.6,5.22,5.22,0,0,0,3.19-.92,12.83,12.83,0,0,0,2.82-3.39l4.37,2.43a17.69,17.69,0,0,1-2.14,2.95,11.3,11.3,0,0,1-2.41,2,9.74,9.74,0,0,1-2.78,1.16,13.71,13.71,0,0,1-3.23.36,10.52,10.52,0,0,1-8-3.21,12.05,12.05,0,0,1-3-8.58,12.39,12.39,0,0,1,2.93-8.58,11.21,11.21,0,0,1,15.66-.1c1.89,2.09,2.84,5,2.84,8.66Zm-5.3-4.22a5,5,0,0,0-5.21-4.13,5.14,5.14,0,0,0-1.77.29,5,5,0,0,0-1.5.82,5.18,5.18,0,0,0-1.16,1.3,6.08,6.08,0,0,0-.74,1.72Z"/><path class="cls-4" d="M1205.16,691.18h5.19v38.76h-5.19V727.6a9.62,9.62,0,0,1-6.91,3,9.82,9.82,0,0,1-7.62-3.35,12.44,12.44,0,0,1-3-8.53,12.08,12.08,0,0,1,3-8.36,9.66,9.66,0,0,1,14.53-.16Zm-12.25,27.52a7.78,7.78,0,0,0,1.72,5.23,5.64,5.64,0,0,0,4.45,2,6,6,0,0,0,4.64-2,8.53,8.53,0,0,0,0-10.38,5.85,5.85,0,0,0-4.59-2,5.71,5.71,0,0,0-4.46,2A7.47,7.47,0,0,0,1192.91,718.7Z"/><path class="cls-4" d="M1233.34,691.18h5.19v38.76h-5.19V727.6a9.6,9.6,0,0,1-6.9,3,9.82,9.82,0,0,1-7.62-3.35,12.4,12.4,0,0,1-3-8.53,12,12,0,0,1,3-8.36,9.65,9.65,0,0,1,14.52-.16Zm-12.25,27.52a7.78,7.78,0,0,0,1.72,5.23,5.64,5.64,0,0,0,4.45,2,6,6,0,0,0,4.64-2,8.49,8.49,0,0,0,0-10.38,5.85,5.85,0,0,0-4.59-2,5.68,5.68,0,0,0-4.45,2A7.43,7.43,0,0,0,1221.09,718.7Z"/><path class="cls-4" d="M1265.4,720h-16a6.8,6.8,0,0,0,1.8,4.39,5.43,5.43,0,0,0,4.06,1.6,5.24,5.24,0,0,0,3.19-.92,13.23,13.23,0,0,0,2.82-3.39l4.36,2.43a17.12,17.12,0,0,1-2.13,2.95,11.55,11.55,0,0,1-2.41,2,9.86,9.86,0,0,1-2.78,1.16,13.8,13.8,0,0,1-3.24.36,10.53,10.53,0,0,1-8-3.21,12.05,12.05,0,0,1-3-8.58,12.35,12.35,0,0,1,2.94-8.58,11.19,11.19,0,0,1,15.65-.1c1.9,2.09,2.85,5,2.85,8.66Zm-5.3-4.22c-.72-2.75-2.45-4.13-5.21-4.13a5.12,5.12,0,0,0-1.76.29,5,5,0,0,0-1.51.82,5.38,5.38,0,0,0-1.16,1.3,6.07,6.07,0,0,0-.73,1.72Z"/><path class="cls-4" d="M1276.21,691.18v38.76h-5.16V691.18Z"/><path class="cls-4" d="M1282,698.29a3.16,3.16,0,0,1,1-2.33,3.34,3.34,0,0,1,4.75,0,3.15,3.15,0,0,1,1,2.36,3.26,3.26,0,0,1-1,2.39,3.19,3.19,0,0,1-2.36,1,3.36,3.36,0,0,1-3.38-3.4Zm6,9.3v22.35h-5.17V707.59Z"/><path class="cls-4" d="M1294.46,707.59h5.18v2.07a8.48,8.48,0,0,1,6.11-2.69,7.7,7.7,0,0,1,6.08,2.46q1.88,2.09,1.88,6.81v13.7h-5.18V717.46c0-2.21-.31-3.73-.92-4.57a3.73,3.73,0,0,0-3.26-1.28,4,4,0,0,0-3.65,1.69c-.7,1.12-1.06,3.07-1.06,5.86v10.78h-5.18Z"/><path class="cls-4" d="M1341.85,729.41c0,1.06,0,2-.11,2.79a18.2,18.2,0,0,1-.28,2.13,9.49,9.49,0,0,1-2.16,4.33,10.45,10.45,0,0,1-8.33,3.49,11.12,11.12,0,0,1-7.37-2.41,9.85,9.85,0,0,1-3.44-6.86h5.19a6,6,0,0,0,1,2.55,5.56,5.56,0,0,0,4.69,2.09q5.65,0,5.66-7v-3.12a9.85,9.85,0,0,1-14.57-.16,12.24,12.24,0,0,1-2.94-8.38,12.87,12.87,0,0,1,2.73-8.3,9.5,9.5,0,0,1,7.76-3.63,9,9,0,0,1,7,3.14v-2.52h5.17Zm-5-10.6a7.54,7.54,0,0,0-1.74-5.21,5.78,5.78,0,0,0-4.53-2,5.54,5.54,0,0,0-4.63,2.18,9,9,0,0,0,0,10.05,5.57,5.57,0,0,0,4.63,2.13,5.68,5.68,0,0,0,4.69-2.16A7.69,7.69,0,0,0,1336.89,718.81Z"/><path class="cls-4" d="M1349.17,727.37a3,3,0,0,1,.94-2.22,3.19,3.19,0,0,1,5.44,2.24,3.14,3.14,0,0,1-.94,2.28,3.18,3.18,0,0,1-5.44-2.3Z"/><path class="cls-4" d="M455.82,823.39h16.26V808.65h5.68v37.69h-5.68v-17.6H455.82v17.6h-5.69V808.65h5.69Z"/><path class="cls-4" d="M491.24,822.56v13.65q0,5.91,4.66,5.91t4.67-5.91V822.56h5.49v13.77a15.32,15.32,0,0,1-.71,4.93,8.15,8.15,0,0,1-2.37,3.35,11.52,11.52,0,0,1-14.13,0,8.38,8.38,0,0,1-2.42-3.35,13.71,13.71,0,0,1-.68-4.93V822.56Z"/><path class="cls-4" d="M526.81,826.62,522.27,829c-.72-1.46-1.6-2.19-2.66-2.19a1.79,1.79,0,0,0-1.29.5,1.66,1.66,0,0,0-.54,1.28c0,.91,1.06,1.81,3.17,2.71a19,19,0,0,1,5.89,3.46,6,6,0,0,1,1.51,4.28,7.51,7.51,0,0,1-2.54,5.76,8.66,8.66,0,0,1-6,2.2q-6,0-8.47-5.84l4.69-2.17a10.18,10.18,0,0,0,1.49,2.17,3.39,3.39,0,0,0,2.39.93c1.86,0,2.79-.85,2.79-2.54,0-1-.72-1.89-2.15-2.73l-1.66-.81-1.69-.81a10.36,10.36,0,0,1-3.37-2.34,5.76,5.76,0,0,1-1.24-3.83,6.8,6.8,0,0,1,2.12-5.13,7.47,7.47,0,0,1,5.28-2Q524.59,821.9,526.81,826.62Z"/><path class="cls-4" d="M538.78,805.11v25.14l7.73-7.69h7.38l-10.33,10,11.08,13.79h-7.12l-7.87-10-.87.88v9.15h-5.5V805.11Z"/><path class="cls-4" d="M579.11,859.28h-5.5V822.56h5.5v2.59a10.41,10.41,0,0,1,15.45.37,13,13,0,0,1,3.22,9.05,12.87,12.87,0,0,1-3.19,8.92,10.42,10.42,0,0,1-15.48.19Zm13.06-24.68a8.2,8.2,0,0,0-1.86-5.57,6,6,0,0,0-4.73-2.17,6.27,6.27,0,0,0-4.91,2.1,8,8,0,0,0-1.88,5.52,8.11,8.11,0,0,0,1.88,5.51,6.16,6.16,0,0,0,4.88,2.13,5.94,5.94,0,0,0,4.71-2.15A7.79,7.79,0,0,0,592.17,834.6Z"/><path class="cls-4" d="M621.12,822.56h5.52v23.78h-5.52v-2.49a10.53,10.53,0,0,1-15.45-.39,13.25,13.25,0,0,1-3.2-9.08,12.84,12.84,0,0,1,3.2-8.91,10.3,10.3,0,0,1,8-3.57,10.1,10.1,0,0,1,7.44,3.42Zm-13,11.82a8.31,8.31,0,0,0,1.83,5.57,6,6,0,0,0,4.73,2.17,6.32,6.32,0,0,0,4.94-2.1,9,9,0,0,0,0-11,6.24,6.24,0,0,0-4.89-2.12A6.07,6.07,0,0,0,610,829,7.89,7.89,0,0,0,608.09,834.38ZM610,813.51a5,5,0,0,1,1.56-3.69,5.31,5.31,0,1,1,7.49,7.52,5,5,0,0,1-3.73,1.56,5.19,5.19,0,0,1-3.79-1.56A5.27,5.27,0,0,1,610,813.51Zm2.9,0a2.42,2.42,0,1,0,4.14-1.69,2.43,2.43,0,0,0-2.67-.5,2.43,2.43,0,0,0-.77.52,2.35,2.35,0,0,0-.51.77A2.21,2.21,0,0,0,612.87,813.55Z"/><path class="cls-4" d="M666.53,822.56h5.52v23.78h-5.52v-2.49a10.53,10.53,0,0,1-15.45-.39,13.25,13.25,0,0,1-3.2-9.08,12.84,12.84,0,0,1,3.2-8.91,10.3,10.3,0,0,1,8-3.57,10.1,10.1,0,0,1,7.44,3.42Zm-13,11.82a8.31,8.31,0,0,0,1.83,5.57,6,6,0,0,0,4.73,2.17A6.32,6.32,0,0,0,665,840a9,9,0,0,0,0-11,6.24,6.24,0,0,0-4.89-2.12,6.07,6.07,0,0,0-4.73,2.15A7.89,7.89,0,0,0,653.5,834.38Z"/><path class="cls-4" d="M684.65,827.69v18.65h-5.49V827.69h-2.35v-5.13h2.35v-8.71h5.49v8.71h4.27v5.13Z"/><path class="cls-4" d="M713.58,822.56v13.65q0,5.91,4.66,5.91t4.67-5.91V822.56h5.49v13.77a15.32,15.32,0,0,1-.71,4.93,8.15,8.15,0,0,1-2.37,3.35,11.52,11.52,0,0,1-14.13,0,8.38,8.38,0,0,1-2.42-3.35,13.49,13.49,0,0,1-.68-4.93V822.56Z"/><path class="cls-4" d="M735.33,805.11h5.5v19.43a9.45,9.45,0,0,1,6.47-2.64,8.36,8.36,0,0,1,6.44,2.62q2.06,2.26,2,7.25v14.57H750.3V832.28a6.77,6.77,0,0,0-1-4.14,3.93,3.93,0,0,0-3.26-1.28c-1.92,0-3.28.59-4.06,1.78s-1.14,3.27-1.14,6.2v11.5h-5.5Z"/><path class="cls-4" d="M784.41,835.75h-17a7.27,7.27,0,0,0,1.91,4.66,5.79,5.79,0,0,0,4.32,1.71,5.6,5.6,0,0,0,3.39-1,13.93,13.93,0,0,0,3-3.61l4.63,2.59a17.92,17.92,0,0,1-2.27,3.13,11.9,11.9,0,0,1-2.56,2.15,10.08,10.08,0,0,1-2.95,1.23,14,14,0,0,1-3.45.4,11.19,11.19,0,0,1-8.54-3.42,12.82,12.82,0,0,1-3.22-9.13,13.17,13.17,0,0,1,3.12-9.13,11.89,11.89,0,0,1,16.65-.1q3,3.32,3,9.2Zm-5.64-4.5q-1.15-4.39-5.55-4.39a5.58,5.58,0,0,0-1.88.31,5.41,5.41,0,0,0-1.6.87,5.8,5.8,0,0,0-1.23,1.38,6.56,6.56,0,0,0-.78,1.83Z"/><path class="cls-4" d="M795.9,805.11v41.23h-5.49V805.11Z"/><path class="cls-4" d="M820.39,805.11h5.52v41.23h-5.52v-2.49A10.22,10.22,0,0,1,813,847a10.45,10.45,0,0,1-8.1-3.57,13.2,13.2,0,0,1-3.2-9.08,12.79,12.79,0,0,1,3.2-8.89,10.26,10.26,0,0,1,15.45-.17Zm-13,29.27a8.26,8.26,0,0,0,1.84,5.57,6,6,0,0,0,4.73,2.17,6.29,6.29,0,0,0,4.93-2.1,9,9,0,0,0,0-11,6.22,6.22,0,0,0-4.88-2.12,6.09,6.09,0,0,0-4.74,2.15A7.94,7.94,0,0,0,807.35,834.38Z"/><path class="cls-4" d="M853.77,805.11v25.14l7.73-7.69h7.38l-10.33,10,11.08,13.79h-7.12l-7.87-10-.87.88v9.15h-5.5V805.11Z"/><path class="cls-4" d="M889.85,822.56h5.52v23.78h-5.52v-2.49a10.53,10.53,0,0,1-15.45-.39,13.2,13.2,0,0,1-3.2-9.08,12.79,12.79,0,0,1,3.2-8.91,10.29,10.29,0,0,1,8-3.57,10.12,10.12,0,0,1,7.45,3.42Zm-13,11.82a8.31,8.31,0,0,0,1.83,5.57,6,6,0,0,0,4.74,2.17,6.3,6.3,0,0,0,4.93-2.1,9,9,0,0,0,0-11,6.22,6.22,0,0,0-4.88-2.12,6.09,6.09,0,0,0-4.74,2.15A7.94,7.94,0,0,0,876.81,834.38Z"/><path class="cls-4" d="M902.3,822.56h5.52v2.2a9,9,0,0,1,6.49-2.86,8.2,8.2,0,0,1,6.47,2.62c1.34,1.48,2,3.89,2,7.25v14.57h-5.51V833.06c0-2.34-.33-4-1-4.86s-1.79-1.36-3.47-1.36a4.25,4.25,0,0,0-3.88,1.8q-1.12,1.79-1.12,6.23v11.47H902.3Z"/><path class="cls-4" d="M959,826.62,954.42,829c-.71-1.46-1.6-2.19-2.66-2.19a1.8,1.8,0,0,0-1.29.5,1.66,1.66,0,0,0-.54,1.28c0,.91,1.06,1.81,3.18,2.71a19.05,19.05,0,0,1,5.88,3.46,6,6,0,0,1,1.51,4.28,7.47,7.47,0,0,1-2.54,5.76,8.66,8.66,0,0,1-6,2.2q-6,0-8.47-5.84l4.68-2.17a10.18,10.18,0,0,0,1.49,2.17,3.41,3.41,0,0,0,2.4.93c1.85,0,2.78-.85,2.78-2.54,0-1-.72-1.89-2.15-2.73-.55-.28-1.11-.55-1.66-.81l-1.68-.81a10.25,10.25,0,0,1-3.37-2.34,5.77,5.77,0,0,1-1.25-3.83,6.77,6.77,0,0,1,2.13-5.13,7.43,7.43,0,0,1,5.27-2Q956.74,821.9,959,826.62Z"/><path class="cls-4" d="M970.93,805.11v25.14l7.74-7.69H986l-10.33,10,11.09,13.79h-7.13l-7.86-10-.88.88v9.15h-5.49V805.11Z"/><path class="cls-4" d="M1011.19,835.75h-17a7.21,7.21,0,0,0,1.9,4.66,5.79,5.79,0,0,0,4.32,1.71,5.65,5.65,0,0,0,3.4-1,13.93,13.93,0,0,0,3-3.61l4.64,2.59a19,19,0,0,1-2.27,3.13,12.19,12.19,0,0,1-2.57,2.15,10,10,0,0,1-3,1.23,13.93,13.93,0,0,1-3.44.4,11.2,11.2,0,0,1-8.55-3.42,12.82,12.82,0,0,1-3.22-9.13,13.17,13.17,0,0,1,3.12-9.13,11.89,11.89,0,0,1,16.65-.1q3,3.32,3,9.2Zm-5.64-4.5c-.77-2.93-2.61-4.39-5.54-4.39a5.49,5.49,0,0,0-1.88.31,5.29,5.29,0,0,0-1.6.87,6.07,6.07,0,0,0-1.24,1.38,6.56,6.56,0,0,0-.78,1.83Z"/><path class="cls-4" d="M1020.59,839.29l4.88,1.9-7,13.94-3.71-1.54Z"/><path class="cls-4" d="M1048.05,822.56h5.5v2.2a11.24,11.24,0,0,1,2.71-2.25,6.61,6.61,0,0,1,3-.61,7.3,7.3,0,0,1,6.37,3.52,8.27,8.27,0,0,1,7-3.52q8,0,8,9.74v14.7h-5.52V833.13a10.1,10.1,0,0,0-.83-4.83,3,3,0,0,0-2.81-1.44,3.57,3.57,0,0,0-3.3,1.71,10.91,10.91,0,0,0-1,5.49v12.28h-5.52V833.21q0-6.35-3.66-6.35a3.68,3.68,0,0,0-3.38,1.73,10.81,10.81,0,0,0-1.06,5.47v12.28h-5.5Z"/><path class="cls-4" d="M1109.26,835.75h-17a7.21,7.21,0,0,0,1.9,4.66,5.82,5.82,0,0,0,4.32,1.71,5.65,5.65,0,0,0,3.4-1,13.73,13.73,0,0,0,3-3.61l4.64,2.59a19,19,0,0,1-2.27,3.13,11.94,11.94,0,0,1-2.57,2.15,10,10,0,0,1-3,1.23,13.93,13.93,0,0,1-3.44.4,11.2,11.2,0,0,1-8.55-3.42,12.82,12.82,0,0,1-3.22-9.13,13.13,13.13,0,0,1,3.13-9.13,11.89,11.89,0,0,1,16.65-.1q3,3.32,3,9.2Zm-5.64-4.5c-.77-2.93-2.61-4.39-5.54-4.39a5.49,5.49,0,0,0-1.88.31,5.29,5.29,0,0,0-1.6.87,5.8,5.8,0,0,0-1.23,1.38,6.3,6.3,0,0,0-.79,1.83Z"/><path class="cls-4" d="M1115.26,822.56h5.52v2.2a9,9,0,0,1,6.5-2.86,8.23,8.23,0,0,1,6.47,2.62c1.33,1.48,2,3.89,2,7.25v14.57h-5.52V833.06c0-2.34-.33-4-1-4.86s-1.79-1.36-3.46-1.36a4.23,4.23,0,0,0-3.88,1.8q-1.12,1.79-1.13,6.23v11.47h-5.52Z"/><path class="cls-4" d="M1175.64,805.11h5.52v41.23h-5.52v-2.49a10.22,10.22,0,0,1-7.35,3.18,10.44,10.44,0,0,1-8.1-3.57,13.2,13.2,0,0,1-3.2-9.08,12.79,12.79,0,0,1,3.2-8.89,10.26,10.26,0,0,1,15.45-.17Zm-13,29.27a8.31,8.31,0,0,0,1.83,5.57,6,6,0,0,0,4.74,2.17,6.29,6.29,0,0,0,4.93-2.1,9,9,0,0,0,0-11,6.22,6.22,0,0,0-4.88-2.12,6.09,6.09,0,0,0-4.74,2.15A7.94,7.94,0,0,0,1162.6,834.38Z"/><path class="cls-4" d="M1209.75,835.75h-17a7.21,7.21,0,0,0,1.9,4.66,5.79,5.79,0,0,0,4.32,1.71,5.65,5.65,0,0,0,3.4-1,13.93,13.93,0,0,0,3-3.61l4.64,2.59a19,19,0,0,1-2.27,3.13,12.19,12.19,0,0,1-2.57,2.15,10,10,0,0,1-3,1.23,13.93,13.93,0,0,1-3.44.4,11.2,11.2,0,0,1-8.55-3.42,12.82,12.82,0,0,1-3.22-9.13,13.17,13.17,0,0,1,3.12-9.13,11.89,11.89,0,0,1,16.65-.1q3,3.32,3,9.2Zm-5.64-4.5c-.77-2.93-2.61-4.39-5.54-4.39a5.49,5.49,0,0,0-1.88.31,5.29,5.29,0,0,0-1.6.87,6.07,6.07,0,0,0-1.24,1.38,6.56,6.56,0,0,0-.78,1.83Z"/><path class="cls-4" d="M1221.86,827.69v18.65h-5.5V827.69H1214v-5.13h2.34v-8.71h5.5v8.71h4.27v5.13Z"/><path class="cls-4" d="M1268.29,845.78c0,1.12,0,2.11-.11,3a20.45,20.45,0,0,1-.3,2.26,10.11,10.11,0,0,1-2.3,4.61,11.13,11.13,0,0,1-8.86,3.71,11.84,11.84,0,0,1-7.84-2.56,10.52,10.52,0,0,1-3.66-7.3h5.52a6.24,6.24,0,0,0,1,2.71,5.9,5.9,0,0,0,5,2.22q6,0,6-7.4v-3.32a10.27,10.27,0,0,1-7.55,3.35,10.13,10.13,0,0,1-8-3.52,13,13,0,0,1-3.13-8.91,13.71,13.71,0,0,1,2.91-8.84,10.09,10.09,0,0,1,8.25-3.86,9.6,9.6,0,0,1,7.47,3.35v-2.69h5.49ZM1263,834.5a8,8,0,0,0-1.86-5.54,6.1,6.1,0,0,0-4.81-2.12,5.93,5.93,0,0,0-4.93,2.31,8.45,8.45,0,0,0-1.63,5.38,8.35,8.35,0,0,0,1.63,5.32,5.93,5.93,0,0,0,4.93,2.27,6,6,0,0,0,5-2.3A8.12,8.12,0,0,0,1263,834.5Z"/><path class="cls-4" d="M1312.36,835.67h-17.14a7.59,7.59,0,0,0,2,4.69,5.75,5.75,0,0,0,4.3,1.76c2.51,0,4.58-1.59,6.23-4.76l4.73,2.63a16,16,0,0,1-1.68,2.62,10.48,10.48,0,0,1-2,1.88,12.52,12.52,0,0,1-7.59,2.56,12,12,0,0,1-8.62-3.81q-3,3.81-8.76,3.81a10.84,10.84,0,0,1-7.06-2.2,7,7,0,0,1-2.71-5.73,7.32,7.32,0,0,1,2.59-5.86,10.06,10.06,0,0,1,6.81-2.25,13.8,13.8,0,0,1,6.2,1.61c0-2.15-.45-3.64-1.34-4.49s-2.44-1.29-4.59-1.29a23.74,23.74,0,0,0-6.35.9v-5.1a42.37,42.37,0,0,1,6.89-.74q5.81,0,8.35,3.35a11,11,0,0,1,8.3-3.35,10.85,10.85,0,0,1,8.32,3.35,12.42,12.42,0,0,1,3.13,8.86ZM1279.42,839a2.74,2.74,0,0,0,1.37,2.32,6.27,6.27,0,0,0,3.47.93,6.51,6.51,0,0,0,3.64-1,2.85,2.85,0,0,0,1.46-2.41,2.62,2.62,0,0,0-1.51-2.2,6.82,6.82,0,0,0-3.64-.93,5.88,5.88,0,0,0-3.39,1A2.76,2.76,0,0,0,1279.42,839Zm27.18-7.79q-1-4.37-5.35-4.37a5.41,5.41,0,0,0-5.66,4.37Z"/><path class="cls-4" d="M1323.76,805.11v41.23h-5.49V805.11Z"/><path class="cls-4" d="M1348.25,805.11h5.52v41.23h-5.52v-2.49a10.26,10.26,0,0,1-7.35,3.18,10.46,10.46,0,0,1-8.11-3.57,13.25,13.25,0,0,1-3.19-9.08,12.83,12.83,0,0,1,3.19-8.89,10.28,10.28,0,0,1,15.46-.17Zm-13,29.27A8.31,8.31,0,0,0,1337,840a6,6,0,0,0,4.74,2.17,6.3,6.3,0,0,0,4.93-2.1,9,9,0,0,0,0-11,6.22,6.22,0,0,0-4.88-2.12,6.09,6.09,0,0,0-4.74,2.15A7.94,7.94,0,0,0,1335.21,834.38Z"/><path class="cls-4" d="M1382.35,835.75h-17a7.22,7.22,0,0,0,1.91,4.66,5.79,5.79,0,0,0,4.32,1.71,5.6,5.6,0,0,0,3.39-1,13.93,13.93,0,0,0,3-3.61l4.63,2.59a17.92,17.92,0,0,1-2.27,3.13,11.9,11.9,0,0,1-2.56,2.15,10.08,10.08,0,0,1-3,1.23,14,14,0,0,1-3.45.4,11.18,11.18,0,0,1-8.54-3.42,12.82,12.82,0,0,1-3.22-9.13,13.17,13.17,0,0,1,3.12-9.13,11.89,11.89,0,0,1,16.65-.1q3,3.32,3,9.2Zm-5.64-4.5q-1.14-4.39-5.54-4.39a5.53,5.53,0,0,0-1.88.31,5.41,5.41,0,0,0-1.6.87,5.8,5.8,0,0,0-1.23,1.38,6.56,6.56,0,0,0-.78,1.83Z"/><path class="cls-4" d="M1388.36,822.56h5.49v2.13a10.53,10.53,0,0,1,2.69-2.18,6.25,6.25,0,0,1,2.83-.61,8.91,8.91,0,0,1,4.54,1.42l-2.51,5a5.23,5.23,0,0,0-3.05-1.12q-4.5,0-4.5,6.78v12.33h-5.49Z"/><path class="cls-4" d="M1421.37,834.28a11.84,11.84,0,0,1,3.68-8.76,13,13,0,0,1,18,0,12.75,12.75,0,0,1,0,17.9,12.62,12.62,0,0,1-9.11,3.59,12.1,12.1,0,0,1-9-3.67A12.28,12.28,0,0,1,1421.37,834.28Zm5.61.1a8,8,0,0,0,1.91,5.64,7.39,7.39,0,0,0,10.3,0,8.92,8.92,0,0,0,0-11.08,7.3,7.3,0,0,0-10.25,0A7.62,7.62,0,0,0,1427,834.38Z"/><path class="cls-4" d="M1452.54,822.56h5.5v2.2a11.43,11.43,0,0,1,2.71-2.25,6.64,6.64,0,0,1,3-.61,7.29,7.29,0,0,1,6.37,3.52,8.27,8.27,0,0,1,7-3.52q8,0,8,9.74v14.7h-5.52V833.13a10.1,10.1,0,0,0-.83-4.83,3,3,0,0,0-2.8-1.44,3.58,3.58,0,0,0-3.31,1.71,11,11,0,0,0-1,5.49v12.28h-5.52V833.21q0-6.35-3.66-6.35a3.68,3.68,0,0,0-3.38,1.73,10.81,10.81,0,0,0-1.06,5.47v12.28h-5.5Z"/><path class="cls-4" d="M466.61,882.56h5.51v23.78h-5.51v-2.49a10.54,10.54,0,0,1-15.46-.39,13.25,13.25,0,0,1-3.19-9.08,12.83,12.83,0,0,1,3.19-8.91,10.31,10.31,0,0,1,8-3.57,10.12,10.12,0,0,1,7.45,3.42Zm-13,11.82A8.31,8.31,0,0,0,455.4,900a6,6,0,0,0,4.74,2.17,6.3,6.3,0,0,0,4.93-2.1,9,9,0,0,0,0-11,6.22,6.22,0,0,0-4.88-2.12,6.09,6.09,0,0,0-4.74,2.15A7.94,7.94,0,0,0,453.57,894.38Z"/><path class="cls-4" d="M484.72,887.69v18.65h-5.49V887.69h-2.34v-5.13h2.34v-8.71h5.49v8.71H489v5.13Z"/><path class="cls-4" d="M511.11,882.56l6.16,13.36,6.12-13.36h6.18L517.22,908,505,882.56Z"/><path class="cls-4" d="M569.81,895.67H552.67a7.53,7.53,0,0,0,2,4.69,5.75,5.75,0,0,0,4.3,1.76c2.5,0,4.58-1.59,6.22-4.76l4.74,2.63a16,16,0,0,1-1.69,2.62,10.14,10.14,0,0,1-2,1.88,12.56,12.56,0,0,1-7.59,2.56,11.94,11.94,0,0,1-8.62-3.81q-3,3.81-8.77,3.81a10.83,10.83,0,0,1-7-2.2,7,7,0,0,1-2.71-5.73,7.32,7.32,0,0,1,2.59-5.86A10.06,10.06,0,0,1,541,891a13.8,13.8,0,0,1,6.2,1.61c0-2.15-.45-3.64-1.34-4.49s-2.44-1.29-4.59-1.29a23.68,23.68,0,0,0-6.35.9v-5.1a42.37,42.37,0,0,1,6.88-.74q5.82,0,8.35,3.35a11,11,0,0,1,8.3-3.35,10.86,10.86,0,0,1,8.33,3.35,12.46,12.46,0,0,1,3.12,8.86ZM536.87,899a2.74,2.74,0,0,0,1.37,2.32,6.24,6.24,0,0,0,3.47.93,6.48,6.48,0,0,0,3.63-1,2.84,2.84,0,0,0,1.47-2.41,2.63,2.63,0,0,0-1.52-2.2,6.8,6.8,0,0,0-3.63-.93,5.91,5.91,0,0,0-3.4,1A2.75,2.75,0,0,0,536.87,899ZM564,891.23c-.66-2.91-2.45-4.37-5.34-4.37a5.42,5.42,0,0,0-5.67,4.37Z"/><path class="cls-4" d="M575.71,882.56h5.5v2.13a10.51,10.51,0,0,1,2.68-2.18,6.25,6.25,0,0,1,2.83-.61,9,9,0,0,1,4.55,1.42l-2.52,5a5.23,5.23,0,0,0-3-1.12c-3,0-4.49,2.26-4.49,6.78v12.33h-5.5Z"/><path class="cls-4" d="M615.73,895.75h-17a7.21,7.21,0,0,0,1.9,4.66,5.81,5.81,0,0,0,4.32,1.71,5.65,5.65,0,0,0,3.4-1,13.73,13.73,0,0,0,3-3.61l4.64,2.59a19,19,0,0,1-2.27,3.13,11.94,11.94,0,0,1-2.57,2.15,10,10,0,0,1-3,1.23,13.93,13.93,0,0,1-3.44.4,11.2,11.2,0,0,1-8.55-3.42,12.82,12.82,0,0,1-3.22-9.13,13.13,13.13,0,0,1,3.13-9.13,11.89,11.89,0,0,1,16.65-.1q3,3.32,3,9.2Zm-5.64-4.5c-.77-2.93-2.61-4.39-5.54-4.39a5.49,5.49,0,0,0-1.88.31,5.29,5.29,0,0,0-1.6.87,6.07,6.07,0,0,0-1.24,1.38,6.56,6.56,0,0,0-.78,1.83Z"/><path class="cls-4" d="M674.3,895.67H657.16a7.53,7.53,0,0,0,2,4.69,5.75,5.75,0,0,0,4.3,1.76c2.5,0,4.58-1.59,6.22-4.76l4.74,2.63a16,16,0,0,1-1.68,2.62,10.48,10.48,0,0,1-2,1.88,12.56,12.56,0,0,1-7.59,2.56,12,12,0,0,1-8.62-3.81q-3,3.81-8.76,3.81a10.84,10.84,0,0,1-7.06-2.2,7,7,0,0,1-2.71-5.73,7.32,7.32,0,0,1,2.59-5.86,10.06,10.06,0,0,1,6.81-2.25,13.8,13.8,0,0,1,6.2,1.61c0-2.15-.45-3.64-1.34-4.49s-2.44-1.29-4.59-1.29a23.74,23.74,0,0,0-6.35.9v-5.1a42.37,42.37,0,0,1,6.89-.74q5.81,0,8.35,3.35a12,12,0,0,1,16.62,0,12.47,12.47,0,0,1,3.13,8.86ZM641.36,899a2.74,2.74,0,0,0,1.37,2.32,6.27,6.27,0,0,0,3.47.93,6.46,6.46,0,0,0,3.63-1,2.84,2.84,0,0,0,1.47-2.41,2.64,2.64,0,0,0-1.51-2.2,6.84,6.84,0,0,0-3.64-.93,5.91,5.91,0,0,0-3.4,1A2.77,2.77,0,0,0,641.36,899Zm27.18-7.79q-1-4.37-5.35-4.37a5.41,5.41,0,0,0-5.66,4.37Z"/><path class="cls-4" d="M680.21,882.56h5.49v2.13a10.51,10.51,0,0,1,2.68-2.18,6.29,6.29,0,0,1,2.84-.61,8.91,8.91,0,0,1,4.54,1.42l-2.52,5a5.23,5.23,0,0,0-3-1.12q-4.49,0-4.49,6.78v12.33h-5.49Z"/><path class="cls-4" d="M705.16,865.11v41.23h-5.5V865.11Z"/><path class="cls-4" d="M711.29,872.68a3.36,3.36,0,0,1,1-2.49,3.55,3.55,0,0,1,5.06,0,3.37,3.37,0,0,1,1.05,2.51,3.47,3.47,0,0,1-1.05,2.54,3.37,3.37,0,0,1-2.52,1,3.57,3.57,0,0,1-3.58-3.61Zm6.32,9.88v23.78h-5.49V882.56Z"/><path class="cls-4" d="M747.56,905.78c0,1.12,0,2.11-.1,3s-.18,1.6-.31,2.26a10.11,10.11,0,0,1-2.3,4.61,11.12,11.12,0,0,1-8.86,3.71,11.81,11.81,0,0,1-7.83-2.56,10.49,10.49,0,0,1-3.67-7.3H730a6.24,6.24,0,0,0,1,2.71,5.9,5.9,0,0,0,5,2.22q6,0,6-7.4v-3.32a10.25,10.25,0,0,1-7.54,3.35,10.14,10.14,0,0,1-8-3.52,13,13,0,0,1-3.13-8.91,13.71,13.71,0,0,1,2.91-8.84,10.09,10.09,0,0,1,8.25-3.86,9.6,9.6,0,0,1,7.47,3.35v-2.69h5.49Zm-5.27-11.28a8,8,0,0,0-1.85-5.54,6.13,6.13,0,0,0-4.81-2.12,5.94,5.94,0,0,0-4.94,2.31,8.45,8.45,0,0,0-1.63,5.38,8.35,8.35,0,0,0,1.63,5.32,6,6,0,0,0,4.94,2.27,6,6,0,0,0,5-2.3A8.17,8.17,0,0,0,742.29,894.5Z"/><path class="cls-4" d="M771.37,903.61a3.38,3.38,0,0,1,5.78-2.37,3.39,3.39,0,0,1-2.39,5.79,3.33,3.33,0,0,1-3.39-3.42Zm.63-5.67V868.65h5.52v29.29Z"/></g></svg>
