<svg xmlns="http://www.w3.org/2000/svg" width="1920" height="1080" viewBox="0 0 1920 1080"><defs><style>.cls-1{fill:#ff7300;}.cls-2{fill:#f4912d;}.cls-3{fill:#512500;}.cls-4{fill:#fff;}</style></defs><title>senarie1_2</title><g id="Layer_1" data-name="Layer 1"><polygon class="cls-1" points="1289 1072 1368 1072 1368 1097 1368 1115 1368 1160 1404 1160 1404 1203 1403 1203 1403 1249 1439 1249 1439 1292 1360 1292 1360 1270 1360 1249 1360 1203 1325 1203 1325 1176 1325 1160 1325 1115 1289 1115 1289 1072"/><rect class="cls-2" width="1920" height="1080"/><circle class="cls-1" cx="145" cy="150" r="50"/><circle class="cls-1" cx="1214" cy="333" r="50"/><circle class="cls-1" cx="1733" cy="918" r="50"/><circle class="cls-1" cx="226" cy="691" r="50"/><circle class="cls-1" cx="913" cy="576" r="50"/><circle class="cls-1" cx="542" cy="333" r="50"/><circle class="cls-1" cx="1197" cy="841" r="50"/><circle class="cls-1" cx="1570" cy="490" r="50"/><circle class="cls-1" cx="828" cy="150" r="50"/><circle class="cls-1" cx="592" cy="968" r="50"/><circle class="cls-1" cx="1620" cy="174" r="50"/><polygon class="cls-1" points="442 81 363 81 363 106 363 124 363 169 327 169 327 212 328 212 328 258 292 258 292 301 371 301 371 279 371 258 371 212 406 212 406 185 406 169 406 124 442 124 442 81"/><polygon class="cls-1" points="988 758 909 758 909 783 909 801 909 846 873 846 873 889 874 889 874 935 838 935 838 978 917 978 917 956 917 935 917 889 952 889 952 862 952 846 952 801 988 801 988 758"/><polygon class="cls-1" points="301 907 222 907 222 932 222 950 222 995 186 995 186 1038 187 1038 187 1084 151 1084 151 1127 230 1127 230 1105 230 1084 230 1038 265 1038 265 1011 265 995 265 950 301 950 301 907"/><polygon class="cls-1" points="1392 791 1471 791 1471 816 1471 834 1471 879 1507 879 1507 922 1506 922 1506 968 1542 968 1542 1011 1463 1011 1463 989 1463 968 1463 922 1428 922 1428 895 1428 879 1428 834 1392 834 1392 791"/><polygon class="cls-1" points="1289 -70 1368 -70 1368 -45 1368 -27 1368 18 1404 18 1404 61 1403 61 1403 107 1439 107 1439 150 1360 150 1360 128 1360 107 1360 61 1325 61 1325 34 1325 18 1325 -27 1289 -27 1289 -70"/><polygon class="cls-1" points="1708 370 1787 370 1787 395 1787 413 1787 458 1823 458 1823 501 1822 501 1822 547 1858 547 1858 590 1779 590 1779 568 1779 547 1779 501 1744 501 1744 474 1744 458 1744 413 1708 413 1708 370"/><polygon class="cls-1" points="1063 173 984 173 984 198 984 216 984 261 948 261 948 304 949 304 949 350 913 350 913 393 992 393 992 371 992 350 992 304 1027 304 1027 277 1027 261 1027 216 1063 216 1063 173"/><polygon class="cls-1" points="1414 411 1335 411 1335 436 1335 454 1335 499 1299 499 1299 542 1300 542 1300 588 1264 588 1264 631 1343 631 1343 609 1343 588 1343 542 1378 542 1378 515 1378 499 1378 454 1414 454 1414 411"/><polygon class="cls-1" points="492 521 571 521 571 546 571 564 571 609 607 609 607 652 606 652 606 698 642 698 642 741 563 741 563 719 563 698 563 652 528 652 528 625 528 609 528 564 492 564 492 521"/><polygon class="cls-1" points="-39 273 40 273 40 298 40 316 40 361 76 361 76 404 75 404 75 450 111 450 111 493 32 493 32 471 32 450 32 404 -3 404 -3 377 -3 361 -3 316 -39 316 -39 273"/><rect class="cls-1" x="1796" y="165" width="40" height="110" rx="20" transform="translate(256.53 1176.19) rotate(-38.42)"/><rect class="cls-1" x="1645" y="-20" width="110" height="40" rx="20" transform="translate(643.53 1331.87) rotate(-51.58)"/><rect class="cls-1" x="1544" y="671" width="110" height="40" rx="20" transform="translate(63.93 1514.32) rotate(-51.58)"/><rect class="cls-1" x="1211" y="1037" width="110" height="40" rx="20" transform="translate(-348.87 1391.98) rotate(-51.58)"/><rect class="cls-1" x="703" y="373" width="110" height="40" rx="20" transform="translate(-20.96 742.63) rotate(-51.58)"/><rect class="cls-1" x="7" y="881" width="110" height="40" rx="20" transform="translate(-682.42 389.65) rotate(-51.58)"/><rect class="cls-1" x="354" y="821" width="110" height="40" rx="20" transform="translate(-504.06 638.79) rotate(-51.58)"/><rect class="cls-1" x="554" y="61" width="110" height="40" rx="20" transform="translate(167.08 507.79) rotate(-51.58)"/><rect class="cls-1" x="1037" y="611" width="110" height="40" rx="20" transform="translate(-80.98 1094.4) rotate(-51.58)"/><rect class="cls-1" x="1447" y="246" width="40" height="110" rx="20" transform="translate(130.62 976.85) rotate(-38.42)"/><rect class="cls-1" x="1127" y="-15" width="40" height="110" rx="20" transform="matrix(0.78, -0.62, 0.62, 0.78, 223.52, 721.47)"/><rect class="cls-1" x="1900" y="750" width="40" height="110" rx="20" transform="translate(-84.5 1367.51) rotate(-38.42)"/><rect class="cls-1" x="696" y="786" width="40" height="110" rx="20" transform="translate(-367.59 627.07) rotate(-38.42)"/><rect class="cls-1" x="265" y="435" width="40" height="110" rx="20" transform="translate(-242.8 283.22) rotate(-38.42)"/><rect class="cls-3" x="328" y="166" width="1140" height="655" rx="12"/><rect class="cls-1" x="418" y="263" width="1140" height="655" rx="12"/></g><g id="Layer_3" data-name="Layer 3"><path class="cls-4" d="M466.51,297.72l-5,2.95a8.51,8.51,0,0,0-2.66-3.16,7.1,7.1,0,0,0-7.65.61,4.48,4.48,0,0,0-1.68,3.58c0,2,1.47,3.59,4.43,4.8l4.06,1.66a17.45,17.45,0,0,1,7.25,4.89,11,11,0,0,1,2.29,7.08,12.44,12.44,0,0,1-3.74,9.28,12.83,12.83,0,0,1-9.36,3.69A12.54,12.54,0,0,1,445.7,330a14.48,14.48,0,0,1-4.24-8.84l6.22-1.37a10.6,10.6,0,0,0,1.48,5,7,7,0,0,0,10.31.71,6.68,6.68,0,0,0,1.9-4.88,6.81,6.81,0,0,0-.33-2.17,5.59,5.59,0,0,0-1-1.82A8.6,8.6,0,0,0,458.2,315a18.25,18.25,0,0,0-2.63-1.38L451.64,312q-8.37-3.53-8.36-10.33a9.79,9.79,0,0,1,3.51-7.67,12.62,12.62,0,0,1,8.72-3.12Q462.56,290.86,466.51,297.72Z"/><path class="cls-4" d="M492.77,306.69h6v25.68h-6v-2.69a11.41,11.41,0,0,1-16.69-.42,14.34,14.34,0,0,1-3.46-9.81,13.91,13.91,0,0,1,3.46-9.63,11.14,11.14,0,0,1,8.65-3.85,10.91,10.91,0,0,1,8,3.69Zm-14.08,12.76a8.94,8.94,0,0,0,2,6,6.49,6.49,0,0,0,5.11,2.35,6.83,6.83,0,0,0,5.33-2.27,9.76,9.76,0,0,0,0-11.92,6.72,6.72,0,0,0-5.28-2.29,6.55,6.55,0,0,0-5.11,2.32A8.55,8.55,0,0,0,478.69,319.45Zm2-22.55a5.38,5.38,0,0,1,1.69-4A5.73,5.73,0,1,1,490.5,301a5.43,5.43,0,0,1-4,1.69,5.56,5.56,0,0,1-4.09-1.69A5.65,5.65,0,0,1,480.72,296.9Zm3.14.06a2.56,2.56,0,0,0,.75,1.88,2.62,2.62,0,1,0,.83-4.26,2.67,2.67,0,0,0-.83.57,2.64,2.64,0,0,0-.56.83A2.55,2.55,0,0,0,483.86,297Z"/><path class="cls-4" d="M525.15,287.83h6v44.54h-6v-2.69a11.08,11.08,0,0,1-7.94,3.42,11.31,11.31,0,0,1-8.75-3.84,14.34,14.34,0,0,1-3.46-9.81,13.85,13.85,0,0,1,3.46-9.6,11.09,11.09,0,0,1,16.69-.19Zm-14.08,31.62a8.94,8.94,0,0,0,2,6,6.47,6.47,0,0,0,5.11,2.35,6.83,6.83,0,0,0,5.33-2.27,9.76,9.76,0,0,0,0-11.92,6.72,6.72,0,0,0-5.28-2.29,6.53,6.53,0,0,0-5.11,2.32A8.55,8.55,0,0,0,511.07,319.45Z"/><path class="cls-4" d="M557.53,306.69h6v25.68h-6v-2.69a11.41,11.41,0,0,1-16.69-.42,14.29,14.29,0,0,1-3.46-9.81,13.87,13.87,0,0,1,3.46-9.63,11.14,11.14,0,0,1,8.65-3.85,10.94,10.94,0,0,1,8,3.69Zm-14.08,12.76a9,9,0,0,0,2,6,6.51,6.51,0,0,0,5.12,2.35,6.83,6.83,0,0,0,5.33-2.27,9.76,9.76,0,0,0,0-11.92,6.73,6.73,0,0,0-5.28-2.29,6.53,6.53,0,0,0-5.11,2.32A8.5,8.5,0,0,0,543.45,319.45Z"/><path class="cls-4" d="M571,306.69h6v2.37a9.74,9.74,0,0,1,7-3.09,8.84,8.84,0,0,1,7,2.82q2.18,2.4,2.17,7.84v15.74h-6V318q0-3.79-1.06-5.24c-.68-1-1.93-1.48-3.74-1.48a4.57,4.57,0,0,0-4.19,1.95q-1.21,1.92-1.22,6.72v12.4h-6Z"/><path class="cls-4" d="M618.8,329.41a3.67,3.67,0,0,1,7.33,0,3.56,3.56,0,0,1-1.08,2.61,3.51,3.51,0,0,1-2.58,1.05,3.54,3.54,0,0,1-2.61-1.05A3.59,3.59,0,0,1,618.8,329.41Zm.69-6.11V291.66h6V323.3Z"/><path class="cls-4" d="M443.49,462V421.26H452a31.12,31.12,0,0,1,9.71,1.21,18.13,18.13,0,0,1,6.93,4q6.3,5.76,6.3,15.11a19.78,19.78,0,0,1-13.47,19.22,31.27,31.27,0,0,1-9.57,1.14Zm6.14-5.78h2.77a23.05,23.05,0,0,0,6.88-.87,14,14,0,0,0,9.5-13.71,14.15,14.15,0,0,0-4.49-10.86q-4-3.72-11.89-3.72h-2.77Z"/><path class="cls-4" d="M487.5,436.29V451c0,4.26,1.67,6.39,5,6.39s5-2.13,5-6.39V436.29h5.93v14.87a16.52,16.52,0,0,1-.76,5.32,9,9,0,0,1-2.56,3.61,12.43,12.43,0,0,1-15.27,0,9,9,0,0,1-2.61-3.61,14.69,14.69,0,0,1-.74-5.32V436.29Z"/><path class="cls-4" d="M527.65,417.43h5.94v21a10.19,10.19,0,0,1,7-2.85,9,9,0,0,1,7,2.82q2.22,2.46,2.22,7.84V462h-5.93V446.78a7.22,7.22,0,0,0-1.1-4.47,4.22,4.22,0,0,0-3.52-1.38q-3.11,0-4.37,1.92t-1.24,6.7V462h-5.94Z"/><path class="cls-4" d="M576.2,436.29h5.95V462H576.2v-2.69a11.4,11.4,0,0,1-16.7-.42,14.33,14.33,0,0,1-3.45-9.81,13.91,13.91,0,0,1,3.45-9.63,11.17,11.17,0,0,1,8.65-3.85,11,11,0,0,1,8.05,3.69Zm-14.08,12.76a8.94,8.94,0,0,0,2,6,6.51,6.51,0,0,0,5.12,2.35,6.79,6.79,0,0,0,5.32-2.27,9.76,9.76,0,0,0,0-11.92,6.7,6.7,0,0,0-5.27-2.29,6.53,6.53,0,0,0-5.11,2.32A8.5,8.5,0,0,0,562.12,449.05Z"/><path class="cls-4" d="M589.64,436.29h5.94v2.29a11.27,11.27,0,0,1,2.9-2.35,6.63,6.63,0,0,1,3-.66,9.6,9.6,0,0,1,4.91,1.53l-2.72,5.43a5.7,5.7,0,0,0-3.29-1.21q-4.86,0-4.85,7.33V462h-5.94Z"/><path class="cls-4" d="M626.5,417.43h5.94v21a10.21,10.21,0,0,1,7-2.85,9,9,0,0,1,7,2.82q2.22,2.46,2.22,7.84V462h-5.93V446.78a7.22,7.22,0,0,0-1.1-4.47,4.22,4.22,0,0,0-3.52-1.38q-3.1,0-4.37,1.92t-1.24,6.7V462H626.5Z"/><path class="cls-4" d="M679.5,450.52H661.1a7.83,7.83,0,0,0,2,5,6.29,6.29,0,0,0,4.67,1.85,6.11,6.11,0,0,0,3.67-1.06,14.84,14.84,0,0,0,3.24-3.9l5,2.79a19.75,19.75,0,0,1-2.45,3.39,12.94,12.94,0,0,1-2.77,2.32,11.06,11.06,0,0,1-3.19,1.33,15.56,15.56,0,0,1-3.72.43,12.07,12.07,0,0,1-9.23-3.7q-3.48-3.7-3.48-9.86a14.24,14.24,0,0,1,3.38-9.86,12.85,12.85,0,0,1,18-.1q3.27,3.58,3.27,9.94Zm-6.09-4.85q-1.24-4.74-6-4.74a6.13,6.13,0,0,0-2,.33,5.8,5.8,0,0,0-1.73.94,6.13,6.13,0,0,0-1.33,1.49,7.09,7.09,0,0,0-.85,2Z"/><path class="cls-4" d="M691.92,417.43V462H686V417.43Z"/><path class="cls-4" d="M705.55,441.82V462h-5.93V441.82h-2.53v-5.53h2.53v-9.42h5.93v9.42h4.62v5.53Z"/><path class="cls-4" d="M745.79,440.66l-4.91,2.61c-.77-1.58-1.73-2.37-2.87-2.37a2,2,0,0,0-1.4.54,1.83,1.83,0,0,0-.58,1.38c0,1,1.15,2,3.43,2.93q4.72,2,6.36,3.75a6.4,6.4,0,0,1,1.63,4.61,8.07,8.07,0,0,1-2.74,6.22,9.36,9.36,0,0,1-6.44,2.38q-6.45,0-9.15-6.31l5.07-2.34a10.66,10.66,0,0,0,1.61,2.34,3.66,3.66,0,0,0,2.58,1c2,0,3-.92,3-2.75,0-1.05-.78-2-2.32-3l-1.8-.87-1.82-.87a11.25,11.25,0,0,1-3.64-2.53,6.26,6.26,0,0,1-1.34-4.14,7.33,7.33,0,0,1,2.29-5.54,8.07,8.07,0,0,1,5.7-2.19Q743.4,435.57,745.79,440.66Z"/><path class="cls-4" d="M758.89,441.82V462H753V441.82h-2.53v-5.53H753v-9.42h5.93v9.42h4.62v5.53Z"/><path class="cls-4" d="M775.64,457.19l-11.55-20.9H771l7.86,14.76,7.33-14.76h6.69l-20.46,39.65h-6.77Z"/><path class="cls-4" d="M796.89,436.29h5.93v2.29a11.44,11.44,0,0,1,2.9-2.35,6.64,6.64,0,0,1,3.06-.66,9.56,9.56,0,0,1,4.9,1.53L811,442.53a5.72,5.72,0,0,0-3.3-1.21q-4.84,0-4.85,7.33V462h-5.93Z"/><path class="cls-4" d="M839.68,475.94h-5.93V436.29h5.93v2.79a11.25,11.25,0,0,1,16.69.4,14.08,14.08,0,0,1,3.48,9.78,13.86,13.86,0,0,1-3.45,9.62,11.24,11.24,0,0,1-16.72.21Zm14.11-26.66a8.9,8.9,0,0,0-2-6,6.5,6.5,0,0,0-5.12-2.34,6.77,6.77,0,0,0-5.3,2.26,8.63,8.63,0,0,0-2,6,8.79,8.79,0,0,0,2,6,6.66,6.66,0,0,0,5.27,2.3,6.42,6.42,0,0,0,5.09-2.33A8.42,8.42,0,0,0,853.79,449.28Z"/><path class="cls-4" d="M885.06,436.29h6V462h-6v-2.69a11.39,11.39,0,0,1-16.69-.42,14.33,14.33,0,0,1-3.45-9.81,13.91,13.91,0,0,1,3.45-9.63,11.16,11.16,0,0,1,8.65-3.85,10.91,10.91,0,0,1,8,3.69ZM871,449.05a8.94,8.94,0,0,0,2,6,6.49,6.49,0,0,0,5.11,2.35,6.81,6.81,0,0,0,5.33-2.27,9.76,9.76,0,0,0,0-11.92,6.7,6.7,0,0,0-5.27-2.29,6.55,6.55,0,0,0-5.12,2.32A8.55,8.55,0,0,0,871,449.05Zm2-22.55a5.38,5.38,0,0,1,1.69-4,5.73,5.73,0,1,1,8.09,8.12,5.42,5.42,0,0,1-4,1.69,5.56,5.56,0,0,1-4.09-1.69A5.65,5.65,0,0,1,873,426.5Zm3.14.06a2.56,2.56,0,0,0,.75,1.88,2.62,2.62,0,1,0,.83-4.26,2.67,2.67,0,0,0-.83.57,2.46,2.46,0,0,0-.55.83A2.39,2.39,0,0,0,876.15,426.56Z"/><path class="cls-4" d="M915.17,417.43h5.93v21a10.22,10.22,0,0,1,7-2.85,9,9,0,0,1,7,2.82q2.22,2.46,2.22,7.84V462h-5.94V446.78a7.23,7.23,0,0,0-1.09-4.47,4.22,4.22,0,0,0-3.52-1.38q-3.11,0-4.38,1.92c-.82,1.3-1.24,3.53-1.24,6.7V462h-5.93Z"/><path class="cls-4" d="M948,436.29l6.65,14.42,6.62-14.42h6.67l-13.35,27.44-13.23-27.44Z"/><path class="cls-4" d="M969.67,448.94a12.76,12.76,0,0,1,4-9.46,14,14,0,0,1,19.46,0,13.75,13.75,0,0,1,0,19.33,13.63,13.63,0,0,1-9.84,3.88,13,13,0,0,1-9.67-4A13.27,13.27,0,0,1,969.67,448.94Zm6.07.11a8.68,8.68,0,0,0,2,6.09,8,8,0,0,0,11.13,0,9.65,9.65,0,0,0,0-12,7.24,7.24,0,0,0-5.56-2.26,7.16,7.16,0,0,0-5.51,2.26A8.27,8.27,0,0,0,975.74,449.05Z"/><path class="cls-4" d="M1003.34,436.29h5.94v2.29a11.27,11.27,0,0,1,2.9-2.35,6.64,6.64,0,0,1,3.06-.66,9.59,9.59,0,0,1,4.9,1.53l-2.72,5.43a5.7,5.7,0,0,0-3.29-1.21q-4.86,0-4.85,7.33V462h-5.94Z"/><path class="cls-4" d="M1042.1,417.43h6V462h-6v-2.69a11.07,11.07,0,0,1-7.93,3.43,11.33,11.33,0,0,1-8.76-3.85,14.33,14.33,0,0,1-3.45-9.81,13.85,13.85,0,0,1,3.45-9.6,11.05,11.05,0,0,1,8.63-3.88,10.94,10.94,0,0,1,8.06,3.69ZM1028,449.05a8.94,8.94,0,0,0,2,6,6.49,6.49,0,0,0,5.12,2.35,6.81,6.81,0,0,0,5.32-2.27,9.76,9.76,0,0,0,0-11.92,6.7,6.7,0,0,0-5.27-2.29,6.55,6.55,0,0,0-5.12,2.32A8.55,8.55,0,0,0,1028,449.05Z"/><path class="cls-4" d="M1074.48,436.29h6V462h-6v-2.69a11.39,11.39,0,0,1-16.69-.42,14.33,14.33,0,0,1-3.45-9.81,13.91,13.91,0,0,1,3.45-9.63,11.16,11.16,0,0,1,8.65-3.85,10.91,10.91,0,0,1,8,3.69Zm-14.08,12.76a8.94,8.94,0,0,0,2,6,6.49,6.49,0,0,0,5.12,2.35,6.81,6.81,0,0,0,5.32-2.27,9.76,9.76,0,0,0,0-11.92,6.7,6.7,0,0,0-5.27-2.29,6.55,6.55,0,0,0-5.12,2.32A8.55,8.55,0,0,0,1060.4,449.05Z"/><path class="cls-4" d="M1087.93,436.29h6v2.37a9.7,9.7,0,0,1,7-3.09,8.86,8.86,0,0,1,7,2.82q2.16,2.4,2.16,7.84V462h-6V447.62q0-3.8-1-5.24c-.69-1-1.94-1.48-3.75-1.48a4.59,4.59,0,0,0-4.19,2c-.81,1.28-1.21,3.53-1.21,6.72V462h-6Z"/><path class="cls-4" d="M1153.14,417.43h5.95V462h-5.95v-2.69a11.11,11.11,0,0,1-7.94,3.43,11.31,11.31,0,0,1-8.75-3.85,14.29,14.29,0,0,1-3.46-9.81,13.81,13.81,0,0,1,3.46-9.6,11.09,11.09,0,0,1,16.69-.19Zm-14.08,31.62a8.94,8.94,0,0,0,2,6,6.51,6.51,0,0,0,5.12,2.35,6.79,6.79,0,0,0,5.32-2.27,9.76,9.76,0,0,0,0-11.92,6.7,6.7,0,0,0-5.27-2.29,6.53,6.53,0,0,0-5.11,2.32A8.5,8.5,0,0,0,1139.06,449.05Z"/><path class="cls-4" d="M1190,450.52h-18.4a7.78,7.78,0,0,0,2,5,6.29,6.29,0,0,0,4.67,1.85,6.11,6.11,0,0,0,3.67-1.06,15,15,0,0,0,3.24-3.9l5,2.79a20.3,20.3,0,0,1-2.45,3.39A13.19,13.19,0,0,1,1185,461a11.06,11.06,0,0,1-3.19,1.33,15.62,15.62,0,0,1-3.72.43,12.07,12.07,0,0,1-9.23-3.7q-3.48-3.7-3.48-9.86a14.24,14.24,0,0,1,3.38-9.86,12.85,12.85,0,0,1,18-.1q3.27,3.58,3.27,9.94Zm-6.09-4.85c-.83-3.16-2.82-4.74-6-4.74a6.17,6.17,0,0,0-2,.33,5.82,5.82,0,0,0-3,2.43,7.09,7.09,0,0,0-.85,2Z"/><path class="cls-4" d="M1196.46,436.29h6v2.37a9.7,9.7,0,0,1,7-3.09,8.86,8.86,0,0,1,7,2.82q2.16,2.4,2.16,7.84V462h-6V447.62q0-3.8-1-5.24c-.69-1-1.94-1.48-3.75-1.48a4.58,4.58,0,0,0-4.19,2c-.81,1.28-1.21,3.53-1.21,6.72V462h-6Z"/><path class="cls-4" d="M1257.66,440.66l-4.91,2.61c-.77-1.58-1.73-2.37-2.87-2.37a2,2,0,0,0-1.4.54,1.79,1.79,0,0,0-.58,1.38c0,1,1.14,2,3.43,2.93q4.71,2,6.35,3.75a6.4,6.4,0,0,1,1.64,4.61,8.08,8.08,0,0,1-2.75,6.22,9.34,9.34,0,0,1-6.43,2.38q-6.47,0-9.15-6.31l5.06-2.34a11,11,0,0,0,1.61,2.34,3.67,3.67,0,0,0,2.59,1c2,0,3-.92,3-2.75,0-1.05-.77-2-2.32-3-.6-.3-1.19-.59-1.79-.87l-1.82-.87a11.14,11.14,0,0,1-3.64-2.53,6.21,6.21,0,0,1-1.34-4.14,7.33,7.33,0,0,1,2.29-5.54,8,8,0,0,1,5.7-2.19Q1255.25,435.57,1257.66,440.66Z"/><path class="cls-4" d="M1270.58,417.43v27.16l8.35-8.3h8l-11.16,10.78,12,14.9H1280l-8.49-10.84-.94.95V462h-5.94V417.43Z"/><path class="cls-4" d="M1309.55,436.29h6V462h-6v-2.69a11.39,11.39,0,0,1-16.69-.42,14.29,14.29,0,0,1-3.46-9.81,13.87,13.87,0,0,1,3.46-9.63,11.14,11.14,0,0,1,8.64-3.85,11,11,0,0,1,8,3.69Zm-14.08,12.76a8.94,8.94,0,0,0,2,6,6.51,6.51,0,0,0,5.12,2.35,6.79,6.79,0,0,0,5.32-2.27,9.73,9.73,0,0,0,0-11.92,6.7,6.7,0,0,0-5.27-2.29,6.53,6.53,0,0,0-5.11,2.32A8.5,8.5,0,0,0,1295.47,449.05Z"/><path class="cls-4" d="M1328.93,417.43V462H1323V417.43Z"/><path class="cls-4" d="M1359,417.43v27.16l8.36-8.3h8l-11.15,10.78,12,14.9h-7.7L1360,451.13l-1,.95V462h-5.94V417.43Z"/><path class="cls-4" d="M1385.93,417.43V462H1380V417.43Z"/><path class="cls-4" d="M1412.38,436.29h6V462h-6v-2.69a11.39,11.39,0,0,1-16.69-.42,14.29,14.29,0,0,1-3.46-9.81,13.87,13.87,0,0,1,3.46-9.63,11.14,11.14,0,0,1,8.65-3.85,10.94,10.94,0,0,1,8,3.69Zm-14.08,12.76a8.94,8.94,0,0,0,2,6,6.47,6.47,0,0,0,5.11,2.35,6.83,6.83,0,0,0,5.33-2.27,9.76,9.76,0,0,0,0-11.92,6.72,6.72,0,0,0-5.28-2.29,6.53,6.53,0,0,0-5.11,2.32A8.5,8.5,0,0,0,1398.3,449.05Z"/><path class="cls-4" d="M1425.83,436.29h5.93v2.29a11.27,11.27,0,0,1,2.9-2.35,6.64,6.64,0,0,1,3.06-.66,9.56,9.56,0,0,1,4.9,1.53l-2.71,5.43a5.75,5.75,0,0,0-3.3-1.21q-4.84,0-4.85,7.33V462h-5.93Z"/><path class="cls-4" d="M1469,450.52h-18.4a7.78,7.78,0,0,0,2,5,6.29,6.29,0,0,0,4.67,1.85,6.11,6.11,0,0,0,3.67-1.06,15,15,0,0,0,3.24-3.9l5,2.79a20.3,20.3,0,0,1-2.45,3.39,13.19,13.19,0,0,1-2.77,2.32,11.06,11.06,0,0,1-3.19,1.33,15.62,15.62,0,0,1-3.72.43,12.07,12.07,0,0,1-9.23-3.7q-3.48-3.7-3.48-9.86a14.24,14.24,0,0,1,3.38-9.86,12.85,12.85,0,0,1,18-.1q3.27,3.58,3.27,9.94Zm-6.09-4.85c-.83-3.16-2.82-4.74-6-4.74a6.17,6.17,0,0,0-2,.33,5.88,5.88,0,0,0-1.72.94,6.13,6.13,0,0,0-1.33,1.49,7.09,7.09,0,0,0-.85,2Z"/><path class="cls-4" d="M1490.45,440.66l-4.9,2.61c-.78-1.58-1.73-2.37-2.88-2.37a2,2,0,0,0-1.39.54,1.79,1.79,0,0,0-.58,1.38c0,1,1.14,2,3.42,2.93q4.73,2,6.36,3.75a6.4,6.4,0,0,1,1.63,4.61,8.07,8.07,0,0,1-2.74,6.22,9.35,9.35,0,0,1-6.43,2.38q-6.46,0-9.15-6.31l5.06-2.34a10.66,10.66,0,0,0,1.61,2.34,3.66,3.66,0,0,0,2.58,1c2,0,3-.92,3-2.75,0-1.05-.78-2-2.32-3l-1.8-.87-1.81-.87a11,11,0,0,1-3.64-2.53,6.21,6.21,0,0,1-1.35-4.14,7.34,7.34,0,0,1,2.3-5.54,8,8,0,0,1,5.69-2.19Q1488.06,435.57,1490.45,440.66Z"/><path class="cls-4" d="M1498.36,459a3.49,3.49,0,0,1,1.08-2.55,3.68,3.68,0,1,1-1.08,2.55Z"/><path class="cls-4" d="M443.49,526.77V486.06H452a31.12,31.12,0,0,1,9.71,1.21,18.13,18.13,0,0,1,6.93,4q6.3,5.76,6.3,15.11a19.78,19.78,0,0,1-13.47,19.22,31.27,31.27,0,0,1-9.57,1.14Zm6.14-5.78h2.77a23.05,23.05,0,0,0,6.88-.87,14,14,0,0,0,9.5-13.71,14.15,14.15,0,0,0-4.49-10.86q-4-3.72-11.89-3.72h-2.77Z"/><path class="cls-4" d="M505,515.32h-18.4a7.83,7.83,0,0,0,2.05,5,6.29,6.29,0,0,0,4.67,1.85,6.11,6.11,0,0,0,3.67-1.06,15,15,0,0,0,3.24-3.9l5,2.79a19.75,19.75,0,0,1-2.45,3.39,12.94,12.94,0,0,1-2.77,2.32,11.06,11.06,0,0,1-3.19,1.33,15.62,15.62,0,0,1-3.72.43,12.07,12.07,0,0,1-9.23-3.7q-3.48-3.7-3.48-9.86a14.24,14.24,0,0,1,3.38-9.86,12.85,12.85,0,0,1,18-.1q3.27,3.58,3.27,9.94Zm-6.09-4.85q-1.25-4.74-6-4.74a6.19,6.19,0,0,0-2,.33,5.88,5.88,0,0,0-1.72.94,6.13,6.13,0,0,0-1.33,1.49,7.09,7.09,0,0,0-.85,2Z"/><path class="cls-4" d="M518,506.62v20.15H512.1V506.62h-2.53v-5.53h2.53v-9.42H518v9.42h4.61v5.53Z"/><path class="cls-4" d="M566.73,515.32h-18.4a7.78,7.78,0,0,0,2,5,6.28,6.28,0,0,0,4.67,1.85,6.06,6.06,0,0,0,3.66-1.06,15,15,0,0,0,3.25-3.9l5,2.79a19.77,19.77,0,0,1-2.46,3.39,12.89,12.89,0,0,1-2.76,2.32,11.06,11.06,0,0,1-3.19,1.33,15.69,15.69,0,0,1-3.72.43,12.07,12.07,0,0,1-9.23-3.7q-3.48-3.7-3.48-9.86a14.23,14.23,0,0,1,3.37-9.86,12.86,12.86,0,0,1,18-.1q3.27,3.58,3.27,9.94Zm-6.09-4.85c-.83-3.16-2.82-4.74-6-4.74a6.17,6.17,0,0,0-2,.33,5.75,5.75,0,0,0-1.72.94,6.17,6.17,0,0,0-1.34,1.49,7.08,7.08,0,0,0-.84,2Z"/><path class="cls-4" d="M573.22,501.09h5.93v2.29a11.44,11.44,0,0,1,2.9-2.35,6.64,6.64,0,0,1,3.06-.66,9.56,9.56,0,0,1,4.9,1.53l-2.71,5.43a5.75,5.75,0,0,0-3.3-1.21q-4.85,0-4.85,7.33v13.32h-5.93Z"/><path class="cls-4" d="M629,501.09h6v25.68h-6v-2.69a11.39,11.39,0,0,1-16.69-.42,14.34,14.34,0,0,1-3.46-9.81,13.91,13.91,0,0,1,3.46-9.63,11.14,11.14,0,0,1,8.65-3.85,10.91,10.91,0,0,1,8,3.69Zm-14.08,12.76a8.94,8.94,0,0,0,2,6,6.47,6.47,0,0,0,5.11,2.35,6.83,6.83,0,0,0,5.33-2.27,9.76,9.76,0,0,0,0-11.92,6.72,6.72,0,0,0-5.28-2.29,6.55,6.55,0,0,0-5.11,2.32A8.55,8.55,0,0,0,614.93,513.85Z"/><path class="cls-4" d="M648.39,482.23v44.54h-5.93V482.23Z"/><path class="cls-4" d="M662,506.62v20.15h-5.93V506.62h-2.53v-5.53h2.53v-9.42H662v9.42h4.61v5.53Z"/><path class="cls-4" d="M669.77,490.41a3.89,3.89,0,0,1,3.85-3.83,3.71,3.71,0,0,1,2.74,1.14,3.63,3.63,0,0,1,1.14,2.71,3.74,3.74,0,0,1-1.14,2.75,3.65,3.65,0,0,1-2.71,1.13,3.88,3.88,0,0,1-3.88-3.9Zm6.83,10.68v25.68h-5.93V501.09Z"/><path class="cls-4" d="M703.05,482.23h6v44.54h-6v-2.69a11.11,11.11,0,0,1-7.94,3.43,11.32,11.32,0,0,1-8.75-3.85,14.29,14.29,0,0,1-3.46-9.81,13.82,13.82,0,0,1,3.46-9.6,11.09,11.09,0,0,1,16.69-.19ZM689,513.85a8.94,8.94,0,0,0,2,6,6.47,6.47,0,0,0,5.11,2.35,6.83,6.83,0,0,0,5.33-2.27,9.76,9.76,0,0,0,0-11.92,6.72,6.72,0,0,0-5.28-2.29,6.53,6.53,0,0,0-5.11,2.32A8.5,8.5,0,0,0,689,513.85Z"/><path class="cls-4" d="M756.55,515.32H738.14a7.84,7.84,0,0,0,2.06,5,6.28,6.28,0,0,0,4.67,1.85,6.1,6.1,0,0,0,3.66-1.06,14.84,14.84,0,0,0,3.24-3.9l5,2.79a19.75,19.75,0,0,1-2.45,3.39,12.7,12.7,0,0,1-2.77,2.32,10.83,10.83,0,0,1-3.19,1.33,15.54,15.54,0,0,1-3.71.43,12.05,12.05,0,0,1-9.23-3.7Q732,520.11,732,514a14.23,14.23,0,0,1,3.37-9.86,11.63,11.63,0,0,1,9-3.72,11.51,11.51,0,0,1,9,3.62q3.27,3.58,3.27,9.94Zm-6.09-4.85q-1.25-4.74-6-4.74a6.13,6.13,0,0,0-2,.33,5.93,5.93,0,0,0-1.73.94,6.13,6.13,0,0,0-1.33,1.49,6.8,6.8,0,0,0-.84,2Z"/><path class="cls-4" d="M763,501.09h6v2.37a9.73,9.73,0,0,1,7-3.09,8.86,8.86,0,0,1,7,2.82c1.44,1.6,2.17,4.21,2.17,7.84v15.74h-6V512.42c0-2.53-.36-4.28-1.06-5.24s-1.93-1.48-3.74-1.48a4.57,4.57,0,0,0-4.19,1.95c-.81,1.28-1.22,3.53-1.22,6.72v12.4h-6Z"/><path class="cls-4" d="M834.15,526.16c0,1.21,0,2.28-.12,3.2a22.3,22.3,0,0,1-.33,2.44,10.85,10.85,0,0,1-2.48,5q-3.48,4-9.57,4a12.82,12.82,0,0,1-8.47-2.76,11.34,11.34,0,0,1-3.95-7.89h6a6.75,6.75,0,0,0,1.13,2.93,6.37,6.37,0,0,0,5.38,2.4q6.51,0,6.51-8v-3.59a11.07,11.07,0,0,1-8.14,3.62,11,11,0,0,1-8.6-3.8,14.1,14.1,0,0,1-3.38-9.63,14.82,14.82,0,0,1,3.14-9.54,10.9,10.9,0,0,1,8.91-4.17,10.34,10.34,0,0,1,8.07,3.62v-2.9h5.94ZM828.45,514a8.69,8.69,0,0,0-2-6,6.64,6.64,0,0,0-5.2-2.29,6.37,6.37,0,0,0-5.32,2.5,9.1,9.1,0,0,0-1.77,5.81,9,9,0,0,0,1.77,5.74,6.37,6.37,0,0,0,5.32,2.46,6.52,6.52,0,0,0,5.38-2.48A8.86,8.86,0,0,0,828.45,514Z"/><path class="cls-4" d="M840.42,513.74a12.76,12.76,0,0,1,4-9.46,14,14,0,0,1,19.46,0,13.74,13.74,0,0,1,0,19.33,13.62,13.62,0,0,1-9.83,3.88,13,13,0,0,1-9.68-4A13.3,13.3,0,0,1,840.42,513.74Zm6.07.11a8.68,8.68,0,0,0,2,6.09,8,8,0,0,0,11.13,0,9.65,9.65,0,0,0,0-12,7.92,7.92,0,0,0-11.08,0A8.3,8.3,0,0,0,846.49,513.85Z"/><path class="cls-4" d="M893,482.23h6v44.54h-6v-2.69a11.07,11.07,0,0,1-7.93,3.43,11.33,11.33,0,0,1-8.76-3.85,14.33,14.33,0,0,1-3.45-9.81,13.86,13.86,0,0,1,3.45-9.6,11.05,11.05,0,0,1,8.63-3.88,10.94,10.94,0,0,1,8.06,3.69Zm-14.08,31.62a8.94,8.94,0,0,0,2,6,6.49,6.49,0,0,0,5.12,2.35,6.81,6.81,0,0,0,5.32-2.27,9.76,9.76,0,0,0,0-11.92,6.7,6.7,0,0,0-5.27-2.29,6.55,6.55,0,0,0-5.12,2.32A8.55,8.55,0,0,0,878.94,513.85Z"/><path class="cls-4" d="M922.24,490.41a3.88,3.88,0,0,1,3.85-3.83,3.73,3.73,0,0,1,2.74,1.14,3.62,3.62,0,0,1,1.13,2.71,3.73,3.73,0,0,1-1.13,2.75,3.67,3.67,0,0,1-2.72,1.13,3.86,3.86,0,0,1-3.87-3.9Zm6.83,10.68v25.68h-5.94V501.09Z"/><path class="cls-4" d="M955.51,482.23h6v44.54h-6v-2.69a11.07,11.07,0,0,1-7.93,3.43,11.33,11.33,0,0,1-8.76-3.85,14.33,14.33,0,0,1-3.45-9.81,13.86,13.86,0,0,1,3.45-9.6,11.05,11.05,0,0,1,8.63-3.88,10.94,10.94,0,0,1,8.06,3.69Zm-14.08,31.62a8.94,8.94,0,0,0,2,6,6.49,6.49,0,0,0,5.12,2.35,6.81,6.81,0,0,0,5.32-2.27,9.76,9.76,0,0,0,0-11.92,6.7,6.7,0,0,0-5.27-2.29,6.55,6.55,0,0,0-5.12,2.32A8.55,8.55,0,0,0,941.43,513.85Z"/><path class="cls-4" d="M992.35,515.32H973.94a7.84,7.84,0,0,0,2.06,5,6.28,6.28,0,0,0,4.67,1.85,6.08,6.08,0,0,0,3.66-1.06,15,15,0,0,0,3.25-3.9l5,2.79a19.77,19.77,0,0,1-2.46,3.39,12.89,12.89,0,0,1-2.76,2.32,11,11,0,0,1-3.2,1.33,15.54,15.54,0,0,1-3.71.43,12.05,12.05,0,0,1-9.23-3.7q-3.48-3.7-3.48-9.86a14.23,14.23,0,0,1,3.37-9.86,12.86,12.86,0,0,1,18-.1q3.27,3.58,3.27,9.94Zm-6.09-4.85c-.83-3.16-2.82-4.74-6-4.74a6.17,6.17,0,0,0-2,.33,5.75,5.75,0,0,0-1.72.94,6.17,6.17,0,0,0-1.34,1.49,6.8,6.8,0,0,0-.84,2Z"/><path class="cls-4" d="M1034.43,501.09h6v25.68h-6v-2.69a11.39,11.39,0,0,1-16.69-.42,14.33,14.33,0,0,1-3.45-9.81,13.91,13.91,0,0,1,3.45-9.63,11.16,11.16,0,0,1,8.65-3.85,10.91,10.91,0,0,1,8,3.69Zm-14.08,12.76a8.94,8.94,0,0,0,2,6,6.49,6.49,0,0,0,5.11,2.35,6.81,6.81,0,0,0,5.33-2.27,9.76,9.76,0,0,0,0-11.92,6.7,6.7,0,0,0-5.27-2.29,6.55,6.55,0,0,0-5.12,2.32A8.55,8.55,0,0,0,1020.35,513.85Z"/><path class="cls-4" d="M1054,506.62v20.15h-5.94V506.62h-2.53v-5.53h2.53v-9.42H1054v9.42h4.61v5.53Z"/><path class="cls-4" d="M1085.42,506.62v20.15h-5.93V506.62H1077v-5.53h2.53v-9.42h5.93v9.42H1090v5.53Z"/><path class="cls-4" d="M1113.48,501.09h6v25.68h-6v-2.69a11.39,11.39,0,0,1-16.69-.42,14.34,14.34,0,0,1-3.46-9.81,13.91,13.91,0,0,1,3.46-9.63,11.14,11.14,0,0,1,8.65-3.85,10.91,10.91,0,0,1,8,3.69Zm-14.08,12.76a8.94,8.94,0,0,0,2,6,6.49,6.49,0,0,0,5.11,2.35,6.83,6.83,0,0,0,5.33-2.27,9.76,9.76,0,0,0,0-11.92,6.72,6.72,0,0,0-5.28-2.29,6.55,6.55,0,0,0-5.11,2.32A8.55,8.55,0,0,0,1099.4,513.85Z"/><path class="cls-4" d="M1151.76,526.16c0,1.21,0,2.28-.11,3.2a22.3,22.3,0,0,1-.33,2.44,10.94,10.94,0,0,1-2.48,5q-3.48,4-9.57,4a12.82,12.82,0,0,1-8.47-2.76,11.34,11.34,0,0,1-4-7.89h6a6.75,6.75,0,0,0,1.13,2.93,6.37,6.37,0,0,0,5.38,2.4q6.51,0,6.51-8v-3.59a11.07,11.07,0,0,1-8.15,3.62,10.94,10.94,0,0,1-8.59-3.8,14.1,14.1,0,0,1-3.38-9.63,14.82,14.82,0,0,1,3.14-9.54,10.9,10.9,0,0,1,8.91-4.17,10.34,10.34,0,0,1,8.07,3.62v-2.9h5.93ZM1146.07,514a8.69,8.69,0,0,0-2-6,6.64,6.64,0,0,0-5.2-2.29,6.4,6.4,0,0,0-5.33,2.5,9.16,9.16,0,0,0-1.76,5.81,9,9,0,0,0,1.76,5.74,6.4,6.4,0,0,0,5.33,2.46,6.52,6.52,0,0,0,5.38-2.48A8.86,8.86,0,0,0,1146.07,514Z"/><path class="cls-4" d="M1182.64,515.32h-18.4a7.78,7.78,0,0,0,2,5,6.29,6.29,0,0,0,4.67,1.85,6.06,6.06,0,0,0,3.66-1.06,14.83,14.83,0,0,0,3.25-3.9l5,2.79a20.3,20.3,0,0,1-2.45,3.39,13.19,13.19,0,0,1-2.77,2.32,11.06,11.06,0,0,1-3.19,1.33,15.69,15.69,0,0,1-3.72.43,12.07,12.07,0,0,1-9.23-3.7q-3.48-3.7-3.48-9.86a14.24,14.24,0,0,1,3.38-9.86,12.85,12.85,0,0,1,18-.1q3.27,3.58,3.27,9.94Zm-6.09-4.85c-.83-3.16-2.82-4.74-6-4.74a6.17,6.17,0,0,0-2,.33,5.82,5.82,0,0,0-3,2.43,7.09,7.09,0,0,0-.85,2Z"/><path class="cls-4" d="M1211.93,506.62v20.15h-6V506.62h-2.11v-5.53H1206v-9.92c0-3.23.56-5.52,1.68-6.85a8.26,8.26,0,0,1,6.75-2.8,11.68,11.68,0,0,1,4,.92v6.07l-.6-.32a7.46,7.46,0,0,0-3.17-1,2.13,2.13,0,0,0-2.13,1.13,10.87,10.87,0,0,0-.56,4.27v8.47h6.46v5.53Z"/><path class="cls-4" d="M1241.57,501.09h6v25.68h-6v-2.69a11.39,11.39,0,0,1-16.69-.42,14.33,14.33,0,0,1-3.45-9.81,13.91,13.91,0,0,1,3.45-9.63,11.16,11.16,0,0,1,8.65-3.85,10.91,10.91,0,0,1,8,3.69Zm-14.08,12.76a8.94,8.94,0,0,0,2,6,6.49,6.49,0,0,0,5.11,2.35,6.81,6.81,0,0,0,5.33-2.27,9.76,9.76,0,0,0,0-11.92,6.7,6.7,0,0,0-5.27-2.29,6.55,6.55,0,0,0-5.12,2.32A8.55,8.55,0,0,0,1227.49,513.85Z"/><path class="cls-4" d="M1261.14,506.62v20.15h-5.94V506.62h-2.53v-5.53h2.53v-9.42h5.94v9.42h4.61v5.53Z"/><path class="cls-4" d="M1285.55,490.41a3.89,3.89,0,0,1,3.85-3.83,3.71,3.71,0,0,1,2.74,1.14,3.63,3.63,0,0,1,1.14,2.71,3.74,3.74,0,0,1-1.14,2.75,3.65,3.65,0,0,1-2.71,1.13,3.88,3.88,0,0,1-3.88-3.9Zm6.83,10.68v25.68h-5.93V501.09Z"/><path class="cls-4" d="M1340,515.32h-18.41a7.84,7.84,0,0,0,2.06,5,6.28,6.28,0,0,0,4.67,1.85,6.1,6.1,0,0,0,3.66-1.06,14.84,14.84,0,0,0,3.24-3.9l5,2.79a19.75,19.75,0,0,1-2.45,3.39,12.7,12.7,0,0,1-2.77,2.32,10.83,10.83,0,0,1-3.19,1.33,15.54,15.54,0,0,1-3.71.43,12.05,12.05,0,0,1-9.23-3.7q-3.48-3.7-3.48-9.86a14.23,14.23,0,0,1,3.37-9.86,11.65,11.65,0,0,1,9-3.72,11.51,11.51,0,0,1,9,3.62q3.27,3.58,3.27,9.94Zm-6.09-4.85c-.83-3.16-2.82-4.74-6-4.74a6.13,6.13,0,0,0-2,.33,5.93,5.93,0,0,0-1.73.94,6.13,6.13,0,0,0-1.33,1.49,6.8,6.8,0,0,0-.84,2Z"/><path class="cls-4" d="M1346.43,501.09h6v2.37a9.73,9.73,0,0,1,7-3.09,8.86,8.86,0,0,1,7,2.82c1.44,1.6,2.17,4.21,2.17,7.84v15.74h-6V512.42q0-3.79-1.06-5.24c-.68-1-1.93-1.48-3.74-1.48a4.57,4.57,0,0,0-4.19,1.95c-.81,1.28-1.22,3.53-1.22,6.72v12.4h-6Z"/><path class="cls-4" d="M445.55,565.88l6.64,14.43,6.62-14.43h6.67l-13.34,27.45L438.9,565.88Z"/><path class="cls-4" d="M467.25,578.54a12.72,12.72,0,0,1,4-9.46,14,14,0,0,1,19.46,0,13.76,13.76,0,0,1,0,19.33,13.61,13.61,0,0,1-9.83,3.87,13,13,0,0,1-9.68-3.95A13.3,13.3,0,0,1,467.25,578.54Zm6.06.11a8.69,8.69,0,0,0,2.06,6.09,8,8,0,0,0,11.12,0,9.61,9.61,0,0,0,0-12,7.91,7.91,0,0,0-11.07,0A8.27,8.27,0,0,0,473.31,578.65Z"/><path class="cls-4" d="M506.85,547v27.16l8.36-8.31h8L512,576.67l12,14.9h-7.7l-8.49-10.84-.95.95v9.89h-5.93V547Z"/><path class="cls-4" d="M542.74,570.26l-4.91,2.61c-.77-1.58-1.73-2.37-2.87-2.37a2,2,0,0,0-1.4.54,1.79,1.79,0,0,0-.58,1.38c0,1,1.14,2,3.43,2.93,3.14,1.36,5.26,2.6,6.35,3.75a6.4,6.4,0,0,1,1.64,4.61,8.08,8.08,0,0,1-2.75,6.22,9.33,9.33,0,0,1-6.43,2.37c-4.31,0-7.36-2.09-9.15-6.3l5.06-2.34a11,11,0,0,0,1.61,2.34,3.67,3.67,0,0,0,2.59,1c2,0,3-.92,3-2.75,0-1-.77-2-2.32-3-.6-.3-1.19-.59-1.79-.87l-1.82-.87a11.14,11.14,0,0,1-3.64-2.53,6.21,6.21,0,0,1-1.34-4.14,7.33,7.33,0,0,1,2.29-5.54,8,8,0,0,1,5.7-2.19Q540.33,565.17,542.74,570.26Z"/><path class="cls-4" d="M573.11,580.12h-18.4a7.78,7.78,0,0,0,2,5,6.29,6.29,0,0,0,4.67,1.85,6.06,6.06,0,0,0,3.66-1.06,15,15,0,0,0,3.25-3.9l5,2.79a20.3,20.3,0,0,1-2.45,3.39,13.19,13.19,0,0,1-2.77,2.32,11.06,11.06,0,0,1-3.19,1.33,15.7,15.7,0,0,1-3.72.42,12.06,12.06,0,0,1-9.23-3.69q-3.48-3.72-3.48-9.86a14.23,14.23,0,0,1,3.37-9.86,12.86,12.86,0,0,1,18-.1q3.27,3.59,3.27,9.94ZM567,575.27c-.83-3.16-2.82-4.74-6-4.74a6.17,6.17,0,0,0-2,.33,5.75,5.75,0,0,0-1.72.94,5.93,5.93,0,0,0-1.33,1.49,6.93,6.93,0,0,0-.85,2Z"/><path class="cls-4" d="M579.6,565.88h6v2.38a9.7,9.7,0,0,1,7-3.09,8.86,8.86,0,0,1,7,2.82c1.44,1.6,2.16,4.22,2.16,7.84v15.74h-6V577.22q0-3.79-1-5.24c-.69-1-1.94-1.48-3.75-1.48a4.57,4.57,0,0,0-4.19,2q-1.21,1.92-1.21,6.72v12.4h-6Z"/><path class="cls-4" d="M612.87,584l5.28,2-7.52,15.06-4-1.66Z"/><path class="cls-4" d="M657.46,570.26l-4.91,2.61c-.77-1.58-1.73-2.37-2.87-2.37a2,2,0,0,0-1.4.54,1.83,1.83,0,0,0-.58,1.38c0,1,1.15,2,3.43,2.93,3.15,1.36,5.27,2.6,6.36,3.75a6.4,6.4,0,0,1,1.63,4.61,8.07,8.07,0,0,1-2.74,6.22,9.35,9.35,0,0,1-6.44,2.37c-4.3,0-7.35-2.09-9.15-6.3l5.07-2.34a10.66,10.66,0,0,0,1.61,2.34,3.66,3.66,0,0,0,2.58,1c2,0,3-.92,3-2.75,0-1-.78-2-2.32-3l-1.8-.87-1.82-.87a11.25,11.25,0,0,1-3.64-2.53,6.26,6.26,0,0,1-1.34-4.14,7.33,7.33,0,0,1,2.29-5.54,8.07,8.07,0,0,1,5.7-2.19Q655.06,565.17,657.46,570.26Z"/><path class="cls-4" d="M683.38,565.88h6v25.69h-6v-2.69a11.41,11.41,0,0,1-16.69-.42,14.29,14.29,0,0,1-3.46-9.81,13.87,13.87,0,0,1,3.46-9.63,11.14,11.14,0,0,1,8.65-3.85,10.92,10.92,0,0,1,8,3.7ZM669.3,578.65a8.94,8.94,0,0,0,2,6,6.47,6.47,0,0,0,5.11,2.35,6.83,6.83,0,0,0,5.33-2.27,9.76,9.76,0,0,0,0-11.92,6.72,6.72,0,0,0-5.28-2.29,6.53,6.53,0,0,0-5.11,2.32A8.5,8.5,0,0,0,669.3,578.65Zm2-22.55a5.38,5.38,0,0,1,1.69-4,5.73,5.73,0,1,1,8.09,8.12,5.43,5.43,0,0,1-4,1.69,5.55,5.55,0,0,1-4.09-1.69A5.65,5.65,0,0,1,671.33,556.1Zm3.14.06a2.56,2.56,0,0,0,.75,1.88,2.67,2.67,0,0,0,3.71,0,2.62,2.62,0,0,0-2.88-4.26,2.56,2.56,0,0,0-.83.57,2.64,2.64,0,0,0-.56.83A2.55,2.55,0,0,0,674.47,556.16Z"/><path class="cls-4" d="M728.41,570.26l-4.9,2.61q-1.15-2.37-2.88-2.37a2,2,0,0,0-1.39.54,1.79,1.79,0,0,0-.58,1.38c0,1,1.14,2,3.42,2.93,3.15,1.36,5.27,2.6,6.36,3.75a6.4,6.4,0,0,1,1.63,4.61,8.07,8.07,0,0,1-2.74,6.22,9.33,9.33,0,0,1-6.43,2.37c-4.31,0-7.36-2.09-9.15-6.3l5.06-2.34a10.66,10.66,0,0,0,1.61,2.34,3.66,3.66,0,0,0,2.58,1c2,0,3-.92,3-2.75,0-1-.77-2-2.32-3l-1.79-.87-1.82-.87a11,11,0,0,1-3.64-2.53,6.21,6.21,0,0,1-1.35-4.14,7.34,7.34,0,0,1,2.3-5.54,8,8,0,0,1,5.69-2.19Q726,565.17,728.41,570.26Z"/><path class="cls-4" d="M741.33,605.54H735.4V565.88h5.93v2.8a11.25,11.25,0,0,1,16.69.4,14.08,14.08,0,0,1,3.48,9.78,13.86,13.86,0,0,1-3.45,9.62,11.26,11.26,0,0,1-16.72.21Zm14.11-26.66a8.9,8.9,0,0,0-2-6,6.5,6.5,0,0,0-5.12-2.34,6.77,6.77,0,0,0-5.3,2.26,8.63,8.63,0,0,0-2,6,8.79,8.79,0,0,0,2,6,6.66,6.66,0,0,0,5.27,2.3,6.44,6.44,0,0,0,5.09-2.32A8.44,8.44,0,0,0,755.44,578.88Z"/><path class="cls-4" d="M767.78,565.88h5.93v2.3a11.44,11.44,0,0,1,2.9-2.35,6.64,6.64,0,0,1,3.06-.66,9.6,9.6,0,0,1,4.91,1.53l-2.72,5.43a5.72,5.72,0,0,0-3.3-1.21q-4.84,0-4.85,7.33v13.32h-5.93Z"/><path class="cls-4" d="M811,580.12H792.59a7.79,7.79,0,0,0,2.06,5,6.27,6.27,0,0,0,4.66,1.85A6.11,6.11,0,0,0,803,586a14.84,14.84,0,0,0,3.24-3.9l5,2.79a19.75,19.75,0,0,1-2.45,3.39,12.7,12.7,0,0,1-2.77,2.32,10.94,10.94,0,0,1-3.19,1.33,15.58,15.58,0,0,1-3.72.42,12,12,0,0,1-9.22-3.69q-3.5-3.72-3.49-9.86a14.24,14.24,0,0,1,3.38-9.86,12.85,12.85,0,0,1,18-.1q3.27,3.59,3.27,9.94Zm-6.1-4.85c-.82-3.16-2.82-4.74-6-4.74a6.13,6.13,0,0,0-2,.33,5.93,5.93,0,0,0-1.73.94,6.13,6.13,0,0,0-1.33,1.49,6.91,6.91,0,0,0-.84,2Z"/><path class="cls-4" d="M836.41,547h6v44.54h-6v-2.69a11.06,11.06,0,0,1-7.93,3.42,11.32,11.32,0,0,1-8.76-3.84,14.33,14.33,0,0,1-3.45-9.81,13.85,13.85,0,0,1,3.45-9.6,11.08,11.08,0,0,1,16.69-.18Zm-14.08,31.62a8.94,8.94,0,0,0,2,6,6.49,6.49,0,0,0,5.12,2.35,6.81,6.81,0,0,0,5.32-2.27,9.76,9.76,0,0,0,0-11.92,6.7,6.7,0,0,0-5.27-2.29,6.55,6.55,0,0,0-5.12,2.32A8.55,8.55,0,0,0,822.33,578.65Z"/><path class="cls-4" d="M849.86,565.88h6v2.38a9.7,9.7,0,0,1,7-3.09,8.86,8.86,0,0,1,7,2.82c1.44,1.6,2.16,4.22,2.16,7.84v15.74h-6V577.22q0-3.79-1-5.24c-.69-1-1.93-1.48-3.75-1.48a4.59,4.59,0,0,0-4.19,2q-1.21,1.92-1.21,6.72v12.4h-6Z"/><path class="cls-4" d="M878.57,555.21a3.89,3.89,0,0,1,3.85-3.83,3.74,3.74,0,0,1,2.75,1.14,3.66,3.66,0,0,1,1.13,2.71,3.74,3.74,0,0,1-1.13,2.74,3.65,3.65,0,0,1-2.72,1.14,3.89,3.89,0,0,1-3.88-3.9Zm6.83,10.67v25.69h-5.93V565.88Z"/><path class="cls-4" d="M892.92,565.88h6v2.38a9.7,9.7,0,0,1,7-3.09,8.86,8.86,0,0,1,7,2.82c1.44,1.6,2.16,4.22,2.16,7.84v15.74h-6V577.22q0-3.79-1.05-5.24c-.69-1-1.94-1.48-3.75-1.48a4.58,4.58,0,0,0-4.19,2q-1.22,1.92-1.21,6.72v12.4h-6Z"/><path class="cls-4" d="M947.37,591c0,1.21,0,2.28-.12,3.2a22.3,22.3,0,0,1-.33,2.44,10.85,10.85,0,0,1-2.48,5q-3.48,4-9.57,4a12.82,12.82,0,0,1-8.47-2.76,11.34,11.34,0,0,1-3.95-7.89h6a6.75,6.75,0,0,0,1.13,2.93,6.38,6.38,0,0,0,5.38,2.4q6.51,0,6.51-8v-3.59a11.05,11.05,0,0,1-8.14,3.61,10.94,10.94,0,0,1-8.6-3.79,14.09,14.09,0,0,1-3.37-9.63,14.82,14.82,0,0,1,3.13-9.54,10.9,10.9,0,0,1,8.92-4.17,10.33,10.33,0,0,1,8.06,3.62v-2.91h5.94Zm-5.7-12.18a8.69,8.69,0,0,0-2-6,6.64,6.64,0,0,0-5.2-2.29,6.37,6.37,0,0,0-5.32,2.5,9.09,9.09,0,0,0-1.77,5.8,9,9,0,0,0,1.77,5.75,6.38,6.38,0,0,0,5.32,2.46,6.52,6.52,0,0,0,5.38-2.48A8.86,8.86,0,0,0,941.67,578.78Z"/><path class="cls-4" d="M978.24,580.12h-18.4a7.83,7.83,0,0,0,2,5,6.29,6.29,0,0,0,4.67,1.85,6.11,6.11,0,0,0,3.67-1.06,14.84,14.84,0,0,0,3.24-3.9l5,2.79a19.75,19.75,0,0,1-2.45,3.39,12.94,12.94,0,0,1-2.77,2.32,11.06,11.06,0,0,1-3.19,1.33,15.58,15.58,0,0,1-3.72.42,12.06,12.06,0,0,1-9.23-3.69q-3.48-3.72-3.48-9.86a14.24,14.24,0,0,1,3.38-9.86,12.85,12.85,0,0,1,18-.1q3.27,3.59,3.27,9.94Zm-6.09-4.85c-.82-3.16-2.82-4.74-6-4.74a6.13,6.13,0,0,0-2,.33,5.8,5.8,0,0,0-1.73.94,6.13,6.13,0,0,0-1.33,1.49,7.22,7.22,0,0,0-.85,2Z"/><path class="cls-4" d="M984.73,565.88h6v2.38a9.7,9.7,0,0,1,7-3.09,8.86,8.86,0,0,1,7,2.82c1.44,1.6,2.16,4.22,2.16,7.84v15.74h-6V577.22q0-3.79-1-5.24c-.69-1-1.94-1.48-3.75-1.48a4.58,4.58,0,0,0-4.19,2q-1.21,1.92-1.21,6.72v12.4h-6Z"/><path class="cls-4" d="M1036.94,547v27.16l8.35-8.31h8l-11.16,10.79,12,14.9h-7.69l-8.5-10.84-.94.95v9.89H1031V547Z"/><path class="cls-4" d="M1075.91,565.88h6v25.69h-6v-2.69a11.41,11.41,0,0,1-16.69-.42,14.29,14.29,0,0,1-3.46-9.81,13.87,13.87,0,0,1,3.46-9.63,11.14,11.14,0,0,1,8.64-3.85,10.92,10.92,0,0,1,8.05,3.7Zm-14.08,12.77a9,9,0,0,0,2,6,6.51,6.51,0,0,0,5.12,2.35,6.83,6.83,0,0,0,5.33-2.27,9.76,9.76,0,0,0,0-11.92,6.73,6.73,0,0,0-5.28-2.29,6.53,6.53,0,0,0-5.11,2.32A8.5,8.5,0,0,0,1061.83,578.65Z"/><path class="cls-4" d="M1089.35,565.88h6v2.38a9.73,9.73,0,0,1,7-3.09,8.86,8.86,0,0,1,7,2.82c1.44,1.6,2.17,4.22,2.17,7.84v15.74h-6V577.22q0-3.79-1.06-5.24c-.68-1-1.93-1.48-3.74-1.48a4.57,4.57,0,0,0-4.19,2q-1.21,1.92-1.22,6.72v12.4h-6Z"/><path class="cls-4" d="M1141.56,547v21.84a10.92,10.92,0,0,1,8.07-3.7,11.1,11.1,0,0,1,8.65,3.88,13.85,13.85,0,0,1,3.45,9.6,14.15,14.15,0,0,1-3.48,9.81,11.23,11.23,0,0,1-8.73,3.84,11.11,11.11,0,0,1-8-3.42v2.69h-5.93V547Zm14.11,31.88a8.86,8.86,0,0,0-2-6,6.42,6.42,0,0,0-5.09-2.37,6.8,6.8,0,0,0-5.32,2.29,8.49,8.49,0,0,0-2,5.91,8.66,8.66,0,0,0,2,6,6.68,6.68,0,0,0,5.28,2.3,6.54,6.54,0,0,0,5.11-2.3A8.42,8.42,0,0,0,1155.67,578.91Z"/><path class="cls-4" d="M1173.94,547v44.54H1168V547Z"/><path class="cls-4" d="M1180.56,555.21a3.88,3.88,0,0,1,3.85-3.83,3.73,3.73,0,0,1,2.74,1.14,3.62,3.62,0,0,1,1.13,2.71,3.71,3.71,0,0,1-1.13,2.74,3.64,3.64,0,0,1-2.72,1.14,3.88,3.88,0,0,1-3.87-3.9Zm6.83,10.67v25.69h-5.94V565.88Z"/><path class="cls-4" d="M1198.09,565.88l6.65,14.43,6.61-14.43H1218l-13.35,27.45-13.23-27.45Z"/><path class="cls-4" d="M1244.5,580.12h-18.41a7.84,7.84,0,0,0,2.06,5,6.28,6.28,0,0,0,4.67,1.85,6.08,6.08,0,0,0,3.66-1.06,15,15,0,0,0,3.25-3.9l5,2.79a20.32,20.32,0,0,1-2.46,3.39,12.7,12.7,0,0,1-2.77,2.32,10.83,10.83,0,0,1-3.19,1.33,15.55,15.55,0,0,1-3.71.42,12,12,0,0,1-9.23-3.69q-3.48-3.72-3.48-9.86a14.23,14.23,0,0,1,3.37-9.86,11.65,11.65,0,0,1,9-3.72,11.51,11.51,0,0,1,9,3.62q3.27,3.59,3.27,9.94Zm-6.09-4.85c-.83-3.16-2.82-4.74-6-4.74a6.13,6.13,0,0,0-2,.33,5.75,5.75,0,0,0-1.72.94,6.17,6.17,0,0,0-1.34,1.49,6.91,6.91,0,0,0-.84,2Z"/><path class="cls-4" d="M1282.57,570.26l-4.9,2.61c-.78-1.58-1.73-2.37-2.88-2.37a2,2,0,0,0-1.39.54,1.79,1.79,0,0,0-.58,1.38c0,1,1.14,2,3.42,2.93,3.15,1.36,5.27,2.6,6.36,3.75a6.4,6.4,0,0,1,1.63,4.61,8.07,8.07,0,0,1-2.74,6.22,9.33,9.33,0,0,1-6.43,2.37c-4.31,0-7.36-2.09-9.15-6.3l5.06-2.34a10.66,10.66,0,0,0,1.61,2.34,3.66,3.66,0,0,0,2.58,1c2,0,3-.92,3-2.75,0-1-.77-2-2.32-3l-1.79-.87-1.82-.87a11,11,0,0,1-3.64-2.53,6.21,6.21,0,0,1-1.35-4.14,7.34,7.34,0,0,1,2.3-5.54,8,8,0,0,1,5.69-2.19Q1280.18,565.17,1282.57,570.26Z"/><path class="cls-4" d="M1295.68,571.42v20.15h-5.94V571.42h-2.53v-5.54h2.53v-9.41h5.94v9.41h4.61v5.54Z"/><path class="cls-4" d="M1303.48,578.54a12.76,12.76,0,0,1,4-9.46,14,14,0,0,1,19.46,0,13.75,13.75,0,0,1,0,19.33,13.64,13.64,0,0,1-9.84,3.87,13.05,13.05,0,0,1-9.68-3.95A13.3,13.3,0,0,1,1303.48,578.54Zm6.07.11a8.68,8.68,0,0,0,2,6.09,8,8,0,0,0,11.13,0,9.65,9.65,0,0,0,0-12,7.24,7.24,0,0,0-5.56-2.26,7.16,7.16,0,0,0-5.51,2.26A8.27,8.27,0,0,0,1309.55,578.65Z"/><path class="cls-4" d="M1343.08,605.54h-5.93V565.88h5.93v2.8a11.26,11.26,0,0,1,16.7.4,14.08,14.08,0,0,1,3.48,9.78,13.87,13.87,0,0,1-3.46,9.62,11.26,11.26,0,0,1-16.72.21Zm14.11-26.66a8.9,8.9,0,0,0-2-6,6.5,6.5,0,0,0-5.12-2.34,6.79,6.79,0,0,0-5.3,2.26,8.63,8.63,0,0,0-2,6,8.79,8.79,0,0,0,2,6,6.68,6.68,0,0,0,5.28,2.3,6.43,6.43,0,0,0,5.08-2.32A8.4,8.4,0,0,0,1357.19,578.88Z"/><path class="cls-4" d="M1375.46,605.54h-5.93V565.88h5.93v2.8a11.25,11.25,0,0,1,16.69.4,14.08,14.08,0,0,1,3.48,9.78,13.86,13.86,0,0,1-3.45,9.62,11.26,11.26,0,0,1-16.72.21Zm14.11-26.66a8.9,8.9,0,0,0-2-6,6.5,6.5,0,0,0-5.12-2.34,6.77,6.77,0,0,0-5.3,2.26,8.63,8.63,0,0,0-2,6,8.79,8.79,0,0,0,2,6,6.68,6.68,0,0,0,5.27,2.3,6.44,6.44,0,0,0,5.09-2.32A8.44,8.44,0,0,0,1389.57,578.88Z"/><path class="cls-4" d="M1425.3,580.12h-18.41a7.84,7.84,0,0,0,2.06,5,6.28,6.28,0,0,0,4.67,1.85,6.08,6.08,0,0,0,3.66-1.06,15,15,0,0,0,3.25-3.9l5,2.79a20.32,20.32,0,0,1-2.46,3.39,12.7,12.7,0,0,1-2.77,2.32,10.83,10.83,0,0,1-3.19,1.33,15.55,15.55,0,0,1-3.71.42,12,12,0,0,1-9.23-3.69q-3.48-3.72-3.48-9.86a14.23,14.23,0,0,1,3.37-9.86,11.65,11.65,0,0,1,9-3.72,11.51,11.51,0,0,1,9,3.62q3.27,3.59,3.27,9.94Zm-6.09-4.85c-.83-3.16-2.82-4.74-6-4.74a6.13,6.13,0,0,0-2,.33,5.93,5.93,0,0,0-1.73.94,6.34,6.34,0,0,0-1.33,1.49,6.91,6.91,0,0,0-.84,2Z"/><path class="cls-4" d="M1438.38,571.42v20.15h-5.94V571.42h-2.53v-5.54h2.53v-9.41h5.94v9.41H1443v5.54Z"/><path class="cls-4" d="M1462.48,578.54a12.72,12.72,0,0,1,4-9.46,14,14,0,0,1,19.46,0,13.76,13.76,0,0,1,0,19.33,13.62,13.62,0,0,1-9.84,3.87,13,13,0,0,1-9.67-3.95A13.3,13.3,0,0,1,1462.48,578.54Zm6.06.11a8.69,8.69,0,0,0,2.06,6.09,8,8,0,0,0,11.12,0,9.61,9.61,0,0,0,0-12,7.91,7.91,0,0,0-11.07,0A8.27,8.27,0,0,0,1468.54,578.65Z"/><path class="cls-4" d="M1521,591c0,1.21,0,2.28-.11,3.2a22.3,22.3,0,0,1-.33,2.44,10.94,10.94,0,0,1-2.48,5q-3.48,4-9.57,4a12.82,12.82,0,0,1-8.47-2.76,11.34,11.34,0,0,1-4-7.89h6a6.63,6.63,0,0,0,1.13,2.93,6.37,6.37,0,0,0,5.38,2.4q6.51,0,6.51-8v-3.59a11.06,11.06,0,0,1-8.15,3.61,10.94,10.94,0,0,1-8.59-3.79,14.1,14.1,0,0,1-3.38-9.63,14.82,14.82,0,0,1,3.14-9.54,10.9,10.9,0,0,1,8.91-4.17,10.34,10.34,0,0,1,8.07,3.62v-2.91H1521Zm-5.69-12.18a8.69,8.69,0,0,0-2-6,6.64,6.64,0,0,0-5.2-2.29,6.4,6.4,0,0,0-5.33,2.5,9.15,9.15,0,0,0-1.76,5.8,9,9,0,0,0,1.76,5.75,6.4,6.4,0,0,0,5.33,2.46,6.52,6.52,0,0,0,5.38-2.48A8.86,8.86,0,0,0,1515.29,578.78Z"/><path class="cls-4" d="M448.29,670.34h-5.93V630.69h5.93v2.79a11,11,0,0,1,8-3.51,11.1,11.1,0,0,1,8.73,3.91,14.08,14.08,0,0,1,3.48,9.78,13.84,13.84,0,0,1-3.46,9.62,11.23,11.23,0,0,1-16.71.21Zm14.1-26.66a8.85,8.85,0,0,0-2-6,6.48,6.48,0,0,0-5.11-2.34,6.77,6.77,0,0,0-5.3,2.26,8.58,8.58,0,0,0-2,6,8.74,8.74,0,0,0,2,6,6.64,6.64,0,0,0,5.27,2.29,6.42,6.42,0,0,0,5.09-2.32A8.41,8.41,0,0,0,462.39,643.68Z"/><path class="cls-4" d="M498.12,644.92h-18.4a7.83,7.83,0,0,0,2,5,6.28,6.28,0,0,0,4.67,1.84,6.11,6.11,0,0,0,3.67-1,14.84,14.84,0,0,0,3.24-3.9l5,2.79a19.75,19.75,0,0,1-2.45,3.39,12.94,12.94,0,0,1-2.77,2.32,11.06,11.06,0,0,1-3.19,1.33,15.56,15.56,0,0,1-3.72.43,12.07,12.07,0,0,1-9.23-3.7q-3.48-3.7-3.48-9.86a14.24,14.24,0,0,1,3.38-9.86,12.85,12.85,0,0,1,18-.1q3.27,3.58,3.27,9.94ZM492,640.07c-.82-3.16-2.82-4.74-6-4.74a6.13,6.13,0,0,0-2,.33,5.8,5.8,0,0,0-1.73.94,6.13,6.13,0,0,0-1.33,1.49,7.09,7.09,0,0,0-.85,2Z"/><path class="cls-4" d="M504.61,630.69h5.93V633a11.44,11.44,0,0,1,2.9-2.35,6.64,6.64,0,0,1,3.06-.66,9.56,9.56,0,0,1,4.9,1.53l-2.71,5.43a5.75,5.75,0,0,0-3.3-1.21q-4.85,0-4.85,7.33v13.32h-5.93Z"/><path class="cls-4" d="M539.73,635.06l-4.9,2.61q-1.17-2.37-2.88-2.37a2,2,0,0,0-1.4.54,1.83,1.83,0,0,0-.58,1.38c0,1,1.15,2,3.43,2.93q4.73,2,6.36,3.74a6.44,6.44,0,0,1,1.63,4.62,8.07,8.07,0,0,1-2.74,6.22,9.36,9.36,0,0,1-6.44,2.38q-6.45,0-9.14-6.31l5.06-2.34a10.66,10.66,0,0,0,1.61,2.34,3.65,3.65,0,0,0,2.58,1c2,0,3-.91,3-2.74,0-1-.78-2-2.32-2.95q-.9-.45-1.8-.87l-1.82-.87a11.25,11.25,0,0,1-3.64-2.53,6.26,6.26,0,0,1-1.34-4.14,7.33,7.33,0,0,1,2.29-5.54,8.07,8.07,0,0,1,5.7-2.19Q537.34,630,539.73,635.06Z"/><path class="cls-4" d="M545.5,643.34a12.73,12.73,0,0,1,4-9.46,14,14,0,0,1,19.45,0,13.75,13.75,0,0,1,0,19.33,13.63,13.63,0,0,1-9.84,3.88,13,13,0,0,1-9.67-4A13.27,13.27,0,0,1,545.5,643.34Zm6.07.11a8.68,8.68,0,0,0,2,6.09,8,8,0,0,0,11.13,0,9.65,9.65,0,0,0,0-12,7.91,7.91,0,0,0-11.07,0A8.27,8.27,0,0,0,551.57,643.45Z"/><path class="cls-4" d="M579.17,630.69h6v2.37a9.74,9.74,0,0,1,7-3.09,8.84,8.84,0,0,1,7,2.82q2.18,2.4,2.17,7.83v15.75h-6V642q0-3.79-1.06-5.24c-.68-1-1.93-1.48-3.74-1.48a4.57,4.57,0,0,0-4.19,2c-.81,1.28-1.22,3.53-1.22,6.72v12.4h-6Z"/><path class="cls-4" d="M632.17,644.92h-18.4a7.79,7.79,0,0,0,2.06,5,6.24,6.24,0,0,0,4.66,1.84,6.11,6.11,0,0,0,3.67-1,14.84,14.84,0,0,0,3.24-3.9l5,2.79A19.75,19.75,0,0,1,630,653a12.94,12.94,0,0,1-2.77,2.32,10.94,10.94,0,0,1-3.19,1.33,15.56,15.56,0,0,1-3.72.43,12.07,12.07,0,0,1-9.23-3.7q-3.48-3.7-3.48-9.86a14.24,14.24,0,0,1,3.38-9.86,12.85,12.85,0,0,1,18-.1q3.27,3.58,3.27,9.94Zm-6.09-4.85c-.82-3.16-2.82-4.74-6-4.74a6.13,6.13,0,0,0-2,.33,5.8,5.8,0,0,0-1.73.94,6.13,6.13,0,0,0-1.33,1.49,7.09,7.09,0,0,0-.85,2Z"/><path class="cls-4" d="M638.66,630.69h6v2.37a9.7,9.7,0,0,1,7-3.09,8.86,8.86,0,0,1,7,2.82q2.16,2.4,2.16,7.83v15.75h-6V642q0-3.79-1.05-5.24c-.69-1-1.94-1.48-3.75-1.48a4.58,4.58,0,0,0-4.19,2c-.81,1.28-1.21,3.53-1.21,6.72v12.4h-6Z"/><path class="cls-4" d="M703.87,611.83h6v44.54h-6v-2.69a11.11,11.11,0,0,1-7.94,3.43,11.34,11.34,0,0,1-8.76-3.85,14.33,14.33,0,0,1-3.45-9.81,13.86,13.86,0,0,1,3.45-9.6,11.1,11.1,0,0,1,16.7-.19Zm-14.08,31.62a8.94,8.94,0,0,0,2,6,6.5,6.5,0,0,0,5.12,2.34,6.79,6.79,0,0,0,5.32-2.26,9.76,9.76,0,0,0,0-11.92,6.7,6.7,0,0,0-5.27-2.29,6.53,6.53,0,0,0-5.11,2.32A8.5,8.5,0,0,0,689.79,643.45Z"/><path class="cls-4" d="M740.7,644.92H722.3a7.78,7.78,0,0,0,2.05,5A6.28,6.28,0,0,0,729,651.8a6.05,6.05,0,0,0,3.66-1,15,15,0,0,0,3.25-3.9l5,2.79a20.3,20.3,0,0,1-2.45,3.39,13.19,13.19,0,0,1-2.77,2.32,11.06,11.06,0,0,1-3.19,1.33,15.69,15.69,0,0,1-3.72.43,12.07,12.07,0,0,1-9.23-3.7q-3.48-3.7-3.48-9.86a14.23,14.23,0,0,1,3.37-9.86,12.86,12.86,0,0,1,18-.1q3.27,3.58,3.27,9.94Zm-6.09-4.85c-.83-3.16-2.82-4.74-6-4.74a6.17,6.17,0,0,0-2,.33,5.75,5.75,0,0,0-1.72.94,5.93,5.93,0,0,0-1.33,1.49,6.81,6.81,0,0,0-.85,2Z"/><path class="cls-4" d="M753.78,636.22v20.15h-5.93V636.22h-2.54v-5.53h2.54v-9.42h5.93v9.42h4.61v5.53Z"/><path class="cls-4" d="M803.93,655.76c0,1.21,0,2.28-.12,3.2a22.3,22.3,0,0,1-.33,2.44,10.85,10.85,0,0,1-2.48,5q-3.48,4-9.57,4a12.73,12.73,0,0,1-8.46-2.77,11.27,11.27,0,0,1-4-7.88h6a6.88,6.88,0,0,0,1.13,2.93,6.38,6.38,0,0,0,5.38,2.4q6.53,0,6.52-8v-3.59a11.1,11.1,0,0,1-8.15,3.62,11,11,0,0,1-8.6-3.8,14.09,14.09,0,0,1-3.37-9.63,14.77,14.77,0,0,1,3.14-9.54,10.9,10.9,0,0,1,8.91-4.17,10.37,10.37,0,0,1,8.07,3.62v-2.9h5.93Zm-5.7-12.18a8.64,8.64,0,0,0-2-6A6.62,6.62,0,0,0,791,635.3a6.39,6.39,0,0,0-5.33,2.5,9.1,9.1,0,0,0-1.77,5.81,9,9,0,0,0,1.77,5.74A6.38,6.38,0,0,0,791,651.8a6.5,6.5,0,0,0,5.37-2.47A8.8,8.8,0,0,0,798.23,643.58Z"/><path class="cls-4" d="M830.35,630.69h6v25.68h-6v-2.69a11.39,11.39,0,0,1-16.69-.42,14.34,14.34,0,0,1-3.46-9.81,13.91,13.91,0,0,1,3.46-9.63,11.14,11.14,0,0,1,8.65-3.85,10.93,10.93,0,0,1,8,3.69Zm-14.08,12.76a8.94,8.94,0,0,0,2,6,6.46,6.46,0,0,0,5.11,2.34,6.82,6.82,0,0,0,5.33-2.26,9.76,9.76,0,0,0,0-11.92,6.72,6.72,0,0,0-5.28-2.29,6.55,6.55,0,0,0-5.11,2.32A8.55,8.55,0,0,0,816.27,643.45Zm2-22.55a5.38,5.38,0,0,1,1.69-4,5.73,5.73,0,1,1,8.09,8.12,5.43,5.43,0,0,1-4,1.69A5.55,5.55,0,0,1,820,625,5.65,5.65,0,0,1,818.3,620.9Zm3.14.06a2.56,2.56,0,0,0,.75,1.88,2.63,2.63,0,1,0,1.86-4.47,2.5,2.5,0,0,0-1,.21,2.56,2.56,0,0,0-.83.57,2.64,2.64,0,0,0-.56.83A2.55,2.55,0,0,0,821.44,621Z"/><path class="cls-4" d="M843.8,630.69h5.93V633a11.44,11.44,0,0,1,2.9-2.35,6.64,6.64,0,0,1,3.06-.66,9.56,9.56,0,0,1,4.9,1.53l-2.71,5.43a5.75,5.75,0,0,0-3.3-1.21q-4.85,0-4.85,7.33v13.32H843.8Z"/><path class="cls-4" d="M886.59,630.69v14.73c0,4.26,1.68,6.38,5,6.38s5-2.12,5-6.38V630.69h5.93v14.87a16.52,16.52,0,0,1-.76,5.32,8.82,8.82,0,0,1-2.56,3.61,12.42,12.42,0,0,1-15.26,0,9,9,0,0,1-2.61-3.61,14.48,14.48,0,0,1-.74-5.32V630.69Z"/><path class="cls-4" d="M929,611.83h6v44.54h-6v-2.69a11.07,11.07,0,0,1-7.93,3.43,11.33,11.33,0,0,1-8.76-3.85,14.33,14.33,0,0,1-3.45-9.81,13.86,13.86,0,0,1,3.45-9.6A11.05,11.05,0,0,1,921,630a10.94,10.94,0,0,1,8.06,3.69Zm-14.08,31.62a8.94,8.94,0,0,0,2,6A6.5,6.5,0,0,0,922,651.8a6.8,6.8,0,0,0,5.32-2.26,9.76,9.76,0,0,0,0-11.92,6.7,6.7,0,0,0-5.27-2.29,6.57,6.57,0,0,0-5.12,2.32A8.55,8.55,0,0,0,914.93,643.45Z"/><path class="cls-4" d="M957.91,643.34a12.76,12.76,0,0,1,4-9.46,14,14,0,0,1,19.46,0,13.75,13.75,0,0,1,0,19.33,13.63,13.63,0,0,1-9.84,3.88,13,13,0,0,1-9.67-4A13.27,13.27,0,0,1,957.91,643.34Zm6.07.11a8.68,8.68,0,0,0,2,6.09,8,8,0,0,0,11.13,0,9.65,9.65,0,0,0,0-12,7.24,7.24,0,0,0-5.56-2.26,7.16,7.16,0,0,0-5.51,2.26A8.27,8.27,0,0,0,964,643.45Z"/><path class="cls-4" d="M993.69,630.69l6.65,14.42,6.62-14.42h6.67l-13.34,27.44-13.24-27.44Z"/><path class="cls-4" d="M1040.1,644.92h-18.4a7.78,7.78,0,0,0,2,5,6.27,6.27,0,0,0,4.67,1.84,6.05,6.05,0,0,0,3.66-1,15,15,0,0,0,3.25-3.9l5,2.79a19.77,19.77,0,0,1-2.46,3.39,12.89,12.89,0,0,1-2.76,2.32,11.06,11.06,0,0,1-3.19,1.33,15.69,15.69,0,0,1-3.72.43,12.07,12.07,0,0,1-9.23-3.7q-3.48-3.7-3.48-9.86a14.23,14.23,0,0,1,3.37-9.86,12.86,12.86,0,0,1,18-.1q3.27,3.58,3.27,9.94Zm-6.09-4.85c-.83-3.16-2.82-4.74-6-4.74a6.17,6.17,0,0,0-2,.33,5.75,5.75,0,0,0-1.72.94,6.17,6.17,0,0,0-1.34,1.49,7.08,7.08,0,0,0-.84,2Z"/><path class="cls-4" d="M1046.59,630.69h5.93V633a11.44,11.44,0,0,1,2.9-2.35,6.64,6.64,0,0,1,3.06-.66,9.56,9.56,0,0,1,4.9,1.53l-2.71,5.43a5.75,5.75,0,0,0-3.3-1.21q-4.84,0-4.85,7.33v13.32h-5.93Z"/><path class="cls-4" d="M1089.38,611.83V639l8.36-8.3h8l-11.15,10.78,12,14.9h-7.7l-8.49-10.84-.95,1v9.89h-5.93V611.83Z"/><path class="cls-4" d="M1128.35,630.69h6v25.68h-6v-2.69a11.39,11.39,0,0,1-16.69-.42,14.33,14.33,0,0,1-3.45-9.81,13.91,13.91,0,0,1,3.45-9.63,11.16,11.16,0,0,1,8.65-3.85,10.91,10.91,0,0,1,8,3.69Zm-14.08,12.76a8.94,8.94,0,0,0,2,6,6.48,6.48,0,0,0,5.11,2.34,6.81,6.81,0,0,0,5.33-2.26,9.76,9.76,0,0,0,0-11.92,6.7,6.7,0,0,0-5.27-2.29,6.55,6.55,0,0,0-5.12,2.32A8.55,8.55,0,0,0,1114.27,643.45Z"/><path class="cls-4" d="M1141.8,630.69h6v2.37a9.7,9.7,0,0,1,7-3.09,8.86,8.86,0,0,1,7,2.82q2.16,2.4,2.16,7.83v15.75h-6V642q0-3.79-1-5.24c-.69-1-1.94-1.48-3.75-1.48a4.58,4.58,0,0,0-4.19,2c-.81,1.28-1.21,3.53-1.21,6.72v12.4h-6Z"/><path class="cls-4" d="M1194.22,636.22v20.15h-6V636.22h-2.11v-5.53h2.11v-9.92c0-3.23.56-5.52,1.68-6.85a8.26,8.26,0,0,1,6.75-2.8,11.73,11.73,0,0,1,4,.92v6.07l-.61-.32a7.43,7.43,0,0,0-3.16-1,2.14,2.14,0,0,0-2.14,1.13,10.92,10.92,0,0,0-.55,4.27v8.47h6.46v5.53Z"/><path class="cls-4" d="M1223.85,630.69h6v25.68h-6v-2.69a11.39,11.39,0,0,1-16.69-.42,14.33,14.33,0,0,1-3.45-9.81,13.91,13.91,0,0,1,3.45-9.63,11.16,11.16,0,0,1,8.65-3.85,10.91,10.91,0,0,1,8,3.69Zm-14.08,12.76a8.94,8.94,0,0,0,2,6,6.48,6.48,0,0,0,5.12,2.34,6.8,6.8,0,0,0,5.32-2.26,9.76,9.76,0,0,0,0-11.92,6.7,6.7,0,0,0-5.27-2.29,6.55,6.55,0,0,0-5.12,2.32A8.55,8.55,0,0,0,1209.77,643.45Zm2-22.55a5.42,5.42,0,0,1,1.69-4,5.73,5.73,0,1,1,8.09,8.12,5.42,5.42,0,0,1-4,1.69,5.56,5.56,0,0,1-4.09-1.69A5.69,5.69,0,0,1,1211.8,620.9Zm3.14.06a2.56,2.56,0,0,0,.75,1.88,2.62,2.62,0,1,0,.83-4.26,2.79,2.79,0,0,0-.83.57,2.46,2.46,0,0,0-.55.83A2.56,2.56,0,0,0,1214.94,621Z"/><path class="cls-4" d="M1254,611.83h5.94v21a10.19,10.19,0,0,1,7-2.85,9,9,0,0,1,7,2.82q2.22,2.46,2.22,7.83v15.75h-5.93V641.18a7.22,7.22,0,0,0-1.1-4.47,4.22,4.22,0,0,0-3.52-1.38q-3.1,0-4.37,1.92t-1.24,6.7v12.42H1254Z"/><path class="cls-4" d="M1282.68,620a3.88,3.88,0,0,1,3.85-3.83,3.73,3.73,0,0,1,2.74,1.14,3.61,3.61,0,0,1,1.13,2.71,3.73,3.73,0,0,1-1.13,2.75,3.67,3.67,0,0,1-2.72,1.13,3.86,3.86,0,0,1-3.87-3.9Zm6.83,10.68v39.65h-5.94V630.69Z"/><path class="cls-4" d="M1337.13,644.84h-18.51a8.13,8.13,0,0,0,2.16,5.07,6.22,6.22,0,0,0,4.64,1.89q4.07,0,6.72-5.14l5.12,2.85a17.35,17.35,0,0,1-1.82,2.82,10.87,10.87,0,0,1-2.11,2,13.54,13.54,0,0,1-8.2,2.77,12.9,12.9,0,0,1-9.31-4.11q-3.21,4.11-9.46,4.11a11.73,11.73,0,0,1-7.62-2.37,7.58,7.58,0,0,1-2.93-6.2,7.94,7.94,0,0,1,2.79-6.33,10.93,10.93,0,0,1,7.36-2.42,14.89,14.89,0,0,1,6.7,1.74c0-2.32-.49-3.94-1.45-4.85s-2.64-1.4-5-1.4a25.2,25.2,0,0,0-6.86,1v-5.52a46.67,46.67,0,0,1,7.44-.79q6.27,0,9,3.62a11.84,11.84,0,0,1,9-3.62,11.71,11.71,0,0,1,9,3.62,13.43,13.43,0,0,1,3.38,9.57Zm-35.57,3.62A3,3,0,0,0,1303,651a6.77,6.77,0,0,0,3.75,1,7.14,7.14,0,0,0,3.93-1,3.11,3.11,0,0,0,1.58-2.62,2.85,2.85,0,0,0-1.64-2.37,7.36,7.36,0,0,0-3.93-1,6.29,6.29,0,0,0-3.66,1A3,3,0,0,0,1301.56,648.46ZM1330.9,640q-1.08-4.71-5.77-4.71T1319,640Z"/><path class="cls-4" d="M1349.44,611.83v44.54h-5.93V611.83Z"/><path class="cls-4" d="M1362.89,670.34H1357V630.69h5.94v2.79a11,11,0,0,1,8-3.51,11.1,11.1,0,0,1,8.73,3.91,14.08,14.08,0,0,1,3.48,9.78,13.84,13.84,0,0,1-3.46,9.62,11.23,11.23,0,0,1-16.71.21Zm14.1-26.66a8.85,8.85,0,0,0-2-6,6.48,6.48,0,0,0-5.12-2.34,6.79,6.79,0,0,0-5.3,2.26,8.63,8.63,0,0,0-2,6,8.79,8.79,0,0,0,2,6,6.68,6.68,0,0,0,5.28,2.29,6.44,6.44,0,0,0,5.09-2.32A8.41,8.41,0,0,0,1377,643.68Z"/><path class="cls-4" d="M1390.26,653.41a3.67,3.67,0,0,1,7.33,0,3.69,3.69,0,0,1-6.28,2.61A3.58,3.58,0,0,1,1390.26,653.41Z"/><path class="cls-4" d="M443.49,786V745.26H452a31.12,31.12,0,0,1,9.71,1.21,18.13,18.13,0,0,1,6.93,4q6.3,5.76,6.3,15.11a19.78,19.78,0,0,1-13.47,19.22,31.27,31.27,0,0,1-9.57,1.14Zm6.14-5.78h2.77a23.05,23.05,0,0,0,6.88-.87,14,14,0,0,0,9.5-13.71,14.15,14.15,0,0,0-4.49-10.86q-4-3.72-11.89-3.72h-2.77Z"/><path class="cls-4" d="M505,774.52h-18.4a7.83,7.83,0,0,0,2.05,5,6.29,6.29,0,0,0,4.67,1.85,6.11,6.11,0,0,0,3.67-1.06,15,15,0,0,0,3.24-3.9l5,2.79a19.75,19.75,0,0,1-2.45,3.39A12.94,12.94,0,0,1,500,785a11.06,11.06,0,0,1-3.19,1.33,15.62,15.62,0,0,1-3.72.43,12.1,12.1,0,0,1-9.23-3.7q-3.48-3.71-3.48-9.86a14.22,14.22,0,0,1,3.38-9.86,12.85,12.85,0,0,1,18-.1q3.27,3.59,3.27,9.94Zm-6.09-4.85q-1.25-4.74-6-4.74a6.19,6.19,0,0,0-2,.33,5.68,5.68,0,0,0-1.72,1,5.9,5.9,0,0,0-1.33,1.48,7.09,7.09,0,0,0-.85,2Z"/><path class="cls-4" d="M518,765.82V786H512.1V765.82h-2.53v-5.53h2.53v-9.42H518v9.42h4.61v5.53Z"/><path class="cls-4" d="M566.73,774.52h-18.4a7.78,7.78,0,0,0,2,5,6.28,6.28,0,0,0,4.67,1.85,6.06,6.06,0,0,0,3.66-1.06,15,15,0,0,0,3.25-3.9l5,2.79a19.77,19.77,0,0,1-2.46,3.39,12.89,12.89,0,0,1-2.76,2.32,11.06,11.06,0,0,1-3.19,1.33,15.69,15.69,0,0,1-3.72.43,12.1,12.1,0,0,1-9.23-3.7q-3.48-3.71-3.48-9.86a14.22,14.22,0,0,1,3.37-9.86,12.86,12.86,0,0,1,18-.1q3.27,3.59,3.27,9.94Zm-6.09-4.85c-.83-3.16-2.82-4.74-6-4.74a6.17,6.17,0,0,0-2,.33,5.57,5.57,0,0,0-1.72,1,5.94,5.94,0,0,0-1.34,1.48,7.08,7.08,0,0,0-.84,2Z"/><path class="cls-4" d="M573.22,760.29h5.93v2.29a11.44,11.44,0,0,1,2.9-2.35,6.64,6.64,0,0,1,3.06-.66,9.56,9.56,0,0,1,4.9,1.53l-2.71,5.43a5.75,5.75,0,0,0-3.3-1.21q-4.85,0-4.85,7.33V786h-5.93Z"/><path class="cls-4" d="M625,764.66l-4.9,2.61c-.78-1.58-1.73-2.37-2.88-2.37a2,2,0,0,0-1.39.54,1.79,1.79,0,0,0-.58,1.38q0,1.48,3.42,2.93c3.15,1.36,5.27,2.6,6.36,3.75a6.4,6.4,0,0,1,1.63,4.61,8.07,8.07,0,0,1-2.74,6.22,9.35,9.35,0,0,1-6.43,2.38q-6.47,0-9.15-6.31l5.06-2.34A10.66,10.66,0,0,0,615,780.4a3.66,3.66,0,0,0,2.58,1c2,0,3-.92,3-2.75,0-1-.78-2-2.32-2.95q-.9-.45-1.8-.87l-1.81-.87a11,11,0,0,1-3.64-2.53,6.21,6.21,0,0,1-1.35-4.14,7.34,7.34,0,0,1,2.3-5.54,8,8,0,0,1,5.69-2.19Q622.61,759.57,625,764.66Z"/><path class="cls-4" d="M637.92,741.43V786H632V741.43Z"/><path class="cls-4" d="M668.82,774.52h-18.4a7.79,7.79,0,0,0,2.06,5,6.25,6.25,0,0,0,4.66,1.85,6.11,6.11,0,0,0,3.67-1.06,14.84,14.84,0,0,0,3.24-3.9l5,2.79a19.75,19.75,0,0,1-2.45,3.39,12.94,12.94,0,0,1-2.77,2.32,10.94,10.94,0,0,1-3.19,1.33,15.56,15.56,0,0,1-3.72.43,12.1,12.1,0,0,1-9.23-3.7q-3.48-3.71-3.48-9.86a14.22,14.22,0,0,1,3.38-9.86,12.85,12.85,0,0,1,18-.1q3.27,3.59,3.27,9.94Zm-6.09-4.85c-.82-3.16-2.82-4.74-6-4.74a6.13,6.13,0,0,0-2,.33,5.61,5.61,0,0,0-1.73,1,5.9,5.9,0,0,0-1.33,1.48,7.09,7.09,0,0,0-.85,2Z"/><path class="cls-4" d="M681.9,765.82V786H676V765.82h-2.53v-5.53H676v-9.42h5.93v9.42h4.62v5.53Z"/><path class="cls-4" d="M706.32,749.61a3.88,3.88,0,0,1,3.85-3.83,3.73,3.73,0,0,1,2.74,1.14,3.62,3.62,0,0,1,1.13,2.71,3.73,3.73,0,0,1-1.13,2.75,3.67,3.67,0,0,1-2.72,1.13,3.86,3.86,0,0,1-3.87-3.9Zm6.83,10.68V786h-5.94V760.29Z"/><path class="cls-4" d="M726.59,741.43v27.16l8.36-8.3h8l-11.16,10.78,12,14.9H736l-8.49-10.84-.95,1V786h-5.93V741.43Z"/><path class="cls-4" d="M753.49,741.43v27.16l8.36-8.3h8l-11.15,10.78,12,14.9h-7.7l-8.49-10.84-1,1V786h-5.93V741.43Z"/><path class="cls-4" d="M797,774.52H778.56a7.84,7.84,0,0,0,2.06,5,6.28,6.28,0,0,0,4.67,1.85,6.08,6.08,0,0,0,3.66-1.06,15,15,0,0,0,3.25-3.9l5,2.79a20.32,20.32,0,0,1-2.46,3.39A12.7,12.7,0,0,1,792,785a10.83,10.83,0,0,1-3.19,1.33,15.54,15.54,0,0,1-3.71.43,12.09,12.09,0,0,1-9.23-3.7q-3.48-3.71-3.48-9.86a14.22,14.22,0,0,1,3.37-9.86,11.65,11.65,0,0,1,9-3.72,11.51,11.51,0,0,1,9,3.62q3.27,3.59,3.27,9.94Zm-6.09-4.85c-.83-3.16-2.82-4.74-6-4.74a6.13,6.13,0,0,0-2,.33,5.73,5.73,0,0,0-1.73,1,6.1,6.1,0,0,0-1.33,1.48,6.8,6.8,0,0,0-.84,2Z"/><path class="cls-4" d="M835,764.66l-4.9,2.61c-.78-1.58-1.73-2.37-2.88-2.37a2,2,0,0,0-1.39.54,1.79,1.79,0,0,0-.58,1.38q0,1.48,3.42,2.93c3.15,1.36,5.27,2.6,6.36,3.75a6.4,6.4,0,0,1,1.63,4.61,8.07,8.07,0,0,1-2.74,6.22,9.34,9.34,0,0,1-6.43,2.38q-6.46,0-9.15-6.31l5.06-2.34a10.66,10.66,0,0,0,1.61,2.34,3.66,3.66,0,0,0,2.58,1c2,0,3-.92,3-2.75,0-1-.77-2-2.32-2.95l-1.79-.87-1.82-.87a11,11,0,0,1-3.64-2.53,6.21,6.21,0,0,1-1.35-4.14,7.34,7.34,0,0,1,2.3-5.54,8,8,0,0,1,5.69-2.19Q832.65,759.57,835,764.66Z"/><path class="cls-4" d="M861,760.29h6V786h-6v-2.69a11.39,11.39,0,0,1-16.69-.42,14.33,14.33,0,0,1-3.45-9.81,13.91,13.91,0,0,1,3.45-9.63,11.16,11.16,0,0,1,8.65-3.85,10.91,10.91,0,0,1,8,3.69Zm-14.08,12.76a8.94,8.94,0,0,0,2,6,6.49,6.49,0,0,0,5.11,2.35,6.81,6.81,0,0,0,5.33-2.27,9.76,9.76,0,0,0,0-11.92,6.7,6.7,0,0,0-5.27-2.29,6.55,6.55,0,0,0-5.12,2.32A8.55,8.55,0,0,0,846.88,773.05Zm2-22.55a5.38,5.38,0,0,1,1.69-4,5.73,5.73,0,1,1,8.09,8.12,5.42,5.42,0,0,1-4,1.69,5.56,5.56,0,0,1-4.09-1.69A5.65,5.65,0,0,1,848.91,750.5Zm3.14.06a2.56,2.56,0,0,0,.75,1.88,2.62,2.62,0,1,0,.83-4.26,2.67,2.67,0,0,0-.83.57,2.46,2.46,0,0,0-.55.83A2.56,2.56,0,0,0,852.05,750.56Z"/><path class="cls-4" d="M897,799.94h-5.93V760.29H897v2.79a11,11,0,0,1,8-3.51,11.13,11.13,0,0,1,8.73,3.91,14.08,14.08,0,0,1,3.48,9.78,13.87,13.87,0,0,1-3.46,9.62,11.24,11.24,0,0,1-16.72.21Zm14.11-26.66a8.9,8.9,0,0,0-2-6,6.5,6.5,0,0,0-5.12-2.34,6.79,6.79,0,0,0-5.3,2.26,8.63,8.63,0,0,0-2,6,8.79,8.79,0,0,0,2,6,6.68,6.68,0,0,0,5.28,2.3,6.41,6.41,0,0,0,5.08-2.33A8.37,8.37,0,0,0,911.11,773.28Z"/><path class="cls-4" d="M922.55,749.61a3.89,3.89,0,0,1,3.85-3.83,3.74,3.74,0,0,1,2.75,1.14,3.66,3.66,0,0,1,1.13,2.71,3.77,3.77,0,0,1-1.13,2.75,3.68,3.68,0,0,1-2.72,1.13,3.88,3.88,0,0,1-3.88-3.9Zm6.83,10.68V786h-5.93V760.29Z"/><path class="cls-4" d="M936.9,760.29h6v2.37a9.7,9.7,0,0,1,7-3.09,8.86,8.86,0,0,1,7,2.82q2.16,2.4,2.16,7.84V786h-6V771.62q0-3.79-1-5.24c-.69-1-1.94-1.48-3.75-1.48a4.58,4.58,0,0,0-4.19,2c-.81,1.28-1.21,3.53-1.21,6.72V786h-6Z"/><path class="cls-4" d="M972.44,741.43V786h-5.93V741.43Z"/><path class="cls-4" d="M979.06,749.61a3.85,3.85,0,0,1,6.59-2.69,3.63,3.63,0,0,1,1.14,2.71,3.74,3.74,0,0,1-1.14,2.75,3.66,3.66,0,0,1-2.71,1.13,3.86,3.86,0,0,1-3.88-3.9Zm6.83,10.68V786H980V760.29Z"/><path class="cls-4" d="M1018.24,785.36c0,1.21,0,2.28-.12,3.2a22.3,22.3,0,0,1-.33,2.44,10.85,10.85,0,0,1-2.48,5q-3.48,4-9.57,4a12.8,12.8,0,0,1-8.46-2.76,11.35,11.35,0,0,1-4-7.89h6a6.75,6.75,0,0,0,1.14,2.93,6.37,6.37,0,0,0,5.38,2.4q6.51,0,6.51-8v-3.59a11.09,11.09,0,0,1-8.15,3.62,10.93,10.93,0,0,1-8.59-3.8,14.1,14.1,0,0,1-3.38-9.63,14.82,14.82,0,0,1,3.14-9.54,10.9,10.9,0,0,1,8.91-4.17,10.37,10.37,0,0,1,8.07,3.62v-2.9h5.93Zm-5.69-12.18a8.64,8.64,0,0,0-2-6,6.6,6.6,0,0,0-5.19-2.29,6.39,6.39,0,0,0-5.33,2.5,9.1,9.1,0,0,0-1.77,5.81A9,9,0,0,0,1000,779a6.39,6.39,0,0,0,5.33,2.46,6.52,6.52,0,0,0,5.38-2.48A8.86,8.86,0,0,0,1012.55,773.18Z"/><path class="cls-4" d="M1031.85,765.82V786h-5.94V765.82h-2.53v-5.53h2.53v-9.42h5.94v9.42h4.61v5.53Z"/><path class="cls-4" d="M1072.08,764.66l-4.9,2.61q-1.15-2.37-2.88-2.37a2,2,0,0,0-1.39.54,1.79,1.79,0,0,0-.58,1.38q0,1.48,3.42,2.93c3.15,1.36,5.27,2.6,6.36,3.75a6.4,6.4,0,0,1,1.63,4.61,8.07,8.07,0,0,1-2.74,6.22,9.34,9.34,0,0,1-6.43,2.38q-6.46,0-9.15-6.31l5.06-2.34a10.66,10.66,0,0,0,1.61,2.34,3.66,3.66,0,0,0,2.58,1c2,0,3-.92,3-2.75,0-1-.77-2-2.32-2.95l-1.79-.87-1.82-.87a11,11,0,0,1-3.64-2.53,6.21,6.21,0,0,1-1.35-4.14,7.34,7.34,0,0,1,2.3-5.54,8,8,0,0,1,5.69-2.19Q1069.69,759.57,1072.08,764.66Z"/><path class="cls-4" d="M1077.86,772.94a12.72,12.72,0,0,1,4-9.46,14,14,0,0,1,19.46,0,13.76,13.76,0,0,1,0,19.33,13.62,13.62,0,0,1-9.83,3.88,13,13,0,0,1-9.68-4A13.3,13.3,0,0,1,1077.86,772.94Zm6.06.11a8.69,8.69,0,0,0,2.06,6.09,8,8,0,0,0,11.13,0,9.65,9.65,0,0,0,0-12,7.27,7.27,0,0,0-5.57-2.26,7.18,7.18,0,0,0-5.51,2.26A8.27,8.27,0,0,0,1083.92,773.05Z"/><path class="cls-4" d="M1111.53,760.29h5.93v2.37a12.2,12.2,0,0,1,2.93-2.43,7.08,7.08,0,0,1,3.24-.66,7.87,7.87,0,0,1,6.88,3.8,8.93,8.93,0,0,1,7.57-3.8q8.67,0,8.67,10.52V786h-6V771.7a11,11,0,0,0-.9-5.22,3.25,3.25,0,0,0-3-1.55,3.87,3.87,0,0,0-3.58,1.84c-.74,1.23-1.12,3.21-1.12,5.93V786h-6V771.78c0-4.57-1.31-6.85-4-6.85a4,4,0,0,0-3.65,1.87c-.77,1.25-1.15,3.21-1.15,5.9V786h-5.93Z"/><path class="cls-4" d="M1189.84,741.43h6V786h-6v-2.69a11.09,11.09,0,0,1-7.94,3.43,11.32,11.32,0,0,1-8.75-3.85,14.34,14.34,0,0,1-3.46-9.81,13.85,13.85,0,0,1,3.46-9.6,11.09,11.09,0,0,1,16.69-.19Zm-14.08,31.62a8.94,8.94,0,0,0,2,6,6.47,6.47,0,0,0,5.11,2.35,6.83,6.83,0,0,0,5.33-2.27,9.76,9.76,0,0,0,0-11.92,6.72,6.72,0,0,0-5.28-2.29,6.55,6.55,0,0,0-5.11,2.32A8.55,8.55,0,0,0,1175.76,773.05Z"/><path class="cls-4" d="M1209.22,760.29V775q0,6.39,5,6.39t5-6.39V760.29h5.93v14.87a16.52,16.52,0,0,1-.76,5.32,8.91,8.91,0,0,1-2.56,3.61,12.43,12.43,0,0,1-15.27,0,9,9,0,0,1-2.61-3.61,14.73,14.73,0,0,1-.73-5.32V760.29Z"/><path class="cls-4" d="M1255.49,765.82V786h-5.93V765.82H1247v-5.53h2.53v-9.42h5.93v9.42h4.62v5.53Z"/><path class="cls-4" d="M1264.14,760.29h5.93v2.29a11.44,11.44,0,0,1,2.9-2.35,6.7,6.7,0,0,1,3.06-.66,9.6,9.6,0,0,1,4.91,1.53l-2.72,5.43a5.7,5.7,0,0,0-3.29-1.21q-4.86,0-4.86,7.33V786h-5.93Z"/><path class="cls-4" d="M1282.65,772.94a12.76,12.76,0,0,1,4-9.46,14,14,0,0,1,19.46,0,13.75,13.75,0,0,1,0,19.33,13.64,13.64,0,0,1-9.84,3.88,13.06,13.06,0,0,1-9.68-4A13.3,13.3,0,0,1,1282.65,772.94Zm6.07.11a8.68,8.68,0,0,0,2,6.09,8,8,0,0,0,11.13,0,9.65,9.65,0,0,0,0-12,7.24,7.24,0,0,0-5.56-2.26,7.16,7.16,0,0,0-5.51,2.26A8.27,8.27,0,0,0,1288.72,773.05Z"/><path class="cls-4" d="M1316.32,760.29h5.93v2.29a11.28,11.28,0,0,1,2.91-2.35,6.63,6.63,0,0,1,3-.66,9.6,9.6,0,0,1,4.91,1.53l-2.72,5.43a5.7,5.7,0,0,0-3.29-1.21q-4.86,0-4.86,7.33V786h-5.93Z"/><path class="cls-4" d="M1354.74,783a3.69,3.69,0,0,1,3.66-3.63,3.67,3.67,0,1,1,0,7.33,3.6,3.6,0,0,1-3.66-3.7Zm.68-6.11V745.26h6V776.9Z"/></g></svg>
