<svg xmlns="http://www.w3.org/2000/svg" width="1920" height="1080" viewBox="0 0 1920 1080"><defs><style>.cls-1{fill:#f4912d;}.cls-2{fill:#ff7300;}.cls-3{fill:#512500;}.cls-4{fill:#fff;}</style></defs><title>senarie3_2</title><g id="Layer_1" data-name="Layer 1"><rect class="cls-1" width="1920" height="1080"/><circle class="cls-2" cx="145" cy="150" r="50"/><circle class="cls-2" cx="1214" cy="333" r="50"/><circle class="cls-2" cx="1733" cy="918" r="50"/><circle class="cls-2" cx="226" cy="691" r="50"/><circle class="cls-2" cx="913" cy="576" r="50"/><circle class="cls-2" cx="542" cy="333" r="50"/><circle class="cls-2" cx="1197" cy="841" r="50"/><circle class="cls-2" cx="1570" cy="490" r="50"/><circle class="cls-2" cx="828" cy="150" r="50"/><circle class="cls-2" cx="592" cy="968" r="50"/><circle class="cls-2" cx="1620" cy="174" r="50"/><polygon class="cls-2" points="442 81 363 81 363 106 363 124 363 169 327 169 327 212 328 212 328 258 292 258 292 301 371 301 371 279 371 258 371 212 406 212 406 185 406 169 406 124 442 124 442 81"/><polygon class="cls-2" points="988 758 909 758 909 783 909 801 909 846 873 846 873 889 874 889 874 935 838 935 838 978 917 978 917 956 917 935 917 889 952 889 952 862 952 846 952 801 988 801 988 758"/><polygon class="cls-2" points="301 907 222 907 222 932 222 950 222 995 186 995 186 1038 187 1038 187 1084 151 1084 151 1127 230 1127 230 1105 230 1084 230 1038 265 1038 265 1011 265 995 265 950 301 950 301 907"/><polygon class="cls-2" points="1392 791 1471 791 1471 816 1471 834 1471 879 1507 879 1507 922 1506 922 1506 968 1542 968 1542 1011 1463 1011 1463 989 1463 968 1463 922 1428 922 1428 895 1428 879 1428 834 1392 834 1392 791"/><polygon class="cls-2" points="1289 -70 1368 -70 1368 -45 1368 -27 1368 18 1404 18 1404 61 1403 61 1403 107 1439 107 1439 150 1360 150 1360 128 1360 107 1360 61 1325 61 1325 34 1325 18 1325 -27 1289 -27 1289 -70"/><polygon class="cls-2" points="1708 370 1787 370 1787 395 1787 413 1787 458 1823 458 1823 501 1822 501 1822 547 1858 547 1858 590 1779 590 1779 568 1779 547 1779 501 1744 501 1744 474 1744 458 1744 413 1708 413 1708 370"/><polygon class="cls-2" points="1063 173 984 173 984 198 984 216 984 261 948 261 948 304 949 304 949 350 913 350 913 393 992 393 992 371 992 350 992 304 1027 304 1027 277 1027 261 1027 216 1063 216 1063 173"/><polygon class="cls-2" points="1414 411 1335 411 1335 436 1335 454 1335 499 1299 499 1299 542 1300 542 1300 588 1264 588 1264 631 1343 631 1343 609 1343 588 1343 542 1378 542 1378 515 1378 499 1378 454 1414 454 1414 411"/><polygon class="cls-2" points="492 521 571 521 571 546 571 564 571 609 607 609 607 652 606 652 606 698 642 698 642 741 563 741 563 719 563 698 563 652 528 652 528 625 528 609 528 564 492 564 492 521"/><polygon class="cls-2" points="-39 273 40 273 40 298 40 316 40 361 76 361 76 404 75 404 75 450 111 450 111 493 32 493 32 471 32 450 32 404 -3 404 -3 377 -3 361 -3 316 -39 316 -39 273"/><rect class="cls-2" x="1796" y="165" width="40" height="110" rx="20" transform="translate(256.53 1176.19) rotate(-38.42)"/><rect class="cls-2" x="1645" y="-20" width="110" height="40" rx="20" transform="translate(643.53 1331.87) rotate(-51.58)"/><rect class="cls-2" x="1544" y="671" width="110" height="40" rx="20" transform="translate(63.93 1514.32) rotate(-51.58)"/><rect class="cls-2" x="1211" y="1037" width="110" height="40" rx="20" transform="translate(-348.87 1391.98) rotate(-51.58)"/><rect class="cls-2" x="703" y="373" width="110" height="40" rx="20" transform="translate(-20.96 742.63) rotate(-51.58)"/><rect class="cls-2" x="7" y="881" width="110" height="40" rx="20" transform="translate(-682.42 389.65) rotate(-51.58)"/><rect class="cls-2" x="354" y="821" width="110" height="40" rx="20" transform="translate(-504.06 638.79) rotate(-51.58)"/><rect class="cls-2" x="554" y="61" width="110" height="40" rx="20" transform="translate(167.08 507.79) rotate(-51.58)"/><rect class="cls-2" x="1037" y="611" width="110" height="40" rx="20" transform="translate(-80.98 1094.4) rotate(-51.58)"/><rect class="cls-2" x="1447" y="246" width="40" height="110" rx="20" transform="translate(130.62 976.85) rotate(-38.42)"/><rect class="cls-2" x="1127" y="-15" width="40" height="110" rx="20" transform="translate(223.52 721.47) rotate(-38.42)"/><rect class="cls-2" x="1900" y="750" width="40" height="110" rx="20" transform="translate(-84.5 1367.51) rotate(-38.42)"/><rect class="cls-2" x="696" y="786" width="40" height="110" rx="20" transform="translate(-367.59 627.07) rotate(-38.42)"/><rect class="cls-2" x="265" y="435" width="40" height="110" rx="20" transform="translate(-242.8 283.22) rotate(-38.42)"/><rect class="cls-3" x="328" y="166" width="1140" height="655" rx="12"/><rect class="cls-2" x="418" y="263" width="1140" height="655" rx="12"/></g><g id="Layer_3" data-name="Layer 3"><path class="cls-4" d="M449.22,308.85h16.91V293.51h5.92v39.21h-5.92V314.41H449.22v18.31h-5.91V293.51h5.91Z"/><path class="cls-4" d="M502.88,321.7H485.15a7.49,7.49,0,0,0,2,4.85,6.07,6.07,0,0,0,4.5,1.78,5.83,5.83,0,0,0,3.53-1,14.61,14.61,0,0,0,3.12-3.76l4.82,2.69a19.13,19.13,0,0,1-2.36,3.27,12.76,12.76,0,0,1-2.66,2.23A10.85,10.85,0,0,1,495,333a15,15,0,0,1-3.58.41,11.62,11.62,0,0,1-8.88-3.56,13.29,13.29,0,0,1-3.35-9.49,13.69,13.69,0,0,1,3.25-9.5,11.21,11.21,0,0,1,8.68-3.58,11.09,11.09,0,0,1,8.63,3.48q3.15,3.45,3.15,9.57ZM497,317q-1.2-4.57-5.76-4.57a6,6,0,0,0-2,.31,5.74,5.74,0,0,0-1.66.92,5.66,5.66,0,0,0-1.28,1.43,6.72,6.72,0,0,0-.82,1.91Z"/><path class="cls-4" d="M514.83,289.83v42.89h-5.71V289.83Z"/><path class="cls-4" d="M528,313.32v19.4h-5.71v-19.4h-2.44V308h2.44v-9.07H528V308h4.44v5.33Z"/><path class="cls-4" d="M552.34,308h5.71v2.21a10.83,10.83,0,0,1,2.79-2.26,6.32,6.32,0,0,1,2.95-.64,9.24,9.24,0,0,1,4.72,1.47L565.89,314a5.49,5.49,0,0,0-3.17-1.16q-4.66,0-4.67,7.06v12.82h-5.71Z"/><path class="cls-4" d="M571.71,297.7a3.55,3.55,0,0,1,1.09-2.59,3.72,3.72,0,1,1,5.26,5.26,3.52,3.52,0,0,1-2.62,1.09,3.72,3.72,0,0,1-3.73-3.76ZM578.29,308v24.73h-5.72V308Z"/><path class="cls-4" d="M609.44,332.13c0,1.17,0,2.2-.11,3.09s-.19,1.67-.32,2.35a10.48,10.48,0,0,1-2.39,4.8,11.58,11.58,0,0,1-9.22,3.86,12.3,12.3,0,0,1-8.15-2.67,10.86,10.86,0,0,1-3.8-7.59h5.73a6.47,6.47,0,0,0,1.1,2.82,6.13,6.13,0,0,0,5.18,2.31q6.27,0,6.27-7.7V330a10.68,10.68,0,0,1-7.85,3.48,10.54,10.54,0,0,1-8.28-3.66,13.58,13.58,0,0,1-3.25-9.27,14.26,14.26,0,0,1,3-9.19,10.49,10.49,0,0,1,8.58-4,10,10,0,0,1,7.77,3.48V308h5.71ZM604,320.4a8.36,8.36,0,0,0-1.93-5.76,6.42,6.42,0,0,0-5-2.21,6.16,6.16,0,0,0-5.13,2.41,8.78,8.78,0,0,0-1.7,5.59,8.67,8.67,0,0,0,1.7,5.53,6.16,6.16,0,0,0,5.13,2.37,6.27,6.27,0,0,0,5.18-2.39A8.51,8.51,0,0,0,604,320.4Z"/><path class="cls-4" d="M622.54,313.32v19.4h-5.71v-19.4h-2.44V308h2.44v-9.07h5.71V308H627v5.33Z"/><path class="cls-4" d="M630,297.7a3.55,3.55,0,0,1,1.09-2.59,3.71,3.71,0,0,1,5.25,0,3.54,3.54,0,0,1,1.1,2.62,3.6,3.6,0,0,1-1.1,2.64,3.5,3.5,0,0,1-2.61,1.09A3.72,3.72,0,0,1,630,297.7ZM636.58,308v24.73h-5.71V308Z"/><path class="cls-4" d="M667.74,332.13q0,1.75-.12,3.09a19.13,19.13,0,0,1-.32,2.35,10.46,10.46,0,0,1-2.38,4.8,11.59,11.59,0,0,1-9.22,3.86,12.28,12.28,0,0,1-8.15-2.67,10.91,10.91,0,0,1-3.81-7.59h5.74a6.47,6.47,0,0,0,1.09,2.82,6.14,6.14,0,0,0,5.18,2.31q6.27,0,6.27-7.7V330a10.66,10.66,0,0,1-7.84,3.48,10.54,10.54,0,0,1-8.28-3.66,13.53,13.53,0,0,1-3.25-9.27,14.31,14.31,0,0,1,3-9.19,10.52,10.52,0,0,1,8.58-4,10,10,0,0,1,7.77,3.48V308h5.72Zm-5.49-11.73a8.31,8.31,0,0,0-1.93-5.76,6.38,6.38,0,0,0-5-2.21,6.14,6.14,0,0,0-5.13,2.41,8.78,8.78,0,0,0-1.7,5.59,8.67,8.67,0,0,0,1.7,5.53,6.16,6.16,0,0,0,5.13,2.37,6.28,6.28,0,0,0,5.18-2.39A8.51,8.51,0,0,0,662.25,320.4Z"/><path class="cls-4" d="M680.84,313.32v19.4h-5.72v-19.4h-2.43V308h2.43v-9.07h5.72V308h4.44v5.33Z"/><path class="cls-4" d="M706.71,329.87a3.48,3.48,0,1,1,1,2.54A3.4,3.4,0,0,1,706.71,329.87Zm.66-5.89V293.51h5.74V324Z"/><path class="cls-4" d="M443.22,456.32V417.87h8.07a29.5,29.5,0,0,1,9.16,1.14,17.22,17.22,0,0,1,6.55,3.81q6,5.43,5.95,14.27a18.71,18.71,0,0,1-12.72,18.16,29.85,29.85,0,0,1-9,1.07Zm5.8-5.46h2.61a21.71,21.71,0,0,0,6.5-.82,13.17,13.17,0,0,0,9-13,13.39,13.39,0,0,0-4.23-10.26q-3.81-3.51-11.24-3.51H449Z"/><path class="cls-4" d="M501.27,445.51H483.88a7.37,7.37,0,0,0,1.95,4.76,5.91,5.91,0,0,0,4.4,1.74,5.72,5.72,0,0,0,3.47-1,14.33,14.33,0,0,0,3.06-3.68l4.73,2.64a18.73,18.73,0,0,1-2.32,3.2,12.06,12.06,0,0,1-2.61,2.19,10.73,10.73,0,0,1-3,1.26,14.84,14.84,0,0,1-3.51.4,11.43,11.43,0,0,1-8.71-3.49,13.1,13.1,0,0,1-3.29-9.32,13.42,13.42,0,0,1,3.19-9.31,12.15,12.15,0,0,1,17-.1q3.09,3.39,3.09,9.39Zm-5.76-4.58q-1.17-4.49-5.65-4.48a5.77,5.77,0,0,0-1.92.31,5.28,5.28,0,0,0-1.63.89,5.69,5.69,0,0,0-1.26,1.41,6.71,6.71,0,0,0-.79,1.87Z"/><path class="cls-4" d="M507.39,432.06H513v2.24a9.19,9.19,0,0,1,6.62-2.91,8.36,8.36,0,0,1,6.6,2.66c1.36,1.52,2,4,2,7.4v14.87h-5.63V442.77c0-2.39-.34-4-1-4.95s-1.83-1.4-3.54-1.4a4.32,4.32,0,0,0-4,1.84c-.77,1.22-1.15,3.33-1.15,6.35v11.71h-5.63Z"/><path class="cls-4" d="M535.36,432.06H541v2.24a9.2,9.2,0,0,1,6.63-2.91,8.39,8.39,0,0,1,6.6,2.66c1.36,1.52,2,4,2,7.4v14.87h-5.63V442.77c0-2.39-.33-4-1-4.95s-1.82-1.4-3.53-1.4a4.34,4.34,0,0,0-4,1.84c-.76,1.22-1.15,3.33-1.15,6.35v11.71h-5.62Z"/><path class="cls-4" d="M585.41,445.51H568a7.36,7.36,0,0,0,1.94,4.76,5.93,5.93,0,0,0,4.41,1.74,5.69,5.69,0,0,0,3.46-1,13.94,13.94,0,0,0,3.06-3.68l4.73,2.64a19.26,19.26,0,0,1-2.31,3.2,12.35,12.35,0,0,1-2.62,2.19,10.67,10.67,0,0,1-3,1.26,15,15,0,0,1-3.51.4,11.44,11.44,0,0,1-8.72-3.49,13.09,13.09,0,0,1-3.28-9.32,13.47,13.47,0,0,1,3.18-9.31,12.16,12.16,0,0,1,17-.1q3.09,3.39,3.08,9.39Zm-5.75-4.58q-1.17-4.49-5.66-4.48a5.67,5.67,0,0,0-1.91.31,5.28,5.28,0,0,0-1.63.89,5.69,5.69,0,0,0-1.26,1.41,6.44,6.44,0,0,0-.8,1.87Z"/><path class="cls-4" d="M621.37,436.2l-4.63,2.46c-.73-1.49-1.64-2.24-2.72-2.24a1.88,1.88,0,0,0-1.32.51,1.73,1.73,0,0,0-.54,1.31c0,.93,1.07,1.85,3.23,2.76a19.32,19.32,0,0,1,6,3.54,6.05,6.05,0,0,1,1.55,4.36,7.63,7.63,0,0,1-2.59,5.87,8.8,8.8,0,0,1-6.08,2.25q-6.1,0-8.64-6l4.78-2.21a10.38,10.38,0,0,0,1.52,2.21,3.44,3.44,0,0,0,2.44.95c1.89,0,2.84-.86,2.84-2.59q0-1.5-2.19-2.79c-.57-.28-1.13-.56-1.69-.82l-1.72-.82a10.61,10.61,0,0,1-3.44-2.39,5.89,5.89,0,0,1-1.27-3.91,6.9,6.9,0,0,1,2.17-5.23,7.58,7.58,0,0,1,5.38-2.07Q619.1,431.39,621.37,436.2Z"/><path class="cls-4" d="M627.12,422a3.65,3.65,0,0,1,3.64-3.61,3.52,3.52,0,0,1,2.59,1.07,3.44,3.44,0,0,1,1.07,2.56,3.52,3.52,0,0,1-1.07,2.59,3.44,3.44,0,0,1-2.57,1.07,3.52,3.52,0,0,1-2.59-1.07A3.55,3.55,0,0,1,627.12,422Zm6.45,10.08v24.26H628V432.06Z"/><path class="cls-4" d="M646.45,437.29v19h-5.61v-19h-2.39v-5.23h2.39v-8.89h5.61v8.89h4.35v5.23Z"/><path class="cls-4" d="M660.22,432.06V446q0,6,4.75,6t4.76-6V432.06h5.6v14.05a15.67,15.67,0,0,1-.72,5,8.46,8.46,0,0,1-2.42,3.41,11.74,11.74,0,0,1-14.41,0,8.5,8.5,0,0,1-2.47-3.41,14,14,0,0,1-.7-5V432.06Z"/><path class="cls-4" d="M700.28,432.06h5.63v24.26h-5.63v-2.54a10.75,10.75,0,0,1-15.76-.4,13.53,13.53,0,0,1-3.26-9.26,13.11,13.11,0,0,1,3.26-9.09,10.51,10.51,0,0,1,8.17-3.64,10.29,10.29,0,0,1,7.59,3.49ZM687,444.12a8.46,8.46,0,0,0,1.86,5.67,6.12,6.12,0,0,0,4.83,2.22,6.44,6.44,0,0,0,5-2.14,9.25,9.25,0,0,0,0-11.26,6.35,6.35,0,0,0-5-2.16,6.21,6.21,0,0,0-4.84,2.19A8.06,8.06,0,0,0,687,444.12Z"/><path class="cls-4" d="M718.76,437.29v19h-5.6v-19h-2.39v-5.23h2.39v-8.89h5.6v8.89h4.36v5.23Z"/><path class="cls-4" d="M726.08,422a3.65,3.65,0,0,1,3.64-3.61,3.52,3.52,0,0,1,2.59,1.07,3.44,3.44,0,0,1,1.07,2.56,3.52,3.52,0,0,1-1.07,2.59,3.43,3.43,0,0,1-2.57,1.07,3.52,3.52,0,0,1-2.59-1.07A3.55,3.55,0,0,1,726.08,422Zm6.45,10.08v24.26h-5.6V432.06Z"/><path class="cls-4" d="M738.48,444a12.06,12.06,0,0,1,3.76-8.94,13.26,13.26,0,0,1,18.38,0,13,13,0,0,1,0,18.25,12.87,12.87,0,0,1-9.29,3.67,12.33,12.33,0,0,1-9.14-3.74A12.55,12.55,0,0,1,738.48,444Zm5.73.1a8.2,8.2,0,0,0,1.94,5.75,7.55,7.55,0,0,0,10.51,0,9.09,9.09,0,0,0,0-11.3,7.46,7.46,0,0,0-10.46,0A7.83,7.83,0,0,0,744.21,444.12Z"/><path class="cls-4" d="M770.28,432.06h5.63v2.24a9.2,9.2,0,0,1,6.63-2.91,8.36,8.36,0,0,1,6.59,2.66c1.37,1.52,2,4,2,7.4v14.87h-5.63V442.77c0-2.39-.33-4-1-4.95s-1.82-1.4-3.53-1.4a4.34,4.34,0,0,0-4,1.84c-.77,1.22-1.15,3.33-1.15,6.35v11.71h-5.63Z"/><path class="cls-4" d="M836.08,445.51H818.69a7.37,7.37,0,0,0,1.95,4.76A5.91,5.91,0,0,0,825,452a5.72,5.72,0,0,0,3.47-1,14.33,14.33,0,0,0,3.06-3.68L836.3,450a18.73,18.73,0,0,1-2.32,3.2,12.06,12.06,0,0,1-2.61,2.19,10.79,10.79,0,0,1-3,1.26,15,15,0,0,1-3.52.4,11.43,11.43,0,0,1-8.71-3.49,13.1,13.1,0,0,1-3.29-9.32A13.42,13.42,0,0,1,816,434.9a12.15,12.15,0,0,1,17-.1q3.09,3.39,3.09,9.39Zm-5.76-4.58q-1.17-4.49-5.65-4.48a5.77,5.77,0,0,0-1.92.31,5.4,5.4,0,0,0-1.63.89,5.69,5.69,0,0,0-1.26,1.41,6.71,6.71,0,0,0-.79,1.87Z"/><path class="cls-4" d="M842.2,432.06h5.6v2.17a10.87,10.87,0,0,1,2.74-2.22,6.38,6.38,0,0,1,2.89-.62,9.06,9.06,0,0,1,4.63,1.44L855.5,438a5.36,5.36,0,0,0-3.11-1.14q-4.59,0-4.59,6.92v12.58h-5.6Z"/><path class="cls-4" d="M882.62,432.06V446c0,4,1.58,6,4.76,6s4.75-2,4.75-6V432.06h5.6v14.05a15.67,15.67,0,0,1-.72,5,8.43,8.43,0,0,1-2.41,3.41,11.76,11.76,0,0,1-14.42,0,8.6,8.6,0,0,1-2.47-3.41,14,14,0,0,1-.69-5V432.06Z"/><path class="cls-4" d="M910.41,414.26v42.06h-5.6V414.26Z"/><path class="cls-4" d="M916.36,444a12,12,0,0,1,3.76-8.94,13.26,13.26,0,0,1,18.38,0,13,13,0,0,1,0,18.25,12.85,12.85,0,0,1-9.28,3.67,12.31,12.31,0,0,1-9.14-3.74A12.55,12.55,0,0,1,916.36,444Zm5.73.1a8.2,8.2,0,0,0,1.94,5.75,7.55,7.55,0,0,0,10.51,0,9.09,9.09,0,0,0,0-11.3,7.46,7.46,0,0,0-10.46,0A7.79,7.79,0,0,0,922.09,444.12Z"/><path class="cls-4" d="M950.15,432.06l6.28,13.62,6.25-13.62H969L956.38,458l-12.5-25.93Z"/><path class="cls-4" d="M978.82,414.26v42.06h-5.61V414.26Z"/><path class="cls-4" d="M985.07,422a3.65,3.65,0,0,1,3.63-3.61,3.5,3.5,0,0,1,2.59,1.07,3.41,3.41,0,0,1,1.07,2.56,3.49,3.49,0,0,1-1.07,2.59,3.42,3.42,0,0,1-2.56,1.07,3.65,3.65,0,0,1-3.66-3.68Zm6.45,10.08v24.26h-5.61V432.06Z"/><path class="cls-4" d="M1022.07,455.75c0,1.14,0,2.15-.11,3a20.45,20.45,0,0,1-.31,2.3,10.28,10.28,0,0,1-2.34,4.71,11.37,11.37,0,0,1-9,3.79,12.07,12.07,0,0,1-8-2.62,10.66,10.66,0,0,1-3.74-7.44h5.63a6.3,6.3,0,0,0,1.07,2.76,6,6,0,0,0,5.08,2.27q6.15,0,6.15-7.55V453.6a10.46,10.46,0,0,1-7.7,3.42,10.32,10.32,0,0,1-8.11-3.59,13.25,13.25,0,0,1-3.19-9.09,14,14,0,0,1,3-9,10.29,10.29,0,0,1,8.42-3.94,9.8,9.8,0,0,1,7.62,3.41v-2.74h5.6Zm-5.38-11.51a8.16,8.16,0,0,0-1.89-5.65,6.24,6.24,0,0,0-4.91-2.17,6,6,0,0,0-5,2.37,9.73,9.73,0,0,0,0,10.9,6,6,0,0,0,5,2.32,6.13,6.13,0,0,0,5.08-2.34A8.31,8.31,0,0,0,1016.69,444.24Z"/><path class="cls-4" d="M1043.74,444a12,12,0,0,1,3.76-8.94,12.58,12.58,0,0,1,9.16-3.69,12.71,12.71,0,0,1,9.22,3.71,13,13,0,0,1,0,18.25,12.86,12.86,0,0,1-9.29,3.67,12.35,12.35,0,0,1-9.14-3.74A12.54,12.54,0,0,1,1043.74,444Zm5.72.1a8.16,8.16,0,0,0,2,5.75,7.55,7.55,0,0,0,10.51,0,9.12,9.12,0,0,0,0-11.3,6.85,6.85,0,0,0-5.26-2.14,6.75,6.75,0,0,0-5.2,2.14A7.79,7.79,0,0,0,1049.46,444.12Z"/><path class="cls-4" d="M1099,455.75c0,1.14,0,2.15-.12,3a18.37,18.37,0,0,1-.31,2.3,10.28,10.28,0,0,1-2.34,4.71,11.35,11.35,0,0,1-9,3.79,12.08,12.08,0,0,1-8-2.62,10.66,10.66,0,0,1-3.74-7.44h5.63a6.42,6.42,0,0,0,1.07,2.76,6,6,0,0,0,5.08,2.27q6.15,0,6.15-7.55V453.6a10.44,10.44,0,0,1-7.69,3.42,10.34,10.34,0,0,1-8.12-3.59,13.3,13.3,0,0,1-3.19-9.09,13.94,13.94,0,0,1,3-9,10.27,10.27,0,0,1,8.41-3.94,9.77,9.77,0,0,1,7.62,3.41v-2.74H1099Zm-5.38-11.51a8.12,8.12,0,0,0-1.9-5.65,6.22,6.22,0,0,0-4.9-2.17,6,6,0,0,0-5,2.37,9.73,9.73,0,0,0,0,10.9,6,6,0,0,0,5,2.32,6.16,6.16,0,0,0,5.08-2.34A8.37,8.37,0,0,0,1093.62,444.24Z"/><path class="cls-4" d="M1143.89,445.51h-17.38a7.37,7.37,0,0,0,2,4.76,5.91,5.91,0,0,0,4.4,1.74,5.67,5.67,0,0,0,3.46-1,14.13,14.13,0,0,0,3.07-3.68l4.73,2.64a18.73,18.73,0,0,1-2.32,3.2,12.06,12.06,0,0,1-2.61,2.19,10.73,10.73,0,0,1-3,1.26,15,15,0,0,1-3.51.4,11.42,11.42,0,0,1-8.71-3.49,13.1,13.1,0,0,1-3.29-9.32,13.42,13.42,0,0,1,3.19-9.31,12.15,12.15,0,0,1,17-.1q3.09,3.39,3.09,9.39Zm-5.75-4.58q-1.17-4.49-5.65-4.48a5.77,5.77,0,0,0-1.92.31,5.28,5.28,0,0,0-1.63.89,5.69,5.69,0,0,0-1.26,1.41,6.43,6.43,0,0,0-.79,1.87Z"/><path class="cls-4" d="M1150,432.06h5.6v2.17a10.87,10.87,0,0,1,2.74-2.22,6.38,6.38,0,0,1,2.89-.62,9.06,9.06,0,0,1,4.63,1.44l-2.56,5.13a5.36,5.36,0,0,0-3.11-1.14q-4.59,0-4.59,6.92v12.58H1150Z"/><path class="cls-4" d="M1208.29,455.75c0,1.14,0,2.15-.11,3a23.05,23.05,0,0,1-.31,2.3,10.28,10.28,0,0,1-2.34,4.71,11.37,11.37,0,0,1-9,3.79,12.11,12.11,0,0,1-8-2.62,10.65,10.65,0,0,1-3.73-7.44h5.63a6.3,6.3,0,0,0,1.07,2.76,6,6,0,0,0,5.08,2.27q6.15,0,6.15-7.55V453.6A10.46,10.46,0,0,1,1195,457a10.32,10.32,0,0,1-8.11-3.59,13.25,13.25,0,0,1-3.19-9.09,13.94,13.94,0,0,1,3-9,10.29,10.29,0,0,1,8.42-3.94,9.8,9.8,0,0,1,7.62,3.41v-2.74h5.6Zm-5.38-11.51a8.16,8.16,0,0,0-1.89-5.65,6.24,6.24,0,0,0-4.91-2.17,6,6,0,0,0-5,2.37,9.78,9.78,0,0,0,0,10.9,6,6,0,0,0,5,2.32,6.13,6.13,0,0,0,5.08-2.34A8.31,8.31,0,0,0,1202.91,444.24Z"/><path class="cls-4" d="M1214.52,422a3.65,3.65,0,0,1,3.63-3.61,3.49,3.49,0,0,1,2.59,1.07,3.41,3.41,0,0,1,1.07,2.56,3.49,3.49,0,0,1-1.07,2.59,3.41,3.41,0,0,1-2.56,1.07,3.65,3.65,0,0,1-3.66-3.68Zm6.45,10.08v37.46h-5.61V432.06Z"/><path class="cls-4" d="M1226.92,444a12,12,0,0,1,3.76-8.94,12.58,12.58,0,0,1,9.16-3.69,12.71,12.71,0,0,1,9.22,3.71,13,13,0,0,1,0,18.25,12.86,12.86,0,0,1-9.29,3.67,12.35,12.35,0,0,1-9.14-3.74A12.58,12.58,0,0,1,1226.92,444Zm5.73.1a8.15,8.15,0,0,0,1.94,5.75,7.55,7.55,0,0,0,10.51,0,9.12,9.12,0,0,0,0-11.3,6.84,6.84,0,0,0-5.26-2.14,6.76,6.76,0,0,0-5.2,2.14A7.79,7.79,0,0,0,1232.65,444.12Z"/><path class="cls-4" d="M1258.72,432.06h5.6v2.17a10.87,10.87,0,0,1,2.74-2.22,6.38,6.38,0,0,1,2.89-.62,9.06,9.06,0,0,1,4.63,1.44L1272,438a5.36,5.36,0,0,0-3.12-1.14q-4.58,0-4.58,6.92v12.58h-5.6Z"/><path class="cls-4" d="M1285.42,437.29v19h-5.61v-19h-2.39v-5.23h2.39v-8.89h5.61v8.89h4.35v5.23Z"/><path class="cls-4" d="M1308.47,422a3.65,3.65,0,0,1,6.23-2.54,3.44,3.44,0,0,1,1.07,2.56,3.52,3.52,0,0,1-1.07,2.59,3.43,3.43,0,0,1-2.57,1.07,3.52,3.52,0,0,1-2.59-1.07A3.55,3.55,0,0,1,1308.47,422Zm6.45,10.08v24.26h-5.6V432.06Z"/><path class="cls-4" d="M1359.85,445.51h-17.39a7.42,7.42,0,0,0,2,4.76,5.91,5.91,0,0,0,4.41,1.74,5.71,5.71,0,0,0,3.46-1,14.33,14.33,0,0,0,3.06-3.68l4.73,2.64a19.26,19.26,0,0,1-2.31,3.2,12.35,12.35,0,0,1-2.62,2.19,10.67,10.67,0,0,1-3,1.26,15,15,0,0,1-3.51.4,11.44,11.44,0,0,1-8.72-3.49,13.1,13.1,0,0,1-3.29-9.32,13.47,13.47,0,0,1,3.19-9.31,12.15,12.15,0,0,1,17-.1q3.09,3.39,3.09,9.39Zm-5.76-4.58q-1.17-4.49-5.65-4.48a5.77,5.77,0,0,0-1.92.31,5.4,5.4,0,0,0-1.63.89,5.46,5.46,0,0,0-1.25,1.41,6.44,6.44,0,0,0-.8,1.87Z"/><path class="cls-4" d="M1366,432.06h5.63v2.24a9.2,9.2,0,0,1,6.63-2.91,8.36,8.36,0,0,1,6.59,2.66c1.37,1.52,2,4,2,7.4v14.87h-5.63V442.77c0-2.39-.33-4-1-4.95s-1.82-1.4-3.53-1.4a4.34,4.34,0,0,0-4,1.84c-.77,1.22-1.15,3.33-1.15,6.35v11.71H1366Z"/><path class="cls-4" d="M1408.53,444a12,12,0,0,1,3.76-8.94,13.26,13.26,0,0,1,18.38,0,13,13,0,0,1,0,18.25,12.85,12.85,0,0,1-9.28,3.67,12.31,12.31,0,0,1-9.14-3.74A12.55,12.55,0,0,1,1408.53,444Zm5.73.1a8.2,8.2,0,0,0,1.94,5.75,7.55,7.55,0,0,0,10.51,0,9.09,9.09,0,0,0,0-11.3,7.46,7.46,0,0,0-10.46,0A7.79,7.79,0,0,0,1414.26,444.12Z"/><path class="cls-4" d="M1440.33,432.06H1446v2.24a9.19,9.19,0,0,1,6.62-2.91,8.38,8.38,0,0,1,6.6,2.66c1.36,1.52,2,4,2,7.4v14.87h-5.62V442.77c0-2.39-.34-4-1-4.95s-1.83-1.4-3.54-1.4a4.34,4.34,0,0,0-4,1.84c-.76,1.22-1.14,3.33-1.14,6.35v11.71h-5.63Z"/><path class="cls-4" d="M1486.18,414.26h5.62v42.06h-5.62v-2.54a10.46,10.46,0,0,1-7.5,3.24,10.69,10.69,0,0,1-8.27-3.64,13.53,13.53,0,0,1-3.26-9.26,13.11,13.11,0,0,1,3.26-9.07,10.48,10.48,0,0,1,15.77-.17Zm-13.3,29.86a8.41,8.41,0,0,0,1.87,5.67,6.09,6.09,0,0,0,4.83,2.22,6.43,6.43,0,0,0,5-2.14,9.25,9.25,0,0,0,0-11.26,6.35,6.35,0,0,0-5-2.16,6.21,6.21,0,0,0-4.84,2.19A8.11,8.11,0,0,0,1472.88,444.12Z"/><path class="cls-4" d="M442.15,475.46h5.6v19.82a9.66,9.66,0,0,1,6.6-2.69,8.5,8.5,0,0,1,6.57,2.67q2.1,2.31,2.1,7.39v14.87h-5.61V503.17a6.83,6.83,0,0,0-1-4.22,4,4,0,0,0-3.33-1.3c-1.95,0-3.33.6-4.13,1.81s-1.17,3.34-1.17,6.33v11.73h-5.6Z"/><path class="cls-4" d="M492.2,506.71H474.82a7.41,7.41,0,0,0,1.94,4.76,5.94,5.94,0,0,0,4.41,1.74,5.69,5.69,0,0,0,3.46-1,13.94,13.94,0,0,0,3.06-3.68l4.73,2.64a19.26,19.26,0,0,1-2.31,3.2,12.35,12.35,0,0,1-2.62,2.19,10.67,10.67,0,0,1-3,1.26,15,15,0,0,1-3.51.39,11.45,11.45,0,0,1-8.72-3.48,13.08,13.08,0,0,1-3.28-9.31,13.48,13.48,0,0,1,3.18-9.32,12.16,12.16,0,0,1,17-.1q3.09,3.39,3.09,9.39Zm-5.75-4.58q-1.17-4.49-5.66-4.48a5.71,5.71,0,0,0-1.91.31,5.5,5.5,0,0,0-1.63.89,5.69,5.69,0,0,0-1.26,1.41,6.72,6.72,0,0,0-.8,1.87Z"/><path class="cls-4" d="M498.33,493.26H504v2.24a9.16,9.16,0,0,1,6.62-2.91,8.37,8.37,0,0,1,6.6,2.67q2,2.26,2,7.39v14.87h-5.63V504q0-3.59-1-5c-.65-.93-1.83-1.4-3.54-1.4a4.34,4.34,0,0,0-4,1.84c-.76,1.22-1.14,3.33-1.14,6.35v11.71h-5.63Z"/><path class="cls-4" d="M540.39,497.4l-4.64,2.46c-.73-1.49-1.63-2.24-2.71-2.24a1.88,1.88,0,0,0-1.32.51,1.73,1.73,0,0,0-.55,1.31q0,1.4,3.24,2.76a19.32,19.32,0,0,1,6,3.54A6.05,6.05,0,0,1,542,510.1a7.63,7.63,0,0,1-2.59,5.87,8.81,8.81,0,0,1-6.08,2.24q-6.1,0-8.64-6l4.78-2.21a10,10,0,0,0,1.52,2.21,3.46,3.46,0,0,0,2.44,1c1.89,0,2.84-.86,2.84-2.59q0-1.5-2.19-2.79l-1.7-.82-1.72-.82a10.66,10.66,0,0,1-3.43-2.39,5.87,5.87,0,0,1-1.27-3.91,6.93,6.93,0,0,1,2.16-5.23,7.61,7.61,0,0,1,5.38-2.07Q538.13,492.59,540.39,497.4Z"/><path class="cls-4" d="M546.14,483.18a3.64,3.64,0,0,1,6.22-2.54,3.41,3.41,0,0,1,1.08,2.56,3.51,3.51,0,0,1-1.08,2.59,3.41,3.41,0,0,1-2.56,1.07,3.5,3.5,0,0,1-2.59-1.07A3.55,3.55,0,0,1,546.14,483.18Zm6.45,10.08v24.26H547V493.26Z"/><path class="cls-4" d="M583.14,517c0,1.14,0,2.15-.11,3a20.45,20.45,0,0,1-.31,2.3,10.28,10.28,0,0,1-2.34,4.71,11.37,11.37,0,0,1-9,3.79,12.07,12.07,0,0,1-8-2.62,10.66,10.66,0,0,1-3.74-7.44h5.63a6.3,6.3,0,0,0,1.07,2.76,6,6,0,0,0,5.08,2.27q6.15,0,6.15-7.55V514.8a10.69,10.69,0,0,1-15.81-.17,13.25,13.25,0,0,1-3.19-9.09,14,14,0,0,1,3-9,10.29,10.29,0,0,1,8.42-3.94,9.8,9.8,0,0,1,7.62,3.41v-2.74h5.6Zm-5.38-11.51a8.16,8.16,0,0,0-1.89-5.65,6.24,6.24,0,0,0-4.9-2.17,6,6,0,0,0-5,2.37,9.73,9.73,0,0,0,0,10.9,6,6,0,0,0,5,2.32,6.16,6.16,0,0,0,5.08-2.34A8.36,8.36,0,0,0,577.76,505.44Z"/><path class="cls-4" d="M596,498.49v19h-5.6v-19H588v-5.23h2.39v-8.89H596v8.89h4.36v5.23Z"/><path class="cls-4" d="M605,514.73a3.4,3.4,0,1,1,1,2.49A3.36,3.36,0,0,1,605,514.73Z"/><path class="cls-4" d="M658.45,484.8l-4.71,2.79a8.1,8.1,0,0,0-2.51-3,5.89,5.89,0,0,0-3.22-.8,6,6,0,0,0-4,1.37,4.26,4.26,0,0,0-1.59,3.39c0,1.87,1.4,3.38,4.18,4.53l3.84,1.57a16.39,16.39,0,0,1,6.85,4.62,10.42,10.42,0,0,1,2.16,6.68,11.74,11.74,0,0,1-3.53,8.77,12.16,12.16,0,0,1-8.84,3.48,11.8,11.8,0,0,1-8.27-3,13.61,13.61,0,0,1-4-8.34l5.88-1.29a10,10,0,0,0,1.39,4.68,6.63,6.63,0,0,0,9.74.67,6.31,6.31,0,0,0,1.79-4.61,6.39,6.39,0,0,0-.31-2.05,5.26,5.26,0,0,0-1-1.72,7.9,7.9,0,0,0-1.71-1.47,15.89,15.89,0,0,0-2.49-1.31l-3.71-1.54q-7.89-3.34-7.89-9.76a9.25,9.25,0,0,1,3.31-7.25,12,12,0,0,1,8.24-2.94Q654.72,478.32,658.45,484.8Z"/><path class="cls-4" d="M687.46,506.71H670.08a7.36,7.36,0,0,0,1.94,4.76,5.93,5.93,0,0,0,4.41,1.74,5.69,5.69,0,0,0,3.46-1,13.94,13.94,0,0,0,3.06-3.68l4.73,2.64a19.26,19.26,0,0,1-2.31,3.2,12.35,12.35,0,0,1-2.62,2.19,10.67,10.67,0,0,1-3,1.26,15,15,0,0,1-3.51.39,11.43,11.43,0,0,1-8.72-3.48,13.08,13.08,0,0,1-3.28-9.31,13.48,13.48,0,0,1,3.18-9.32,12.16,12.16,0,0,1,17-.1q3.09,3.39,3.08,9.39Zm-5.75-4.58q-1.17-4.49-5.66-4.48a5.67,5.67,0,0,0-1.91.31,5.5,5.5,0,0,0-1.63.89,5.69,5.69,0,0,0-1.26,1.41,6.44,6.44,0,0,0-.8,1.87Z"/><path class="cls-4" d="M699.19,475.46v42.06h-5.61V475.46Z"/><path class="cls-4" d="M709.75,493.26,716,506.88l6.25-13.62h6.3L716,519.19l-12.5-25.93Z"/><path class="cls-4" d="M730.24,505.22a12,12,0,0,1,3.76-8.94,13.26,13.26,0,0,1,18.38,0,13,13,0,0,1,0,18.25,12.81,12.81,0,0,1-9.29,3.66,12.3,12.3,0,0,1-9.13-3.73A12.55,12.55,0,0,1,730.24,505.22Zm5.73.1a8.2,8.2,0,0,0,1.94,5.75,7.55,7.55,0,0,0,10.51,0,9.09,9.09,0,0,0,0-11.3,6.84,6.84,0,0,0-5.26-2.14,6.76,6.76,0,0,0-5.2,2.14A7.79,7.79,0,0,0,736,505.32Z"/><path class="cls-4" d="M762,493.26h5.6v2.24a11.86,11.86,0,0,1,2.77-2.29,6.75,6.75,0,0,1,3.06-.62,7.44,7.44,0,0,1,6.5,3.59,8.42,8.42,0,0,1,7.15-3.59q8.19,0,8.19,9.94v15h-5.63V504.05a10.29,10.29,0,0,0-.85-4.93,3.06,3.06,0,0,0-2.86-1.47,3.65,3.65,0,0,0-3.37,1.74q-1.07,1.74-1.06,5.6v12.53h-5.63v-13.4c0-4.32-1.24-6.47-3.73-6.47a3.75,3.75,0,0,0-3.45,1.76,10.94,10.94,0,0,0-1.09,5.58v12.53H762Z"/><path class="cls-4" d="M836,475.46h5.63v42.06H836V515a10.45,10.45,0,0,1-7.5,3.23,10.66,10.66,0,0,1-8.26-3.63,13.49,13.49,0,0,1-3.27-9.26,13.07,13.07,0,0,1,3.27-9.07,10.47,10.47,0,0,1,15.76-.17Zm-13.3,29.86a8.41,8.41,0,0,0,1.87,5.67,6.12,6.12,0,0,0,4.83,2.22,6.42,6.42,0,0,0,5-2.14,9.21,9.21,0,0,0,0-11.26,6.35,6.35,0,0,0-5-2.16,6.18,6.18,0,0,0-4.83,2.19A8.07,8.07,0,0,0,822.7,505.32Z"/><path class="cls-4" d="M854.3,493.26v13.92q0,6,4.76,6t4.76-6V493.26h5.6v14.05a15.67,15.67,0,0,1-.72,5,8.46,8.46,0,0,1-2.42,3.41,11.8,11.8,0,0,1-14.42,0,8.57,8.57,0,0,1-2.46-3.41,13.77,13.77,0,0,1-.7-5V493.26Z"/><path class="cls-4" d="M892.23,475.46h5.6v19.82a9.66,9.66,0,0,1,6.6-2.69,8.54,8.54,0,0,1,6.58,2.67q2.09,2.31,2.09,7.39v14.87h-5.61V503.17a6.83,6.83,0,0,0-1-4.22,4,4,0,0,0-3.32-1.3c-2,0-3.34.6-4.14,1.81s-1.17,3.34-1.17,6.33v11.73h-5.6Z"/><path class="cls-4" d="M938.07,493.26h5.63v24.26h-5.63V515a10.77,10.77,0,0,1-15.76-.4,13.53,13.53,0,0,1-3.26-9.26,13.11,13.11,0,0,1,3.26-9.09,10.51,10.51,0,0,1,8.17-3.64,10.29,10.29,0,0,1,7.59,3.49Zm-13.29,12.06a8.46,8.46,0,0,0,1.86,5.67,6.12,6.12,0,0,0,4.83,2.22,6.44,6.44,0,0,0,5-2.14,9.25,9.25,0,0,0,0-11.26,6.35,6.35,0,0,0-5-2.16,6.21,6.21,0,0,0-4.84,2.19A8.11,8.11,0,0,0,924.78,505.32Z"/><path class="cls-4" d="M954.24,493.26l6.27,13.62,6.25-13.62h6.3l-12.6,25.93L948,493.26Z"/><path class="cls-4" d="M994.73,475.46h5.63v42.06h-5.63V515a10.45,10.45,0,0,1-7.5,3.23,10.7,10.7,0,0,1-8.27-3.63,13.53,13.53,0,0,1-3.26-9.26,13.11,13.11,0,0,1,3.26-9.07,10.43,10.43,0,0,1,8.15-3.66,10.32,10.32,0,0,1,7.62,3.49Zm-13.3,29.86A8.41,8.41,0,0,0,983.3,511a6.12,6.12,0,0,0,4.83,2.22,6.43,6.43,0,0,0,5-2.14,9.21,9.21,0,0,0,0-11.26,6.35,6.35,0,0,0-5-2.16,6.18,6.18,0,0,0-4.83,2.19A8.07,8.07,0,0,0,981.43,505.32Z"/><path class="cls-4" d="M1029.52,506.71h-17.39a7.42,7.42,0,0,0,2,4.76,5.91,5.91,0,0,0,4.41,1.74,5.71,5.71,0,0,0,3.46-1,14.33,14.33,0,0,0,3.06-3.68l4.73,2.64a19.26,19.26,0,0,1-2.31,3.2,12.35,12.35,0,0,1-2.62,2.19,10.67,10.67,0,0,1-3,1.26,15,15,0,0,1-3.51.39,11.43,11.43,0,0,1-8.72-3.48,13.09,13.09,0,0,1-3.29-9.31,13.48,13.48,0,0,1,3.19-9.32,12.15,12.15,0,0,1,17-.1q3.09,3.39,3.09,9.39Zm-5.76-4.58q-1.17-4.49-5.65-4.48a5.77,5.77,0,0,0-1.92.31,5.62,5.62,0,0,0-1.63.89,5.46,5.46,0,0,0-1.25,1.41,6.44,6.44,0,0,0-.8,1.87Z"/><path class="cls-4" d="M1065.48,497.4l-4.64,2.46c-.73-1.49-1.63-2.24-2.71-2.24a1.88,1.88,0,0,0-1.32.51,1.73,1.73,0,0,0-.55,1.31q0,1.4,3.24,2.76a19.32,19.32,0,0,1,6,3.54,6,6,0,0,1,1.54,4.36,7.63,7.63,0,0,1-2.58,5.87,8.81,8.81,0,0,1-6.08,2.24q-6.11,0-8.64-6l4.78-2.21a10,10,0,0,0,1.52,2.21,3.46,3.46,0,0,0,2.44,1c1.89,0,2.84-.86,2.84-2.59q0-1.5-2.19-2.79l-1.7-.82-1.72-.82a10.66,10.66,0,0,1-3.43-2.39,5.87,5.87,0,0,1-1.27-3.91,6.93,6.93,0,0,1,2.16-5.23,7.61,7.61,0,0,1,5.38-2.07Q1063.22,492.59,1065.48,497.4Z"/><path class="cls-4" d="M1094.16,506.71h-17.38a7.41,7.41,0,0,0,1.94,4.76,5.94,5.94,0,0,0,4.41,1.74,5.67,5.67,0,0,0,3.46-1,14.13,14.13,0,0,0,3.07-3.68l4.73,2.64a19.28,19.28,0,0,1-2.32,3.2,12.06,12.06,0,0,1-2.61,2.19,10.73,10.73,0,0,1-3,1.26,15,15,0,0,1-3.51.39,11.41,11.41,0,0,1-8.71-3.48,13.09,13.09,0,0,1-3.29-9.31,13.43,13.43,0,0,1,3.19-9.32,12.15,12.15,0,0,1,17-.1q3.09,3.39,3.09,9.39Zm-5.75-4.58q-1.17-4.49-5.65-4.48a5.77,5.77,0,0,0-1.92.31,5.5,5.5,0,0,0-1.63.89,5.69,5.69,0,0,0-1.26,1.41,6.43,6.43,0,0,0-.79,1.87Z"/><path class="cls-4" d="M1105.89,475.46v25.65l7.9-7.85h7.52l-10.54,10.19,11.31,14.07h-7.27l-8-10.24-.9.9v9.34h-5.6V475.46Z"/><path class="cls-4" d="M1139.79,497.4l-4.64,2.46c-.73-1.49-1.63-2.24-2.71-2.24a1.85,1.85,0,0,0-1.32.51,1.7,1.7,0,0,0-.55,1.31q0,1.4,3.24,2.76a19.32,19.32,0,0,1,6,3.54,6,6,0,0,1,1.54,4.36,7.6,7.6,0,0,1-2.59,5.87,8.77,8.77,0,0,1-6.07,2.24q-6.11,0-8.64-6l4.78-2.21a10,10,0,0,0,1.52,2.21,3.46,3.46,0,0,0,2.44,1c1.89,0,2.84-.86,2.84-2.59q0-1.5-2.19-2.79l-1.7-.82-1.72-.82a10.66,10.66,0,0,1-3.43-2.39,5.87,5.87,0,0,1-1.27-3.91,6.93,6.93,0,0,1,2.16-5.23,7.6,7.6,0,0,1,5.38-2.07C1136,492.59,1138.27,494.19,1139.79,497.4Z"/><path class="cls-4" d="M1152,493.26v13.92q0,6,4.75,6t4.76-6V493.26h5.6v14.05a15.67,15.67,0,0,1-.72,5,8.36,8.36,0,0,1-2.42,3.41,11.78,11.78,0,0,1-14.41,0,8.5,8.5,0,0,1-2.47-3.41,14,14,0,0,1-.7-5V493.26Z"/><path class="cls-4" d="M1196.26,506.71h-17.38a7.41,7.41,0,0,0,1.94,4.76,5.94,5.94,0,0,0,4.41,1.74,5.67,5.67,0,0,0,3.46-1,14.13,14.13,0,0,0,3.07-3.68l4.73,2.64a19.28,19.28,0,0,1-2.32,3.2,12.06,12.06,0,0,1-2.61,2.19,10.73,10.73,0,0,1-3,1.26,15,15,0,0,1-3.51.39,11.41,11.41,0,0,1-8.71-3.48,13,13,0,0,1-3.29-9.31,13.43,13.43,0,0,1,3.19-9.32,12.15,12.15,0,0,1,17-.1q3.09,3.39,3.09,9.39Zm-5.75-4.58q-1.17-4.49-5.65-4.48a5.77,5.77,0,0,0-1.92.31,5.5,5.5,0,0,0-1.63.89,5.69,5.69,0,0,0-1.26,1.41,6.72,6.72,0,0,0-.8,1.87Z"/><path class="cls-4" d="M1208,475.46v42.06h-5.6V475.46Z"/><path class="cls-4" d="M1220.69,475.46v42.06h-5.6V475.46Z"/><path class="cls-4" d="M1249.88,506.71H1232.5a7.36,7.36,0,0,0,1.94,4.76,5.91,5.91,0,0,0,4.41,1.74,5.71,5.71,0,0,0,3.46-1,13.94,13.94,0,0,0,3.06-3.68l4.73,2.64a19.26,19.26,0,0,1-2.31,3.2,12.35,12.35,0,0,1-2.62,2.19,10.67,10.67,0,0,1-3,1.26,15,15,0,0,1-3.51.39,11.43,11.43,0,0,1-8.72-3.48,13.09,13.09,0,0,1-3.29-9.31,13.48,13.48,0,0,1,3.19-9.32,12.16,12.16,0,0,1,17-.1q3.08,3.39,3.08,9.39Zm-5.75-4.58q-1.17-4.49-5.66-4.48a5.67,5.67,0,0,0-1.91.31,5.55,5.55,0,0,0-1.64.89,5.65,5.65,0,0,0-1.25,1.41,6.44,6.44,0,0,0-.8,1.87Z"/><path class="cls-4" d="M1277.35,475.46v20.62a10.32,10.32,0,0,1,7.62-3.49,10.46,10.46,0,0,1,8.16,3.66,13.07,13.07,0,0,1,3.27,9.07,13.35,13.35,0,0,1-3.29,9.26,10.61,10.61,0,0,1-8.24,3.63,10.44,10.44,0,0,1-7.52-3.23v2.54h-5.61V475.46Zm13.32,30.1a8.37,8.37,0,0,0-1.89-5.67,6,6,0,0,0-4.81-2.24,6.44,6.44,0,0,0-5,2.16,9.21,9.21,0,0,0,0,11.23,6.27,6.27,0,0,0,5,2.17,6.17,6.17,0,0,0,4.83-2.17A8,8,0,0,0,1290.67,505.56Z"/><path class="cls-4" d="M1301.48,483.18a3.65,3.65,0,0,1,3.63-3.61,3.5,3.5,0,0,1,2.59,1.07,3.41,3.41,0,0,1,1.07,2.56,3.5,3.5,0,0,1-1.07,2.59,3.42,3.42,0,0,1-2.56,1.07,3.65,3.65,0,0,1-3.66-3.68Zm6.45,10.08v24.26h-5.61V493.26Z"/><path class="cls-4" d="M1320.62,475.46v42.06H1315V475.46Z"/><path class="cls-4" d="M1333.33,475.46v42.06h-5.61V475.46Z"/><path class="cls-4" d="M1362.51,506.71h-17.38a7.41,7.41,0,0,0,1.94,4.76,5.94,5.94,0,0,0,4.41,1.74,5.69,5.69,0,0,0,3.46-1,13.94,13.94,0,0,0,3.06-3.68l4.74,2.64a19.87,19.87,0,0,1-2.32,3.2,12.11,12.11,0,0,1-2.62,2.19,10.55,10.55,0,0,1-3,1.26,15,15,0,0,1-3.51.39,11.45,11.45,0,0,1-8.72-3.48,13.08,13.08,0,0,1-3.28-9.31,13.48,13.48,0,0,1,3.18-9.32,12.16,12.16,0,0,1,17-.1q3.09,3.39,3.09,9.39Zm-5.75-4.58c-.78-3-2.67-4.48-5.65-4.48a5.73,5.73,0,0,0-1.92.31,5.5,5.5,0,0,0-1.63.89,5.69,5.69,0,0,0-1.26,1.41,6.72,6.72,0,0,0-.8,1.87Z"/><path class="cls-4" d="M1386.52,475.46h5.63v42.06h-5.63V515a10.45,10.45,0,0,1-7.5,3.23,10.7,10.7,0,0,1-8.27-3.63,13.53,13.53,0,0,1-3.26-9.26,13.11,13.11,0,0,1,3.26-9.07,10.43,10.43,0,0,1,8.15-3.66,10.32,10.32,0,0,1,7.62,3.49Zm-13.3,29.86a8.41,8.41,0,0,0,1.87,5.67,6.12,6.12,0,0,0,4.83,2.22,6.43,6.43,0,0,0,5-2.14,9.21,9.21,0,0,0,0-11.26,6.35,6.35,0,0,0-5-2.16,6.18,6.18,0,0,0-4.83,2.19A8.07,8.07,0,0,0,1373.22,505.32Z"/><path class="cls-4" d="M1421.31,506.71h-17.39a7.37,7.37,0,0,0,1.95,4.76,5.91,5.91,0,0,0,4.4,1.74,5.72,5.72,0,0,0,3.47-1,14.33,14.33,0,0,0,3.06-3.68l4.73,2.64a18.73,18.73,0,0,1-2.32,3.2,12.06,12.06,0,0,1-2.61,2.19,10.67,10.67,0,0,1-3,1.26,15,15,0,0,1-3.51.39,11.43,11.43,0,0,1-8.72-3.48,13.09,13.09,0,0,1-3.29-9.31,13.43,13.43,0,0,1,3.19-9.32,12.15,12.15,0,0,1,17-.1q3.09,3.39,3.09,9.39Zm-5.76-4.58q-1.17-4.49-5.65-4.48a5.77,5.77,0,0,0-1.92.31,5.62,5.62,0,0,0-1.63.89,5.69,5.69,0,0,0-1.26,1.41,6.71,6.71,0,0,0-.79,1.87Z"/><path class="cls-4" d="M1427.43,493.26H1433v2.17a10.54,10.54,0,0,1,2.74-2.22,6.31,6.31,0,0,1,2.88-.62,9,9,0,0,1,4.63,1.45l-2.56,5.13a5.31,5.31,0,0,0-3.11-1.15c-3.06,0-4.58,2.31-4.58,6.92v12.58h-5.61Z"/><path class="cls-4" d="M1467.85,530.72h-5.6V493.26h5.6v2.64a10.63,10.63,0,0,1,15.76.38,13.32,13.32,0,0,1,3.29,9.24,13.1,13.1,0,0,1-3.26,9.08,10.63,10.63,0,0,1-15.79.2Zm13.32-25.18a8.4,8.4,0,0,0-1.89-5.68,6.11,6.11,0,0,0-4.83-2.21,6.4,6.4,0,0,0-5,2.14,8.11,8.11,0,0,0-1.92,5.63,8.26,8.26,0,0,0,1.92,5.62,6.27,6.27,0,0,0,5,2.17,6.07,6.07,0,0,0,4.81-2.19A8,8,0,0,0,1481.17,505.54Z"/><path class="cls-4" d="M1510.71,493.26h5.62v24.26h-5.62V515a10.78,10.78,0,0,1-15.77-.4,13.53,13.53,0,0,1-3.26-9.26,13.11,13.11,0,0,1,3.26-9.09,10.51,10.51,0,0,1,8.17-3.64,10.32,10.32,0,0,1,7.6,3.49Zm-13.3,12.06a8.41,8.41,0,0,0,1.87,5.67,6.09,6.09,0,0,0,4.83,2.22,6.43,6.43,0,0,0,5-2.14,9.25,9.25,0,0,0,0-11.26,6.35,6.35,0,0,0-5-2.16,6.21,6.21,0,0,0-4.84,2.19A8.11,8.11,0,0,0,1497.41,505.32Zm1.91-21.3a5.11,5.11,0,0,1,1.6-3.76,5.41,5.41,0,1,1,7.64,7.67,5.11,5.11,0,0,1-3.81,1.6,5.25,5.25,0,0,1-3.86-1.6A5.37,5.37,0,0,1,1499.32,484Zm3,.05a2.41,2.41,0,0,0,.71,1.79,2.55,2.55,0,0,0,3.51,0,2.48,2.48,0,0,0-2.73-4,2.53,2.53,0,0,0-.78.54,2.35,2.35,0,0,0-.53.78A2.47,2.47,0,0,0,1502.29,484.07Z"/><path class="cls-4" d="M460,536.66h5.63v42.06H460v-2.54a10.46,10.46,0,0,1-7.5,3.24,10.71,10.71,0,0,1-8.27-3.64,13.53,13.53,0,0,1-3.26-9.26,13.11,13.11,0,0,1,3.26-9.07,10.43,10.43,0,0,1,8.15-3.66,10.32,10.32,0,0,1,7.62,3.49Zm-13.3,29.86a8.41,8.41,0,0,0,1.87,5.67,6.12,6.12,0,0,0,4.83,2.22,6.43,6.43,0,0,0,5-2.14,9.21,9.21,0,0,0,0-11.26,6.35,6.35,0,0,0-5-2.16,6.18,6.18,0,0,0-4.83,2.19A8.07,8.07,0,0,0,446.73,566.52Z"/><path class="cls-4" d="M471.88,544.38a3.65,3.65,0,0,1,3.64-3.61,3.52,3.52,0,0,1,2.59,1.07,3.46,3.46,0,0,1,1.07,2.56,3.52,3.52,0,0,1-1.07,2.59,3.44,3.44,0,0,1-2.57,1.07A3.52,3.52,0,0,1,473,547,3.55,3.55,0,0,1,471.88,544.38Zm6.45,10.08v24.26h-5.6V554.46Z"/><path class="cls-4" d="M485.43,554.46h5.63v2.24a9.16,9.16,0,0,1,6.62-2.91,8.37,8.37,0,0,1,6.6,2.67q2,2.26,2,7.39v14.87h-5.63V565.17c0-2.39-.33-4-1-5s-1.83-1.39-3.54-1.39a4.34,4.34,0,0,0-4,1.84c-.76,1.22-1.14,3.33-1.14,6.35v11.71h-5.63Z"/><path class="cls-4" d="M534.91,559.69v19h-5.6v-19h-2.39v-5.23h2.39v-8.89h5.6v8.89h4.36v5.23Z"/><path class="cls-4" d="M565.61,567.91H548.23a7.41,7.41,0,0,0,1.94,4.76,5.94,5.94,0,0,0,4.41,1.74,5.67,5.67,0,0,0,3.46-1,14.13,14.13,0,0,0,3.07-3.68l4.73,2.64a19.28,19.28,0,0,1-2.32,3.2,12.06,12.06,0,0,1-2.61,2.19,10.73,10.73,0,0,1-3,1.26,15,15,0,0,1-3.51.4,11.42,11.42,0,0,1-8.71-3.49,13.09,13.09,0,0,1-3.29-9.31,13.43,13.43,0,0,1,3.19-9.32,12.15,12.15,0,0,1,17-.1q3.09,3.39,3.09,9.39Zm-5.75-4.58q-1.17-4.49-5.65-4.48a5.77,5.77,0,0,0-1.92.31,5.5,5.5,0,0,0-1.63.89,5.69,5.69,0,0,0-1.26,1.41,6.43,6.43,0,0,0-.79,1.87Z"/><path class="cls-4" d="M577.34,536.66v42.06h-5.6V536.66Z"/><path class="cls-4" d="M606.53,567.91H589.15a7.36,7.36,0,0,0,1.94,4.76,5.91,5.91,0,0,0,4.41,1.74,5.71,5.71,0,0,0,3.46-1,13.94,13.94,0,0,0,3.06-3.68l4.73,2.64a19.26,19.26,0,0,1-2.31,3.2,12.35,12.35,0,0,1-2.62,2.19,10.67,10.67,0,0,1-3,1.26,15,15,0,0,1-3.51.4,11.44,11.44,0,0,1-8.72-3.49,13.09,13.09,0,0,1-3.29-9.31,13.48,13.48,0,0,1,3.19-9.32,12.16,12.16,0,0,1,17-.1q3.07,3.39,3.08,9.39Zm-5.75-4.58q-1.17-4.49-5.66-4.48a5.67,5.67,0,0,0-1.91.31,5.38,5.38,0,0,0-1.63.89,5.5,5.5,0,0,0-1.26,1.41,6.44,6.44,0,0,0-.8,1.87Z"/><path class="cls-4" d="M618.46,559.69v19h-5.63v-19h-2v-5.23h2V545.1c0-3.06.53-5.21,1.59-6.48A7.84,7.84,0,0,1,620.8,536a11,11,0,0,1,3.76.87v5.72l-.57-.29a7,7,0,0,0-3-.93,2,2,0,0,0-2,1.08,10.26,10.26,0,0,0-.52,4v8h6.1v5.23Z"/><path class="cls-4" d="M627.27,566.42a12,12,0,0,1,3.76-8.94,13.26,13.26,0,0,1,18.38,0,13,13,0,0,1,0,18.25,12.81,12.81,0,0,1-9.28,3.67,12.31,12.31,0,0,1-9.14-3.74A12.56,12.56,0,0,1,627.27,566.42Zm5.73.1a8.2,8.2,0,0,0,1.94,5.75,7.55,7.55,0,0,0,10.51,0,9.09,9.09,0,0,0,0-11.3A7.46,7.46,0,0,0,635,561,7.79,7.79,0,0,0,633,566.52Z"/><path class="cls-4" d="M659.07,554.46h5.63v2.24a9.19,9.19,0,0,1,6.62-2.91,8.35,8.35,0,0,1,6.6,2.67q2,2.26,2,7.39v14.87h-5.62V565.17c0-2.39-.34-4-1-5s-1.83-1.39-3.54-1.39a4.34,4.34,0,0,0-4,1.84c-.76,1.22-1.14,3.33-1.14,6.35v11.71h-5.63Z"/><path class="cls-4" d="M702.77,536.66h5.61v19.82a9.66,9.66,0,0,1,6.6-2.69,8.5,8.5,0,0,1,6.57,2.67c1.4,1.54,2.09,4,2.09,7.39v14.87H718V564.37a6.9,6.9,0,0,0-1-4.22,4,4,0,0,0-3.33-1.3c-2,0-3.34.6-4.13,1.81s-1.17,3.34-1.17,6.33v11.73h-5.61Z"/><path class="cls-4" d="M748.62,554.46h5.63v24.26h-5.63v-2.54a10.75,10.75,0,0,1-15.76-.4,13.49,13.49,0,0,1-3.27-9.26,13.07,13.07,0,0,1,3.27-9.09,10.48,10.48,0,0,1,8.16-3.64,10.29,10.29,0,0,1,7.6,3.49Zm-13.3,12.06a8.41,8.41,0,0,0,1.87,5.67,6.12,6.12,0,0,0,4.83,2.22,6.43,6.43,0,0,0,5-2.14,9.21,9.21,0,0,0,0-11.26,6.35,6.35,0,0,0-5-2.16,6.18,6.18,0,0,0-4.83,2.19A8.07,8.07,0,0,0,735.32,566.52Z"/><path class="cls-4" d="M761.32,554.46h5.6v2.17a10.87,10.87,0,0,1,2.74-2.22,6.35,6.35,0,0,1,2.89-.62,9.06,9.06,0,0,1,4.63,1.44l-2.56,5.14a5.33,5.33,0,0,0-3.12-1.15q-4.57,0-4.58,6.92v12.58h-5.6Z"/><path class="cls-4" d="M814,536.66h5.63v42.06H814v-2.54a10.42,10.42,0,0,1-7.49,3.24,10.69,10.69,0,0,1-8.27-3.64,13.53,13.53,0,0,1-3.26-9.26,13.11,13.11,0,0,1,3.26-9.07,10.47,10.47,0,0,1,15.76-.17Zm-13.29,29.86a8.46,8.46,0,0,0,1.86,5.67,6.12,6.12,0,0,0,4.83,2.22,6.44,6.44,0,0,0,5-2.14,9.25,9.25,0,0,0,0-11.26,6.36,6.36,0,0,0-5-2.16,6.21,6.21,0,0,0-4.83,2.19A8.06,8.06,0,0,0,800.72,566.52Z"/><path class="cls-4" d="M832.32,554.46v13.92q0,6,4.75,6t4.76-6V554.46h5.6v14a15.67,15.67,0,0,1-.72,5,8.36,8.36,0,0,1-2.42,3.41,11.74,11.74,0,0,1-14.41,0,8.5,8.5,0,0,1-2.47-3.41,14,14,0,0,1-.7-5v-14Z"/><path class="cls-4" d="M869.4,544.38a3.65,3.65,0,0,1,3.63-3.61,3.5,3.5,0,0,1,2.59,1.07,3.42,3.42,0,0,1,1.07,2.56,3.49,3.49,0,0,1-1.07,2.59,3.42,3.42,0,0,1-2.56,1.07,3.65,3.65,0,0,1-3.66-3.68Zm6.45,10.08v24.26h-5.61V554.46Z"/><path class="cls-4" d="M882.94,554.46h5.63v2.24a9.19,9.19,0,0,1,6.62-2.91,8.34,8.34,0,0,1,6.6,2.67c1.36,1.51,2.05,4,2.05,7.39v14.87h-5.63V565.17c0-2.39-.33-4-1-5s-1.83-1.39-3.53-1.39a4.34,4.34,0,0,0-4,1.84c-.77,1.22-1.15,3.33-1.15,6.35v11.71h-5.63Z"/><path class="cls-4" d="M916.68,559.69v19h-5.6v-19h-2.39v-5.23h2.39v-8.89h5.6v8.89H921v5.23Z"/><path class="cls-4" d="M947.39,567.91H930a7.36,7.36,0,0,0,1.94,4.76,5.94,5.94,0,0,0,4.41,1.74,5.69,5.69,0,0,0,3.46-1,13.94,13.94,0,0,0,3.06-3.68l4.73,2.64a19.26,19.26,0,0,1-2.31,3.2,12.35,12.35,0,0,1-2.62,2.19,10.67,10.67,0,0,1-3,1.26,15,15,0,0,1-3.51.4,11.44,11.44,0,0,1-8.72-3.49,13.08,13.08,0,0,1-3.28-9.31,13.48,13.48,0,0,1,3.18-9.32,12.16,12.16,0,0,1,17-.1q3.09,3.39,3.09,9.39Zm-5.75-4.58q-1.17-4.49-5.66-4.48a5.71,5.71,0,0,0-1.91.31,5.5,5.5,0,0,0-1.63.89,5.69,5.69,0,0,0-1.26,1.41,6.44,6.44,0,0,0-.8,1.87Z"/><path class="cls-4" d="M959.74,559.69v19h-5.6v-19h-2.39v-5.23h2.39v-8.89h5.6v8.89h4.36v5.23Z"/><path class="cls-4" d="M1007.11,578.14q0,1.73-.12,3a20.45,20.45,0,0,1-.31,2.3,10.28,10.28,0,0,1-2.34,4.71,11.35,11.35,0,0,1-9,3.79,12.07,12.07,0,0,1-8-2.62,10.66,10.66,0,0,1-3.74-7.44h5.63a6.42,6.42,0,0,0,1.07,2.76,6,6,0,0,0,5.08,2.27q6.15,0,6.15-7.55V576a10.44,10.44,0,0,1-7.69,3.42,10.34,10.34,0,0,1-8.12-3.59,13.25,13.25,0,0,1-3.19-9.09,14,14,0,0,1,3-9,10.32,10.32,0,0,1,8.42-3.93,9.77,9.77,0,0,1,7.62,3.41v-2.74h5.61Zm-5.38-11.5a8.12,8.12,0,0,0-1.9-5.65,6.22,6.22,0,0,0-4.9-2.17,6,6,0,0,0-5,2.37,9.73,9.73,0,0,0,0,10.9,6,6,0,0,0,5,2.32,6.16,6.16,0,0,0,5.08-2.34A8.37,8.37,0,0,0,1001.73,566.64Z"/><path class="cls-4" d="M1013.33,544.38a3.65,3.65,0,0,1,3.64-3.61,3.52,3.52,0,0,1,2.59,1.07,3.46,3.46,0,0,1,1.07,2.56,3.52,3.52,0,0,1-1.07,2.59,3.44,3.44,0,0,1-2.57,1.07,3.52,3.52,0,0,1-2.59-1.07A3.55,3.55,0,0,1,1013.33,544.38Zm6.45,10.08v37.46h-5.6V554.46Z"/><path class="cls-4" d="M1025.73,566.42a12.06,12.06,0,0,1,3.76-8.94,13.26,13.26,0,0,1,18.38,0,13,13,0,0,1,0,18.25,12.83,12.83,0,0,1-9.29,3.67,12.33,12.33,0,0,1-9.14-3.74A12.56,12.56,0,0,1,1025.73,566.42Zm5.73.1a8.2,8.2,0,0,0,1.94,5.75,7.55,7.55,0,0,0,10.51,0,9.09,9.09,0,0,0,0-11.3,7.46,7.46,0,0,0-10.46,0A7.79,7.79,0,0,0,1031.46,566.52Z"/><path class="cls-4" d="M1057.53,554.46h5.6v2.17a10.72,10.72,0,0,1,2.75-2.22,6.31,6.31,0,0,1,2.88-.62,9.06,9.06,0,0,1,4.63,1.44l-2.56,5.14a5.31,5.31,0,0,0-3.11-1.15q-4.59,0-4.59,6.92v12.58h-5.6Z"/><path class="cls-4" d="M1084.23,559.69v19h-5.61v-19h-2.39v-5.23h2.39v-8.89h5.61v8.89h4.36v5.23Z"/><path class="cls-4" d="M1113.94,559.69v19h-5.63v-19h-2v-5.23h2V545.1c0-3.06.53-5.21,1.59-6.48a7.84,7.84,0,0,1,6.38-2.63,11,11,0,0,1,3.76.87v5.72l-.58-.29a7,7,0,0,0-3-.93,2,2,0,0,0-2,1.08,10.26,10.26,0,0,0-.52,4v8h6.1v5.23Z"/><path class="cls-4" d="M1122.75,566.42a12,12,0,0,1,3.76-8.94,13.26,13.26,0,0,1,18.38,0,13,13,0,0,1,0,18.25,12.83,12.83,0,0,1-9.29,3.67,12.31,12.31,0,0,1-9.14-3.74A12.56,12.56,0,0,1,1122.75,566.42Zm5.73.1a8.2,8.2,0,0,0,1.94,5.75,7.55,7.55,0,0,0,10.51,0,9.09,9.09,0,0,0,0-11.3,7.46,7.46,0,0,0-10.46,0A7.79,7.79,0,0,0,1128.48,566.52Z"/><path class="cls-4" d="M1154.55,554.46h5.61v2.17a10.54,10.54,0,0,1,2.74-2.22,6.31,6.31,0,0,1,2.88-.62,9.12,9.12,0,0,1,4.64,1.44l-2.57,5.14a5.31,5.31,0,0,0-3.11-1.15c-3.06,0-4.58,2.31-4.58,6.92v12.58h-5.61Z"/><path class="cls-4" d="M1180,536.66v25.65l7.9-7.85h7.52l-10.54,10.19,11.31,14.07h-7.27l-8-10.24-.9.9v9.34h-5.6V536.66Z"/><path class="cls-4" d="M1221.07,567.91h-17.39a7.37,7.37,0,0,0,2,4.76,5.91,5.91,0,0,0,4.41,1.74,5.71,5.71,0,0,0,3.46-1,14.33,14.33,0,0,0,3.06-3.68l4.73,2.64a19.26,19.26,0,0,1-2.31,3.2,12.35,12.35,0,0,1-2.62,2.19,10.67,10.67,0,0,1-3,1.26,15,15,0,0,1-3.51.4,11.44,11.44,0,0,1-8.72-3.49,13.09,13.09,0,0,1-3.29-9.31,13.48,13.48,0,0,1,3.19-9.32,12.15,12.15,0,0,1,17-.1q3.09,3.39,3.09,9.39Zm-5.76-4.58q-1.17-4.49-5.65-4.48a5.77,5.77,0,0,0-1.92.31,5.62,5.62,0,0,0-1.63.89,5.46,5.46,0,0,0-1.25,1.41,6.44,6.44,0,0,0-.8,1.87Z"/><path class="cls-4" d="M1227.19,554.46h5.6v2.17a10.72,10.72,0,0,1,2.75-2.22,6.31,6.31,0,0,1,2.88-.62,9.06,9.06,0,0,1,4.63,1.44l-2.56,5.14a5.31,5.31,0,0,0-3.11-1.15q-4.59,0-4.59,6.92v12.58h-5.6Z"/><path class="cls-4" d="M1253.89,559.69v19h-5.6v-19h-2.4v-5.23h2.4v-8.89h5.6v8.89h4.36v5.23Z"/><path class="cls-4" d="M1262.93,575.93a3.46,3.46,0,0,1,6.92,0,3.46,3.46,0,1,1-6.92,0Z"/><path class="cls-4" d="M462.42,668.12H449v9.24H462v5.45H449v18.31h-5.8V662.67h19.2Z"/><path class="cls-4" d="M466.48,688.82a12,12,0,0,1,3.76-8.94,12.58,12.58,0,0,1,9.16-3.69,12.71,12.71,0,0,1,9.22,3.71,13,13,0,0,1,0,18.25,12.82,12.82,0,0,1-9.29,3.67,12.35,12.35,0,0,1-9.14-3.74A12.58,12.58,0,0,1,466.48,688.82Zm5.73.1a8.15,8.15,0,0,0,1.94,5.75,7.55,7.55,0,0,0,10.51,0,9.12,9.12,0,0,0,0-11.3,6.84,6.84,0,0,0-5.26-2.14,6.76,6.76,0,0,0-5.2,2.14A7.79,7.79,0,0,0,472.21,688.92Z"/><path class="cls-4" d="M498.28,676.86h5.6V679a10.7,10.7,0,0,1,2.74-2.22,6.35,6.35,0,0,1,2.89-.62,9.06,9.06,0,0,1,4.63,1.44l-2.56,5.14a5.36,5.36,0,0,0-3.12-1.15q-4.57,0-4.58,6.92v12.58h-5.6Z"/><path class="cls-4" d="M551,676.86h5.63v24.26H551v-2.54a10.75,10.75,0,0,1-15.76-.4,13.48,13.48,0,0,1-3.26-9.26,13.07,13.07,0,0,1,3.26-9.09,10.48,10.48,0,0,1,8.17-3.64,10.29,10.29,0,0,1,7.59,3.49Zm-13.3,12.06a8.41,8.41,0,0,0,1.87,5.67,6.12,6.12,0,0,0,4.83,2.22,6.42,6.42,0,0,0,5-2.14,9.21,9.21,0,0,0,0-11.26,6.35,6.35,0,0,0-5-2.16,6.19,6.19,0,0,0-4.83,2.19A8.07,8.07,0,0,0,537.67,688.92Z"/><path class="cls-4" d="M569.45,682.09v19h-5.6v-19h-2.39v-5.23h2.39V668h5.6v8.89h4.36v5.23Z"/><path class="cls-4" d="M593.35,659.06H599v19.82a9.66,9.66,0,0,1,6.6-2.69,8.5,8.5,0,0,1,6.57,2.67c1.4,1.54,2.09,4,2.09,7.39v14.87h-5.6V686.77a6.9,6.9,0,0,0-1-4.22,4,4,0,0,0-3.33-1.3c-2,0-3.34.6-4.13,1.81S599,686.4,599,689.39v11.73h-5.61Z"/><path class="cls-4" d="M620.47,666.78a3.65,3.65,0,0,1,7.3,0,3.52,3.52,0,0,1-1.07,2.59,3.43,3.43,0,0,1-2.57,1.07,3.52,3.52,0,0,1-2.59-1.07A3.55,3.55,0,0,1,620.47,666.78Zm6.45,10.08v37.46h-5.6V676.86Z"/><path class="cls-4" d="M671.9,690.24H654.42a7.68,7.68,0,0,0,2,4.78,5.86,5.86,0,0,0,4.38,1.79c2.56,0,4.67-1.62,6.35-4.86l4.83,2.69a16,16,0,0,1-1.72,2.67,10.56,10.56,0,0,1-2,1.92,12.81,12.81,0,0,1-7.74,2.61,12.19,12.19,0,0,1-8.79-3.88q-3,3.87-8.94,3.88a11.09,11.09,0,0,1-7.2-2.24,7.18,7.18,0,0,1-2.76-5.85,7.48,7.48,0,0,1,2.63-6,10.29,10.29,0,0,1,7-2.29,14.13,14.13,0,0,1,6.33,1.64c0-2.19-.46-3.72-1.37-4.58s-2.49-1.32-4.68-1.32a24.31,24.31,0,0,0-6.48.92v-5.2a43.11,43.11,0,0,1,7-.75c4,0,6.79,1.14,8.52,3.41a11.22,11.22,0,0,1,8.47-3.41,11.1,11.1,0,0,1,8.49,3.41,12.74,12.74,0,0,1,3.19,9Zm-33.6,3.41a2.79,2.79,0,0,0,1.4,2.36,6.4,6.4,0,0,0,3.53,1,6.69,6.69,0,0,0,3.72-1,2.93,2.93,0,0,0,1.49-2.47,2.69,2.69,0,0,0-1.55-2.24,6.93,6.93,0,0,0-3.71-.94,6,6,0,0,0-3.46,1A2.8,2.8,0,0,0,638.3,693.65ZM666,685.7q-1-4.46-5.45-4.45a5.52,5.52,0,0,0-5.78,4.45Z"/><path class="cls-4" d="M683.53,659.06v42.06h-5.61V659.06Z"/><path class="cls-4" d="M696.23,714.32h-5.61V676.86h5.61v2.64a10.34,10.34,0,0,1,7.52-3.31,10.49,10.49,0,0,1,8.24,3.69,13.32,13.32,0,0,1,3.29,9.24,13.15,13.15,0,0,1-3.26,9.09,10.54,10.54,0,0,1-8.17,3.61,10.42,10.42,0,0,1-7.62-3.42Zm13.32-25.18a8.4,8.4,0,0,0-1.89-5.68,6.11,6.11,0,0,0-4.83-2.21,6.4,6.4,0,0,0-5,2.14A8.11,8.11,0,0,0,695.9,689a8.26,8.26,0,0,0,1.92,5.62,6.27,6.27,0,0,0,5,2.17,6.08,6.08,0,0,0,4.81-2.19A8,8,0,0,0,709.55,689.14Z"/><path class="cls-4" d="M743.29,690.31H725.91a7.41,7.41,0,0,0,1.94,4.76,5.94,5.94,0,0,0,4.41,1.74,5.67,5.67,0,0,0,3.46-1,14.13,14.13,0,0,0,3.07-3.68l4.73,2.64a19.28,19.28,0,0,1-2.32,3.2,12.06,12.06,0,0,1-2.61,2.19,10.73,10.73,0,0,1-3,1.26,15,15,0,0,1-3.51.4,11.42,11.42,0,0,1-8.71-3.49,13,13,0,0,1-3.29-9.31,13.43,13.43,0,0,1,3.19-9.32,12.15,12.15,0,0,1,17-.1q3.09,3.39,3.09,9.39Zm-5.75-4.58q-1.17-4.49-5.65-4.48a5.77,5.77,0,0,0-1.92.31,5.5,5.5,0,0,0-1.63.89,5.69,5.69,0,0,0-1.26,1.41,6.72,6.72,0,0,0-.8,1.87Z"/><path class="cls-4" d="M783,659.06h5.62v42.06H783v-2.54a10.46,10.46,0,0,1-7.5,3.24,10.69,10.69,0,0,1-8.27-3.64,13.53,13.53,0,0,1-3.26-9.26,13.11,13.11,0,0,1,3.26-9.07,10.48,10.48,0,0,1,15.77-.17Zm-13.3,29.86a8.41,8.41,0,0,0,1.87,5.67,6.1,6.1,0,0,0,4.83,2.22,6.43,6.43,0,0,0,5-2.14,9.25,9.25,0,0,0,0-11.26,6.35,6.35,0,0,0-5-2.16,6.18,6.18,0,0,0-4.83,2.19A8.07,8.07,0,0,0,769.74,688.92Z"/><path class="cls-4" d="M794.89,666.78a3.65,3.65,0,0,1,3.64-3.61,3.52,3.52,0,0,1,2.59,1.07,3.46,3.46,0,0,1,1.07,2.56,3.52,3.52,0,0,1-1.07,2.59,3.44,3.44,0,0,1-2.57,1.07,3.5,3.5,0,0,1-2.59-1.07A3.55,3.55,0,0,1,794.89,666.78Zm6.45,10.08v24.26h-5.6V676.86Z"/><path class="cls-4" d="M831.89,700.54c0,1.15,0,2.16-.11,3a21,21,0,0,1-.31,2.31,10.29,10.29,0,0,1-2.34,4.7,11.35,11.35,0,0,1-9,3.79,12.07,12.07,0,0,1-8-2.62,10.66,10.66,0,0,1-3.74-7.44H814a6.42,6.42,0,0,0,1.07,2.76,6,6,0,0,0,5.08,2.27q6.15,0,6.15-7.55V698.4a10.44,10.44,0,0,1-7.69,3.42,10.34,10.34,0,0,1-8.12-3.59,13.25,13.25,0,0,1-3.19-9.09,14,14,0,0,1,3-9,10.32,10.32,0,0,1,8.42-3.93,9.77,9.77,0,0,1,7.62,3.41v-2.74h5.6ZM826.52,689a8.16,8.16,0,0,0-1.9-5.65,6.24,6.24,0,0,0-4.9-2.17,6,6,0,0,0-5,2.37,9.73,9.73,0,0,0,0,10.9,6,6,0,0,0,5,2.32,6.16,6.16,0,0,0,5.08-2.34A8.37,8.37,0,0,0,826.52,689Z"/><path class="cls-4" d="M860.31,659.06v20.62a10.32,10.32,0,0,1,7.62-3.49,10.5,10.5,0,0,1,8.17,3.66,13.11,13.11,0,0,1,3.26,9.07,13.35,13.35,0,0,1-3.29,9.26,10.6,10.6,0,0,1-8.24,3.64,10.47,10.47,0,0,1-7.52-3.24v2.54h-5.6V659.06Zm13.32,30.11a8.38,8.38,0,0,0-1.89-5.68,6,6,0,0,0-4.81-2.24,6.46,6.46,0,0,0-5,2.16A8.05,8.05,0,0,0,860,689a8.16,8.16,0,0,0,1.9,5.65,6.27,6.27,0,0,0,5,2.17,6.17,6.17,0,0,0,4.83-2.17A8,8,0,0,0,873.63,689.17Z"/><path class="cls-4" d="M907.37,690.31H890a7.41,7.41,0,0,0,1.94,4.76,5.94,5.94,0,0,0,4.41,1.74,5.67,5.67,0,0,0,3.46-1,14.13,14.13,0,0,0,3.07-3.68l4.73,2.64a19.28,19.28,0,0,1-2.32,3.2,12.06,12.06,0,0,1-2.61,2.19,10.73,10.73,0,0,1-3,1.26,15,15,0,0,1-3.51.4,11.42,11.42,0,0,1-8.71-3.49,13.09,13.09,0,0,1-3.29-9.31,13.43,13.43,0,0,1,3.19-9.32,12.15,12.15,0,0,1,17-.1Q907.4,683,907.4,689Zm-5.75-4.58q-1.17-4.49-5.65-4.48a5.77,5.77,0,0,0-1.92.31,5.5,5.5,0,0,0-1.63.89,5.69,5.69,0,0,0-1.26,1.41,6.43,6.43,0,0,0-.79,1.87Z"/><path class="cls-4" d="M931.38,659.06H937v42.06h-5.63v-2.54a10.46,10.46,0,0,1-7.5,3.24,10.67,10.67,0,0,1-8.26-3.64,13.49,13.49,0,0,1-3.27-9.26,13.07,13.07,0,0,1,3.27-9.07,10.47,10.47,0,0,1,15.76-.17Zm-13.3,29.86a8.41,8.41,0,0,0,1.87,5.67,6.12,6.12,0,0,0,4.83,2.22,6.42,6.42,0,0,0,5-2.14,9.21,9.21,0,0,0,0-11.26,6.35,6.35,0,0,0-5-2.16,6.18,6.18,0,0,0-4.83,2.19A8.07,8.07,0,0,0,918.08,688.92Z"/><path class="cls-4" d="M958.17,681l-4.63,2.46c-.73-1.49-1.63-2.24-2.71-2.24a1.85,1.85,0,0,0-1.32.51A1.7,1.7,0,0,0,949,683q0,1.4,3.24,2.76a19.32,19.32,0,0,1,6,3.54,6,6,0,0,1,1.54,4.36,7.6,7.6,0,0,1-2.59,5.87,8.77,8.77,0,0,1-6.07,2.25q-6.11,0-8.64-6l4.78-2.21a10,10,0,0,0,1.52,2.21,3.42,3.42,0,0,0,2.44.95c1.89,0,2.84-.86,2.84-2.59q0-1.5-2.19-2.79l-1.7-.82-1.72-.82A10.66,10.66,0,0,1,945,687.4a5.89,5.89,0,0,1-1.27-3.91,6.93,6.93,0,0,1,2.16-5.23,7.6,7.6,0,0,1,5.38-2.07C954.36,676.19,956.66,677.79,958.17,681Z"/><path class="cls-4" d="M970.55,682.09v19H965v-19h-2.39v-5.23H965V668h5.6v8.89h4.36v5.23Z"/><path class="cls-4" d="M982.18,693.92l5,1.94-7.1,14.22-3.78-1.57Z"/><path class="cls-4" d="M1024.29,681l-4.63,2.46c-.73-1.49-1.64-2.24-2.72-2.24a1.88,1.88,0,0,0-1.32.51,1.73,1.73,0,0,0-.54,1.31c0,.93,1.08,1.85,3.23,2.76a19.28,19.28,0,0,1,6,3.54,6.09,6.09,0,0,1,1.54,4.36,7.6,7.6,0,0,1-2.59,5.87,8.8,8.8,0,0,1-6.08,2.25c-4.07,0-6.94-2-8.64-6l4.78-2.21a10.38,10.38,0,0,0,1.52,2.21,3.44,3.44,0,0,0,2.44.95c1.89,0,2.84-.86,2.84-2.59q0-1.5-2.19-2.79l-1.69-.82-1.72-.82a10.73,10.73,0,0,1-3.44-2.39,6,6,0,0,1-1.27-3.91,6.9,6.9,0,0,1,2.17-5.23,7.6,7.6,0,0,1,5.38-2.07Q1022,676.19,1024.29,681Z"/><path class="cls-4" d="M1036.49,659.06v25.65l7.9-7.85h7.52l-10.54,10.19,11.31,14.07h-7.27l-8-10.24-.9.9v9.34h-5.6V659.06Z"/><path class="cls-4" d="M1073.3,676.86h5.62v24.26h-5.62v-2.54a10.76,10.76,0,0,1-15.77-.4,13.53,13.53,0,0,1-3.26-9.26,13.11,13.11,0,0,1,3.26-9.09,10.51,10.51,0,0,1,8.17-3.64,10.31,10.31,0,0,1,7.6,3.49ZM1060,688.92a8.41,8.41,0,0,0,1.87,5.67,6.1,6.1,0,0,0,4.83,2.22,6.43,6.43,0,0,0,5-2.14,9.21,9.21,0,0,0,0-11.26,6.35,6.35,0,0,0-5-2.16,6.18,6.18,0,0,0-4.83,2.19A8.07,8.07,0,0,0,1060,688.92Z"/><path class="cls-4" d="M1091.6,659.06v42.06H1086V659.06Z"/><path class="cls-4" d="M1114.44,676.86h5.62v2.24a9.2,9.2,0,0,1,6.63-2.91,8.37,8.37,0,0,1,6.6,2.67q2,2.26,2,7.39v14.87h-5.63V687.57q0-3.59-1-5c-.65-.93-1.83-1.4-3.54-1.4a4.34,4.34,0,0,0-4,1.84c-.76,1.22-1.15,3.33-1.15,6.35v11.71h-5.62Z"/><path class="cls-4" d="M1141.26,688.82a12,12,0,0,1,3.76-8.94,13.25,13.25,0,0,1,18.37,0,13,13,0,0,1,0,18.25,12.82,12.82,0,0,1-9.29,3.67,12.35,12.35,0,0,1-9.14-3.74A12.54,12.54,0,0,1,1141.26,688.82Zm5.72.1a8.16,8.16,0,0,0,2,5.75,7.54,7.54,0,0,0,10.5,0,9.09,9.09,0,0,0,0-11.3,7.45,7.45,0,0,0-10.45,0A7.79,7.79,0,0,0,1147,688.92Z"/><path class="cls-4" d="M1196.51,700.54c0,1.15,0,2.16-.11,3a21,21,0,0,1-.31,2.31,10.29,10.29,0,0,1-2.34,4.7,11.37,11.37,0,0,1-9,3.79,12.07,12.07,0,0,1-8-2.62,10.66,10.66,0,0,1-3.74-7.44h5.63a6.3,6.3,0,0,0,1.07,2.76,6,6,0,0,0,5.08,2.27q6.15,0,6.15-7.55V698.4a10.44,10.44,0,0,1-7.69,3.42,10.34,10.34,0,0,1-8.12-3.59,13.25,13.25,0,0,1-3.19-9.09,14,14,0,0,1,3-9,10.31,10.31,0,0,1,8.42-3.93,9.8,9.8,0,0,1,7.62,3.41v-2.74h5.6Zm-5.38-11.5a8.16,8.16,0,0,0-1.89-5.65,6.24,6.24,0,0,0-4.9-2.17,6,6,0,0,0-5,2.37,9.73,9.73,0,0,0,0,10.9,6,6,0,0,0,5,2.32,6.16,6.16,0,0,0,5.08-2.34A8.36,8.36,0,0,0,1191.13,689Z"/><path class="cls-4" d="M1209.19,659.06v42.06h-5.6V659.06Z"/><path class="cls-4" d="M1238.38,690.31H1221a7.37,7.37,0,0,0,2,4.76,5.91,5.91,0,0,0,4.4,1.74,5.67,5.67,0,0,0,3.46-1,14.13,14.13,0,0,0,3.07-3.68l4.73,2.64a18.73,18.73,0,0,1-2.32,3.2,12.06,12.06,0,0,1-2.61,2.19,10.73,10.73,0,0,1-3,1.26,14.84,14.84,0,0,1-3.51.4,11.42,11.42,0,0,1-8.71-3.49,13.09,13.09,0,0,1-3.29-9.31,13.43,13.43,0,0,1,3.19-9.32,12.15,12.15,0,0,1,17-.1q3.09,3.39,3.09,9.39Zm-5.76-4.58q-1.17-4.49-5.65-4.48a5.77,5.77,0,0,0-1.92.31,5.5,5.5,0,0,0-1.63.89,5.69,5.69,0,0,0-1.26,1.41,6.43,6.43,0,0,0-.79,1.87Z"/><path class="cls-4" d="M1263.25,676.86l6.28,13.62,6.25-13.62h6.3l-12.6,25.93L1257,676.86Z"/><path class="cls-4" d="M1283.75,688.82a12,12,0,0,1,3.76-8.94,12.58,12.58,0,0,1,9.16-3.69,12.71,12.71,0,0,1,9.22,3.71,13,13,0,0,1,0,18.25,12.82,12.82,0,0,1-9.29,3.67,12.35,12.35,0,0,1-9.14-3.74A12.58,12.58,0,0,1,1283.75,688.82Zm5.73.1a8.15,8.15,0,0,0,1.94,5.75,7.55,7.55,0,0,0,10.51,0,9.12,9.12,0,0,0,0-11.3,6.84,6.84,0,0,0-5.26-2.14,6.76,6.76,0,0,0-5.2,2.14A7.79,7.79,0,0,0,1289.48,688.92Z"/><path class="cls-4" d="M1321.15,659.06v25.65l7.89-7.85h7.53L1326,687.05l11.31,14.07h-7.27l-8-10.24-.9.9v9.34h-5.6V659.06Z"/><path class="cls-4" d="M1355,681l-4.63,2.46c-.73-1.49-1.63-2.24-2.71-2.24a1.85,1.85,0,0,0-1.32.51,1.7,1.7,0,0,0-.55,1.31q0,1.4,3.24,2.76a19.32,19.32,0,0,1,6,3.54,6,6,0,0,1,1.54,4.36,7.6,7.6,0,0,1-2.59,5.87,8.79,8.79,0,0,1-6.07,2.25q-6.1,0-8.65-6l4.79-2.21a10,10,0,0,0,1.52,2.21,3.41,3.41,0,0,0,2.43.95c1.9,0,2.84-.86,2.84-2.59q0-1.5-2.19-2.79l-1.69-.82-1.72-.82a10.73,10.73,0,0,1-3.44-2.39,6,6,0,0,1-1.27-3.91,6.94,6.94,0,0,1,2.17-5.23,7.6,7.6,0,0,1,5.38-2.07Q1352.77,676.19,1355,681Z"/><path class="cls-4" d="M1361.64,676.86h5.63v2.24a9.19,9.19,0,0,1,6.62-2.91,8.34,8.34,0,0,1,6.6,2.67c1.36,1.51,2,4,2,7.39v14.87h-5.63V687.57c0-2.39-.34-4-1-5s-1.83-1.4-3.53-1.4a4.33,4.33,0,0,0-4,1.84c-.77,1.22-1.15,3.33-1.15,6.35v11.71h-5.63Z"/><path class="cls-4" d="M1411.7,690.31h-17.39a7.37,7.37,0,0,0,2,4.76,5.91,5.91,0,0,0,4.4,1.74,5.67,5.67,0,0,0,3.46-1,14.13,14.13,0,0,0,3.07-3.68l4.73,2.64a18.73,18.73,0,0,1-2.32,3.2,12.06,12.06,0,0,1-2.61,2.19,10.73,10.73,0,0,1-3,1.26,14.84,14.84,0,0,1-3.51.4,11.42,11.42,0,0,1-8.71-3.49,13.09,13.09,0,0,1-3.29-9.31,13.43,13.43,0,0,1,3.19-9.32,12.15,12.15,0,0,1,17-.1q3.09,3.39,3.09,9.39Zm-5.76-4.58q-1.17-4.49-5.65-4.48a5.77,5.77,0,0,0-1.92.31,5.5,5.5,0,0,0-1.63.89,5.69,5.69,0,0,0-1.26,1.41,6.43,6.43,0,0,0-.79,1.87Z"/><path class="cls-4" d="M1432.71,666.78a3.65,3.65,0,0,1,3.64-3.61,3.52,3.52,0,0,1,2.59,1.07,3.46,3.46,0,0,1,1.07,2.56,3.52,3.52,0,0,1-1.07,2.59,3.43,3.43,0,0,1-2.57,1.07,3.52,3.52,0,0,1-2.59-1.07A3.55,3.55,0,0,1,1432.71,666.78Zm6.45,10.08v24.26h-5.6V676.86Z"/><path class="cls-4" d="M1446.26,676.86h5.63v2.24a9.18,9.18,0,0,1,6.62-2.91,8.37,8.37,0,0,1,6.6,2.67q2,2.26,2,7.39v14.87h-5.63V687.57q0-3.59-1-5c-.65-.93-1.83-1.4-3.54-1.4a4.34,4.34,0,0,0-4,1.84c-.76,1.22-1.14,3.33-1.14,6.35v11.71h-5.63Z"/><path class="cls-4" d="M1492.11,659.06h5.62v42.06h-5.62v-2.54a10.46,10.46,0,0,1-7.5,3.24,10.69,10.69,0,0,1-8.27-3.64,13.53,13.53,0,0,1-3.26-9.26,13.11,13.11,0,0,1,3.26-9.07,10.48,10.48,0,0,1,15.77-.17Zm-13.3,29.86a8.41,8.41,0,0,0,1.87,5.67,6.09,6.09,0,0,0,4.83,2.22,6.43,6.43,0,0,0,5-2.14,9.25,9.25,0,0,0,0-11.26,6.35,6.35,0,0,0-5-2.16,6.21,6.21,0,0,0-4.84,2.19A8.11,8.11,0,0,0,1478.81,688.92Z"/><path class="cls-4" d="M441,750a12,12,0,0,1,3.76-8.94,13.26,13.26,0,0,1,18.38,0,13,13,0,0,1,0,18.25,12.87,12.87,0,0,1-9.29,3.67,12.31,12.31,0,0,1-9.14-3.74A12.55,12.55,0,0,1,441,750Zm5.73.1a8.2,8.2,0,0,0,1.94,5.75,7.55,7.55,0,0,0,10.51,0,9.09,9.09,0,0,0,0-11.3,7.46,7.46,0,0,0-10.46,0A7.79,7.79,0,0,0,446.73,750.12Z"/><path class="cls-4" d="M474.79,738.06l6.28,13.62,6.25-13.62h6.3L481,764l-12.5-25.93Z"/><path class="cls-4" d="M518.62,751.51H501.24a7.41,7.41,0,0,0,1.94,4.76,5.94,5.94,0,0,0,4.41,1.74,5.67,5.67,0,0,0,3.46-1,14.13,14.13,0,0,0,3.07-3.68l4.73,2.64a19.28,19.28,0,0,1-2.32,3.2,12.06,12.06,0,0,1-2.61,2.19,10.73,10.73,0,0,1-3,1.26,15,15,0,0,1-3.51.4,11.42,11.42,0,0,1-8.71-3.49,13.05,13.05,0,0,1-3.29-9.32,13.42,13.42,0,0,1,3.19-9.31,12.15,12.15,0,0,1,17-.1q3.09,3.39,3.09,9.39Zm-5.75-4.58q-1.17-4.48-5.65-4.48a5.77,5.77,0,0,0-1.92.31,5.28,5.28,0,0,0-1.63.89,5.69,5.69,0,0,0-1.26,1.41,6.72,6.72,0,0,0-.8,1.87Z"/><path class="cls-4" d="M524.75,738.06h5.6v2.17a10.7,10.7,0,0,1,2.74-2.22,6.35,6.35,0,0,1,2.89-.62,9.06,9.06,0,0,1,4.63,1.44L538.05,744a5.39,5.39,0,0,0-3.12-1.14q-4.57,0-4.58,6.92v12.58h-5.6Z"/><path class="cls-4" d="M565.36,743.29v19h-5.62v-19h-2v-5.23h2V728.7q0-4.58,1.59-6.48a7.84,7.84,0,0,1,6.38-2.63,11,11,0,0,1,3.76.87v5.72l-.58-.29a7,7,0,0,0-3-.93,2,2,0,0,0-2,1.08,10.21,10.21,0,0,0-.53,4v8h6.11v5.23Z"/><path class="cls-4" d="M574.18,750a12,12,0,0,1,3.76-8.94,13.26,13.26,0,0,1,18.38,0,13,13,0,0,1,0,18.25A12.86,12.86,0,0,1,587,763a12.31,12.31,0,0,1-9.13-3.74A12.55,12.55,0,0,1,574.18,750Zm5.73.1a8.15,8.15,0,0,0,1.94,5.75,7.55,7.55,0,0,0,10.51,0,9.09,9.09,0,0,0,0-11.3,6.84,6.84,0,0,0-5.26-2.14,6.76,6.76,0,0,0-5.2,2.14A7.79,7.79,0,0,0,579.91,750.12Z"/><path class="cls-4" d="M606,738.06h5.6v2.17a10.87,10.87,0,0,1,2.74-2.22,6.38,6.38,0,0,1,2.89-.62,9.06,9.06,0,0,1,4.63,1.44L619.28,744a5.36,5.36,0,0,0-3.11-1.14q-4.59,0-4.59,6.92v12.58H606Z"/><path class="cls-4" d="M658.67,738.06h5.63v24.26h-5.63v-2.54a10.75,10.75,0,0,1-15.76-.4,13.53,13.53,0,0,1-3.26-9.26,13.11,13.11,0,0,1,3.26-9.09,10.5,10.5,0,0,1,8.17-3.64,10.29,10.29,0,0,1,7.59,3.49Zm-13.29,12.06a8.46,8.46,0,0,0,1.86,5.67,6.12,6.12,0,0,0,4.83,2.22,6.44,6.44,0,0,0,5-2.14,9.25,9.25,0,0,0,0-11.26,6.36,6.36,0,0,0-5-2.16,6.21,6.21,0,0,0-4.83,2.19A8.06,8.06,0,0,0,645.38,750.12Z"/><path class="cls-4" d="M677.15,743.29v19h-5.6v-19h-2.39v-5.23h2.39v-8.89h5.6v8.89h4.36v5.23Z"/><path class="cls-4" d="M706.66,720.26v25.65l7.89-7.85h7.53l-10.54,10.19,11.31,14.07h-7.27l-8-10.24-.9.9v9.34h-5.6V720.26Z"/><path class="cls-4" d="M732.21,738.06V752q0,6,4.76,6t4.75-6V738.06h5.61v14.05a15.67,15.67,0,0,1-.72,5,8.55,8.55,0,0,1-2.42,3.41,11.76,11.76,0,0,1-14.42,0,8.57,8.57,0,0,1-2.46-3.41,13.77,13.77,0,0,1-.7-5V738.06Z"/><path class="cls-4" d="M754.4,738.06H760v2.24a9.18,9.18,0,0,1,6.62-2.91,8.39,8.39,0,0,1,6.6,2.66c1.36,1.52,2,4,2,7.4v14.87h-5.63V748.77q0-3.59-1-4.95c-.65-.93-1.83-1.4-3.54-1.4a4.34,4.34,0,0,0-4,1.84c-.76,1.22-1.14,3.33-1.14,6.35v11.71H754.4Z"/><path class="cls-4" d="M782.36,738.06H788v2.24a9.2,9.2,0,0,1,6.63-2.91,8.36,8.36,0,0,1,6.59,2.66c1.37,1.52,2,4,2,7.4v14.87h-5.63V748.77c0-2.39-.33-4-1-4.95s-1.82-1.4-3.53-1.4a4.34,4.34,0,0,0-4,1.84c-.77,1.22-1.15,3.33-1.15,6.35v11.71h-5.63Z"/><path class="cls-4" d="M832.42,751.51H815a7.36,7.36,0,0,0,1.94,4.76,5.91,5.91,0,0,0,4.41,1.74,5.71,5.71,0,0,0,3.46-1,14.33,14.33,0,0,0,3.06-3.68l4.73,2.64a19.26,19.26,0,0,1-2.31,3.2,12.35,12.35,0,0,1-2.62,2.19,10.67,10.67,0,0,1-3,1.26,15,15,0,0,1-3.51.4,11.44,11.44,0,0,1-8.72-3.49,13.1,13.1,0,0,1-3.29-9.32,13.47,13.47,0,0,1,3.19-9.31,12.15,12.15,0,0,1,17-.1q3.09,3.39,3.09,9.39Zm-5.75-4.58c-.79-3-2.67-4.48-5.66-4.48a5.77,5.77,0,0,0-1.92.31,5.4,5.4,0,0,0-1.63.89,5.46,5.46,0,0,0-1.25,1.41,6.44,6.44,0,0,0-.8,1.87Z"/><path class="cls-4" d="M877.74,761.75c0,1.14,0,2.15-.11,3a23.05,23.05,0,0,1-.31,2.3,10.28,10.28,0,0,1-2.34,4.71,11.37,11.37,0,0,1-9,3.79,12.11,12.11,0,0,1-8-2.62,10.65,10.65,0,0,1-3.73-7.44h5.63a6.3,6.3,0,0,0,1.07,2.76,6,6,0,0,0,5.08,2.27q6.15,0,6.15-7.55V759.6a10.46,10.46,0,0,1-7.7,3.42,10.35,10.35,0,0,1-8.12-3.59,13.3,13.3,0,0,1-3.18-9.09,13.94,13.94,0,0,1,3-9,10.28,10.28,0,0,1,8.42-3.94,9.8,9.8,0,0,1,7.62,3.41v-2.74h5.6Zm-5.38-11.51a8.16,8.16,0,0,0-1.89-5.65,6.26,6.26,0,0,0-4.91-2.17,6,6,0,0,0-5,2.37,9.73,9.73,0,0,0,0,10.9,6,6,0,0,0,5,2.32,6.13,6.13,0,0,0,5.08-2.34A8.31,8.31,0,0,0,872.36,750.24Z"/><path class="cls-4" d="M902.69,738.06h5.63v24.26h-5.63v-2.54a10.75,10.75,0,0,1-15.76-.4,13.48,13.48,0,0,1-3.26-9.26,13.07,13.07,0,0,1,3.26-9.09,10.5,10.5,0,0,1,8.17-3.64,10.29,10.29,0,0,1,7.59,3.49ZM889.4,750.12a8.46,8.46,0,0,0,1.86,5.67,6.12,6.12,0,0,0,4.83,2.22,6.4,6.4,0,0,0,5-2.14,9.21,9.21,0,0,0,0-11.26,6.32,6.32,0,0,0-5-2.16,6.21,6.21,0,0,0-4.83,2.19A8.06,8.06,0,0,0,889.4,750.12Zm1.91-21.3a5.08,5.08,0,0,1,1.6-3.76,5.38,5.38,0,0,1,7.64,0,5.4,5.4,0,0,1,0,7.67,5.11,5.11,0,0,1-3.81,1.6,5.23,5.23,0,0,1-3.86-1.6A5.37,5.37,0,0,1,891.31,728.82Zm3,0a2.37,2.37,0,0,0,.71,1.78,2.34,2.34,0,0,0,1.75.71,2.43,2.43,0,0,0,2.47-2.46,2.47,2.47,0,0,0-3.44-2.27,2.53,2.53,0,0,0-.78.54,2.35,2.35,0,0,0-.53.78A2.47,2.47,0,0,0,894.28,728.87Z"/><path class="cls-4" d="M934.14,738.06l6.28,13.62,6.25-13.62H953L940.37,764l-12.5-25.93Z"/><path class="cls-4" d="M955.91,728a3.65,3.65,0,0,1,3.63-3.61,3.49,3.49,0,0,1,2.59,1.07,3.41,3.41,0,0,1,1.08,2.56,3.5,3.5,0,0,1-1.08,2.59,3.41,3.41,0,0,1-2.56,1.07,3.65,3.65,0,0,1-3.66-3.68Zm6.45,10.08v24.26h-5.61V738.06Z"/><path class="cls-4" d="M987.34,720.26H993v42.06h-5.62v-2.54a10.46,10.46,0,0,1-7.5,3.24,10.69,10.69,0,0,1-8.27-3.64,13.53,13.53,0,0,1-3.26-9.26,13.11,13.11,0,0,1,3.26-9.07,10.48,10.48,0,0,1,15.77-.17ZM974,750.12a8.41,8.41,0,0,0,1.87,5.67,6.09,6.09,0,0,0,4.83,2.22,6.43,6.43,0,0,0,5-2.14,9.25,9.25,0,0,0,0-11.26,6.35,6.35,0,0,0-5-2.16,6.18,6.18,0,0,0-4.83,2.19A8.07,8.07,0,0,0,974,750.12Z"/><path class="cls-4" d="M1022.12,751.51h-17.38a7.37,7.37,0,0,0,2,4.76,5.91,5.91,0,0,0,4.4,1.74,5.67,5.67,0,0,0,3.46-1,14.13,14.13,0,0,0,3.07-3.68l4.73,2.64a18.73,18.73,0,0,1-2.32,3.2,12.06,12.06,0,0,1-2.61,2.19,10.73,10.73,0,0,1-3,1.26,14.84,14.84,0,0,1-3.51.4,11.42,11.42,0,0,1-8.71-3.49,13.1,13.1,0,0,1-3.29-9.32,13.42,13.42,0,0,1,3.19-9.31,12.15,12.15,0,0,1,17-.1q3.09,3.39,3.09,9.39Zm-5.75-4.58q-1.17-4.48-5.65-4.48a5.77,5.77,0,0,0-1.92.31,5.28,5.28,0,0,0-1.63.89,5.69,5.69,0,0,0-1.26,1.41,6.43,6.43,0,0,0-.79,1.87Z"/><path class="cls-4" d="M1028.25,738.06h5.6v2.17a10.7,10.7,0,0,1,2.74-2.22,6.35,6.35,0,0,1,2.89-.62,9.06,9.06,0,0,1,4.63,1.44l-2.56,5.13a5.39,5.39,0,0,0-3.12-1.14q-4.58,0-4.58,6.92v12.58h-5.6Z"/><path class="cls-4" d="M1069.06,751.51h-17.38a7.41,7.41,0,0,0,1.94,4.76A5.94,5.94,0,0,0,1058,758a5.67,5.67,0,0,0,3.46-1,14.13,14.13,0,0,0,3.07-3.68l4.73,2.64a18.73,18.73,0,0,1-2.32,3.2,12.06,12.06,0,0,1-2.61,2.19,10.73,10.73,0,0,1-3,1.26,15,15,0,0,1-3.51.4,11.42,11.42,0,0,1-8.71-3.49,13.1,13.1,0,0,1-3.29-9.32,13.42,13.42,0,0,1,3.19-9.31,12.15,12.15,0,0,1,17-.1q3.09,3.39,3.09,9.39Zm-5.75-4.58q-1.17-4.48-5.65-4.48a5.77,5.77,0,0,0-1.92.31,5.28,5.28,0,0,0-1.63.89,5.69,5.69,0,0,0-1.26,1.41,6.43,6.43,0,0,0-.79,1.87Z"/><path class="cls-4" d="M1090.93,738.06h5.6v2.24a11.86,11.86,0,0,1,2.77-2.29,6.75,6.75,0,0,1,3.06-.62,7.45,7.45,0,0,1,6.5,3.59,8.42,8.42,0,0,1,7.15-3.59q8.19,0,8.19,9.94v15h-5.63V748.85a10.29,10.29,0,0,0-.85-4.93,3.06,3.06,0,0,0-2.86-1.47,3.65,3.65,0,0,0-3.37,1.74q-1.07,1.74-1.06,5.6v12.53h-5.63v-13.4c0-4.32-1.25-6.47-3.74-6.47a3.75,3.75,0,0,0-3.44,1.76,10.94,10.94,0,0,0-1.09,5.58v12.53h-5.6Z"/><path class="cls-4" d="M1153.36,751.51H1136a7.36,7.36,0,0,0,1.94,4.76,5.91,5.91,0,0,0,4.41,1.74,5.69,5.69,0,0,0,3.46-1,13.94,13.94,0,0,0,3.06-3.68l4.73,2.64a19.26,19.26,0,0,1-2.31,3.2,12.35,12.35,0,0,1-2.62,2.19,10.67,10.67,0,0,1-3,1.26,15,15,0,0,1-3.51.4,11.44,11.44,0,0,1-8.72-3.49,13.1,13.1,0,0,1-3.29-9.32,13.47,13.47,0,0,1,3.19-9.31,12.16,12.16,0,0,1,17-.1q3.08,3.39,3.08,9.39Zm-5.75-4.58q-1.17-4.48-5.66-4.48a5.67,5.67,0,0,0-1.91.31,5.17,5.17,0,0,0-1.63.89,5.69,5.69,0,0,0-1.26,1.41,6.44,6.44,0,0,0-.8,1.87Z"/><path class="cls-4" d="M1177.37,720.26H1183v42.06h-5.62v-2.54a10.46,10.46,0,0,1-7.5,3.24,10.69,10.69,0,0,1-8.27-3.64,13.53,13.53,0,0,1-3.26-9.26,13.11,13.11,0,0,1,3.26-9.07,10.48,10.48,0,0,1,15.77-.17Zm-13.3,29.86a8.41,8.41,0,0,0,1.87,5.67,6.09,6.09,0,0,0,4.83,2.22,6.43,6.43,0,0,0,5-2.14,9.25,9.25,0,0,0,0-11.26,6.35,6.35,0,0,0-5-2.16,6.21,6.21,0,0,0-4.84,2.19A8.11,8.11,0,0,0,1164.07,750.12Z"/><path class="cls-4" d="M1219.9,742.2l-4.63,2.46c-.73-1.49-1.64-2.24-2.72-2.24a1.88,1.88,0,0,0-1.32.51,1.73,1.73,0,0,0-.55,1.31q0,1.39,3.24,2.76a19.32,19.32,0,0,1,6,3.54,6.05,6.05,0,0,1,1.55,4.36,7.63,7.63,0,0,1-2.59,5.87,8.82,8.82,0,0,1-6.08,2.25q-6.1,0-8.64-6l4.78-2.21a10.38,10.38,0,0,0,1.52,2.21,3.44,3.44,0,0,0,2.44,1c1.89,0,2.84-.86,2.84-2.59q0-1.5-2.19-2.79c-.57-.28-1.13-.56-1.69-.82l-1.72-.82a10.61,10.61,0,0,1-3.44-2.39,5.89,5.89,0,0,1-1.27-3.91,6.9,6.9,0,0,1,2.17-5.23,7.58,7.58,0,0,1,5.38-2.07Q1217.63,737.39,1219.9,742.2Z"/><path class="cls-4" d="M1244.38,738.06H1250v24.26h-5.62v-2.54a10.76,10.76,0,0,1-15.77-.4,13.53,13.53,0,0,1-3.26-9.26,13.11,13.11,0,0,1,3.26-9.09,10.51,10.51,0,0,1,8.17-3.64,10.31,10.31,0,0,1,7.6,3.49Zm-13.3,12.06a8.41,8.41,0,0,0,1.87,5.67,6.1,6.1,0,0,0,4.83,2.22,6.43,6.43,0,0,0,5-2.14,9.21,9.21,0,0,0,0-11.26,6.35,6.35,0,0,0-5-2.16,6.18,6.18,0,0,0-4.83,2.19A8.07,8.07,0,0,0,1231.08,750.12Z"/><path class="cls-4" d="M1280.54,761.75c0,1.14,0,2.15-.12,3a20.45,20.45,0,0,1-.31,2.3,10.28,10.28,0,0,1-2.34,4.71,11.35,11.35,0,0,1-9,3.79,12.07,12.07,0,0,1-8-2.62,10.66,10.66,0,0,1-3.74-7.44h5.63a6.42,6.42,0,0,0,1.07,2.76,6,6,0,0,0,5.08,2.27q6.15,0,6.15-7.55V759.6a10.44,10.44,0,0,1-7.69,3.42,10.34,10.34,0,0,1-8.12-3.59,13.25,13.25,0,0,1-3.19-9.09,14,14,0,0,1,3-9,10.3,10.3,0,0,1,8.42-3.94,9.77,9.77,0,0,1,7.62,3.41v-2.74h5.61Zm-5.38-11.51a8.12,8.12,0,0,0-1.9-5.65,6.22,6.22,0,0,0-4.9-2.17,6,6,0,0,0-5,2.37,9.73,9.73,0,0,0,0,10.9,6,6,0,0,0,5,2.32,6.16,6.16,0,0,0,5.08-2.34A8.37,8.37,0,0,0,1275.16,750.24Z"/><path class="cls-4" d="M1309.7,751.51h-17.39a7.37,7.37,0,0,0,2,4.76,5.91,5.91,0,0,0,4.4,1.74,5.67,5.67,0,0,0,3.46-1,14.13,14.13,0,0,0,3.07-3.68l4.73,2.64a18.73,18.73,0,0,1-2.32,3.2,12.06,12.06,0,0,1-2.61,2.19,10.73,10.73,0,0,1-3,1.26,14.84,14.84,0,0,1-3.51.4,11.42,11.42,0,0,1-8.71-3.49,13.1,13.1,0,0,1-3.29-9.32,13.42,13.42,0,0,1,3.19-9.31,12.15,12.15,0,0,1,17-.1q3.09,3.39,3.09,9.39Zm-5.76-4.58q-1.17-4.48-5.65-4.48a5.77,5.77,0,0,0-1.92.31,5.28,5.28,0,0,0-1.63.89,5.69,5.69,0,0,0-1.26,1.41,6.43,6.43,0,0,0-.79,1.87Z"/><path class="cls-4" d="M1315.82,738.06h5.63v2.24a9.19,9.19,0,0,1,6.62-2.91,8.38,8.38,0,0,1,6.6,2.66c1.36,1.52,2,4,2,7.4v14.87h-5.62V748.77c0-2.39-.34-4-1-4.95s-1.83-1.4-3.54-1.4a4.35,4.35,0,0,0-4,1.84c-.76,1.22-1.14,3.33-1.14,6.35v11.71h-5.63Z"/><path class="cls-4" d="M1347.25,755.12l5,1.94-7.1,14.22-3.78-1.57Z"/><path class="cls-4" d="M1393.14,720.26h5.63v42.06h-5.63v-2.54a10.44,10.44,0,0,1-7.49,3.24,10.69,10.69,0,0,1-8.27-3.64,13.48,13.48,0,0,1-3.26-9.26,13.07,13.07,0,0,1,3.26-9.07,10.47,10.47,0,0,1,15.76-.17Zm-13.3,29.86a8.46,8.46,0,0,0,1.87,5.67,6.12,6.12,0,0,0,4.83,2.22,6.42,6.42,0,0,0,5-2.14,9.21,9.21,0,0,0,0-11.26,6.35,6.35,0,0,0-5-2.16,6.21,6.21,0,0,0-4.83,2.19A8.07,8.07,0,0,0,1379.84,750.12Z"/><path class="cls-4" d="M1427.93,751.51h-17.38a7.41,7.41,0,0,0,1.94,4.76,5.94,5.94,0,0,0,4.41,1.74,5.69,5.69,0,0,0,3.46-1,13.94,13.94,0,0,0,3.06-3.68l4.74,2.64a19.87,19.87,0,0,1-2.32,3.2,12.11,12.11,0,0,1-2.62,2.19,10.67,10.67,0,0,1-3,1.26,15,15,0,0,1-3.51.4,11.46,11.46,0,0,1-8.72-3.49,13.09,13.09,0,0,1-3.28-9.32,13.47,13.47,0,0,1,3.18-9.31,12.16,12.16,0,0,1,17-.1q3.09,3.39,3.09,9.39Zm-5.75-4.58c-.78-3-2.67-4.48-5.65-4.48a5.73,5.73,0,0,0-1.92.31,5.28,5.28,0,0,0-1.63.89,5.69,5.69,0,0,0-1.26,1.41,6.72,6.72,0,0,0-.8,1.87Z"/><path class="cls-4" d="M1440.28,743.29v19h-5.6v-19h-2.39v-5.23h2.39v-8.89h5.6v8.89h4.36v5.23Z"/><path class="cls-4" d="M1454.23,743.29v19h-5.61v-19h-2.39v-5.23h2.39v-8.89h5.61v8.89h4.36v5.23Z"/><path class="cls-4" d="M1484.93,751.51h-17.38a7.41,7.41,0,0,0,1.94,4.76,5.94,5.94,0,0,0,4.41,1.74,5.67,5.67,0,0,0,3.46-1,14.13,14.13,0,0,0,3.07-3.68l4.73,2.64a19.28,19.28,0,0,1-2.32,3.2,12.06,12.06,0,0,1-2.61,2.19,10.73,10.73,0,0,1-3,1.26,15,15,0,0,1-3.51.4,11.42,11.42,0,0,1-8.71-3.49,13.05,13.05,0,0,1-3.29-9.32,13.42,13.42,0,0,1,3.19-9.31,12.15,12.15,0,0,1,17-.1q3.09,3.39,3.09,9.39Zm-5.75-4.58q-1.17-4.48-5.65-4.48a5.77,5.77,0,0,0-1.92.31,5.28,5.28,0,0,0-1.63.89,5.69,5.69,0,0,0-1.26,1.41,6.72,6.72,0,0,0-.8,1.87Z"/><path class="cls-4" d="M447.75,781.46v25.65l7.89-7.85h7.53l-10.54,10.19,11.31,14.07h-7.27l-8-10.24-.9.9v9.34h-5.6V781.46Z"/><path class="cls-4" d="M484.56,799.26h5.62v24.26h-5.62V821a10.78,10.78,0,0,1-15.77-.4,13.53,13.53,0,0,1-3.26-9.26,13.11,13.11,0,0,1,3.26-9.09,10.51,10.51,0,0,1,8.17-3.64,10.31,10.31,0,0,1,7.6,3.49Zm-13.3,12.06a8.41,8.41,0,0,0,1.87,5.67,6.1,6.1,0,0,0,4.83,2.22,6.43,6.43,0,0,0,5-2.14,9.21,9.21,0,0,0,0-11.26,6.35,6.35,0,0,0-5-2.16,6.18,6.18,0,0,0-4.83,2.19A8.07,8.07,0,0,0,471.26,811.32Z"/><path class="cls-4" d="M497.26,799.26h5.62v2.24a9.2,9.2,0,0,1,6.63-2.91,8.37,8.37,0,0,1,6.6,2.67q2,2.26,2,7.39v14.87h-5.63V810q0-3.59-1-5c-.65-.93-1.83-1.4-3.54-1.4a4.34,4.34,0,0,0-4,1.84c-.76,1.22-1.15,3.33-1.15,6.35v11.71h-5.62Z"/><path class="cls-4" d="M546.56,781.46v20.62a10.32,10.32,0,0,1,7.62-3.49,10.48,10.48,0,0,1,8.17,3.66,13.07,13.07,0,0,1,3.26,9.07,13.34,13.34,0,0,1-3.28,9.26,10.63,10.63,0,0,1-8.25,3.63,10.48,10.48,0,0,1-7.52-3.23v2.54H541V781.46Zm13.33,30.1a8.37,8.37,0,0,0-1.9-5.67,6,6,0,0,0-4.8-2.24,6.44,6.44,0,0,0-5,2.16,8.05,8.05,0,0,0-1.92,5.58,8.16,8.16,0,0,0,1.89,5.65,6.27,6.27,0,0,0,5,2.17,6.15,6.15,0,0,0,4.83-2.17A7.93,7.93,0,0,0,559.89,811.56Z"/><path class="cls-4" d="M589.42,799.26h5.63v24.26h-5.63V821a10.77,10.77,0,0,1-15.76-.4,13.49,13.49,0,0,1-3.27-9.26,13.07,13.07,0,0,1,3.27-9.09,10.48,10.48,0,0,1,8.16-3.64,10.29,10.29,0,0,1,7.6,3.49Zm-13.3,12.06A8.41,8.41,0,0,0,578,817a6.12,6.12,0,0,0,4.83,2.22,6.42,6.42,0,0,0,5-2.14,9.21,9.21,0,0,0,0-11.26,6.35,6.35,0,0,0-5-2.16,6.18,6.18,0,0,0-4.83,2.19A8.07,8.07,0,0,0,576.12,811.32ZM578,790a5.1,5.1,0,0,1,1.59-3.76,5.42,5.42,0,0,1,7.65,7.67,5.14,5.14,0,0,1-3.81,1.6,5.23,5.23,0,0,1-3.86-1.6A5.33,5.33,0,0,1,578,790Zm3,.05a2.45,2.45,0,0,0,.71,1.79,2.41,2.41,0,0,0,1.76.7,2.47,2.47,0,1,0,0-4.93,2.4,2.4,0,0,0-1,.2,2.7,2.7,0,0,0-.79.54,2.32,2.32,0,0,0-.52.78A2.48,2.48,0,0,0,581,790.07Z"/><path class="cls-4" d="M620,781.46h5.63v42.06H620V821a10.45,10.45,0,0,1-7.5,3.23,10.66,10.66,0,0,1-8.26-3.63,13.49,13.49,0,0,1-3.27-9.26,13.07,13.07,0,0,1,3.27-9.07,10.47,10.47,0,0,1,15.76-.17Zm-13.3,29.86a8.41,8.41,0,0,0,1.87,5.67,6.12,6.12,0,0,0,4.83,2.22,6.42,6.42,0,0,0,5-2.14,9.21,9.21,0,0,0,0-11.26,6.35,6.35,0,0,0-5-2.16,6.18,6.18,0,0,0-4.83,2.19A8.07,8.07,0,0,0,606.7,811.32Z"/><path class="cls-4" d="M654.79,812.71H637.41a7.36,7.36,0,0,0,1.94,4.76,5.91,5.91,0,0,0,4.41,1.74,5.71,5.71,0,0,0,3.46-1,13.94,13.94,0,0,0,3.06-3.68l4.73,2.64a19.26,19.26,0,0,1-2.31,3.2,12.35,12.35,0,0,1-2.62,2.19,10.67,10.67,0,0,1-3,1.26,15,15,0,0,1-3.51.39,11.43,11.43,0,0,1-8.72-3.48,13.09,13.09,0,0,1-3.29-9.31,13.48,13.48,0,0,1,3.19-9.32,12.16,12.16,0,0,1,17-.1q3.07,3.39,3.08,9.39ZM649,808.13q-1.17-4.49-5.66-4.48a5.67,5.67,0,0,0-1.91.31,5.55,5.55,0,0,0-1.64.89,5.65,5.65,0,0,0-1.25,1.41,6.44,6.44,0,0,0-.8,1.87Z"/><path class="cls-4" d="M679.67,799.26l6.27,13.62,6.25-13.62h6.3l-12.6,25.93-12.5-25.93Z"/><path class="cls-4" d="M739.53,812.64H722.05a7.7,7.7,0,0,0,2,4.78,5.86,5.86,0,0,0,4.38,1.79q3.84,0,6.36-4.86l4.83,2.69a16.85,16.85,0,0,1-1.72,2.67,10.49,10.49,0,0,1-2,1.91,12.8,12.8,0,0,1-7.75,2.62,12.19,12.19,0,0,1-8.79-3.88c-2,2.59-5,3.88-8.94,3.88a11.12,11.12,0,0,1-7.2-2.24,7.19,7.19,0,0,1-2.76-5.85,7.49,7.49,0,0,1,2.64-6,10.27,10.27,0,0,1,7-2.29,14.06,14.06,0,0,1,6.32,1.64c0-2.19-.45-3.72-1.37-4.58s-2.49-1.32-4.68-1.32a24.18,24.18,0,0,0-6.47.92v-5.2a43.11,43.11,0,0,1,7-.75q5.93,0,8.52,3.41a11.18,11.18,0,0,1,8.46-3.41,11.07,11.07,0,0,1,8.49,3.41,12.7,12.7,0,0,1,3.19,9Zm-33.59,3.41a2.78,2.78,0,0,0,1.39,2.36,6.41,6.41,0,0,0,3.54,1,6.65,6.65,0,0,0,3.71-1,2.91,2.91,0,0,0,1.49-2.47,2.67,2.67,0,0,0-1.54-2.24,7,7,0,0,0-3.71-.94,6,6,0,0,0-3.46,1A2.78,2.78,0,0,0,705.94,816.05Zm27.71-7.95c-.68-3-2.49-4.45-5.45-4.45a5.53,5.53,0,0,0-5.78,4.45Z"/><path class="cls-4" d="M745.56,799.26h5.6v2.17a10.7,10.7,0,0,1,2.74-2.22,6.35,6.35,0,0,1,2.89-.62,9,9,0,0,1,4.63,1.45l-2.56,5.13a5.36,5.36,0,0,0-3.12-1.15q-4.57,0-4.58,6.92v12.58h-5.6Z"/><path class="cls-4" d="M786.37,812.71H769a7.41,7.41,0,0,0,1.94,4.76,5.94,5.94,0,0,0,4.41,1.74,5.67,5.67,0,0,0,3.46-1,14.13,14.13,0,0,0,3.07-3.68l4.73,2.64a19.28,19.28,0,0,1-2.32,3.2,12.06,12.06,0,0,1-2.61,2.19,10.73,10.73,0,0,1-3,1.26,15,15,0,0,1-3.51.39,11.41,11.41,0,0,1-8.71-3.48,13,13,0,0,1-3.29-9.31,13.43,13.43,0,0,1,3.19-9.32,12.15,12.15,0,0,1,17-.1q3.09,3.39,3.09,9.39Zm-5.75-4.58q-1.17-4.49-5.65-4.48a5.77,5.77,0,0,0-1.92.31,5.5,5.5,0,0,0-1.63.89,5.69,5.69,0,0,0-1.26,1.41,6.72,6.72,0,0,0-.8,1.87Z"/><path class="cls-4" d="M813.84,836.72h-5.6V799.26h5.6v2.64a10.63,10.63,0,0,1,15.76.38,13.32,13.32,0,0,1,3.29,9.24,13.1,13.1,0,0,1-3.26,9.08,10.63,10.63,0,0,1-15.79.2Zm13.32-25.18a8.4,8.4,0,0,0-1.89-5.68,6.11,6.11,0,0,0-4.83-2.21,6.4,6.4,0,0,0-5,2.14,8.11,8.11,0,0,0-1.91,5.63,8.25,8.25,0,0,0,1.91,5.62,6.27,6.27,0,0,0,5,2.17,6.07,6.07,0,0,0,4.81-2.19A8,8,0,0,0,827.16,811.54Z"/><path class="cls-4" d="M856.7,799.26h5.62v24.26H856.7V821a10.78,10.78,0,0,1-15.77-.4,13.53,13.53,0,0,1-3.26-9.26,13.11,13.11,0,0,1,3.26-9.09,10.51,10.51,0,0,1,8.17-3.64,10.31,10.31,0,0,1,7.6,3.49Zm-13.3,12.06a8.41,8.41,0,0,0,1.87,5.67,6.1,6.1,0,0,0,4.83,2.22,6.43,6.43,0,0,0,5-2.14,9.25,9.25,0,0,0,0-11.26,6.35,6.35,0,0,0-5-2.16,6.18,6.18,0,0,0-4.83,2.19A8.07,8.07,0,0,0,843.4,811.32Zm1.92-21.3a5.1,5.1,0,0,1,1.59-3.76,5.41,5.41,0,1,1,7.64,7.67,5.1,5.1,0,0,1-3.8,1.6,5.25,5.25,0,0,1-3.87-1.6A5.36,5.36,0,0,1,845.32,790Zm3,.05a2.45,2.45,0,0,0,.71,1.79,2.55,2.55,0,0,0,3.51,0,2.47,2.47,0,0,0-1.75-4.23,2.45,2.45,0,0,0-1,.2,2.53,2.53,0,0,0-.78.54,2.18,2.18,0,0,0-.52.78A2.3,2.3,0,0,0,848.28,790.07Z"/><path class="cls-4" d="M903,781.46h5.63v42.06H903V821a10.41,10.41,0,0,1-7.49,3.23,10.68,10.68,0,0,1-8.27-3.63,13.53,13.53,0,0,1-3.26-9.26,13.11,13.11,0,0,1,3.26-9.07,10.47,10.47,0,0,1,15.76-.17Zm-13.29,29.86a8.46,8.46,0,0,0,1.86,5.67,6.12,6.12,0,0,0,4.84,2.22,6.43,6.43,0,0,0,5-2.14,9.25,9.25,0,0,0,0-11.26,6.35,6.35,0,0,0-5-2.16,6.21,6.21,0,0,0-4.84,2.19A8.11,8.11,0,0,0,889.72,811.32Z"/><path class="cls-4" d="M914.87,789.18a3.65,3.65,0,0,1,3.63-3.61,3.49,3.49,0,0,1,2.59,1.07,3.41,3.41,0,0,1,1.08,2.56,3.51,3.51,0,0,1-1.08,2.59,3.41,3.41,0,0,1-2.56,1.07,3.65,3.65,0,0,1-3.66-3.68Zm6.45,10.08v24.26h-5.61V799.26Z"/><path class="cls-4" d="M928.42,799.26H934v2.24a9.2,9.2,0,0,1,6.63-2.91,8.37,8.37,0,0,1,6.6,2.67q2,2.26,2,7.39v14.87h-5.63V810c0-2.39-.33-4-1-5s-1.82-1.4-3.53-1.4a4.34,4.34,0,0,0-4,1.84c-.77,1.22-1.15,3.33-1.15,6.35v11.71h-5.62Z"/><path class="cls-4" d="M986.21,803.4l-4.63,2.46c-.73-1.49-1.63-2.24-2.71-2.24a1.85,1.85,0,0,0-1.32.51,1.7,1.7,0,0,0-.55,1.31q0,1.39,3.24,2.76a19.32,19.32,0,0,1,6,3.54,6,6,0,0,1,1.54,4.36,7.6,7.6,0,0,1-2.59,5.87,8.77,8.77,0,0,1-6.07,2.24q-6.11,0-8.64-6l4.78-2.21a10,10,0,0,0,1.52,2.21,3.46,3.46,0,0,0,2.44,1c1.89,0,2.84-.86,2.84-2.59,0-1-.74-1.93-2.2-2.79l-1.69-.82-1.72-.82A10.66,10.66,0,0,1,973,809.8a5.87,5.87,0,0,1-1.27-3.91,6.93,6.93,0,0,1,2.16-5.23,7.6,7.6,0,0,1,5.38-2.07C982.4,798.59,984.7,800.19,986.21,803.4Z"/><path class="cls-4" d="M998.42,781.46v25.65l7.89-7.85h7.52l-10.53,10.19,11.3,14.07h-7.27l-8-10.24-.89.9v9.34h-5.61V781.46Z"/><path class="cls-4" d="M1016.05,811.22a12,12,0,0,1,3.76-8.94,12.58,12.58,0,0,1,9.16-3.69,12.71,12.71,0,0,1,9.22,3.71,13,13,0,0,1,0,18.25,12.81,12.81,0,0,1-9.29,3.66,12.34,12.34,0,0,1-9.14-3.73A12.58,12.58,0,0,1,1016.05,811.22Zm5.72.1a8.16,8.16,0,0,0,2,5.75,7.55,7.55,0,0,0,10.51,0,9.12,9.12,0,0,0,0-11.3,6.84,6.84,0,0,0-5.26-2.14,6.75,6.75,0,0,0-5.2,2.14A7.79,7.79,0,0,0,1021.77,811.32Z"/><path class="cls-4" d="M1053.45,781.46v42.06h-5.6V781.46Z"/><path class="cls-4" d="M1082.63,812.71h-17.38a7.37,7.37,0,0,0,2,4.76,5.91,5.91,0,0,0,4.4,1.74,5.67,5.67,0,0,0,3.46-1,14.13,14.13,0,0,0,3.07-3.68l4.73,2.64a18.73,18.73,0,0,1-2.32,3.2,12.06,12.06,0,0,1-2.61,2.19,10.73,10.73,0,0,1-3,1.26,14.92,14.92,0,0,1-3.51.39,11.41,11.41,0,0,1-8.71-3.48,13.09,13.09,0,0,1-3.29-9.31,13.43,13.43,0,0,1,3.19-9.32,12.15,12.15,0,0,1,17-.1q3.09,3.39,3.09,9.39Zm-5.75-4.58q-1.17-4.49-5.65-4.48a5.77,5.77,0,0,0-1.92.31,5.5,5.5,0,0,0-1.63.89,5.69,5.69,0,0,0-1.26,1.41,6.43,6.43,0,0,0-.79,1.87Z"/><path class="cls-4" d="M1103.35,811.22a12.06,12.06,0,0,1,3.76-8.94,13.26,13.26,0,0,1,18.38,0,13,13,0,0,1,0,18.25,12.82,12.82,0,0,1-9.29,3.66,12.32,12.32,0,0,1-9.14-3.73A12.55,12.55,0,0,1,1103.35,811.22Zm5.73.1a8.2,8.2,0,0,0,1.94,5.75,7.55,7.55,0,0,0,10.51,0,9.09,9.09,0,0,0,0-11.3,7.46,7.46,0,0,0-10.46,0A7.83,7.83,0,0,0,1109.08,811.32Z"/><path class="cls-4" d="M1158.61,823c0,1.14,0,2.15-.11,3a23.05,23.05,0,0,1-.31,2.3,10.28,10.28,0,0,1-2.34,4.71,11.37,11.37,0,0,1-9,3.79,12.11,12.11,0,0,1-8-2.62,10.69,10.69,0,0,1-3.73-7.44h5.63a6.3,6.3,0,0,0,1.07,2.76,6,6,0,0,0,5.08,2.27q6.15,0,6.15-7.55V820.8a10.45,10.45,0,0,1-7.7,3.41,10.31,10.31,0,0,1-8.11-3.58,13.25,13.25,0,0,1-3.19-9.09,14,14,0,0,1,3-9,10.29,10.29,0,0,1,8.42-3.94A9.8,9.8,0,0,1,1153,802v-2.74h5.6Zm-5.38-11.51a8.16,8.16,0,0,0-1.89-5.65,6.24,6.24,0,0,0-4.91-2.17,6,6,0,0,0-5,2.37,9.78,9.78,0,0,0,0,10.9,6,6,0,0,0,5,2.32,6.13,6.13,0,0,0,5.08-2.34A8.31,8.31,0,0,0,1153.23,811.44Z"/><path class="cls-4" d="M1181.42,781.46h5.6v19.82a9.69,9.69,0,0,1,6.6-2.69,8.54,8.54,0,0,1,6.58,2.67q2.08,2.31,2.09,7.39v14.87h-5.6V809.17a6.83,6.83,0,0,0-1-4.22,4,4,0,0,0-3.32-1.3c-2,0-3.34.6-4.14,1.81s-1.17,3.34-1.17,6.33v11.73h-5.6Z"/><path class="cls-4" d="M1208.24,811.22a12.06,12.06,0,0,1,3.76-8.94,13.26,13.26,0,0,1,18.38,0,13,13,0,0,1,0,18.25,12.82,12.82,0,0,1-9.29,3.66,12.31,12.31,0,0,1-9.14-3.73A12.55,12.55,0,0,1,1208.24,811.22Zm5.73.1a8.2,8.2,0,0,0,1.94,5.75,7.55,7.55,0,0,0,10.51,0,9.09,9.09,0,0,0,0-11.3,7.46,7.46,0,0,0-10.46,0A7.79,7.79,0,0,0,1214,811.32Z"/><path class="cls-4" d="M1254.14,803.4l-4.64,2.46c-.73-1.49-1.63-2.24-2.71-2.24a1.88,1.88,0,0,0-1.32.51,1.73,1.73,0,0,0-.55,1.31q0,1.39,3.24,2.76a19.32,19.32,0,0,1,6,3.54,6.05,6.05,0,0,1,1.55,4.36,7.63,7.63,0,0,1-2.59,5.87,8.81,8.81,0,0,1-6.08,2.24q-6.11,0-8.64-6l4.78-2.21a10,10,0,0,0,1.52,2.21,3.46,3.46,0,0,0,2.44,1c1.89,0,2.84-.86,2.84-2.59q0-1.5-2.19-2.79l-1.7-.82-1.71-.82a10.61,10.61,0,0,1-3.44-2.39,5.87,5.87,0,0,1-1.27-3.91,6.93,6.93,0,0,1,2.16-5.23,7.61,7.61,0,0,1,5.38-2.07Q1251.88,798.59,1254.14,803.4Z"/><path class="cls-4" d="M1282.08,836.72h-5.61V799.26h5.61v2.64a10.38,10.38,0,0,1,7.52-3.31,10.49,10.49,0,0,1,8.24,3.69,13.32,13.32,0,0,1,3.29,9.24,13.1,13.1,0,0,1-3.26,9.08,10.63,10.63,0,0,1-15.79.2Zm13.32-25.18a8.4,8.4,0,0,0-1.89-5.68,6.11,6.11,0,0,0-4.83-2.21,6.4,6.4,0,0,0-5,2.14,8.11,8.11,0,0,0-1.92,5.63,8.26,8.26,0,0,0,1.92,5.62,6.27,6.27,0,0,0,5,2.17,6.08,6.08,0,0,0,4.81-2.19A8,8,0,0,0,1295.4,811.54Z"/><path class="cls-4" d="M1305.91,811.22a12,12,0,0,1,3.76-8.94,12.58,12.58,0,0,1,9.16-3.69,12.71,12.71,0,0,1,9.22,3.71,13,13,0,0,1,0,18.25,12.81,12.81,0,0,1-9.29,3.66,12.34,12.34,0,0,1-9.14-3.73A12.58,12.58,0,0,1,1305.91,811.22Zm5.73.1a8.15,8.15,0,0,0,1.94,5.75,7.55,7.55,0,0,0,10.51,0,9.12,9.12,0,0,0,0-11.3,6.84,6.84,0,0,0-5.26-2.14,6.76,6.76,0,0,0-5.2,2.14A7.79,7.79,0,0,0,1311.64,811.32Z"/><path class="cls-4" d="M1343.31,781.46v42.06h-5.6V781.46Z"/><path class="cls-4" d="M1349.56,789.18a3.65,3.65,0,0,1,3.64-3.61,3.52,3.52,0,0,1,2.59,1.07,3.44,3.44,0,0,1,1.07,2.56,3.54,3.54,0,0,1-1.07,2.59,3.44,3.44,0,0,1-2.57,1.07,3.5,3.5,0,0,1-2.59-1.07A3.55,3.55,0,0,1,1349.56,789.18Zm6.45,10.08v24.26h-5.6V799.26Z"/><path class="cls-4" d="M1368.89,804.49v19h-5.61v-19h-2.39v-5.23h2.39v-8.89h5.61v8.89h4.35v5.23Z"/><path class="cls-4" d="M1376.21,789.18a3.65,3.65,0,0,1,3.63-3.61,3.49,3.49,0,0,1,2.59,1.07,3.41,3.41,0,0,1,1.07,2.56,3.5,3.5,0,0,1-1.07,2.59,3.41,3.41,0,0,1-2.56,1.07,3.65,3.65,0,0,1-3.66-3.68Zm6.45,10.08v24.26h-5.61V799.26Z"/><path class="cls-4" d="M1411.84,812.71h-17.38a7.41,7.41,0,0,0,1.94,4.76,5.94,5.94,0,0,0,4.41,1.74,5.69,5.69,0,0,0,3.46-1,13.94,13.94,0,0,0,3.06-3.68l4.74,2.64a19.87,19.87,0,0,1-2.32,3.2,12.11,12.11,0,0,1-2.62,2.19,10.55,10.55,0,0,1-3,1.26,15,15,0,0,1-3.51.39,11.45,11.45,0,0,1-8.72-3.48,13.08,13.08,0,0,1-3.28-9.31,13.48,13.48,0,0,1,3.18-9.32,12.16,12.16,0,0,1,17-.1q3.09,3.39,3.09,9.39Zm-5.75-4.58c-.78-3-2.67-4.48-5.65-4.48a5.73,5.73,0,0,0-1.92.31,5.5,5.5,0,0,0-1.63.89,5.69,5.69,0,0,0-1.26,1.41,6.72,6.72,0,0,0-.8,1.87Z"/><path class="cls-4" d="M1424.19,804.49v19h-5.6v-19h-2.39v-5.23h2.39v-8.89h5.6v8.89h4.36v5.23Z"/><path class="cls-4" d="M1435.82,816.32l5,1.94-7.09,14.22-3.79-1.57Z"/><path class="cls-4" d="M1481.72,781.46h5.62v42.06h-5.62V821a10.45,10.45,0,0,1-7.5,3.23,10.68,10.68,0,0,1-8.27-3.63,13.53,13.53,0,0,1-3.26-9.26,13.11,13.11,0,0,1,3.26-9.07,10.43,10.43,0,0,1,8.15-3.66,10.32,10.32,0,0,1,7.62,3.49Zm-13.3,29.86a8.41,8.41,0,0,0,1.87,5.67,6.1,6.1,0,0,0,4.83,2.22,6.43,6.43,0,0,0,5-2.14,9.21,9.21,0,0,0,0-11.26,6.35,6.35,0,0,0-5-2.16,6.18,6.18,0,0,0-4.83,2.19A8.07,8.07,0,0,0,1468.42,811.32Z"/><path class="cls-4" d="M1512.3,799.26h5.62v24.26h-5.62V821a10.78,10.78,0,0,1-15.77-.4,13.53,13.53,0,0,1-3.26-9.26,13.11,13.11,0,0,1,3.26-9.09,10.51,10.51,0,0,1,8.17-3.64,10.31,10.31,0,0,1,7.6,3.49ZM1499,811.32a8.41,8.41,0,0,0,1.87,5.67,6.1,6.1,0,0,0,4.83,2.22,6.43,6.43,0,0,0,5-2.14,9.21,9.21,0,0,0,0-11.26,6.35,6.35,0,0,0-5-2.16,6.18,6.18,0,0,0-4.83,2.19A8.07,8.07,0,0,0,1499,811.32Z"/><path class="cls-4" d="M447.75,843.86v20.62a10.32,10.32,0,0,1,7.62-3.49,10.5,10.5,0,0,1,8.17,3.66,13.11,13.11,0,0,1,3.26,9.07,13.3,13.3,0,0,1-3.29,9.26,10.6,10.6,0,0,1-8.24,3.64,10.47,10.47,0,0,1-7.52-3.24v2.54h-5.6V843.86ZM461.07,874a8.37,8.37,0,0,0-1.89-5.67,6,6,0,0,0-4.8-2.24,6.48,6.48,0,0,0-5,2.16,9.25,9.25,0,0,0,0,11.23,6.27,6.27,0,0,0,5,2.17,6.17,6.17,0,0,0,4.83-2.17A7.92,7.92,0,0,0,461.07,874Z"/><path class="cls-4" d="M471.88,851.58a3.65,3.65,0,0,1,3.64-3.61,3.52,3.52,0,0,1,2.59,1.07,3.44,3.44,0,0,1,1.07,2.56,3.52,3.52,0,0,1-1.07,2.59,3.44,3.44,0,0,1-2.57,1.07,3.52,3.52,0,0,1-2.59-1.07A3.55,3.55,0,0,1,471.88,851.58Zm6.45,10.08v24.26h-5.6V861.66Z"/><path class="cls-4" d="M491,843.86v42.06h-5.6V843.86Z"/><path class="cls-4" d="M503.73,843.86v42.06h-5.6V843.86Z"/><path class="cls-4" d="M532.92,875.11H515.53a7.37,7.37,0,0,0,2,4.76,5.91,5.91,0,0,0,4.4,1.74,5.72,5.72,0,0,0,3.47-1,14.33,14.33,0,0,0,3.06-3.68l4.73,2.64a19.26,19.26,0,0,1-2.31,3.2,12.35,12.35,0,0,1-2.62,2.19,10.67,10.67,0,0,1-3,1.26,15,15,0,0,1-3.51.4,11.44,11.44,0,0,1-8.72-3.49,13.09,13.09,0,0,1-3.29-9.31,13.48,13.48,0,0,1,3.19-9.32,12.15,12.15,0,0,1,17-.1q3.09,3.39,3.09,9.39Zm-5.76-4.58q-1.17-4.49-5.65-4.48a5.77,5.77,0,0,0-1.92.31,5.4,5.4,0,0,0-1.63.89,5.46,5.46,0,0,0-1.25,1.41,6.44,6.44,0,0,0-.8,1.87Z"/><path class="cls-4" d="M556.92,843.86h5.63v42.06h-5.63v-2.54a10.46,10.46,0,0,1-7.49,3.24,10.69,10.69,0,0,1-8.27-3.64,13.48,13.48,0,0,1-3.26-9.26,13.07,13.07,0,0,1,3.26-9.07,10.47,10.47,0,0,1,15.76-.17Zm-13.3,29.86a8.46,8.46,0,0,0,1.87,5.67,6.12,6.12,0,0,0,4.83,2.22,6.42,6.42,0,0,0,5-2.14,9.21,9.21,0,0,0,0-11.26,6.35,6.35,0,0,0-5-2.16,6.21,6.21,0,0,0-4.83,2.19A8.05,8.05,0,0,0,543.62,873.72Z"/><path class="cls-4" d="M587.5,843.86h5.63v42.06H587.5v-2.54a10.46,10.46,0,0,1-7.49,3.24,10.69,10.69,0,0,1-8.27-3.64,13.48,13.48,0,0,1-3.26-9.26,13.07,13.07,0,0,1,3.26-9.07,10.47,10.47,0,0,1,15.76-.17Zm-13.3,29.86a8.46,8.46,0,0,0,1.87,5.67,6.12,6.12,0,0,0,4.83,2.22,6.42,6.42,0,0,0,5-2.14,9.21,9.21,0,0,0,0-11.26,6.35,6.35,0,0,0-5-2.16,6.21,6.21,0,0,0-4.83,2.19A8.05,8.05,0,0,0,574.2,873.72Z"/><path class="cls-4" d="M622.29,875.11H604.91a7.41,7.41,0,0,0,1.94,4.76,5.94,5.94,0,0,0,4.41,1.74,5.69,5.69,0,0,0,3.46-1,13.94,13.94,0,0,0,3.06-3.68l4.73,2.64a19.26,19.26,0,0,1-2.31,3.2,12.35,12.35,0,0,1-2.62,2.19,10.67,10.67,0,0,1-3,1.26,15,15,0,0,1-3.51.4,11.46,11.46,0,0,1-8.72-3.49,13.08,13.08,0,0,1-3.28-9.31,13.48,13.48,0,0,1,3.18-9.32,12.16,12.16,0,0,1,17-.1q3.09,3.39,3.09,9.39Zm-5.75-4.58q-1.17-4.49-5.66-4.48a5.71,5.71,0,0,0-1.91.31,5.28,5.28,0,0,0-1.63.89,5.69,5.69,0,0,0-1.26,1.41,6.44,6.44,0,0,0-.8,1.87Z"/><path class="cls-4" d="M634,843.86v42.06h-5.6V843.86Z"/><path class="cls-4" d="M640.27,851.58a3.65,3.65,0,0,1,3.64-3.61A3.52,3.52,0,0,1,646.5,849a3.44,3.44,0,0,1,1.07,2.56,3.52,3.52,0,0,1-1.07,2.59,3.44,3.44,0,0,1-2.57,1.07,3.5,3.5,0,0,1-2.59-1.07A3.55,3.55,0,0,1,640.27,851.58Zm6.45,10.08v24.26h-5.6V861.66Z"/><path class="cls-4" d="M653.82,861.66h5.63v2.24a9.16,9.16,0,0,1,6.62-2.91,8.37,8.37,0,0,1,6.6,2.67q2,2.26,2,7.39v14.87h-5.63V872.37q0-3.58-1-5c-.65-.93-1.83-1.4-3.54-1.4a4.32,4.32,0,0,0-4,1.84c-.76,1.22-1.14,3.33-1.14,6.35v11.71h-5.63Z"/><path class="cls-4" d="M705.24,885.35c0,1.14,0,2.15-.11,3a23.05,23.05,0,0,1-.31,2.3,10.28,10.28,0,0,1-2.34,4.71,11.37,11.37,0,0,1-9,3.79,12.11,12.11,0,0,1-8-2.62,10.65,10.65,0,0,1-3.73-7.44h5.63a6.3,6.3,0,0,0,1.07,2.76,6,6,0,0,0,5.08,2.27q6.15,0,6.15-7.55V883.2a10.46,10.46,0,0,1-7.7,3.42,10.35,10.35,0,0,1-8.12-3.59,13.3,13.3,0,0,1-3.18-9.09,13.94,13.94,0,0,1,3-9A10.28,10.28,0,0,1,692,861a9.8,9.8,0,0,1,7.62,3.41v-2.74h5.6Zm-5.38-11.51a8.16,8.16,0,0,0-1.89-5.65,6.26,6.26,0,0,0-4.91-2.17,6,6,0,0,0-5,2.37,9.73,9.73,0,0,0,0,10.9,6,6,0,0,0,5,2.32,6.13,6.13,0,0,0,5.08-2.34A8.31,8.31,0,0,0,699.86,873.84Z"/><path class="cls-4" d="M742.15,865.8l-4.64,2.46c-.73-1.49-1.63-2.24-2.71-2.24a1.85,1.85,0,0,0-1.32.51,1.7,1.7,0,0,0-.55,1.31q0,1.39,3.24,2.76a19.32,19.32,0,0,1,6,3.54,6,6,0,0,1,1.54,4.36,7.6,7.6,0,0,1-2.59,5.87,8.77,8.77,0,0,1-6.07,2.25q-6.1,0-8.64-6l4.78-2.21a10,10,0,0,0,1.52,2.21,3.46,3.46,0,0,0,2.44,1c1.89,0,2.84-.86,2.84-2.59q0-1.5-2.19-2.79c-.57-.28-1.13-.56-1.7-.82l-1.72-.82A10.66,10.66,0,0,1,729,872.2a5.89,5.89,0,0,1-1.27-3.91,6.93,6.93,0,0,1,2.16-5.23,7.6,7.6,0,0,1,5.38-2.07C738.33,861,740.63,862.59,742.15,865.8Z"/><path class="cls-4" d="M754.52,866.89v19h-5.6v-19h-2.39v-5.23h2.39v-8.89h5.6v8.89h4.36v5.23Z"/><path class="cls-4" d="M762.69,861.66h5.6v2.17a10.87,10.87,0,0,1,2.74-2.22,6.38,6.38,0,0,1,2.89-.62,9,9,0,0,1,4.63,1.45L776,867.56a5.36,5.36,0,0,0-3.11-1.14q-4.59,0-4.59,6.92v12.58h-5.6Z"/><path class="cls-4" d="M799.3,861.66h5.62v24.26H799.3v-2.54a10.76,10.76,0,0,1-15.77-.4,13.53,13.53,0,0,1-3.26-9.26,13.11,13.11,0,0,1,3.26-9.09A10.51,10.51,0,0,1,791.7,861a10.31,10.31,0,0,1,7.6,3.49ZM786,873.72a8.41,8.41,0,0,0,1.87,5.67,6.1,6.1,0,0,0,4.83,2.22,6.43,6.43,0,0,0,5-2.14,9.21,9.21,0,0,0,0-11.26,6.35,6.35,0,0,0-5-2.16,6.18,6.18,0,0,0-4.83,2.19A8.05,8.05,0,0,0,786,873.72Z"/><path class="cls-4" d="M817.8,866.89v19h-5.63v-19h-2v-5.23h2V852.3q0-4.57,1.6-6.47a7.8,7.8,0,0,1,6.37-2.64,11,11,0,0,1,3.76.87v5.73l-.57-.3a7,7,0,0,0-3-.93,2,2,0,0,0-2,1.07,10.35,10.35,0,0,0-.52,4v8h6.1v5.23Z"/><path class="cls-4" d="M834.63,866.89v19H829v-19h-2v-5.23h2V852.3q0-4.57,1.59-6.47a7.81,7.81,0,0,1,6.37-2.64,11,11,0,0,1,3.76.87v5.73l-.57-.3a7,7,0,0,0-3-.93,2,2,0,0,0-2,1.07,10.3,10.3,0,0,0-.53,4v8h6.1v5.23Z"/><path class="cls-4" d="M866.83,875.11H849.45a7.41,7.41,0,0,0,1.94,4.76,5.94,5.94,0,0,0,4.41,1.74,5.69,5.69,0,0,0,3.46-1,13.94,13.94,0,0,0,3.06-3.68l4.74,2.64a19.28,19.28,0,0,1-2.32,3.2,12.11,12.11,0,0,1-2.62,2.19,10.55,10.55,0,0,1-3,1.26,15,15,0,0,1-3.51.4,11.46,11.46,0,0,1-8.72-3.49,13.08,13.08,0,0,1-3.28-9.31,13.43,13.43,0,0,1,3.19-9.32,12.15,12.15,0,0,1,17-.1q3.09,3.39,3.09,9.39Zm-5.75-4.58c-.78-3-2.67-4.48-5.65-4.48a5.77,5.77,0,0,0-1.92.31,5.28,5.28,0,0,0-1.63.89,5.69,5.69,0,0,0-1.26,1.41,6.72,6.72,0,0,0-.8,1.87Z"/><path class="cls-4" d="M887.05,865.8l-4.63,2.46c-.73-1.49-1.63-2.24-2.71-2.24a1.85,1.85,0,0,0-1.32.51,1.7,1.7,0,0,0-.55,1.31q0,1.39,3.24,2.76a19.32,19.32,0,0,1,6,3.54,6,6,0,0,1,1.54,4.36,7.6,7.6,0,0,1-2.59,5.87,8.79,8.79,0,0,1-6.07,2.25q-6.11,0-8.65-6l4.79-2.21a10,10,0,0,0,1.52,2.21,3.44,3.44,0,0,0,2.43,1c1.9,0,2.84-.86,2.84-2.59q0-1.5-2.19-2.79c-.56-.28-1.13-.56-1.69-.82l-1.72-.82a10.73,10.73,0,0,1-3.44-2.39,6,6,0,0,1-1.27-3.91,6.94,6.94,0,0,1,2.17-5.23,7.6,7.6,0,0,1,5.38-2.07Q884.78,861,887.05,865.8Z"/><path class="cls-4" d="M909.39,861.66H915v2.24a11.86,11.86,0,0,1,2.77-2.29,6.75,6.75,0,0,1,3.06-.62,7.44,7.44,0,0,1,6.5,3.59,8.42,8.42,0,0,1,7.15-3.59q8.19,0,8.19,9.94v15H937V872.45a10.29,10.29,0,0,0-.85-4.93,3.06,3.06,0,0,0-2.86-1.47,3.65,3.65,0,0,0-3.37,1.74q-1.07,1.74-1.06,5.6v12.53h-5.63v-13.4c0-4.32-1.24-6.47-3.73-6.47a3.73,3.73,0,0,0-3.45,1.76,10.94,10.94,0,0,0-1.09,5.58v12.53h-5.6Z"/><path class="cls-4" d="M971.82,875.11H954.44a7.36,7.36,0,0,0,1.94,4.76,5.94,5.94,0,0,0,4.41,1.74,5.69,5.69,0,0,0,3.46-1,13.94,13.94,0,0,0,3.06-3.68l4.73,2.64a19.26,19.26,0,0,1-2.31,3.2,12.35,12.35,0,0,1-2.62,2.19,10.67,10.67,0,0,1-3,1.26,15,15,0,0,1-3.51.4,11.44,11.44,0,0,1-8.72-3.49,13.08,13.08,0,0,1-3.28-9.31,13.48,13.48,0,0,1,3.18-9.32,12.16,12.16,0,0,1,17-.1q3.09,3.39,3.08,9.39Zm-5.75-4.58q-1.17-4.49-5.66-4.48a5.67,5.67,0,0,0-1.91.31,5.28,5.28,0,0,0-1.63.89,5.69,5.69,0,0,0-1.26,1.41,6.44,6.44,0,0,0-.8,1.87Z"/><path class="cls-4" d="M995.83,843.86h5.62v42.06h-5.62v-2.54a10.46,10.46,0,0,1-7.5,3.24,10.69,10.69,0,0,1-8.27-3.64,13.53,13.53,0,0,1-3.26-9.26,13.11,13.11,0,0,1,3.26-9.07,10.48,10.48,0,0,1,15.77-.17Zm-13.3,29.86a8.41,8.41,0,0,0,1.87,5.67,6.1,6.1,0,0,0,4.83,2.22,6.43,6.43,0,0,0,5-2.14,9.25,9.25,0,0,0,0-11.26,6.35,6.35,0,0,0-5-2.16,6.18,6.18,0,0,0-4.83,2.19A8.05,8.05,0,0,0,982.53,873.72Z"/><path class="cls-4" d="M1029.87,843.86v20.62a10.32,10.32,0,0,1,7.62-3.49,10.5,10.5,0,0,1,8.17,3.66,13.11,13.11,0,0,1,3.26,9.07,13.35,13.35,0,0,1-3.29,9.26,10.6,10.6,0,0,1-8.24,3.64,10.47,10.47,0,0,1-7.52-3.24v2.54h-5.61V843.86Zm13.32,30.1a8.37,8.37,0,0,0-1.89-5.67,6,6,0,0,0-4.81-2.24,6.46,6.46,0,0,0-5,2.16,9.21,9.21,0,0,0,0,11.23,6.27,6.27,0,0,0,5,2.17,6.17,6.17,0,0,0,4.83-2.17A8,8,0,0,0,1043.19,874Z"/><path class="cls-4" d="M1074.24,863.36l3.84-3.79,2.54,2.69-3.74,3.66a13,13,0,0,1,2.72,8,12.23,12.23,0,0,1-3.76,9.06,12.39,12.39,0,0,1-9.12,3.69,13.13,13.13,0,0,1-8-2.54l-3.69,3.56-2.57-2.59,3.67-3.64a13.26,13.26,0,0,1-2.42-7.67,12.16,12.16,0,0,1,3.76-9,12.65,12.65,0,0,1,9.19-3.71A13.44,13.44,0,0,1,1074.24,863.36Zm-4.06,3.83a7.69,7.69,0,0,0-3.51-.77,7,7,0,0,0-5.28,2,7.49,7.49,0,0,0-2,5.43,8.2,8.2,0,0,0,.77,3.61Zm2.69,2.54-10.16,10.54a8.14,8.14,0,0,0,3.94,1,7,7,0,0,0,5.23-2,7.42,7.42,0,0,0,2-5.37A9.11,9.11,0,0,0,1072.87,869.73Z"/><path class="cls-4" d="M1103.38,843.86H1109v42.06h-5.63v-2.54a10.46,10.46,0,0,1-7.5,3.24,10.67,10.67,0,0,1-8.26-3.64,13.49,13.49,0,0,1-3.27-9.26,13.07,13.07,0,0,1,3.27-9.07,10.47,10.47,0,0,1,15.76-.17Zm-13.3,29.86a8.41,8.41,0,0,0,1.87,5.67,6.12,6.12,0,0,0,4.83,2.22,6.43,6.43,0,0,0,5-2.14,9.21,9.21,0,0,0,0-11.26,6.35,6.35,0,0,0-5-2.16,6.18,6.18,0,0,0-4.83,2.19A8.05,8.05,0,0,0,1090.08,873.72Z"/><path class="cls-4" d="M1138.17,875.11h-17.38a7.36,7.36,0,0,0,1.94,4.76,5.91,5.91,0,0,0,4.41,1.74,5.71,5.71,0,0,0,3.46-1,14.33,14.33,0,0,0,3.06-3.68l4.73,2.64a19.26,19.26,0,0,1-2.31,3.2,12.35,12.35,0,0,1-2.62,2.19,10.67,10.67,0,0,1-3,1.26,15,15,0,0,1-3.51.4,11.44,11.44,0,0,1-8.72-3.49,13.09,13.09,0,0,1-3.29-9.31,13.48,13.48,0,0,1,3.19-9.32,12.15,12.15,0,0,1,17-.1q3.09,3.39,3.09,9.39Zm-5.75-4.58c-.79-3-2.67-4.48-5.66-4.48a5.77,5.77,0,0,0-1.92.31,5.4,5.4,0,0,0-1.63.89,5.46,5.46,0,0,0-1.25,1.41,6.44,6.44,0,0,0-.8,1.87Z"/><path class="cls-4" d="M1158.89,873.62a12,12,0,0,1,3.76-8.94,12.58,12.58,0,0,1,9.16-3.69,12.71,12.71,0,0,1,9.22,3.71,13,13,0,0,1,0,18.26,12.89,12.89,0,0,1-9.29,3.66,12.35,12.35,0,0,1-9.14-3.74A12.58,12.58,0,0,1,1158.89,873.62Zm5.72.1a8.16,8.16,0,0,0,2,5.75,7.55,7.55,0,0,0,10.51,0,9.12,9.12,0,0,0,0-11.3,6.84,6.84,0,0,0-5.26-2.14,6.75,6.75,0,0,0-5.2,2.14A7.79,7.79,0,0,0,1164.61,873.72Z"/><path class="cls-4" d="M1214.14,885.35c0,1.14,0,2.15-.11,3a20.45,20.45,0,0,1-.31,2.3,10.28,10.28,0,0,1-2.34,4.71,11.35,11.35,0,0,1-9,3.79,12.07,12.07,0,0,1-8-2.62,10.66,10.66,0,0,1-3.74-7.44h5.63a6.42,6.42,0,0,0,1.07,2.76,6,6,0,0,0,5.08,2.27q6.15,0,6.15-7.55V883.2a10.44,10.44,0,0,1-7.69,3.42,10.34,10.34,0,0,1-8.12-3.59,13.25,13.25,0,0,1-3.19-9.09,14,14,0,0,1,3-9,10.3,10.3,0,0,1,8.42-3.94,9.77,9.77,0,0,1,7.62,3.41v-2.74h5.6Zm-5.37-11.51a8.16,8.16,0,0,0-1.9-5.65A6.24,6.24,0,0,0,1202,866a6,6,0,0,0-5,2.37,9.73,9.73,0,0,0,0,10.9,6,6,0,0,0,5,2.32,6.16,6.16,0,0,0,5.08-2.34A8.37,8.37,0,0,0,1208.77,873.84Z"/><path class="cls-4" d="M1242.76,866.89v19h-5.63v-19h-2v-5.23h2V852.3q0-4.57,1.59-6.47a7.82,7.82,0,0,1,6.38-2.64,11,11,0,0,1,3.76.87v5.73l-.57-.3a7,7,0,0,0-3-.93,2,2,0,0,0-2,1.07,10.35,10.35,0,0,0-.52,4v8h6.1v5.23Z"/><path class="cls-4" d="M1289.67,875h-17.48a7.7,7.7,0,0,0,2,4.78,5.89,5.89,0,0,0,4.39,1.79q3.83,0,6.35-4.86l4.83,2.69a16.61,16.61,0,0,1-1.72,2.67,10.87,10.87,0,0,1-2,1.92,12.86,12.86,0,0,1-7.75,2.61,12.19,12.19,0,0,1-8.79-3.88q-3,3.88-8.94,3.88a11.12,11.12,0,0,1-7.2-2.24,7.19,7.19,0,0,1-2.76-5.85,7.49,7.49,0,0,1,2.64-6,10.27,10.27,0,0,1,7-2.29,14.06,14.06,0,0,1,6.32,1.64c0-2.19-.45-3.72-1.37-4.58s-2.49-1.32-4.68-1.32a24.23,24.23,0,0,0-6.47.92v-5.2a43.11,43.11,0,0,1,7-.75q5.93,0,8.52,3.41a12.25,12.25,0,0,1,17,0,12.74,12.74,0,0,1,3.18,9Zm-33.59,3.41a2.78,2.78,0,0,0,1.39,2.36,6.41,6.41,0,0,0,3.54,1,6.65,6.65,0,0,0,3.71-1,2.91,2.91,0,0,0,1.49-2.47,2.67,2.67,0,0,0-1.54-2.24,7,7,0,0,0-3.71-1,6,6,0,0,0-3.46,1A2.79,2.79,0,0,0,1256.08,878.45Zm27.71-8c-.68-3-2.49-4.45-5.45-4.45a5.53,5.53,0,0,0-5.78,4.45Z"/><path class="cls-4" d="M1295.7,861.66h5.63v2.24A9.19,9.19,0,0,1,1308,861a8.37,8.37,0,0,1,6.6,2.67q2,2.26,2,7.39v14.87H1311V872.37q0-3.58-1-5c-.65-.93-1.83-1.4-3.54-1.4a4.32,4.32,0,0,0-4,1.84c-.76,1.22-1.14,3.33-1.14,6.35v11.71h-5.63Z"/><path class="cls-4" d="M1347.12,885.35c0,1.14,0,2.15-.11,3a20.45,20.45,0,0,1-.31,2.3,10.28,10.28,0,0,1-2.34,4.71,11.37,11.37,0,0,1-9,3.79,12.07,12.07,0,0,1-8-2.62,10.66,10.66,0,0,1-3.74-7.44h5.63a6.3,6.3,0,0,0,1.07,2.76,6,6,0,0,0,5.08,2.27q6.15,0,6.15-7.55V883.2a10.46,10.46,0,0,1-7.69,3.42,10.34,10.34,0,0,1-8.12-3.59,13.25,13.25,0,0,1-3.19-9.09,14,14,0,0,1,3-9,10.29,10.29,0,0,1,8.42-3.94,9.8,9.8,0,0,1,7.62,3.41v-2.74h5.6Zm-5.38-11.51a8.16,8.16,0,0,0-1.89-5.65A6.24,6.24,0,0,0,1335,866a6,6,0,0,0-5,2.37,9.73,9.73,0,0,0,0,10.9,6,6,0,0,0,5,2.32,6.16,6.16,0,0,0,5.08-2.34A8.36,8.36,0,0,0,1341.74,873.84Z"/><path class="cls-4" d="M1368.29,865.8l-4.63,2.46c-.73-1.49-1.64-2.24-2.72-2.24a1.88,1.88,0,0,0-1.32.51,1.73,1.73,0,0,0-.54,1.31c0,.93,1.07,1.85,3.23,2.76a19.32,19.32,0,0,1,6,3.54,6.05,6.05,0,0,1,1.55,4.36,7.63,7.63,0,0,1-2.59,5.87,8.8,8.8,0,0,1-6.08,2.25q-6.11,0-8.64-6l4.78-2.21a10.38,10.38,0,0,0,1.52,2.21,3.48,3.48,0,0,0,2.44,1c1.89,0,2.84-.86,2.84-2.59q0-1.5-2.19-2.79c-.57-.28-1.13-.56-1.69-.82l-1.72-.82a10.61,10.61,0,0,1-3.44-2.39,5.89,5.89,0,0,1-1.27-3.91,6.9,6.9,0,0,1,2.17-5.23,7.58,7.58,0,0,1,5.38-2.07Q1366,861,1368.29,865.8Z"/><path class="cls-4" d="M1397,875.11H1379.6a7.36,7.36,0,0,0,1.94,4.76,5.91,5.91,0,0,0,4.41,1.74,5.71,5.71,0,0,0,3.46-1,14.13,14.13,0,0,0,3.06-3.68l4.73,2.64a19.26,19.26,0,0,1-2.31,3.2,12.35,12.35,0,0,1-2.62,2.19,10.67,10.67,0,0,1-3,1.26,15,15,0,0,1-3.51.4,11.44,11.44,0,0,1-8.72-3.49,13.09,13.09,0,0,1-3.29-9.31,13.48,13.48,0,0,1,3.19-9.32,12.16,12.16,0,0,1,17-.1q3.07,3.39,3.08,9.39Zm-5.75-4.58q-1.17-4.49-5.66-4.48a5.67,5.67,0,0,0-1.91.31,5.33,5.33,0,0,0-1.64.89,5.65,5.65,0,0,0-1.25,1.41,6.44,6.44,0,0,0-.8,1.87Z"/><path class="cls-4" d="M1408.71,843.86v42.06h-5.61V843.86Z"/><path class="cls-4" d="M1416.68,883.13a3.46,3.46,0,0,1,6.92,0,3.46,3.46,0,1,1-6.92,0Z"/></g></svg>
