<?xml version="1.0" encoding="utf-8"?>
<!-- Generator: Adobe Illustrator 23.0.1, SVG Export Plug-In . SVG Version: 6.00 Build 0)  -->
<svg version="1.1" id="Layer_1" xmlns="http://www.w3.org/2000/svg" xmlns:xlink="http://www.w3.org/1999/xlink" x="0px" y="0px"
	 viewBox="0 0 538 807" style="enable-background:new 0 0 538 807;" xml:space="preserve">
<style type="text/css">
	.st0{fill:#FFFFFF;}
	.st1{fill:#4C4F51;}
	.st2{fill:#F9F2ED;}
	.st3{font-family:'ArialMT';}
	.st4{font-size:12px;}
	.st5{font-size:60px;}
	.st6{letter-spacing:-1;}
	.st7{fill:#E9B58A;}
	.st8{fill:#E4A06E;}
	.st9{fill:#DD8C54;}
	.st10{fill:url(#SVGID_1_);}
	.st11{fill:#152230;}
	.st12{fill:#E8EBEC;}
	.st13{fill:#0E3151;}
	.st14{fill:#EE740F;}
</style>
<title>pige_krop</title>
<g id="Layer_6">
	<path class="st0" d="M356.7,77.8l0.4,0.1c0.5,0.1,0.9,0.6,0.8,1.1l-1.2,6.5c-0.1,0.5-0.6,0.9-1.1,0.8l-0.4-0.1
		c-0.5-0.1-0.9-0.6-0.8-1.1l1.2-6.5C355.6,78,356.1,77.7,356.7,77.8z"/>
	<path class="st0" d="M353,78.3l0.4,0.1c0.5,0.1,0.9,0.6,0.8,1.1l-1,5.4c-0.1,0.5-0.6,0.9-1.1,0.8l-0.4-0.1
		c-0.5-0.1-0.9-0.6-0.8-1.1l1-5.4C352,78.5,352.5,78.2,353,78.3z"/>
	<path class="st0" d="M349.3,78.9l0.4,0.1c0.5,0.1,0.9,0.6,0.8,1.1l-0.8,4.3c-0.1,0.5-0.6,0.9-1.1,0.8l-0.4-0.1
		c-0.5-0.1-0.9-0.6-0.8-1.1l0.8-4.3C348.3,79.2,348.8,78.8,349.3,78.9z"/>
	<path class="st0" d="M345.4,80.6l0.4,0.1c0.5,0.1,0.9,0.6,0.8,1.1l-0.3,1.8c-0.1,0.5-0.6,0.9-1.1,0.8l-0.4-0.1
		c-0.5-0.1-0.9-0.6-0.8-1.1l0.3-1.8C344.4,80.9,344.9,80.5,345.4,80.6z"/>
	<path class="st1" d="M138,23.8l235.2,41.5c8.7,1.5,14.5,9.8,13,18.5l-97.4,552.4c-1.5,8.7-9.8,14.5-18.5,13L35,607.7
		c-8.7-1.5-14.5-9.8-13-18.5l97.4-552.4C121,28.1,129.3,22.3,138,23.8z"/>
	<path class="st1" d="M167,28.8l235.2,41.5c8.7,1.5,14.5,9.8,13,18.5l-97.4,552.4c-1.5,8.7-9.8,14.5-18.5,13L64,612.7
		c-8.7-1.5-14.5-9.8-13-18.5l97.4-552.4C150,33.1,158.3,27.3,167,28.8z"/>
</g>
<g id="Layer_8">
	<text transform="matrix(0.9848 0.1736 -0.1736 0.9848 146.486 48.9151)" class="st2 st3 st4">3 DK</text>
	<text transform="matrix(0.9848 0.1736 -0.1736 0.9848 179.614 184.0451)" class="st0 st3 st5">1</text>
	<text transform="matrix(0.9848 0.1736 -0.1736 0.9848 201.6566 187.9308)" class="st0 st3 st5">2</text>
	<text transform="matrix(0.9848 0.1736 -0.1736 0.9848 233.6529 193.571)" class="st0 st3 st5 st6">.</text>
	<text transform="matrix(0.9848 0.1736 -0.1736 0.9848 245.2226 195.6106)" class="st0 st3 st5">05</text>
</g>
<g id="Layer_7">
	<path class="st7" d="M86.4,210.6l60.6-83.1c3.6-5,8.7-8.1,14-8.8l35.3-4.2c8.7-1,16.3-8.8,18.5-19l0,0c2.6-11.7,12-19.9,21.9-19.1
		l27,2.3c10.2,0.9,17.4,11.1,16.5,23.4l-0.1,1.3c-0.8,11,5,20.6,13.8,22.9l59.6,15.6c0,0,20,4.4,17,57.1
		c-2.3,41.4-29.7,206.2-41.3,275c-2.6,15.3-16.5,24.6-28.1,18.7l-188.9-95.9c-5.6-2.8-9.5-8.8-10.4-16L81.4,230.5"/>
	<path class="st7" d="M31,597c0,0-7.4-125.3,73.4-212.1L291,411.2c0,0,62.6,40.7,19,249.3l-143-22.6c0,0,41.6-316.6-18.5-5.6L31,597
		z"/>
	<path class="st8" d="M221.5,444.2l-41,52.1l-21-62.7c-1.7-5.2,2.2-11.1,7-10.4l51.4,7.3C223.4,431.2,225.5,439.1,221.5,444.2z"/>
	<path class="st9" d="M186.9,464.4c-0.3,2.5-0.7,5.1-1.1,7.6c-0.4,2.5-0.8,5.1-1.2,7.6c-0.3,2.5-0.7,5.1-1.4,7.5
		c-0.7,2.5-1.7,4.9-3,7.2l-0.3-0.1c-0.2-2.6-0.1-5.2,0.3-7.8c0.5-2.5,1.1-5,1.9-7.4c0.7-2.5,1.4-4.9,2.1-7.4
		c0.7-2.5,1.5-4.9,2.2-7.4L186.9,464.4z"/>
	<path class="st8" d="M127.5,280.9c-0.8,8.9-1.7,17.8-2.8,26.7c-1.1,8.9-2.4,17.7-3.8,26.6c-1.5,8.8-2.9,17.7-5.3,26.4
		c-1.2,4.3-2.6,8.6-4.3,12.8c-1.7,4.2-3.7,8.4-6.8,11.7l-0.2-0.2c1.2-1.9,2.1-3.9,2.9-6c0.8-2.1,1.5-4.2,2.1-6.3
		c1.3-4.2,2.3-8.5,3.4-12.9l3-13c1-4.3,2-8.7,2.8-13.1c1.7-8.7,3.3-17.5,4.7-26.3c1.5-8.8,2.8-17.6,4-26.5L127.5,280.9z"/>
	<path class="st8" d="M309.1,318.8c-3.1,15.9-6,31.8-8.5,47.8c-1.3,8-2.4,16-3.4,24c-0.5,4-0.9,8-1.1,12c-0.3,4-0.3,7.9,0,11.9
		l-0.3-0.6c2.5,3.2,4.8,6.5,7,10c2.2,3.4,4.2,6.9,6.1,10.5c1.9,3.6,3.6,7.2,5.2,11c1.6,3.7,3,7.5,4.3,11.4c1.2,3.9,2.3,7.8,3.2,11.7
		c0.4,2,0.9,4,1.2,6c0.2,1,0.4,2,0.5,3l0.4,3c0.5,4,0.8,8,0.9,12.1c0.1,4-0.1,8.1-0.4,12.1l-0.3,0c-0.1-4-0.2-8-0.7-12
		c-0.3-4-0.9-7.9-1.6-11.8c-1.4-7.8-3.5-15.5-6.1-23c-1.3-3.8-2.7-7.5-4.3-11.1c-1.5-3.7-3.2-7.3-5-10.8c-1.8-3.6-3.7-7-5.7-10.4
		c-2-3.4-4.2-6.7-6.6-9.9l-0.2-0.3l0-0.3c-0.3-4.1-0.2-8.2,0.2-12.3c0.4-4.1,0.8-8.1,1.4-12.1c1.1-8,2.4-16,3.8-24
		c2.9-15.9,6.2-31.8,9.7-47.6L309.1,318.8z"/>
	<path class="st8" d="M207.7,381.6c-0.2,1-0.5,1.9-0.8,2.9c-0.3,1-0.8,2-1.4,2.9c-0.7,1-1.7,1.7-2.8,2.1c-1.2,0.4-2.5,0.4-3.7,0.1
		c-1.2-0.4-2.2-1.1-2.9-2.1c-0.7-0.9-1.2-1.8-1.5-2.9c-0.7-2-1.1-4.1-1-6.1c0-1.1,0.3-2.2,0.7-3.2c0.5-1.1,1.1-2,2-2.9
		c0.9-0.9,2-1.5,3.1-2c2.6-0.9,5.4-0.2,7.3,1.7c0.8,0.9,1.4,2,1.6,3.2c0.2,1.1,0.2,2.2,0,3.3C208.1,379.6,208,380.6,207.7,381.6z
		 M207.3,381.5c0.2-0.9,0.1-1.9-0.2-2.8c-0.3-0.8-0.8-1.6-1.4-2.3c-0.5-0.5-1.1-1-1.8-1.4c-0.5-0.3-1.1-0.6-1.7-0.7
		c-1.3-0.2-2.6,0.1-3.7,0.9c-0.6,0.5-1.2,1-1.7,1.6c-0.5,0.6-1,1.4-1.4,2.1c-0.8,1.6-0.8,3.5,0,5.1c0.4,0.8,1.1,1.4,1.8,1.8
		c0.7,0.3,1.4,0.5,2.2,0.5c0.7,0,1.3-0.1,2-0.2c0.7-0.1,1.5-0.4,2.2-0.7c0.8-0.3,1.6-0.9,2.2-1.5
		C206.7,383.3,207.1,382.4,207.3,381.5L207.3,381.5z"/>
	<path class="st8" d="M227.4,264.1c-1.5,7.4-4.2,14.5-7.8,21.2c-3.7,6.7-8.4,12.7-14.1,17.7c-5.7,5.1-12.5,8.9-19.8,11.2
		c-15.1,4.8-31.5,1.3-43.4-9.1c-2.9-2.5-5.5-5.4-7.8-8.6c-2.2-3.1-4.2-6.5-5.7-10c-3.1-7-4.9-14.6-5.3-22.3
		c-0.2-3.8-0.1-7.6,0.3-11.4c0.4-3.8,1.1-7.5,2.1-11.1l0.3,0.1c-0.6,3.7-1,7.4-1.1,11.2c-0.1,3.7,0,7.4,0.4,11.1
		c0.8,7.3,2.8,14.5,5.9,21.2c1.5,3.3,3.4,6.5,5.5,9.5c2.1,3,4.5,5.7,7.3,8.2c11,10.2,26.5,13.8,40.8,9.5c7.1-2.1,13.7-5.7,19.4-10.5
		c5.7-4.8,10.5-10.6,14.3-17c3.8-6.5,6.6-13.5,8.3-20.8L227.4,264.1z"/>
	<path class="st8" d="M331,281c-1.5,7.4-4.2,14.5-7.8,21.2c-3.7,6.7-8.4,12.7-14.1,17.7c-5.7,5.1-12.5,8.9-19.8,11.2
		c-15.1,4.8-31.5,1.3-43.4-9.1c-2.9-2.5-5.5-5.4-7.8-8.6c-2.2-3.1-4.2-6.5-5.7-10c-3.1-7-4.9-14.6-5.3-22.3
		c-0.2-3.8-0.1-7.6,0.3-11.4c0.4-3.8,1.1-7.5,2.1-11.1l0.3,0.1c-0.6,3.7-1,7.4-1.1,11.2c-0.1,3.7,0,7.4,0.4,11.1
		c0.8,7.3,2.8,14.5,5.9,21.2c1.5,3.3,3.4,6.5,5.5,9.5c2.1,3,4.5,5.7,7.3,8.2c11,10.2,26.5,13.8,40.8,9.5c7.1-2.1,13.7-5.7,19.4-10.5
		c5.7-4.8,10.5-10.6,14.3-17c3.8-6.5,6.6-13.5,8.3-20.8L331,281z"/>

		<ellipse transform="matrix(0.2157 -0.9765 0.9765 0.2157 -113.6321 368.4976)" class="st8" cx="172.6" cy="255" rx="11.7" ry="9.6"/>

		<ellipse transform="matrix(0.2157 -0.9765 0.9765 0.2157 -48.0767 501.0268)" class="st8" cx="287.8" cy="280.4" rx="11.7" ry="9.6"/>
	<path class="st7" d="M304.6,70.4l-32.5,39.9c-5,6.2-11.3,10.9-18.1,13.3c-7.9,2.7-17.4,2.6-22.3-9.7c-0.5-1.3-1.2-2.6-1.8-3.8
		l-30.3-55.4"/>
	<path class="st8" d="M304.7,70.5l-26.6,32.9c-2.2,2.7-4.4,5.5-6.7,8.2c-2.3,2.7-4.9,5.1-7.7,7.3c-2.9,2.1-6,3.8-9.4,5
		c-3.4,1.3-7,1.8-10.6,1.4c-1.8-0.3-3.5-0.9-5.1-1.8c-1.5-1-2.9-2.2-4.1-3.6c-1.1-1.4-2-3-2.8-4.6l-0.6-1.2
		c-0.2-0.4-0.3-0.8-0.5-1.2c-0.4-0.8-0.8-1.6-1.2-2.3L219.4,92l-10-18.6l-5-9.3l-4.9-9.4l0.1,0l5.2,9.2l5.2,9.2l10.3,18.4l10.1,18.5
		c0.4,0.8,0.8,1.6,1.2,2.4c0.2,0.4,0.4,0.8,0.5,1.2l0.5,1.2c0.7,1.6,1.6,3.1,2.6,4.4c1.1,1.3,2.4,2.5,3.8,3.4
		c1.5,0.9,3.1,1.4,4.8,1.7c3.5,0.4,6.9,0,10.2-1.3c3.3-1.2,6.4-2.8,9.2-4.9c2.8-2.1,5.4-4.5,7.7-7.1c2.3-2.7,4.5-5.4,6.7-8.1
		L304.7,70.5L304.7,70.5z"/>
</g>
<radialGradient id="SVGID_1_" cx="215.1655" cy="483.3839" r="265.3618" gradientTransform="matrix(1.0072 0 0 -1.0283 1.8873 835.0358)" gradientUnits="userSpaceOnUse">
	<stop  offset="0.435" style="stop-color:#FFFFFF"/>
	<stop  offset="0.5013" style="stop-color:#F5F5F5"/>
	<stop  offset="0.6157" style="stop-color:#D9D9D9"/>
	<stop  offset="0.7645" style="stop-color:#ABABAB"/>
	<stop  offset="0.9401" style="stop-color:#6D6D6D"/>
	<stop  offset="1" style="stop-color:#565656"/>
</radialGradient>
<path class="st10" d="M278.9,662.3c-3.6,0-7.1-0.3-10.6-0.9L65,625.4c-16.2-2.9-30.6-12.2-39.8-25.8c-9.5-13.7-13.2-30.6-10.4-47
	L97.6,65.8c5.8-34.2,37.8-57.2,71.4-51.3l203.3,36c33.5,5.9,56.1,38.6,50.2,72.8l-82.8,486.7c-2.7,16.4-11.8,31-25.3,40.7
	C304,658.3,291.6,662.3,278.9,662.3z M158.3,23.9c-24.6,0-46.5,18.1-50.8,43.7L24.7,554.3c-2.4,13.7,0.8,27.9,8.7,39.3
	c7.7,11.4,19.8,19.2,33.3,21.6l203.3,36c13.5,2.4,27.4-0.8,38.5-8.9c11.3-8.1,18.9-20.3,21.2-34l82.8-486.7c4.9-28.6-14-56-42-61
	L167.2,24.7C164.3,24.2,161.3,23.9,158.3,23.9z"/>
<path class="st11" d="M278.1,656.6c-3.1,0-6.3-0.3-9.3-0.8v0L66.8,620C52,617.3,39,608.8,30.5,596.4c-8.6-12.5-12-27.9-9.5-42.8
	l83.1-488.1c5.3-31.2,34.5-52.1,65-46.7l200.2,35.5c30.5,5.4,51.1,35.2,45.8,66.3l-83.4,489.9C327.1,637.5,304.1,656.6,278.1,656.6z
	 M270.5,645.6c24.1,4.3,47.1-12.3,51.3-36.9l83.4-489.9c4.4-25.6-12.5-50-37.6-54.5L167.4,28.9c-25.1-4.4-49,12.8-53.3,38.3
	L31,555.4c-2.1,12.3,0.7,24.9,7.8,35.1c6.9,10.2,17.6,17.2,29.8,19.3L270.5,645.6z"/>
<path class="st11" d="M339.6,54.2L336.8,71c-1,6.1-6.7,10.2-12.8,9.2c0,0,0,0,0,0L202.9,58.7c-6.1-1.2-10.1-7-9-13.1l3.4-19.8"/>
<path class="st11" d="M325.9,85.5c-0.9,0-1.9-0.1-2.8-0.2L202.1,63.8c-4.2-0.8-8-3.2-10.4-6.7c-2.5-3.6-3.5-8-2.7-12.3l3.4-19.8
	l9.9,1.8l-3.4,19.8c-0.3,1.6,0.1,3.3,1,4.6c0.9,1.3,2.3,2.2,3.9,2.5l121.1,21.5c1.6,0.3,3.2-0.1,4.5-1c1.3-0.9,2.2-2.4,2.5-4
	l2.8-16.7l9.9,1.8l-2.8,16.7C340.5,79.6,333.8,85.4,325.9,85.5z"/>
<path class="st12" d="M280.8,62.2l-33.3-5.9c-1.1-0.2-1.8-1.3-1.6-2.4l0,0c0.2-1.1,1.2-1.9,2.3-1.7c0,0,0,0,0,0l33.3,5.9
	c1.1,0.2,1.8,1.3,1.6,2.4l0,0C282.9,61.7,281.9,62.4,280.8,62.2C280.8,62.2,280.8,62.2,280.8,62.2z"/>
<ellipse class="st13" cx="298" cy="63.5" rx="4" ry="4.1"/>
<path class="st12" d="M298,68.7c-1.3,0-2.6-0.5-3.5-1.5c-1-1-1.5-2.3-1.5-3.6c-0.1-2.8,2.1-5.1,4.8-5.2c1.4,0,2.7,0.5,3.7,1.5
	c1,1,1.5,2.3,1.5,3.6C303.1,66.3,300.9,68.6,298,68.7L298,68.7z M298,60.5L298,60.5c-1.7,0-3.1,1.4-3,3.1c0,0.8,0.3,1.6,0.9,2.2
	c1.2,1.2,3.1,1.2,4.3,0c0.6-0.6,0.9-1.4,0.9-2.2c0-0.8-0.3-1.6-0.9-2.2C299.6,60.8,298.8,60.5,298,60.5z"/>
<polygon class="st11" points="17.3,555.3 14.3,554.8 97.6,65.8 100.6,66.4 "/>
<path class="st11" d="M279.4,663.5c-3.5,0-7-0.3-10.4-0.9L63.7,627c-30-5.2-50.6-33-47.7-63c0.2-1.7-1.6-3.2,0-3l2.9,0.2
	C14.6,591,34.7,618.7,64.2,624l205.2,35.6c30.5,5.3,60.3-15,66.6-45.3l2.9,0.6C333.1,643.2,308.2,663.4,279.4,663.5L279.4,663.5z"/>
<polygon class="st11" points="340,609.7 337,609.1 419.8,122.6 422.8,123.1 "/>
<path class="st11" d="M423.5,118.5l-3-0.4c1.9-15-1.9-30.2-10.8-42.5C401,63.3,387.8,55,373,52.3L167.9,16
	c-14.8-2.6-30,0.7-42.3,9.3c-12.4,8.6-21.1,21.6-24.2,36.4l-3-0.6c3.2-15.6,12.3-29.3,25.4-38.3c12.9-9,28.9-12.6,44.5-9.8
	l205.2,36.4c15.6,2.8,29.4,11.6,38.6,24.5C421.5,86.7,425.5,102.7,423.5,118.5z"/>
<path class="st11" d="M87.5,115.7L87.5,115.7c-1.4-0.3-2.3-1.6-2.1-3l2.9-17.2c0.2-1.4,1.5-2.3,2.9-2.1c0,0,0,0,0,0l0,0
	c1.4,0.3,2.3,1.6,2.1,3l-2.9,17.2C90.2,114.9,88.9,115.9,87.5,115.7C87.5,115.7,87.5,115.7,87.5,115.7z"/>
<path class="st11" d="M87.9,116.2c-0.2,0-0.3,0-0.5,0l0,0c-1.7-0.3-2.8-1.9-2.5-3.6l2.9-17.2c0.3-1.7,1.8-2.8,3.5-2.5c0,0,0,0,0,0
	c1.7,0.3,2.8,1.9,2.5,3.6l-2.9,17.2C90.7,115.1,89.4,116.2,87.9,116.2z M87.6,115.2c1.1,0.2,2.1-0.6,2.3-1.7c0,0,0,0,0,0l2.9-17.2
	c0.2-1.1-0.5-2.2-1.6-2.4c-1.1-0.2-2.1,0.6-2.3,1.7c0,0,0,0,0,0l-2.9,17.2C85.7,113.9,86.5,114.9,87.6,115.2z"/>
<path class="st11" d="M77.5,179.7l-1.2-0.2c-1.4-0.3-2.3-1.6-2.1-3l6.4-37.8c0.2-1.4,1.5-2.3,2.9-2.1c0,0,0,0,0,0l1.2,0.2
	c1.4,0.3,2.3,1.6,2.1,3l-6.4,37.8C80.2,179,78.9,180,77.5,179.7C77.5,179.7,77.5,179.7,77.5,179.7z"/>
<path class="st11" d="M77.9,180.3c-0.2,0-0.3,0-0.5,0h0l-1.2-0.2c-1.7-0.3-2.8-1.9-2.5-3.6l6.4-37.8c0.3-1.7,1.8-2.8,3.5-2.5
	c0,0,0,0,0,0l1.2,0.2c0.8,0.1,1.5,0.6,2,1.3c0.5,0.7,0.6,1.5,0.5,2.3l-6.4,37.8C80.7,179.2,79.4,180.3,77.9,180.3z M83.2,137.1
	c-0.4,0-0.8,0.1-1.2,0.4c-0.4,0.3-0.7,0.8-0.8,1.3l-6.4,37.8c-0.2,1.1,0.5,2.2,1.6,2.4l1.2,0.2c1.1,0.2,2.1-0.6,2.3-1.7c0,0,0,0,0,0
	l6.4-37.8c0.1-0.5,0-1.1-0.3-1.5c-0.3-0.4-0.8-0.7-1.3-0.8l-1.2-0.2C83.4,137.1,83.3,137.1,83.2,137.1z"/>
<path class="st11" d="M67.9,234.3l-1.2-0.2c-1.4-0.3-2.3-1.6-2.1-3l6.4-37.8c0.2-1.4,1.5-2.3,2.9-2.1c0,0,0,0,0,0l1.2,0.2
	c1.4,0.3,2.3,1.6,2.1,3l-6.4,37.8C70.6,233.6,69.3,234.6,67.9,234.3C67.9,234.3,67.9,234.3,67.9,234.3z"/>
<path class="st11" d="M68.3,234.9c-0.2,0-0.3,0-0.5,0l-1.2-0.2c-0.8-0.1-1.5-0.6-2-1.3c-0.5-0.7-0.6-1.5-0.5-2.3l6.4-37.8
	c0.1-0.8,0.6-1.5,1.2-2c0.6-0.5,1.5-0.7,2.3-0.5l1.2,0.2c0.8,0.1,1.5,0.6,2,1.3c0.5,0.7,0.6,1.5,0.5,2.3l-6.4,37.8
	C71.1,233.8,69.8,234.9,68.3,234.9z M68,233.8c1.1,0.2,2.1-0.6,2.3-1.7c0,0,0,0,0,0l6.4-37.8c0.1-0.5,0-1.1-0.3-1.5
	c-0.3-0.4-0.8-0.7-1.3-0.8l-1.2-0.2c-0.5-0.1-1.1,0-1.5,0.3c-0.4,0.3-0.7,0.8-0.8,1.3l-6.4,37.8c-0.1,0.5,0,1.1,0.3,1.5
	c0.3,0.4,0.8,0.7,1.3,0.8L68,233.8z"/>
<path class="st11" d="M398.7,275.6l-1.3-0.2c-1.4-0.3-2.3-1.6-2-3l10.5-61.9c0.2-1.4,1.5-2.3,2.9-2.1c0,0,0,0,0,0l1.3,0.2
	c1.4,0.3,2.3,1.6,2,3l-10.5,61.9C401.4,274.8,400.1,275.8,398.7,275.6C398.7,275.6,398.7,275.6,398.7,275.6z"/>
<path class="st11" d="M399.2,276.1c-0.2,0-0.3,0-0.5,0h0l-1.3-0.2c-1.7-0.3-2.8-1.9-2.5-3.6l10.5-61.9c0.3-1.7,1.8-2.8,3.5-2.5
	c0,0,0,0,0,0l1.3,0.2c1.7,0.3,2.8,1.9,2.5,3.6l-10.5,61.9C401.9,275,400.7,276.1,399.2,276.1z M398.8,275c1.1,0.2,2.1-0.6,2.3-1.7
	c0,0,0,0,0,0l10.5-61.9c0.2-1.1-0.5-2.2-1.6-2.4l-1.3-0.2c-1.1-0.2-2.1,0.6-2.3,1.7c0,0,0,0,0,0l-10.5,61.9
	c-0.2,1.1,0.5,2.2,1.6,2.4L398.8,275z"/>
<path class="st14" d="M342.5,580.5c-0.6,1.2-1.2,2.5-1.7,3.8c-0.5,1.3-0.9,2.6-1.2,4c-0.3,1.3-0.4,2.7-0.7,4.1
	c-0.2,1.4-0.3,2.7-0.4,4.1l-0.1,0c-0.4-1.4-0.6-2.8-0.5-4.2c0.1-1.4,0.4-2.8,0.9-4.2C339.7,585.4,340.9,582.8,342.5,580.5
	L342.5,580.5z"/>
</svg>
