<svg id="Layer_1" data-name="Layer 1" xmlns="http://www.w3.org/2000/svg" width="370" height="52" viewBox="0 0 370 52"><defs><style>.cls-1{fill:#89cce5;}.cls-2{font-size:10px;fill:#fff;font-family:Futura-Medium, Futura;}.cls-3{letter-spacing:0.02em;}.cls-4{letter-spacing:0.01em;}.cls-5{letter-spacing:0em;}.cls-6{letter-spacing:-0.01em;}.cls-7{letter-spacing:-0.01em;}.cls-8{letter-spacing:0.01em;}</style></defs><title>mulighed_2.1</title><path class="cls-1" d="M363,38.53s-8.66-1.6-12.69-9A14.22,14.22,0,0,0,351.45,24V19c0-8.25-7.08-15-15.75-15H20.75C12.09,4,5,10.75,5,19v5c0,8.25,7.09,15,15.75,15h315a16.09,16.09,0,0,0,9.71-3.23A47.65,47.65,0,0,0,363,38.53Z"/><text class="cls-2" transform="translate(19.11 26.05) scale(0.93 1)">Du skynder dig at <tspan class="cls-3" x="83.48" y="0">f</tspan><tspan x="86.6" y="0">å alle til at sl</tspan><tspan class="cls-4" x="144.44" y="0">e</tspan><tspan x="150.06" y="0">t</tspan><tspan class="cls-4" x="152.8" y="0">t</tspan><tspan class="cls-5" x="155.62" y="0">e de</tspan><tspan class="cls-6" x="175.77" y="0">r</tspan><tspan x="179.44" y="0">es sc</tspan><tspan class="cls-7" x="200.94" y="0">r</tspan><tspan class="cls-5" x="204.61" y="0">eensh</tspan><tspan class="cls-8" x="230.7" y="0">o</tspan><tspan x="236.77" y="0">ts, så ingen opdager d</tspan><tspan class="cls-4" x="339.27" y="0">e</tspan><tspan x="344.89" y="0">t</tspan></text></svg>