<svg id="Layer_1" data-name="Layer 1" xmlns="http://www.w3.org/2000/svg" width="252" height="43" viewBox="0 0 252 43"><defs><style>.cls-1{fill:#89cce5;}.cls-2{font-size:10px;fill:#fff;font-family:Futura-Medium, Futura;}.cls-3{letter-spacing:-0.01em;}.cls-4{letter-spacing:0em;}.cls-5{letter-spacing:-0.01em;}.cls-6{letter-spacing:0.01em;}.cls-7{letter-spacing:0.01em;}</style></defs><title>mulighed_2.3</title><path class="cls-1" d="M245,32.54s-8.75-1.37-12.88-7.65a13.59,13.59,0,0,0,1.13-5.39h0c0-8-7-14.5-15.49-14.5H25.49C17,5,10,11.52,10,19.5h0c0,8,7,14.5,15.49,14.5H217.76a16,16,0,0,0,10.17-3.6A56.08,56.08,0,0,0,245,32.54Z"/><text class="cls-2" transform="translate(24.88 24.53) scale(0.93 1)">Du igno<tspan class="cls-3" x="35.77" y="0">r</tspan><tspan class="cls-4" x="39.44" y="0">e</tspan><tspan class="cls-5" x="44.97" y="0">r</tspan><tspan x="48.64" y="0">er d</tspan><tspan class="cls-6" x="67" y="0">e</tspan><tspan x="72.62" y="0">t og håber ingen opdager d</tspan><tspan class="cls-7" x="199.76" y="0">e</tspan><tspan x="205.38" y="0">t</tspan></text></svg>