<svg id="Layer_1" data-name="Layer 1" xmlns="http://www.w3.org/2000/svg" width="383" height="56" viewBox="0 0 383 56"><defs><style>.cls-1{fill:#0f86fe;}.cls-2{font-size:9.4279px;fill:#fff;font-family:Futura-Medium, Futura;}.cls-3{letter-spacing:0.0088em;}.cls-4{letter-spacing:-0.0068em;}.cls-5{letter-spacing:-0.0171em;}.cls-6{letter-spacing:-0.0171em;}.cls-7{letter-spacing:0.0001em;}</style></defs><title>mulighed_2.2</title><path class="cls-1" d="M375,46.6221s-5.87-1.1965-7.5325-7.0817a10.1874,10.1874,0,0,0,.5573-3.3118V28.7714c0-5.9243-5.1-10.7714-11.3343-10.7714H107.3344C101.1,18,96,22.8471,96,28.7714v7.4572C96,42.1528,101.1,47,107.3344,47H356.6905a11.6194,11.6194,0,0,0,7.36-2.6065A24.8334,24.8334,0,0,0,375,46.6221Z"/><text class="cls-2" transform="translate(112 36.8418) scale(0.969 1)">Du sender billed<tspan class="cls-3" x="69.973" y="0">e</tspan><tspan x="75.2717" y="0">t vide</tspan><tspan class="cls-4" x="98.7126" y="0">r</tspan><tspan x="102.1745" y="0">e til nogle af dine </tspan><tspan class="cls-5" x="180.0928" y="0">v</tspan><tspan x="184.6689" y="0">enner/</tspan><tspan class="cls-6" x="213.8505" y="0">v</tspan><tspan class="cls-7" x="218.4261" y="0">eninder</tspan></text></svg>