<svg id="Layer_1" data-name="Layer 1" xmlns="http://www.w3.org/2000/svg" width="288" height="48" viewBox="0 0 288 48"><defs><style>.cls-1{fill:#89cce5;}.cls-2{font-size:10px;fill:#f9f9f9;font-family:Futura-Medium, Futura;}.cls-3{letter-spacing:0.01em;}.cls-4{letter-spacing:0.04em;}.cls-5{letter-spacing:0em;}.cls-6{letter-spacing:-0.01em;}.cls-7{letter-spacing:-0.02em;}.cls-8{letter-spacing:-0.02em;}.cls-9{letter-spacing:0.01em;}.cls-10{letter-spacing:-0.02em;}</style></defs><title>mulighed_2.2</title><path class="cls-1" d="M276,37.51s-8-1.65-11.78-9.24a16.09,16.09,0,0,0,1.06-5.75v-1C265.28,13,258.7,6,250.66,6h-227C15.58,6,9,13,9,21.48v1C9,31,15.58,38,23.62,38h227a14,14,0,0,0,9-3.33C263.7,36.19,269.85,37.94,276,37.51Z"/><text class="cls-2" transform="translate(22.14 26.91) scale(0.93 1)">Du <tspan class="cls-3" x="15.8" y="0">f</tspan><tspan x="18.89" y="0">o</tspan><tspan class="cls-4" x="24.9" y="0">r</tspan><tspan class="cls-5" x="29" y="0">tæller Lau</tspan><tspan class="cls-6" x="73.56" y="0">r</tspan><tspan x="77.23" y="0">a h</tspan><tspan class="cls-7" x="91.8" y="0">v</tspan><tspan class="cls-5" x="96.65" y="0">ad der er s</tspan><tspan class="cls-8" x="146.5" y="0">k</tspan><tspan class="cls-9" x="151.32" y="0">e</tspan><tspan x="156.94" y="0">t og gå til en </tspan><tspan class="cls-10" x="217.81" y="0">v</tspan><tspan class="cls-5" x="222.65" y="0">oksen</tspan></text></svg>