<svg id="Layer_1" data-name="Layer 1" xmlns="http://www.w3.org/2000/svg" viewBox="0 0 300 300"><defs><style>.cls-1{fill:#e9eced;}.cls-2{fill:#152230;}</style></defs><title>musik</title><rect class="cls-1" x="142" y="117" width="27" height="27" rx="6.49" ry="6.49"/><path class="cls-2" d="M75.36,129.21c0-2.88,0-5.63.08-7.1h-.06c-.59,2-3.57,9.22-5.44,13.86H68.83c-1.41-3.59-4.5-11.65-5.17-13.88h0c.1,1.68.15,5.1.15,7.62V136H62.63v-14.7h1.7c2,5,4.56,11.63,5.1,13.29h0c.33-1.07,3.27-8.4,5.33-13.29h1.68V136H75.36Z"/><path class="cls-2" d="M81.91,121.27v8.9c0,3.91,2.2,4.92,4.28,4.92,2.46,0,4.29-1,4.29-4.92v-8.9h1.15v8.84c0,4.6-2.43,6-5.48,6s-5.42-1.58-5.42-5.84v-9Z"/><path class="cls-2" d="M95.31,132c.44,1.95,1.74,3.11,4.15,3.11,2.69,0,3.72-1.34,3.72-2.94s-.73-2.69-4-3.48-4.45-1.79-4.45-3.91c0-1.93,1.41-3.74,4.56-3.74s4.6,2,4.78,3.76h-1.17c-.34-1.57-1.37-2.71-3.68-2.71-2.12,0-3.27,1-3.27,2.63s1,2.24,3.67,2.92c4.14,1,4.75,2.68,4.75,4.45,0,2.16-1.58,4-5,4-3.67,0-5-2.14-5.29-4.12Z"/><path class="cls-2" d="M108.75,121.27V136h-1.14v-14.7Z"/><path class="cls-2" d="M113.07,121.27h1.14v7.65c1.17-1.14,5.37-5.09,8-7.65h1.51l-6.6,6.26,7,8.44h-1.41l-6.38-7.71-2.1,1.85V136h-1.14Z"/></svg>
