<svg id="Layer_2" data-name="Layer 2" xmlns="http://www.w3.org/2000/svg" viewBox="0 0 300 300"><defs><style>.cls-1,.cls-2{fill:#fff;}.cls-2{stroke:#fff;}.cls-2,.cls-3,.cls-4{stroke-miterlimit:10;}.cls-2,.cls-4{stroke-width:0.25px;}.cls-3,.cls-4{stroke:#000;}</style></defs><title>play_again</title><circle cx="141.5" cy="149.5" r="99.5"/><circle class="cls-1" cx="141" cy="150" r="78"/><path d="M110,109.49A51,51,0,1,1,107,188"/><path class="cls-2" d="M112.39,168.38A34,34,0,1,1,141,184a33.86,33.86,0,0,1-28.61-15.62"/><rect x="114" y="93" width="5" height="46" rx="2.5" ry="2.5" transform="translate(-47.16 131.61) rotate(-50.32)"/><rect x="95.94" y="100" width="5" height="41.14" rx="2.5" ry="2.5" transform="translate(12.11 -8.95) rotate(5.55)"/><path d="M108.91,138.24l-11,3A2.39,2.39,0,0,1,95,139.54h0a2.39,2.39,0,0,1,1.68-2.93l35.39-9.6a2.39,2.39,0,0,1,2.93,1.68h0a2.39,2.39,0,0,1-1.68,2.92l-24.21,6.57"/><path class="cls-1" d="M110.66,140.16l0,0a1.51,1.51,0,0,0-1.05-1.85,1.54,1.54,0,0,0-1.84,1.05l0,0a1.5,1.5,0,0,0,1,1.84,1.53,1.53,0,0,0,1.84-1.05Z"/><path class="cls-1" d="M109.25,141.21a1.5,1.5,0,0,0,0-3,1.5,1.5,0,0,0,0,3Z"/><path class="cls-1" d="M109.29,141.19a1.5,1.5,0,0,0,0-3,1.5,1.5,0,0,0,0,3Z"/><path class="cls-3" d="M98.61,126l-.33,10.36a59.87,59.87,0,0,0,6.91-1.11c7.7-1.55,15.43-3.1,22.75-5.94.52-.21,1.12-.51,1.2-1.06a1.67,1.67,0,0,0-.67-1.31,37.88,37.88,0,0,0-7.8-6.46c-2.14-1.19-4.53-2-6.45-3.5-2.25-1.78-3.69-4.43-6-6.16a31.38,31.38,0,0,0-6.91-4.15C98.32,111.87,98.79,120.09,98.61,126Z"/><rect class="cls-4" x="91.57" y="167.04" width="30" height="16.78" rx="6.54" ry="6.54" transform="translate(155.26 -23.97) rotate(45)"/><path class="cls-1" d="M106.35,159.62c.46,1.38.94,3.32,2,4.4,0,0,1,.75,1,.66l-.29-.34a2.63,2.63,0,0,0,.22.59,2,2,0,0,0,1.82,1.15,1.51,1.51,0,0,0,1.5-1.5,1.54,1.54,0,0,0-1.5-1.5l-.23,0,1.06.44a6.69,6.69,0,0,0-.45-.9c-.27-.31-.84-.56-1-.75a10.46,10.46,0,0,1-1.19-3c-.61-1.82-3.5-1-2.9.8Z"/><path class="cls-1" d="M112.75,164.8c.29.06.28,0,0-.22l-.48-.47-.83-.81-1.79-1.76c-1.37-1.36-3.5.76-2.12,2.12l2.5,2.46c.82.8,1.54,1.63,2.76,1.68,1.93.06,1.93-2.94,0-3Z"/><path class="cls-1" d="M106.42,191.16a1.5,1.5,0,0,0,0-3,1.5,1.5,0,0,0,0,3Z"/><path class="cls-1" d="M106.05,190.6a1.5,1.5,0,0,0,0-3,1.5,1.5,0,0,0,0,3Z"/><path class="cls-1" d="M119.81,176.29a1.5,1.5,0,0,0,0-3,1.5,1.5,0,0,0,0,3Z"/><path class="cls-1" d="M120.14,176.59a1.5,1.5,0,0,0,0-3,1.5,1.5,0,0,0,0,3Z"/><path class="cls-1" d="M119.59,176.07a1.5,1.5,0,0,0,0-3,1.5,1.5,0,0,0,0,3Z"/><path class="cls-1" d="M119.37,175.85a1.5,1.5,0,0,0,0-3,1.5,1.5,0,0,0,0,3Z"/><path class="cls-1" d="M119.07,175.52a1.5,1.5,0,0,0,0-3,1.5,1.5,0,0,0,0,3Z"/><path class="cls-1" d="M118.59,175.07a1.5,1.5,0,0,0,0-3,1.5,1.5,0,0,0,0,3Z"/><path class="cls-1" d="M118.81,175.33a1.5,1.5,0,0,0,0-3,1.5,1.5,0,0,0,0,3Z"/><path class="cls-1" d="M119.22,175.66a1.5,1.5,0,0,0,0-3,1.5,1.5,0,0,0,0,3Z"/><path class="cls-1" d="M118.4,174.85a1.5,1.5,0,0,0,0-3,1.5,1.5,0,0,0,0,3Z"/><path class="cls-1" d="M118.11,174.44a1.5,1.5,0,0,0,0-3,1.5,1.5,0,0,0,0,3Z"/><path class="cls-1" d="M108.1,164.59c.29.19,0-.15.14.14l.89-2.2-.09,0,1.16.15-.09-.07.53.54a1.69,1.69,0,0,0-1.69-.88,1.58,1.58,0,0,0-1.36,1.57,1.51,1.51,0,0,0,1.5,1.5,1.54,1.54,0,0,0,1.5-1.5v-.06l-.74,1.3.05,0-.75.2h.06l-1.06-.44c-.17-.25-.13-.19.14.16l.39.3a1.69,1.69,0,0,0,1.25.13,1.51,1.51,0,0,0,.9-2.2,3.74,3.74,0,0,0-1.22-1.22,1.5,1.5,0,0,0-1.51,2.59Z"/><path class="cls-1" d="M108.25,165.11c.6.65,1.22,1.27,1.85,1.89a1.5,1.5,0,0,0,2.12-2.12c-.63-.62-1.24-1.25-1.85-1.89a1.5,1.5,0,0,0-2.12,2.12Z"/><path class="cls-1" d="M118.88,171.5a4.37,4.37,0,0,0-.44-.42l-1.82,2.36c-.12-.1-.12-.09,0,0-.1-.13-.1-.12,0,0l2.36-1.82a6.24,6.24,0,0,1-1.08-1.26,1.53,1.53,0,0,0-2-.53,1.51,1.51,0,0,0-.54,2.05,10.27,10.27,0,0,0,1.55,1.87A1.5,1.5,0,0,0,119.2,172a3.08,3.08,0,0,0-1.07-1.14,1.5,1.5,0,0,0-1.81,2.36,3.39,3.39,0,0,1,.44.41,1.5,1.5,0,0,0,2.12-2.12Z"/><path class="cls-1" d="M110.14,167a21.06,21.06,0,0,0,3.8,3.45c1.64,1,3.15-1.56,1.52-2.59a17.37,17.37,0,0,1-3.2-3c-1.32-1.41-3.44.72-2.12,2.12Z"/></svg>
