<svg xmlns="http://www.w3.org/2000/svg" viewBox="0 0 300 300"><defs><style>.cls-1{fill:#e9eced;}.cls-2{fill:#fff;}</style></defs><title>settings2</title><g id="Layer_1" data-name="Layer 1"><ellipse class="cls-1" cx="146" cy="151" rx="104" ry="99"/><circle class="cls-2" cx="145.5" cy="149.5" r="48.5"/><circle class="cls-1" cx="145.5" cy="149.5" r="29.5"/><rect class="cls-2" x="136" y="71" width="18" height="41" rx="9" ry="9"/><rect class="cls-2" x="180" y="84" width="18" height="41" rx="9" ry="9" transform="translate(250.98 311.38) rotate(-135.62)"/><rect class="cls-2" x="197.5" y="130.5" width="18" height="41" rx="9" ry="9" transform="translate(55.5 357.5) rotate(-90)"/><rect class="cls-2" x="137" y="187" width="18" height="41" rx="9" ry="9"/><rect class="cls-2" x="180" y="169" width="18" height="41" rx="9" ry="9" transform="translate(-77.78 210.88) rotate(-49.66)"/><rect class="cls-2" x="92" y="172" width="18" height="41" rx="9" ry="9" transform="translate(36.3 400.04) rotate(-135)"/><rect class="cls-2" x="76.5" y="130.5" width="18" height="41" rx="9" ry="9" transform="translate(-65.5 236.5) rotate(-90)"/><rect class="cls-2" x="92" y="88" width="18" height="41" rx="9" ry="9" transform="translate(-47.08 115.24) rotate(-49.66)"/></g></svg>
