<svg xmlns="http://www.w3.org/2000/svg" viewBox="0 0 300 300"><defs><style>.cls-1{fill:#152240;}.cls-2{fill:#152230;}.cls-3{fill:#fff;}</style></defs><title>settings1</title><g id="Layer_1" data-name="Layer 1"><circle class="cls-1" cx="152.5" cy="152.5" r="88"/><path class="cls-1" d="M152.5,65A87.5,87.5,0,1,1,65,152.5,87.6,87.6,0,0,1,152.5,65m0-1A88.5,88.5,0,1,0,241,152.5,88.5,88.5,0,0,0,152.5,64Z"/><circle class="cls-2" cx="156.5" cy="150.5" r="88"/><path class="cls-2" d="M156.5,63A87.5,87.5,0,1,1,69,150.5,87.6,87.6,0,0,1,156.5,63m0-1A88.5,88.5,0,1,0,245,150.5,88.5,88.5,0,0,0,156.5,62Z"/><path class="cls-2" d="M150.5,63.5a11,11,0,0,1,0-22h10a11,11,0,0,1,0,22Z"/><path class="cls-2" d="M160.5,42a10.5,10.5,0,0,1,0,21h-10a10.5,10.5,0,0,1,0-21h10m0-1h-10A11.53,11.53,0,0,0,139,52.5h0A11.53,11.53,0,0,0,150.5,64h10A11.53,11.53,0,0,0,172,52.5h0A11.53,11.53,0,0,0,160.5,41Z"/><path class="cls-2" d="M150.5,260.5a11,11,0,0,1,0-22h10a11,11,0,0,1,0,22Z"/><path class="cls-2" d="M160.5,239a10.5,10.5,0,0,1,0,21h-10a10.5,10.5,0,0,1,0-21h10m0-1h-10A11.53,11.53,0,0,0,139,249.5h0A11.53,11.53,0,0,0,150.5,261h10A11.53,11.53,0,0,0,172,249.5h0A11.53,11.53,0,0,0,160.5,238Z"/><path class="cls-2" d="M81.68,94.7A11,11,0,0,1,74.6,75.28l7.67-6.42A11,11,0,1,1,96.4,85.72l-7.67,6.42A11,11,0,0,1,81.68,94.7Z"/><path class="cls-2" d="M89.32,66.8h0a10.49,10.49,0,0,1,6.75,18.54l-7.66,6.42a10.52,10.52,0,0,1-14.79-1.31,10.52,10.52,0,0,1,1.31-14.79l7.66-6.42a10.52,10.52,0,0,1,6.73-2.44m0-1A11.46,11.46,0,0,0,82,68.47l-7.67,6.42a11.53,11.53,0,0,0-1.43,16.2h0a11.53,11.53,0,0,0,16.2,1.44l7.67-6.42a11.53,11.53,0,0,0,1.43-16.2h0a11.49,11.49,0,0,0-8.83-4.11Z"/><path class="cls-2" d="M254.5,163.5a11,11,0,0,1-11-11v-10a11,11,0,0,1,22,0v10A11,11,0,0,1,254.5,163.5Z"/><path class="cls-2" d="M254.5,132A10.51,10.51,0,0,1,265,142.5v10a10.5,10.5,0,0,1-21,0v-10A10.51,10.51,0,0,1,254.5,132m0-1A11.53,11.53,0,0,0,243,142.5v10a11.5,11.5,0,0,0,23,0v-10A11.53,11.53,0,0,0,254.5,131Z"/><path class="cls-2" d="M219.68,236.7a11,11,0,0,1-7.08-19.42l7.67-6.42a11,11,0,1,1,14.13,16.86l-7.67,6.42A11,11,0,0,1,219.68,236.7Z"/><path class="cls-2" d="M227.32,208.8h0a10.5,10.5,0,0,1,6.75,18.54l-7.66,6.42a10.52,10.52,0,0,1-14.79-1.31,10.52,10.52,0,0,1,1.31-14.79l7.66-6.42a10.52,10.52,0,0,1,6.73-2.44m0-1a11.46,11.46,0,0,0-7.37,2.67l-7.67,6.42a11.53,11.53,0,0,0-1.43,16.2h0a11.53,11.53,0,0,0,16.2,1.44l7.67-6.42a11.53,11.53,0,0,0,1.43-16.2h0a11.49,11.49,0,0,0-8.83-4.11Z"/><path class="cls-2" d="M88.72,233.32a11,11,0,0,1-8.44-3.92l-6.42-7.67A11,11,0,0,1,90.72,207.6l6.42,7.67a11,11,0,0,1-8.42,18Z"/><path class="cls-2" d="M82.28,204.18h0a10.48,10.48,0,0,1,8.06,3.75l6.42,7.66a10.5,10.5,0,0,1-16.1,13.48l-6.42-7.66a10.49,10.49,0,0,1,8-17.23m0-1a11.46,11.46,0,0,0-7.37,2.67h0a11.53,11.53,0,0,0-1.44,16.2l6.42,7.67a11.54,11.54,0,0,0,16.2,1.43h0A11.53,11.53,0,0,0,97.53,215l-6.42-7.67a11.51,11.51,0,0,0-8.83-4.1Z"/><path class="cls-2" d="M57.5,168.5a11,11,0,0,1-11-11v-10a11,11,0,0,1,22,0v10A11,11,0,0,1,57.5,168.5Z"/><path class="cls-2" d="M57.5,137A10.51,10.51,0,0,1,68,147.5v10a10.5,10.5,0,0,1-21,0v-10A10.51,10.51,0,0,1,57.5,137m0-1h0A11.53,11.53,0,0,0,46,147.5v10A11.53,11.53,0,0,0,57.5,169h0A11.53,11.53,0,0,0,69,157.5v-10A11.53,11.53,0,0,0,57.5,136Z"/><path class="cls-2" d="M228.25,93.78A11,11,0,0,1,221,91.07l-7.52-6.59A11,11,0,0,1,228,67.93l7.52,6.59a11,11,0,0,1-7.26,19.26Z"/><path class="cls-2" d="M220.75,64.72v1a10.49,10.49,0,0,1,6.91,2.59l7.52,6.59a10.54,10.54,0,0,1,1,14.81,10.53,10.53,0,0,1-14.82,1l-7.52-6.59a10.54,10.54,0,0,1-1-14.81,10.51,10.51,0,0,1,7.91-3.57v-1m0,0a11.45,11.45,0,0,0-8.66,3.91h0a11.53,11.53,0,0,0,1.07,16.23l7.52,6.59a11.54,11.54,0,0,0,16.23-1.08h0a11.53,11.53,0,0,0-1.07-16.23l-7.52-6.59a11.48,11.48,0,0,0-7.57-2.83Z"/><circle class="cls-3" cx="155.5" cy="147.5" r="29.5"/></g></svg>
